<?xml version="1.0" encoding="utf-8" standalone="no"?>
<!DOCTYPE svg PUBLIC "-//W3C//DTD SVG 1.1//EN"
  "http://www.w3.org/Graphics/SVG/1.1/DTD/svg11.dtd">
<svg xmlns:xlink="http://www.w3.org/1999/xlink" width="576pt" height="288pt" viewBox="0 0 576 288" xmlns="http://www.w3.org/2000/svg" version="1.1">
 <metadata>
  <rdf:RDF xmlns:dc="http://purl.org/dc/elements/1.1/" xmlns:cc="http://creativecommons.org/ns#" xmlns:rdf="http://www.w3.org/1999/02/22-rdf-syntax-ns#">
   <cc:Work>
    <dc:type rdf:resource="http://purl.org/dc/dcmitype/StillImage"/>
    <dc:date>2024-04-03T23:11:55.574950</dc:date>
    <dc:format>image/svg+xml</dc:format>
    <dc:creator>
     <cc:Agent>
      <dc:title>Matplotlib v3.8.3, https://matplotlib.org/</dc:title>
     </cc:Agent>
    </dc:creator>
   </cc:Work>
  </rdf:RDF>
 </metadata>
 <defs>
  <style type="text/css">*{stroke-linejoin: round; stroke-linecap: butt}</style>
 </defs>
 <g id="figure_1">
  <g id="patch_1">
   <path d="M 0 288 
L 576 288 
L 576 0 
L 0 0 
z
" style="fill: #ffffff"/>
  </g>
  <g id="axes_1">
   <g id="patch_2">
    <path d="M 52.84 117.4 
L 538.08 117.4 
L 538.08 33.96 
L 52.84 33.96 
z
" style="fill: #ffffff"/>
   </g>
   <g id="matplotlib.axis_1">
    <g id="xtick_1">
     <g id="line2d_1">
      <defs>
       <path id="mbac6b60662" d="M 0 0 
L 0 3.5 
" style="stroke: #000000; stroke-width: 0.8"/>
      </defs>
      <g>
       <use xlink:href="#mbac6b60662" x="74.896364" y="117.4" style="stroke: #000000; stroke-width: 0.8"/>
      </g>
     </g>
    </g>
    <g id="xtick_2">
     <g id="line2d_2">
      <g>
       <use xlink:href="#mbac6b60662" x="164.012984" y="117.4" style="stroke: #000000; stroke-width: 0.8"/>
      </g>
     </g>
    </g>
    <g id="xtick_3">
     <g id="line2d_3">
      <g>
       <use xlink:href="#mbac6b60662" x="253.129605" y="117.4" style="stroke: #000000; stroke-width: 0.8"/>
      </g>
     </g>
    </g>
    <g id="xtick_4">
     <g id="line2d_4">
      <g>
       <use xlink:href="#mbac6b60662" x="342.246226" y="117.4" style="stroke: #000000; stroke-width: 0.8"/>
      </g>
     </g>
    </g>
    <g id="xtick_5">
     <g id="line2d_5">
      <g>
       <use xlink:href="#mbac6b60662" x="431.362847" y="117.4" style="stroke: #000000; stroke-width: 0.8"/>
      </g>
     </g>
    </g>
    <g id="xtick_6">
     <g id="line2d_6">
      <g>
       <use xlink:href="#mbac6b60662" x="520.479467" y="117.4" style="stroke: #000000; stroke-width: 0.8"/>
      </g>
     </g>
    </g>
   </g>
   <g id="matplotlib.axis_2">
    <g id="ytick_1">
     <g id="line2d_7">
      <defs>
       <path id="m4227125398" d="M 0 0 
L -3.5 0 
" style="stroke: #000000; stroke-width: 0.8"/>
      </defs>
      <g>
       <use xlink:href="#m4227125398" x="52.84" y="110.528272" style="stroke: #000000; stroke-width: 0.8"/>
      </g>
     </g>
     <g id="text_1">
      <!-- 0.0 -->
      <g transform="translate(29.936875 114.327491) scale(0.1 -0.1)">
       <defs>
        <path id="DejaVuSans-30" d="M 2034 4250 
Q 1547 4250 1301 3770 
Q 1056 3291 1056 2328 
Q 1056 1369 1301 889 
Q 1547 409 2034 409 
Q 2525 409 2770 889 
Q 3016 1369 3016 2328 
Q 3016 3291 2770 3770 
Q 2525 4250 2034 4250 
z
M 2034 4750 
Q 2819 4750 3233 4129 
Q 3647 3509 3647 2328 
Q 3647 1150 3233 529 
Q 2819 -91 2034 -91 
Q 1250 -91 836 529 
Q 422 1150 422 2328 
Q 422 3509 836 4129 
Q 1250 4750 2034 4750 
z
" transform="scale(0.015625)"/>
        <path id="DejaVuSans-2e" d="M 684 794 
L 1344 794 
L 1344 0 
L 684 0 
L 684 794 
z
" transform="scale(0.015625)"/>
       </defs>
       <use xlink:href="#DejaVuSans-30"/>
       <use xlink:href="#DejaVuSans-2e" x="63.623047"/>
       <use xlink:href="#DejaVuSans-30" x="95.410156"/>
      </g>
     </g>
    </g>
    <g id="ytick_2">
     <g id="line2d_8">
      <g>
       <use xlink:href="#m4227125398" x="52.84" y="74.1405" style="stroke: #000000; stroke-width: 0.8"/>
      </g>
     </g>
     <g id="text_2">
      <!-- 0.5 -->
      <g transform="translate(29.936875 77.939718) scale(0.1 -0.1)">
       <defs>
        <path id="DejaVuSans-35" d="M 691 4666 
L 3169 4666 
L 3169 4134 
L 1269 4134 
L 1269 2991 
Q 1406 3038 1543 3061 
Q 1681 3084 1819 3084 
Q 2600 3084 3056 2656 
Q 3513 2228 3513 1497 
Q 3513 744 3044 326 
Q 2575 -91 1722 -91 
Q 1428 -91 1123 -41 
Q 819 9 494 109 
L 494 744 
Q 775 591 1075 516 
Q 1375 441 1709 441 
Q 2250 441 2565 725 
Q 2881 1009 2881 1497 
Q 2881 1984 2565 2268 
Q 2250 2553 1709 2553 
Q 1456 2553 1204 2497 
Q 953 2441 691 2322 
L 691 4666 
z
" transform="scale(0.015625)"/>
       </defs>
       <use xlink:href="#DejaVuSans-30"/>
       <use xlink:href="#DejaVuSans-2e" x="63.623047"/>
       <use xlink:href="#DejaVuSans-35" x="95.410156"/>
      </g>
     </g>
    </g>
    <g id="ytick_3">
     <g id="line2d_9">
      <g>
       <use xlink:href="#m4227125398" x="52.84" y="37.752727" style="stroke: #000000; stroke-width: 0.8"/>
      </g>
     </g>
     <g id="text_3">
      <!-- 1.0 -->
      <g transform="translate(29.936875 41.551946) scale(0.1 -0.1)">
       <defs>
        <path id="DejaVuSans-31" d="M 794 531 
L 1825 531 
L 1825 4091 
L 703 3866 
L 703 4441 
L 1819 4666 
L 2450 4666 
L 2450 531 
L 3481 531 
L 3481 0 
L 794 0 
L 794 531 
z
" transform="scale(0.015625)"/>
       </defs>
       <use xlink:href="#DejaVuSans-31"/>
       <use xlink:href="#DejaVuSans-2e" x="63.623047"/>
       <use xlink:href="#DejaVuSans-30" x="95.410156"/>
      </g>
     </g>
    </g>
    <g id="text_4">
     <!-- Autocorrelation -->
     <g transform="translate(23.857188 114.115156) rotate(-90) scale(0.1 -0.1)">
      <defs>
       <path id="DejaVuSans-41" d="M 2188 4044 
L 1331 1722 
L 3047 1722 
L 2188 4044 
z
M 1831 4666 
L 2547 4666 
L 4325 0 
L 3669 0 
L 3244 1197 
L 1141 1197 
L 716 0 
L 50 0 
L 1831 4666 
z
" transform="scale(0.015625)"/>
       <path id="DejaVuSans-75" d="M 544 1381 
L 544 3500 
L 1119 3500 
L 1119 1403 
Q 1119 906 1312 657 
Q 1506 409 1894 409 
Q 2359 409 2629 706 
Q 2900 1003 2900 1516 
L 2900 3500 
L 3475 3500 
L 3475 0 
L 2900 0 
L 2900 538 
Q 2691 219 2414 64 
Q 2138 -91 1772 -91 
Q 1169 -91 856 284 
Q 544 659 544 1381 
z
M 1991 3584 
L 1991 3584 
z
" transform="scale(0.015625)"/>
       <path id="DejaVuSans-74" d="M 1172 4494 
L 1172 3500 
L 2356 3500 
L 2356 3053 
L 1172 3053 
L 1172 1153 
Q 1172 725 1289 603 
Q 1406 481 1766 481 
L 2356 481 
L 2356 0 
L 1766 0 
Q 1100 0 847 248 
Q 594 497 594 1153 
L 594 3053 
L 172 3053 
L 172 3500 
L 594 3500 
L 594 4494 
L 1172 4494 
z
" transform="scale(0.015625)"/>
       <path id="DejaVuSans-6f" d="M 1959 3097 
Q 1497 3097 1228 2736 
Q 959 2375 959 1747 
Q 959 1119 1226 758 
Q 1494 397 1959 397 
Q 2419 397 2687 759 
Q 2956 1122 2956 1747 
Q 2956 2369 2687 2733 
Q 2419 3097 1959 3097 
z
M 1959 3584 
Q 2709 3584 3137 3096 
Q 3566 2609 3566 1747 
Q 3566 888 3137 398 
Q 2709 -91 1959 -91 
Q 1206 -91 779 398 
Q 353 888 353 1747 
Q 353 2609 779 3096 
Q 1206 3584 1959 3584 
z
" transform="scale(0.015625)"/>
       <path id="DejaVuSans-63" d="M 3122 3366 
L 3122 2828 
Q 2878 2963 2633 3030 
Q 2388 3097 2138 3097 
Q 1578 3097 1268 2742 
Q 959 2388 959 1747 
Q 959 1106 1268 751 
Q 1578 397 2138 397 
Q 2388 397 2633 464 
Q 2878 531 3122 666 
L 3122 134 
Q 2881 22 2623 -34 
Q 2366 -91 2075 -91 
Q 1284 -91 818 406 
Q 353 903 353 1747 
Q 353 2603 823 3093 
Q 1294 3584 2113 3584 
Q 2378 3584 2631 3529 
Q 2884 3475 3122 3366 
z
" transform="scale(0.015625)"/>
       <path id="DejaVuSans-72" d="M 2631 2963 
Q 2534 3019 2420 3045 
Q 2306 3072 2169 3072 
Q 1681 3072 1420 2755 
Q 1159 2438 1159 1844 
L 1159 0 
L 581 0 
L 581 3500 
L 1159 3500 
L 1159 2956 
Q 1341 3275 1631 3429 
Q 1922 3584 2338 3584 
Q 2397 3584 2469 3576 
Q 2541 3569 2628 3553 
L 2631 2963 
z
" transform="scale(0.015625)"/>
       <path id="DejaVuSans-65" d="M 3597 1894 
L 3597 1613 
L 953 1613 
Q 991 1019 1311 708 
Q 1631 397 2203 397 
Q 2534 397 2845 478 
Q 3156 559 3463 722 
L 3463 178 
Q 3153 47 2828 -22 
Q 2503 -91 2169 -91 
Q 1331 -91 842 396 
Q 353 884 353 1716 
Q 353 2575 817 3079 
Q 1281 3584 2069 3584 
Q 2775 3584 3186 3129 
Q 3597 2675 3597 1894 
z
M 3022 2063 
Q 3016 2534 2758 2815 
Q 2500 3097 2075 3097 
Q 1594 3097 1305 2825 
Q 1016 2553 972 2059 
L 3022 2063 
z
" transform="scale(0.015625)"/>
       <path id="DejaVuSans-6c" d="M 603 4863 
L 1178 4863 
L 1178 0 
L 603 0 
L 603 4863 
z
" transform="scale(0.015625)"/>
       <path id="DejaVuSans-61" d="M 2194 1759 
Q 1497 1759 1228 1600 
Q 959 1441 959 1056 
Q 959 750 1161 570 
Q 1363 391 1709 391 
Q 2188 391 2477 730 
Q 2766 1069 2766 1631 
L 2766 1759 
L 2194 1759 
z
M 3341 1997 
L 3341 0 
L 2766 0 
L 2766 531 
Q 2569 213 2275 61 
Q 1981 -91 1556 -91 
Q 1019 -91 701 211 
Q 384 513 384 1019 
Q 384 1609 779 1909 
Q 1175 2209 1959 2209 
L 2766 2209 
L 2766 2266 
Q 2766 2663 2505 2880 
Q 2244 3097 1772 3097 
Q 1472 3097 1187 3025 
Q 903 2953 641 2809 
L 641 3341 
Q 956 3463 1253 3523 
Q 1550 3584 1831 3584 
Q 2591 3584 2966 3190 
Q 3341 2797 3341 1997 
z
" transform="scale(0.015625)"/>
       <path id="DejaVuSans-69" d="M 603 3500 
L 1178 3500 
L 1178 0 
L 603 0 
L 603 3500 
z
M 603 4863 
L 1178 4863 
L 1178 4134 
L 603 4134 
L 603 4863 
z
" transform="scale(0.015625)"/>
       <path id="DejaVuSans-6e" d="M 3513 2113 
L 3513 0 
L 2938 0 
L 2938 2094 
Q 2938 2591 2744 2837 
Q 2550 3084 2163 3084 
Q 1697 3084 1428 2787 
Q 1159 2491 1159 1978 
L 1159 0 
L 581 0 
L 581 3500 
L 1159 3500 
L 1159 2956 
Q 1366 3272 1645 3428 
Q 1925 3584 2291 3584 
Q 2894 3584 3203 3211 
Q 3513 2838 3513 2113 
z
" transform="scale(0.015625)"/>
      </defs>
      <use xlink:href="#DejaVuSans-41"/>
      <use xlink:href="#DejaVuSans-75" x="68.408203"/>
      <use xlink:href="#DejaVuSans-74" x="131.787109"/>
      <use xlink:href="#DejaVuSans-6f" x="170.996094"/>
      <use xlink:href="#DejaVuSans-63" x="232.177734"/>
      <use xlink:href="#DejaVuSans-6f" x="287.158203"/>
      <use xlink:href="#DejaVuSans-72" x="348.339844"/>
      <use xlink:href="#DejaVuSans-72" x="387.703125"/>
      <use xlink:href="#DejaVuSans-65" x="426.566406"/>
      <use xlink:href="#DejaVuSans-6c" x="488.089844"/>
      <use xlink:href="#DejaVuSans-61" x="515.873047"/>
      <use xlink:href="#DejaVuSans-74" x="577.152344"/>
      <use xlink:href="#DejaVuSans-69" x="616.361328"/>
      <use xlink:href="#DejaVuSans-6f" x="644.144531"/>
      <use xlink:href="#DejaVuSans-6e" x="705.326172"/>
     </g>
    </g>
   </g>
   <g id="line2d_10">
    <path d="M 74.896364 37.752727 
L 79.352195 73.170826 
L 83.808026 90.90754 
L 88.263857 99.604163 
L 92.719688 105.471809 
L 97.175519 108.471889 
L 101.63135 108.81125 
L 106.087181 110.804539 
L 110.543012 111.031401 
L 114.998843 111.060835 
L 119.454674 110.818534 
L 123.910505 109.115905 
L 128.366336 108.987972 
L 132.822167 108.983029 
L 137.277998 110.293783 
L 141.733829 111.134496 
L 146.18966 111.49619 
L 150.645491 112.048843 
L 155.101322 110.690564 
L 159.557153 110.537848 
L 164.012984 111.156251 
L 168.468815 111.174379 
L 172.924646 111.511668 
L 177.380478 112.566436 
L 181.836309 113.42455 
L 186.29214 112.61104 
L 190.747971 112.588343 
L 195.203802 111.766835 
L 199.659633 111.627542 
L 204.115464 109.851915 
L 208.571295 109.37263 
L 213.027126 110.756186 
L 217.482957 111.548281 
L 221.938788 112.06318 
L 226.394619 111.837125 
L 230.85045 112.351479 
L 235.306281 112.20455 
L 239.762112 112.308226 
L 244.217943 111.270458 
L 248.673774 110.816555 
L 253.129605 110.338045 
L 257.585436 110.656982 
L 262.041267 111.152281 
L 266.497098 111.362709 
L 270.952929 111.549854 
L 275.40876 112.136807 
L 279.864591 111.594967 
L 284.320422 110.780604 
L 288.776253 111.650189 
L 293.232084 109.889576 
L 297.687916 109.494966 
L 302.143747 109.489944 
L 306.599578 108.84214 
L 311.055409 108.30315 
L 315.51124 109.847496 
L 319.967071 109.8327 
L 324.422902 110.811869 
L 328.878733 110.707814 
L 333.334564 110.934605 
L 337.790395 110.480468 
L 342.246226 110.615174 
L 346.702057 110.334039 
L 351.157888 110.865509 
L 355.613719 110.023402 
L 360.06955 110.432897 
L 364.525381 110.115304 
L 368.981212 111.824444 
L 373.437043 113.158887 
L 377.892874 112.375818 
L 382.348705 112.239926 
L 386.804536 112.992118 
L 391.260367 113.607273 
L 395.716198 112.866153 
L 400.172029 112.808574 
L 404.62786 112.301586 
L 409.083691 111.285023 
L 413.539522 110.445899 
L 417.995354 110.792789 
L 422.451185 111.171749 
L 426.907016 109.757524 
L 431.362847 109.662995 
L 435.818678 108.596167 
L 440.274509 110.708213 
L 444.73034 111.112522 
L 449.186171 110.002753 
L 453.642002 110.815806 
L 458.097833 112.640671 
L 462.553664 113.032852 
L 467.009495 112.668835 
L 471.465326 111.583026 
L 475.921157 111.091742 
L 480.376988 110.788579 
L 484.832819 110.110601 
L 489.28865 110.673309 
L 493.744481 111.599883 
L 498.200312 111.403471 
L 502.656143 110.537749 
L 507.111974 110.522833 
L 511.567805 109.99815 
L 516.023636 110.71228 
" clip-path="url(#pbb5145e8fb)" style="fill: none; stroke: #1f77b4; stroke-width: 1.5; stroke-linecap: square"/>
    <defs>
     <path id="m374333302e" d="M 0 3 
C 0.795609 3 1.55874 2.683901 2.12132 2.12132 
C 2.683901 1.55874 3 0.795609 3 0 
C 3 -0.795609 2.683901 -1.55874 2.12132 -2.12132 
C 1.55874 -2.683901 0.795609 -3 0 -3 
C -0.795609 -3 -1.55874 -2.683901 -2.12132 -2.12132 
C -2.683901 -1.55874 -3 -0.795609 -3 0 
C -3 0.795609 -2.683901 1.55874 -2.12132 2.12132 
C -1.55874 2.683901 -0.795609 3 0 3 
z
" style="stroke: #1f77b4"/>
    </defs>
    <g clip-path="url(#pbb5145e8fb)">
     <use xlink:href="#m374333302e" x="74.896364" y="37.752727" style="fill: #1f77b4; stroke: #1f77b4"/>
     <use xlink:href="#m374333302e" x="79.352195" y="73.170826" style="fill: #1f77b4; stroke: #1f77b4"/>
     <use xlink:href="#m374333302e" x="83.808026" y="90.90754" style="fill: #1f77b4; stroke: #1f77b4"/>
     <use xlink:href="#m374333302e" x="88.263857" y="99.604163" style="fill: #1f77b4; stroke: #1f77b4"/>
     <use xlink:href="#m374333302e" x="92.719688" y="105.471809" style="fill: #1f77b4; stroke: #1f77b4"/>
     <use xlink:href="#m374333302e" x="97.175519" y="108.471889" style="fill: #1f77b4; stroke: #1f77b4"/>
     <use xlink:href="#m374333302e" x="101.63135" y="108.81125" style="fill: #1f77b4; stroke: #1f77b4"/>
     <use xlink:href="#m374333302e" x="106.087181" y="110.804539" style="fill: #1f77b4; stroke: #1f77b4"/>
     <use xlink:href="#m374333302e" x="110.543012" y="111.031401" style="fill: #1f77b4; stroke: #1f77b4"/>
     <use xlink:href="#m374333302e" x="114.998843" y="111.060835" style="fill: #1f77b4; stroke: #1f77b4"/>
     <use xlink:href="#m374333302e" x="119.454674" y="110.818534" style="fill: #1f77b4; stroke: #1f77b4"/>
     <use xlink:href="#m374333302e" x="123.910505" y="109.115905" style="fill: #1f77b4; stroke: #1f77b4"/>
     <use xlink:href="#m374333302e" x="128.366336" y="108.987972" style="fill: #1f77b4; stroke: #1f77b4"/>
     <use xlink:href="#m374333302e" x="132.822167" y="108.983029" style="fill: #1f77b4; stroke: #1f77b4"/>
     <use xlink:href="#m374333302e" x="137.277998" y="110.293783" style="fill: #1f77b4; stroke: #1f77b4"/>
     <use xlink:href="#m374333302e" x="141.733829" y="111.134496" style="fill: #1f77b4; stroke: #1f77b4"/>
     <use xlink:href="#m374333302e" x="146.18966" y="111.49619" style="fill: #1f77b4; stroke: #1f77b4"/>
     <use xlink:href="#m374333302e" x="150.645491" y="112.048843" style="fill: #1f77b4; stroke: #1f77b4"/>
     <use xlink:href="#m374333302e" x="155.101322" y="110.690564" style="fill: #1f77b4; stroke: #1f77b4"/>
     <use xlink:href="#m374333302e" x="159.557153" y="110.537848" style="fill: #1f77b4; stroke: #1f77b4"/>
     <use xlink:href="#m374333302e" x="164.012984" y="111.156251" style="fill: #1f77b4; stroke: #1f77b4"/>
     <use xlink:href="#m374333302e" x="168.468815" y="111.174379" style="fill: #1f77b4; stroke: #1f77b4"/>
     <use xlink:href="#m374333302e" x="172.924646" y="111.511668" style="fill: #1f77b4; stroke: #1f77b4"/>
     <use xlink:href="#m374333302e" x="177.380478" y="112.566436" style="fill: #1f77b4; stroke: #1f77b4"/>
     <use xlink:href="#m374333302e" x="181.836309" y="113.42455" style="fill: #1f77b4; stroke: #1f77b4"/>
     <use xlink:href="#m374333302e" x="186.29214" y="112.61104" style="fill: #1f77b4; stroke: #1f77b4"/>
     <use xlink:href="#m374333302e" x="190.747971" y="112.588343" style="fill: #1f77b4; stroke: #1f77b4"/>
     <use xlink:href="#m374333302e" x="195.203802" y="111.766835" style="fill: #1f77b4; stroke: #1f77b4"/>
     <use xlink:href="#m374333302e" x="199.659633" y="111.627542" style="fill: #1f77b4; stroke: #1f77b4"/>
     <use xlink:href="#m374333302e" x="204.115464" y="109.851915" style="fill: #1f77b4; stroke: #1f77b4"/>
     <use xlink:href="#m374333302e" x="208.571295" y="109.37263" style="fill: #1f77b4; stroke: #1f77b4"/>
     <use xlink:href="#m374333302e" x="213.027126" y="110.756186" style="fill: #1f77b4; stroke: #1f77b4"/>
     <use xlink:href="#m374333302e" x="217.482957" y="111.548281" style="fill: #1f77b4; stroke: #1f77b4"/>
     <use xlink:href="#m374333302e" x="221.938788" y="112.06318" style="fill: #1f77b4; stroke: #1f77b4"/>
     <use xlink:href="#m374333302e" x="226.394619" y="111.837125" style="fill: #1f77b4; stroke: #1f77b4"/>
     <use xlink:href="#m374333302e" x="230.85045" y="112.351479" style="fill: #1f77b4; stroke: #1f77b4"/>
     <use xlink:href="#m374333302e" x="235.306281" y="112.20455" style="fill: #1f77b4; stroke: #1f77b4"/>
     <use xlink:href="#m374333302e" x="239.762112" y="112.308226" style="fill: #1f77b4; stroke: #1f77b4"/>
     <use xlink:href="#m374333302e" x="244.217943" y="111.270458" style="fill: #1f77b4; stroke: #1f77b4"/>
     <use xlink:href="#m374333302e" x="248.673774" y="110.816555" style="fill: #1f77b4; stroke: #1f77b4"/>
     <use xlink:href="#m374333302e" x="253.129605" y="110.338045" style="fill: #1f77b4; stroke: #1f77b4"/>
     <use xlink:href="#m374333302e" x="257.585436" y="110.656982" style="fill: #1f77b4; stroke: #1f77b4"/>
     <use xlink:href="#m374333302e" x="262.041267" y="111.152281" style="fill: #1f77b4; stroke: #1f77b4"/>
     <use xlink:href="#m374333302e" x="266.497098" y="111.362709" style="fill: #1f77b4; stroke: #1f77b4"/>
     <use xlink:href="#m374333302e" x="270.952929" y="111.549854" style="fill: #1f77b4; stroke: #1f77b4"/>
     <use xlink:href="#m374333302e" x="275.40876" y="112.136807" style="fill: #1f77b4; stroke: #1f77b4"/>
     <use xlink:href="#m374333302e" x="279.864591" y="111.594967" style="fill: #1f77b4; stroke: #1f77b4"/>
     <use xlink:href="#m374333302e" x="284.320422" y="110.780604" style="fill: #1f77b4; stroke: #1f77b4"/>
     <use xlink:href="#m374333302e" x="288.776253" y="111.650189" style="fill: #1f77b4; stroke: #1f77b4"/>
     <use xlink:href="#m374333302e" x="293.232084" y="109.889576" style="fill: #1f77b4; stroke: #1f77b4"/>
     <use xlink:href="#m374333302e" x="297.687916" y="109.494966" style="fill: #1f77b4; stroke: #1f77b4"/>
     <use xlink:href="#m374333302e" x="302.143747" y="109.489944" style="fill: #1f77b4; stroke: #1f77b4"/>
     <use xlink:href="#m374333302e" x="306.599578" y="108.84214" style="fill: #1f77b4; stroke: #1f77b4"/>
     <use xlink:href="#m374333302e" x="311.055409" y="108.30315" style="fill: #1f77b4; stroke: #1f77b4"/>
     <use xlink:href="#m374333302e" x="315.51124" y="109.847496" style="fill: #1f77b4; stroke: #1f77b4"/>
     <use xlink:href="#m374333302e" x="319.967071" y="109.8327" style="fill: #1f77b4; stroke: #1f77b4"/>
     <use xlink:href="#m374333302e" x="324.422902" y="110.811869" style="fill: #1f77b4; stroke: #1f77b4"/>
     <use xlink:href="#m374333302e" x="328.878733" y="110.707814" style="fill: #1f77b4; stroke: #1f77b4"/>
     <use xlink:href="#m374333302e" x="333.334564" y="110.934605" style="fill: #1f77b4; stroke: #1f77b4"/>
     <use xlink:href="#m374333302e" x="337.790395" y="110.480468" style="fill: #1f77b4; stroke: #1f77b4"/>
     <use xlink:href="#m374333302e" x="342.246226" y="110.615174" style="fill: #1f77b4; stroke: #1f77b4"/>
     <use xlink:href="#m374333302e" x="346.702057" y="110.334039" style="fill: #1f77b4; stroke: #1f77b4"/>
     <use xlink:href="#m374333302e" x="351.157888" y="110.865509" style="fill: #1f77b4; stroke: #1f77b4"/>
     <use xlink:href="#m374333302e" x="355.613719" y="110.023402" style="fill: #1f77b4; stroke: #1f77b4"/>
     <use xlink:href="#m374333302e" x="360.06955" y="110.432897" style="fill: #1f77b4; stroke: #1f77b4"/>
     <use xlink:href="#m374333302e" x="364.525381" y="110.115304" style="fill: #1f77b4; stroke: #1f77b4"/>
     <use xlink:href="#m374333302e" x="368.981212" y="111.824444" style="fill: #1f77b4; stroke: #1f77b4"/>
     <use xlink:href="#m374333302e" x="373.437043" y="113.158887" style="fill: #1f77b4; stroke: #1f77b4"/>
     <use xlink:href="#m374333302e" x="377.892874" y="112.375818" style="fill: #1f77b4; stroke: #1f77b4"/>
     <use xlink:href="#m374333302e" x="382.348705" y="112.239926" style="fill: #1f77b4; stroke: #1f77b4"/>
     <use xlink:href="#m374333302e" x="386.804536" y="112.992118" style="fill: #1f77b4; stroke: #1f77b4"/>
     <use xlink:href="#m374333302e" x="391.260367" y="113.607273" style="fill: #1f77b4; stroke: #1f77b4"/>
     <use xlink:href="#m374333302e" x="395.716198" y="112.866153" style="fill: #1f77b4; stroke: #1f77b4"/>
     <use xlink:href="#m374333302e" x="400.172029" y="112.808574" style="fill: #1f77b4; stroke: #1f77b4"/>
     <use xlink:href="#m374333302e" x="404.62786" y="112.301586" style="fill: #1f77b4; stroke: #1f77b4"/>
     <use xlink:href="#m374333302e" x="409.083691" y="111.285023" style="fill: #1f77b4; stroke: #1f77b4"/>
     <use xlink:href="#m374333302e" x="413.539522" y="110.445899" style="fill: #1f77b4; stroke: #1f77b4"/>
     <use xlink:href="#m374333302e" x="417.995354" y="110.792789" style="fill: #1f77b4; stroke: #1f77b4"/>
     <use xlink:href="#m374333302e" x="422.451185" y="111.171749" style="fill: #1f77b4; stroke: #1f77b4"/>
     <use xlink:href="#m374333302e" x="426.907016" y="109.757524" style="fill: #1f77b4; stroke: #1f77b4"/>
     <use xlink:href="#m374333302e" x="431.362847" y="109.662995" style="fill: #1f77b4; stroke: #1f77b4"/>
     <use xlink:href="#m374333302e" x="435.818678" y="108.596167" style="fill: #1f77b4; stroke: #1f77b4"/>
     <use xlink:href="#m374333302e" x="440.274509" y="110.708213" style="fill: #1f77b4; stroke: #1f77b4"/>
     <use xlink:href="#m374333302e" x="444.73034" y="111.112522" style="fill: #1f77b4; stroke: #1f77b4"/>
     <use xlink:href="#m374333302e" x="449.186171" y="110.002753" style="fill: #1f77b4; stroke: #1f77b4"/>
     <use xlink:href="#m374333302e" x="453.642002" y="110.815806" style="fill: #1f77b4; stroke: #1f77b4"/>
     <use xlink:href="#m374333302e" x="458.097833" y="112.640671" style="fill: #1f77b4; stroke: #1f77b4"/>
     <use xlink:href="#m374333302e" x="462.553664" y="113.032852" style="fill: #1f77b4; stroke: #1f77b4"/>
     <use xlink:href="#m374333302e" x="467.009495" y="112.668835" style="fill: #1f77b4; stroke: #1f77b4"/>
     <use xlink:href="#m374333302e" x="471.465326" y="111.583026" style="fill: #1f77b4; stroke: #1f77b4"/>
     <use xlink:href="#m374333302e" x="475.921157" y="111.091742" style="fill: #1f77b4; stroke: #1f77b4"/>
     <use xlink:href="#m374333302e" x="480.376988" y="110.788579" style="fill: #1f77b4; stroke: #1f77b4"/>
     <use xlink:href="#m374333302e" x="484.832819" y="110.110601" style="fill: #1f77b4; stroke: #1f77b4"/>
     <use xlink:href="#m374333302e" x="489.28865" y="110.673309" style="fill: #1f77b4; stroke: #1f77b4"/>
     <use xlink:href="#m374333302e" x="493.744481" y="111.599883" style="fill: #1f77b4; stroke: #1f77b4"/>
     <use xlink:href="#m374333302e" x="498.200312" y="111.403471" style="fill: #1f77b4; stroke: #1f77b4"/>
     <use xlink:href="#m374333302e" x="502.656143" y="110.537749" style="fill: #1f77b4; stroke: #1f77b4"/>
     <use xlink:href="#m374333302e" x="507.111974" y="110.522833" style="fill: #1f77b4; stroke: #1f77b4"/>
     <use xlink:href="#m374333302e" x="511.567805" y="109.99815" style="fill: #1f77b4; stroke: #1f77b4"/>
     <use xlink:href="#m374333302e" x="516.023636" y="110.71228" style="fill: #1f77b4; stroke: #1f77b4"/>
    </g>
   </g>
   <g id="patch_3">
    <path d="M 52.84 117.4 
L 52.84 33.96 
" style="fill: none; stroke: #000000; stroke-width: 0.8; stroke-linejoin: miter; stroke-linecap: square"/>
   </g>
   <g id="patch_4">
    <path d="M 538.08 117.4 
L 538.08 33.96 
" style="fill: none; stroke: #000000; stroke-width: 0.8; stroke-linejoin: miter; stroke-linecap: square"/>
   </g>
   <g id="patch_5">
    <path d="M 52.84 117.4 
L 538.08 117.4 
" style="fill: none; stroke: #000000; stroke-width: 0.8; stroke-linejoin: miter; stroke-linecap: square"/>
   </g>
   <g id="patch_6">
    <path d="M 52.84 33.96 
L 538.08 33.96 
" style="fill: none; stroke: #000000; stroke-width: 0.8; stroke-linejoin: miter; stroke-linecap: square"/>
   </g>
   <g id="text_5">
    <!-- $k_1$ -->
    <g transform="translate(289.1 27.96) scale(0.12 -0.12)">
     <defs>
      <path id="DejaVuSans-Oblique-6b" d="M 1172 4863 
L 1747 4863 
L 1197 2028 
L 3169 3500 
L 3916 3500 
L 1716 1825 
L 3322 0 
L 2625 0 
L 1131 1709 
L 800 0 
L 225 0 
L 1172 4863 
z
" transform="scale(0.015625)"/>
     </defs>
     <use xlink:href="#DejaVuSans-Oblique-6b" transform="translate(0 0.015625)"/>
     <use xlink:href="#DejaVuSans-31" transform="translate(57.910156 -16.390625) scale(0.7)"/>
    </g>
   </g>
  </g>
  <g id="axes_2">
   <g id="patch_7">
    <path d="M 52.84 240.92 
L 538.08 240.92 
L 538.08 157.48 
L 52.84 157.48 
z
" style="fill: #ffffff"/>
   </g>
   <g id="matplotlib.axis_3">
    <g id="xtick_7">
     <g id="line2d_11">
      <g>
       <use xlink:href="#mbac6b60662" x="74.896364" y="240.92" style="stroke: #000000; stroke-width: 0.8"/>
      </g>
     </g>
     <g id="text_6">
      <!-- 0 -->
      <g transform="translate(71.715114 255.518438) scale(0.1 -0.1)">
       <use xlink:href="#DejaVuSans-30"/>
      </g>
     </g>
    </g>
    <g id="xtick_8">
     <g id="line2d_12">
      <g>
       <use xlink:href="#mbac6b60662" x="164.012984" y="240.92" style="stroke: #000000; stroke-width: 0.8"/>
      </g>
     </g>
     <g id="text_7">
      <!-- 20 -->
      <g transform="translate(157.650484 255.518438) scale(0.1 -0.1)">
       <defs>
        <path id="DejaVuSans-32" d="M 1228 531 
L 3431 531 
L 3431 0 
L 469 0 
L 469 531 
Q 828 903 1448 1529 
Q 2069 2156 2228 2338 
Q 2531 2678 2651 2914 
Q 2772 3150 2772 3378 
Q 2772 3750 2511 3984 
Q 2250 4219 1831 4219 
Q 1534 4219 1204 4116 
Q 875 4013 500 3803 
L 500 4441 
Q 881 4594 1212 4672 
Q 1544 4750 1819 4750 
Q 2544 4750 2975 4387 
Q 3406 4025 3406 3419 
Q 3406 3131 3298 2873 
Q 3191 2616 2906 2266 
Q 2828 2175 2409 1742 
Q 1991 1309 1228 531 
z
" transform="scale(0.015625)"/>
       </defs>
       <use xlink:href="#DejaVuSans-32"/>
       <use xlink:href="#DejaVuSans-30" x="63.623047"/>
      </g>
     </g>
    </g>
    <g id="xtick_9">
     <g id="line2d_13">
      <g>
       <use xlink:href="#mbac6b60662" x="253.129605" y="240.92" style="stroke: #000000; stroke-width: 0.8"/>
      </g>
     </g>
     <g id="text_8">
      <!-- 40 -->
      <g transform="translate(246.767105 255.518438) scale(0.1 -0.1)">
       <defs>
        <path id="DejaVuSans-34" d="M 2419 4116 
L 825 1625 
L 2419 1625 
L 2419 4116 
z
M 2253 4666 
L 3047 4666 
L 3047 1625 
L 3713 1625 
L 3713 1100 
L 3047 1100 
L 3047 0 
L 2419 0 
L 2419 1100 
L 313 1100 
L 313 1709 
L 2253 4666 
z
" transform="scale(0.015625)"/>
       </defs>
       <use xlink:href="#DejaVuSans-34"/>
       <use xlink:href="#DejaVuSans-30" x="63.623047"/>
      </g>
     </g>
    </g>
    <g id="xtick_10">
     <g id="line2d_14">
      <g>
       <use xlink:href="#mbac6b60662" x="342.246226" y="240.92" style="stroke: #000000; stroke-width: 0.8"/>
      </g>
     </g>
     <g id="text_9">
      <!-- 60 -->
      <g transform="translate(335.883726 255.518438) scale(0.1 -0.1)">
       <defs>
        <path id="DejaVuSans-36" d="M 2113 2584 
Q 1688 2584 1439 2293 
Q 1191 2003 1191 1497 
Q 1191 994 1439 701 
Q 1688 409 2113 409 
Q 2538 409 2786 701 
Q 3034 994 3034 1497 
Q 3034 2003 2786 2293 
Q 2538 2584 2113 2584 
z
M 3366 4563 
L 3366 3988 
Q 3128 4100 2886 4159 
Q 2644 4219 2406 4219 
Q 1781 4219 1451 3797 
Q 1122 3375 1075 2522 
Q 1259 2794 1537 2939 
Q 1816 3084 2150 3084 
Q 2853 3084 3261 2657 
Q 3669 2231 3669 1497 
Q 3669 778 3244 343 
Q 2819 -91 2113 -91 
Q 1303 -91 875 529 
Q 447 1150 447 2328 
Q 447 3434 972 4092 
Q 1497 4750 2381 4750 
Q 2619 4750 2861 4703 
Q 3103 4656 3366 4563 
z
" transform="scale(0.015625)"/>
       </defs>
       <use xlink:href="#DejaVuSans-36"/>
       <use xlink:href="#DejaVuSans-30" x="63.623047"/>
      </g>
     </g>
    </g>
    <g id="xtick_11">
     <g id="line2d_15">
      <g>
       <use xlink:href="#mbac6b60662" x="431.362847" y="240.92" style="stroke: #000000; stroke-width: 0.8"/>
      </g>
     </g>
     <g id="text_10">
      <!-- 80 -->
      <g transform="translate(425.000347 255.518438) scale(0.1 -0.1)">
       <defs>
        <path id="DejaVuSans-38" d="M 2034 2216 
Q 1584 2216 1326 1975 
Q 1069 1734 1069 1313 
Q 1069 891 1326 650 
Q 1584 409 2034 409 
Q 2484 409 2743 651 
Q 3003 894 3003 1313 
Q 3003 1734 2745 1975 
Q 2488 2216 2034 2216 
z
M 1403 2484 
Q 997 2584 770 2862 
Q 544 3141 544 3541 
Q 544 4100 942 4425 
Q 1341 4750 2034 4750 
Q 2731 4750 3128 4425 
Q 3525 4100 3525 3541 
Q 3525 3141 3298 2862 
Q 3072 2584 2669 2484 
Q 3125 2378 3379 2068 
Q 3634 1759 3634 1313 
Q 3634 634 3220 271 
Q 2806 -91 2034 -91 
Q 1263 -91 848 271 
Q 434 634 434 1313 
Q 434 1759 690 2068 
Q 947 2378 1403 2484 
z
M 1172 3481 
Q 1172 3119 1398 2916 
Q 1625 2713 2034 2713 
Q 2441 2713 2670 2916 
Q 2900 3119 2900 3481 
Q 2900 3844 2670 4047 
Q 2441 4250 2034 4250 
Q 1625 4250 1398 4047 
Q 1172 3844 1172 3481 
z
" transform="scale(0.015625)"/>
       </defs>
       <use xlink:href="#DejaVuSans-38"/>
       <use xlink:href="#DejaVuSans-30" x="63.623047"/>
      </g>
     </g>
    </g>
    <g id="xtick_12">
     <g id="line2d_16">
      <g>
       <use xlink:href="#mbac6b60662" x="520.479467" y="240.92" style="stroke: #000000; stroke-width: 0.8"/>
      </g>
     </g>
     <g id="text_11">
      <!-- 100 -->
      <g transform="translate(510.935717 255.518438) scale(0.1 -0.1)">
       <use xlink:href="#DejaVuSans-31"/>
       <use xlink:href="#DejaVuSans-30" x="63.623047"/>
       <use xlink:href="#DejaVuSans-30" x="127.246094"/>
      </g>
     </g>
    </g>
    <g id="text_12">
     <!-- Lag -->
     <g transform="translate(286.435781 265.196563) scale(0.1 -0.1)">
      <defs>
       <path id="DejaVuSans-4c" d="M 628 4666 
L 1259 4666 
L 1259 531 
L 3531 531 
L 3531 0 
L 628 0 
L 628 4666 
z
" transform="scale(0.015625)"/>
       <path id="DejaVuSans-67" d="M 2906 1791 
Q 2906 2416 2648 2759 
Q 2391 3103 1925 3103 
Q 1463 3103 1205 2759 
Q 947 2416 947 1791 
Q 947 1169 1205 825 
Q 1463 481 1925 481 
Q 2391 481 2648 825 
Q 2906 1169 2906 1791 
z
M 3481 434 
Q 3481 -459 3084 -895 
Q 2688 -1331 1869 -1331 
Q 1566 -1331 1297 -1286 
Q 1028 -1241 775 -1147 
L 775 -588 
Q 1028 -725 1275 -790 
Q 1522 -856 1778 -856 
Q 2344 -856 2625 -561 
Q 2906 -266 2906 331 
L 2906 616 
Q 2728 306 2450 153 
Q 2172 0 1784 0 
Q 1141 0 747 490 
Q 353 981 353 1791 
Q 353 2603 747 3093 
Q 1141 3584 1784 3584 
Q 2172 3584 2450 3431 
Q 2728 3278 2906 2969 
L 2906 3500 
L 3481 3500 
L 3481 434 
z
" transform="scale(0.015625)"/>
      </defs>
      <use xlink:href="#DejaVuSans-4c"/>
      <use xlink:href="#DejaVuSans-61" x="55.712891"/>
      <use xlink:href="#DejaVuSans-67" x="116.992188"/>
     </g>
    </g>
   </g>
   <g id="matplotlib.axis_4">
    <g id="ytick_4">
     <g id="line2d_17">
      <g>
       <use xlink:href="#m4227125398" x="52.84" y="233.519149" style="stroke: #000000; stroke-width: 0.8"/>
      </g>
     </g>
     <g id="text_13">
      <!-- 0.0 -->
      <g transform="translate(29.936875 237.318368) scale(0.1 -0.1)">
       <use xlink:href="#DejaVuSans-30"/>
       <use xlink:href="#DejaVuSans-2e" x="63.623047"/>
       <use xlink:href="#DejaVuSans-30" x="95.410156"/>
      </g>
     </g>
    </g>
    <g id="ytick_5">
     <g id="line2d_18">
      <g>
       <use xlink:href="#m4227125398" x="52.84" y="197.395938" style="stroke: #000000; stroke-width: 0.8"/>
      </g>
     </g>
     <g id="text_14">
      <!-- 0.5 -->
      <g transform="translate(29.936875 201.195157) scale(0.1 -0.1)">
       <use xlink:href="#DejaVuSans-30"/>
       <use xlink:href="#DejaVuSans-2e" x="63.623047"/>
       <use xlink:href="#DejaVuSans-35" x="95.410156"/>
      </g>
     </g>
    </g>
    <g id="ytick_6">
     <g id="line2d_19">
      <g>
       <use xlink:href="#m4227125398" x="52.84" y="161.272727" style="stroke: #000000; stroke-width: 0.8"/>
      </g>
     </g>
     <g id="text_15">
      <!-- 1.0 -->
      <g transform="translate(29.936875 165.071946) scale(0.1 -0.1)">
       <use xlink:href="#DejaVuSans-31"/>
       <use xlink:href="#DejaVuSans-2e" x="63.623047"/>
       <use xlink:href="#DejaVuSans-30" x="95.410156"/>
      </g>
     </g>
    </g>
    <g id="text_16">
     <!-- Autocorrelation -->
     <g transform="translate(23.857188 237.635156) rotate(-90) scale(0.1 -0.1)">
      <use xlink:href="#DejaVuSans-41"/>
      <use xlink:href="#DejaVuSans-75" x="68.408203"/>
      <use xlink:href="#DejaVuSans-74" x="131.787109"/>
      <use xlink:href="#DejaVuSans-6f" x="170.996094"/>
      <use xlink:href="#DejaVuSans-63" x="232.177734"/>
      <use xlink:href="#DejaVuSans-6f" x="287.158203"/>
      <use xlink:href="#DejaVuSans-72" x="348.339844"/>
      <use xlink:href="#DejaVuSans-72" x="387.703125"/>
      <use xlink:href="#DejaVuSans-65" x="426.566406"/>
      <use xlink:href="#DejaVuSans-6c" x="488.089844"/>
      <use xlink:href="#DejaVuSans-61" x="515.873047"/>
      <use xlink:href="#DejaVuSans-74" x="577.152344"/>
      <use xlink:href="#DejaVuSans-69" x="616.361328"/>
      <use xlink:href="#DejaVuSans-6f" x="644.144531"/>
      <use xlink:href="#DejaVuSans-6e" x="705.326172"/>
     </g>
    </g>
   </g>
   <g id="line2d_20">
    <path d="M 74.896364 161.272727 
L 79.352195 196.303548 
L 83.808026 213.213937 
L 88.263857 221.458761 
L 92.719688 227.073735 
L 97.175519 229.643099 
L 101.63135 230.028925 
L 106.087181 232.037434 
L 110.543012 232.260405 
L 114.998843 232.738849 
L 119.454674 233.630108 
L 123.910505 232.894682 
L 128.366336 232.858305 
L 132.822167 232.809892 
L 137.277998 233.091761 
L 141.733829 233.383219 
L 146.18966 234.633266 
L 150.645491 234.003147 
L 155.101322 233.16841 
L 159.557153 234.306042 
L 164.012984 234.85655 
L 168.468815 234.191817 
L 172.924646 234.864505 
L 177.380478 235.685688 
L 181.836309 237.127273 
L 186.29214 236.545994 
L 190.747971 236.329349 
L 195.203802 235.692491 
L 199.659633 234.916898 
L 204.115464 234.14009 
L 208.571295 235.284267 
L 213.027126 235.306264 
L 217.482957 234.755387 
L 221.938788 235.855596 
L 226.394619 235.327652 
L 230.85045 235.711795 
L 235.306281 234.441638 
L 239.762112 234.33293 
L 244.217943 233.114221 
L 248.673774 232.149324 
L 253.129605 232.102112 
L 257.585436 232.776547 
L 262.041267 234.192855 
L 266.497098 232.985706 
L 270.952929 233.156082 
L 275.40876 234.612365 
L 279.864591 233.581658 
L 284.320422 233.475816 
L 288.776253 233.817944 
L 293.232084 233.005034 
L 297.687916 232.903534 
L 302.143747 232.189413 
L 306.599578 232.202585 
L 311.055409 231.439128 
L 315.51124 232.319745 
L 319.967071 231.976128 
L 324.422902 232.47838 
L 328.878733 232.853782 
L 333.334564 233.430995 
L 337.790395 232.651459 
L 342.246226 233.452669 
L 346.702057 233.347446 
L 351.157888 233.57149 
L 355.613719 234.176619 
L 360.06955 234.362872 
L 364.525381 234.538391 
L 368.981212 234.571012 
L 373.437043 234.659498 
L 377.892874 234.393835 
L 382.348705 234.799935 
L 386.804536 234.775906 
L 391.260367 234.553266 
L 395.716198 232.143688 
L 400.172029 231.84506 
L 404.62786 231.894881 
L 409.083691 232.94849 
L 413.539522 233.210244 
L 417.995354 232.915737 
L 422.451185 233.105152 
L 426.907016 233.233123 
L 431.362847 234.084343 
L 435.818678 233.99987 
L 440.274509 235.263851 
L 444.73034 235.44113 
L 449.186171 233.825462 
L 453.642002 233.739023 
L 458.097833 234.423545 
L 462.553664 234.387916 
L 467.009495 233.647512 
L 471.465326 233.510721 
L 475.921157 233.236472 
L 480.376988 233.706188 
L 484.832819 234.133136 
L 489.28865 235.35964 
L 493.744481 235.837091 
L 498.200312 235.035053 
L 502.656143 234.637815 
L 507.111974 235.088517 
L 511.567805 234.000553 
L 516.023636 233.748599 
" clip-path="url(#p9296c7f27f)" style="fill: none; stroke: #1f77b4; stroke-width: 1.5; stroke-linecap: square"/>
    <g clip-path="url(#p9296c7f27f)">
     <use xlink:href="#m374333302e" x="74.896364" y="161.272727" style="fill: #1f77b4; stroke: #1f77b4"/>
     <use xlink:href="#m374333302e" x="79.352195" y="196.303548" style="fill: #1f77b4; stroke: #1f77b4"/>
     <use xlink:href="#m374333302e" x="83.808026" y="213.213937" style="fill: #1f77b4; stroke: #1f77b4"/>
     <use xlink:href="#m374333302e" x="88.263857" y="221.458761" style="fill: #1f77b4; stroke: #1f77b4"/>
     <use xlink:href="#m374333302e" x="92.719688" y="227.073735" style="fill: #1f77b4; stroke: #1f77b4"/>
     <use xlink:href="#m374333302e" x="97.175519" y="229.643099" style="fill: #1f77b4; stroke: #1f77b4"/>
     <use xlink:href="#m374333302e" x="101.63135" y="230.028925" style="fill: #1f77b4; stroke: #1f77b4"/>
     <use xlink:href="#m374333302e" x="106.087181" y="232.037434" style="fill: #1f77b4; stroke: #1f77b4"/>
     <use xlink:href="#m374333302e" x="110.543012" y="232.260405" style="fill: #1f77b4; stroke: #1f77b4"/>
     <use xlink:href="#m374333302e" x="114.998843" y="232.738849" style="fill: #1f77b4; stroke: #1f77b4"/>
     <use xlink:href="#m374333302e" x="119.454674" y="233.630108" style="fill: #1f77b4; stroke: #1f77b4"/>
     <use xlink:href="#m374333302e" x="123.910505" y="232.894682" style="fill: #1f77b4; stroke: #1f77b4"/>
     <use xlink:href="#m374333302e" x="128.366336" y="232.858305" style="fill: #1f77b4; stroke: #1f77b4"/>
     <use xlink:href="#m374333302e" x="132.822167" y="232.809892" style="fill: #1f77b4; stroke: #1f77b4"/>
     <use xlink:href="#m374333302e" x="137.277998" y="233.091761" style="fill: #1f77b4; stroke: #1f77b4"/>
     <use xlink:href="#m374333302e" x="141.733829" y="233.383219" style="fill: #1f77b4; stroke: #1f77b4"/>
     <use xlink:href="#m374333302e" x="146.18966" y="234.633266" style="fill: #1f77b4; stroke: #1f77b4"/>
     <use xlink:href="#m374333302e" x="150.645491" y="234.003147" style="fill: #1f77b4; stroke: #1f77b4"/>
     <use xlink:href="#m374333302e" x="155.101322" y="233.16841" style="fill: #1f77b4; stroke: #1f77b4"/>
     <use xlink:href="#m374333302e" x="159.557153" y="234.306042" style="fill: #1f77b4; stroke: #1f77b4"/>
     <use xlink:href="#m374333302e" x="164.012984" y="234.85655" style="fill: #1f77b4; stroke: #1f77b4"/>
     <use xlink:href="#m374333302e" x="168.468815" y="234.191817" style="fill: #1f77b4; stroke: #1f77b4"/>
     <use xlink:href="#m374333302e" x="172.924646" y="234.864505" style="fill: #1f77b4; stroke: #1f77b4"/>
     <use xlink:href="#m374333302e" x="177.380478" y="235.685688" style="fill: #1f77b4; stroke: #1f77b4"/>
     <use xlink:href="#m374333302e" x="181.836309" y="237.127273" style="fill: #1f77b4; stroke: #1f77b4"/>
     <use xlink:href="#m374333302e" x="186.29214" y="236.545994" style="fill: #1f77b4; stroke: #1f77b4"/>
     <use xlink:href="#m374333302e" x="190.747971" y="236.329349" style="fill: #1f77b4; stroke: #1f77b4"/>
     <use xlink:href="#m374333302e" x="195.203802" y="235.692491" style="fill: #1f77b4; stroke: #1f77b4"/>
     <use xlink:href="#m374333302e" x="199.659633" y="234.916898" style="fill: #1f77b4; stroke: #1f77b4"/>
     <use xlink:href="#m374333302e" x="204.115464" y="234.14009" style="fill: #1f77b4; stroke: #1f77b4"/>
     <use xlink:href="#m374333302e" x="208.571295" y="235.284267" style="fill: #1f77b4; stroke: #1f77b4"/>
     <use xlink:href="#m374333302e" x="213.027126" y="235.306264" style="fill: #1f77b4; stroke: #1f77b4"/>
     <use xlink:href="#m374333302e" x="217.482957" y="234.755387" style="fill: #1f77b4; stroke: #1f77b4"/>
     <use xlink:href="#m374333302e" x="221.938788" y="235.855596" style="fill: #1f77b4; stroke: #1f77b4"/>
     <use xlink:href="#m374333302e" x="226.394619" y="235.327652" style="fill: #1f77b4; stroke: #1f77b4"/>
     <use xlink:href="#m374333302e" x="230.85045" y="235.711795" style="fill: #1f77b4; stroke: #1f77b4"/>
     <use xlink:href="#m374333302e" x="235.306281" y="234.441638" style="fill: #1f77b4; stroke: #1f77b4"/>
     <use xlink:href="#m374333302e" x="239.762112" y="234.33293" style="fill: #1f77b4; stroke: #1f77b4"/>
     <use xlink:href="#m374333302e" x="244.217943" y="233.114221" style="fill: #1f77b4; stroke: #1f77b4"/>
     <use xlink:href="#m374333302e" x="248.673774" y="232.149324" style="fill: #1f77b4; stroke: #1f77b4"/>
     <use xlink:href="#m374333302e" x="253.129605" y="232.102112" style="fill: #1f77b4; stroke: #1f77b4"/>
     <use xlink:href="#m374333302e" x="257.585436" y="232.776547" style="fill: #1f77b4; stroke: #1f77b4"/>
     <use xlink:href="#m374333302e" x="262.041267" y="234.192855" style="fill: #1f77b4; stroke: #1f77b4"/>
     <use xlink:href="#m374333302e" x="266.497098" y="232.985706" style="fill: #1f77b4; stroke: #1f77b4"/>
     <use xlink:href="#m374333302e" x="270.952929" y="233.156082" style="fill: #1f77b4; stroke: #1f77b4"/>
     <use xlink:href="#m374333302e" x="275.40876" y="234.612365" style="fill: #1f77b4; stroke: #1f77b4"/>
     <use xlink:href="#m374333302e" x="279.864591" y="233.581658" style="fill: #1f77b4; stroke: #1f77b4"/>
     <use xlink:href="#m374333302e" x="284.320422" y="233.475816" style="fill: #1f77b4; stroke: #1f77b4"/>
     <use xlink:href="#m374333302e" x="288.776253" y="233.817944" style="fill: #1f77b4; stroke: #1f77b4"/>
     <use xlink:href="#m374333302e" x="293.232084" y="233.005034" style="fill: #1f77b4; stroke: #1f77b4"/>
     <use xlink:href="#m374333302e" x="297.687916" y="232.903534" style="fill: #1f77b4; stroke: #1f77b4"/>
     <use xlink:href="#m374333302e" x="302.143747" y="232.189413" style="fill: #1f77b4; stroke: #1f77b4"/>
     <use xlink:href="#m374333302e" x="306.599578" y="232.202585" style="fill: #1f77b4; stroke: #1f77b4"/>
     <use xlink:href="#m374333302e" x="311.055409" y="231.439128" style="fill: #1f77b4; stroke: #1f77b4"/>
     <use xlink:href="#m374333302e" x="315.51124" y="232.319745" style="fill: #1f77b4; stroke: #1f77b4"/>
     <use xlink:href="#m374333302e" x="319.967071" y="231.976128" style="fill: #1f77b4; stroke: #1f77b4"/>
     <use xlink:href="#m374333302e" x="324.422902" y="232.47838" style="fill: #1f77b4; stroke: #1f77b4"/>
     <use xlink:href="#m374333302e" x="328.878733" y="232.853782" style="fill: #1f77b4; stroke: #1f77b4"/>
     <use xlink:href="#m374333302e" x="333.334564" y="233.430995" style="fill: #1f77b4; stroke: #1f77b4"/>
     <use xlink:href="#m374333302e" x="337.790395" y="232.651459" style="fill: #1f77b4; stroke: #1f77b4"/>
     <use xlink:href="#m374333302e" x="342.246226" y="233.452669" style="fill: #1f77b4; stroke: #1f77b4"/>
     <use xlink:href="#m374333302e" x="346.702057" y="233.347446" style="fill: #1f77b4; stroke: #1f77b4"/>
     <use xlink:href="#m374333302e" x="351.157888" y="233.57149" style="fill: #1f77b4; stroke: #1f77b4"/>
     <use xlink:href="#m374333302e" x="355.613719" y="234.176619" style="fill: #1f77b4; stroke: #1f77b4"/>
     <use xlink:href="#m374333302e" x="360.06955" y="234.362872" style="fill: #1f77b4; stroke: #1f77b4"/>
     <use xlink:href="#m374333302e" x="364.525381" y="234.538391" style="fill: #1f77b4; stroke: #1f77b4"/>
     <use xlink:href="#m374333302e" x="368.981212" y="234.571012" style="fill: #1f77b4; stroke: #1f77b4"/>
     <use xlink:href="#m374333302e" x="373.437043" y="234.659498" style="fill: #1f77b4; stroke: #1f77b4"/>
     <use xlink:href="#m374333302e" x="377.892874" y="234.393835" style="fill: #1f77b4; stroke: #1f77b4"/>
     <use xlink:href="#m374333302e" x="382.348705" y="234.799935" style="fill: #1f77b4; stroke: #1f77b4"/>
     <use xlink:href="#m374333302e" x="386.804536" y="234.775906" style="fill: #1f77b4; stroke: #1f77b4"/>
     <use xlink:href="#m374333302e" x="391.260367" y="234.553266" style="fill: #1f77b4; stroke: #1f77b4"/>
     <use xlink:href="#m374333302e" x="395.716198" y="232.143688" style="fill: #1f77b4; stroke: #1f77b4"/>
     <use xlink:href="#m374333302e" x="400.172029" y="231.84506" style="fill: #1f77b4; stroke: #1f77b4"/>
     <use xlink:href="#m374333302e" x="404.62786" y="231.894881" style="fill: #1f77b4; stroke: #1f77b4"/>
     <use xlink:href="#m374333302e" x="409.083691" y="232.94849" style="fill: #1f77b4; stroke: #1f77b4"/>
     <use xlink:href="#m374333302e" x="413.539522" y="233.210244" style="fill: #1f77b4; stroke: #1f77b4"/>
     <use xlink:href="#m374333302e" x="417.995354" y="232.915737" style="fill: #1f77b4; stroke: #1f77b4"/>
     <use xlink:href="#m374333302e" x="422.451185" y="233.105152" style="fill: #1f77b4; stroke: #1f77b4"/>
     <use xlink:href="#m374333302e" x="426.907016" y="233.233123" style="fill: #1f77b4; stroke: #1f77b4"/>
     <use xlink:href="#m374333302e" x="431.362847" y="234.084343" style="fill: #1f77b4; stroke: #1f77b4"/>
     <use xlink:href="#m374333302e" x="435.818678" y="233.99987" style="fill: #1f77b4; stroke: #1f77b4"/>
     <use xlink:href="#m374333302e" x="440.274509" y="235.263851" style="fill: #1f77b4; stroke: #1f77b4"/>
     <use xlink:href="#m374333302e" x="444.73034" y="235.44113" style="fill: #1f77b4; stroke: #1f77b4"/>
     <use xlink:href="#m374333302e" x="449.186171" y="233.825462" style="fill: #1f77b4; stroke: #1f77b4"/>
     <use xlink:href="#m374333302e" x="453.642002" y="233.739023" style="fill: #1f77b4; stroke: #1f77b4"/>
     <use xlink:href="#m374333302e" x="458.097833" y="234.423545" style="fill: #1f77b4; stroke: #1f77b4"/>
     <use xlink:href="#m374333302e" x="462.553664" y="234.387916" style="fill: #1f77b4; stroke: #1f77b4"/>
     <use xlink:href="#m374333302e" x="467.009495" y="233.647512" style="fill: #1f77b4; stroke: #1f77b4"/>
     <use xlink:href="#m374333302e" x="471.465326" y="233.510721" style="fill: #1f77b4; stroke: #1f77b4"/>
     <use xlink:href="#m374333302e" x="475.921157" y="233.236472" style="fill: #1f77b4; stroke: #1f77b4"/>
     <use xlink:href="#m374333302e" x="480.376988" y="233.706188" style="fill: #1f77b4; stroke: #1f77b4"/>
     <use xlink:href="#m374333302e" x="484.832819" y="234.133136" style="fill: #1f77b4; stroke: #1f77b4"/>
     <use xlink:href="#m374333302e" x="489.28865" y="235.35964" style="fill: #1f77b4; stroke: #1f77b4"/>
     <use xlink:href="#m374333302e" x="493.744481" y="235.837091" style="fill: #1f77b4; stroke: #1f77b4"/>
     <use xlink:href="#m374333302e" x="498.200312" y="235.035053" style="fill: #1f77b4; stroke: #1f77b4"/>
     <use xlink:href="#m374333302e" x="502.656143" y="234.637815" style="fill: #1f77b4; stroke: #1f77b4"/>
     <use xlink:href="#m374333302e" x="507.111974" y="235.088517" style="fill: #1f77b4; stroke: #1f77b4"/>
     <use xlink:href="#m374333302e" x="511.567805" y="234.000553" style="fill: #1f77b4; stroke: #1f77b4"/>
     <use xlink:href="#m374333302e" x="516.023636" y="233.748599" style="fill: #1f77b4; stroke: #1f77b4"/>
    </g>
   </g>
   <g id="patch_8">
    <path d="M 52.84 240.92 
L 52.84 157.48 
" style="fill: none; stroke: #000000; stroke-width: 0.8; stroke-linejoin: miter; stroke-linecap: square"/>
   </g>
   <g id="patch_9">
    <path d="M 538.08 240.92 
L 538.08 157.48 
" style="fill: none; stroke: #000000; stroke-width: 0.8; stroke-linejoin: miter; stroke-linecap: square"/>
   </g>
   <g id="patch_10">
    <path d="M 52.84 240.92 
L 538.08 240.92 
" style="fill: none; stroke: #000000; stroke-width: 0.8; stroke-linejoin: miter; stroke-linecap: square"/>
   </g>
   <g id="patch_11">
    <path d="M 52.84 157.48 
L 538.08 157.48 
" style="fill: none; stroke: #000000; stroke-width: 0.8; stroke-linejoin: miter; stroke-linecap: square"/>
   </g>
   <g id="text_17">
    <!-- $k_2$ -->
    <g transform="translate(289.1 151.48) scale(0.12 -0.12)">
     <use xlink:href="#DejaVuSans-Oblique-6b" transform="translate(0 0.015625)"/>
     <use xlink:href="#DejaVuSans-32" transform="translate(57.910156 -16.390625) scale(0.7)"/>
    </g>
   </g>
  </g>
  <g id="text_18">
   <!-- 2.A Problem 1 Autocorrelation -->
   <g transform="translate(182.980312 10.637812) scale(0.14 -0.14)">
    <defs>
     <path id="DejaVuSans-20" transform="scale(0.015625)"/>
     <path id="DejaVuSans-50" d="M 1259 4147 
L 1259 2394 
L 2053 2394 
Q 2494 2394 2734 2622 
Q 2975 2850 2975 3272 
Q 2975 3691 2734 3919 
Q 2494 4147 2053 4147 
L 1259 4147 
z
M 628 4666 
L 2053 4666 
Q 2838 4666 3239 4311 
Q 3641 3956 3641 3272 
Q 3641 2581 3239 2228 
Q 2838 1875 2053 1875 
L 1259 1875 
L 1259 0 
L 628 0 
L 628 4666 
z
" transform="scale(0.015625)"/>
     <path id="DejaVuSans-62" d="M 3116 1747 
Q 3116 2381 2855 2742 
Q 2594 3103 2138 3103 
Q 1681 3103 1420 2742 
Q 1159 2381 1159 1747 
Q 1159 1113 1420 752 
Q 1681 391 2138 391 
Q 2594 391 2855 752 
Q 3116 1113 3116 1747 
z
M 1159 2969 
Q 1341 3281 1617 3432 
Q 1894 3584 2278 3584 
Q 2916 3584 3314 3078 
Q 3713 2572 3713 1747 
Q 3713 922 3314 415 
Q 2916 -91 2278 -91 
Q 1894 -91 1617 61 
Q 1341 213 1159 525 
L 1159 0 
L 581 0 
L 581 4863 
L 1159 4863 
L 1159 2969 
z
" transform="scale(0.015625)"/>
     <path id="DejaVuSans-6d" d="M 3328 2828 
Q 3544 3216 3844 3400 
Q 4144 3584 4550 3584 
Q 5097 3584 5394 3201 
Q 5691 2819 5691 2113 
L 5691 0 
L 5113 0 
L 5113 2094 
Q 5113 2597 4934 2840 
Q 4756 3084 4391 3084 
Q 3944 3084 3684 2787 
Q 3425 2491 3425 1978 
L 3425 0 
L 2847 0 
L 2847 2094 
Q 2847 2600 2669 2842 
Q 2491 3084 2119 3084 
Q 1678 3084 1418 2786 
Q 1159 2488 1159 1978 
L 1159 0 
L 581 0 
L 581 3500 
L 1159 3500 
L 1159 2956 
Q 1356 3278 1631 3431 
Q 1906 3584 2284 3584 
Q 2666 3584 2933 3390 
Q 3200 3197 3328 2828 
z
" transform="scale(0.015625)"/>
    </defs>
    <use xlink:href="#DejaVuSans-32"/>
    <use xlink:href="#DejaVuSans-2e" x="63.623047"/>
    <use xlink:href="#DejaVuSans-41" x="95.410156"/>
    <use xlink:href="#DejaVuSans-20" x="163.818359"/>
    <use xlink:href="#DejaVuSans-50" x="195.605469"/>
    <use xlink:href="#DejaVuSans-72" x="254.158203"/>
    <use xlink:href="#DejaVuSans-6f" x="293.021484"/>
    <use xlink:href="#DejaVuSans-62" x="354.203125"/>
    <use xlink:href="#DejaVuSans-6c" x="417.679688"/>
    <use xlink:href="#DejaVuSans-65" x="445.462891"/>
    <use xlink:href="#DejaVuSans-6d" x="506.986328"/>
    <use xlink:href="#DejaVuSans-20" x="604.398438"/>
    <use xlink:href="#DejaVuSans-31" x="636.185547"/>
    <use xlink:href="#DejaVuSans-20" x="699.808594"/>
    <use xlink:href="#DejaVuSans-41" x="731.595703"/>
    <use xlink:href="#DejaVuSans-75" x="800.003906"/>
    <use xlink:href="#DejaVuSans-74" x="863.382812"/>
    <use xlink:href="#DejaVuSans-6f" x="902.591797"/>
    <use xlink:href="#DejaVuSans-63" x="963.773438"/>
    <use xlink:href="#DejaVuSans-6f" x="1018.753906"/>
    <use xlink:href="#DejaVuSans-72" x="1079.935547"/>
    <use xlink:href="#DejaVuSans-72" x="1119.298828"/>
    <use xlink:href="#DejaVuSans-65" x="1158.162109"/>
    <use xlink:href="#DejaVuSans-6c" x="1219.685547"/>
    <use xlink:href="#DejaVuSans-61" x="1247.46875"/>
    <use xlink:href="#DejaVuSans-74" x="1308.748047"/>
    <use xlink:href="#DejaVuSans-69" x="1347.957031"/>
    <use xlink:href="#DejaVuSans-6f" x="1375.740234"/>
    <use xlink:href="#DejaVuSans-6e" x="1436.921875"/>
   </g>
  </g>
 </g>
 <defs>
  <clipPath id="pbb5145e8fb">
   <rect x="52.84" y="33.96" width="485.24" height="83.44"/>
  </clipPath>
  <clipPath id="p9296c7f27f">
   <rect x="52.84" y="157.48" width="485.24" height="83.44"/>
  </clipPath>
 </defs>
</svg>
