<?xml version="1.0" encoding="utf-8" standalone="no"?>
<!DOCTYPE svg PUBLIC "-//W3C//DTD SVG 1.1//EN"
  "http://www.w3.org/Graphics/SVG/1.1/DTD/svg11.dtd">
<svg xmlns:xlink="http://www.w3.org/1999/xlink" width="576pt" height="360pt" viewBox="0 0 576 360" xmlns="http://www.w3.org/2000/svg" version="1.1">
 <metadata>
  <rdf:RDF xmlns:dc="http://purl.org/dc/elements/1.1/" xmlns:cc="http://creativecommons.org/ns#" xmlns:rdf="http://www.w3.org/1999/02/22-rdf-syntax-ns#">
   <cc:Work>
    <dc:type rdf:resource="http://purl.org/dc/dcmitype/StillImage"/>
    <dc:date>2024-04-04T00:00:19.987217</dc:date>
    <dc:format>image/svg+xml</dc:format>
    <dc:creator>
     <cc:Agent>
      <dc:title>Matplotlib v3.8.3, https://matplotlib.org/</dc:title>
     </cc:Agent>
    </dc:creator>
   </cc:Work>
  </rdf:RDF>
 </metadata>
 <defs>
  <style type="text/css">*{stroke-linejoin: round; stroke-linecap: butt}</style>
 </defs>
 <g id="figure_1">
  <g id="patch_1">
   <path d="M 0 360 
L 576 360 
L 576 0 
L 0 0 
z
" style="fill: #ffffff"/>
  </g>
  <g id="axes_1">
   <g id="patch_2">
    <path d="M 59.14 121.135 
L 538.08 121.135 
L 538.08 33.96 
L 59.14 33.96 
z
" style="fill: #ffffff"/>
   </g>
   <g id="matplotlib.axis_1">
    <g id="xtick_1">
     <g id="line2d_1">
      <defs>
       <path id="mac29514f36" d="M 0 0 
L 0 3.5 
" style="stroke: #000000; stroke-width: 0.8"/>
      </defs>
      <g>
       <use xlink:href="#mac29514f36" x="80.91" y="121.135" style="stroke: #000000; stroke-width: 0.8"/>
      </g>
     </g>
    </g>
    <g id="xtick_2">
     <g id="line2d_2">
      <g>
       <use xlink:href="#mac29514f36" x="153.476667" y="121.135" style="stroke: #000000; stroke-width: 0.8"/>
      </g>
     </g>
    </g>
    <g id="xtick_3">
     <g id="line2d_3">
      <g>
       <use xlink:href="#mac29514f36" x="226.043333" y="121.135" style="stroke: #000000; stroke-width: 0.8"/>
      </g>
     </g>
    </g>
    <g id="xtick_4">
     <g id="line2d_4">
      <g>
       <use xlink:href="#mac29514f36" x="298.61" y="121.135" style="stroke: #000000; stroke-width: 0.8"/>
      </g>
     </g>
    </g>
    <g id="xtick_5">
     <g id="line2d_5">
      <g>
       <use xlink:href="#mac29514f36" x="371.176667" y="121.135" style="stroke: #000000; stroke-width: 0.8"/>
      </g>
     </g>
    </g>
    <g id="xtick_6">
     <g id="line2d_6">
      <g>
       <use xlink:href="#mac29514f36" x="443.743333" y="121.135" style="stroke: #000000; stroke-width: 0.8"/>
      </g>
     </g>
    </g>
    <g id="xtick_7">
     <g id="line2d_7">
      <g>
       <use xlink:href="#mac29514f36" x="516.31" y="121.135" style="stroke: #000000; stroke-width: 0.8"/>
      </g>
     </g>
    </g>
   </g>
   <g id="matplotlib.axis_2">
    <g id="ytick_1">
     <g id="line2d_8">
      <defs>
       <path id="mc71f307d6c" d="M 0 0 
L -3.5 0 
" style="stroke: #000000; stroke-width: 0.8"/>
      </defs>
      <g>
       <use xlink:href="#mc71f307d6c" x="59.14" y="121.135" style="stroke: #000000; stroke-width: 0.8"/>
      </g>
     </g>
     <g id="text_1">
      <!-- 0 -->
      <g transform="translate(45.7775 124.934219) scale(0.1 -0.1)">
       <defs>
        <path id="DejaVuSans-30" d="M 2034 4250 
Q 1547 4250 1301 3770 
Q 1056 3291 1056 2328 
Q 1056 1369 1301 889 
Q 1547 409 2034 409 
Q 2525 409 2770 889 
Q 3016 1369 3016 2328 
Q 3016 3291 2770 3770 
Q 2525 4250 2034 4250 
z
M 2034 4750 
Q 2819 4750 3233 4129 
Q 3647 3509 3647 2328 
Q 3647 1150 3233 529 
Q 2819 -91 2034 -91 
Q 1250 -91 836 529 
Q 422 1150 422 2328 
Q 422 3509 836 4129 
Q 1250 4750 2034 4750 
z
" transform="scale(0.015625)"/>
       </defs>
       <use xlink:href="#DejaVuSans-30"/>
      </g>
     </g>
    </g>
    <g id="ytick_2">
     <g id="line2d_9">
      <g>
       <use xlink:href="#mc71f307d6c" x="59.14" y="99.34125" style="stroke: #000000; stroke-width: 0.8"/>
      </g>
     </g>
     <g id="text_2">
      <!-- 250 -->
      <g transform="translate(33.0525 103.140469) scale(0.1 -0.1)">
       <defs>
        <path id="DejaVuSans-32" d="M 1228 531 
L 3431 531 
L 3431 0 
L 469 0 
L 469 531 
Q 828 903 1448 1529 
Q 2069 2156 2228 2338 
Q 2531 2678 2651 2914 
Q 2772 3150 2772 3378 
Q 2772 3750 2511 3984 
Q 2250 4219 1831 4219 
Q 1534 4219 1204 4116 
Q 875 4013 500 3803 
L 500 4441 
Q 881 4594 1212 4672 
Q 1544 4750 1819 4750 
Q 2544 4750 2975 4387 
Q 3406 4025 3406 3419 
Q 3406 3131 3298 2873 
Q 3191 2616 2906 2266 
Q 2828 2175 2409 1742 
Q 1991 1309 1228 531 
z
" transform="scale(0.015625)"/>
        <path id="DejaVuSans-35" d="M 691 4666 
L 3169 4666 
L 3169 4134 
L 1269 4134 
L 1269 2991 
Q 1406 3038 1543 3061 
Q 1681 3084 1819 3084 
Q 2600 3084 3056 2656 
Q 3513 2228 3513 1497 
Q 3513 744 3044 326 
Q 2575 -91 1722 -91 
Q 1428 -91 1123 -41 
Q 819 9 494 109 
L 494 744 
Q 775 591 1075 516 
Q 1375 441 1709 441 
Q 2250 441 2565 725 
Q 2881 1009 2881 1497 
Q 2881 1984 2565 2268 
Q 2250 2553 1709 2553 
Q 1456 2553 1204 2497 
Q 953 2441 691 2322 
L 691 4666 
z
" transform="scale(0.015625)"/>
       </defs>
       <use xlink:href="#DejaVuSans-32"/>
       <use xlink:href="#DejaVuSans-35" x="63.623047"/>
       <use xlink:href="#DejaVuSans-30" x="127.246094"/>
      </g>
     </g>
    </g>
    <g id="ytick_3">
     <g id="line2d_10">
      <g>
       <use xlink:href="#mc71f307d6c" x="59.14" y="77.5475" style="stroke: #000000; stroke-width: 0.8"/>
      </g>
     </g>
     <g id="text_3">
      <!-- 500 -->
      <g transform="translate(33.0525 81.346719) scale(0.1 -0.1)">
       <use xlink:href="#DejaVuSans-35"/>
       <use xlink:href="#DejaVuSans-30" x="63.623047"/>
       <use xlink:href="#DejaVuSans-30" x="127.246094"/>
      </g>
     </g>
    </g>
    <g id="ytick_4">
     <g id="line2d_11">
      <g>
       <use xlink:href="#mc71f307d6c" x="59.14" y="55.75375" style="stroke: #000000; stroke-width: 0.8"/>
      </g>
     </g>
     <g id="text_4">
      <!-- 750 -->
      <g transform="translate(33.0525 59.552969) scale(0.1 -0.1)">
       <defs>
        <path id="DejaVuSans-37" d="M 525 4666 
L 3525 4666 
L 3525 4397 
L 1831 0 
L 1172 0 
L 2766 4134 
L 525 4134 
L 525 4666 
z
" transform="scale(0.015625)"/>
       </defs>
       <use xlink:href="#DejaVuSans-37"/>
       <use xlink:href="#DejaVuSans-35" x="63.623047"/>
       <use xlink:href="#DejaVuSans-30" x="127.246094"/>
      </g>
     </g>
    </g>
    <g id="ytick_5">
     <g id="line2d_12">
      <g>
       <use xlink:href="#mc71f307d6c" x="59.14" y="33.96" style="stroke: #000000; stroke-width: 0.8"/>
      </g>
     </g>
     <g id="text_5">
      <!-- 1000 -->
      <g transform="translate(26.69 37.759219) scale(0.1 -0.1)">
       <defs>
        <path id="DejaVuSans-31" d="M 794 531 
L 1825 531 
L 1825 4091 
L 703 3866 
L 703 4441 
L 1819 4666 
L 2450 4666 
L 2450 531 
L 3481 531 
L 3481 0 
L 794 0 
L 794 531 
z
" transform="scale(0.015625)"/>
       </defs>
       <use xlink:href="#DejaVuSans-31"/>
       <use xlink:href="#DejaVuSans-30" x="63.623047"/>
       <use xlink:href="#DejaVuSans-30" x="127.246094"/>
       <use xlink:href="#DejaVuSans-30" x="190.869141"/>
      </g>
     </g>
    </g>
    <g id="text_6">
     <!-- S -->
     <g transform="translate(544.905781 85.145938) scale(0.1 -0.1)">
      <defs>
       <path id="DejaVuSans-53" d="M 3425 4513 
L 3425 3897 
Q 3066 4069 2747 4153 
Q 2428 4238 2131 4238 
Q 1616 4238 1336 4038 
Q 1056 3838 1056 3469 
Q 1056 3159 1242 3001 
Q 1428 2844 1947 2747 
L 2328 2669 
Q 3034 2534 3370 2195 
Q 3706 1856 3706 1288 
Q 3706 609 3251 259 
Q 2797 -91 1919 -91 
Q 1588 -91 1214 -16 
Q 841 59 441 206 
L 441 856 
Q 825 641 1194 531 
Q 1563 422 1919 422 
Q 2459 422 2753 634 
Q 3047 847 3047 1241 
Q 3047 1584 2836 1778 
Q 2625 1972 2144 2069 
L 1759 2144 
Q 1053 2284 737 2584 
Q 422 2884 422 3419 
Q 422 4038 858 4394 
Q 1294 4750 2059 4750 
Q 2388 4750 2728 4690 
Q 3069 4631 3425 4513 
z
" transform="scale(0.015625)"/>
      </defs>
      <use xlink:href="#DejaVuSans-53"/>
     </g>
    </g>
   </g>
   <g id="line2d_13">
    <path d="M 80.91 42.6775 
L 81.980831 45.245203 
L 83.051663 48.403844 
L 84.193883 52.483288 
L 85.407491 57.649958 
L 86.835266 64.724905 
L 88.976929 76.639907 
L 91.618313 91.107125 
L 93.188865 98.46256 
L 94.473863 103.470667 
L 95.687472 107.330189 
L 96.829692 110.259067 
L 97.971912 112.586403 
L 99.114132 114.410063 
L 100.256352 115.826062 
L 101.469961 116.971851 
L 102.754958 117.874242 
L 104.182733 118.602237 
L 105.824675 119.17834 
L 107.82356 119.628287 
L 110.322166 119.953846 
L 113.891604 120.173917 
L 119.674092 120.278041 
L 133.594899 120.242096 
L 210.266419 119.677196 
L 362.39585 118.529954 
L 449.632905 118.148478 
L 516.31 117.9988 
L 516.31 117.9988 
" clip-path="url(#pb7e02b11d5)" style="fill: none; stroke: #1f77b4; stroke-width: 1.5; stroke-linecap: square"/>
   </g>
   <g id="line2d_14">
    <path d="M 80.91 42.6775 
L 81.48111 46.740924 
L 82.123609 53.116738 
L 82.837496 62.637685 
L 83.979716 81.583264 
L 85.121936 99.462079 
L 85.907213 108.422369 
L 86.549711 113.465576 
L 87.19221 116.842375 
L 87.834709 119.009868 
L 88.405819 120.233086 
L 89.048318 121.095433 
L 89.762205 121.650139 
L 90.547482 121.974693 
L 91.618313 122.169634 
L 93.47442 122.244636 
L 99.185521 122.146918 
L 118.603261 121.789055 
L 118.603261 121.789055 
" clip-path="url(#pb7e02b11d5)" style="fill: none; stroke: #808080; stroke-opacity: 0.5; stroke-width: 1.5; stroke-linecap: square"/>
   </g>
   <g id="line2d_15">
    <path d="M 80.91 42.6775 
L 82.694719 44.509936 
L 84.479438 46.657531 
L 86.335545 49.251242 
L 88.191653 52.230319 
L 90.190538 55.863711 
L 92.403589 60.355497 
L 95.044973 66.244079 
L 104.039956 86.755498 
L 106.324396 91.189919 
L 108.323281 94.605215 
L 110.250777 97.476103 
L 112.106885 99.858469 
L 113.962992 101.885655 
L 115.8191 103.589192 
L 117.746596 105.060096 
L 119.745481 106.307998 
L 121.887144 107.377425 
L 124.171584 108.26787 
L 126.812968 109.051225 
L 129.739907 109.685392 
L 133.166567 110.190659 
L 137.664058 110.610953 
L 143.303769 110.906814 
L 152.298752 111.120418 
L 168.718165 111.241608 
L 227.39972 111.33769 
L 347.332823 111.398645 
L 516.31 111.40135 
L 516.31 111.40135 
" clip-path="url(#pb7e02b11d5)" style="fill: none; stroke: #808080; stroke-opacity: 0.5; stroke-width: 1.5; stroke-linecap: square"/>
   </g>
   <g id="line2d_16">
    <path d="M 80.91 42.6775 
L 81.266944 120.283072 
L 81.409721 121.077011 
L 81.695276 121.133907 
L 122.815198 121.132846 
L 516.31 121.028442 
L 516.31 121.028442 
" clip-path="url(#pb7e02b11d5)" style="fill: none; stroke: #808080; stroke-opacity: 0.5; stroke-width: 1.5; stroke-linecap: square"/>
   </g>
   <g id="line2d_17">
    <path d="M 80.91 42.6775 
L 81.338333 38.14609 
L 81.766665 35.905145 
L 82.194998 34.84402 
L 82.62333 34.352899 
L 83.123051 34.104319 
L 83.979716 33.972567 
L 86.406934 33.937728 
L 290.792932 33.625452 
L 345.26255 33.274523 
L 384.74053 32.807119 
L 415.794637 32.224614 
L 441.423199 31.527926 
L 463.268157 30.71722 
L 482.328954 29.791936 
L 499.248088 28.751626 
L 514.453892 27.596872 
L 516.31 27.439416 
L 516.31 27.439416 
" clip-path="url(#pb7e02b11d5)" style="fill: none; stroke: #808080; stroke-opacity: 0.5; stroke-width: 1.5; stroke-linecap: square"/>
   </g>
   <g id="line2d_18">
    <path d="M 80.91 42.6775 
L 81.195555 51.213579 
L 81.623888 73.132743 
L 82.266386 106.254323 
L 82.62333 114.896435 
L 82.980274 118.64996 
L 83.337218 120.130337 
L 83.694161 120.695943 
L 84.122494 120.932212 
L 84.90777 121.025325 
L 88.90554 121.034193 
L 437.710984 120.756669 
L 516.31 120.748616 
L 516.31 120.748616 
" clip-path="url(#pb7e02b11d5)" style="fill: none; stroke: #808080; stroke-opacity: 0.5; stroke-width: 1.5; stroke-linecap: square"/>
   </g>
   <g id="line2d_19">
    <path d="M 80.91 42.6775 
L 81.552499 39.411911 
L 82.123609 37.525303 
L 82.694719 36.290731 
L 83.337218 35.420588 
L 84.051105 34.849776 
L 84.90777 34.481596 
L 86.04999 34.258204 
L 87.977486 34.141857 
L 93.759975 34.111975 
L 501.175585 34.200944 
L 516.31 34.205122 
L 516.31 34.205122 
" clip-path="url(#pb7e02b11d5)" style="fill: none; stroke: #808080; stroke-opacity: 0.5; stroke-width: 1.5; stroke-linecap: square"/>
   </g>
   <g id="line2d_20">
    <path d="M 80.91 42.6775 
L 81.052778 68.510649 
L 81.338333 117.515682 
L 81.552499 120.883311 
L 81.766665 121.126141 
L 82.62333 121.144018 
L 138.949056 121.139593 
L 138.949056 121.139593 
" clip-path="url(#pb7e02b11d5)" style="fill: none; stroke: #808080; stroke-opacity: 0.5; stroke-width: 1.5; stroke-linecap: square"/>
   </g>
   <g id="line2d_21">
    <path d="M 80.91 42.6775 
L 81.338333 38.560283 
L 81.766665 36.332549 
L 82.194998 35.173306 
L 82.62333 34.583043 
L 83.123051 34.251472 
L 83.836939 34.067813 
L 85.264714 33.991786 
L 94.473863 33.98671 
L 228.399162 34.150172 
L 290.935709 34.435566 
L 332.769518 34.838002 
L 364.466124 35.357186 
L 389.951909 35.989921 
L 411.368534 36.738449 
L 429.786832 37.599491 
L 445.992079 38.575216 
L 460.412607 39.661422 
L 473.476749 40.86463 
L 485.39867 42.182941 
L 496.321149 43.610551 
L 506.458352 45.156403 
L 515.881667 46.814667 
L 516.31 46.895621 
L 516.31 46.895621 
" clip-path="url(#pb7e02b11d5)" style="fill: none; stroke: #808080; stroke-opacity: 0.5; stroke-width: 1.5; stroke-linecap: square"/>
   </g>
   <g id="line2d_22">
    <path d="M 80.91 42.6775 
L 81.052778 120.07259 
L 81.195555 121.167149 
L 86.406934 121.170163 
L 152.227364 121.312911 
L 158.509574 121.508107 
L 161.00818 121.775158 
L 162.435955 122.136854 
L 163.435398 122.617721 
L 164.220674 123.229442 
L 165.077339 124.18858 
L 166.219559 125.862441 
L 168.932332 130.376111 
L 172.715935 137.073414 
L 176.428151 144.096288 
L 180.140366 151.597478 
L 183.852581 159.609561 
L 187.493407 167.997386 
L 191.134233 176.945147 
L 194.77506 186.490222 
L 198.415886 196.672485 
L 201.985324 207.314676 
L 202.342268 208.416449 
L 202.342268 208.416449 
" clip-path="url(#pb7e02b11d5)" style="fill: none; stroke: #808080; stroke-opacity: 0.5; stroke-width: 1.5; stroke-linecap: square"/>
   </g>
   <g id="line2d_23">
    <path d="M 80.91 42.6775 
L 81.266944 38.182426 
L 81.623888 35.959728 
L 81.980831 34.90755 
L 82.337775 34.418201 
L 82.837496 34.141764 
L 83.622773 34.027014 
L 86.264156 34.000317 
L 253.242448 33.961826 
L 516.31 33.960014 
L 516.31 33.960014 
" clip-path="url(#pb7e02b11d5)" style="fill: none; stroke: #808080; stroke-opacity: 0.5; stroke-width: 1.5; stroke-linecap: square"/>
   </g>
   <g id="patch_3">
    <path d="M 59.14 121.135 
L 59.14 33.96 
" style="fill: none; stroke: #000000; stroke-width: 0.8; stroke-linejoin: miter; stroke-linecap: square"/>
   </g>
   <g id="patch_4">
    <path d="M 538.08 121.135 
L 538.08 33.96 
" style="fill: none; stroke: #000000; stroke-width: 0.8; stroke-linejoin: miter; stroke-linecap: square"/>
   </g>
   <g id="patch_5">
    <path d="M 59.14 121.135 
L 538.08 121.135 
" style="fill: none; stroke: #000000; stroke-width: 0.8; stroke-linejoin: miter; stroke-linecap: square"/>
   </g>
   <g id="patch_6">
    <path d="M 59.14 33.96 
L 538.08 33.96 
" style="fill: none; stroke: #000000; stroke-width: 0.8; stroke-linejoin: miter; stroke-linecap: square"/>
   </g>
   <g id="legend_1">
    <g id="patch_7">
     <path d="M 477.845625 86.386563 
L 531.08 86.386563 
Q 533.08 86.386563 533.08 84.386563 
L 533.08 70.708438 
Q 533.08 68.708438 531.08 68.708438 
L 477.845625 68.708438 
Q 475.845625 68.708438 475.845625 70.708438 
L 475.845625 84.386563 
Q 475.845625 86.386563 477.845625 86.386563 
z
" style="fill: #ffffff; opacity: 0.8; stroke: #cccccc; stroke-linejoin: miter"/>
    </g>
    <g id="line2d_24">
     <path d="M 479.845625 76.806875 
L 489.845625 76.806875 
L 499.845625 76.806875 
" style="fill: none; stroke: #1f77b4; stroke-width: 1.5; stroke-linecap: square"/>
    </g>
    <g id="text_7">
     <!-- True -->
     <g transform="translate(507.845625 80.306875) scale(0.1 -0.1)">
      <defs>
       <path id="DejaVuSans-54" d="M -19 4666 
L 3928 4666 
L 3928 4134 
L 2272 4134 
L 2272 0 
L 1638 0 
L 1638 4134 
L -19 4134 
L -19 4666 
z
" transform="scale(0.015625)"/>
       <path id="DejaVuSans-72" d="M 2631 2963 
Q 2534 3019 2420 3045 
Q 2306 3072 2169 3072 
Q 1681 3072 1420 2755 
Q 1159 2438 1159 1844 
L 1159 0 
L 581 0 
L 581 3500 
L 1159 3500 
L 1159 2956 
Q 1341 3275 1631 3429 
Q 1922 3584 2338 3584 
Q 2397 3584 2469 3576 
Q 2541 3569 2628 3553 
L 2631 2963 
z
" transform="scale(0.015625)"/>
       <path id="DejaVuSans-75" d="M 544 1381 
L 544 3500 
L 1119 3500 
L 1119 1403 
Q 1119 906 1312 657 
Q 1506 409 1894 409 
Q 2359 409 2629 706 
Q 2900 1003 2900 1516 
L 2900 3500 
L 3475 3500 
L 3475 0 
L 2900 0 
L 2900 538 
Q 2691 219 2414 64 
Q 2138 -91 1772 -91 
Q 1169 -91 856 284 
Q 544 659 544 1381 
z
M 1991 3584 
L 1991 3584 
z
" transform="scale(0.015625)"/>
       <path id="DejaVuSans-65" d="M 3597 1894 
L 3597 1613 
L 953 1613 
Q 991 1019 1311 708 
Q 1631 397 2203 397 
Q 2534 397 2845 478 
Q 3156 559 3463 722 
L 3463 178 
Q 3153 47 2828 -22 
Q 2503 -91 2169 -91 
Q 1331 -91 842 396 
Q 353 884 353 1716 
Q 353 2575 817 3079 
Q 1281 3584 2069 3584 
Q 2775 3584 3186 3129 
Q 3597 2675 3597 1894 
z
M 3022 2063 
Q 3016 2534 2758 2815 
Q 2500 3097 2075 3097 
Q 1594 3097 1305 2825 
Q 1016 2553 972 2059 
L 3022 2063 
z
" transform="scale(0.015625)"/>
      </defs>
      <use xlink:href="#DejaVuSans-54"/>
      <use xlink:href="#DejaVuSans-72" x="46.333984"/>
      <use xlink:href="#DejaVuSans-75" x="87.447266"/>
      <use xlink:href="#DejaVuSans-65" x="150.826172"/>
     </g>
    </g>
   </g>
  </g>
  <g id="axes_2">
   <g id="patch_8">
    <path d="M 59.14 217.0275 
L 538.08 217.0275 
L 538.08 129.8525 
L 59.14 129.8525 
z
" style="fill: #ffffff"/>
   </g>
   <g id="PathCollection_1">
    <defs>
     <path id="mcf5e16d07e" d="M 0 1.581139 
C 0.419323 1.581139 0.821528 1.41454 1.118034 1.118034 
C 1.41454 0.821528 1.581139 0.419323 1.581139 0 
C 1.581139 -0.419323 1.41454 -0.821528 1.118034 -1.118034 
C 0.821528 -1.41454 0.419323 -1.581139 0 -1.581139 
C -0.419323 -1.581139 -0.821528 -1.41454 -1.118034 -1.118034 
C -1.41454 -0.821528 -1.581139 -0.419323 -1.581139 0 
C -1.581139 0.419323 -1.41454 0.821528 -1.118034 1.118034 
C -0.821528 1.41454 -0.419323 1.581139 0 1.581139 
z
" style="stroke: #000000"/>
    </defs>
    <g clip-path="url(#p7d2ed5b68a)">
     <use xlink:href="#mcf5e16d07e" x="80.91" y="200.513816" style="stroke: #000000"/>
     <use xlink:href="#mcf5e16d07e" x="88.048875" y="178.917737" style="stroke: #000000"/>
     <use xlink:href="#mcf5e16d07e" x="95.18775" y="149.053178" style="stroke: #000000"/>
     <use xlink:href="#mcf5e16d07e" x="102.326626" y="150.035157" style="stroke: #000000"/>
     <use xlink:href="#mcf5e16d07e" x="109.465501" y="145.096309" style="stroke: #000000"/>
     <use xlink:href="#mcf5e16d07e" x="116.604376" y="149.047687" style="stroke: #000000"/>
     <use xlink:href="#mcf5e16d07e" x="123.743251" y="151.541736" style="stroke: #000000"/>
     <use xlink:href="#mcf5e16d07e" x="130.882127" y="157.396024" style="stroke: #000000"/>
     <use xlink:href="#mcf5e16d07e" x="138.021002" y="158.103494" style="stroke: #000000"/>
     <use xlink:href="#mcf5e16d07e" x="145.159877" y="163.01561" style="stroke: #000000"/>
     <use xlink:href="#mcf5e16d07e" x="152.298752" y="169.47293" style="stroke: #000000"/>
     <use xlink:href="#mcf5e16d07e" x="159.437627" y="162.503767" style="stroke: #000000"/>
     <use xlink:href="#mcf5e16d07e" x="166.576503" y="164.947225" style="stroke: #000000"/>
     <use xlink:href="#mcf5e16d07e" x="173.715378" y="163.595324" style="stroke: #000000"/>
     <use xlink:href="#mcf5e16d07e" x="180.854253" y="172.929252" style="stroke: #000000"/>
     <use xlink:href="#mcf5e16d07e" x="187.993128" y="176.862116" style="stroke: #000000"/>
     <use xlink:href="#mcf5e16d07e" x="195.132004" y="179.291305" style="stroke: #000000"/>
     <use xlink:href="#mcf5e16d07e" x="202.270879" y="185.341597" style="stroke: #000000"/>
     <use xlink:href="#mcf5e16d07e" x="209.409754" y="175.887418" style="stroke: #000000"/>
     <use xlink:href="#mcf5e16d07e" x="216.548629" y="186.428395" style="stroke: #000000"/>
     <use xlink:href="#mcf5e16d07e" x="223.687505" y="188.14937" style="stroke: #000000"/>
     <use xlink:href="#mcf5e16d07e" x="230.82638" y="185.140984" style="stroke: #000000"/>
     <use xlink:href="#mcf5e16d07e" x="237.965255" y="178.940183" style="stroke: #000000"/>
     <use xlink:href="#mcf5e16d07e" x="245.10413" y="185.474726" style="stroke: #000000"/>
     <use xlink:href="#mcf5e16d07e" x="252.243005" y="191.981053" style="stroke: #000000"/>
     <use xlink:href="#mcf5e16d07e" x="259.381881" y="191.568846" style="stroke: #000000"/>
     <use xlink:href="#mcf5e16d07e" x="266.520756" y="186.610764" style="stroke: #000000"/>
     <use xlink:href="#mcf5e16d07e" x="273.659631" y="190.847284" style="stroke: #000000"/>
     <use xlink:href="#mcf5e16d07e" x="280.798506" y="194.254129" style="stroke: #000000"/>
     <use xlink:href="#mcf5e16d07e" x="287.937382" y="192.608487" style="stroke: #000000"/>
     <use xlink:href="#mcf5e16d07e" x="295.076257" y="189.009653" style="stroke: #000000"/>
     <use xlink:href="#mcf5e16d07e" x="302.215132" y="184.247554" style="stroke: #000000"/>
     <use xlink:href="#mcf5e16d07e" x="309.354007" y="198.845353" style="stroke: #000000"/>
     <use xlink:href="#mcf5e16d07e" x="316.492882" y="196.675415" style="stroke: #000000"/>
     <use xlink:href="#mcf5e16d07e" x="323.631758" y="197.93256" style="stroke: #000000"/>
     <use xlink:href="#mcf5e16d07e" x="330.770633" y="205.420681" style="stroke: #000000"/>
     <use xlink:href="#mcf5e16d07e" x="337.909508" y="199.31823" style="stroke: #000000"/>
     <use xlink:href="#mcf5e16d07e" x="345.048383" y="200.140528" style="stroke: #000000"/>
     <use xlink:href="#mcf5e16d07e" x="352.187259" y="191.137101" style="stroke: #000000"/>
     <use xlink:href="#mcf5e16d07e" x="359.326134" y="196.942291" style="stroke: #000000"/>
     <use xlink:href="#mcf5e16d07e" x="366.465009" y="203.747937" style="stroke: #000000"/>
     <use xlink:href="#mcf5e16d07e" x="373.603884" y="194.136372" style="stroke: #000000"/>
     <use xlink:href="#mcf5e16d07e" x="380.742759" y="198.770425" style="stroke: #000000"/>
     <use xlink:href="#mcf5e16d07e" x="387.881635" y="205.059064" style="stroke: #000000"/>
     <use xlink:href="#mcf5e16d07e" x="395.02051" y="200.286879" style="stroke: #000000"/>
     <use xlink:href="#mcf5e16d07e" x="402.159385" y="200.458163" style="stroke: #000000"/>
     <use xlink:href="#mcf5e16d07e" x="409.29826" y="201.891637" style="stroke: #000000"/>
     <use xlink:href="#mcf5e16d07e" x="416.437136" y="198.128825" style="stroke: #000000"/>
     <use xlink:href="#mcf5e16d07e" x="423.576011" y="208.220913" style="stroke: #000000"/>
     <use xlink:href="#mcf5e16d07e" x="430.714886" y="199.739484" style="stroke: #000000"/>
     <use xlink:href="#mcf5e16d07e" x="437.853761" y="194.2955" style="stroke: #000000"/>
     <use xlink:href="#mcf5e16d07e" x="444.992636" y="195.121829" style="stroke: #000000"/>
     <use xlink:href="#mcf5e16d07e" x="452.131512" y="194.124851" style="stroke: #000000"/>
     <use xlink:href="#mcf5e16d07e" x="459.270387" y="194.182938" style="stroke: #000000"/>
     <use xlink:href="#mcf5e16d07e" x="466.409262" y="192.677098" style="stroke: #000000"/>
     <use xlink:href="#mcf5e16d07e" x="473.548137" y="204.126912" style="stroke: #000000"/>
     <use xlink:href="#mcf5e16d07e" x="480.687013" y="195.650523" style="stroke: #000000"/>
     <use xlink:href="#mcf5e16d07e" x="487.825888" y="207.526478" style="stroke: #000000"/>
     <use xlink:href="#mcf5e16d07e" x="494.964763" y="202.114097" style="stroke: #000000"/>
     <use xlink:href="#mcf5e16d07e" x="502.103638" y="207.895374" style="stroke: #000000"/>
     <use xlink:href="#mcf5e16d07e" x="509.242514" y="195.041226" style="stroke: #000000"/>
    </g>
   </g>
   <g id="matplotlib.axis_3">
    <g id="xtick_8">
     <g id="line2d_25">
      <g>
       <use xlink:href="#mac29514f36" x="80.91" y="217.0275" style="stroke: #000000; stroke-width: 0.8"/>
      </g>
     </g>
    </g>
    <g id="xtick_9">
     <g id="line2d_26">
      <g>
       <use xlink:href="#mac29514f36" x="153.476667" y="217.0275" style="stroke: #000000; stroke-width: 0.8"/>
      </g>
     </g>
    </g>
    <g id="xtick_10">
     <g id="line2d_27">
      <g>
       <use xlink:href="#mac29514f36" x="226.043333" y="217.0275" style="stroke: #000000; stroke-width: 0.8"/>
      </g>
     </g>
    </g>
    <g id="xtick_11">
     <g id="line2d_28">
      <g>
       <use xlink:href="#mac29514f36" x="298.61" y="217.0275" style="stroke: #000000; stroke-width: 0.8"/>
      </g>
     </g>
    </g>
    <g id="xtick_12">
     <g id="line2d_29">
      <g>
       <use xlink:href="#mac29514f36" x="371.176667" y="217.0275" style="stroke: #000000; stroke-width: 0.8"/>
      </g>
     </g>
    </g>
    <g id="xtick_13">
     <g id="line2d_30">
      <g>
       <use xlink:href="#mac29514f36" x="443.743333" y="217.0275" style="stroke: #000000; stroke-width: 0.8"/>
      </g>
     </g>
    </g>
    <g id="xtick_14">
     <g id="line2d_31">
      <g>
       <use xlink:href="#mac29514f36" x="516.31" y="217.0275" style="stroke: #000000; stroke-width: 0.8"/>
      </g>
     </g>
    </g>
   </g>
   <g id="matplotlib.axis_4">
    <g id="ytick_6">
     <g id="line2d_32">
      <g>
       <use xlink:href="#mc71f307d6c" x="59.14" y="217.0275" style="stroke: #000000; stroke-width: 0.8"/>
      </g>
     </g>
     <g id="text_8">
      <!-- 0 -->
      <g transform="translate(45.7775 220.826719) scale(0.1 -0.1)">
       <use xlink:href="#DejaVuSans-30"/>
      </g>
     </g>
    </g>
    <g id="ytick_7">
     <g id="line2d_33">
      <g>
       <use xlink:href="#mc71f307d6c" x="59.14" y="195.23375" style="stroke: #000000; stroke-width: 0.8"/>
      </g>
     </g>
     <g id="text_9">
      <!-- 250 -->
      <g transform="translate(33.0525 199.032969) scale(0.1 -0.1)">
       <use xlink:href="#DejaVuSans-32"/>
       <use xlink:href="#DejaVuSans-35" x="63.623047"/>
       <use xlink:href="#DejaVuSans-30" x="127.246094"/>
      </g>
     </g>
    </g>
    <g id="ytick_8">
     <g id="line2d_34">
      <g>
       <use xlink:href="#mc71f307d6c" x="59.14" y="173.44" style="stroke: #000000; stroke-width: 0.8"/>
      </g>
     </g>
     <g id="text_10">
      <!-- 500 -->
      <g transform="translate(33.0525 177.239219) scale(0.1 -0.1)">
       <use xlink:href="#DejaVuSans-35"/>
       <use xlink:href="#DejaVuSans-30" x="63.623047"/>
       <use xlink:href="#DejaVuSans-30" x="127.246094"/>
      </g>
     </g>
    </g>
    <g id="ytick_9">
     <g id="line2d_35">
      <g>
       <use xlink:href="#mc71f307d6c" x="59.14" y="151.64625" style="stroke: #000000; stroke-width: 0.8"/>
      </g>
     </g>
     <g id="text_11">
      <!-- 750 -->
      <g transform="translate(33.0525 155.445469) scale(0.1 -0.1)">
       <use xlink:href="#DejaVuSans-37"/>
       <use xlink:href="#DejaVuSans-35" x="63.623047"/>
       <use xlink:href="#DejaVuSans-30" x="127.246094"/>
      </g>
     </g>
    </g>
    <g id="ytick_10">
     <g id="line2d_36">
      <g>
       <use xlink:href="#mc71f307d6c" x="59.14" y="129.8525" style="stroke: #000000; stroke-width: 0.8"/>
      </g>
     </g>
     <g id="text_12">
      <!-- 1000 -->
      <g transform="translate(26.69 133.651719) scale(0.1 -0.1)">
       <use xlink:href="#DejaVuSans-31"/>
       <use xlink:href="#DejaVuSans-30" x="63.623047"/>
       <use xlink:href="#DejaVuSans-30" x="127.246094"/>
       <use xlink:href="#DejaVuSans-30" x="190.869141"/>
      </g>
     </g>
    </g>
    <g id="text_13">
     <!-- I -->
     <g transform="translate(546.605 181.038437) scale(0.1 -0.1)">
      <defs>
       <path id="DejaVuSans-49" d="M 628 4666 
L 1259 4666 
L 1259 0 
L 628 0 
L 628 4666 
z
" transform="scale(0.015625)"/>
      </defs>
      <use xlink:href="#DejaVuSans-49"/>
     </g>
    </g>
   </g>
   <g id="line2d_37">
    <path d="M 80.91 208.31 
L 81.980831 205.829973 
L 83.051663 202.783199 
L 84.193883 198.855536 
L 85.47888 193.578354 
L 86.978044 186.408305 
L 89.619428 172.408431 
L 91.618313 162.409753 
L 93.046088 156.342463 
L 94.259697 152.1079 
L 95.330528 149.112636 
L 96.401359 146.756881 
L 97.400802 145.077675 
L 98.400244 143.834278 
L 99.399687 142.954093 
L 100.399129 142.374734 
L 101.398572 142.042623 
L 102.540792 141.903076 
L 103.825789 141.976255 
L 105.324953 142.289935 
L 107.25245 142.939163 
L 109.822445 144.053772 
L 114.034381 146.160639 
L 128.240743 153.401829 
L 135.593784 156.833742 
L 142.946826 160.021571 
L 150.585422 163.090356 
L 158.509574 166.030411 
L 166.647891 168.812064 
L 175.214542 171.500961 
L 183.92397 174.003508 
L 193.204507 176.436758 
L 202.699211 178.698188 
L 212.907803 180.897949 
L 223.401949 182.931734 
L 234.752761 184.90055 
L 246.389128 186.694074 
L 259.096326 188.424686 
L 272.231856 189.990012 
L 286.723773 191.489988 
L 301.786799 192.825932 
L 318.634545 194.094309 
L 336.338956 195.202899 
L 356.470584 196.238215 
L 378.244153 197.127858 
L 402.873273 197.912321 
L 431.571551 198.589719 
L 463.482323 199.121316 
L 503.959746 199.566539 
L 516.31 199.663646 
L 516.31 199.663646 
" clip-path="url(#p7d2ed5b68a)" style="fill: none; stroke: #1f77b4; stroke-width: 1.5; stroke-linecap: square"/>
   </g>
   <g id="line2d_38">
    <path d="M 80.91 208.31 
L 81.48111 204.138154 
L 82.123609 197.579013 
L 82.837496 187.749106 
L 83.908328 169.291815 
L 85.193325 147.872533 
L 85.978601 138.140995 
L 86.692489 131.800109 
L 87.406376 127.31322 
L 88.191653 123.824222 
L 89.048318 121.048373 
L 90.119149 118.351902 
L 91.903868 114.546286 
L 96.187193 105.507045 
L 99.042743 98.895763 
L 101.826904 91.895021 
L 104.682455 84.097706 
L 107.466616 75.840514 
L 110.250777 66.881242 
L 113.034939 57.163095 
L 115.8191 46.618797 
L 118.603261 35.179095 
L 118.603261 35.179095 
" clip-path="url(#p7d2ed5b68a)" style="fill: none; stroke: #808080; stroke-opacity: 0.5; stroke-width: 1.5; stroke-linecap: square"/>
   </g>
   <g id="line2d_39">
    <path d="M 80.91 208.31 
L 82.694719 206.466891 
L 84.479438 204.306707 
L 86.335545 201.697535 
L 88.191653 198.700207 
L 90.190538 195.04363 
L 92.403589 190.521432 
L 95.044973 184.589382 
L 104.182733 163.574275 
L 106.467173 159.107119 
L 108.466058 155.663619 
L 110.393555 152.762881 
L 112.321051 150.263709 
L 114.177159 148.215468 
L 116.033266 146.486065 
L 117.960762 144.983242 
L 119.959647 143.698215 
L 122.10131 142.584826 
L 124.457139 141.617157 
L 127.098523 140.776061 
L 130.09685 140.060188 
L 133.52351 139.477211 
L 138.092391 138.942085 
L 143.660713 138.520773 
L 152.298752 138.119515 
L 165.862615 137.743694 
L 188.921182 137.336175 
L 224.044448 136.956957 
L 277.942956 136.657663 
L 516.31 136.42236 
L 516.31 136.42236 
" clip-path="url(#p7d2ed5b68a)" style="fill: none; stroke: #808080; stroke-opacity: 0.5; stroke-width: 1.5; stroke-linecap: square"/>
   </g>
   <g id="line2d_40">
    <path d="M 80.91 208.31 
L 81.266944 131.183501 
L 81.409721 130.675978 
L 81.766665 131.333113 
L 85.050548 137.631644 
L 88.405819 143.58552 
L 91.76109 149.089126 
L 95.18775 154.280472 
L 98.614411 159.071192 
L 102.112459 163.580591 
L 105.681897 167.816329 
L 109.251335 171.712136 
L 112.892161 175.36394 
L 116.675765 178.842819 
L 120.530758 182.083889 
L 124.457139 185.097325 
L 128.526298 187.941106 
L 132.738234 190.612523 
L 137.092948 193.110781 
L 141.590439 195.436797 
L 146.302097 197.624428 
L 151.227921 199.66738 
L 156.4393 201.58684 
L 161.936234 203.372889 
L 167.790111 205.038245 
L 174.000933 206.57244 
L 180.711476 207.997472 
L 187.92174 209.298514 
L 195.774502 210.486666 
L 204.412541 211.564567 
L 213.978634 212.529649 
L 224.686947 213.382463 
L 236.894424 214.126944 
L 251.100785 214.764306 
L 268.01992 215.293465 
L 288.936824 215.715913 
L 316.207327 216.031441 
L 354.828642 216.238192 
L 420.720461 216.338876 
L 516.31 216.35701 
L 516.31 216.35701 
" clip-path="url(#p7d2ed5b68a)" style="fill: none; stroke: #808080; stroke-opacity: 0.5; stroke-width: 1.5; stroke-linecap: square"/>
   </g>
   <g id="line2d_41">
    <path d="M 80.91 208.31 
L 81.338333 212.830075 
L 81.766665 215.065582 
L 82.194998 216.124116 
L 82.62333 216.613982 
L 83.123051 216.861849 
L 83.979716 216.993054 
L 86.406934 217.027101 
L 249.387455 217.0275 
L 516.31 217.0275 
L 516.31 217.0275 
" clip-path="url(#p7d2ed5b68a)" style="fill: none; stroke: #808080; stroke-opacity: 0.5; stroke-width: 1.5; stroke-linecap: square"/>
   </g>
   <g id="line2d_42">
    <path d="M 80.91 208.31 
L 81.195555 199.808124 
L 81.623888 178.000488 
L 82.266386 145.227013 
L 82.62333 136.844663 
L 82.980274 133.369854 
L 83.265829 132.313712 
L 83.551384 131.946223 
L 83.836939 131.901831 
L 84.33666 132.131734 
L 85.621658 133.099208 
L 91.475535 137.563994 
L 96.972469 141.469784 
L 102.612181 145.206298 
L 108.39467 148.772166 
L 114.319936 152.167188 
L 120.459369 155.428487 
L 126.812968 158.549045 
L 133.309344 161.491994 
L 140.019887 164.290633 
L 147.087373 166.993614 
L 154.297637 169.515243 
L 161.936234 171.948472 
L 169.860385 174.238222 
L 177.998703 176.363979 
L 186.850908 178.442406 
L 195.988669 180.359145 
L 205.554761 182.142764 
L 216.048908 183.868176 
L 226.82861 185.418965 
L 238.893309 186.922157 
L 251.38634 188.256116 
L 265.664091 189.544505 
L 281.298228 190.712799 
L 298.502917 191.758164 
L 317.278159 192.667951 
L 337.766731 193.441615 
L 360.896686 194.105508 
L 386.739415 194.648888 
L 422.005458 195.154777 
L 463.982045 195.523287 
L 516.31 195.778072 
L 516.31 195.778072 
" clip-path="url(#p7d2ed5b68a)" style="fill: none; stroke: #808080; stroke-opacity: 0.5; stroke-width: 1.5; stroke-linecap: square"/>
   </g>
   <g id="line2d_43">
    <path d="M 80.91 208.31 
L 81.552499 211.634531 
L 82.123609 213.554156 
L 82.694719 214.809968 
L 83.337218 215.694925 
L 84.051105 216.275433 
L 84.90777 216.649902 
L 86.04999 216.877206 
L 87.977486 216.995818 
L 93.688587 217.027188 
L 516.31 217.0275 
L 516.31 217.0275 
" clip-path="url(#p7d2ed5b68a)" style="fill: none; stroke: #808080; stroke-opacity: 0.5; stroke-width: 1.5; stroke-linecap: square"/>
   </g>
   <g id="line2d_44">
    <path d="M 80.91 208.31 
L 81.052778 182.444373 
L 81.338333 133.221627 
L 81.552499 129.639506 
L 81.838054 129.09511 
L 92.760533 117.104847 
L 97.472191 111.390493 
L 102.112459 105.412415 
L 106.68134 99.165703 
L 111.25022 92.539314 
L 115.747711 85.62322 
L 120.245202 78.293524 
L 124.671305 70.652352 
L 129.097408 62.561684 
L 133.452122 54.13717 
L 137.806836 45.225312 
L 138.949056 42.803607 
L 138.949056 42.803607 
" clip-path="url(#p7d2ed5b68a)" style="fill: none; stroke: #808080; stroke-opacity: 0.5; stroke-width: 1.5; stroke-linecap: square"/>
   </g>
   <g id="line2d_45">
    <path d="M 80.91 208.31 
L 81.338333 212.438013 
L 81.766665 214.67143 
L 82.194998 215.833639 
L 82.62333 216.425468 
L 83.123051 216.758001 
L 83.836939 216.942338 
L 85.264714 217.019031 
L 94.473863 217.0275 
L 516.31 217.0275 
L 516.31 217.0275 
" clip-path="url(#p7d2ed5b68a)" style="fill: none; stroke: #808080; stroke-opacity: 0.5; stroke-width: 1.5; stroke-linecap: square"/>
   </g>
   <g id="line2d_46">
    <path d="M 80.91 208.31 
L 81.052778 130.978659 
L 81.124166 129.973399 
L 81.195555 129.981954 
L 85.050548 132.6795 
L 91.261369 137.250331 
L 97.258024 141.937868 
L 103.111902 146.789581 
L 108.894391 151.865775 
L 114.605491 157.171932 
L 120.173814 162.641428 
L 125.813525 168.49581 
L 131.310459 174.523345 
L 136.878782 180.969889 
L 142.304327 187.596951 
L 147.801261 194.673154 
L 153.155417 201.917436 
L 162.935676 215.310274 
L 164.006508 216.291379 
L 164.863173 216.764863 
L 165.719838 216.968931 
L 167.147613 217.026189 
L 196.131446 217.0275 
L 202.342268 217.0275 
L 202.342268 217.0275 
" clip-path="url(#p7d2ed5b68a)" style="fill: none; stroke: #808080; stroke-opacity: 0.5; stroke-width: 1.5; stroke-linecap: square"/>
   </g>
   <g id="line2d_47">
    <path d="M 80.91 208.31 
L 81.266944 212.828395 
L 81.623888 215.062004 
L 81.980831 216.119093 
L 82.337775 216.610552 
L 82.837496 216.887939 
L 83.622773 217.002626 
L 86.264156 217.027425 
L 516.31 217.0275 
L 516.31 217.0275 
" clip-path="url(#p7d2ed5b68a)" style="fill: none; stroke: #808080; stroke-opacity: 0.5; stroke-width: 1.5; stroke-linecap: square"/>
   </g>
   <g id="patch_9">
    <path d="M 59.14 217.0275 
L 59.14 129.8525 
" style="fill: none; stroke: #000000; stroke-width: 0.8; stroke-linejoin: miter; stroke-linecap: square"/>
   </g>
   <g id="patch_10">
    <path d="M 538.08 217.0275 
L 538.08 129.8525 
" style="fill: none; stroke: #000000; stroke-width: 0.8; stroke-linejoin: miter; stroke-linecap: square"/>
   </g>
   <g id="patch_11">
    <path d="M 59.14 217.0275 
L 538.08 217.0275 
" style="fill: none; stroke: #000000; stroke-width: 0.8; stroke-linejoin: miter; stroke-linecap: square"/>
   </g>
   <g id="patch_12">
    <path d="M 59.14 129.8525 
L 538.08 129.8525 
" style="fill: none; stroke: #000000; stroke-width: 0.8; stroke-linejoin: miter; stroke-linecap: square"/>
   </g>
   <g id="legend_2">
    <g id="patch_13">
     <path d="M 475.203437 189.618125 
L 531.08 189.618125 
Q 533.08 189.618125 533.08 187.618125 
L 533.08 159.261875 
Q 533.08 157.261875 531.08 157.261875 
L 475.203437 157.261875 
Q 473.203437 157.261875 473.203437 159.261875 
L 473.203437 187.618125 
Q 473.203437 189.618125 475.203437 189.618125 
z
" style="fill: #ffffff; opacity: 0.8; stroke: #cccccc; stroke-linejoin: miter"/>
    </g>
    <g id="line2d_48">
     <path d="M 477.203437 165.360313 
L 487.203437 165.360313 
L 497.203437 165.360313 
" style="fill: none; stroke: #1f77b4; stroke-width: 1.5; stroke-linecap: square"/>
    </g>
    <g id="text_14">
     <!-- True -->
     <g transform="translate(505.203437 168.860313) scale(0.1 -0.1)">
      <use xlink:href="#DejaVuSans-54"/>
      <use xlink:href="#DejaVuSans-72" x="46.333984"/>
      <use xlink:href="#DejaVuSans-75" x="87.447266"/>
      <use xlink:href="#DejaVuSans-65" x="150.826172"/>
     </g>
    </g>
    <g id="PathCollection_2">
     <g>
      <use xlink:href="#mcf5e16d07e" x="487.203437" y="180.913438" style="stroke: #000000"/>
     </g>
    </g>
    <g id="text_15">
     <!-- Data -->
     <g transform="translate(505.203437 183.538438) scale(0.1 -0.1)">
      <defs>
       <path id="DejaVuSans-44" d="M 1259 4147 
L 1259 519 
L 2022 519 
Q 2988 519 3436 956 
Q 3884 1394 3884 2338 
Q 3884 3275 3436 3711 
Q 2988 4147 2022 4147 
L 1259 4147 
z
M 628 4666 
L 1925 4666 
Q 3281 4666 3915 4102 
Q 4550 3538 4550 2338 
Q 4550 1131 3912 565 
Q 3275 0 1925 0 
L 628 0 
L 628 4666 
z
" transform="scale(0.015625)"/>
       <path id="DejaVuSans-61" d="M 2194 1759 
Q 1497 1759 1228 1600 
Q 959 1441 959 1056 
Q 959 750 1161 570 
Q 1363 391 1709 391 
Q 2188 391 2477 730 
Q 2766 1069 2766 1631 
L 2766 1759 
L 2194 1759 
z
M 3341 1997 
L 3341 0 
L 2766 0 
L 2766 531 
Q 2569 213 2275 61 
Q 1981 -91 1556 -91 
Q 1019 -91 701 211 
Q 384 513 384 1019 
Q 384 1609 779 1909 
Q 1175 2209 1959 2209 
L 2766 2209 
L 2766 2266 
Q 2766 2663 2505 2880 
Q 2244 3097 1772 3097 
Q 1472 3097 1187 3025 
Q 903 2953 641 2809 
L 641 3341 
Q 956 3463 1253 3523 
Q 1550 3584 1831 3584 
Q 2591 3584 2966 3190 
Q 3341 2797 3341 1997 
z
" transform="scale(0.015625)"/>
       <path id="DejaVuSans-74" d="M 1172 4494 
L 1172 3500 
L 2356 3500 
L 2356 3053 
L 1172 3053 
L 1172 1153 
Q 1172 725 1289 603 
Q 1406 481 1766 481 
L 2356 481 
L 2356 0 
L 1766 0 
Q 1100 0 847 248 
Q 594 497 594 1153 
L 594 3053 
L 172 3053 
L 172 3500 
L 594 3500 
L 594 4494 
L 1172 4494 
z
" transform="scale(0.015625)"/>
      </defs>
      <use xlink:href="#DejaVuSans-44"/>
      <use xlink:href="#DejaVuSans-61" x="77.001953"/>
      <use xlink:href="#DejaVuSans-74" x="138.28125"/>
      <use xlink:href="#DejaVuSans-61" x="177.490234"/>
     </g>
    </g>
   </g>
  </g>
  <g id="axes_3">
   <g id="patch_14">
    <path d="M 59.14 312.92 
L 538.08 312.92 
L 538.08 225.745 
L 59.14 225.745 
z
" style="fill: #ffffff"/>
   </g>
   <g id="matplotlib.axis_5">
    <g id="xtick_15">
     <g id="line2d_49">
      <g>
       <use xlink:href="#mac29514f36" x="80.91" y="312.92" style="stroke: #000000; stroke-width: 0.8"/>
      </g>
     </g>
     <g id="text_16">
      <!-- 0 -->
      <g transform="translate(77.72875 327.518438) scale(0.1 -0.1)">
       <use xlink:href="#DejaVuSans-30"/>
      </g>
     </g>
    </g>
    <g id="xtick_16">
     <g id="line2d_50">
      <g>
       <use xlink:href="#mac29514f36" x="153.476667" y="312.92" style="stroke: #000000; stroke-width: 0.8"/>
      </g>
     </g>
     <g id="text_17">
      <!-- 1 -->
      <g transform="translate(150.295417 327.518438) scale(0.1 -0.1)">
       <use xlink:href="#DejaVuSans-31"/>
      </g>
     </g>
    </g>
    <g id="xtick_17">
     <g id="line2d_51">
      <g>
       <use xlink:href="#mac29514f36" x="226.043333" y="312.92" style="stroke: #000000; stroke-width: 0.8"/>
      </g>
     </g>
     <g id="text_18">
      <!-- 2 -->
      <g transform="translate(222.862083 327.518438) scale(0.1 -0.1)">
       <use xlink:href="#DejaVuSans-32"/>
      </g>
     </g>
    </g>
    <g id="xtick_18">
     <g id="line2d_52">
      <g>
       <use xlink:href="#mac29514f36" x="298.61" y="312.92" style="stroke: #000000; stroke-width: 0.8"/>
      </g>
     </g>
     <g id="text_19">
      <!-- 3 -->
      <g transform="translate(295.42875 327.518438) scale(0.1 -0.1)">
       <defs>
        <path id="DejaVuSans-33" d="M 2597 2516 
Q 3050 2419 3304 2112 
Q 3559 1806 3559 1356 
Q 3559 666 3084 287 
Q 2609 -91 1734 -91 
Q 1441 -91 1130 -33 
Q 819 25 488 141 
L 488 750 
Q 750 597 1062 519 
Q 1375 441 1716 441 
Q 2309 441 2620 675 
Q 2931 909 2931 1356 
Q 2931 1769 2642 2001 
Q 2353 2234 1838 2234 
L 1294 2234 
L 1294 2753 
L 1863 2753 
Q 2328 2753 2575 2939 
Q 2822 3125 2822 3475 
Q 2822 3834 2567 4026 
Q 2313 4219 1838 4219 
Q 1578 4219 1281 4162 
Q 984 4106 628 3988 
L 628 4550 
Q 988 4650 1302 4700 
Q 1616 4750 1894 4750 
Q 2613 4750 3031 4423 
Q 3450 4097 3450 3541 
Q 3450 3153 3228 2886 
Q 3006 2619 2597 2516 
z
" transform="scale(0.015625)"/>
       </defs>
       <use xlink:href="#DejaVuSans-33"/>
      </g>
     </g>
    </g>
    <g id="xtick_19">
     <g id="line2d_53">
      <g>
       <use xlink:href="#mac29514f36" x="371.176667" y="312.92" style="stroke: #000000; stroke-width: 0.8"/>
      </g>
     </g>
     <g id="text_20">
      <!-- 4 -->
      <g transform="translate(367.995417 327.518438) scale(0.1 -0.1)">
       <defs>
        <path id="DejaVuSans-34" d="M 2419 4116 
L 825 1625 
L 2419 1625 
L 2419 4116 
z
M 2253 4666 
L 3047 4666 
L 3047 1625 
L 3713 1625 
L 3713 1100 
L 3047 1100 
L 3047 0 
L 2419 0 
L 2419 1100 
L 313 1100 
L 313 1709 
L 2253 4666 
z
" transform="scale(0.015625)"/>
       </defs>
       <use xlink:href="#DejaVuSans-34"/>
      </g>
     </g>
    </g>
    <g id="xtick_20">
     <g id="line2d_54">
      <g>
       <use xlink:href="#mac29514f36" x="443.743333" y="312.92" style="stroke: #000000; stroke-width: 0.8"/>
      </g>
     </g>
     <g id="text_21">
      <!-- 5 -->
      <g transform="translate(440.562083 327.518438) scale(0.1 -0.1)">
       <use xlink:href="#DejaVuSans-35"/>
      </g>
     </g>
    </g>
    <g id="xtick_21">
     <g id="line2d_55">
      <g>
       <use xlink:href="#mac29514f36" x="516.31" y="312.92" style="stroke: #000000; stroke-width: 0.8"/>
      </g>
     </g>
     <g id="text_22">
      <!-- 6 -->
      <g transform="translate(513.12875 327.518438) scale(0.1 -0.1)">
       <defs>
        <path id="DejaVuSans-36" d="M 2113 2584 
Q 1688 2584 1439 2293 
Q 1191 2003 1191 1497 
Q 1191 994 1439 701 
Q 1688 409 2113 409 
Q 2538 409 2786 701 
Q 3034 994 3034 1497 
Q 3034 2003 2786 2293 
Q 2538 2584 2113 2584 
z
M 3366 4563 
L 3366 3988 
Q 3128 4100 2886 4159 
Q 2644 4219 2406 4219 
Q 1781 4219 1451 3797 
Q 1122 3375 1075 2522 
Q 1259 2794 1537 2939 
Q 1816 3084 2150 3084 
Q 2853 3084 3261 2657 
Q 3669 2231 3669 1497 
Q 3669 778 3244 343 
Q 2819 -91 2113 -91 
Q 1303 -91 875 529 
Q 447 1150 447 2328 
Q 447 3434 972 4092 
Q 1497 4750 2381 4750 
Q 2619 4750 2861 4703 
Q 3103 4656 3366 4563 
z
" transform="scale(0.015625)"/>
       </defs>
       <use xlink:href="#DejaVuSans-36"/>
      </g>
     </g>
    </g>
    <g id="text_23">
     <!-- Time -->
     <g transform="translate(286.376406 341.196563) scale(0.1 -0.1)">
      <defs>
       <path id="DejaVuSans-69" d="M 603 3500 
L 1178 3500 
L 1178 0 
L 603 0 
L 603 3500 
z
M 603 4863 
L 1178 4863 
L 1178 4134 
L 603 4134 
L 603 4863 
z
" transform="scale(0.015625)"/>
       <path id="DejaVuSans-6d" d="M 3328 2828 
Q 3544 3216 3844 3400 
Q 4144 3584 4550 3584 
Q 5097 3584 5394 3201 
Q 5691 2819 5691 2113 
L 5691 0 
L 5113 0 
L 5113 2094 
Q 5113 2597 4934 2840 
Q 4756 3084 4391 3084 
Q 3944 3084 3684 2787 
Q 3425 2491 3425 1978 
L 3425 0 
L 2847 0 
L 2847 2094 
Q 2847 2600 2669 2842 
Q 2491 3084 2119 3084 
Q 1678 3084 1418 2786 
Q 1159 2488 1159 1978 
L 1159 0 
L 581 0 
L 581 3500 
L 1159 3500 
L 1159 2956 
Q 1356 3278 1631 3431 
Q 1906 3584 2284 3584 
Q 2666 3584 2933 3390 
Q 3200 3197 3328 2828 
z
" transform="scale(0.015625)"/>
      </defs>
      <use xlink:href="#DejaVuSans-54"/>
      <use xlink:href="#DejaVuSans-69" x="57.958984"/>
      <use xlink:href="#DejaVuSans-6d" x="85.742188"/>
      <use xlink:href="#DejaVuSans-65" x="183.154297"/>
     </g>
    </g>
   </g>
   <g id="matplotlib.axis_6">
    <g id="ytick_11">
     <g id="line2d_56">
      <g>
       <use xlink:href="#mc71f307d6c" x="59.14" y="312.92" style="stroke: #000000; stroke-width: 0.8"/>
      </g>
     </g>
     <g id="text_24">
      <!-- 0 -->
      <g transform="translate(45.7775 316.719219) scale(0.1 -0.1)">
       <use xlink:href="#DejaVuSans-30"/>
      </g>
     </g>
    </g>
    <g id="ytick_12">
     <g id="line2d_57">
      <g>
       <use xlink:href="#mc71f307d6c" x="59.14" y="291.12625" style="stroke: #000000; stroke-width: 0.8"/>
      </g>
     </g>
     <g id="text_25">
      <!-- 250 -->
      <g transform="translate(33.0525 294.925469) scale(0.1 -0.1)">
       <use xlink:href="#DejaVuSans-32"/>
       <use xlink:href="#DejaVuSans-35" x="63.623047"/>
       <use xlink:href="#DejaVuSans-30" x="127.246094"/>
      </g>
     </g>
    </g>
    <g id="ytick_13">
     <g id="line2d_58">
      <g>
       <use xlink:href="#mc71f307d6c" x="59.14" y="269.3325" style="stroke: #000000; stroke-width: 0.8"/>
      </g>
     </g>
     <g id="text_26">
      <!-- 500 -->
      <g transform="translate(33.0525 273.131719) scale(0.1 -0.1)">
       <use xlink:href="#DejaVuSans-35"/>
       <use xlink:href="#DejaVuSans-30" x="63.623047"/>
       <use xlink:href="#DejaVuSans-30" x="127.246094"/>
      </g>
     </g>
    </g>
    <g id="ytick_14">
     <g id="line2d_59">
      <g>
       <use xlink:href="#mc71f307d6c" x="59.14" y="247.53875" style="stroke: #000000; stroke-width: 0.8"/>
      </g>
     </g>
     <g id="text_27">
      <!-- 750 -->
      <g transform="translate(33.0525 251.337969) scale(0.1 -0.1)">
       <use xlink:href="#DejaVuSans-37"/>
       <use xlink:href="#DejaVuSans-35" x="63.623047"/>
       <use xlink:href="#DejaVuSans-30" x="127.246094"/>
      </g>
     </g>
    </g>
    <g id="ytick_15">
     <g id="line2d_60">
      <g>
       <use xlink:href="#mc71f307d6c" x="59.14" y="225.745" style="stroke: #000000; stroke-width: 0.8"/>
      </g>
     </g>
     <g id="text_28">
      <!-- 1000 -->
      <g transform="translate(26.69 229.544219) scale(0.1 -0.1)">
       <use xlink:href="#DejaVuSans-31"/>
       <use xlink:href="#DejaVuSans-30" x="63.623047"/>
       <use xlink:href="#DejaVuSans-30" x="127.246094"/>
       <use xlink:href="#DejaVuSans-30" x="190.869141"/>
      </g>
     </g>
    </g>
    <g id="text_29">
     <!-- R -->
     <g transform="translate(544.605781 276.930938) scale(0.1 -0.1)">
      <defs>
       <path id="DejaVuSans-52" d="M 2841 2188 
Q 3044 2119 3236 1894 
Q 3428 1669 3622 1275 
L 4263 0 
L 3584 0 
L 2988 1197 
Q 2756 1666 2539 1819 
Q 2322 1972 1947 1972 
L 1259 1972 
L 1259 0 
L 628 0 
L 628 4666 
L 2053 4666 
Q 2853 4666 3247 4331 
Q 3641 3997 3641 3322 
Q 3641 2881 3436 2590 
Q 3231 2300 2841 2188 
z
M 1259 4147 
L 1259 2491 
L 2053 2491 
Q 2509 2491 2742 2702 
Q 2975 2913 2975 3322 
Q 2975 3731 2742 3939 
Q 2509 4147 2053 4147 
L 1259 4147 
z
" transform="scale(0.015625)"/>
      </defs>
      <use xlink:href="#DejaVuSans-52"/>
     </g>
    </g>
   </g>
   <g id="line2d_61">
    <path d="M 80.91 312.92 
L 84.122494 312.579272 
L 86.692489 312.087625 
L 88.976929 311.429335 
L 91.332758 310.516418 
L 93.974142 309.245758 
L 97.472191 307.295929 
L 106.895506 301.657966 
L 114.10577 297.52817 
L 120.95909 293.860145 
L 127.883799 290.406931 
L 134.951285 287.129899 
L 142.232938 283.997314 
L 149.800146 280.985202 
L 157.58152 278.127287 
L 165.648449 275.400997 
L 174.072322 272.790632 
L 182.781749 270.324813 
L 191.91951 267.970566 
L 201.414214 265.754297 
L 211.408639 263.650956 
L 221.902786 261.671067 
L 232.968042 259.811098 
L 244.675798 258.070076 
L 257.168829 256.440225 
L 270.447137 254.934656 
L 284.724888 253.542617 
L 300.073469 252.272202 
L 316.778437 251.11555 
L 334.982569 250.080356 
L 355.256975 249.153884 
L 377.887209 248.347118 
L 403.729938 247.652854 
L 433.998769 247.070315 
L 470.050089 246.605734 
L 515.73889 246.248348 
L 516.31 246.245054 
L 516.31 246.245054 
" clip-path="url(#p129015d270)" style="fill: none; stroke: #1f77b4; stroke-width: 1.5; stroke-linecap: square"/>
   </g>
   <g id="line2d_62">
    <path d="M 80.91 312.92 
L 82.123609 313.211749 
L 83.123051 313.68258 
L 84.051105 314.38502 
L 85.050548 315.450442 
L 86.264156 317.107775 
L 87.977486 319.878938 
L 90.404704 324.267404 
L 93.260254 329.902868 
L 96.115804 336.031154 
L 98.971354 342.688136 
L 101.826904 349.919195 
L 104.682455 357.77423 
L 105.78989 361 
L 105.78989 361 
" clip-path="url(#p129015d270)" style="fill: none; stroke: #808080; stroke-opacity: 0.5; stroke-width: 1.5; stroke-linecap: square"/>
   </g>
   <g id="line2d_63">
    <path d="M 80.91 312.92 
L 97.543579 313.122665 
L 113.177716 313.561503 
L 146.944596 314.546466 
L 173.715378 315.064995 
L 206.696981 315.471309 
L 250.24412 315.772212 
L 313.494555 315.968951 
L 428.930167 316.068627 
L 516.31 316.08379 
L 516.31 316.08379 
" clip-path="url(#p129015d270)" style="fill: none; stroke: #808080; stroke-opacity: 0.5; stroke-width: 1.5; stroke-linecap: square"/>
   </g>
   <g id="line2d_64">
    <path d="M 80.91 312.92 
L 81.052778 312.825784 
L 81.552499 311.868142 
L 84.836381 305.537917 
L 88.191653 299.554154 
L 91.546924 294.022932 
L 94.973584 288.80555 
L 98.400244 283.990814 
L 101.898293 279.458827 
L 105.467731 275.201889 
L 109.037168 271.286604 
L 112.677995 267.616559 
L 116.461599 264.120329 
L 120.316591 260.863123 
L 124.242973 257.834712 
L 128.312131 254.976841 
L 132.524068 252.292225 
L 136.878782 249.781678 
L 141.376273 247.444276 
L 146.087931 245.246011 
L 151.013755 243.193207 
L 156.225134 241.264593 
L 161.722068 239.470155 
L 167.575945 237.797135 
L 173.786767 236.256084 
L 180.425921 234.839002 
L 187.636185 233.530525 
L 195.488947 232.336035 
L 204.055598 231.261087 
L 213.550302 230.297059 
L 224.187226 229.444259 
L 236.323314 228.699611 
L 250.386898 228.065672 
L 267.091866 227.542159 
L 287.723215 227.127473 
L 314.565386 226.823019 
L 352.972535 226.627987 
L 421.648515 226.53634 
L 516.31 226.522048 
L 516.31 226.522048 
" clip-path="url(#p129015d270)" style="fill: none; stroke: #808080; stroke-opacity: 0.5; stroke-width: 1.5; stroke-linecap: square"/>
   </g>
   <g id="line2d_65">
    <path d="M 80.91 312.92 
L 84.693604 312.942145 
L 246.317739 313.106245 
L 316.492882 313.389296 
L 363.395293 313.790366 
L 398.804114 314.307459 
L 427.288226 314.938984 
L 451.132069 315.683796 
L 471.69203 316.543241 
L 489.753384 317.516189 
L 505.887242 318.604265 
L 516.31 319.440584 
L 516.31 319.440584 
" clip-path="url(#p129015d270)" style="fill: none; stroke: #808080; stroke-opacity: 0.5; stroke-width: 1.5; stroke-linecap: square"/>
   </g>
   <g id="line2d_66">
    <path d="M 80.91 312.92 
L 81.695276 312.746275 
L 82.409164 312.325707 
L 84.550826 310.625064 
L 89.976372 306.423061 
L 95.473305 302.4484 
L 101.113017 298.646461 
L 106.895506 295.018623 
L 112.820772 291.565268 
L 118.888816 288.285845 
L 125.171026 285.144627 
L 131.667403 282.147423 
L 138.377946 279.298475 
L 145.302655 276.600546 
L 152.512919 274.030689 
L 160.008737 271.595501 
L 167.8615 269.279577 
L 176.071207 267.091572 
L 184.709246 265.021466 
L 193.775617 263.07834 
L 203.413099 261.242787 
L 213.62169 259.527448 
L 224.472781 257.931273 
L 236.109147 256.446336 
L 248.673568 255.070464 
L 262.237431 253.811444 
L 277.086291 252.659991 
L 293.434315 251.619534 
L 311.638447 250.688709 
L 332.127019 249.868868 
L 355.613919 249.157618 
L 383.0272 248.55629 
L 416.008803 248.062622 
L 457.342891 247.675632 
L 512.740562 247.393065 
L 516.31 247.380812 
L 516.31 247.380812 
" clip-path="url(#p129015d270)" style="fill: none; stroke: #808080; stroke-opacity: 0.5; stroke-width: 1.5; stroke-linecap: square"/>
   </g>
   <g id="line2d_67">
    <path d="M 80.91 312.92 
L 82.980274 312.799298 
L 89.119707 312.769317 
L 516.31 312.674878 
L 516.31 312.674878 
" clip-path="url(#p129015d270)" style="fill: none; stroke: #808080; stroke-opacity: 0.5; stroke-width: 1.5; stroke-linecap: square"/>
   </g>
   <g id="line2d_68">
    <path d="M 80.91 312.92 
L 81.195555 313.040493 
L 82.266386 314.114448 
L 87.120821 319.261023 
L 91.903868 324.65744 
L 96.615525 330.309357 
L 101.255794 336.222062 
L 105.896063 342.499888 
L 110.464943 349.059784 
L 114.962435 355.906438 
L 118.146652 361 
L 118.146652 361 
" clip-path="url(#p129015d270)" style="fill: none; stroke: #808080; stroke-opacity: 0.5; stroke-width: 1.5; stroke-linecap: square"/>
   </g>
   <g id="line2d_69">
    <path d="M 80.91 312.92 
L 85.050548 312.896764 
L 228.113607 312.730623 
L 290.721543 312.445925 
L 332.62674 312.043833 
L 364.323346 311.525735 
L 389.88052 310.892202 
L 411.297145 310.144456 
L 429.715444 309.284315 
L 445.92069 308.30961 
L 460.412607 307.218579 
L 473.476749 306.01537 
L 485.39867 304.69706 
L 496.321149 303.269449 
L 506.458352 301.723597 
L 515.881667 300.065333 
L 516.31 299.984379 
L 516.31 299.984379 
" clip-path="url(#p129015d270)" style="fill: none; stroke: #808080; stroke-opacity: 0.5; stroke-width: 1.5; stroke-linecap: square"/>
   </g>
   <g id="line2d_70">
    <path d="M 80.91 312.92 
L 81.195555 312.758396 
L 87.406376 308.356684 
L 93.545809 303.731531 
L 99.542464 298.934506 
L 105.396342 293.969046 
L 111.178831 288.773554 
L 116.889931 283.342011 
L 122.529643 277.668551 
L 128.097965 271.747481 
L 133.594899 265.57329 
L 139.020444 259.140662 
L 144.374601 252.44445 
L 149.657368 245.479577 
L 154.868747 238.240649 
L 160.008737 230.719868 
L 164.791784 223.336854 
L 168.646777 216.991329 
L 172.43038 210.327883 
L 176.142596 203.340513 
L 179.854811 195.877246 
L 183.567026 187.905669 
L 187.207852 179.560249 
L 190.848678 170.657724 
L 194.489505 161.160905 
L 198.130331 151.030119 
L 201.699769 140.441731 
L 202.342268 138.463551 
L 202.342268 138.463551 
" clip-path="url(#p129015d270)" style="fill: none; stroke: #808080; stroke-opacity: 0.5; stroke-width: 1.5; stroke-linecap: square"/>
   </g>
   <g id="line2d_71">
    <path d="M 80.91 312.92 
L 82.694719 312.877932 
L 157.081799 312.909159 
L 516.31 312.919986 
L 516.31 312.919986 
" clip-path="url(#p129015d270)" style="fill: none; stroke: #808080; stroke-opacity: 0.5; stroke-width: 1.5; stroke-linecap: square"/>
   </g>
   <g id="patch_15">
    <path d="M 59.14 312.92 
L 59.14 225.745 
" style="fill: none; stroke: #000000; stroke-width: 0.8; stroke-linejoin: miter; stroke-linecap: square"/>
   </g>
   <g id="patch_16">
    <path d="M 538.08 312.92 
L 538.08 225.745 
" style="fill: none; stroke: #000000; stroke-width: 0.8; stroke-linejoin: miter; stroke-linecap: square"/>
   </g>
   <g id="patch_17">
    <path d="M 59.14 312.92 
L 538.08 312.92 
" style="fill: none; stroke: #000000; stroke-width: 0.8; stroke-linejoin: miter; stroke-linecap: square"/>
   </g>
   <g id="patch_18">
    <path d="M 59.14 225.745 
L 538.08 225.745 
" style="fill: none; stroke: #000000; stroke-width: 0.8; stroke-linejoin: miter; stroke-linecap: square"/>
   </g>
   <g id="legend_3">
    <g id="patch_19">
     <path d="M 66.14 248.423125 
L 119.374375 248.423125 
Q 121.374375 248.423125 121.374375 246.423125 
L 121.374375 232.745 
Q 121.374375 230.745 119.374375 230.745 
L 66.14 230.745 
Q 64.14 230.745 64.14 232.745 
L 64.14 246.423125 
Q 64.14 248.423125 66.14 248.423125 
z
" style="fill: #ffffff; opacity: 0.8; stroke: #cccccc; stroke-linejoin: miter"/>
    </g>
    <g id="line2d_72">
     <path d="M 68.14 238.843437 
L 78.14 238.843437 
L 88.14 238.843437 
" style="fill: none; stroke: #1f77b4; stroke-width: 1.5; stroke-linecap: square"/>
    </g>
    <g id="text_30">
     <!-- True -->
     <g transform="translate(96.14 242.343437) scale(0.1 -0.1)">
      <use xlink:href="#DejaVuSans-54"/>
      <use xlink:href="#DejaVuSans-72" x="46.333984"/>
      <use xlink:href="#DejaVuSans-75" x="87.447266"/>
      <use xlink:href="#DejaVuSans-65" x="150.826172"/>
     </g>
    </g>
   </g>
  </g>
  <g id="text_31">
   <!-- 2.B Problem 2 Prior Predictive -->
   <g transform="translate(183.966875 17.837812) scale(0.14 -0.14)">
    <defs>
     <path id="DejaVuSans-2e" d="M 684 794 
L 1344 794 
L 1344 0 
L 684 0 
L 684 794 
z
" transform="scale(0.015625)"/>
     <path id="DejaVuSans-42" d="M 1259 2228 
L 1259 519 
L 2272 519 
Q 2781 519 3026 730 
Q 3272 941 3272 1375 
Q 3272 1813 3026 2020 
Q 2781 2228 2272 2228 
L 1259 2228 
z
M 1259 4147 
L 1259 2741 
L 2194 2741 
Q 2656 2741 2882 2914 
Q 3109 3088 3109 3444 
Q 3109 3797 2882 3972 
Q 2656 4147 2194 4147 
L 1259 4147 
z
M 628 4666 
L 2241 4666 
Q 2963 4666 3353 4366 
Q 3744 4066 3744 3513 
Q 3744 3084 3544 2831 
Q 3344 2578 2956 2516 
Q 3422 2416 3680 2098 
Q 3938 1781 3938 1306 
Q 3938 681 3513 340 
Q 3088 0 2303 0 
L 628 0 
L 628 4666 
z
" transform="scale(0.015625)"/>
     <path id="DejaVuSans-20" transform="scale(0.015625)"/>
     <path id="DejaVuSans-50" d="M 1259 4147 
L 1259 2394 
L 2053 2394 
Q 2494 2394 2734 2622 
Q 2975 2850 2975 3272 
Q 2975 3691 2734 3919 
Q 2494 4147 2053 4147 
L 1259 4147 
z
M 628 4666 
L 2053 4666 
Q 2838 4666 3239 4311 
Q 3641 3956 3641 3272 
Q 3641 2581 3239 2228 
Q 2838 1875 2053 1875 
L 1259 1875 
L 1259 0 
L 628 0 
L 628 4666 
z
" transform="scale(0.015625)"/>
     <path id="DejaVuSans-6f" d="M 1959 3097 
Q 1497 3097 1228 2736 
Q 959 2375 959 1747 
Q 959 1119 1226 758 
Q 1494 397 1959 397 
Q 2419 397 2687 759 
Q 2956 1122 2956 1747 
Q 2956 2369 2687 2733 
Q 2419 3097 1959 3097 
z
M 1959 3584 
Q 2709 3584 3137 3096 
Q 3566 2609 3566 1747 
Q 3566 888 3137 398 
Q 2709 -91 1959 -91 
Q 1206 -91 779 398 
Q 353 888 353 1747 
Q 353 2609 779 3096 
Q 1206 3584 1959 3584 
z
" transform="scale(0.015625)"/>
     <path id="DejaVuSans-62" d="M 3116 1747 
Q 3116 2381 2855 2742 
Q 2594 3103 2138 3103 
Q 1681 3103 1420 2742 
Q 1159 2381 1159 1747 
Q 1159 1113 1420 752 
Q 1681 391 2138 391 
Q 2594 391 2855 752 
Q 3116 1113 3116 1747 
z
M 1159 2969 
Q 1341 3281 1617 3432 
Q 1894 3584 2278 3584 
Q 2916 3584 3314 3078 
Q 3713 2572 3713 1747 
Q 3713 922 3314 415 
Q 2916 -91 2278 -91 
Q 1894 -91 1617 61 
Q 1341 213 1159 525 
L 1159 0 
L 581 0 
L 581 4863 
L 1159 4863 
L 1159 2969 
z
" transform="scale(0.015625)"/>
     <path id="DejaVuSans-6c" d="M 603 4863 
L 1178 4863 
L 1178 0 
L 603 0 
L 603 4863 
z
" transform="scale(0.015625)"/>
     <path id="DejaVuSans-64" d="M 2906 2969 
L 2906 4863 
L 3481 4863 
L 3481 0 
L 2906 0 
L 2906 525 
Q 2725 213 2448 61 
Q 2172 -91 1784 -91 
Q 1150 -91 751 415 
Q 353 922 353 1747 
Q 353 2572 751 3078 
Q 1150 3584 1784 3584 
Q 2172 3584 2448 3432 
Q 2725 3281 2906 2969 
z
M 947 1747 
Q 947 1113 1208 752 
Q 1469 391 1925 391 
Q 2381 391 2643 752 
Q 2906 1113 2906 1747 
Q 2906 2381 2643 2742 
Q 2381 3103 1925 3103 
Q 1469 3103 1208 2742 
Q 947 2381 947 1747 
z
" transform="scale(0.015625)"/>
     <path id="DejaVuSans-63" d="M 3122 3366 
L 3122 2828 
Q 2878 2963 2633 3030 
Q 2388 3097 2138 3097 
Q 1578 3097 1268 2742 
Q 959 2388 959 1747 
Q 959 1106 1268 751 
Q 1578 397 2138 397 
Q 2388 397 2633 464 
Q 2878 531 3122 666 
L 3122 134 
Q 2881 22 2623 -34 
Q 2366 -91 2075 -91 
Q 1284 -91 818 406 
Q 353 903 353 1747 
Q 353 2603 823 3093 
Q 1294 3584 2113 3584 
Q 2378 3584 2631 3529 
Q 2884 3475 3122 3366 
z
" transform="scale(0.015625)"/>
     <path id="DejaVuSans-76" d="M 191 3500 
L 800 3500 
L 1894 563 
L 2988 3500 
L 3597 3500 
L 2284 0 
L 1503 0 
L 191 3500 
z
" transform="scale(0.015625)"/>
    </defs>
    <use xlink:href="#DejaVuSans-32"/>
    <use xlink:href="#DejaVuSans-2e" x="63.623047"/>
    <use xlink:href="#DejaVuSans-42" x="95.410156"/>
    <use xlink:href="#DejaVuSans-20" x="164.013672"/>
    <use xlink:href="#DejaVuSans-50" x="195.800781"/>
    <use xlink:href="#DejaVuSans-72" x="254.353516"/>
    <use xlink:href="#DejaVuSans-6f" x="293.216797"/>
    <use xlink:href="#DejaVuSans-62" x="354.398438"/>
    <use xlink:href="#DejaVuSans-6c" x="417.875"/>
    <use xlink:href="#DejaVuSans-65" x="445.658203"/>
    <use xlink:href="#DejaVuSans-6d" x="507.181641"/>
    <use xlink:href="#DejaVuSans-20" x="604.59375"/>
    <use xlink:href="#DejaVuSans-32" x="636.380859"/>
    <use xlink:href="#DejaVuSans-20" x="700.003906"/>
    <use xlink:href="#DejaVuSans-50" x="731.791016"/>
    <use xlink:href="#DejaVuSans-72" x="790.34375"/>
    <use xlink:href="#DejaVuSans-69" x="831.457031"/>
    <use xlink:href="#DejaVuSans-6f" x="859.240234"/>
    <use xlink:href="#DejaVuSans-72" x="920.421875"/>
    <use xlink:href="#DejaVuSans-20" x="961.535156"/>
    <use xlink:href="#DejaVuSans-50" x="993.322266"/>
    <use xlink:href="#DejaVuSans-72" x="1051.875"/>
    <use xlink:href="#DejaVuSans-65" x="1090.738281"/>
    <use xlink:href="#DejaVuSans-64" x="1152.261719"/>
    <use xlink:href="#DejaVuSans-69" x="1215.738281"/>
    <use xlink:href="#DejaVuSans-63" x="1243.521484"/>
    <use xlink:href="#DejaVuSans-74" x="1298.501953"/>
    <use xlink:href="#DejaVuSans-69" x="1337.710938"/>
    <use xlink:href="#DejaVuSans-76" x="1365.494141"/>
    <use xlink:href="#DejaVuSans-65" x="1424.673828"/>
   </g>
  </g>
 </g>
 <defs>
  <clipPath id="pb7e02b11d5">
   <rect x="59.14" y="33.96" width="478.94" height="87.175"/>
  </clipPath>
  <clipPath id="p7d2ed5b68a">
   <rect x="59.14" y="129.8525" width="478.94" height="87.175"/>
  </clipPath>
  <clipPath id="p129015d270">
   <rect x="59.14" y="225.745" width="478.94" height="87.175"/>
  </clipPath>
 </defs>
</svg>
