<?xml version="1.0" encoding="utf-8" standalone="no"?>
<!DOCTYPE svg PUBLIC "-//W3C//DTD SVG 1.1//EN"
  "http://www.w3.org/Graphics/SVG/1.1/DTD/svg11.dtd">
<svg xmlns:xlink="http://www.w3.org/1999/xlink" width="576pt" height="360pt" viewBox="0 0 576 360" xmlns="http://www.w3.org/2000/svg" version="1.1">
 <metadata>
  <rdf:RDF xmlns:dc="http://purl.org/dc/elements/1.1/" xmlns:cc="http://creativecommons.org/ns#" xmlns:rdf="http://www.w3.org/1999/02/22-rdf-syntax-ns#">
   <cc:Work>
    <dc:type rdf:resource="http://purl.org/dc/dcmitype/StillImage"/>
    <dc:date>2024-04-04T00:00:18.464718</dc:date>
    <dc:format>image/svg+xml</dc:format>
    <dc:creator>
     <cc:Agent>
      <dc:title>Matplotlib v3.8.3, https://matplotlib.org/</dc:title>
     </cc:Agent>
    </dc:creator>
   </cc:Work>
  </rdf:RDF>
 </metadata>
 <defs>
  <style type="text/css">*{stroke-linejoin: round; stroke-linecap: butt}</style>
 </defs>
 <g id="figure_1">
  <g id="patch_1">
   <path d="M 0 360 
L 576 360 
L 576 0 
L 0 0 
z
" style="fill: #ffffff"/>
  </g>
  <g id="axes_1">
   <g id="patch_2">
    <path d="M 59.14 121.135 
L 538.08 121.135 
L 538.08 33.96 
L 59.14 33.96 
z
" style="fill: #ffffff"/>
   </g>
   <g id="matplotlib.axis_1">
    <g id="xtick_1">
     <g id="line2d_1">
      <defs>
       <path id="ma173a2819a" d="M 0 0 
L 0 3.5 
" style="stroke: #000000; stroke-width: 0.8"/>
      </defs>
      <g>
       <use xlink:href="#ma173a2819a" x="80.91" y="121.135" style="stroke: #000000; stroke-width: 0.8"/>
      </g>
     </g>
    </g>
    <g id="xtick_2">
     <g id="line2d_2">
      <g>
       <use xlink:href="#ma173a2819a" x="153.476667" y="121.135" style="stroke: #000000; stroke-width: 0.8"/>
      </g>
     </g>
    </g>
    <g id="xtick_3">
     <g id="line2d_3">
      <g>
       <use xlink:href="#ma173a2819a" x="226.043333" y="121.135" style="stroke: #000000; stroke-width: 0.8"/>
      </g>
     </g>
    </g>
    <g id="xtick_4">
     <g id="line2d_4">
      <g>
       <use xlink:href="#ma173a2819a" x="298.61" y="121.135" style="stroke: #000000; stroke-width: 0.8"/>
      </g>
     </g>
    </g>
    <g id="xtick_5">
     <g id="line2d_5">
      <g>
       <use xlink:href="#ma173a2819a" x="371.176667" y="121.135" style="stroke: #000000; stroke-width: 0.8"/>
      </g>
     </g>
    </g>
    <g id="xtick_6">
     <g id="line2d_6">
      <g>
       <use xlink:href="#ma173a2819a" x="443.743333" y="121.135" style="stroke: #000000; stroke-width: 0.8"/>
      </g>
     </g>
    </g>
    <g id="xtick_7">
     <g id="line2d_7">
      <g>
       <use xlink:href="#ma173a2819a" x="516.31" y="121.135" style="stroke: #000000; stroke-width: 0.8"/>
      </g>
     </g>
    </g>
   </g>
   <g id="matplotlib.axis_2">
    <g id="ytick_1">
     <g id="line2d_8">
      <defs>
       <path id="mf38a12e1bb" d="M 0 0 
L -3.5 0 
" style="stroke: #000000; stroke-width: 0.8"/>
      </defs>
      <g>
       <use xlink:href="#mf38a12e1bb" x="59.14" y="121.135" style="stroke: #000000; stroke-width: 0.8"/>
      </g>
     </g>
     <g id="text_1">
      <!-- 0 -->
      <g transform="translate(45.7775 124.934219) scale(0.1 -0.1)">
       <defs>
        <path id="DejaVuSans-30" d="M 2034 4250 
Q 1547 4250 1301 3770 
Q 1056 3291 1056 2328 
Q 1056 1369 1301 889 
Q 1547 409 2034 409 
Q 2525 409 2770 889 
Q 3016 1369 3016 2328 
Q 3016 3291 2770 3770 
Q 2525 4250 2034 4250 
z
M 2034 4750 
Q 2819 4750 3233 4129 
Q 3647 3509 3647 2328 
Q 3647 1150 3233 529 
Q 2819 -91 2034 -91 
Q 1250 -91 836 529 
Q 422 1150 422 2328 
Q 422 3509 836 4129 
Q 1250 4750 2034 4750 
z
" transform="scale(0.015625)"/>
       </defs>
       <use xlink:href="#DejaVuSans-30"/>
      </g>
     </g>
    </g>
    <g id="ytick_2">
     <g id="line2d_9">
      <g>
       <use xlink:href="#mf38a12e1bb" x="59.14" y="99.34125" style="stroke: #000000; stroke-width: 0.8"/>
      </g>
     </g>
     <g id="text_2">
      <!-- 250 -->
      <g transform="translate(33.0525 103.140469) scale(0.1 -0.1)">
       <defs>
        <path id="DejaVuSans-32" d="M 1228 531 
L 3431 531 
L 3431 0 
L 469 0 
L 469 531 
Q 828 903 1448 1529 
Q 2069 2156 2228 2338 
Q 2531 2678 2651 2914 
Q 2772 3150 2772 3378 
Q 2772 3750 2511 3984 
Q 2250 4219 1831 4219 
Q 1534 4219 1204 4116 
Q 875 4013 500 3803 
L 500 4441 
Q 881 4594 1212 4672 
Q 1544 4750 1819 4750 
Q 2544 4750 2975 4387 
Q 3406 4025 3406 3419 
Q 3406 3131 3298 2873 
Q 3191 2616 2906 2266 
Q 2828 2175 2409 1742 
Q 1991 1309 1228 531 
z
" transform="scale(0.015625)"/>
        <path id="DejaVuSans-35" d="M 691 4666 
L 3169 4666 
L 3169 4134 
L 1269 4134 
L 1269 2991 
Q 1406 3038 1543 3061 
Q 1681 3084 1819 3084 
Q 2600 3084 3056 2656 
Q 3513 2228 3513 1497 
Q 3513 744 3044 326 
Q 2575 -91 1722 -91 
Q 1428 -91 1123 -41 
Q 819 9 494 109 
L 494 744 
Q 775 591 1075 516 
Q 1375 441 1709 441 
Q 2250 441 2565 725 
Q 2881 1009 2881 1497 
Q 2881 1984 2565 2268 
Q 2250 2553 1709 2553 
Q 1456 2553 1204 2497 
Q 953 2441 691 2322 
L 691 4666 
z
" transform="scale(0.015625)"/>
       </defs>
       <use xlink:href="#DejaVuSans-32"/>
       <use xlink:href="#DejaVuSans-35" x="63.623047"/>
       <use xlink:href="#DejaVuSans-30" x="127.246094"/>
      </g>
     </g>
    </g>
    <g id="ytick_3">
     <g id="line2d_10">
      <g>
       <use xlink:href="#mf38a12e1bb" x="59.14" y="77.5475" style="stroke: #000000; stroke-width: 0.8"/>
      </g>
     </g>
     <g id="text_3">
      <!-- 500 -->
      <g transform="translate(33.0525 81.346719) scale(0.1 -0.1)">
       <use xlink:href="#DejaVuSans-35"/>
       <use xlink:href="#DejaVuSans-30" x="63.623047"/>
       <use xlink:href="#DejaVuSans-30" x="127.246094"/>
      </g>
     </g>
    </g>
    <g id="ytick_4">
     <g id="line2d_11">
      <g>
       <use xlink:href="#mf38a12e1bb" x="59.14" y="55.75375" style="stroke: #000000; stroke-width: 0.8"/>
      </g>
     </g>
     <g id="text_4">
      <!-- 750 -->
      <g transform="translate(33.0525 59.552969) scale(0.1 -0.1)">
       <defs>
        <path id="DejaVuSans-37" d="M 525 4666 
L 3525 4666 
L 3525 4397 
L 1831 0 
L 1172 0 
L 2766 4134 
L 525 4134 
L 525 4666 
z
" transform="scale(0.015625)"/>
       </defs>
       <use xlink:href="#DejaVuSans-37"/>
       <use xlink:href="#DejaVuSans-35" x="63.623047"/>
       <use xlink:href="#DejaVuSans-30" x="127.246094"/>
      </g>
     </g>
    </g>
    <g id="ytick_5">
     <g id="line2d_12">
      <g>
       <use xlink:href="#mf38a12e1bb" x="59.14" y="33.96" style="stroke: #000000; stroke-width: 0.8"/>
      </g>
     </g>
     <g id="text_5">
      <!-- 1000 -->
      <g transform="translate(26.69 37.759219) scale(0.1 -0.1)">
       <defs>
        <path id="DejaVuSans-31" d="M 794 531 
L 1825 531 
L 1825 4091 
L 703 3866 
L 703 4441 
L 1819 4666 
L 2450 4666 
L 2450 531 
L 3481 531 
L 3481 0 
L 794 0 
L 794 531 
z
" transform="scale(0.015625)"/>
       </defs>
       <use xlink:href="#DejaVuSans-31"/>
       <use xlink:href="#DejaVuSans-30" x="63.623047"/>
       <use xlink:href="#DejaVuSans-30" x="127.246094"/>
       <use xlink:href="#DejaVuSans-30" x="190.869141"/>
      </g>
     </g>
    </g>
    <g id="text_6">
     <!-- S -->
     <g transform="translate(544.905781 85.145938) scale(0.1 -0.1)">
      <defs>
       <path id="DejaVuSans-53" d="M 3425 4513 
L 3425 3897 
Q 3066 4069 2747 4153 
Q 2428 4238 2131 4238 
Q 1616 4238 1336 4038 
Q 1056 3838 1056 3469 
Q 1056 3159 1242 3001 
Q 1428 2844 1947 2747 
L 2328 2669 
Q 3034 2534 3370 2195 
Q 3706 1856 3706 1288 
Q 3706 609 3251 259 
Q 2797 -91 1919 -91 
Q 1588 -91 1214 -16 
Q 841 59 441 206 
L 441 856 
Q 825 641 1194 531 
Q 1563 422 1919 422 
Q 2459 422 2753 634 
Q 3047 847 3047 1241 
Q 3047 1584 2836 1778 
Q 2625 1972 2144 2069 
L 1759 2144 
Q 1053 2284 737 2584 
Q 422 2884 422 3419 
Q 422 4038 858 4394 
Q 1294 4750 2059 4750 
Q 2388 4750 2728 4690 
Q 3069 4631 3425 4513 
z
" transform="scale(0.015625)"/>
      </defs>
      <use xlink:href="#DejaVuSans-53"/>
     </g>
    </g>
   </g>
   <g id="line2d_13">
    <path d="M 80.91 42.6775 
L 81.980831 45.245203 
L 83.051663 48.403844 
L 84.193883 52.483288 
L 85.407491 57.649958 
L 86.835266 64.724905 
L 88.976929 76.639907 
L 91.618313 91.107125 
L 93.188865 98.46256 
L 94.473863 103.470667 
L 95.687472 107.330189 
L 96.829692 110.259067 
L 97.971912 112.586403 
L 99.114132 114.410063 
L 100.256352 115.826062 
L 101.469961 116.971851 
L 102.754958 117.874242 
L 104.182733 118.602237 
L 105.824675 119.17834 
L 107.82356 119.628287 
L 110.322166 119.953846 
L 113.891604 120.173917 
L 119.674092 120.278041 
L 133.594899 120.242096 
L 210.266419 119.677196 
L 362.39585 118.529954 
L 449.632905 118.148478 
L 516.31 117.9988 
L 516.31 117.9988 
" clip-path="url(#p3f19b4a24b)" style="fill: none; stroke: #1f77b4; stroke-width: 1.5; stroke-linecap: square"/>
   </g>
   <g id="line2d_14">
    <path d="M 80.91 42.6775 
L 81.124166 57.672704 
L 81.766665 115.458345 
L 82.05222 119.945108 
L 82.337775 120.883353 
L 82.62333 121.069833 
L 83.337218 121.114375 
L 115.8191 121.121615 
L 138.877667 121.124821 
L 138.877667 121.124821 
" clip-path="url(#p3f19b4a24b)" style="fill: none; stroke: #808080; stroke-opacity: 0.5; stroke-width: 1.5; stroke-linecap: square"/>
   </g>
   <g id="line2d_15">
    <path d="M 80.91 42.6775 
L 81.124166 34.28309 
L 81.338333 33.966724 
L 82.480553 33.955486 
L 304.428183 33.8294 
L 375.174437 33.578259 
L 419.863796 33.208337 
L 452.77401 32.722006 
L 478.902294 32.12025 
L 500.533086 31.406208 
L 516.31 30.716099 
L 516.31 30.716099 
" clip-path="url(#p3f19b4a24b)" style="fill: none; stroke: #808080; stroke-opacity: 0.5; stroke-width: 1.5; stroke-linecap: square"/>
   </g>
   <g id="line2d_16">
    <path d="M 80.91 42.6775 
L 81.195555 52.669649 
L 81.623888 78.734689 
L 82.123609 106.958292 
L 82.480553 116.069782 
L 82.837496 119.533634 
L 83.123051 120.573257 
L 83.479995 121.062406 
L 83.908328 121.237633 
L 84.836381 121.295461 
L 97.614968 121.294707 
L 303.071797 121.217126 
L 303.071797 121.217126 
" clip-path="url(#p3f19b4a24b)" style="fill: none; stroke: #808080; stroke-opacity: 0.5; stroke-width: 1.5; stroke-linecap: square"/>
   </g>
   <g id="line2d_17">
    <path d="M 80.91 42.6775 
L 81.195555 36.983321 
L 81.48111 34.931335 
L 81.766665 34.236337 
L 82.123609 33.978625 
L 82.766108 33.900713 
L 87.691931 33.899598 
L 234.609984 33.956249 
L 516.31 33.959982 
L 516.31 33.959982 
" clip-path="url(#p3f19b4a24b)" style="fill: none; stroke: #808080; stroke-opacity: 0.5; stroke-width: 1.5; stroke-linecap: square"/>
   </g>
   <g id="line2d_18">
    <path d="M 80.91 42.6775 
L 81.338333 37.72219 
L 81.695276 35.775096 
L 82.05222 34.826763 
L 82.480553 34.314628 
L 82.980274 34.084692 
L 83.836939 33.981211 
L 87.049433 33.960817 
L 271.089636 34.067111 
L 314.708164 34.302586 
L 341.336168 34.656662 
L 360.68252 35.126755 
L 375.959713 35.713202 
L 388.595522 36.415314 
L 399.375224 37.232618 
L 408.72715 38.159092 
L 417.079634 39.20621 
L 424.575453 40.366472 
L 431.428774 41.6505 
L 437.710984 43.052407 
L 443.493473 44.567628 
L 448.919018 46.21817 
L 453.987619 47.991397 
L 458.770666 49.899348 
L 463.268157 51.92944 
L 467.551482 54.102775 
L 471.69203 56.453199 
L 475.618411 58.93491 
L 479.402015 61.585096 
L 483.11423 64.458413 
L 486.683668 67.502689 
L 490.181717 70.780704 
L 493.608377 74.302228 
L 496.963648 78.076523 
L 500.247531 82.112213 
L 503.460025 86.417165 
L 506.60113 90.998352 
L 509.742235 95.979623 
L 512.811951 101.267718 
L 515.881667 107.0067 
L 516.31 107.845476 
L 516.31 107.845476 
" clip-path="url(#p3f19b4a24b)" style="fill: none; stroke: #808080; stroke-opacity: 0.5; stroke-width: 1.5; stroke-linecap: square"/>
   </g>
   <g id="line2d_19">
    <path d="M 80.91 42.6775 
L 81.338333 49.263498 
L 81.838054 61.198264 
L 83.622773 110.183917 
L 84.122494 115.831691 
L 84.550826 118.496099 
L 84.979159 119.974313 
L 85.407491 120.775674 
L 85.907213 121.257149 
L 86.549711 121.532283 
L 87.549154 121.672385 
L 90.261927 121.729936 
L 128.811853 122.151921 
L 144.874322 122.550578 
L 155.439857 123.013995 
L 163.221231 123.571073 
L 168.932332 124.190494 
L 173.5726 124.909636 
L 177.427593 125.732305 
L 180.640087 126.632716 
L 183.567026 127.683803 
L 186.351187 128.910635 
L 188.921182 130.291107 
L 191.562566 131.965769 
L 194.20395 133.904133 
L 197.130889 136.336852 
L 200.48616 139.43179 
L 204.555319 143.505291 
L 209.481143 148.75996 
L 214.906688 154.872626 
L 220.403622 161.401823 
L 225.829167 168.192115 
L 231.183323 175.247674 
L 236.53748 182.67409 
L 241.820248 190.383977 
L 247.031626 198.381229 
L 252.243005 206.787344 
L 253.242448 208.447929 
L 253.242448 208.447929 
" clip-path="url(#p3f19b4a24b)" style="fill: none; stroke: #808080; stroke-opacity: 0.5; stroke-width: 1.5; stroke-linecap: square"/>
   </g>
   <g id="line2d_20">
    <path d="M 80.91 42.6775 
L 81.266944 37.19201 
L 81.623888 35.122982 
L 81.980831 34.386715 
L 82.337775 34.129816 
L 82.908885 34.018475 
L 84.90777 33.993011 
L 339.622838 33.961626 
L 516.31 33.960202 
L 516.31 33.960202 
" clip-path="url(#p3f19b4a24b)" style="fill: none; stroke: #808080; stroke-opacity: 0.5; stroke-width: 1.5; stroke-linecap: square"/>
   </g>
   <g id="line2d_21">
    <path d="M 80.91 42.6775 
L 81.195555 120.901603 
L 81.338333 121.183148 
L 83.051663 121.18838 
L 179.140923 121.161879 
L 179.140923 121.161879 
" clip-path="url(#p3f19b4a24b)" style="fill: none; stroke: #808080; stroke-opacity: 0.5; stroke-width: 1.5; stroke-linecap: square"/>
   </g>
   <g id="line2d_22">
    <path d="M 80.91 42.6775 
L 81.124166 73.539085 
L 81.409721 114.449152 
L 81.623888 120.116569 
L 81.838054 120.94164 
L 82.123609 121.063639 
L 83.979716 121.070978 
L 516.31 120.913929 
L 516.31 120.913929 
" clip-path="url(#p3f19b4a24b)" style="fill: none; stroke: #808080; stroke-opacity: 0.5; stroke-width: 1.5; stroke-linecap: square"/>
   </g>
   <g id="line2d_23">
    <path d="M 80.91 42.6775 
L 81.124166 120.191143 
L 81.266944 121.059796 
L 82.194998 121.069016 
L 265.021592 121.048438 
L 516.31 121.048341 
L 516.31 121.048341 
" clip-path="url(#p3f19b4a24b)" style="fill: none; stroke: #808080; stroke-opacity: 0.5; stroke-width: 1.5; stroke-linecap: square"/>
   </g>
   <g id="patch_3">
    <path d="M 59.14 121.135 
L 59.14 33.96 
" style="fill: none; stroke: #000000; stroke-width: 0.8; stroke-linejoin: miter; stroke-linecap: square"/>
   </g>
   <g id="patch_4">
    <path d="M 538.08 121.135 
L 538.08 33.96 
" style="fill: none; stroke: #000000; stroke-width: 0.8; stroke-linejoin: miter; stroke-linecap: square"/>
   </g>
   <g id="patch_5">
    <path d="M 59.14 121.135 
L 538.08 121.135 
" style="fill: none; stroke: #000000; stroke-width: 0.8; stroke-linejoin: miter; stroke-linecap: square"/>
   </g>
   <g id="patch_6">
    <path d="M 59.14 33.96 
L 538.08 33.96 
" style="fill: none; stroke: #000000; stroke-width: 0.8; stroke-linejoin: miter; stroke-linecap: square"/>
   </g>
   <g id="legend_1">
    <g id="patch_7">
     <path d="M 477.845625 56.638125 
L 531.08 56.638125 
Q 533.08 56.638125 533.08 54.638125 
L 533.08 40.96 
Q 533.08 38.96 531.08 38.96 
L 477.845625 38.96 
Q 475.845625 38.96 475.845625 40.96 
L 475.845625 54.638125 
Q 475.845625 56.638125 477.845625 56.638125 
z
" style="fill: #ffffff; opacity: 0.8; stroke: #cccccc; stroke-linejoin: miter"/>
    </g>
    <g id="line2d_24">
     <path d="M 479.845625 47.058438 
L 489.845625 47.058438 
L 499.845625 47.058438 
" style="fill: none; stroke: #1f77b4; stroke-width: 1.5; stroke-linecap: square"/>
    </g>
    <g id="text_7">
     <!-- True -->
     <g transform="translate(507.845625 50.558438) scale(0.1 -0.1)">
      <defs>
       <path id="DejaVuSans-54" d="M -19 4666 
L 3928 4666 
L 3928 4134 
L 2272 4134 
L 2272 0 
L 1638 0 
L 1638 4134 
L -19 4134 
L -19 4666 
z
" transform="scale(0.015625)"/>
       <path id="DejaVuSans-72" d="M 2631 2963 
Q 2534 3019 2420 3045 
Q 2306 3072 2169 3072 
Q 1681 3072 1420 2755 
Q 1159 2438 1159 1844 
L 1159 0 
L 581 0 
L 581 3500 
L 1159 3500 
L 1159 2956 
Q 1341 3275 1631 3429 
Q 1922 3584 2338 3584 
Q 2397 3584 2469 3576 
Q 2541 3569 2628 3553 
L 2631 2963 
z
" transform="scale(0.015625)"/>
       <path id="DejaVuSans-75" d="M 544 1381 
L 544 3500 
L 1119 3500 
L 1119 1403 
Q 1119 906 1312 657 
Q 1506 409 1894 409 
Q 2359 409 2629 706 
Q 2900 1003 2900 1516 
L 2900 3500 
L 3475 3500 
L 3475 0 
L 2900 0 
L 2900 538 
Q 2691 219 2414 64 
Q 2138 -91 1772 -91 
Q 1169 -91 856 284 
Q 544 659 544 1381 
z
M 1991 3584 
L 1991 3584 
z
" transform="scale(0.015625)"/>
       <path id="DejaVuSans-65" d="M 3597 1894 
L 3597 1613 
L 953 1613 
Q 991 1019 1311 708 
Q 1631 397 2203 397 
Q 2534 397 2845 478 
Q 3156 559 3463 722 
L 3463 178 
Q 3153 47 2828 -22 
Q 2503 -91 2169 -91 
Q 1331 -91 842 396 
Q 353 884 353 1716 
Q 353 2575 817 3079 
Q 1281 3584 2069 3584 
Q 2775 3584 3186 3129 
Q 3597 2675 3597 1894 
z
M 3022 2063 
Q 3016 2534 2758 2815 
Q 2500 3097 2075 3097 
Q 1594 3097 1305 2825 
Q 1016 2553 972 2059 
L 3022 2063 
z
" transform="scale(0.015625)"/>
      </defs>
      <use xlink:href="#DejaVuSans-54"/>
      <use xlink:href="#DejaVuSans-72" x="46.333984"/>
      <use xlink:href="#DejaVuSans-75" x="87.447266"/>
      <use xlink:href="#DejaVuSans-65" x="150.826172"/>
     </g>
    </g>
   </g>
  </g>
  <g id="axes_2">
   <g id="patch_8">
    <path d="M 59.14 217.0275 
L 538.08 217.0275 
L 538.08 129.8525 
L 59.14 129.8525 
z
" style="fill: #ffffff"/>
   </g>
   <g id="PathCollection_1">
    <defs>
     <path id="m1c589202f5" d="M 0 1.581139 
C 0.419323 1.581139 0.821528 1.41454 1.118034 1.118034 
C 1.41454 0.821528 1.581139 0.419323 1.581139 0 
C 1.581139 -0.419323 1.41454 -0.821528 1.118034 -1.118034 
C 0.821528 -1.41454 0.419323 -1.581139 0 -1.581139 
C -0.419323 -1.581139 -0.821528 -1.41454 -1.118034 -1.118034 
C -1.41454 -0.821528 -1.581139 -0.419323 -1.581139 0 
C -1.581139 0.419323 -1.41454 0.821528 -1.118034 1.118034 
C -0.821528 1.41454 -0.419323 1.581139 0 1.581139 
z
" style="stroke: #000000"/>
    </defs>
    <g clip-path="url(#p4c8b90f3ff)">
     <use xlink:href="#m1c589202f5" x="80.91" y="200.513816" style="stroke: #000000"/>
     <use xlink:href="#m1c589202f5" x="88.048875" y="178.917737" style="stroke: #000000"/>
     <use xlink:href="#m1c589202f5" x="95.18775" y="149.053178" style="stroke: #000000"/>
     <use xlink:href="#m1c589202f5" x="102.326626" y="150.035157" style="stroke: #000000"/>
     <use xlink:href="#m1c589202f5" x="109.465501" y="145.096309" style="stroke: #000000"/>
     <use xlink:href="#m1c589202f5" x="116.604376" y="149.047687" style="stroke: #000000"/>
     <use xlink:href="#m1c589202f5" x="123.743251" y="151.541736" style="stroke: #000000"/>
     <use xlink:href="#m1c589202f5" x="130.882127" y="157.396024" style="stroke: #000000"/>
     <use xlink:href="#m1c589202f5" x="138.021002" y="158.103494" style="stroke: #000000"/>
     <use xlink:href="#m1c589202f5" x="145.159877" y="163.01561" style="stroke: #000000"/>
     <use xlink:href="#m1c589202f5" x="152.298752" y="169.47293" style="stroke: #000000"/>
     <use xlink:href="#m1c589202f5" x="159.437627" y="162.503767" style="stroke: #000000"/>
     <use xlink:href="#m1c589202f5" x="166.576503" y="164.947225" style="stroke: #000000"/>
     <use xlink:href="#m1c589202f5" x="173.715378" y="163.595324" style="stroke: #000000"/>
     <use xlink:href="#m1c589202f5" x="180.854253" y="172.929252" style="stroke: #000000"/>
     <use xlink:href="#m1c589202f5" x="187.993128" y="176.862116" style="stroke: #000000"/>
     <use xlink:href="#m1c589202f5" x="195.132004" y="179.291305" style="stroke: #000000"/>
     <use xlink:href="#m1c589202f5" x="202.270879" y="185.341597" style="stroke: #000000"/>
     <use xlink:href="#m1c589202f5" x="209.409754" y="175.887418" style="stroke: #000000"/>
     <use xlink:href="#m1c589202f5" x="216.548629" y="186.428395" style="stroke: #000000"/>
     <use xlink:href="#m1c589202f5" x="223.687505" y="188.14937" style="stroke: #000000"/>
     <use xlink:href="#m1c589202f5" x="230.82638" y="185.140984" style="stroke: #000000"/>
     <use xlink:href="#m1c589202f5" x="237.965255" y="178.940183" style="stroke: #000000"/>
     <use xlink:href="#m1c589202f5" x="245.10413" y="185.474726" style="stroke: #000000"/>
     <use xlink:href="#m1c589202f5" x="252.243005" y="191.981053" style="stroke: #000000"/>
     <use xlink:href="#m1c589202f5" x="259.381881" y="191.568846" style="stroke: #000000"/>
     <use xlink:href="#m1c589202f5" x="266.520756" y="186.610764" style="stroke: #000000"/>
     <use xlink:href="#m1c589202f5" x="273.659631" y="190.847284" style="stroke: #000000"/>
     <use xlink:href="#m1c589202f5" x="280.798506" y="194.254129" style="stroke: #000000"/>
     <use xlink:href="#m1c589202f5" x="287.937382" y="192.608487" style="stroke: #000000"/>
     <use xlink:href="#m1c589202f5" x="295.076257" y="189.009653" style="stroke: #000000"/>
     <use xlink:href="#m1c589202f5" x="302.215132" y="184.247554" style="stroke: #000000"/>
     <use xlink:href="#m1c589202f5" x="309.354007" y="198.845353" style="stroke: #000000"/>
     <use xlink:href="#m1c589202f5" x="316.492882" y="196.675415" style="stroke: #000000"/>
     <use xlink:href="#m1c589202f5" x="323.631758" y="197.93256" style="stroke: #000000"/>
     <use xlink:href="#m1c589202f5" x="330.770633" y="205.420681" style="stroke: #000000"/>
     <use xlink:href="#m1c589202f5" x="337.909508" y="199.31823" style="stroke: #000000"/>
     <use xlink:href="#m1c589202f5" x="345.048383" y="200.140528" style="stroke: #000000"/>
     <use xlink:href="#m1c589202f5" x="352.187259" y="191.137101" style="stroke: #000000"/>
     <use xlink:href="#m1c589202f5" x="359.326134" y="196.942291" style="stroke: #000000"/>
     <use xlink:href="#m1c589202f5" x="366.465009" y="203.747937" style="stroke: #000000"/>
     <use xlink:href="#m1c589202f5" x="373.603884" y="194.136372" style="stroke: #000000"/>
     <use xlink:href="#m1c589202f5" x="380.742759" y="198.770425" style="stroke: #000000"/>
     <use xlink:href="#m1c589202f5" x="387.881635" y="205.059064" style="stroke: #000000"/>
     <use xlink:href="#m1c589202f5" x="395.02051" y="200.286879" style="stroke: #000000"/>
     <use xlink:href="#m1c589202f5" x="402.159385" y="200.458163" style="stroke: #000000"/>
     <use xlink:href="#m1c589202f5" x="409.29826" y="201.891637" style="stroke: #000000"/>
     <use xlink:href="#m1c589202f5" x="416.437136" y="198.128825" style="stroke: #000000"/>
     <use xlink:href="#m1c589202f5" x="423.576011" y="208.220913" style="stroke: #000000"/>
     <use xlink:href="#m1c589202f5" x="430.714886" y="199.739484" style="stroke: #000000"/>
     <use xlink:href="#m1c589202f5" x="437.853761" y="194.2955" style="stroke: #000000"/>
     <use xlink:href="#m1c589202f5" x="444.992636" y="195.121829" style="stroke: #000000"/>
     <use xlink:href="#m1c589202f5" x="452.131512" y="194.124851" style="stroke: #000000"/>
     <use xlink:href="#m1c589202f5" x="459.270387" y="194.182938" style="stroke: #000000"/>
     <use xlink:href="#m1c589202f5" x="466.409262" y="192.677098" style="stroke: #000000"/>
     <use xlink:href="#m1c589202f5" x="473.548137" y="204.126912" style="stroke: #000000"/>
     <use xlink:href="#m1c589202f5" x="480.687013" y="195.650523" style="stroke: #000000"/>
     <use xlink:href="#m1c589202f5" x="487.825888" y="207.526478" style="stroke: #000000"/>
     <use xlink:href="#m1c589202f5" x="494.964763" y="202.114097" style="stroke: #000000"/>
     <use xlink:href="#m1c589202f5" x="502.103638" y="207.895374" style="stroke: #000000"/>
     <use xlink:href="#m1c589202f5" x="509.242514" y="195.041226" style="stroke: #000000"/>
    </g>
   </g>
   <g id="matplotlib.axis_3">
    <g id="xtick_8">
     <g id="line2d_25">
      <g>
       <use xlink:href="#ma173a2819a" x="80.91" y="217.0275" style="stroke: #000000; stroke-width: 0.8"/>
      </g>
     </g>
    </g>
    <g id="xtick_9">
     <g id="line2d_26">
      <g>
       <use xlink:href="#ma173a2819a" x="153.476667" y="217.0275" style="stroke: #000000; stroke-width: 0.8"/>
      </g>
     </g>
    </g>
    <g id="xtick_10">
     <g id="line2d_27">
      <g>
       <use xlink:href="#ma173a2819a" x="226.043333" y="217.0275" style="stroke: #000000; stroke-width: 0.8"/>
      </g>
     </g>
    </g>
    <g id="xtick_11">
     <g id="line2d_28">
      <g>
       <use xlink:href="#ma173a2819a" x="298.61" y="217.0275" style="stroke: #000000; stroke-width: 0.8"/>
      </g>
     </g>
    </g>
    <g id="xtick_12">
     <g id="line2d_29">
      <g>
       <use xlink:href="#ma173a2819a" x="371.176667" y="217.0275" style="stroke: #000000; stroke-width: 0.8"/>
      </g>
     </g>
    </g>
    <g id="xtick_13">
     <g id="line2d_30">
      <g>
       <use xlink:href="#ma173a2819a" x="443.743333" y="217.0275" style="stroke: #000000; stroke-width: 0.8"/>
      </g>
     </g>
    </g>
    <g id="xtick_14">
     <g id="line2d_31">
      <g>
       <use xlink:href="#ma173a2819a" x="516.31" y="217.0275" style="stroke: #000000; stroke-width: 0.8"/>
      </g>
     </g>
    </g>
   </g>
   <g id="matplotlib.axis_4">
    <g id="ytick_6">
     <g id="line2d_32">
      <g>
       <use xlink:href="#mf38a12e1bb" x="59.14" y="217.0275" style="stroke: #000000; stroke-width: 0.8"/>
      </g>
     </g>
     <g id="text_8">
      <!-- 0 -->
      <g transform="translate(45.7775 220.826719) scale(0.1 -0.1)">
       <use xlink:href="#DejaVuSans-30"/>
      </g>
     </g>
    </g>
    <g id="ytick_7">
     <g id="line2d_33">
      <g>
       <use xlink:href="#mf38a12e1bb" x="59.14" y="195.23375" style="stroke: #000000; stroke-width: 0.8"/>
      </g>
     </g>
     <g id="text_9">
      <!-- 250 -->
      <g transform="translate(33.0525 199.032969) scale(0.1 -0.1)">
       <use xlink:href="#DejaVuSans-32"/>
       <use xlink:href="#DejaVuSans-35" x="63.623047"/>
       <use xlink:href="#DejaVuSans-30" x="127.246094"/>
      </g>
     </g>
    </g>
    <g id="ytick_8">
     <g id="line2d_34">
      <g>
       <use xlink:href="#mf38a12e1bb" x="59.14" y="173.44" style="stroke: #000000; stroke-width: 0.8"/>
      </g>
     </g>
     <g id="text_10">
      <!-- 500 -->
      <g transform="translate(33.0525 177.239219) scale(0.1 -0.1)">
       <use xlink:href="#DejaVuSans-35"/>
       <use xlink:href="#DejaVuSans-30" x="63.623047"/>
       <use xlink:href="#DejaVuSans-30" x="127.246094"/>
      </g>
     </g>
    </g>
    <g id="ytick_9">
     <g id="line2d_35">
      <g>
       <use xlink:href="#mf38a12e1bb" x="59.14" y="151.64625" style="stroke: #000000; stroke-width: 0.8"/>
      </g>
     </g>
     <g id="text_11">
      <!-- 750 -->
      <g transform="translate(33.0525 155.445469) scale(0.1 -0.1)">
       <use xlink:href="#DejaVuSans-37"/>
       <use xlink:href="#DejaVuSans-35" x="63.623047"/>
       <use xlink:href="#DejaVuSans-30" x="127.246094"/>
      </g>
     </g>
    </g>
    <g id="ytick_10">
     <g id="line2d_36">
      <g>
       <use xlink:href="#mf38a12e1bb" x="59.14" y="129.8525" style="stroke: #000000; stroke-width: 0.8"/>
      </g>
     </g>
     <g id="text_12">
      <!-- 1000 -->
      <g transform="translate(26.69 133.651719) scale(0.1 -0.1)">
       <use xlink:href="#DejaVuSans-31"/>
       <use xlink:href="#DejaVuSans-30" x="63.623047"/>
       <use xlink:href="#DejaVuSans-30" x="127.246094"/>
       <use xlink:href="#DejaVuSans-30" x="190.869141"/>
      </g>
     </g>
    </g>
    <g id="text_13">
     <!-- I -->
     <g transform="translate(546.605 181.038437) scale(0.1 -0.1)">
      <defs>
       <path id="DejaVuSans-49" d="M 628 4666 
L 1259 4666 
L 1259 0 
L 628 0 
L 628 4666 
z
" transform="scale(0.015625)"/>
      </defs>
      <use xlink:href="#DejaVuSans-49"/>
     </g>
    </g>
   </g>
   <g id="line2d_37">
    <path d="M 80.91 208.31 
L 81.980831 205.829973 
L 83.051663 202.783199 
L 84.193883 198.855536 
L 85.47888 193.578354 
L 86.978044 186.408305 
L 89.619428 172.408431 
L 91.618313 162.409753 
L 93.046088 156.342463 
L 94.259697 152.1079 
L 95.330528 149.112636 
L 96.401359 146.756881 
L 97.400802 145.077675 
L 98.400244 143.834278 
L 99.399687 142.954093 
L 100.399129 142.374734 
L 101.398572 142.042623 
L 102.540792 141.903076 
L 103.825789 141.976255 
L 105.324953 142.289935 
L 107.25245 142.939163 
L 109.822445 144.053772 
L 114.034381 146.160639 
L 128.240743 153.401829 
L 135.593784 156.833742 
L 142.946826 160.021571 
L 150.585422 163.090356 
L 158.509574 166.030411 
L 166.647891 168.812064 
L 175.214542 171.500961 
L 183.92397 174.003508 
L 193.204507 176.436758 
L 202.699211 178.698188 
L 212.907803 180.897949 
L 223.401949 182.931734 
L 234.752761 184.90055 
L 246.389128 186.694074 
L 259.096326 188.424686 
L 272.231856 189.990012 
L 286.723773 191.489988 
L 301.786799 192.825932 
L 318.634545 194.094309 
L 336.338956 195.202899 
L 356.470584 196.238215 
L 378.244153 197.127858 
L 402.873273 197.912321 
L 431.571551 198.589719 
L 463.482323 199.121316 
L 503.959746 199.566539 
L 516.31 199.663646 
L 516.31 199.663646 
" clip-path="url(#p4c8b90f3ff)" style="fill: none; stroke: #1f77b4; stroke-width: 1.5; stroke-linecap: square"/>
   </g>
   <g id="line2d_38">
    <path d="M 80.91 208.31 
L 81.124166 193.274139 
L 81.766665 135.025776 
L 82.05222 130.237427 
L 82.337775 128.988484 
L 82.766108 128.306169 
L 85.193325 125.574028 
L 90.333315 119.582723 
L 95.401917 113.329622 
L 100.399129 106.809756 
L 105.324953 100.018477 
L 110.250777 92.844742 
L 115.105212 85.379933 
L 119.888259 77.619975 
L 124.671305 69.436077 
L 129.454352 60.805044 
L 134.166009 51.841885 
L 138.877667 42.396528 
L 138.877667 42.396528 
" clip-path="url(#p4c8b90f3ff)" style="fill: none; stroke: #808080; stroke-opacity: 0.5; stroke-width: 1.5; stroke-linecap: square"/>
   </g>
   <g id="line2d_39">
    <path d="M 80.91 208.31 
L 81.124166 216.700145 
L 81.338333 217.016345 
L 82.480553 217.0275 
L 516.31 217.0275 
L 516.31 217.0275 
" clip-path="url(#p4c8b90f3ff)" style="fill: none; stroke: #808080; stroke-opacity: 0.5; stroke-width: 1.5; stroke-linecap: square"/>
   </g>
   <g id="line2d_40">
    <path d="M 80.91 208.31 
L 81.195555 198.311353 
L 81.623888 172.223467 
L 82.123609 143.947781 
L 82.480553 134.787905 
L 82.837496 131.271891 
L 83.19444 130.033389 
L 83.551384 129.587807 
L 84.051105 129.361449 
L 85.407491 129.114403 
L 100.113574 126.707669 
L 112.820772 124.398928 
L 125.813525 121.793721 
L 137.664058 119.180791 
L 148.729315 116.517057 
L 159.223461 113.773254 
L 169.57483 110.842089 
L 179.926199 107.668782 
L 189.63507 104.455071 
L 199.34394 100.992899 
L 208.695867 97.40552 
L 217.762238 93.673469 
L 226.543055 89.803249 
L 235.109705 85.767947 
L 243.3908 81.607167 
L 251.457729 77.292046 
L 259.239103 72.869228 
L 266.806311 68.307699 
L 274.159352 63.614608 
L 281.298228 58.798185 
L 288.222937 53.867729 
L 295.076257 48.723639 
L 302.000966 43.244242 
L 303.071797 42.370777 
L 303.071797 42.370777 
" clip-path="url(#p4c8b90f3ff)" style="fill: none; stroke: #808080; stroke-opacity: 0.5; stroke-width: 1.5; stroke-linecap: square"/>
   </g>
   <g id="line2d_41">
    <path d="M 80.91 208.31 
L 81.195555 213.959219 
L 81.48111 215.995987 
L 81.766665 216.686153 
L 82.123609 216.9424 
L 82.766108 217.020538 
L 87.691931 217.0275 
L 516.31 217.0275 
L 516.31 217.0275 
" clip-path="url(#p4c8b90f3ff)" style="fill: none; stroke: #808080; stroke-opacity: 0.5; stroke-width: 1.5; stroke-linecap: square"/>
   </g>
   <g id="line2d_42">
    <path d="M 80.91 208.31 
L 81.338333 213.265709 
L 81.695276 215.212958 
L 82.05222 216.161368 
L 82.480553 216.673549 
L 82.980274 216.90351 
L 83.836939 217.007015 
L 87.049433 217.027476 
L 516.31 217.0275 
L 516.31 217.0275 
" clip-path="url(#p4c8b90f3ff)" style="fill: none; stroke: #808080; stroke-opacity: 0.5; stroke-width: 1.5; stroke-linecap: square"/>
   </g>
   <g id="line2d_43">
    <path d="M 80.91 208.31 
L 81.338333 201.775962 
L 81.838054 189.948846 
L 83.551384 143.017237 
L 83.979716 137.88327 
L 84.408049 135.023767 
L 84.836381 133.594216 
L 85.193325 133.052963 
L 85.550269 132.856848 
L 85.978601 132.890064 
L 86.6211 133.220415 
L 87.76332 134.116036 
L 92.189423 138.044259 
L 112.106885 155.671442 
L 129.52574 170.807636 
L 145.302655 184.220287 
L 156.653466 193.588381 
L 165.220116 200.374959 
L 171.28816 204.910915 
L 175.928429 208.124693 
L 179.926199 210.638139 
L 183.210082 212.440883 
L 186.279798 213.884813 
L 188.992571 214.91478 
L 191.776732 215.728642 
L 194.489505 216.287636 
L 197.487832 216.675072 
L 201.128659 216.908474 
L 206.696981 217.012888 
L 227.185553 217.0275 
L 253.242448 217.0275 
L 253.242448 217.0275 
" clip-path="url(#p4c8b90f3ff)" style="fill: none; stroke: #808080; stroke-opacity: 0.5; stroke-width: 1.5; stroke-linecap: square"/>
   </g>
   <g id="line2d_44">
    <path d="M 80.91 208.31 
L 81.266944 213.817586 
L 81.623888 215.894478 
L 81.980831 216.633405 
L 82.337775 216.891133 
L 82.908885 217.002665 
L 84.90777 217.027436 
L 516.31 217.0275 
L 516.31 217.0275 
" clip-path="url(#p4c8b90f3ff)" style="fill: none; stroke: #808080; stroke-opacity: 0.5; stroke-width: 1.5; stroke-linecap: square"/>
   </g>
   <g id="line2d_45">
    <path d="M 80.91 208.31 
L 81.195555 130.029089 
L 81.338333 129.707399 
L 83.337218 129.127336 
L 89.333873 127.257275 
L 94.973584 125.278584 
L 100.327741 123.178826 
L 105.396342 120.969738 
L 110.393555 118.557929 
L 115.24799 115.969032 
L 119.888259 113.244627 
L 124.457139 110.299603 
L 128.811853 107.227113 
L 133.023789 103.985882 
L 137.092948 100.580567 
L 141.162107 96.882416 
L 145.088488 93.012877 
L 148.872092 88.98117 
L 152.727085 84.542725 
L 156.4393 79.928042 
L 160.151515 74.952682 
L 163.792341 69.695665 
L 167.361779 64.151041 
L 170.931217 58.19047 
L 174.429265 51.915432 
L 177.927314 45.179312 
L 179.140923 42.728468 
L 179.140923 42.728468 
" clip-path="url(#p4c8b90f3ff)" style="fill: none; stroke: #808080; stroke-opacity: 0.5; stroke-width: 1.5; stroke-linecap: square"/>
   </g>
   <g id="line2d_46">
    <path d="M 80.91 208.31 
L 81.124166 177.528383 
L 81.409721 136.93283 
L 81.623888 131.574058 
L 81.838054 131.065432 
L 82.05222 131.268224 
L 84.622215 134.92566 
L 88.048875 139.488527 
L 91.546924 143.777136 
L 95.116362 147.799471 
L 98.685799 151.493358 
L 102.398014 155.015599 
L 106.181618 158.298386 
L 110.036611 161.351976 
L 113.962992 164.186361 
L 118.032151 166.85659 
L 122.244088 169.360581 
L 126.741579 171.770953 
L 131.453237 174.033075 
L 136.307672 176.112358 
L 141.376273 178.041381 
L 146.873207 179.88547 
L 152.584307 181.56148 
L 158.580962 183.091697 
L 165.077339 184.520093 
L 172.216214 185.854186 
L 179.854811 187.050306 
L 188.350072 188.147687 
L 197.416444 189.097345 
L 207.268091 189.919916 
L 218.404737 190.643631 
L 232.968042 191.340568 
L 247.888292 191.842362 
L 267.948531 192.28747 
L 298.645694 192.662069 
L 332.769518 192.854349 
L 392.878847 192.969897 
L 516.31 193.00403 
L 516.31 193.00403 
" clip-path="url(#p4c8b90f3ff)" style="fill: none; stroke: #808080; stroke-opacity: 0.5; stroke-width: 1.5; stroke-linecap: square"/>
   </g>
   <g id="line2d_47">
    <path d="M 80.91 208.31 
L 81.124166 130.891804 
L 81.266944 130.118622 
L 82.480553 130.9056 
L 86.121379 133.121116 
L 89.976372 135.205832 
L 94.04553 137.148356 
L 98.400244 138.96898 
L 102.969124 140.628862 
L 107.680782 142.107815 
L 112.535217 143.418788 
L 118.460484 144.769346 
L 124.457139 145.902341 
L 131.381848 146.970134 
L 138.449334 147.84442 
L 145.873765 148.575661 
L 154.940136 149.265001 
L 165.220116 149.841763 
L 175.999818 150.276118 
L 192.347842 150.708312 
L 213.978634 151.02531 
L 250.029954 151.245493 
L 355.471141 151.34587 
L 434.998211 151.349181 
L 479.045071 151.349562 
L 516.31 151.349586 
L 516.31 151.349586 
" clip-path="url(#p4c8b90f3ff)" style="fill: none; stroke: #808080; stroke-opacity: 0.5; stroke-width: 1.5; stroke-linecap: square"/>
   </g>
   <g id="patch_9">
    <path d="M 59.14 217.0275 
L 59.14 129.8525 
" style="fill: none; stroke: #000000; stroke-width: 0.8; stroke-linejoin: miter; stroke-linecap: square"/>
   </g>
   <g id="patch_10">
    <path d="M 538.08 217.0275 
L 538.08 129.8525 
" style="fill: none; stroke: #000000; stroke-width: 0.8; stroke-linejoin: miter; stroke-linecap: square"/>
   </g>
   <g id="patch_11">
    <path d="M 59.14 217.0275 
L 538.08 217.0275 
" style="fill: none; stroke: #000000; stroke-width: 0.8; stroke-linejoin: miter; stroke-linecap: square"/>
   </g>
   <g id="patch_12">
    <path d="M 59.14 129.8525 
L 538.08 129.8525 
" style="fill: none; stroke: #000000; stroke-width: 0.8; stroke-linejoin: miter; stroke-linecap: square"/>
   </g>
   <g id="legend_2">
    <g id="patch_13">
     <path d="M 475.203437 189.618125 
L 531.08 189.618125 
Q 533.08 189.618125 533.08 187.618125 
L 533.08 159.261875 
Q 533.08 157.261875 531.08 157.261875 
L 475.203437 157.261875 
Q 473.203437 157.261875 473.203437 159.261875 
L 473.203437 187.618125 
Q 473.203437 189.618125 475.203437 189.618125 
z
" style="fill: #ffffff; opacity: 0.8; stroke: #cccccc; stroke-linejoin: miter"/>
    </g>
    <g id="line2d_48">
     <path d="M 477.203437 165.360313 
L 487.203437 165.360313 
L 497.203437 165.360313 
" style="fill: none; stroke: #1f77b4; stroke-width: 1.5; stroke-linecap: square"/>
    </g>
    <g id="text_14">
     <!-- True -->
     <g transform="translate(505.203437 168.860313) scale(0.1 -0.1)">
      <use xlink:href="#DejaVuSans-54"/>
      <use xlink:href="#DejaVuSans-72" x="46.333984"/>
      <use xlink:href="#DejaVuSans-75" x="87.447266"/>
      <use xlink:href="#DejaVuSans-65" x="150.826172"/>
     </g>
    </g>
    <g id="PathCollection_2">
     <g>
      <use xlink:href="#m1c589202f5" x="487.203437" y="180.913438" style="stroke: #000000"/>
     </g>
    </g>
    <g id="text_15">
     <!-- Data -->
     <g transform="translate(505.203437 183.538438) scale(0.1 -0.1)">
      <defs>
       <path id="DejaVuSans-44" d="M 1259 4147 
L 1259 519 
L 2022 519 
Q 2988 519 3436 956 
Q 3884 1394 3884 2338 
Q 3884 3275 3436 3711 
Q 2988 4147 2022 4147 
L 1259 4147 
z
M 628 4666 
L 1925 4666 
Q 3281 4666 3915 4102 
Q 4550 3538 4550 2338 
Q 4550 1131 3912 565 
Q 3275 0 1925 0 
L 628 0 
L 628 4666 
z
" transform="scale(0.015625)"/>
       <path id="DejaVuSans-61" d="M 2194 1759 
Q 1497 1759 1228 1600 
Q 959 1441 959 1056 
Q 959 750 1161 570 
Q 1363 391 1709 391 
Q 2188 391 2477 730 
Q 2766 1069 2766 1631 
L 2766 1759 
L 2194 1759 
z
M 3341 1997 
L 3341 0 
L 2766 0 
L 2766 531 
Q 2569 213 2275 61 
Q 1981 -91 1556 -91 
Q 1019 -91 701 211 
Q 384 513 384 1019 
Q 384 1609 779 1909 
Q 1175 2209 1959 2209 
L 2766 2209 
L 2766 2266 
Q 2766 2663 2505 2880 
Q 2244 3097 1772 3097 
Q 1472 3097 1187 3025 
Q 903 2953 641 2809 
L 641 3341 
Q 956 3463 1253 3523 
Q 1550 3584 1831 3584 
Q 2591 3584 2966 3190 
Q 3341 2797 3341 1997 
z
" transform="scale(0.015625)"/>
       <path id="DejaVuSans-74" d="M 1172 4494 
L 1172 3500 
L 2356 3500 
L 2356 3053 
L 1172 3053 
L 1172 1153 
Q 1172 725 1289 603 
Q 1406 481 1766 481 
L 2356 481 
L 2356 0 
L 1766 0 
Q 1100 0 847 248 
Q 594 497 594 1153 
L 594 3053 
L 172 3053 
L 172 3500 
L 594 3500 
L 594 4494 
L 1172 4494 
z
" transform="scale(0.015625)"/>
      </defs>
      <use xlink:href="#DejaVuSans-44"/>
      <use xlink:href="#DejaVuSans-61" x="77.001953"/>
      <use xlink:href="#DejaVuSans-74" x="138.28125"/>
      <use xlink:href="#DejaVuSans-61" x="177.490234"/>
     </g>
    </g>
   </g>
  </g>
  <g id="axes_3">
   <g id="patch_14">
    <path d="M 59.14 312.92 
L 538.08 312.92 
L 538.08 225.745 
L 59.14 225.745 
z
" style="fill: #ffffff"/>
   </g>
   <g id="matplotlib.axis_5">
    <g id="xtick_15">
     <g id="line2d_49">
      <g>
       <use xlink:href="#ma173a2819a" x="80.91" y="312.92" style="stroke: #000000; stroke-width: 0.8"/>
      </g>
     </g>
     <g id="text_16">
      <!-- 0 -->
      <g transform="translate(77.72875 327.518438) scale(0.1 -0.1)">
       <use xlink:href="#DejaVuSans-30"/>
      </g>
     </g>
    </g>
    <g id="xtick_16">
     <g id="line2d_50">
      <g>
       <use xlink:href="#ma173a2819a" x="153.476667" y="312.92" style="stroke: #000000; stroke-width: 0.8"/>
      </g>
     </g>
     <g id="text_17">
      <!-- 1 -->
      <g transform="translate(150.295417 327.518438) scale(0.1 -0.1)">
       <use xlink:href="#DejaVuSans-31"/>
      </g>
     </g>
    </g>
    <g id="xtick_17">
     <g id="line2d_51">
      <g>
       <use xlink:href="#ma173a2819a" x="226.043333" y="312.92" style="stroke: #000000; stroke-width: 0.8"/>
      </g>
     </g>
     <g id="text_18">
      <!-- 2 -->
      <g transform="translate(222.862083 327.518438) scale(0.1 -0.1)">
       <use xlink:href="#DejaVuSans-32"/>
      </g>
     </g>
    </g>
    <g id="xtick_18">
     <g id="line2d_52">
      <g>
       <use xlink:href="#ma173a2819a" x="298.61" y="312.92" style="stroke: #000000; stroke-width: 0.8"/>
      </g>
     </g>
     <g id="text_19">
      <!-- 3 -->
      <g transform="translate(295.42875 327.518438) scale(0.1 -0.1)">
       <defs>
        <path id="DejaVuSans-33" d="M 2597 2516 
Q 3050 2419 3304 2112 
Q 3559 1806 3559 1356 
Q 3559 666 3084 287 
Q 2609 -91 1734 -91 
Q 1441 -91 1130 -33 
Q 819 25 488 141 
L 488 750 
Q 750 597 1062 519 
Q 1375 441 1716 441 
Q 2309 441 2620 675 
Q 2931 909 2931 1356 
Q 2931 1769 2642 2001 
Q 2353 2234 1838 2234 
L 1294 2234 
L 1294 2753 
L 1863 2753 
Q 2328 2753 2575 2939 
Q 2822 3125 2822 3475 
Q 2822 3834 2567 4026 
Q 2313 4219 1838 4219 
Q 1578 4219 1281 4162 
Q 984 4106 628 3988 
L 628 4550 
Q 988 4650 1302 4700 
Q 1616 4750 1894 4750 
Q 2613 4750 3031 4423 
Q 3450 4097 3450 3541 
Q 3450 3153 3228 2886 
Q 3006 2619 2597 2516 
z
" transform="scale(0.015625)"/>
       </defs>
       <use xlink:href="#DejaVuSans-33"/>
      </g>
     </g>
    </g>
    <g id="xtick_19">
     <g id="line2d_53">
      <g>
       <use xlink:href="#ma173a2819a" x="371.176667" y="312.92" style="stroke: #000000; stroke-width: 0.8"/>
      </g>
     </g>
     <g id="text_20">
      <!-- 4 -->
      <g transform="translate(367.995417 327.518438) scale(0.1 -0.1)">
       <defs>
        <path id="DejaVuSans-34" d="M 2419 4116 
L 825 1625 
L 2419 1625 
L 2419 4116 
z
M 2253 4666 
L 3047 4666 
L 3047 1625 
L 3713 1625 
L 3713 1100 
L 3047 1100 
L 3047 0 
L 2419 0 
L 2419 1100 
L 313 1100 
L 313 1709 
L 2253 4666 
z
" transform="scale(0.015625)"/>
       </defs>
       <use xlink:href="#DejaVuSans-34"/>
      </g>
     </g>
    </g>
    <g id="xtick_20">
     <g id="line2d_54">
      <g>
       <use xlink:href="#ma173a2819a" x="443.743333" y="312.92" style="stroke: #000000; stroke-width: 0.8"/>
      </g>
     </g>
     <g id="text_21">
      <!-- 5 -->
      <g transform="translate(440.562083 327.518438) scale(0.1 -0.1)">
       <use xlink:href="#DejaVuSans-35"/>
      </g>
     </g>
    </g>
    <g id="xtick_21">
     <g id="line2d_55">
      <g>
       <use xlink:href="#ma173a2819a" x="516.31" y="312.92" style="stroke: #000000; stroke-width: 0.8"/>
      </g>
     </g>
     <g id="text_22">
      <!-- 6 -->
      <g transform="translate(513.12875 327.518438) scale(0.1 -0.1)">
       <defs>
        <path id="DejaVuSans-36" d="M 2113 2584 
Q 1688 2584 1439 2293 
Q 1191 2003 1191 1497 
Q 1191 994 1439 701 
Q 1688 409 2113 409 
Q 2538 409 2786 701 
Q 3034 994 3034 1497 
Q 3034 2003 2786 2293 
Q 2538 2584 2113 2584 
z
M 3366 4563 
L 3366 3988 
Q 3128 4100 2886 4159 
Q 2644 4219 2406 4219 
Q 1781 4219 1451 3797 
Q 1122 3375 1075 2522 
Q 1259 2794 1537 2939 
Q 1816 3084 2150 3084 
Q 2853 3084 3261 2657 
Q 3669 2231 3669 1497 
Q 3669 778 3244 343 
Q 2819 -91 2113 -91 
Q 1303 -91 875 529 
Q 447 1150 447 2328 
Q 447 3434 972 4092 
Q 1497 4750 2381 4750 
Q 2619 4750 2861 4703 
Q 3103 4656 3366 4563 
z
" transform="scale(0.015625)"/>
       </defs>
       <use xlink:href="#DejaVuSans-36"/>
      </g>
     </g>
    </g>
    <g id="text_23">
     <!-- Time -->
     <g transform="translate(286.376406 341.196563) scale(0.1 -0.1)">
      <defs>
       <path id="DejaVuSans-69" d="M 603 3500 
L 1178 3500 
L 1178 0 
L 603 0 
L 603 3500 
z
M 603 4863 
L 1178 4863 
L 1178 4134 
L 603 4134 
L 603 4863 
z
" transform="scale(0.015625)"/>
       <path id="DejaVuSans-6d" d="M 3328 2828 
Q 3544 3216 3844 3400 
Q 4144 3584 4550 3584 
Q 5097 3584 5394 3201 
Q 5691 2819 5691 2113 
L 5691 0 
L 5113 0 
L 5113 2094 
Q 5113 2597 4934 2840 
Q 4756 3084 4391 3084 
Q 3944 3084 3684 2787 
Q 3425 2491 3425 1978 
L 3425 0 
L 2847 0 
L 2847 2094 
Q 2847 2600 2669 2842 
Q 2491 3084 2119 3084 
Q 1678 3084 1418 2786 
Q 1159 2488 1159 1978 
L 1159 0 
L 581 0 
L 581 3500 
L 1159 3500 
L 1159 2956 
Q 1356 3278 1631 3431 
Q 1906 3584 2284 3584 
Q 2666 3584 2933 3390 
Q 3200 3197 3328 2828 
z
" transform="scale(0.015625)"/>
      </defs>
      <use xlink:href="#DejaVuSans-54"/>
      <use xlink:href="#DejaVuSans-69" x="57.958984"/>
      <use xlink:href="#DejaVuSans-6d" x="85.742188"/>
      <use xlink:href="#DejaVuSans-65" x="183.154297"/>
     </g>
    </g>
   </g>
   <g id="matplotlib.axis_6">
    <g id="ytick_11">
     <g id="line2d_56">
      <g>
       <use xlink:href="#mf38a12e1bb" x="59.14" y="312.92" style="stroke: #000000; stroke-width: 0.8"/>
      </g>
     </g>
     <g id="text_24">
      <!-- 0 -->
      <g transform="translate(45.7775 316.719219) scale(0.1 -0.1)">
       <use xlink:href="#DejaVuSans-30"/>
      </g>
     </g>
    </g>
    <g id="ytick_12">
     <g id="line2d_57">
      <g>
       <use xlink:href="#mf38a12e1bb" x="59.14" y="291.12625" style="stroke: #000000; stroke-width: 0.8"/>
      </g>
     </g>
     <g id="text_25">
      <!-- 250 -->
      <g transform="translate(33.0525 294.925469) scale(0.1 -0.1)">
       <use xlink:href="#DejaVuSans-32"/>
       <use xlink:href="#DejaVuSans-35" x="63.623047"/>
       <use xlink:href="#DejaVuSans-30" x="127.246094"/>
      </g>
     </g>
    </g>
    <g id="ytick_13">
     <g id="line2d_58">
      <g>
       <use xlink:href="#mf38a12e1bb" x="59.14" y="269.3325" style="stroke: #000000; stroke-width: 0.8"/>
      </g>
     </g>
     <g id="text_26">
      <!-- 500 -->
      <g transform="translate(33.0525 273.131719) scale(0.1 -0.1)">
       <use xlink:href="#DejaVuSans-35"/>
       <use xlink:href="#DejaVuSans-30" x="63.623047"/>
       <use xlink:href="#DejaVuSans-30" x="127.246094"/>
      </g>
     </g>
    </g>
    <g id="ytick_14">
     <g id="line2d_59">
      <g>
       <use xlink:href="#mf38a12e1bb" x="59.14" y="247.53875" style="stroke: #000000; stroke-width: 0.8"/>
      </g>
     </g>
     <g id="text_27">
      <!-- 750 -->
      <g transform="translate(33.0525 251.337969) scale(0.1 -0.1)">
       <use xlink:href="#DejaVuSans-37"/>
       <use xlink:href="#DejaVuSans-35" x="63.623047"/>
       <use xlink:href="#DejaVuSans-30" x="127.246094"/>
      </g>
     </g>
    </g>
    <g id="ytick_15">
     <g id="line2d_60">
      <g>
       <use xlink:href="#mf38a12e1bb" x="59.14" y="225.745" style="stroke: #000000; stroke-width: 0.8"/>
      </g>
     </g>
     <g id="text_28">
      <!-- 1000 -->
      <g transform="translate(26.69 229.544219) scale(0.1 -0.1)">
       <use xlink:href="#DejaVuSans-31"/>
       <use xlink:href="#DejaVuSans-30" x="63.623047"/>
       <use xlink:href="#DejaVuSans-30" x="127.246094"/>
       <use xlink:href="#DejaVuSans-30" x="190.869141"/>
      </g>
     </g>
    </g>
    <g id="text_29">
     <!-- R -->
     <g transform="translate(544.605781 276.930938) scale(0.1 -0.1)">
      <defs>
       <path id="DejaVuSans-52" d="M 2841 2188 
Q 3044 2119 3236 1894 
Q 3428 1669 3622 1275 
L 4263 0 
L 3584 0 
L 2988 1197 
Q 2756 1666 2539 1819 
Q 2322 1972 1947 1972 
L 1259 1972 
L 1259 0 
L 628 0 
L 628 4666 
L 2053 4666 
Q 2853 4666 3247 4331 
Q 3641 3997 3641 3322 
Q 3641 2881 3436 2590 
Q 3231 2300 2841 2188 
z
M 1259 4147 
L 1259 2491 
L 2053 2491 
Q 2509 2491 2742 2702 
Q 2975 2913 2975 3322 
Q 2975 3731 2742 3939 
Q 2509 4147 2053 4147 
L 1259 4147 
z
" transform="scale(0.015625)"/>
      </defs>
      <use xlink:href="#DejaVuSans-52"/>
     </g>
    </g>
   </g>
   <g id="line2d_61">
    <path d="M 80.91 312.92 
L 84.122494 312.579272 
L 86.692489 312.087625 
L 88.976929 311.429335 
L 91.332758 310.516418 
L 93.974142 309.245758 
L 97.472191 307.295929 
L 106.895506 301.657966 
L 114.10577 297.52817 
L 120.95909 293.860145 
L 127.883799 290.406931 
L 134.951285 287.129899 
L 142.232938 283.997314 
L 149.800146 280.985202 
L 157.58152 278.127287 
L 165.648449 275.400997 
L 174.072322 272.790632 
L 182.781749 270.324813 
L 191.91951 267.970566 
L 201.414214 265.754297 
L 211.408639 263.650956 
L 221.902786 261.671067 
L 232.968042 259.811098 
L 244.675798 258.070076 
L 257.168829 256.440225 
L 270.447137 254.934656 
L 284.724888 253.542617 
L 300.073469 252.272202 
L 316.778437 251.11555 
L 334.982569 250.080356 
L 355.256975 249.153884 
L 377.887209 248.347118 
L 403.729938 247.652854 
L 433.998769 247.070315 
L 470.050089 246.605734 
L 515.73889 246.248348 
L 516.31 246.245054 
L 516.31 246.245054 
" clip-path="url(#p7ba536ce56)" style="fill: none; stroke: #1f77b4; stroke-width: 1.5; stroke-linecap: square"/>
   </g>
   <g id="line2d_62">
    <path d="M 80.91 312.92 
L 81.338333 313.056085 
L 81.838054 313.497053 
L 84.764993 316.73404 
L 89.904983 322.695654 
L 94.973584 328.917931 
L 99.970797 335.405816 
L 104.896621 342.163892 
L 109.822445 349.302614 
L 114.67688 356.731152 
L 117.352307 361 
L 117.352307 361 
" clip-path="url(#p7ba536ce56)" style="fill: none; stroke: #808080; stroke-opacity: 0.5; stroke-width: 1.5; stroke-linecap: square"/>
   </g>
   <g id="line2d_63">
    <path d="M 80.91 312.92 
L 83.694161 312.924598 
L 304.64235 313.051025 
L 375.317214 313.302568 
L 419.935184 313.672477 
L 452.77401 314.157994 
L 478.902294 314.75975 
L 500.604475 315.476557 
L 516.31 316.163901 
L 516.31 316.163901 
" clip-path="url(#p7ba536ce56)" style="fill: none; stroke: #808080; stroke-opacity: 0.5; stroke-width: 1.5; stroke-linecap: square"/>
   </g>
   <g id="line2d_64">
    <path d="M 80.91 312.92 
L 82.480553 313.049813 
L 91.18998 314.410665 
L 104.468288 316.672959 
L 117.104097 319.050141 
L 129.168797 321.544823 
L 140.733774 324.16244 
L 151.799031 326.893463 
L 162.435955 329.746076 
L 172.715935 332.732692 
L 182.638972 335.847318 
L 192.205065 339.082394 
L 201.485603 342.455621 
L 210.480585 345.961902 
L 219.190013 349.594866 
L 227.685275 353.37968 
L 235.894981 357.278741 
L 243.276606 361 
L 243.276606 361 
" clip-path="url(#p7ba536ce56)" style="fill: none; stroke: #808080; stroke-opacity: 0.5; stroke-width: 1.5; stroke-linecap: square"/>
   </g>
   <g id="line2d_65">
    <path d="M 80.91 312.92 
L 81.695276 312.984281 
L 91.689702 312.976003 
L 246.674683 312.922986 
L 516.31 312.920018 
L 516.31 312.920018 
" clip-path="url(#p7ba536ce56)" style="fill: none; stroke: #808080; stroke-opacity: 0.5; stroke-width: 1.5; stroke-linecap: square"/>
   </g>
   <g id="line2d_66">
    <path d="M 80.91 312.92 
L 174.357877 312.911871 
L 281.797949 312.777507 
L 320.63343 312.518799 
L 345.476716 312.142046 
L 363.895014 311.648933 
L 378.529708 311.042487 
L 390.737185 310.320443 
L 401.231331 309.481397 
L 410.369092 308.533048 
L 418.507409 307.470284 
L 425.860451 306.290292 
L 432.570994 304.991753 
L 438.710426 303.582112 
L 444.421526 302.046693 
L 449.775683 300.378699 
L 454.772896 298.591806 
L 459.484553 296.67444 
L 463.982045 294.605348 
L 468.26537 292.390261 
L 472.334529 290.038265 
L 476.26091 287.513687 
L 480.044514 284.817724 
L 483.68534 281.953755 
L 487.254778 278.862782 
L 490.752827 275.534484 
L 494.108098 272.03681 
L 497.391981 268.296899 
L 500.675863 264.214868 
L 503.888357 259.860483 
L 507.029462 255.226692 
L 510.170567 250.188222 
L 513.240284 244.839405 
L 516.31 239.034524 
L 516.31 239.034524 
" clip-path="url(#p7ba536ce56)" style="fill: none; stroke: #808080; stroke-opacity: 0.5; stroke-width: 1.5; stroke-linecap: square"/>
   </g>
   <g id="line2d_67">
    <path d="M 80.91 312.92 
L 81.980831 312.717253 
L 82.837496 312.317425 
L 83.908328 311.53276 
L 86.478323 309.265748 
L 112.035496 286.383468 
L 135.879339 265.359929 
L 188.421461 219.186285 
L 195.488947 212.528532 
L 201.556991 206.508566 
L 207.268091 200.529492 
L 212.836414 194.379082 
L 218.333348 187.977713 
L 223.758893 181.320593 
L 229.184438 174.308771 
L 234.538595 167.023035 
L 239.821363 159.459199 
L 245.10413 151.503225 
L 250.315509 143.250714 
L 253.242448 138.432071 
L 253.242448 138.432071 
" clip-path="url(#p7ba536ce56)" style="fill: none; stroke: #808080; stroke-opacity: 0.5; stroke-width: 1.5; stroke-linecap: square"/>
   </g>
   <g id="line2d_68">
    <path d="M 80.91 312.92 
L 82.480553 312.88643 
L 246.888849 312.915138 
L 516.31 312.919798 
L 516.31 312.919798 
" clip-path="url(#p7ba536ce56)" style="fill: none; stroke: #808080; stroke-opacity: 0.5; stroke-width: 1.5; stroke-linecap: square"/>
   </g>
   <g id="line2d_69">
    <path d="M 80.91 312.92 
L 81.48111 313.057247 
L 87.691931 314.927825 
L 93.545809 316.919976 
L 99.114132 319.047312 
L 104.396899 321.299967 
L 109.465501 323.700185 
L 114.319936 326.242017 
L 119.031594 328.960101 
L 123.529085 331.808268 
L 127.883799 334.824713 
L 132.167124 338.063038 
L 136.307672 341.472249 
L 140.376831 345.113243 
L 144.303212 348.922854 
L 148.158205 352.96998 
L 151.941808 357.261742 
L 155.016471 361 
L 155.016471 361 
" clip-path="url(#p7ba536ce56)" style="fill: none; stroke: #808080; stroke-opacity: 0.5; stroke-width: 1.5; stroke-linecap: square"/>
   </g>
   <g id="line2d_70">
    <path d="M 80.91 312.92 
L 81.195555 312.782398 
L 81.695276 312.111561 
L 85.264714 307.028041 
L 88.691374 302.5384 
L 92.189423 298.319039 
L 95.75886 294.362118 
L 99.399687 290.659148 
L 103.111902 287.201094 
L 106.895506 283.978484 
L 110.821887 280.928569 
L 114.819657 278.103796 
L 118.960205 275.449295 
L 123.24353 272.966298 
L 127.741021 270.618929 
L 132.38129 268.447721 
L 137.235726 266.420095 
L 142.375716 264.51506 
L 147.801261 262.742927 
L 153.58375 261.09121 
L 159.723182 259.570697 
L 166.362336 258.159574 
L 173.501212 256.872943 
L 181.282586 255.6999 
L 189.849236 254.638023 
L 199.34394 253.68996 
L 209.980864 252.855294 
L 222.188341 252.126471 
L 236.394702 251.508017 
L 253.385225 250.998416 
L 274.587685 250.594921 
L 302.572076 250.297627 
L 343.54922 250.10346 
L 418.150466 250.006983 
L 516.31 249.989541 
L 516.31 249.989541 
" clip-path="url(#p7ba536ce56)" style="fill: none; stroke: #808080; stroke-opacity: 0.5; stroke-width: 1.5; stroke-linecap: square"/>
   </g>
   <g id="line2d_71">
    <path d="M 80.91 312.92 
L 81.195555 312.776851 
L 84.836381 310.471678 
L 88.619985 308.340438 
L 92.617755 306.348244 
L 96.758303 304.533118 
L 101.184406 302.837621 
L 105.896063 301.27458 
L 110.893276 299.851791 
L 116.318821 298.54075 
L 122.172699 297.356288 
L 128.597687 296.284637 
L 135.736562 295.32265 
L 143.732102 294.47336 
L 152.869862 293.731782 
L 163.506786 293.098866 
L 176.142596 292.576818 
L 191.848121 292.160164 
L 212.408082 291.849906 
L 242.034414 291.64335 
L 293.934037 291.535619 
L 460.983717 291.509684 
L 516.31 291.509573 
L 516.31 291.509573 
" clip-path="url(#p7ba536ce56)" style="fill: none; stroke: #808080; stroke-opacity: 0.5; stroke-width: 1.5; stroke-linecap: square"/>
   </g>
   <g id="patch_15">
    <path d="M 59.14 312.92 
L 59.14 225.745 
" style="fill: none; stroke: #000000; stroke-width: 0.8; stroke-linejoin: miter; stroke-linecap: square"/>
   </g>
   <g id="patch_16">
    <path d="M 538.08 312.92 
L 538.08 225.745 
" style="fill: none; stroke: #000000; stroke-width: 0.8; stroke-linejoin: miter; stroke-linecap: square"/>
   </g>
   <g id="patch_17">
    <path d="M 59.14 312.92 
L 538.08 312.92 
" style="fill: none; stroke: #000000; stroke-width: 0.8; stroke-linejoin: miter; stroke-linecap: square"/>
   </g>
   <g id="patch_18">
    <path d="M 59.14 225.745 
L 538.08 225.745 
" style="fill: none; stroke: #000000; stroke-width: 0.8; stroke-linejoin: miter; stroke-linecap: square"/>
   </g>
   <g id="legend_3">
    <g id="patch_19">
     <path d="M 66.14 248.423125 
L 119.374375 248.423125 
Q 121.374375 248.423125 121.374375 246.423125 
L 121.374375 232.745 
Q 121.374375 230.745 119.374375 230.745 
L 66.14 230.745 
Q 64.14 230.745 64.14 232.745 
L 64.14 246.423125 
Q 64.14 248.423125 66.14 248.423125 
z
" style="fill: #ffffff; opacity: 0.8; stroke: #cccccc; stroke-linejoin: miter"/>
    </g>
    <g id="line2d_72">
     <path d="M 68.14 238.843437 
L 78.14 238.843437 
L 88.14 238.843437 
" style="fill: none; stroke: #1f77b4; stroke-width: 1.5; stroke-linecap: square"/>
    </g>
    <g id="text_30">
     <!-- True -->
     <g transform="translate(96.14 242.343437) scale(0.1 -0.1)">
      <use xlink:href="#DejaVuSans-54"/>
      <use xlink:href="#DejaVuSans-72" x="46.333984"/>
      <use xlink:href="#DejaVuSans-75" x="87.447266"/>
      <use xlink:href="#DejaVuSans-65" x="150.826172"/>
     </g>
    </g>
   </g>
  </g>
  <g id="text_31">
   <!-- 2.B Problem 1 Prior Predictive -->
   <g transform="translate(183.966875 17.837812) scale(0.14 -0.14)">
    <defs>
     <path id="DejaVuSans-2e" d="M 684 794 
L 1344 794 
L 1344 0 
L 684 0 
L 684 794 
z
" transform="scale(0.015625)"/>
     <path id="DejaVuSans-42" d="M 1259 2228 
L 1259 519 
L 2272 519 
Q 2781 519 3026 730 
Q 3272 941 3272 1375 
Q 3272 1813 3026 2020 
Q 2781 2228 2272 2228 
L 1259 2228 
z
M 1259 4147 
L 1259 2741 
L 2194 2741 
Q 2656 2741 2882 2914 
Q 3109 3088 3109 3444 
Q 3109 3797 2882 3972 
Q 2656 4147 2194 4147 
L 1259 4147 
z
M 628 4666 
L 2241 4666 
Q 2963 4666 3353 4366 
Q 3744 4066 3744 3513 
Q 3744 3084 3544 2831 
Q 3344 2578 2956 2516 
Q 3422 2416 3680 2098 
Q 3938 1781 3938 1306 
Q 3938 681 3513 340 
Q 3088 0 2303 0 
L 628 0 
L 628 4666 
z
" transform="scale(0.015625)"/>
     <path id="DejaVuSans-20" transform="scale(0.015625)"/>
     <path id="DejaVuSans-50" d="M 1259 4147 
L 1259 2394 
L 2053 2394 
Q 2494 2394 2734 2622 
Q 2975 2850 2975 3272 
Q 2975 3691 2734 3919 
Q 2494 4147 2053 4147 
L 1259 4147 
z
M 628 4666 
L 2053 4666 
Q 2838 4666 3239 4311 
Q 3641 3956 3641 3272 
Q 3641 2581 3239 2228 
Q 2838 1875 2053 1875 
L 1259 1875 
L 1259 0 
L 628 0 
L 628 4666 
z
" transform="scale(0.015625)"/>
     <path id="DejaVuSans-6f" d="M 1959 3097 
Q 1497 3097 1228 2736 
Q 959 2375 959 1747 
Q 959 1119 1226 758 
Q 1494 397 1959 397 
Q 2419 397 2687 759 
Q 2956 1122 2956 1747 
Q 2956 2369 2687 2733 
Q 2419 3097 1959 3097 
z
M 1959 3584 
Q 2709 3584 3137 3096 
Q 3566 2609 3566 1747 
Q 3566 888 3137 398 
Q 2709 -91 1959 -91 
Q 1206 -91 779 398 
Q 353 888 353 1747 
Q 353 2609 779 3096 
Q 1206 3584 1959 3584 
z
" transform="scale(0.015625)"/>
     <path id="DejaVuSans-62" d="M 3116 1747 
Q 3116 2381 2855 2742 
Q 2594 3103 2138 3103 
Q 1681 3103 1420 2742 
Q 1159 2381 1159 1747 
Q 1159 1113 1420 752 
Q 1681 391 2138 391 
Q 2594 391 2855 752 
Q 3116 1113 3116 1747 
z
M 1159 2969 
Q 1341 3281 1617 3432 
Q 1894 3584 2278 3584 
Q 2916 3584 3314 3078 
Q 3713 2572 3713 1747 
Q 3713 922 3314 415 
Q 2916 -91 2278 -91 
Q 1894 -91 1617 61 
Q 1341 213 1159 525 
L 1159 0 
L 581 0 
L 581 4863 
L 1159 4863 
L 1159 2969 
z
" transform="scale(0.015625)"/>
     <path id="DejaVuSans-6c" d="M 603 4863 
L 1178 4863 
L 1178 0 
L 603 0 
L 603 4863 
z
" transform="scale(0.015625)"/>
     <path id="DejaVuSans-64" d="M 2906 2969 
L 2906 4863 
L 3481 4863 
L 3481 0 
L 2906 0 
L 2906 525 
Q 2725 213 2448 61 
Q 2172 -91 1784 -91 
Q 1150 -91 751 415 
Q 353 922 353 1747 
Q 353 2572 751 3078 
Q 1150 3584 1784 3584 
Q 2172 3584 2448 3432 
Q 2725 3281 2906 2969 
z
M 947 1747 
Q 947 1113 1208 752 
Q 1469 391 1925 391 
Q 2381 391 2643 752 
Q 2906 1113 2906 1747 
Q 2906 2381 2643 2742 
Q 2381 3103 1925 3103 
Q 1469 3103 1208 2742 
Q 947 2381 947 1747 
z
" transform="scale(0.015625)"/>
     <path id="DejaVuSans-63" d="M 3122 3366 
L 3122 2828 
Q 2878 2963 2633 3030 
Q 2388 3097 2138 3097 
Q 1578 3097 1268 2742 
Q 959 2388 959 1747 
Q 959 1106 1268 751 
Q 1578 397 2138 397 
Q 2388 397 2633 464 
Q 2878 531 3122 666 
L 3122 134 
Q 2881 22 2623 -34 
Q 2366 -91 2075 -91 
Q 1284 -91 818 406 
Q 353 903 353 1747 
Q 353 2603 823 3093 
Q 1294 3584 2113 3584 
Q 2378 3584 2631 3529 
Q 2884 3475 3122 3366 
z
" transform="scale(0.015625)"/>
     <path id="DejaVuSans-76" d="M 191 3500 
L 800 3500 
L 1894 563 
L 2988 3500 
L 3597 3500 
L 2284 0 
L 1503 0 
L 191 3500 
z
" transform="scale(0.015625)"/>
    </defs>
    <use xlink:href="#DejaVuSans-32"/>
    <use xlink:href="#DejaVuSans-2e" x="63.623047"/>
    <use xlink:href="#DejaVuSans-42" x="95.410156"/>
    <use xlink:href="#DejaVuSans-20" x="164.013672"/>
    <use xlink:href="#DejaVuSans-50" x="195.800781"/>
    <use xlink:href="#DejaVuSans-72" x="254.353516"/>
    <use xlink:href="#DejaVuSans-6f" x="293.216797"/>
    <use xlink:href="#DejaVuSans-62" x="354.398438"/>
    <use xlink:href="#DejaVuSans-6c" x="417.875"/>
    <use xlink:href="#DejaVuSans-65" x="445.658203"/>
    <use xlink:href="#DejaVuSans-6d" x="507.181641"/>
    <use xlink:href="#DejaVuSans-20" x="604.59375"/>
    <use xlink:href="#DejaVuSans-31" x="636.380859"/>
    <use xlink:href="#DejaVuSans-20" x="700.003906"/>
    <use xlink:href="#DejaVuSans-50" x="731.791016"/>
    <use xlink:href="#DejaVuSans-72" x="790.34375"/>
    <use xlink:href="#DejaVuSans-69" x="831.457031"/>
    <use xlink:href="#DejaVuSans-6f" x="859.240234"/>
    <use xlink:href="#DejaVuSans-72" x="920.421875"/>
    <use xlink:href="#DejaVuSans-20" x="961.535156"/>
    <use xlink:href="#DejaVuSans-50" x="993.322266"/>
    <use xlink:href="#DejaVuSans-72" x="1051.875"/>
    <use xlink:href="#DejaVuSans-65" x="1090.738281"/>
    <use xlink:href="#DejaVuSans-64" x="1152.261719"/>
    <use xlink:href="#DejaVuSans-69" x="1215.738281"/>
    <use xlink:href="#DejaVuSans-63" x="1243.521484"/>
    <use xlink:href="#DejaVuSans-74" x="1298.501953"/>
    <use xlink:href="#DejaVuSans-69" x="1337.710938"/>
    <use xlink:href="#DejaVuSans-76" x="1365.494141"/>
    <use xlink:href="#DejaVuSans-65" x="1424.673828"/>
   </g>
  </g>
 </g>
 <defs>
  <clipPath id="p3f19b4a24b">
   <rect x="59.14" y="33.96" width="478.94" height="87.175"/>
  </clipPath>
  <clipPath id="p4c8b90f3ff">
   <rect x="59.14" y="129.8525" width="478.94" height="87.175"/>
  </clipPath>
  <clipPath id="p7ba536ce56">
   <rect x="59.14" y="225.745" width="478.94" height="87.175"/>
  </clipPath>
 </defs>
</svg>
