<?xml version="1.0" encoding="utf-8" standalone="no"?>
<!DOCTYPE svg PUBLIC "-//W3C//DTD SVG 1.1//EN"
  "http://www.w3.org/Graphics/SVG/1.1/DTD/svg11.dtd">
<svg xmlns:xlink="http://www.w3.org/1999/xlink" width="576pt" height="576pt" viewBox="0 0 576 576" xmlns="http://www.w3.org/2000/svg" version="1.1">
 <metadata>
  <rdf:RDF xmlns:dc="http://purl.org/dc/elements/1.1/" xmlns:cc="http://creativecommons.org/ns#" xmlns:rdf="http://www.w3.org/1999/02/22-rdf-syntax-ns#">
   <cc:Work>
    <dc:type rdf:resource="http://purl.org/dc/dcmitype/StillImage"/>
    <dc:date>2024-04-04T00:00:12.476802</dc:date>
    <dc:format>image/svg+xml</dc:format>
    <dc:creator>
     <cc:Agent>
      <dc:title>Matplotlib v3.8.3, https://matplotlib.org/</dc:title>
     </cc:Agent>
    </dc:creator>
   </cc:Work>
  </rdf:RDF>
 </metadata>
 <defs>
  <style type="text/css">*{stroke-linejoin: round; stroke-linecap: butt}</style>
 </defs>
 <g id="figure_1">
  <g id="patch_1">
   <path d="M 0 576 
L 576 576 
L 576 0 
L 0 0 
z
" style="fill: #ffffff"/>
  </g>
  <g id="axes_1">
   <g id="patch_2">
    <path d="M 49.14 130.14 
L 548.08 130.14 
L 548.08 23.96 
L 49.14 23.96 
z
" style="fill: #ffffff"/>
   </g>
   <g id="matplotlib.axis_1">
    <g id="xtick_1">
     <g id="line2d_1">
      <defs>
       <path id="m30800b369e" d="M 0 0 
L 0 3.5 
" style="stroke: #000000; stroke-width: 0.8"/>
      </defs>
      <g>
       <use xlink:href="#m30800b369e" x="71.819091" y="130.14" style="stroke: #000000; stroke-width: 0.8"/>
      </g>
     </g>
    </g>
    <g id="xtick_2">
     <g id="line2d_2">
      <g>
       <use xlink:href="#m30800b369e" x="162.553601" y="130.14" style="stroke: #000000; stroke-width: 0.8"/>
      </g>
     </g>
    </g>
    <g id="xtick_3">
     <g id="line2d_3">
      <g>
       <use xlink:href="#m30800b369e" x="253.288112" y="130.14" style="stroke: #000000; stroke-width: 0.8"/>
      </g>
     </g>
    </g>
    <g id="xtick_4">
     <g id="line2d_4">
      <g>
       <use xlink:href="#m30800b369e" x="344.022623" y="130.14" style="stroke: #000000; stroke-width: 0.8"/>
      </g>
     </g>
    </g>
    <g id="xtick_5">
     <g id="line2d_5">
      <g>
       <use xlink:href="#m30800b369e" x="434.757133" y="130.14" style="stroke: #000000; stroke-width: 0.8"/>
      </g>
     </g>
    </g>
    <g id="xtick_6">
     <g id="line2d_6">
      <g>
       <use xlink:href="#m30800b369e" x="525.491644" y="130.14" style="stroke: #000000; stroke-width: 0.8"/>
      </g>
     </g>
    </g>
   </g>
   <g id="matplotlib.axis_2">
    <g id="ytick_1">
     <g id="line2d_7">
      <defs>
       <path id="m57eaf66161" d="M 0 0 
L -3.5 0 
" style="stroke: #000000; stroke-width: 0.8"/>
      </defs>
      <g>
       <use xlink:href="#m57eaf66161" x="49.14" y="115.145451" style="stroke: #000000; stroke-width: 0.8"/>
      </g>
     </g>
     <g id="text_1">
      <!-- −0.50 -->
      <g transform="translate(11.494688 118.94467) scale(0.1 -0.1)">
       <defs>
        <path id="DejaVuSans-2212" d="M 678 2272 
L 4684 2272 
L 4684 1741 
L 678 1741 
L 678 2272 
z
" transform="scale(0.015625)"/>
        <path id="DejaVuSans-30" d="M 2034 4250 
Q 1547 4250 1301 3770 
Q 1056 3291 1056 2328 
Q 1056 1369 1301 889 
Q 1547 409 2034 409 
Q 2525 409 2770 889 
Q 3016 1369 3016 2328 
Q 3016 3291 2770 3770 
Q 2525 4250 2034 4250 
z
M 2034 4750 
Q 2819 4750 3233 4129 
Q 3647 3509 3647 2328 
Q 3647 1150 3233 529 
Q 2819 -91 2034 -91 
Q 1250 -91 836 529 
Q 422 1150 422 2328 
Q 422 3509 836 4129 
Q 1250 4750 2034 4750 
z
" transform="scale(0.015625)"/>
        <path id="DejaVuSans-2e" d="M 684 794 
L 1344 794 
L 1344 0 
L 684 0 
L 684 794 
z
" transform="scale(0.015625)"/>
        <path id="DejaVuSans-35" d="M 691 4666 
L 3169 4666 
L 3169 4134 
L 1269 4134 
L 1269 2991 
Q 1406 3038 1543 3061 
Q 1681 3084 1819 3084 
Q 2600 3084 3056 2656 
Q 3513 2228 3513 1497 
Q 3513 744 3044 326 
Q 2575 -91 1722 -91 
Q 1428 -91 1123 -41 
Q 819 9 494 109 
L 494 744 
Q 775 591 1075 516 
Q 1375 441 1709 441 
Q 2250 441 2565 725 
Q 2881 1009 2881 1497 
Q 2881 1984 2565 2268 
Q 2250 2553 1709 2553 
Q 1456 2553 1204 2497 
Q 953 2441 691 2322 
L 691 4666 
z
" transform="scale(0.015625)"/>
       </defs>
       <use xlink:href="#DejaVuSans-2212"/>
       <use xlink:href="#DejaVuSans-30" x="83.789062"/>
       <use xlink:href="#DejaVuSans-2e" x="147.412109"/>
       <use xlink:href="#DejaVuSans-35" x="179.199219"/>
       <use xlink:href="#DejaVuSans-30" x="242.822266"/>
      </g>
     </g>
    </g>
    <g id="ytick_2">
     <g id="line2d_8">
      <g>
       <use xlink:href="#m57eaf66161" x="49.14" y="93.061904" style="stroke: #000000; stroke-width: 0.8"/>
      </g>
     </g>
     <g id="text_2">
      <!-- −0.25 -->
      <g transform="translate(11.494688 96.861123) scale(0.1 -0.1)">
       <defs>
        <path id="DejaVuSans-32" d="M 1228 531 
L 3431 531 
L 3431 0 
L 469 0 
L 469 531 
Q 828 903 1448 1529 
Q 2069 2156 2228 2338 
Q 2531 2678 2651 2914 
Q 2772 3150 2772 3378 
Q 2772 3750 2511 3984 
Q 2250 4219 1831 4219 
Q 1534 4219 1204 4116 
Q 875 4013 500 3803 
L 500 4441 
Q 881 4594 1212 4672 
Q 1544 4750 1819 4750 
Q 2544 4750 2975 4387 
Q 3406 4025 3406 3419 
Q 3406 3131 3298 2873 
Q 3191 2616 2906 2266 
Q 2828 2175 2409 1742 
Q 1991 1309 1228 531 
z
" transform="scale(0.015625)"/>
       </defs>
       <use xlink:href="#DejaVuSans-2212"/>
       <use xlink:href="#DejaVuSans-30" x="83.789062"/>
       <use xlink:href="#DejaVuSans-2e" x="147.412109"/>
       <use xlink:href="#DejaVuSans-32" x="179.199219"/>
       <use xlink:href="#DejaVuSans-35" x="242.822266"/>
      </g>
     </g>
    </g>
    <g id="ytick_3">
     <g id="line2d_9">
      <g>
       <use xlink:href="#m57eaf66161" x="49.14" y="70.978358" style="stroke: #000000; stroke-width: 0.8"/>
      </g>
     </g>
     <g id="text_3">
      <!-- 0.00 -->
      <g transform="translate(19.874375 74.777577) scale(0.1 -0.1)">
       <use xlink:href="#DejaVuSans-30"/>
       <use xlink:href="#DejaVuSans-2e" x="63.623047"/>
       <use xlink:href="#DejaVuSans-30" x="95.410156"/>
       <use xlink:href="#DejaVuSans-30" x="159.033203"/>
      </g>
     </g>
    </g>
    <g id="ytick_4">
     <g id="line2d_10">
      <g>
       <use xlink:href="#m57eaf66161" x="49.14" y="48.894811" style="stroke: #000000; stroke-width: 0.8"/>
      </g>
     </g>
     <g id="text_4">
      <!-- 0.25 -->
      <g transform="translate(19.874375 52.69403) scale(0.1 -0.1)">
       <use xlink:href="#DejaVuSans-30"/>
       <use xlink:href="#DejaVuSans-2e" x="63.623047"/>
       <use xlink:href="#DejaVuSans-32" x="95.410156"/>
       <use xlink:href="#DejaVuSans-35" x="159.033203"/>
      </g>
     </g>
    </g>
    <g id="ytick_5">
     <g id="line2d_11">
      <g>
       <use xlink:href="#m57eaf66161" x="49.14" y="26.811264" style="stroke: #000000; stroke-width: 0.8"/>
      </g>
     </g>
     <g id="text_5">
      <!-- 0.50 -->
      <g transform="translate(19.874375 30.610483) scale(0.1 -0.1)">
       <use xlink:href="#DejaVuSans-30"/>
       <use xlink:href="#DejaVuSans-2e" x="63.623047"/>
       <use xlink:href="#DejaVuSans-35" x="95.410156"/>
       <use xlink:href="#DejaVuSans-30" x="159.033203"/>
      </g>
     </g>
    </g>
    <g id="text_6">
     <!-- $\gamma$ -->
     <g transform="translate(555.08 84.628125) scale(0.1 -0.1)">
      <defs>
       <path id="DejaVuSans-Oblique-3b3" d="M 1491 2950 
L 1838 788 
L 3456 3500 
L 4066 3500 
L 1972 0 
L 1713 -1331 
L 1138 -1331 
L 1397 0 
L 988 2613 
Q 925 3006 628 3006 
L 475 3006 
L 569 3500 
L 788 3500 
Q 1403 3500 1491 2950 
z
" transform="scale(0.015625)"/>
      </defs>
      <use xlink:href="#DejaVuSans-Oblique-3b3" transform="translate(0 0.3125)"/>
     </g>
    </g>
   </g>
   <g id="line2d_12">
    <path d="M 71.819091 73.045006 
L 71.909825 73.045006 
L 72.091294 73.186762 
L 73.996719 73.186762 
L 74.178188 72.931847 
L 74.631861 72.931847 
L 74.81333 72.748208 
L 77.807569 72.748208 
L 77.989038 76.906786 
L 78.987117 76.906786 
L 79.168586 76.127989 
L 80.892542 76.127989 
L 81.074011 85.237953 
L 83.523843 85.237953 
L 83.705312 85.986383 
L 86.245878 85.986383 
L 86.427347 88.756064 
L 87.606896 88.756064 
L 87.788365 67.557004 
L 88.604975 67.557004 
L 88.786444 80.672322 
L 88.967913 68.607199 
L 89.965993 68.607199 
L 90.147462 53.313375 
L 90.5104 53.313375 
L 90.691869 60.782656 
L 91.50848 60.782656 
L 91.689949 52.442141 
L 91.871418 69.110659 
L 94.139781 69.110659 
L 94.32125 67.723498 
L 94.502719 75.73286 
L 95.773002 75.73286 
L 95.954471 65.578215 
L 96.13594 77.52285 
L 96.317409 79.130796 
L 96.589612 79.130796 
L 96.771081 77.624278 
L 98.132099 77.624278 
L 98.404302 72.581343 
L 101.761479 72.581343 
L 101.942948 73.408553 
L 105.572329 73.408553 
L 105.753798 75.552157 
L 105.935267 75.356933 
L 106.20747 75.356933 
L 106.388939 96.982509 
L 107.659223 96.982509 
L 107.840692 85.17401 
L 109.292444 85.17401 
L 109.473913 83.213464 
L 110.290523 83.213464 
L 110.471992 83.015375 
L 111.923745 83.015375 
L 112.105214 78.50283 
L 113.375497 78.50283 
L 113.556966 82.812337 
L 113.738435 73.672456 
L 114.192107 73.672456 
L 114.373576 75.967351 
L 115.825329 75.967351 
L 116.006798 80.263121 
L 119.001036 80.263121 
L 119.182505 74.11835 
L 119.454709 74.11835 
L 119.636178 73.652084 
L 119.908381 73.652084 
L 120.089851 75.626566 
L 124.082169 75.626566 
L 124.354373 80.505136 
L 128.255956 80.505136 
L 128.437425 57.282389 
L 129.616974 57.282389 
L 129.798443 55.534017 
L 131.794602 55.534017 
L 131.976071 56.469757 
L 135.96839 56.469757 
L 136.149859 66.324838 
L 140.59585 66.324838 
L 140.777319 64.145683 
L 144.769637 64.145683 
L 144.951106 80.948357 
L 145.586248 80.948357 
L 145.767717 86.529913 
L 146.039921 86.529913 
L 146.22139 86.893834 
L 146.856531 86.893834 
L 147.038 78.910486 
L 147.128735 78.910486 
L 147.400938 67.321316 
L 147.673142 67.321316 
L 147.854611 65.974233 
L 148.03608 65.974233 
L 148.217549 67.222181 
L 148.580487 67.222181 
L 148.761956 75.062353 
L 149.85077 75.062353 
L 150.032239 80.748354 
L 151.846929 80.748354 
L 152.028398 82.833809 
L 152.300602 82.833809 
L 152.482071 82.517672 
L 152.66354 75.626224 
L 157.472469 75.626224 
L 157.653938 64.997837 
L 157.744672 64.997837 
L 157.926141 76.11659 
L 158.10761 75.15897 
L 158.289079 75.15897 
L 158.470548 74.910845 
L 159.650097 74.910845 
L 159.831566 77.162552 
L 161.464787 77.162552 
L 161.646256 79.572952 
L 162.462867 79.572952 
L 162.644336 73.310111 
L 163.279478 73.310111 
L 163.460947 65.811732 
L 163.551681 65.811732 
L 163.73315 65.962275 
L 164.73123 65.962275 
L 164.912699 66.85042 
L 166.54592 66.85042 
L 166.636654 66.494362 
L 166.818123 64.586196 
L 168.905017 64.586196 
L 169.086486 57.829487 
L 169.449424 57.829487 
L 169.630893 73.723128 
L 171.989991 73.723128 
L 172.17146 74.089474 
L 174.530557 74.089474 
L 174.712026 77.118816 
L 176.526716 77.118816 
L 176.708185 97.508958 
L 181.517114 97.508958 
L 181.698583 107.033406 
L 183.513273 107.033406 
L 183.694742 101.776343 
L 185.327964 101.776343 
L 185.509433 66.234696 
L 189.411017 66.234696 
L 189.592486 56.582713 
L 189.773955 52.170127 
L 190.772034 52.170127 
L 190.953503 77.530308 
L 191.225707 77.530308 
L 191.407176 92.924796 
L 192.405255 92.924796 
L 192.586724 74.453774 
L 193.675539 74.453774 
L 193.857008 65.462774 
L 194.673618 65.462774 
L 194.855087 42.672874 
L 203.111928 42.672874 
L 203.293397 45.08198 
L 209.009671 45.08198 
L 209.19114 57.239324 
L 209.644812 57.239324 
L 209.826281 52.046527 
L 212.00391 52.046527 
L 212.185379 89.004057 
L 213.364927 89.004057 
L 213.546396 68.904604 
L 220.532954 68.904604 
L 220.714423 72.809524 
L 221.621768 72.809524 
L 221.803237 77.965085 
L 222.710582 77.965085 
L 222.892051 74.743313 
L 229.878608 74.743313 
L 230.060077 73.517409 
L 230.967422 73.517409 
L 231.148891 73.241444 
L 231.33036 73.360252 
L 235.322679 73.360252 
L 235.504148 73.816283 
L 236.592962 73.816283 
L 236.774431 77.349847 
L 237.409573 77.349847 
L 237.591042 61.329626 
L 238.226183 61.329626 
L 238.407652 62.662078 
L 239.496466 62.662078 
L 239.677935 64.289264 
L 240.585281 64.289264 
L 240.76675 75.209271 
L 240.948219 73.596503 
L 244.305395 73.596503 
L 244.486864 73.754022 
L 245.122006 73.754022 
L 245.303475 37.792419 
L 247.118165 37.792419 
L 247.299634 49.183507 
L 256.917492 49.183507 
L 257.098961 64.430155 
L 257.189696 64.430155 
L 257.371165 54.86313 
L 257.461899 54.86313 
L 257.643368 66.266852 
L 257.734103 66.266852 
L 257.915572 61.006697 
L 259.367324 61.006697 
L 259.548793 89.802197 
L 261.454218 89.802197 
L 261.635687 92.712488 
L 265.265067 92.712488 
L 265.446536 94.398727 
L 266.626085 94.398727 
L 266.807554 112.526447 
L 272.614563 112.526447 
L 272.796032 78.043463 
L 274.519987 78.043463 
L 274.701456 74.889844 
L 274.97366 74.889844 
L 275.155129 75.277068 
L 282.686093 75.277068 
L 282.867562 61.538777 
L 287.585757 61.538777 
L 287.767226 60.003529 
L 288.130164 60.003529 
L 288.220899 67.830651 
L 288.311633 66.423813 
L 288.674571 66.423813 
L 288.85604 68.79077 
L 290.489261 68.79077 
L 290.67073 68.512438 
L 291.305872 68.512438 
L 291.487341 60.805327 
L 291.578075 60.805327 
L 291.759544 66.819501 
L 294.118642 66.819501 
L 294.300111 77.6825 
L 295.570394 77.6825 
L 295.751863 67.06139 
L 298.11096 67.06139 
L 298.292429 73.313075 
L 298.473898 73.313075 
L 298.655367 78.09744 
L 302.194013 78.09744 
L 302.375482 84.294273 
L 303.101358 84.294273 
L 303.282827 122.625307 
L 306.54927 122.625307 
L 306.730739 120.323287 
L 308.454694 120.323287 
L 308.636163 125.313636 
L 314.987579 125.313636 
L 315.169048 90.89973 
L 316.348597 90.89973 
L 316.530066 80.370551 
L 316.711535 80.370551 
L 316.893004 74.966791 
L 324.696172 74.966791 
L 324.877641 73.991973 
L 325.694251 73.991973 
L 325.87572 75.217362 
L 327.055269 75.217362 
L 327.146004 68.661452 
L 327.327473 53.580193 
L 331.591995 53.580193 
L 331.773464 76.735212 
L 342.933808 76.735212 
L 343.115277 80.25429 
L 344.385561 80.25429 
L 344.56703 76.406661 
L 345.111437 76.406661 
L 345.292906 75.478283 
L 346.472454 75.478283 
L 346.653923 61.473324 
L 350.0111 61.473324 
L 350.192569 57.257412 
L 350.736976 57.257412 
L 350.918445 84.612977 
L 355.092233 84.612977 
L 355.182967 81.85306 
L 355.364436 46.15273 
L 356.181047 46.15273 
L 356.362516 67.013602 
L 357.814268 67.013602 
L 357.995737 100.199593 
L 360.2641 100.199593 
L 360.445569 99.894264 
L 364.256418 99.894264 
L 364.437887 88.715132 
L 364.528622 88.715132 
L 364.710091 74.848529 
L 364.982294 74.848529 
L 365.163763 73.640167 
L 365.435967 73.640167 
L 365.617436 77.495789 
L 366.796985 77.495789 
L 366.978454 81.267388 
L 367.613595 81.267388 
L 367.795064 79.667929 
L 367.885799 79.667929 
L 368.067268 80.269063 
L 371.878117 80.269063 
L 372.059586 58.131415 
L 372.422524 58.131415 
L 372.603993 35.977747 
L 373.874276 35.977747 
L 374.055746 57.573206 
L 374.237215 75.425656 
L 375.053825 75.425656 
L 375.235294 77.662967 
L 378.229533 77.662967 
L 378.411002 80.037022 
L 381.495975 80.037022 
L 381.677444 83.522477 
L 383.219931 83.522477 
L 383.4014 88.46279 
L 383.582869 82.869153 
L 387.665922 82.869153 
L 387.847391 78.121939 
L 387.938126 78.121939 
L 388.119595 91.065098 
L 389.208409 91.065098 
L 389.389878 95.041003 
L 390.750895 95.041003 
L 390.932364 89.78068 
L 391.023099 89.78068 
L 391.204568 81.109706 
L 393.563665 81.109706 
L 393.745134 75.857583 
L 394.380276 75.857583 
L 394.561745 76.559333 
L 397.193046 76.559333 
L 397.374515 68.546574 
L 400.368754 68.546574 
L 400.550223 68.985743 
L 400.731692 68.434747 
L 401.820506 68.434747 
L 402.001975 90.202698 
L 407.990452 90.202698 
L 408.171921 78.238474 
L 409.442205 78.238474 
L 409.623674 77.374592 
L 410.803222 77.374592 
L 410.984691 78.493778 
L 413.071585 78.493778 
L 413.253054 67.234324 
L 414.069665 67.234324 
L 414.251134 68.869182 
L 418.969328 68.869182 
L 419.150797 90.011377 
L 426.863231 90.011377 
L 427.0447 91.827602 
L 428.042779 91.827602 
L 428.224248 92.72065 
L 429.040859 92.72065 
L 429.222328 78.542151 
L 429.948204 78.542151 
L 430.129673 83.757317 
L 430.220408 83.757317 
L 430.401877 74.511274 
L 432.035098 74.511274 
L 432.216567 75.841715 
L 432.851708 75.841715 
L 432.942443 77.961589 
L 433.123912 63.039239 
L 435.120071 63.039239 
L 435.30154 75.360751 
L 435.573744 75.360751 
L 435.755213 74.361688 
L 443.195443 74.361688 
L 443.376912 84.699894 
L 445.010133 84.699894 
L 445.191602 66.136023 
L 445.55454 66.136023 
L 445.645274 65.475293 
L 445.826743 59.124616 
L 448.276575 59.124616 
L 448.458044 45.512366 
L 450.091265 45.512366 
L 450.272734 61.104796 
L 450.544938 61.104796 
L 450.726407 62.874345 
L 452.087425 62.874345 
L 452.268894 69.641905 
L 459.255451 69.641905 
L 459.43692 69.458308 
L 463.973645 69.458308 
L 464.155114 69.163029 
L 464.699522 69.163029 
L 464.880991 80.501315 
L 465.06246 53.365091 
L 467.69376 53.365091 
L 467.875229 28.786364 
L 481.848344 28.786364 
L 482.029813 59.789488 
L 483.753769 59.789488 
L 483.935238 67.305123 
L 484.116707 67.604815 
L 487.020211 67.604815 
L 487.20168 65.517501 
L 488.925636 65.517501 
L 489.107105 64.553817 
L 489.923715 64.553817 
L 490.105184 65.381365 
L 494.006768 65.381365 
L 494.188237 88.988014 
L 497.817618 88.988014 
L 497.999087 61.888546 
L 501.174795 61.888546 
L 501.356264 39.180077 
L 508.796494 39.180077 
L 508.977963 43.866731 
L 512.153671 43.866731 
L 512.33514 34.288277 
L 515.510847 34.288277 
L 515.692316 60.793969 
L 517.325538 60.793969 
L 517.416272 61.902781 
L 517.597741 93.118468 
L 524.675033 93.118468 
L 524.856502 65.55699 
L 525.400909 65.55699 
L 525.400909 65.55699 
" clip-path="url(#p9126579594)" style="fill: none; stroke: #000000; stroke-width: 1.5; stroke-linecap: square"/>
   </g>
   <g id="patch_3">
    <path d="M 49.14 130.14 
L 49.14 23.96 
" style="fill: none; stroke: #000000; stroke-width: 0.8; stroke-linejoin: miter; stroke-linecap: square"/>
   </g>
   <g id="patch_4">
    <path d="M 548.08 130.14 
L 548.08 23.96 
" style="fill: none; stroke: #000000; stroke-width: 0.8; stroke-linejoin: miter; stroke-linecap: square"/>
   </g>
   <g id="patch_5">
    <path d="M 49.14 130.14 
L 548.08 130.14 
" style="fill: none; stroke: #000000; stroke-width: 0.8; stroke-linejoin: miter; stroke-linecap: square"/>
   </g>
   <g id="patch_6">
    <path d="M 49.14 23.96 
L 548.08 23.96 
" style="fill: none; stroke: #000000; stroke-width: 0.8; stroke-linejoin: miter; stroke-linecap: square"/>
   </g>
  </g>
  <g id="axes_2">
   <g id="patch_7">
    <path d="M 49.14 266.4 
L 548.08 266.4 
L 548.08 160.22 
L 49.14 160.22 
z
" style="fill: #ffffff"/>
   </g>
   <g id="matplotlib.axis_3">
    <g id="xtick_7">
     <g id="line2d_13">
      <g>
       <use xlink:href="#m30800b369e" x="71.819091" y="266.4" style="stroke: #000000; stroke-width: 0.8"/>
      </g>
     </g>
    </g>
    <g id="xtick_8">
     <g id="line2d_14">
      <g>
       <use xlink:href="#m30800b369e" x="162.553601" y="266.4" style="stroke: #000000; stroke-width: 0.8"/>
      </g>
     </g>
    </g>
    <g id="xtick_9">
     <g id="line2d_15">
      <g>
       <use xlink:href="#m30800b369e" x="253.288112" y="266.4" style="stroke: #000000; stroke-width: 0.8"/>
      </g>
     </g>
    </g>
    <g id="xtick_10">
     <g id="line2d_16">
      <g>
       <use xlink:href="#m30800b369e" x="344.022623" y="266.4" style="stroke: #000000; stroke-width: 0.8"/>
      </g>
     </g>
    </g>
    <g id="xtick_11">
     <g id="line2d_17">
      <g>
       <use xlink:href="#m30800b369e" x="434.757133" y="266.4" style="stroke: #000000; stroke-width: 0.8"/>
      </g>
     </g>
    </g>
    <g id="xtick_12">
     <g id="line2d_18">
      <g>
       <use xlink:href="#m30800b369e" x="525.491644" y="266.4" style="stroke: #000000; stroke-width: 0.8"/>
      </g>
     </g>
    </g>
   </g>
   <g id="matplotlib.axis_4">
    <g id="ytick_6">
     <g id="line2d_19">
      <g>
       <use xlink:href="#m57eaf66161" x="49.14" y="258.294277" style="stroke: #000000; stroke-width: 0.8"/>
      </g>
     </g>
     <g id="text_7">
      <!-- −1 -->
      <g transform="translate(27.397813 262.093496) scale(0.1 -0.1)">
       <defs>
        <path id="DejaVuSans-31" d="M 794 531 
L 1825 531 
L 1825 4091 
L 703 3866 
L 703 4441 
L 1819 4666 
L 2450 4666 
L 2450 531 
L 3481 531 
L 3481 0 
L 794 0 
L 794 531 
z
" transform="scale(0.015625)"/>
       </defs>
       <use xlink:href="#DejaVuSans-2212"/>
       <use xlink:href="#DejaVuSans-31" x="83.789062"/>
      </g>
     </g>
    </g>
    <g id="ytick_7">
     <g id="line2d_20">
      <g>
       <use xlink:href="#m57eaf66161" x="49.14" y="218.840629" style="stroke: #000000; stroke-width: 0.8"/>
      </g>
     </g>
     <g id="text_8">
      <!-- 0 -->
      <g transform="translate(35.7775 222.639848) scale(0.1 -0.1)">
       <use xlink:href="#DejaVuSans-30"/>
      </g>
     </g>
    </g>
    <g id="ytick_8">
     <g id="line2d_21">
      <g>
       <use xlink:href="#m57eaf66161" x="49.14" y="179.386982" style="stroke: #000000; stroke-width: 0.8"/>
      </g>
     </g>
     <g id="text_9">
      <!-- 1 -->
      <g transform="translate(35.7775 183.1862) scale(0.1 -0.1)">
       <use xlink:href="#DejaVuSans-31"/>
      </g>
     </g>
    </g>
    <g id="text_10">
     <!-- $\kappa$ -->
     <g transform="translate(555.13 220.908438) scale(0.1 -0.1)">
      <defs>
       <path id="DejaVuSans-Oblique-3ba" d="M 938 3500 
L 1531 3500 
L 1247 2047 
L 3041 3500 
L 3741 3500 
L 2106 2181 
L 3275 0 
L 2572 0 
L 1628 1806 
L 1122 1403 
L 850 0 
L 256 0 
L 938 3500 
z
" transform="scale(0.015625)"/>
      </defs>
      <use xlink:href="#DejaVuSans-Oblique-3ba" transform="translate(0 0.3125)"/>
     </g>
    </g>
   </g>
   <g id="line2d_22">
    <path d="M 71.819091 254.999492 
L 71.909825 254.999492 
L 72.091294 247.266073 
L 73.996719 247.266073 
L 74.178188 261.573636 
L 74.631861 261.573636 
L 74.81333 255.982339 
L 77.807569 255.982339 
L 77.989038 231.580958 
L 78.987117 231.580958 
L 79.168586 233.005143 
L 80.892542 233.005143 
L 81.074011 223.553973 
L 83.523843 223.553973 
L 83.705312 223.276498 
L 86.245878 223.276498 
L 86.427347 222.82135 
L 87.606896 222.82135 
L 87.788365 199.059304 
L 88.604975 199.059304 
L 88.786444 227.257896 
L 88.967913 192.945562 
L 89.965993 192.945562 
L 90.147462 214.928112 
L 90.5104 214.928112 
L 90.691869 211.132377 
L 91.50848 211.132377 
L 91.689949 215.051908 
L 91.871418 181.583663 
L 94.139781 181.583663 
L 94.593453 233.785983 
L 95.773002 233.785983 
L 95.954471 207.743512 
L 96.13594 230.614691 
L 96.317409 226.857555 
L 96.589612 226.857555 
L 96.771081 228.225785 
L 98.132099 228.225785 
L 98.222833 236.280412 
L 98.404302 257.026511 
L 101.761479 257.026511 
L 101.942948 249.360891 
L 105.572329 249.360891 
L 105.753798 235.555019 
L 105.935267 233.612808 
L 106.20747 233.612808 
L 106.388939 221.400203 
L 107.659223 221.400203 
L 107.840692 224.305955 
L 110.290523 224.327133 
L 110.471992 225.331291 
L 111.923745 225.331291 
L 112.105214 227.86281 
L 113.375497 227.86281 
L 113.556966 224.829456 
L 113.738435 243.563779 
L 114.192107 243.563779 
L 114.373576 234.327769 
L 115.825329 234.327769 
L 116.006798 226.240703 
L 119.001036 226.240703 
L 119.182505 238.234103 
L 119.454709 238.234103 
L 119.636178 249.523114 
L 119.908381 249.523114 
L 120.089851 232.960054 
L 124.082169 232.960054 
L 124.263638 228.500562 
L 124.445107 226.703557 
L 128.255956 226.703557 
L 128.437425 214.128266 
L 129.616974 214.128266 
L 129.798443 213.670445 
L 131.794602 213.670445 
L 131.976071 213.823066 
L 135.96839 213.823066 
L 136.149859 203.926218 
L 140.59585 203.926218 
L 140.777319 206.382187 
L 144.769637 206.382187 
L 144.951106 227.080812 
L 145.586248 227.080812 
L 145.767717 224.182015 
L 146.039921 224.182015 
L 146.22139 223.202427 
L 146.856531 223.202427 
L 147.038 228.546022 
L 147.128735 228.546022 
L 147.219469 243.28962 
L 147.400938 197.538604 
L 147.673142 197.538604 
L 147.854611 202.491144 
L 148.03608 202.491144 
L 148.217549 202.250006 
L 148.580487 202.250006 
L 148.761956 235.186779 
L 149.85077 235.186779 
L 150.032239 225.789454 
L 151.846929 225.789454 
L 152.028398 224.485086 
L 152.482071 224.50372 
L 152.66354 233.446311 
L 157.472469 233.446311 
L 157.653938 206.704147 
L 157.744672 206.704147 
L 157.926141 232.46752 
L 158.10761 238.068135 
L 158.289079 238.068135 
L 158.470548 234.234234 
L 159.650097 234.234234 
L 159.831566 230.939186 
L 161.464787 230.939186 
L 161.646256 228.204668 
L 162.462867 228.204668 
L 162.644336 250.173502 
L 163.279478 250.173502 
L 163.460947 204.33784 
L 163.551681 204.33784 
L 163.73315 206.562297 
L 164.73123 206.562297 
L 164.912699 203.897629 
L 166.54592 203.897629 
L 166.636654 198.297529 
L 166.818123 208.314765 
L 168.905017 208.314765 
L 169.086486 212.89243 
L 169.449424 212.89243 
L 169.630893 248.690344 
L 171.989991 248.690344 
L 172.17146 239.945699 
L 174.530557 239.945699 
L 174.712026 229.627582 
L 176.526716 229.627582 
L 176.708185 221.288822 
L 181.517114 221.288822 
L 181.698583 220.711299 
L 183.513273 220.711299 
L 183.694742 221.085268 
L 185.327964 221.085268 
L 185.509433 204.861906 
L 189.411017 204.861906 
L 189.592486 213.899847 
L 189.773955 215.150829 
L 190.772034 215.150829 
L 190.953503 229.756965 
L 191.225707 229.756965 
L 191.407176 222.343197 
L 192.405255 222.343197 
L 192.586724 242.196106 
L 193.675539 242.196106 
L 193.857008 207.044809 
L 194.673618 207.044809 
L 194.855087 216.413283 
L 203.111928 216.413283 
L 203.293397 216.232547 
L 209.009671 216.232547 
L 209.19114 213.556707 
L 209.644812 213.556707 
L 209.826281 215.238805 
L 212.00391 215.238805 
L 212.185379 223.263106 
L 213.364927 223.263106 
L 213.546396 181.697782 
L 220.532954 181.697782 
L 220.714423 257.265519 
L 221.621768 257.265519 
L 221.803237 227.665895 
L 222.710582 227.665895 
L 222.892051 237.76359 
L 229.878608 237.76359 
L 230.060077 245.183732 
L 230.967422 245.183732 
L 231.148891 254.348669 
L 231.33036 251.321976 
L 235.322679 251.321976 
L 235.504148 245.12927 
L 236.592962 245.12927 
L 236.774431 228.359203 
L 237.409573 228.359203 
L 237.591042 210.83911 
L 238.226183 210.83911 
L 238.407652 209.22635 
L 239.496466 209.22635 
L 239.677935 207.301103 
L 240.585281 207.301103 
L 240.76675 234.57896 
L 240.948219 247.064594 
L 245.122006 247.075301 
L 245.303475 216.620608 
L 247.118165 216.620608 
L 247.299634 215.66008 
L 256.917492 215.66008 
L 257.098961 207.13958 
L 257.189696 207.13958 
L 257.371165 214.516715 
L 257.461899 214.516715 
L 257.643368 204.669999 
L 257.734103 204.669999 
L 257.915572 211.870416 
L 259.367324 211.870416 
L 259.548793 222.459336 
L 261.454218 222.459336 
L 261.635687 221.898998 
L 265.265067 221.898998 
L 265.446536 221.606217 
L 266.626085 221.606217 
L 266.807554 220.716781 
L 272.614563 220.716781 
L 272.796032 228.882075 
L 274.519987 228.882075 
L 274.701456 237.801436 
L 274.97366 237.801436 
L 275.155129 235.131573 
L 282.686093 235.131573 
L 282.867562 211.630087 
L 287.585757 211.630087 
L 287.767226 212.406199 
L 288.130164 212.406199 
L 288.220899 195.072412 
L 288.402368 201.330905 
L 288.674571 201.330905 
L 288.85604 189.243242 
L 290.489261 189.243242 
L 290.67073 186.535501 
L 291.305872 186.535501 
L 291.487341 211.809996 
L 291.578075 211.809996 
L 291.759544 203.026245 
L 294.118642 203.026245 
L 294.300111 228.60367 
L 295.570394 228.60367 
L 295.751863 201.081683 
L 298.11096 201.081683 
L 298.292429 250.69753 
L 298.473898 250.69753 
L 298.655367 229.710142 
L 302.194013 229.710142 
L 302.375482 224.353299 
L 303.101358 224.353299 
L 303.282827 220.177247 
L 314.987579 220.130364 
L 315.169048 222.256421 
L 316.348597 222.256421 
L 316.530066 227.100418 
L 316.711535 227.100418 
L 316.893004 236.638745 
L 324.696172 236.638745 
L 324.877641 241.163435 
L 325.694251 241.163435 
L 325.87572 237.570173 
L 327.055269 237.570173 
L 327.146004 185.560033 
L 327.327473 214.316922 
L 331.591995 214.316922 
L 331.773464 231.193754 
L 342.933808 231.193754 
L 343.115277 226.088931 
L 344.385561 226.088931 
L 344.56703 231.494174 
L 345.111437 231.494174 
L 345.292906 237.083077 
L 346.472454 237.083077 
L 346.653923 210.864083 
L 350.0111 210.864083 
L 350.192569 213.146602 
L 350.736976 213.146602 
L 350.918445 223.932553 
L 355.092233 223.932553 
L 355.182967 224.828976 
L 355.364436 216.041958 
L 356.181047 216.041958 
L 356.362516 201.638084 
L 357.814268 201.638084 
L 357.995737 220.901144 
L 360.2641 220.901144 
L 360.445569 221.47282 
L 364.256418 221.47282 
L 364.437887 222.393354 
L 364.528622 222.393354 
L 364.710091 234.49485 
L 364.982294 234.49485 
L 365.163763 245.307833 
L 365.435967 245.307833 
L 365.617436 230.914312 
L 366.796985 230.914312 
L 366.978454 226.569042 
L 367.613595 226.569042 
L 367.795064 227.206177 
L 367.885799 227.206177 
L 368.067268 226.554602 
L 371.878117 226.554602 
L 372.059586 212.674205 
L 372.422524 212.674205 
L 372.603993 216.932739 
L 373.874276 216.932739 
L 374.055746 212.776657 
L 374.14648 251.792763 
L 374.327949 232.962966 
L 375.053825 232.962966 
L 375.235294 229.917124 
L 378.229533 229.917124 
L 378.411002 226.508794 
L 381.495975 226.508794 
L 381.677444 224.395099 
L 383.219931 224.395099 
L 383.4014 223.284989 
L 383.582869 224.971116 
L 387.665922 224.971116 
L 387.847391 228.90631 
L 387.938126 228.90631 
L 388.119595 222.064813 
L 390.750895 221.960933 
L 390.932364 223.140784 
L 391.023099 223.140784 
L 391.204568 226.266629 
L 393.563665 226.266629 
L 393.745134 232.091087 
L 394.380276 232.091087 
L 394.561745 231.143799 
L 397.193046 231.143799 
L 397.374515 190.523295 
L 400.368754 190.523295 
L 400.550223 186.577571 
L 400.731692 190.557022 
L 401.820506 190.557022 
L 402.001975 222.704401 
L 407.990452 222.704401 
L 408.171921 227.414677 
L 409.442205 227.414677 
L 409.623674 228.617719 
L 410.803222 228.617719 
L 410.984691 227.125167 
L 413.071585 227.125167 
L 413.253054 202.167887 
L 414.069665 202.167887 
L 414.251134 184.319008 
L 418.969328 184.319008 
L 419.150797 222.813801 
L 426.863231 222.813801 
L 427.0447 222.619861 
L 428.042779 222.619861 
L 428.224248 221.94886 
L 429.040859 221.94886 
L 429.222328 227.934924 
L 429.948204 227.934924 
L 430.129673 224.951155 
L 430.220408 224.951155 
L 430.401877 236.841228 
L 432.035098 236.841228 
L 432.216567 233.484963 
L 432.851708 233.484963 
L 432.942443 227.94407 
L 433.123912 210.450092 
L 435.120071 210.450092 
L 435.30154 239.357074 
L 435.573744 239.357074 
L 435.755213 239.137193 
L 443.195443 239.137193 
L 443.376912 223.919028 
L 445.010133 223.919028 
L 445.191602 203.495601 
L 445.55454 203.495601 
L 445.645274 206.435345 
L 445.826743 213.109704 
L 448.276575 213.109704 
L 448.458044 216.308948 
L 450.091265 216.308948 
L 450.272734 211.598565 
L 452.087425 211.546396 
L 452.268894 165.046364 
L 459.255451 165.046364 
L 459.43692 176.405223 
L 463.973645 176.405223 
L 464.155114 174.842299 
L 464.699522 174.842299 
L 464.880991 226.698907 
L 465.06246 214.710634 
L 467.69376 214.710634 
L 467.875229 217.214183 
L 481.848344 217.214183 
L 482.029813 212.364034 
L 483.753769 212.364034 
L 483.935238 200.240572 
L 484.116707 196.459817 
L 487.020211 196.459817 
L 487.20168 204.078088 
L 488.925636 204.078088 
L 489.107105 207.449992 
L 489.923715 207.449992 
L 490.105184 206.191612 
L 494.006768 206.191612 
L 494.097503 227.1683 
L 494.188237 222.641758 
L 497.817618 222.641758 
L 497.999087 210.750026 
L 501.174795 210.750026 
L 501.356264 216.125388 
L 508.796494 216.125388 
L 508.977963 216.533879 
L 512.153671 216.533879 
L 512.33514 216.826532 
L 515.510847 216.826532 
L 515.692316 211.388821 
L 517.325538 211.388821 
L 517.416272 212.564398 
L 517.597741 222.398247 
L 524.675033 222.398247 
L 524.856502 204.533271 
L 525.400909 204.533271 
L 525.400909 204.533271 
" clip-path="url(#p3b876af445)" style="fill: none; stroke: #000000; stroke-width: 1.5; stroke-linecap: square"/>
   </g>
   <g id="patch_8">
    <path d="M 49.14 266.4 
L 49.14 160.22 
" style="fill: none; stroke: #000000; stroke-width: 0.8; stroke-linejoin: miter; stroke-linecap: square"/>
   </g>
   <g id="patch_9">
    <path d="M 548.08 266.4 
L 548.08 160.22 
" style="fill: none; stroke: #000000; stroke-width: 0.8; stroke-linejoin: miter; stroke-linecap: square"/>
   </g>
   <g id="patch_10">
    <path d="M 49.14 266.4 
L 548.08 266.4 
" style="fill: none; stroke: #000000; stroke-width: 0.8; stroke-linejoin: miter; stroke-linecap: square"/>
   </g>
   <g id="patch_11">
    <path d="M 49.14 160.22 
L 548.08 160.22 
" style="fill: none; stroke: #000000; stroke-width: 0.8; stroke-linejoin: miter; stroke-linecap: square"/>
   </g>
  </g>
  <g id="axes_3">
   <g id="patch_12">
    <path d="M 49.14 402.66 
L 548.08 402.66 
L 548.08 296.48 
L 49.14 296.48 
z
" style="fill: #ffffff"/>
   </g>
   <g id="matplotlib.axis_5">
    <g id="xtick_13">
     <g id="line2d_23">
      <g>
       <use xlink:href="#m30800b369e" x="71.819091" y="402.66" style="stroke: #000000; stroke-width: 0.8"/>
      </g>
     </g>
    </g>
    <g id="xtick_14">
     <g id="line2d_24">
      <g>
       <use xlink:href="#m30800b369e" x="162.553601" y="402.66" style="stroke: #000000; stroke-width: 0.8"/>
      </g>
     </g>
    </g>
    <g id="xtick_15">
     <g id="line2d_25">
      <g>
       <use xlink:href="#m30800b369e" x="253.288112" y="402.66" style="stroke: #000000; stroke-width: 0.8"/>
      </g>
     </g>
    </g>
    <g id="xtick_16">
     <g id="line2d_26">
      <g>
       <use xlink:href="#m30800b369e" x="344.022623" y="402.66" style="stroke: #000000; stroke-width: 0.8"/>
      </g>
     </g>
    </g>
    <g id="xtick_17">
     <g id="line2d_27">
      <g>
       <use xlink:href="#m30800b369e" x="434.757133" y="402.66" style="stroke: #000000; stroke-width: 0.8"/>
      </g>
     </g>
    </g>
    <g id="xtick_18">
     <g id="line2d_28">
      <g>
       <use xlink:href="#m30800b369e" x="525.491644" y="402.66" style="stroke: #000000; stroke-width: 0.8"/>
      </g>
     </g>
    </g>
   </g>
   <g id="matplotlib.axis_6">
    <g id="ytick_9">
     <g id="line2d_29">
      <g>
       <use xlink:href="#m57eaf66161" x="49.14" y="395.309236" style="stroke: #000000; stroke-width: 0.8"/>
      </g>
     </g>
     <g id="text_11">
      <!-- 0.55 -->
      <g transform="translate(19.874375 399.108454) scale(0.1 -0.1)">
       <use xlink:href="#DejaVuSans-30"/>
       <use xlink:href="#DejaVuSans-2e" x="63.623047"/>
       <use xlink:href="#DejaVuSans-35" x="95.410156"/>
       <use xlink:href="#DejaVuSans-35" x="159.033203"/>
      </g>
     </g>
    </g>
    <g id="ytick_10">
     <g id="line2d_30">
      <g>
       <use xlink:href="#m57eaf66161" x="49.14" y="362.029768" style="stroke: #000000; stroke-width: 0.8"/>
      </g>
     </g>
     <g id="text_12">
      <!-- 0.60 -->
      <g transform="translate(19.874375 365.828987) scale(0.1 -0.1)">
       <defs>
        <path id="DejaVuSans-36" d="M 2113 2584 
Q 1688 2584 1439 2293 
Q 1191 2003 1191 1497 
Q 1191 994 1439 701 
Q 1688 409 2113 409 
Q 2538 409 2786 701 
Q 3034 994 3034 1497 
Q 3034 2003 2786 2293 
Q 2538 2584 2113 2584 
z
M 3366 4563 
L 3366 3988 
Q 3128 4100 2886 4159 
Q 2644 4219 2406 4219 
Q 1781 4219 1451 3797 
Q 1122 3375 1075 2522 
Q 1259 2794 1537 2939 
Q 1816 3084 2150 3084 
Q 2853 3084 3261 2657 
Q 3669 2231 3669 1497 
Q 3669 778 3244 343 
Q 2819 -91 2113 -91 
Q 1303 -91 875 529 
Q 447 1150 447 2328 
Q 447 3434 972 4092 
Q 1497 4750 2381 4750 
Q 2619 4750 2861 4703 
Q 3103 4656 3366 4563 
z
" transform="scale(0.015625)"/>
       </defs>
       <use xlink:href="#DejaVuSans-30"/>
       <use xlink:href="#DejaVuSans-2e" x="63.623047"/>
       <use xlink:href="#DejaVuSans-36" x="95.410156"/>
       <use xlink:href="#DejaVuSans-30" x="159.033203"/>
      </g>
     </g>
    </g>
    <g id="ytick_11">
     <g id="line2d_31">
      <g>
       <use xlink:href="#m57eaf66161" x="49.14" y="328.7503" style="stroke: #000000; stroke-width: 0.8"/>
      </g>
     </g>
     <g id="text_13">
      <!-- 0.65 -->
      <g transform="translate(19.874375 332.549519) scale(0.1 -0.1)">
       <use xlink:href="#DejaVuSans-30"/>
       <use xlink:href="#DejaVuSans-2e" x="63.623047"/>
       <use xlink:href="#DejaVuSans-36" x="95.410156"/>
       <use xlink:href="#DejaVuSans-35" x="159.033203"/>
      </g>
     </g>
    </g>
    <g id="text_14">
     <!-- $r$ -->
     <g transform="translate(555.98 357.168437) scale(0.1 -0.1)">
      <defs>
       <path id="DejaVuSans-Oblique-72" d="M 2853 2969 
Q 2766 3016 2653 3041 
Q 2541 3066 2413 3066 
Q 1953 3066 1609 2717 
Q 1266 2369 1153 1784 
L 800 0 
L 225 0 
L 909 3500 
L 1484 3500 
L 1375 2956 
Q 1603 3259 1920 3421 
Q 2238 3584 2597 3584 
Q 2691 3584 2781 3573 
Q 2872 3563 2963 3538 
L 2853 2969 
z
" transform="scale(0.015625)"/>
      </defs>
      <use xlink:href="#DejaVuSans-Oblique-72"/>
     </g>
    </g>
   </g>
   <g id="line2d_32">
    <path d="M 71.819091 343.76149 
L 71.909825 343.76149 
L 72.091294 363.608601 
L 73.996719 363.608601 
L 74.178188 356.171172 
L 74.631861 356.171172 
L 74.81333 343.544284 
L 77.807569 343.544284 
L 77.989038 346.994236 
L 78.987117 346.994236 
L 79.168586 332.901876 
L 80.892542 332.901876 
L 81.074011 357.888789 
L 83.523843 357.888789 
L 83.705312 362.559838 
L 86.245878 362.559838 
L 86.427347 362.429451 
L 87.606896 362.429451 
L 87.788365 356.163657 
L 88.604975 356.163657 
L 88.786444 359.138393 
L 88.967913 372.300216 
L 89.965993 372.300216 
L 90.147462 376.195362 
L 90.5104 376.195362 
L 90.691869 356.865096 
L 91.50848 356.865096 
L 91.689949 360.758234 
L 91.871418 379.187833 
L 94.139781 379.187833 
L 94.411984 360.646355 
L 95.773002 360.646355 
L 96.13594 331.992867 
L 96.317409 356.081778 
L 96.589612 356.081778 
L 96.771081 344.103489 
L 98.132099 344.103489 
L 98.222833 352.935775 
L 98.404302 340.237451 
L 101.761479 340.237451 
L 101.942948 350.988464 
L 105.572329 350.988464 
L 105.753798 350.851443 
L 105.935267 380.325087 
L 106.20747 380.325087 
L 106.388939 385.467071 
L 107.659223 385.467071 
L 107.840692 362.736274 
L 109.292444 362.736274 
L 109.473913 366.575943 
L 110.290523 366.575943 
L 110.471992 335.971514 
L 111.923745 335.971514 
L 112.105214 348.471572 
L 113.375497 348.471572 
L 113.6477 320.591063 
L 114.192107 320.591063 
L 114.373576 330.008019 
L 115.825329 330.008019 
L 116.006798 331.250403 
L 119.001036 331.250403 
L 119.182505 328.026794 
L 119.454709 328.026794 
L 119.636178 365.884731 
L 119.908381 365.884731 
L 120.089851 378.599731 
L 124.082169 378.599731 
L 124.354373 359.261339 
L 128.255956 359.261339 
L 128.437425 381.124157 
L 129.616974 381.124157 
L 129.798443 382.020533 
L 131.794602 382.020533 
L 131.976071 388.307218 
L 135.96839 388.307218 
L 136.149859 362.237729 
L 140.59585 362.237729 
L 140.777319 372.469384 
L 144.769637 372.469384 
L 144.951106 361.467931 
L 145.586248 361.467931 
L 145.767717 351.160982 
L 146.039921 351.160982 
L 146.22139 361.187405 
L 146.856531 361.187405 
L 147.038 368.207266 
L 147.128735 368.207266 
L 147.310204 353.914311 
L 147.673142 353.914311 
L 147.854611 347.081073 
L 148.03608 347.081073 
L 148.217549 374.943279 
L 148.580487 374.943279 
L 148.761956 378.721393 
L 149.85077 378.721393 
L 150.032239 378.956877 
L 151.846929 378.956877 
L 152.028398 354.345797 
L 152.300602 354.345797 
L 152.482071 356.887183 
L 152.66354 369.147785 
L 157.472469 369.147785 
L 157.653938 364.443362 
L 157.744672 364.443362 
L 157.926141 376.376977 
L 158.10761 363.214891 
L 158.289079 363.214891 
L 158.470548 339.150264 
L 159.650097 339.150264 
L 159.831566 329.477757 
L 161.464787 329.477757 
L 161.646256 365.679925 
L 162.462867 365.679925 
L 162.644336 368.707774 
L 163.279478 368.707774 
L 163.460947 384.895713 
L 163.551681 384.895713 
L 163.73315 372.662324 
L 164.73123 372.662324 
L 164.912699 375.378251 
L 166.54592 375.378251 
L 166.636654 369.267318 
L 166.818123 374.880212 
L 168.905017 374.880212 
L 169.086486 397.833636 
L 169.449424 397.833636 
L 169.630893 372.560905 
L 171.989991 372.560905 
L 172.17146 374.775574 
L 174.530557 374.775574 
L 174.712026 361.455366 
L 176.526716 361.455366 
L 176.708185 339.959815 
L 181.517114 339.959815 
L 181.698583 354.628967 
L 183.513273 354.628967 
L 183.694742 336.602278 
L 185.327964 336.602278 
L 185.509433 347.456869 
L 189.411017 347.456869 
L 189.592486 361.651947 
L 189.773955 371.164264 
L 190.772034 371.164264 
L 190.953503 361.732681 
L 191.225707 361.732681 
L 191.407176 358.271571 
L 192.405255 358.271571 
L 192.586724 376.1215 
L 193.675539 376.1215 
L 193.857008 362.186222 
L 194.673618 362.186222 
L 194.855087 353.171567 
L 203.111928 353.171567 
L 203.293397 355.534865 
L 209.009671 355.534865 
L 209.19114 341.52741 
L 209.644812 341.52741 
L 209.826281 341.108443 
L 212.00391 341.108443 
L 212.185379 339.452185 
L 213.364927 339.452185 
L 213.546396 366.158724 
L 220.532954 366.158724 
L 220.714423 367.891104 
L 221.621768 367.891104 
L 221.803237 348.079066 
L 222.710582 348.079066 
L 222.892051 353.212739 
L 229.878608 353.212739 
L 230.060077 343.365822 
L 230.967422 343.365822 
L 231.148891 354.225372 
L 231.33036 349.300587 
L 235.322679 349.300587 
L 235.504148 353.546529 
L 236.592962 353.546529 
L 236.774431 346.128497 
L 237.409573 346.128497 
L 237.591042 343.073865 
L 238.226183 343.073865 
L 238.407652 359.476336 
L 239.496466 359.476336 
L 239.677935 374.765835 
L 240.585281 374.765835 
L 240.948219 354.553511 
L 244.305395 354.553511 
L 244.486864 353.724571 
L 245.122006 353.724571 
L 245.303475 360.363105 
L 247.118165 360.363105 
L 247.299634 354.651629 
L 256.917492 354.651629 
L 257.098961 361.579074 
L 257.189696 361.579074 
L 257.371165 378.716939 
L 257.461899 378.716939 
L 257.643368 372.983427 
L 257.734103 372.983427 
L 257.915572 343.283104 
L 259.367324 343.283104 
L 259.548793 354.16488 
L 261.454218 354.16488 
L 261.635687 349.936886 
L 265.265067 349.936886 
L 265.446536 369.707713 
L 266.626085 369.707713 
L 266.807554 370.320291 
L 272.614563 370.320291 
L 272.796032 351.915323 
L 274.519987 351.915323 
L 274.701456 340.128985 
L 274.97366 340.128985 
L 275.155129 363.183262 
L 282.686093 363.183262 
L 282.867562 351.031981 
L 287.585757 351.031981 
L 287.767226 357.562012 
L 288.130164 357.562012 
L 288.220899 339.683868 
L 288.402368 356.374796 
L 288.674571 356.374796 
L 288.85604 345.595614 
L 290.489261 345.595614 
L 290.67073 352.258156 
L 291.305872 352.258156 
L 291.487341 349.219923 
L 291.578075 349.219923 
L 291.759544 354.839815 
L 294.118642 354.839815 
L 294.300111 355.450304 
L 295.570394 355.450304 
L 295.751863 362.025063 
L 298.11096 362.025063 
L 298.292429 363.069384 
L 298.473898 363.069384 
L 298.655367 360.312203 
L 302.194013 360.312203 
L 302.375482 368.979574 
L 303.101358 368.979574 
L 303.282827 378.324909 
L 306.54927 378.324909 
L 306.730739 356.067778 
L 308.454694 356.067778 
L 308.636163 353.008042 
L 314.987579 353.008042 
L 315.169048 301.306364 
L 316.348597 301.306364 
L 316.530066 351.781735 
L 316.711535 351.781735 
L 316.893004 336.673406 
L 324.696172 336.673406 
L 324.877641 358.989144 
L 325.694251 358.989144 
L 325.87572 364.353961 
L 327.055269 364.353961 
L 327.146004 364.681798 
L 327.327473 367.74828 
L 331.591995 367.74828 
L 331.773464 361.817279 
L 342.933808 361.817279 
L 343.115277 358.076939 
L 344.385561 358.076939 
L 344.56703 345.950841 
L 345.111437 345.950841 
L 345.292906 361.294645 
L 346.472454 361.294645 
L 346.653923 355.241883 
L 350.0111 355.241883 
L 350.192569 352.961518 
L 350.736976 352.961518 
L 350.918445 386.192076 
L 355.092233 386.192076 
L 355.182967 361.449982 
L 355.364436 378.115425 
L 356.181047 378.115425 
L 356.362516 377.779802 
L 357.814268 377.779802 
L 357.995737 378.726294 
L 360.2641 378.726294 
L 360.445569 375.154414 
L 364.256418 375.154414 
L 364.437887 358.816859 
L 364.528622 358.816859 
L 364.710091 361.439675 
L 364.982294 361.439675 
L 365.163763 362.88294 
L 365.435967 362.88294 
L 365.617436 355.679551 
L 366.796985 355.679551 
L 366.978454 346.330853 
L 367.613595 346.330853 
L 367.795064 334.12891 
L 367.885799 334.12891 
L 368.067268 345.44558 
L 371.878117 345.44558 
L 372.059586 344.895337 
L 372.422524 344.895337 
L 372.603993 340.300176 
L 373.874276 340.300176 
L 374.055746 369.618861 
L 374.327949 341.244126 
L 375.053825 341.244126 
L 375.235294 348.400564 
L 378.229533 348.400564 
L 378.411002 362.075603 
L 381.495975 362.075603 
L 381.677444 355.568487 
L 383.219931 355.568487 
L 383.4014 339.3495 
L 383.582869 361.91695 
L 387.665922 361.91695 
L 387.847391 366.201539 
L 387.938126 366.201539 
L 388.119595 360.014045 
L 389.208409 360.014045 
L 389.389878 355.305924 
L 390.750895 355.305924 
L 390.932364 354.40661 
L 391.023099 354.40661 
L 391.204568 340.135671 
L 393.563665 340.135671 
L 393.745134 347.915196 
L 394.380276 347.915196 
L 394.561745 335.501743 
L 397.193046 335.501743 
L 397.374515 355.291776 
L 400.368754 355.291776 
L 400.550223 357.120686 
L 400.731692 347.851311 
L 401.820506 347.851311 
L 402.001975 357.63208 
L 407.990452 357.63208 
L 408.171921 362.575822 
L 409.442205 362.575822 
L 409.623674 350.867829 
L 410.803222 350.867829 
L 410.984691 358.289203 
L 413.071585 358.289203 
L 413.253054 344.996427 
L 414.069665 344.996427 
L 414.251134 350.829295 
L 418.969328 350.829295 
L 419.150797 361.670028 
L 426.863231 361.670028 
L 427.0447 362.868847 
L 428.042779 362.868847 
L 428.224248 353.018038 
L 429.948204 353.086786 
L 430.129673 358.69216 
L 430.220408 358.69216 
L 430.401877 351.847385 
L 432.035098 351.847385 
L 432.216567 340.68877 
L 432.851708 340.68877 
L 433.033177 342.498113 
L 435.120071 342.498113 
L 435.30154 351.269282 
L 435.573744 351.269282 
L 435.755213 318.876786 
L 443.195443 318.876786 
L 443.376912 312.997453 
L 445.010133 312.997453 
L 445.191602 325.940036 
L 445.55454 325.940036 
L 445.645274 332.031525 
L 445.826743 326.544197 
L 448.276575 326.544197 
L 448.458044 361.673867 
L 450.091265 361.673867 
L 450.272734 351.234863 
L 450.544938 351.234863 
L 450.726407 337.889184 
L 452.087425 337.889184 
L 452.268894 355.545763 
L 459.255451 355.545763 
L 459.43692 343.454778 
L 463.973645 343.454778 
L 464.155114 353.113807 
L 464.699522 353.113807 
L 465.153194 373.048909 
L 467.69376 373.048909 
L 467.875229 381.222397 
L 481.848344 381.222397 
L 482.029813 390.598693 
L 483.753769 390.598693 
L 483.935238 384.981643 
L 484.116707 380.939371 
L 487.020211 380.939371 
L 487.20168 359.393713 
L 488.925636 359.393713 
L 489.107105 350.993994 
L 489.923715 350.993994 
L 490.105184 370.957265 
L 494.006768 370.957265 
L 494.097503 367.556751 
L 494.278972 355.817693 
L 497.817618 355.817693 
L 497.999087 376.019267 
L 501.174795 376.019267 
L 501.356264 348.727966 
L 508.796494 348.727966 
L 508.977963 346.760418 
L 512.153671 346.760418 
L 512.33514 363.170417 
L 515.510847 363.170417 
L 515.692316 359.309639 
L 517.325538 359.309639 
L 517.416272 350.159613 
L 517.597741 365.42071 
L 524.675033 365.42071 
L 524.856502 357.785409 
L 525.400909 357.785409 
L 525.400909 357.785409 
" clip-path="url(#p8a914ed579)" style="fill: none; stroke: #000000; stroke-width: 1.5; stroke-linecap: square"/>
   </g>
   <g id="patch_13">
    <path d="M 49.14 402.66 
L 49.14 296.48 
" style="fill: none; stroke: #000000; stroke-width: 0.8; stroke-linejoin: miter; stroke-linecap: square"/>
   </g>
   <g id="patch_14">
    <path d="M 548.08 402.66 
L 548.08 296.48 
" style="fill: none; stroke: #000000; stroke-width: 0.8; stroke-linejoin: miter; stroke-linecap: square"/>
   </g>
   <g id="patch_15">
    <path d="M 49.14 402.66 
L 548.08 402.66 
" style="fill: none; stroke: #000000; stroke-width: 0.8; stroke-linejoin: miter; stroke-linecap: square"/>
   </g>
   <g id="patch_16">
    <path d="M 49.14 296.48 
L 548.08 296.48 
" style="fill: none; stroke: #000000; stroke-width: 0.8; stroke-linejoin: miter; stroke-linecap: square"/>
   </g>
  </g>
  <g id="axes_4">
   <g id="patch_17">
    <path d="M 49.14 538.92 
L 548.08 538.92 
L 548.08 432.74 
L 49.14 432.74 
z
" style="fill: #ffffff"/>
   </g>
   <g id="matplotlib.axis_7">
    <g id="xtick_19">
     <g id="line2d_33">
      <g>
       <use xlink:href="#m30800b369e" x="71.819091" y="538.92" style="stroke: #000000; stroke-width: 0.8"/>
      </g>
     </g>
     <g id="text_15">
      <!-- 0 -->
      <g transform="translate(69.274091 551.99875) scale(0.08 -0.08)">
       <use xlink:href="#DejaVuSans-30"/>
      </g>
     </g>
    </g>
    <g id="xtick_20">
     <g id="line2d_34">
      <g>
       <use xlink:href="#m30800b369e" x="162.553601" y="538.92" style="stroke: #000000; stroke-width: 0.8"/>
      </g>
     </g>
     <g id="text_16">
      <!-- 1000 -->
      <g transform="translate(152.373601 551.99875) scale(0.08 -0.08)">
       <use xlink:href="#DejaVuSans-31"/>
       <use xlink:href="#DejaVuSans-30" x="63.623047"/>
       <use xlink:href="#DejaVuSans-30" x="127.246094"/>
       <use xlink:href="#DejaVuSans-30" x="190.869141"/>
      </g>
     </g>
    </g>
    <g id="xtick_21">
     <g id="line2d_35">
      <g>
       <use xlink:href="#m30800b369e" x="253.288112" y="538.92" style="stroke: #000000; stroke-width: 0.8"/>
      </g>
     </g>
     <g id="text_17">
      <!-- 2000 -->
      <g transform="translate(243.108112 551.99875) scale(0.08 -0.08)">
       <use xlink:href="#DejaVuSans-32"/>
       <use xlink:href="#DejaVuSans-30" x="63.623047"/>
       <use xlink:href="#DejaVuSans-30" x="127.246094"/>
       <use xlink:href="#DejaVuSans-30" x="190.869141"/>
      </g>
     </g>
    </g>
    <g id="xtick_22">
     <g id="line2d_36">
      <g>
       <use xlink:href="#m30800b369e" x="344.022623" y="538.92" style="stroke: #000000; stroke-width: 0.8"/>
      </g>
     </g>
     <g id="text_18">
      <!-- 3000 -->
      <g transform="translate(333.842623 551.99875) scale(0.08 -0.08)">
       <defs>
        <path id="DejaVuSans-33" d="M 2597 2516 
Q 3050 2419 3304 2112 
Q 3559 1806 3559 1356 
Q 3559 666 3084 287 
Q 2609 -91 1734 -91 
Q 1441 -91 1130 -33 
Q 819 25 488 141 
L 488 750 
Q 750 597 1062 519 
Q 1375 441 1716 441 
Q 2309 441 2620 675 
Q 2931 909 2931 1356 
Q 2931 1769 2642 2001 
Q 2353 2234 1838 2234 
L 1294 2234 
L 1294 2753 
L 1863 2753 
Q 2328 2753 2575 2939 
Q 2822 3125 2822 3475 
Q 2822 3834 2567 4026 
Q 2313 4219 1838 4219 
Q 1578 4219 1281 4162 
Q 984 4106 628 3988 
L 628 4550 
Q 988 4650 1302 4700 
Q 1616 4750 1894 4750 
Q 2613 4750 3031 4423 
Q 3450 4097 3450 3541 
Q 3450 3153 3228 2886 
Q 3006 2619 2597 2516 
z
" transform="scale(0.015625)"/>
       </defs>
       <use xlink:href="#DejaVuSans-33"/>
       <use xlink:href="#DejaVuSans-30" x="63.623047"/>
       <use xlink:href="#DejaVuSans-30" x="127.246094"/>
       <use xlink:href="#DejaVuSans-30" x="190.869141"/>
      </g>
     </g>
    </g>
    <g id="xtick_23">
     <g id="line2d_37">
      <g>
       <use xlink:href="#m30800b369e" x="434.757133" y="538.92" style="stroke: #000000; stroke-width: 0.8"/>
      </g>
     </g>
     <g id="text_19">
      <!-- 4000 -->
      <g transform="translate(424.577133 551.99875) scale(0.08 -0.08)">
       <defs>
        <path id="DejaVuSans-34" d="M 2419 4116 
L 825 1625 
L 2419 1625 
L 2419 4116 
z
M 2253 4666 
L 3047 4666 
L 3047 1625 
L 3713 1625 
L 3713 1100 
L 3047 1100 
L 3047 0 
L 2419 0 
L 2419 1100 
L 313 1100 
L 313 1709 
L 2253 4666 
z
" transform="scale(0.015625)"/>
       </defs>
       <use xlink:href="#DejaVuSans-34"/>
       <use xlink:href="#DejaVuSans-30" x="63.623047"/>
       <use xlink:href="#DejaVuSans-30" x="127.246094"/>
       <use xlink:href="#DejaVuSans-30" x="190.869141"/>
      </g>
     </g>
    </g>
    <g id="xtick_24">
     <g id="line2d_38">
      <g>
       <use xlink:href="#m30800b369e" x="525.491644" y="538.92" style="stroke: #000000; stroke-width: 0.8"/>
      </g>
     </g>
     <g id="text_20">
      <!-- 5000 -->
      <g transform="translate(515.311644 551.99875) scale(0.08 -0.08)">
       <use xlink:href="#DejaVuSans-35"/>
       <use xlink:href="#DejaVuSans-30" x="63.623047"/>
       <use xlink:href="#DejaVuSans-30" x="127.246094"/>
       <use xlink:href="#DejaVuSans-30" x="190.869141"/>
      </g>
     </g>
    </g>
    <g id="text_21">
     <!-- Sample Number -->
     <g transform="translate(258.186562 561.260938) scale(0.1 -0.1)">
      <defs>
       <path id="DejaVuSans-53" d="M 3425 4513 
L 3425 3897 
Q 3066 4069 2747 4153 
Q 2428 4238 2131 4238 
Q 1616 4238 1336 4038 
Q 1056 3838 1056 3469 
Q 1056 3159 1242 3001 
Q 1428 2844 1947 2747 
L 2328 2669 
Q 3034 2534 3370 2195 
Q 3706 1856 3706 1288 
Q 3706 609 3251 259 
Q 2797 -91 1919 -91 
Q 1588 -91 1214 -16 
Q 841 59 441 206 
L 441 856 
Q 825 641 1194 531 
Q 1563 422 1919 422 
Q 2459 422 2753 634 
Q 3047 847 3047 1241 
Q 3047 1584 2836 1778 
Q 2625 1972 2144 2069 
L 1759 2144 
Q 1053 2284 737 2584 
Q 422 2884 422 3419 
Q 422 4038 858 4394 
Q 1294 4750 2059 4750 
Q 2388 4750 2728 4690 
Q 3069 4631 3425 4513 
z
" transform="scale(0.015625)"/>
       <path id="DejaVuSans-61" d="M 2194 1759 
Q 1497 1759 1228 1600 
Q 959 1441 959 1056 
Q 959 750 1161 570 
Q 1363 391 1709 391 
Q 2188 391 2477 730 
Q 2766 1069 2766 1631 
L 2766 1759 
L 2194 1759 
z
M 3341 1997 
L 3341 0 
L 2766 0 
L 2766 531 
Q 2569 213 2275 61 
Q 1981 -91 1556 -91 
Q 1019 -91 701 211 
Q 384 513 384 1019 
Q 384 1609 779 1909 
Q 1175 2209 1959 2209 
L 2766 2209 
L 2766 2266 
Q 2766 2663 2505 2880 
Q 2244 3097 1772 3097 
Q 1472 3097 1187 3025 
Q 903 2953 641 2809 
L 641 3341 
Q 956 3463 1253 3523 
Q 1550 3584 1831 3584 
Q 2591 3584 2966 3190 
Q 3341 2797 3341 1997 
z
" transform="scale(0.015625)"/>
       <path id="DejaVuSans-6d" d="M 3328 2828 
Q 3544 3216 3844 3400 
Q 4144 3584 4550 3584 
Q 5097 3584 5394 3201 
Q 5691 2819 5691 2113 
L 5691 0 
L 5113 0 
L 5113 2094 
Q 5113 2597 4934 2840 
Q 4756 3084 4391 3084 
Q 3944 3084 3684 2787 
Q 3425 2491 3425 1978 
L 3425 0 
L 2847 0 
L 2847 2094 
Q 2847 2600 2669 2842 
Q 2491 3084 2119 3084 
Q 1678 3084 1418 2786 
Q 1159 2488 1159 1978 
L 1159 0 
L 581 0 
L 581 3500 
L 1159 3500 
L 1159 2956 
Q 1356 3278 1631 3431 
Q 1906 3584 2284 3584 
Q 2666 3584 2933 3390 
Q 3200 3197 3328 2828 
z
" transform="scale(0.015625)"/>
       <path id="DejaVuSans-70" d="M 1159 525 
L 1159 -1331 
L 581 -1331 
L 581 3500 
L 1159 3500 
L 1159 2969 
Q 1341 3281 1617 3432 
Q 1894 3584 2278 3584 
Q 2916 3584 3314 3078 
Q 3713 2572 3713 1747 
Q 3713 922 3314 415 
Q 2916 -91 2278 -91 
Q 1894 -91 1617 61 
Q 1341 213 1159 525 
z
M 3116 1747 
Q 3116 2381 2855 2742 
Q 2594 3103 2138 3103 
Q 1681 3103 1420 2742 
Q 1159 2381 1159 1747 
Q 1159 1113 1420 752 
Q 1681 391 2138 391 
Q 2594 391 2855 752 
Q 3116 1113 3116 1747 
z
" transform="scale(0.015625)"/>
       <path id="DejaVuSans-6c" d="M 603 4863 
L 1178 4863 
L 1178 0 
L 603 0 
L 603 4863 
z
" transform="scale(0.015625)"/>
       <path id="DejaVuSans-65" d="M 3597 1894 
L 3597 1613 
L 953 1613 
Q 991 1019 1311 708 
Q 1631 397 2203 397 
Q 2534 397 2845 478 
Q 3156 559 3463 722 
L 3463 178 
Q 3153 47 2828 -22 
Q 2503 -91 2169 -91 
Q 1331 -91 842 396 
Q 353 884 353 1716 
Q 353 2575 817 3079 
Q 1281 3584 2069 3584 
Q 2775 3584 3186 3129 
Q 3597 2675 3597 1894 
z
M 3022 2063 
Q 3016 2534 2758 2815 
Q 2500 3097 2075 3097 
Q 1594 3097 1305 2825 
Q 1016 2553 972 2059 
L 3022 2063 
z
" transform="scale(0.015625)"/>
       <path id="DejaVuSans-20" transform="scale(0.015625)"/>
       <path id="DejaVuSans-4e" d="M 628 4666 
L 1478 4666 
L 3547 763 
L 3547 4666 
L 4159 4666 
L 4159 0 
L 3309 0 
L 1241 3903 
L 1241 0 
L 628 0 
L 628 4666 
z
" transform="scale(0.015625)"/>
       <path id="DejaVuSans-75" d="M 544 1381 
L 544 3500 
L 1119 3500 
L 1119 1403 
Q 1119 906 1312 657 
Q 1506 409 1894 409 
Q 2359 409 2629 706 
Q 2900 1003 2900 1516 
L 2900 3500 
L 3475 3500 
L 3475 0 
L 2900 0 
L 2900 538 
Q 2691 219 2414 64 
Q 2138 -91 1772 -91 
Q 1169 -91 856 284 
Q 544 659 544 1381 
z
M 1991 3584 
L 1991 3584 
z
" transform="scale(0.015625)"/>
       <path id="DejaVuSans-62" d="M 3116 1747 
Q 3116 2381 2855 2742 
Q 2594 3103 2138 3103 
Q 1681 3103 1420 2742 
Q 1159 2381 1159 1747 
Q 1159 1113 1420 752 
Q 1681 391 2138 391 
Q 2594 391 2855 752 
Q 3116 1113 3116 1747 
z
M 1159 2969 
Q 1341 3281 1617 3432 
Q 1894 3584 2278 3584 
Q 2916 3584 3314 3078 
Q 3713 2572 3713 1747 
Q 3713 922 3314 415 
Q 2916 -91 2278 -91 
Q 1894 -91 1617 61 
Q 1341 213 1159 525 
L 1159 0 
L 581 0 
L 581 4863 
L 1159 4863 
L 1159 2969 
z
" transform="scale(0.015625)"/>
       <path id="DejaVuSans-72" d="M 2631 2963 
Q 2534 3019 2420 3045 
Q 2306 3072 2169 3072 
Q 1681 3072 1420 2755 
Q 1159 2438 1159 1844 
L 1159 0 
L 581 0 
L 581 3500 
L 1159 3500 
L 1159 2956 
Q 1341 3275 1631 3429 
Q 1922 3584 2338 3584 
Q 2397 3584 2469 3576 
Q 2541 3569 2628 3553 
L 2631 2963 
z
" transform="scale(0.015625)"/>
      </defs>
      <use xlink:href="#DejaVuSans-53"/>
      <use xlink:href="#DejaVuSans-61" x="63.476562"/>
      <use xlink:href="#DejaVuSans-6d" x="124.755859"/>
      <use xlink:href="#DejaVuSans-70" x="222.167969"/>
      <use xlink:href="#DejaVuSans-6c" x="285.644531"/>
      <use xlink:href="#DejaVuSans-65" x="313.427734"/>
      <use xlink:href="#DejaVuSans-20" x="374.951172"/>
      <use xlink:href="#DejaVuSans-4e" x="406.738281"/>
      <use xlink:href="#DejaVuSans-75" x="481.542969"/>
      <use xlink:href="#DejaVuSans-6d" x="544.921875"/>
      <use xlink:href="#DejaVuSans-62" x="642.333984"/>
      <use xlink:href="#DejaVuSans-65" x="705.810547"/>
      <use xlink:href="#DejaVuSans-72" x="767.333984"/>
     </g>
    </g>
   </g>
   <g id="matplotlib.axis_8">
    <g id="ytick_12">
     <g id="line2d_39">
      <g>
       <use xlink:href="#m57eaf66161" x="49.14" y="534.802921" style="stroke: #000000; stroke-width: 0.8"/>
      </g>
     </g>
     <g id="text_22">
      <!-- 0.10 -->
      <g transform="translate(19.874375 538.60214) scale(0.1 -0.1)">
       <use xlink:href="#DejaVuSans-30"/>
       <use xlink:href="#DejaVuSans-2e" x="63.623047"/>
       <use xlink:href="#DejaVuSans-31" x="95.410156"/>
       <use xlink:href="#DejaVuSans-30" x="159.033203"/>
      </g>
     </g>
    </g>
    <g id="ytick_13">
     <g id="line2d_40">
      <g>
       <use xlink:href="#m57eaf66161" x="49.14" y="509.623535" style="stroke: #000000; stroke-width: 0.8"/>
      </g>
     </g>
     <g id="text_23">
      <!-- 0.12 -->
      <g transform="translate(19.874375 513.422753) scale(0.1 -0.1)">
       <use xlink:href="#DejaVuSans-30"/>
       <use xlink:href="#DejaVuSans-2e" x="63.623047"/>
       <use xlink:href="#DejaVuSans-31" x="95.410156"/>
       <use xlink:href="#DejaVuSans-32" x="159.033203"/>
      </g>
     </g>
    </g>
    <g id="ytick_14">
     <g id="line2d_41">
      <g>
       <use xlink:href="#m57eaf66161" x="49.14" y="484.444148" style="stroke: #000000; stroke-width: 0.8"/>
      </g>
     </g>
     <g id="text_24">
      <!-- 0.14 -->
      <g transform="translate(19.874375 488.243367) scale(0.1 -0.1)">
       <use xlink:href="#DejaVuSans-30"/>
       <use xlink:href="#DejaVuSans-2e" x="63.623047"/>
       <use xlink:href="#DejaVuSans-31" x="95.410156"/>
       <use xlink:href="#DejaVuSans-34" x="159.033203"/>
      </g>
     </g>
    </g>
    <g id="ytick_15">
     <g id="line2d_42">
      <g>
       <use xlink:href="#m57eaf66161" x="49.14" y="459.264762" style="stroke: #000000; stroke-width: 0.8"/>
      </g>
     </g>
     <g id="text_25">
      <!-- 0.16 -->
      <g transform="translate(19.874375 463.06398) scale(0.1 -0.1)">
       <use xlink:href="#DejaVuSans-30"/>
       <use xlink:href="#DejaVuSans-2e" x="63.623047"/>
       <use xlink:href="#DejaVuSans-31" x="95.410156"/>
       <use xlink:href="#DejaVuSans-36" x="159.033203"/>
      </g>
     </g>
    </g>
    <g id="ytick_16">
     <g id="line2d_43">
      <g>
       <use xlink:href="#m57eaf66161" x="49.14" y="434.085375" style="stroke: #000000; stroke-width: 0.8"/>
      </g>
     </g>
     <g id="text_26">
      <!-- 0.18 -->
      <g transform="translate(19.874375 437.884594) scale(0.1 -0.1)">
       <defs>
        <path id="DejaVuSans-38" d="M 2034 2216 
Q 1584 2216 1326 1975 
Q 1069 1734 1069 1313 
Q 1069 891 1326 650 
Q 1584 409 2034 409 
Q 2484 409 2743 651 
Q 3003 894 3003 1313 
Q 3003 1734 2745 1975 
Q 2488 2216 2034 2216 
z
M 1403 2484 
Q 997 2584 770 2862 
Q 544 3141 544 3541 
Q 544 4100 942 4425 
Q 1341 4750 2034 4750 
Q 2731 4750 3128 4425 
Q 3525 4100 3525 3541 
Q 3525 3141 3298 2862 
Q 3072 2584 2669 2484 
Q 3125 2378 3379 2068 
Q 3634 1759 3634 1313 
Q 3634 634 3220 271 
Q 2806 -91 2034 -91 
Q 1263 -91 848 271 
Q 434 634 434 1313 
Q 434 1759 690 2068 
Q 947 2378 1403 2484 
z
M 1172 3481 
Q 1172 3119 1398 2916 
Q 1625 2713 2034 2713 
Q 2441 2713 2670 2916 
Q 2900 3119 2900 3481 
Q 2900 3844 2670 4047 
Q 2441 4250 2034 4250 
Q 1625 4250 1398 4047 
Q 1172 3844 1172 3481 
z
" transform="scale(0.015625)"/>
       </defs>
       <use xlink:href="#DejaVuSans-30"/>
       <use xlink:href="#DejaVuSans-2e" x="63.623047"/>
       <use xlink:href="#DejaVuSans-31" x="95.410156"/>
       <use xlink:href="#DejaVuSans-38" x="159.033203"/>
      </g>
     </g>
    </g>
    <g id="text_27">
     <!-- $\delta$ -->
     <g transform="translate(554.98 493.428438) scale(0.1 -0.1)">
      <defs>
       <path id="DejaVuSans-Oblique-3b4" d="M 3472 4053 
Q 3197 4272 2450 4272 
Q 1659 4272 1588 3906 
Q 1531 3619 2328 3469 
Q 2953 3353 3253 3003 
Q 3616 2581 3447 1716 
Q 3284 888 2763 400 
Q 2238 -91 1488 -91 
Q 741 -91 406 400 
Q 72 888 241 1747 
Q 363 2384 891 2900 
Q 1097 3100 1353 3213 
Q 913 3459 1000 3900 
Q 1166 4750 2544 4750 
Q 3234 4750 3566 4531 
L 3472 4053 
z
M 1753 3056 
Q 1525 2966 1306 2738 
Q 969 2384 847 1747 
Q 722 1113 919 756 
Q 1119 397 1584 397 
Q 2044 397 2381 759 
Q 2722 1122 2838 1716 
Q 2956 2338 2731 2638 
Q 2491 2959 2103 2994 
Q 1906 3013 1753 3056 
z
" transform="scale(0.015625)"/>
      </defs>
      <use xlink:href="#DejaVuSans-Oblique-3b4" transform="translate(0 0.78125)"/>
     </g>
    </g>
   </g>
   <g id="line2d_44">
    <path d="M 71.819091 452.403329 
L 71.909825 452.403329 
L 72.091294 497.135182 
L 73.996719 497.135182 
L 74.178188 483.652382 
L 74.631861 483.652382 
L 74.81333 474.149132 
L 77.807569 474.149132 
L 77.989038 473.120885 
L 78.987117 473.120885 
L 79.168586 451.619264 
L 80.892542 451.619264 
L 81.074011 488.49803 
L 83.523843 488.49803 
L 83.705312 495.777399 
L 86.245878 495.777399 
L 86.427347 506.352489 
L 87.606896 506.352489 
L 87.788365 510.169999 
L 88.604975 510.169999 
L 88.786444 504.377327 
L 88.967913 516.914025 
L 89.965993 516.914025 
L 90.147462 496.767058 
L 90.5104 496.767058 
L 90.691869 470.860552 
L 91.50848 470.860552 
L 91.780683 518.407412 
L 94.139781 518.407412 
L 94.411984 505.91526 
L 95.773002 505.91526 
L 96.045205 442.570957 
L 96.13594 442.570957 
L 96.317409 468.88188 
L 96.589612 468.88188 
L 96.771081 455.208171 
L 98.132099 455.208171 
L 98.222833 470.172931 
L 98.404302 448.500477 
L 101.761479 448.500477 
L 101.942948 483.470437 
L 105.572329 483.470437 
L 105.753798 475.408513 
L 105.935267 505.706651 
L 106.20747 505.706651 
L 106.388939 509.634077 
L 107.659223 509.634077 
L 107.840692 519.774314 
L 109.292444 519.774314 
L 109.473913 530.907241 
L 110.290523 530.907241 
L 110.471992 489.920864 
L 111.923745 489.920864 
L 112.105214 482.674137 
L 113.375497 482.674137 
L 113.6477 445.041796 
L 114.192107 445.041796 
L 114.373576 469.550808 
L 115.825329 469.550808 
L 116.006798 467.601559 
L 119.001036 467.601559 
L 119.182505 460.814639 
L 119.454709 460.814639 
L 119.636178 509.286549 
L 119.908381 509.286549 
L 120.089851 500.984488 
L 124.082169 500.984488 
L 124.535842 474.427772 
L 128.255956 474.427772 
L 128.437425 507.430625 
L 129.616974 507.430625 
L 129.798443 509.49997 
L 131.794602 509.49997 
L 131.976071 507.189493 
L 135.96839 507.189493 
L 136.149859 486.231945 
L 140.59585 486.231945 
L 140.777319 488.343534 
L 144.769637 488.343534 
L 144.951106 466.732598 
L 145.586248 466.732598 
L 145.767717 459.912425 
L 146.039921 459.912425 
L 146.22139 480.566829 
L 146.856531 480.566829 
L 147.038 478.083405 
L 147.128735 478.083405 
L 147.310204 467.783432 
L 147.673142 467.783432 
L 147.854611 477.433997 
L 148.03608 477.433997 
L 148.217549 504.204299 
L 148.580487 504.204299 
L 148.761956 514.889981 
L 149.85077 514.889981 
L 150.032239 516.10167 
L 151.846929 516.10167 
L 152.028398 478.553866 
L 152.300602 478.553866 
L 152.66354 498.502833 
L 157.472469 498.502833 
L 157.653938 474.758795 
L 157.744672 474.758795 
L 157.926141 487.405765 
L 158.10761 465.808088 
L 158.289079 465.808088 
L 158.470548 459.673014 
L 159.650097 459.673014 
L 159.831566 437.566364 
L 161.464787 437.566364 
L 161.646256 488.000769 
L 162.462867 488.000769 
L 162.644336 477.959768 
L 163.279478 477.959768 
L 163.460947 488.783659 
L 163.551681 488.783659 
L 163.73315 478.923853 
L 164.73123 478.923853 
L 164.912699 506.246926 
L 166.54592 506.246926 
L 166.636654 500.078826 
L 166.818123 508.863302 
L 168.905017 508.863302 
L 169.086486 534.093636 
L 169.449424 534.093636 
L 169.630893 500.204041 
L 171.989991 500.204041 
L 172.17146 505.369228 
L 174.530557 505.369228 
L 174.712026 512.289176 
L 176.526716 512.289176 
L 176.708185 486.246598 
L 181.517114 486.246598 
L 181.698583 506.294504 
L 183.513273 506.294504 
L 183.694742 493.388429 
L 185.327964 493.388429 
L 185.509433 498.677327 
L 189.411017 498.677327 
L 189.68322 528.495045 
L 190.772034 528.495045 
L 190.953503 523.23333 
L 191.225707 523.23333 
L 191.407176 526.222996 
L 192.405255 526.222996 
L 192.586724 525.383127 
L 193.675539 525.383127 
L 193.857008 513.148824 
L 194.673618 513.148824 
L 194.855087 476.017053 
L 203.111928 476.017053 
L 203.293397 483.803983 
L 209.009671 483.803983 
L 209.19114 480.737591 
L 209.644812 480.737591 
L 209.826281 464.687213 
L 212.00391 464.687213 
L 212.185379 475.166358 
L 213.364927 475.166358 
L 213.546396 500.122397 
L 220.532954 500.122397 
L 220.714423 500.62913 
L 221.621768 500.62913 
L 221.803237 480.005846 
L 222.710582 480.005846 
L 222.892051 496.49624 
L 229.878608 496.49624 
L 230.060077 485.078767 
L 230.967422 485.078767 
L 231.148891 493.532653 
L 231.33036 479.541152 
L 235.322679 479.541152 
L 235.504148 473.297979 
L 236.592962 473.297979 
L 236.774431 476.720363 
L 237.409573 476.720363 
L 237.591042 475.490381 
L 238.226183 475.490381 
L 238.407652 494.974863 
L 239.496466 494.974863 
L 239.677935 505.977681 
L 240.585281 505.977681 
L 240.76675 510.285899 
L 240.948219 501.268921 
L 244.305395 501.268921 
L 244.486864 504.367302 
L 245.122006 504.367302 
L 245.303475 506.365857 
L 247.118165 506.365857 
L 247.299634 503.59831 
L 256.917492 503.59831 
L 257.098961 492.944843 
L 257.189696 492.944843 
L 257.371165 511.149156 
L 257.461899 511.149156 
L 257.643368 494.184318 
L 257.734103 494.184318 
L 257.915572 460.868005 
L 259.367324 460.868005 
L 259.548793 490.591604 
L 261.454218 490.591604 
L 261.635687 466.172249 
L 265.265067 466.172249 
L 265.446536 480.330575 
L 266.626085 480.330575 
L 266.807554 498.201607 
L 272.614563 498.201607 
L 272.796032 470.217773 
L 274.519987 470.217773 
L 274.701456 466.531218 
L 274.97366 466.531218 
L 275.155129 493.677764 
L 282.686093 493.677764 
L 282.867562 479.768707 
L 287.585757 479.768707 
L 287.767226 493.187361 
L 288.130164 493.187361 
L 288.220899 474.986224 
L 288.402368 488.139507 
L 288.674571 488.139507 
L 288.85604 469.99295 
L 290.489261 469.99295 
L 290.67073 482.292684 
L 291.305872 482.292684 
L 291.487341 473.270796 
L 291.578075 473.270796 
L 291.759544 488.016942 
L 294.118642 488.016942 
L 294.300111 496.768535 
L 295.570394 496.768535 
L 295.751863 498.545271 
L 298.11096 498.545271 
L 298.292429 500.52987 
L 298.473898 500.52987 
L 298.655367 479.976351 
L 302.194013 479.976351 
L 302.375482 496.679082 
L 303.101358 496.679082 
L 303.282827 514.457665 
L 306.54927 514.457665 
L 306.730739 502.298251 
L 308.454694 502.298251 
L 308.636163 510.369951 
L 314.987579 510.369951 
L 315.169048 446.138398 
L 316.348597 446.138398 
L 316.530066 502.647848 
L 316.711535 502.647848 
L 316.893004 485.028502 
L 324.696172 485.028502 
L 324.877641 494.606094 
L 325.694251 494.606094 
L 325.87572 500.526996 
L 327.055269 500.526996 
L 327.236738 488.914321 
L 331.591995 488.914321 
L 331.773464 495.221208 
L 342.933808 495.221208 
L 343.115277 485.441445 
L 344.385561 485.441445 
L 344.56703 455.261271 
L 345.111437 455.261271 
L 345.292906 490.524955 
L 346.472454 490.524955 
L 346.653923 478.447973 
L 350.0111 478.447973 
L 350.192569 481.16171 
L 350.736976 481.16171 
L 350.918445 513.493883 
L 355.092233 513.493883 
L 355.182967 476.510315 
L 355.364436 500.816943 
L 356.181047 500.816943 
L 356.362516 512.201982 
L 357.814268 512.201982 
L 357.995737 523.329673 
L 360.2641 523.329673 
L 360.445569 529.918905 
L 364.256418 529.918905 
L 364.437887 505.345588 
L 364.528622 505.345588 
L 364.710091 481.816643 
L 364.982294 481.816643 
L 365.163763 482.811352 
L 365.435967 482.811352 
L 365.617436 488.433807 
L 366.796985 488.433807 
L 366.978454 478.245448 
L 367.613595 478.245448 
L 367.795064 459.756924 
L 367.885799 459.756924 
L 368.067268 466.264524 
L 371.878117 466.264524 
L 372.059586 468.724422 
L 372.422524 468.724422 
L 372.603993 456.851939 
L 373.874276 456.851939 
L 374.055746 471.237113 
L 374.14648 450.883048 
L 374.237215 454.62577 
L 375.053825 454.62577 
L 375.235294 465.542413 
L 378.229533 465.542413 
L 378.411002 481.108059 
L 381.495975 481.108059 
L 381.677444 471.238504 
L 383.219931 471.238504 
L 383.4014 457.2417 
L 383.582869 496.018691 
L 387.665922 496.018691 
L 387.847391 495.811822 
L 387.938126 495.811822 
L 388.119595 503.250778 
L 389.208409 503.250778 
L 389.389878 503.907835 
L 390.750895 503.907835 
L 390.932364 500.929893 
L 391.023099 500.929893 
L 391.204568 487.170247 
L 393.563665 487.170247 
L 393.745134 492.363115 
L 394.380276 492.363115 
L 394.561745 490.356804 
L 397.193046 490.356804 
L 397.374515 504.973236 
L 400.368754 504.973236 
L 400.550223 486.174747 
L 400.731692 476.739014 
L 401.820506 476.739014 
L 402.001975 493.995926 
L 407.990452 493.995926 
L 408.171921 488.950565 
L 409.442205 488.950565 
L 409.623674 473.245659 
L 410.803222 473.245659 
L 410.984691 477.609423 
L 413.071585 477.609423 
L 413.253054 489.458827 
L 414.069665 489.458827 
L 414.251134 484.305268 
L 418.969328 484.305268 
L 419.150797 496.389032 
L 426.863231 496.389032 
L 427.0447 494.58908 
L 428.042779 494.58908 
L 428.224248 495.763067 
L 429.040859 495.763067 
L 429.222328 475.578734 
L 429.948204 475.578734 
L 430.129673 484.839257 
L 430.220408 484.839257 
L 430.401877 479.753061 
L 432.035098 479.753061 
L 432.216567 478.263232 
L 432.851708 478.263232 
L 432.942443 475.799452 
L 433.123912 477.813053 
L 435.120071 477.813053 
L 435.30154 470.548955 
L 435.573744 470.548955 
L 435.755213 438.837627 
L 443.195443 438.837627 
L 443.376912 447.562123 
L 445.010133 447.562123 
L 445.191602 473.29376 
L 445.55454 473.29376 
L 445.645274 471.38896 
L 445.826743 459.315435 
L 448.276575 459.315435 
L 448.458044 480.938274 
L 450.091265 480.938274 
L 450.272734 466.87179 
L 450.544938 466.87179 
L 450.726407 447.154711 
L 452.087425 447.154711 
L 452.268894 515.880256 
L 459.255451 515.880256 
L 459.43692 498.403383 
L 463.973645 498.403383 
L 464.155114 490.586739 
L 464.699522 490.586739 
L 464.880991 481.485163 
L 465.06246 500.6668 
L 467.69376 500.6668 
L 467.875229 504.39889 
L 481.848344 504.39889 
L 482.029813 528.446752 
L 483.753769 528.446752 
L 484.025972 515.20952 
L 487.020211 515.20952 
L 487.20168 501.345439 
L 488.925636 501.345439 
L 489.107105 492.157538 
L 489.923715 492.157538 
L 490.105184 512.007428 
L 494.006768 512.007428 
L 494.097503 511.683647 
L 494.278972 487.103238 
L 497.817618 487.103238 
L 497.999087 505.210229 
L 501.174795 505.210229 
L 501.356264 476.477793 
L 508.796494 476.477793 
L 508.977963 493.88235 
L 512.153671 493.88235 
L 512.33514 516.77488 
L 515.510847 516.77488 
L 515.692316 514.499952 
L 517.325538 514.499952 
L 517.416272 492.364882 
L 517.597741 511.96384 
L 524.675033 511.96384 
L 524.856502 510.830107 
L 525.400909 510.830107 
L 525.400909 510.830107 
" clip-path="url(#pbc3cfebdec)" style="fill: none; stroke: #000000; stroke-width: 1.5; stroke-linecap: square"/>
   </g>
   <g id="patch_18">
    <path d="M 49.14 538.92 
L 49.14 432.74 
" style="fill: none; stroke: #000000; stroke-width: 0.8; stroke-linejoin: miter; stroke-linecap: square"/>
   </g>
   <g id="patch_19">
    <path d="M 548.08 538.92 
L 548.08 432.74 
" style="fill: none; stroke: #000000; stroke-width: 0.8; stroke-linejoin: miter; stroke-linecap: square"/>
   </g>
   <g id="patch_20">
    <path d="M 49.14 538.92 
L 548.08 538.92 
" style="fill: none; stroke: #000000; stroke-width: 0.8; stroke-linejoin: miter; stroke-linecap: square"/>
   </g>
   <g id="patch_21">
    <path d="M 49.14 432.74 
L 548.08 432.74 
" style="fill: none; stroke: #000000; stroke-width: 0.8; stroke-linejoin: miter; stroke-linecap: square"/>
   </g>
  </g>
  <g id="text_28">
   <!-- 2.B Problem 2 Inspection -->
   <g transform="translate(200.619219 22.157812) scale(0.14 -0.14)">
    <defs>
     <path id="DejaVuSans-42" d="M 1259 2228 
L 1259 519 
L 2272 519 
Q 2781 519 3026 730 
Q 3272 941 3272 1375 
Q 3272 1813 3026 2020 
Q 2781 2228 2272 2228 
L 1259 2228 
z
M 1259 4147 
L 1259 2741 
L 2194 2741 
Q 2656 2741 2882 2914 
Q 3109 3088 3109 3444 
Q 3109 3797 2882 3972 
Q 2656 4147 2194 4147 
L 1259 4147 
z
M 628 4666 
L 2241 4666 
Q 2963 4666 3353 4366 
Q 3744 4066 3744 3513 
Q 3744 3084 3544 2831 
Q 3344 2578 2956 2516 
Q 3422 2416 3680 2098 
Q 3938 1781 3938 1306 
Q 3938 681 3513 340 
Q 3088 0 2303 0 
L 628 0 
L 628 4666 
z
" transform="scale(0.015625)"/>
     <path id="DejaVuSans-50" d="M 1259 4147 
L 1259 2394 
L 2053 2394 
Q 2494 2394 2734 2622 
Q 2975 2850 2975 3272 
Q 2975 3691 2734 3919 
Q 2494 4147 2053 4147 
L 1259 4147 
z
M 628 4666 
L 2053 4666 
Q 2838 4666 3239 4311 
Q 3641 3956 3641 3272 
Q 3641 2581 3239 2228 
Q 2838 1875 2053 1875 
L 1259 1875 
L 1259 0 
L 628 0 
L 628 4666 
z
" transform="scale(0.015625)"/>
     <path id="DejaVuSans-6f" d="M 1959 3097 
Q 1497 3097 1228 2736 
Q 959 2375 959 1747 
Q 959 1119 1226 758 
Q 1494 397 1959 397 
Q 2419 397 2687 759 
Q 2956 1122 2956 1747 
Q 2956 2369 2687 2733 
Q 2419 3097 1959 3097 
z
M 1959 3584 
Q 2709 3584 3137 3096 
Q 3566 2609 3566 1747 
Q 3566 888 3137 398 
Q 2709 -91 1959 -91 
Q 1206 -91 779 398 
Q 353 888 353 1747 
Q 353 2609 779 3096 
Q 1206 3584 1959 3584 
z
" transform="scale(0.015625)"/>
     <path id="DejaVuSans-49" d="M 628 4666 
L 1259 4666 
L 1259 0 
L 628 0 
L 628 4666 
z
" transform="scale(0.015625)"/>
     <path id="DejaVuSans-6e" d="M 3513 2113 
L 3513 0 
L 2938 0 
L 2938 2094 
Q 2938 2591 2744 2837 
Q 2550 3084 2163 3084 
Q 1697 3084 1428 2787 
Q 1159 2491 1159 1978 
L 1159 0 
L 581 0 
L 581 3500 
L 1159 3500 
L 1159 2956 
Q 1366 3272 1645 3428 
Q 1925 3584 2291 3584 
Q 2894 3584 3203 3211 
Q 3513 2838 3513 2113 
z
" transform="scale(0.015625)"/>
     <path id="DejaVuSans-73" d="M 2834 3397 
L 2834 2853 
Q 2591 2978 2328 3040 
Q 2066 3103 1784 3103 
Q 1356 3103 1142 2972 
Q 928 2841 928 2578 
Q 928 2378 1081 2264 
Q 1234 2150 1697 2047 
L 1894 2003 
Q 2506 1872 2764 1633 
Q 3022 1394 3022 966 
Q 3022 478 2636 193 
Q 2250 -91 1575 -91 
Q 1294 -91 989 -36 
Q 684 19 347 128 
L 347 722 
Q 666 556 975 473 
Q 1284 391 1588 391 
Q 1994 391 2212 530 
Q 2431 669 2431 922 
Q 2431 1156 2273 1281 
Q 2116 1406 1581 1522 
L 1381 1569 
Q 847 1681 609 1914 
Q 372 2147 372 2553 
Q 372 3047 722 3315 
Q 1072 3584 1716 3584 
Q 2034 3584 2315 3537 
Q 2597 3491 2834 3397 
z
" transform="scale(0.015625)"/>
     <path id="DejaVuSans-63" d="M 3122 3366 
L 3122 2828 
Q 2878 2963 2633 3030 
Q 2388 3097 2138 3097 
Q 1578 3097 1268 2742 
Q 959 2388 959 1747 
Q 959 1106 1268 751 
Q 1578 397 2138 397 
Q 2388 397 2633 464 
Q 2878 531 3122 666 
L 3122 134 
Q 2881 22 2623 -34 
Q 2366 -91 2075 -91 
Q 1284 -91 818 406 
Q 353 903 353 1747 
Q 353 2603 823 3093 
Q 1294 3584 2113 3584 
Q 2378 3584 2631 3529 
Q 2884 3475 3122 3366 
z
" transform="scale(0.015625)"/>
     <path id="DejaVuSans-74" d="M 1172 4494 
L 1172 3500 
L 2356 3500 
L 2356 3053 
L 1172 3053 
L 1172 1153 
Q 1172 725 1289 603 
Q 1406 481 1766 481 
L 2356 481 
L 2356 0 
L 1766 0 
Q 1100 0 847 248 
Q 594 497 594 1153 
L 594 3053 
L 172 3053 
L 172 3500 
L 594 3500 
L 594 4494 
L 1172 4494 
z
" transform="scale(0.015625)"/>
     <path id="DejaVuSans-69" d="M 603 3500 
L 1178 3500 
L 1178 0 
L 603 0 
L 603 3500 
z
M 603 4863 
L 1178 4863 
L 1178 4134 
L 603 4134 
L 603 4863 
z
" transform="scale(0.015625)"/>
    </defs>
    <use xlink:href="#DejaVuSans-32"/>
    <use xlink:href="#DejaVuSans-2e" x="63.623047"/>
    <use xlink:href="#DejaVuSans-42" x="95.410156"/>
    <use xlink:href="#DejaVuSans-20" x="164.013672"/>
    <use xlink:href="#DejaVuSans-50" x="195.800781"/>
    <use xlink:href="#DejaVuSans-72" x="254.353516"/>
    <use xlink:href="#DejaVuSans-6f" x="293.216797"/>
    <use xlink:href="#DejaVuSans-62" x="354.398438"/>
    <use xlink:href="#DejaVuSans-6c" x="417.875"/>
    <use xlink:href="#DejaVuSans-65" x="445.658203"/>
    <use xlink:href="#DejaVuSans-6d" x="507.181641"/>
    <use xlink:href="#DejaVuSans-20" x="604.59375"/>
    <use xlink:href="#DejaVuSans-32" x="636.380859"/>
    <use xlink:href="#DejaVuSans-20" x="700.003906"/>
    <use xlink:href="#DejaVuSans-49" x="731.791016"/>
    <use xlink:href="#DejaVuSans-6e" x="761.283203"/>
    <use xlink:href="#DejaVuSans-73" x="824.662109"/>
    <use xlink:href="#DejaVuSans-70" x="876.761719"/>
    <use xlink:href="#DejaVuSans-65" x="940.238281"/>
    <use xlink:href="#DejaVuSans-63" x="1001.761719"/>
    <use xlink:href="#DejaVuSans-74" x="1056.742188"/>
    <use xlink:href="#DejaVuSans-69" x="1095.951172"/>
    <use xlink:href="#DejaVuSans-6f" x="1123.734375"/>
    <use xlink:href="#DejaVuSans-6e" x="1184.916016"/>
   </g>
  </g>
 </g>
 <defs>
  <clipPath id="p9126579594">
   <rect x="49.14" y="23.96" width="498.94" height="106.18"/>
  </clipPath>
  <clipPath id="p3b876af445">
   <rect x="49.14" y="160.22" width="498.94" height="106.18"/>
  </clipPath>
  <clipPath id="p8a914ed579">
   <rect x="49.14" y="296.48" width="498.94" height="106.18"/>
  </clipPath>
  <clipPath id="pbc3cfebdec">
   <rect x="49.14" y="432.74" width="498.94" height="106.18"/>
  </clipPath>
 </defs>
</svg>
