<?xml version="1.0" encoding="utf-8" standalone="no"?>
<!DOCTYPE svg PUBLIC "-//W3C//DTD SVG 1.1//EN"
  "http://www.w3.org/Graphics/SVG/1.1/DTD/svg11.dtd">
<svg xmlns:xlink="http://www.w3.org/1999/xlink" width="576pt" height="360pt" viewBox="0 0 576 360" xmlns="http://www.w3.org/2000/svg" version="1.1">
 <metadata>
  <rdf:RDF xmlns:dc="http://purl.org/dc/elements/1.1/" xmlns:cc="http://creativecommons.org/ns#" xmlns:rdf="http://www.w3.org/1999/02/22-rdf-syntax-ns#">
   <cc:Work>
    <dc:type rdf:resource="http://purl.org/dc/dcmitype/StillImage"/>
    <dc:date>2024-04-04T00:00:19.052979</dc:date>
    <dc:format>image/svg+xml</dc:format>
    <dc:creator>
     <cc:Agent>
      <dc:title>Matplotlib v3.8.3, https://matplotlib.org/</dc:title>
     </cc:Agent>
    </dc:creator>
   </cc:Work>
  </rdf:RDF>
 </metadata>
 <defs>
  <style type="text/css">*{stroke-linejoin: round; stroke-linecap: butt}</style>
 </defs>
 <g id="figure_1">
  <g id="patch_1">
   <path d="M 0 360 
L 576 360 
L 576 0 
L 0 0 
z
" style="fill: #ffffff"/>
  </g>
  <g id="axes_1">
   <g id="patch_2">
    <path d="M 59.14 121.135 
L 538.08 121.135 
L 538.08 33.96 
L 59.14 33.96 
z
" style="fill: #ffffff"/>
   </g>
   <g id="matplotlib.axis_1">
    <g id="xtick_1">
     <g id="line2d_1">
      <defs>
       <path id="mfeb1a47ea9" d="M 0 0 
L 0 3.5 
" style="stroke: #000000; stroke-width: 0.8"/>
      </defs>
      <g>
       <use xlink:href="#mfeb1a47ea9" x="80.91" y="121.135" style="stroke: #000000; stroke-width: 0.8"/>
      </g>
     </g>
    </g>
    <g id="xtick_2">
     <g id="line2d_2">
      <g>
       <use xlink:href="#mfeb1a47ea9" x="153.476667" y="121.135" style="stroke: #000000; stroke-width: 0.8"/>
      </g>
     </g>
    </g>
    <g id="xtick_3">
     <g id="line2d_3">
      <g>
       <use xlink:href="#mfeb1a47ea9" x="226.043333" y="121.135" style="stroke: #000000; stroke-width: 0.8"/>
      </g>
     </g>
    </g>
    <g id="xtick_4">
     <g id="line2d_4">
      <g>
       <use xlink:href="#mfeb1a47ea9" x="298.61" y="121.135" style="stroke: #000000; stroke-width: 0.8"/>
      </g>
     </g>
    </g>
    <g id="xtick_5">
     <g id="line2d_5">
      <g>
       <use xlink:href="#mfeb1a47ea9" x="371.176667" y="121.135" style="stroke: #000000; stroke-width: 0.8"/>
      </g>
     </g>
    </g>
    <g id="xtick_6">
     <g id="line2d_6">
      <g>
       <use xlink:href="#mfeb1a47ea9" x="443.743333" y="121.135" style="stroke: #000000; stroke-width: 0.8"/>
      </g>
     </g>
    </g>
    <g id="xtick_7">
     <g id="line2d_7">
      <g>
       <use xlink:href="#mfeb1a47ea9" x="516.31" y="121.135" style="stroke: #000000; stroke-width: 0.8"/>
      </g>
     </g>
    </g>
   </g>
   <g id="matplotlib.axis_2">
    <g id="ytick_1">
     <g id="line2d_8">
      <defs>
       <path id="m1f4ddd9d94" d="M 0 0 
L -3.5 0 
" style="stroke: #000000; stroke-width: 0.8"/>
      </defs>
      <g>
       <use xlink:href="#m1f4ddd9d94" x="59.14" y="121.135" style="stroke: #000000; stroke-width: 0.8"/>
      </g>
     </g>
     <g id="text_1">
      <!-- 0 -->
      <g transform="translate(45.7775 124.934219) scale(0.1 -0.1)">
       <defs>
        <path id="DejaVuSans-30" d="M 2034 4250 
Q 1547 4250 1301 3770 
Q 1056 3291 1056 2328 
Q 1056 1369 1301 889 
Q 1547 409 2034 409 
Q 2525 409 2770 889 
Q 3016 1369 3016 2328 
Q 3016 3291 2770 3770 
Q 2525 4250 2034 4250 
z
M 2034 4750 
Q 2819 4750 3233 4129 
Q 3647 3509 3647 2328 
Q 3647 1150 3233 529 
Q 2819 -91 2034 -91 
Q 1250 -91 836 529 
Q 422 1150 422 2328 
Q 422 3509 836 4129 
Q 1250 4750 2034 4750 
z
" transform="scale(0.015625)"/>
       </defs>
       <use xlink:href="#DejaVuSans-30"/>
      </g>
     </g>
    </g>
    <g id="ytick_2">
     <g id="line2d_9">
      <g>
       <use xlink:href="#m1f4ddd9d94" x="59.14" y="99.34125" style="stroke: #000000; stroke-width: 0.8"/>
      </g>
     </g>
     <g id="text_2">
      <!-- 250 -->
      <g transform="translate(33.0525 103.140469) scale(0.1 -0.1)">
       <defs>
        <path id="DejaVuSans-32" d="M 1228 531 
L 3431 531 
L 3431 0 
L 469 0 
L 469 531 
Q 828 903 1448 1529 
Q 2069 2156 2228 2338 
Q 2531 2678 2651 2914 
Q 2772 3150 2772 3378 
Q 2772 3750 2511 3984 
Q 2250 4219 1831 4219 
Q 1534 4219 1204 4116 
Q 875 4013 500 3803 
L 500 4441 
Q 881 4594 1212 4672 
Q 1544 4750 1819 4750 
Q 2544 4750 2975 4387 
Q 3406 4025 3406 3419 
Q 3406 3131 3298 2873 
Q 3191 2616 2906 2266 
Q 2828 2175 2409 1742 
Q 1991 1309 1228 531 
z
" transform="scale(0.015625)"/>
        <path id="DejaVuSans-35" d="M 691 4666 
L 3169 4666 
L 3169 4134 
L 1269 4134 
L 1269 2991 
Q 1406 3038 1543 3061 
Q 1681 3084 1819 3084 
Q 2600 3084 3056 2656 
Q 3513 2228 3513 1497 
Q 3513 744 3044 326 
Q 2575 -91 1722 -91 
Q 1428 -91 1123 -41 
Q 819 9 494 109 
L 494 744 
Q 775 591 1075 516 
Q 1375 441 1709 441 
Q 2250 441 2565 725 
Q 2881 1009 2881 1497 
Q 2881 1984 2565 2268 
Q 2250 2553 1709 2553 
Q 1456 2553 1204 2497 
Q 953 2441 691 2322 
L 691 4666 
z
" transform="scale(0.015625)"/>
       </defs>
       <use xlink:href="#DejaVuSans-32"/>
       <use xlink:href="#DejaVuSans-35" x="63.623047"/>
       <use xlink:href="#DejaVuSans-30" x="127.246094"/>
      </g>
     </g>
    </g>
    <g id="ytick_3">
     <g id="line2d_10">
      <g>
       <use xlink:href="#m1f4ddd9d94" x="59.14" y="77.5475" style="stroke: #000000; stroke-width: 0.8"/>
      </g>
     </g>
     <g id="text_3">
      <!-- 500 -->
      <g transform="translate(33.0525 81.346719) scale(0.1 -0.1)">
       <use xlink:href="#DejaVuSans-35"/>
       <use xlink:href="#DejaVuSans-30" x="63.623047"/>
       <use xlink:href="#DejaVuSans-30" x="127.246094"/>
      </g>
     </g>
    </g>
    <g id="ytick_4">
     <g id="line2d_11">
      <g>
       <use xlink:href="#m1f4ddd9d94" x="59.14" y="55.75375" style="stroke: #000000; stroke-width: 0.8"/>
      </g>
     </g>
     <g id="text_4">
      <!-- 750 -->
      <g transform="translate(33.0525 59.552969) scale(0.1 -0.1)">
       <defs>
        <path id="DejaVuSans-37" d="M 525 4666 
L 3525 4666 
L 3525 4397 
L 1831 0 
L 1172 0 
L 2766 4134 
L 525 4134 
L 525 4666 
z
" transform="scale(0.015625)"/>
       </defs>
       <use xlink:href="#DejaVuSans-37"/>
       <use xlink:href="#DejaVuSans-35" x="63.623047"/>
       <use xlink:href="#DejaVuSans-30" x="127.246094"/>
      </g>
     </g>
    </g>
    <g id="ytick_5">
     <g id="line2d_12">
      <g>
       <use xlink:href="#m1f4ddd9d94" x="59.14" y="33.96" style="stroke: #000000; stroke-width: 0.8"/>
      </g>
     </g>
     <g id="text_5">
      <!-- 1000 -->
      <g transform="translate(26.69 37.759219) scale(0.1 -0.1)">
       <defs>
        <path id="DejaVuSans-31" d="M 794 531 
L 1825 531 
L 1825 4091 
L 703 3866 
L 703 4441 
L 1819 4666 
L 2450 4666 
L 2450 531 
L 3481 531 
L 3481 0 
L 794 0 
L 794 531 
z
" transform="scale(0.015625)"/>
       </defs>
       <use xlink:href="#DejaVuSans-31"/>
       <use xlink:href="#DejaVuSans-30" x="63.623047"/>
       <use xlink:href="#DejaVuSans-30" x="127.246094"/>
       <use xlink:href="#DejaVuSans-30" x="190.869141"/>
      </g>
     </g>
    </g>
    <g id="text_6">
     <!-- S -->
     <g transform="translate(544.905781 85.145938) scale(0.1 -0.1)">
      <defs>
       <path id="DejaVuSans-53" d="M 3425 4513 
L 3425 3897 
Q 3066 4069 2747 4153 
Q 2428 4238 2131 4238 
Q 1616 4238 1336 4038 
Q 1056 3838 1056 3469 
Q 1056 3159 1242 3001 
Q 1428 2844 1947 2747 
L 2328 2669 
Q 3034 2534 3370 2195 
Q 3706 1856 3706 1288 
Q 3706 609 3251 259 
Q 2797 -91 1919 -91 
Q 1588 -91 1214 -16 
Q 841 59 441 206 
L 441 856 
Q 825 641 1194 531 
Q 1563 422 1919 422 
Q 2459 422 2753 634 
Q 3047 847 3047 1241 
Q 3047 1584 2836 1778 
Q 2625 1972 2144 2069 
L 1759 2144 
Q 1053 2284 737 2584 
Q 422 2884 422 3419 
Q 422 4038 858 4394 
Q 1294 4750 2059 4750 
Q 2388 4750 2728 4690 
Q 3069 4631 3425 4513 
z
" transform="scale(0.015625)"/>
      </defs>
      <use xlink:href="#DejaVuSans-53"/>
     </g>
    </g>
   </g>
   <g id="line2d_13">
    <path d="M 80.91 42.6775 
L 81.980831 45.245203 
L 83.051663 48.403844 
L 84.193883 52.483288 
L 85.407491 57.649958 
L 86.835266 64.724905 
L 88.976929 76.639907 
L 91.618313 91.107125 
L 93.188865 98.46256 
L 94.473863 103.470667 
L 95.687472 107.330189 
L 96.829692 110.259067 
L 97.971912 112.586403 
L 99.114132 114.410063 
L 100.256352 115.826062 
L 101.469961 116.971851 
L 102.754958 117.874242 
L 104.182733 118.602237 
L 105.824675 119.17834 
L 107.82356 119.628287 
L 110.322166 119.953846 
L 113.891604 120.173917 
L 119.674092 120.278041 
L 133.594899 120.242096 
L 210.266419 119.677196 
L 362.39585 118.529954 
L 449.632905 118.148478 
L 516.31 117.9988 
L 516.31 117.9988 
" clip-path="url(#p0b20ba5246)" style="fill: none; stroke: #1f77b4; stroke-width: 1.5; stroke-linecap: square"/>
   </g>
   <g id="line2d_14">
    <path d="M 80.91 42.6775 
L 81.980831 45.085581 
L 83.123051 48.227903 
L 84.33666 52.275891 
L 85.621658 57.387962 
L 87.120821 64.328355 
L 89.191095 75.095022 
L 92.260812 90.937418 
L 93.831364 97.893742 
L 95.18775 102.938624 
L 96.472748 106.861216 
L 97.686357 109.858663 
L 98.828577 112.121923 
L 99.970797 113.928363 
L 101.184406 115.434501 
L 102.398014 116.594837 
L 103.683012 117.528768 
L 105.110787 118.299269 
L 106.752728 118.925 
L 108.680225 119.414064 
L 111.107442 119.791385 
L 114.391325 120.055817 
L 119.24576 120.204016 
L 128.526298 120.228996 
L 162.293178 119.987314 
L 276.800736 118.913383 
L 362.752794 118.194995 
L 439.06737 117.790326 
L 516.31 117.590434 
L 516.31 117.590434 
" clip-path="url(#p0b20ba5246)" style="fill: none; stroke: #808080; stroke-opacity: 0.5; stroke-width: 1.5; stroke-linecap: square"/>
   </g>
   <g id="line2d_15">
    <path d="M 80.91 42.6775 
L 81.909443 45.371857 
L 82.908885 48.716553 
L 83.979716 53.087523 
L 85.193325 59.051759 
L 86.6211 67.265059 
L 91.76109 98.053111 
L 92.974699 103.44816 
L 94.116919 107.546981 
L 95.18775 110.60831 
L 96.258582 113.009858 
L 97.329413 114.864069 
L 98.400244 116.282478 
L 99.542464 117.415516 
L 100.756073 118.294293 
L 102.112459 118.992061 
L 103.683012 119.532324 
L 105.610508 119.944553 
L 108.109115 120.235913 
L 111.82133 120.420913 
L 118.531872 120.492536 
L 140.234053 120.406265 
L 235.466649 119.794445 
L 385.31164 118.813076 
L 475.975355 118.475863 
L 516.31 118.391806 
L 516.31 118.391806 
" clip-path="url(#p0b20ba5246)" style="fill: none; stroke: #808080; stroke-opacity: 0.5; stroke-width: 1.5; stroke-linecap: square"/>
   </g>
   <g id="line2d_16">
    <path d="M 80.91 42.6775 
L 82.05222 45.160895 
L 83.19444 48.192996 
L 84.408049 52.071357 
L 85.693046 56.94225 
L 87.19221 63.537615 
L 89.191095 73.437919 
L 92.689144 90.822094 
L 94.331085 97.798061 
L 95.687472 102.646279 
L 96.972469 106.448235 
L 98.186078 109.38084 
L 99.399687 111.742272 
L 100.613296 113.620184 
L 101.826904 115.097365 
L 103.111902 116.306604 
L 104.468288 117.273504 
L 105.967452 118.063895 
L 107.609393 118.677586 
L 109.608278 119.179037 
L 112.035496 119.554929 
L 115.319379 119.823043 
L 120.102425 119.974176 
L 128.883242 119.997973 
L 156.225134 119.764411 
L 384.240808 117.614254 
L 459.912886 117.327979 
L 516.31 117.230644 
L 516.31 117.230644 
" clip-path="url(#p0b20ba5246)" style="fill: none; stroke: #808080; stroke-opacity: 0.5; stroke-width: 1.5; stroke-linecap: square"/>
   </g>
   <g id="line2d_17">
    <path d="M 80.91 42.6775 
L 81.980831 45.110572 
L 83.123051 48.29357 
L 84.265271 52.138328 
L 85.550269 57.286504 
L 87.049433 64.300157 
L 89.119707 75.20074 
L 92.118034 90.899964 
L 93.688587 97.964719 
L 95.044973 103.084721 
L 96.258582 106.853926 
L 97.472191 109.917115 
L 98.614411 112.22519 
L 99.756631 114.060828 
L 100.970239 115.587374 
L 102.183848 116.759547 
L 103.468846 117.698464 
L 104.896621 118.469557 
L 106.538562 119.093818 
L 108.466058 119.578419 
L 110.893276 119.950487 
L 114.177159 120.209881 
L 119.174371 120.358175 
L 128.95463 120.386258 
L 169.360664 120.152171 
L 268.01992 119.394818 
L 388.666911 118.499837 
L 475.618411 118.097348 
L 516.31 117.986512 
L 516.31 117.986512 
" clip-path="url(#p0b20ba5246)" style="fill: none; stroke: #808080; stroke-opacity: 0.5; stroke-width: 1.5; stroke-linecap: square"/>
   </g>
   <g id="line2d_18">
    <path d="M 80.91 42.6775 
L 81.980831 45.18683 
L 83.051663 48.257944 
L 84.193883 52.209697 
L 85.47888 57.519229 
L 86.978044 64.758766 
L 89.119707 76.371484 
L 91.832479 90.842408 
L 93.403032 98.034096 
L 94.688029 102.957687 
L 95.901638 106.783435 
L 97.043858 109.708678 
L 98.186078 112.051693 
L 99.328298 113.904395 
L 100.470518 115.354404 
L 101.684127 116.53817 
L 102.969124 117.479999 
L 104.396899 118.247136 
L 105.967452 118.838551 
L 107.894948 119.317847 
L 110.322166 119.678772 
L 113.606049 119.922969 
L 118.603261 120.050485 
L 128.597687 120.04348 
L 169.931774 119.667353 
L 360.11141 117.91045 
L 431.928495 117.601867 
L 516.31 117.449501 
L 516.31 117.449501 
" clip-path="url(#p0b20ba5246)" style="fill: none; stroke: #808080; stroke-opacity: 0.5; stroke-width: 1.5; stroke-linecap: square"/>
   </g>
   <g id="line2d_19">
    <path d="M 80.91 42.6775 
L 81.909443 45.249092 
L 82.980274 48.668753 
L 84.122494 53.144298 
L 85.336103 58.861255 
L 86.763878 66.70692 
L 89.619428 84.059558 
L 91.475535 94.48049 
L 92.831922 100.900775 
L 94.04553 105.607483 
L 95.18775 109.160296 
L 96.258582 111.809096 
L 97.329413 113.890255 
L 98.400244 115.506325 
L 99.542464 116.822376 
L 100.684684 117.806234 
L 101.969682 118.616114 
L 103.397457 119.250853 
L 105.039398 119.736148 
L 107.181061 120.123403 
L 109.965222 120.386125 
L 114.248547 120.546197 
L 122.67242 120.596709 
L 161.57929 120.452772 
L 293.934037 119.746741 
L 455.772338 118.934198 
L 516.31 118.74988 
L 516.31 118.74988 
" clip-path="url(#p0b20ba5246)" style="fill: none; stroke: #808080; stroke-opacity: 0.5; stroke-width: 1.5; stroke-linecap: square"/>
   </g>
   <g id="line2d_20">
    <path d="M 80.91 42.6775 
L 81.980831 45.087784 
L 83.123051 48.232948 
L 84.33666 52.284441 
L 85.621658 57.40003 
L 87.120821 64.342749 
L 89.191095 75.10652 
L 92.189423 90.584764 
L 93.759975 97.571364 
L 95.116362 102.64754 
L 96.401359 106.598154 
L 97.614968 109.619326 
L 98.757188 111.901567 
L 99.899408 113.723365 
L 101.113017 115.242486 
L 102.326626 116.412751 
L 103.611623 117.354257 
L 105.039398 118.130582 
L 106.68134 118.760551 
L 108.608836 119.251877 
L 111.036053 119.629861 
L 114.248547 119.888788 
L 119.031594 120.033939 
L 128.026576 120.051332 
L 159.437627 119.787457 
L 384.454975 117.768596 
L 455.201228 117.508602 
L 516.31 117.401548 
L 516.31 117.401548 
" clip-path="url(#p0b20ba5246)" style="fill: none; stroke: #808080; stroke-opacity: 0.5; stroke-width: 1.5; stroke-linecap: square"/>
   </g>
   <g id="line2d_21">
    <path d="M 80.91 42.6775 
L 81.980831 45.327148 
L 83.051663 48.603404 
L 84.193883 52.851919 
L 85.407491 58.243922 
L 86.906655 66.011148 
L 89.333873 80.030623 
L 91.546924 92.253998 
L 93.046088 99.300204 
L 94.331085 104.276942 
L 95.473305 107.87078 
L 96.615525 110.758114 
L 97.686357 112.903391 
L 98.828577 114.69617 
L 99.970797 116.075046 
L 101.184406 117.180007 
L 102.469403 118.043246 
L 103.897178 118.732436 
L 105.53912 119.270588 
L 107.609393 119.698486 
L 110.250777 119.99967 
L 114.10577 120.191915 
L 120.816313 120.265191 
L 139.662943 120.169957 
L 230.326658 119.428756 
L 340.765058 118.549983 
L 414.438251 118.172112 
L 501.746695 117.944187 
L 516.31 117.923246 
L 516.31 117.923246 
" clip-path="url(#p0b20ba5246)" style="fill: none; stroke: #808080; stroke-opacity: 0.5; stroke-width: 1.5; stroke-linecap: square"/>
   </g>
   <g id="line2d_22">
    <path d="M 80.91 42.6775 
L 81.909443 45.1525 
L 82.980274 48.418023 
L 84.122494 52.665237 
L 85.336103 58.072149 
L 86.763878 65.491094 
L 89.048318 78.768003 
L 91.332758 91.632718 
L 92.831922 98.852796 
L 94.116919 103.972575 
L 95.259139 107.670869 
L 96.401359 110.642818 
L 97.472191 112.849818 
L 98.614411 114.690683 
L 99.756631 116.104638 
L 100.898851 117.177929 
L 102.183848 118.074129 
L 103.611623 118.788123 
L 105.253565 119.344485 
L 107.25245 119.773033 
L 109.822445 120.082187 
L 113.53466 120.282928 
L 119.888259 120.36863 
L 137.307114 120.303659 
L 223.687505 119.688825 
L 372.318887 118.612491 
L 451.132069 118.273965 
L 516.31 118.120834 
L 516.31 118.120834 
" clip-path="url(#p0b20ba5246)" style="fill: none; stroke: #808080; stroke-opacity: 0.5; stroke-width: 1.5; stroke-linecap: square"/>
   </g>
   <g id="line2d_23">
    <path d="M 80.91 42.6775 
L 82.05222 45.218877 
L 83.19444 48.335336 
L 84.408049 52.335176 
L 85.693046 57.370256 
L 87.19221 64.190866 
L 89.262484 74.769858 
L 92.403589 90.750389 
L 94.04553 97.91933 
L 95.401917 102.887854 
L 96.686914 106.764838 
L 97.900523 109.739565 
L 99.114132 112.120702 
L 100.327741 114.002201 
L 101.541349 115.472924 
L 102.754958 116.610549 
L 104.111344 117.574465 
L 105.610508 118.356957 
L 107.25245 118.960068 
L 109.251335 119.449023 
L 111.749941 119.820195 
L 115.105212 120.077162 
L 120.173814 120.221611 
L 129.954073 120.240624 
L 166.862058 119.976204 
L 285.795719 118.87198 
L 378.886652 118.122008 
L 451.988734 117.759855 
L 516.31 117.593086 
L 516.31 117.593086 
" clip-path="url(#p0b20ba5246)" style="fill: none; stroke: #808080; stroke-opacity: 0.5; stroke-width: 1.5; stroke-linecap: square"/>
   </g>
   <g id="patch_3">
    <path d="M 59.14 121.135 
L 59.14 33.96 
" style="fill: none; stroke: #000000; stroke-width: 0.8; stroke-linejoin: miter; stroke-linecap: square"/>
   </g>
   <g id="patch_4">
    <path d="M 538.08 121.135 
L 538.08 33.96 
" style="fill: none; stroke: #000000; stroke-width: 0.8; stroke-linejoin: miter; stroke-linecap: square"/>
   </g>
   <g id="patch_5">
    <path d="M 59.14 121.135 
L 538.08 121.135 
" style="fill: none; stroke: #000000; stroke-width: 0.8; stroke-linejoin: miter; stroke-linecap: square"/>
   </g>
   <g id="patch_6">
    <path d="M 59.14 33.96 
L 538.08 33.96 
" style="fill: none; stroke: #000000; stroke-width: 0.8; stroke-linejoin: miter; stroke-linecap: square"/>
   </g>
   <g id="legend_1">
    <g id="patch_7">
     <path d="M 477.845625 56.638125 
L 531.08 56.638125 
Q 533.08 56.638125 533.08 54.638125 
L 533.08 40.96 
Q 533.08 38.96 531.08 38.96 
L 477.845625 38.96 
Q 475.845625 38.96 475.845625 40.96 
L 475.845625 54.638125 
Q 475.845625 56.638125 477.845625 56.638125 
z
" style="fill: #ffffff; opacity: 0.8; stroke: #cccccc; stroke-linejoin: miter"/>
    </g>
    <g id="line2d_24">
     <path d="M 479.845625 47.058438 
L 489.845625 47.058438 
L 499.845625 47.058438 
" style="fill: none; stroke: #1f77b4; stroke-width: 1.5; stroke-linecap: square"/>
    </g>
    <g id="text_7">
     <!-- True -->
     <g transform="translate(507.845625 50.558438) scale(0.1 -0.1)">
      <defs>
       <path id="DejaVuSans-54" d="M -19 4666 
L 3928 4666 
L 3928 4134 
L 2272 4134 
L 2272 0 
L 1638 0 
L 1638 4134 
L -19 4134 
L -19 4666 
z
" transform="scale(0.015625)"/>
       <path id="DejaVuSans-72" d="M 2631 2963 
Q 2534 3019 2420 3045 
Q 2306 3072 2169 3072 
Q 1681 3072 1420 2755 
Q 1159 2438 1159 1844 
L 1159 0 
L 581 0 
L 581 3500 
L 1159 3500 
L 1159 2956 
Q 1341 3275 1631 3429 
Q 1922 3584 2338 3584 
Q 2397 3584 2469 3576 
Q 2541 3569 2628 3553 
L 2631 2963 
z
" transform="scale(0.015625)"/>
       <path id="DejaVuSans-75" d="M 544 1381 
L 544 3500 
L 1119 3500 
L 1119 1403 
Q 1119 906 1312 657 
Q 1506 409 1894 409 
Q 2359 409 2629 706 
Q 2900 1003 2900 1516 
L 2900 3500 
L 3475 3500 
L 3475 0 
L 2900 0 
L 2900 538 
Q 2691 219 2414 64 
Q 2138 -91 1772 -91 
Q 1169 -91 856 284 
Q 544 659 544 1381 
z
M 1991 3584 
L 1991 3584 
z
" transform="scale(0.015625)"/>
       <path id="DejaVuSans-65" d="M 3597 1894 
L 3597 1613 
L 953 1613 
Q 991 1019 1311 708 
Q 1631 397 2203 397 
Q 2534 397 2845 478 
Q 3156 559 3463 722 
L 3463 178 
Q 3153 47 2828 -22 
Q 2503 -91 2169 -91 
Q 1331 -91 842 396 
Q 353 884 353 1716 
Q 353 2575 817 3079 
Q 1281 3584 2069 3584 
Q 2775 3584 3186 3129 
Q 3597 2675 3597 1894 
z
M 3022 2063 
Q 3016 2534 2758 2815 
Q 2500 3097 2075 3097 
Q 1594 3097 1305 2825 
Q 1016 2553 972 2059 
L 3022 2063 
z
" transform="scale(0.015625)"/>
      </defs>
      <use xlink:href="#DejaVuSans-54"/>
      <use xlink:href="#DejaVuSans-72" x="46.333984"/>
      <use xlink:href="#DejaVuSans-75" x="87.447266"/>
      <use xlink:href="#DejaVuSans-65" x="150.826172"/>
     </g>
    </g>
   </g>
  </g>
  <g id="axes_2">
   <g id="patch_8">
    <path d="M 59.14 217.0275 
L 538.08 217.0275 
L 538.08 129.8525 
L 59.14 129.8525 
z
" style="fill: #ffffff"/>
   </g>
   <g id="PathCollection_1">
    <defs>
     <path id="m7d8717e758" d="M 0 1.581139 
C 0.419323 1.581139 0.821528 1.41454 1.118034 1.118034 
C 1.41454 0.821528 1.581139 0.419323 1.581139 0 
C 1.581139 -0.419323 1.41454 -0.821528 1.118034 -1.118034 
C 0.821528 -1.41454 0.419323 -1.581139 0 -1.581139 
C -0.419323 -1.581139 -0.821528 -1.41454 -1.118034 -1.118034 
C -1.41454 -0.821528 -1.581139 -0.419323 -1.581139 0 
C -1.581139 0.419323 -1.41454 0.821528 -1.118034 1.118034 
C -0.821528 1.41454 -0.419323 1.581139 0 1.581139 
z
" style="stroke: #000000"/>
    </defs>
    <g clip-path="url(#p350fcebb2f)">
     <use xlink:href="#m7d8717e758" x="80.91" y="200.513816" style="stroke: #000000"/>
     <use xlink:href="#m7d8717e758" x="88.048875" y="178.917737" style="stroke: #000000"/>
     <use xlink:href="#m7d8717e758" x="95.18775" y="149.053178" style="stroke: #000000"/>
     <use xlink:href="#m7d8717e758" x="102.326626" y="150.035157" style="stroke: #000000"/>
     <use xlink:href="#m7d8717e758" x="109.465501" y="145.096309" style="stroke: #000000"/>
     <use xlink:href="#m7d8717e758" x="116.604376" y="149.047687" style="stroke: #000000"/>
     <use xlink:href="#m7d8717e758" x="123.743251" y="151.541736" style="stroke: #000000"/>
     <use xlink:href="#m7d8717e758" x="130.882127" y="157.396024" style="stroke: #000000"/>
     <use xlink:href="#m7d8717e758" x="138.021002" y="158.103494" style="stroke: #000000"/>
     <use xlink:href="#m7d8717e758" x="145.159877" y="163.01561" style="stroke: #000000"/>
     <use xlink:href="#m7d8717e758" x="152.298752" y="169.47293" style="stroke: #000000"/>
     <use xlink:href="#m7d8717e758" x="159.437627" y="162.503767" style="stroke: #000000"/>
     <use xlink:href="#m7d8717e758" x="166.576503" y="164.947225" style="stroke: #000000"/>
     <use xlink:href="#m7d8717e758" x="173.715378" y="163.595324" style="stroke: #000000"/>
     <use xlink:href="#m7d8717e758" x="180.854253" y="172.929252" style="stroke: #000000"/>
     <use xlink:href="#m7d8717e758" x="187.993128" y="176.862116" style="stroke: #000000"/>
     <use xlink:href="#m7d8717e758" x="195.132004" y="179.291305" style="stroke: #000000"/>
     <use xlink:href="#m7d8717e758" x="202.270879" y="185.341597" style="stroke: #000000"/>
     <use xlink:href="#m7d8717e758" x="209.409754" y="175.887418" style="stroke: #000000"/>
     <use xlink:href="#m7d8717e758" x="216.548629" y="186.428395" style="stroke: #000000"/>
     <use xlink:href="#m7d8717e758" x="223.687505" y="188.14937" style="stroke: #000000"/>
     <use xlink:href="#m7d8717e758" x="230.82638" y="185.140984" style="stroke: #000000"/>
     <use xlink:href="#m7d8717e758" x="237.965255" y="178.940183" style="stroke: #000000"/>
     <use xlink:href="#m7d8717e758" x="245.10413" y="185.474726" style="stroke: #000000"/>
     <use xlink:href="#m7d8717e758" x="252.243005" y="191.981053" style="stroke: #000000"/>
     <use xlink:href="#m7d8717e758" x="259.381881" y="191.568846" style="stroke: #000000"/>
     <use xlink:href="#m7d8717e758" x="266.520756" y="186.610764" style="stroke: #000000"/>
     <use xlink:href="#m7d8717e758" x="273.659631" y="190.847284" style="stroke: #000000"/>
     <use xlink:href="#m7d8717e758" x="280.798506" y="194.254129" style="stroke: #000000"/>
     <use xlink:href="#m7d8717e758" x="287.937382" y="192.608487" style="stroke: #000000"/>
     <use xlink:href="#m7d8717e758" x="295.076257" y="189.009653" style="stroke: #000000"/>
     <use xlink:href="#m7d8717e758" x="302.215132" y="184.247554" style="stroke: #000000"/>
     <use xlink:href="#m7d8717e758" x="309.354007" y="198.845353" style="stroke: #000000"/>
     <use xlink:href="#m7d8717e758" x="316.492882" y="196.675415" style="stroke: #000000"/>
     <use xlink:href="#m7d8717e758" x="323.631758" y="197.93256" style="stroke: #000000"/>
     <use xlink:href="#m7d8717e758" x="330.770633" y="205.420681" style="stroke: #000000"/>
     <use xlink:href="#m7d8717e758" x="337.909508" y="199.31823" style="stroke: #000000"/>
     <use xlink:href="#m7d8717e758" x="345.048383" y="200.140528" style="stroke: #000000"/>
     <use xlink:href="#m7d8717e758" x="352.187259" y="191.137101" style="stroke: #000000"/>
     <use xlink:href="#m7d8717e758" x="359.326134" y="196.942291" style="stroke: #000000"/>
     <use xlink:href="#m7d8717e758" x="366.465009" y="203.747937" style="stroke: #000000"/>
     <use xlink:href="#m7d8717e758" x="373.603884" y="194.136372" style="stroke: #000000"/>
     <use xlink:href="#m7d8717e758" x="380.742759" y="198.770425" style="stroke: #000000"/>
     <use xlink:href="#m7d8717e758" x="387.881635" y="205.059064" style="stroke: #000000"/>
     <use xlink:href="#m7d8717e758" x="395.02051" y="200.286879" style="stroke: #000000"/>
     <use xlink:href="#m7d8717e758" x="402.159385" y="200.458163" style="stroke: #000000"/>
     <use xlink:href="#m7d8717e758" x="409.29826" y="201.891637" style="stroke: #000000"/>
     <use xlink:href="#m7d8717e758" x="416.437136" y="198.128825" style="stroke: #000000"/>
     <use xlink:href="#m7d8717e758" x="423.576011" y="208.220913" style="stroke: #000000"/>
     <use xlink:href="#m7d8717e758" x="430.714886" y="199.739484" style="stroke: #000000"/>
     <use xlink:href="#m7d8717e758" x="437.853761" y="194.2955" style="stroke: #000000"/>
     <use xlink:href="#m7d8717e758" x="444.992636" y="195.121829" style="stroke: #000000"/>
     <use xlink:href="#m7d8717e758" x="452.131512" y="194.124851" style="stroke: #000000"/>
     <use xlink:href="#m7d8717e758" x="459.270387" y="194.182938" style="stroke: #000000"/>
     <use xlink:href="#m7d8717e758" x="466.409262" y="192.677098" style="stroke: #000000"/>
     <use xlink:href="#m7d8717e758" x="473.548137" y="204.126912" style="stroke: #000000"/>
     <use xlink:href="#m7d8717e758" x="480.687013" y="195.650523" style="stroke: #000000"/>
     <use xlink:href="#m7d8717e758" x="487.825888" y="207.526478" style="stroke: #000000"/>
     <use xlink:href="#m7d8717e758" x="494.964763" y="202.114097" style="stroke: #000000"/>
     <use xlink:href="#m7d8717e758" x="502.103638" y="207.895374" style="stroke: #000000"/>
     <use xlink:href="#m7d8717e758" x="509.242514" y="195.041226" style="stroke: #000000"/>
    </g>
   </g>
   <g id="matplotlib.axis_3">
    <g id="xtick_8">
     <g id="line2d_25">
      <g>
       <use xlink:href="#mfeb1a47ea9" x="80.91" y="217.0275" style="stroke: #000000; stroke-width: 0.8"/>
      </g>
     </g>
    </g>
    <g id="xtick_9">
     <g id="line2d_26">
      <g>
       <use xlink:href="#mfeb1a47ea9" x="153.476667" y="217.0275" style="stroke: #000000; stroke-width: 0.8"/>
      </g>
     </g>
    </g>
    <g id="xtick_10">
     <g id="line2d_27">
      <g>
       <use xlink:href="#mfeb1a47ea9" x="226.043333" y="217.0275" style="stroke: #000000; stroke-width: 0.8"/>
      </g>
     </g>
    </g>
    <g id="xtick_11">
     <g id="line2d_28">
      <g>
       <use xlink:href="#mfeb1a47ea9" x="298.61" y="217.0275" style="stroke: #000000; stroke-width: 0.8"/>
      </g>
     </g>
    </g>
    <g id="xtick_12">
     <g id="line2d_29">
      <g>
       <use xlink:href="#mfeb1a47ea9" x="371.176667" y="217.0275" style="stroke: #000000; stroke-width: 0.8"/>
      </g>
     </g>
    </g>
    <g id="xtick_13">
     <g id="line2d_30">
      <g>
       <use xlink:href="#mfeb1a47ea9" x="443.743333" y="217.0275" style="stroke: #000000; stroke-width: 0.8"/>
      </g>
     </g>
    </g>
    <g id="xtick_14">
     <g id="line2d_31">
      <g>
       <use xlink:href="#mfeb1a47ea9" x="516.31" y="217.0275" style="stroke: #000000; stroke-width: 0.8"/>
      </g>
     </g>
    </g>
   </g>
   <g id="matplotlib.axis_4">
    <g id="ytick_6">
     <g id="line2d_32">
      <g>
       <use xlink:href="#m1f4ddd9d94" x="59.14" y="217.0275" style="stroke: #000000; stroke-width: 0.8"/>
      </g>
     </g>
     <g id="text_8">
      <!-- 0 -->
      <g transform="translate(45.7775 220.826719) scale(0.1 -0.1)">
       <use xlink:href="#DejaVuSans-30"/>
      </g>
     </g>
    </g>
    <g id="ytick_7">
     <g id="line2d_33">
      <g>
       <use xlink:href="#m1f4ddd9d94" x="59.14" y="195.23375" style="stroke: #000000; stroke-width: 0.8"/>
      </g>
     </g>
     <g id="text_9">
      <!-- 250 -->
      <g transform="translate(33.0525 199.032969) scale(0.1 -0.1)">
       <use xlink:href="#DejaVuSans-32"/>
       <use xlink:href="#DejaVuSans-35" x="63.623047"/>
       <use xlink:href="#DejaVuSans-30" x="127.246094"/>
      </g>
     </g>
    </g>
    <g id="ytick_8">
     <g id="line2d_34">
      <g>
       <use xlink:href="#m1f4ddd9d94" x="59.14" y="173.44" style="stroke: #000000; stroke-width: 0.8"/>
      </g>
     </g>
     <g id="text_10">
      <!-- 500 -->
      <g transform="translate(33.0525 177.239219) scale(0.1 -0.1)">
       <use xlink:href="#DejaVuSans-35"/>
       <use xlink:href="#DejaVuSans-30" x="63.623047"/>
       <use xlink:href="#DejaVuSans-30" x="127.246094"/>
      </g>
     </g>
    </g>
    <g id="ytick_9">
     <g id="line2d_35">
      <g>
       <use xlink:href="#m1f4ddd9d94" x="59.14" y="151.64625" style="stroke: #000000; stroke-width: 0.8"/>
      </g>
     </g>
     <g id="text_11">
      <!-- 750 -->
      <g transform="translate(33.0525 155.445469) scale(0.1 -0.1)">
       <use xlink:href="#DejaVuSans-37"/>
       <use xlink:href="#DejaVuSans-35" x="63.623047"/>
       <use xlink:href="#DejaVuSans-30" x="127.246094"/>
      </g>
     </g>
    </g>
    <g id="ytick_10">
     <g id="line2d_36">
      <g>
       <use xlink:href="#m1f4ddd9d94" x="59.14" y="129.8525" style="stroke: #000000; stroke-width: 0.8"/>
      </g>
     </g>
     <g id="text_12">
      <!-- 1000 -->
      <g transform="translate(26.69 133.651719) scale(0.1 -0.1)">
       <use xlink:href="#DejaVuSans-31"/>
       <use xlink:href="#DejaVuSans-30" x="63.623047"/>
       <use xlink:href="#DejaVuSans-30" x="127.246094"/>
       <use xlink:href="#DejaVuSans-30" x="190.869141"/>
      </g>
     </g>
    </g>
    <g id="text_13">
     <!-- I -->
     <g transform="translate(546.605 181.038437) scale(0.1 -0.1)">
      <defs>
       <path id="DejaVuSans-49" d="M 628 4666 
L 1259 4666 
L 1259 0 
L 628 0 
L 628 4666 
z
" transform="scale(0.015625)"/>
      </defs>
      <use xlink:href="#DejaVuSans-49"/>
     </g>
    </g>
   </g>
   <g id="line2d_37">
    <path d="M 80.91 208.31 
L 81.980831 205.829973 
L 83.051663 202.783199 
L 84.193883 198.855536 
L 85.47888 193.578354 
L 86.978044 186.408305 
L 89.619428 172.408431 
L 91.618313 162.409753 
L 93.046088 156.342463 
L 94.259697 152.1079 
L 95.330528 149.112636 
L 96.401359 146.756881 
L 97.400802 145.077675 
L 98.400244 143.834278 
L 99.399687 142.954093 
L 100.399129 142.374734 
L 101.398572 142.042623 
L 102.540792 141.903076 
L 103.825789 141.976255 
L 105.324953 142.289935 
L 107.25245 142.939163 
L 109.822445 144.053772 
L 114.034381 146.160639 
L 128.240743 153.401829 
L 135.593784 156.833742 
L 142.946826 160.021571 
L 150.585422 163.090356 
L 158.509574 166.030411 
L 166.647891 168.812064 
L 175.214542 171.500961 
L 183.92397 174.003508 
L 193.204507 176.436758 
L 202.699211 178.698188 
L 212.907803 180.897949 
L 223.401949 182.931734 
L 234.752761 184.90055 
L 246.389128 186.694074 
L 259.096326 188.424686 
L 272.231856 189.990012 
L 286.723773 191.489988 
L 301.786799 192.825932 
L 318.634545 194.094309 
L 336.338956 195.202899 
L 356.470584 196.238215 
L 378.244153 197.127858 
L 402.873273 197.912321 
L 431.571551 198.589719 
L 463.482323 199.121316 
L 503.959746 199.566539 
L 516.31 199.663646 
L 516.31 199.663646 
" clip-path="url(#p350fcebb2f)" style="fill: none; stroke: #1f77b4; stroke-width: 1.5; stroke-linecap: square"/>
   </g>
   <g id="line2d_38">
    <path d="M 80.91 208.31 
L 81.980831 205.99605 
L 83.123051 202.980983 
L 84.33666 199.105124 
L 85.621658 194.225226 
L 87.120821 187.631549 
L 89.405262 176.426161 
L 91.903868 164.485747 
L 93.403032 158.331707 
L 94.688029 153.938307 
L 95.830249 150.780488 
L 96.901081 148.42239 
L 97.971912 146.598538 
L 98.971354 145.322828 
L 99.970797 144.39687 
L 100.970239 143.766276 
L 102.041071 143.363708 
L 103.183291 143.1856 
L 104.468288 143.223162 
L 105.967452 143.506901 
L 107.752171 144.08531 
L 110.108 145.094641 
L 113.53466 146.829177 
L 134.594342 157.889058 
L 141.661828 161.167348 
L 148.872092 164.265826 
L 156.296522 167.21433 
L 164.077896 170.061609 
L 172.002048 172.72503 
L 180.354532 175.296628 
L 188.992571 177.723686 
L 198.130331 180.055771 
L 207.625035 182.248966 
L 217.619461 184.325673 
L 228.184996 186.293331 
L 239.321641 188.135645 
L 251.243563 189.880209 
L 263.665206 191.470555 
L 277.229069 192.98199 
L 291.43543 194.339784 
L 307.212345 195.621761 
L 323.845924 196.748905 
L 342.692555 197.798309 
L 362.752794 198.690859 
L 386.096916 199.501254 
L 411.511312 200.157404 
L 442.208475 200.723303 
L 478.902294 201.160437 
L 516.31 201.434062 
L 516.31 201.434062 
" clip-path="url(#p350fcebb2f)" style="fill: none; stroke: #808080; stroke-opacity: 0.5; stroke-width: 1.5; stroke-linecap: square"/>
   </g>
   <g id="line2d_39">
    <path d="M 80.91 208.31 
L 81.909443 205.699722 
L 82.908885 202.463544 
L 83.979716 198.242111 
L 85.193325 192.498072 
L 86.692489 184.207707 
L 91.118592 158.836303 
L 92.3322 153.503631 
L 93.403032 149.722717 
L 94.402474 146.954272 
L 95.330528 144.972818 
L 96.258582 143.489523 
L 97.186636 142.426366 
L 98.114689 141.705863 
L 99.042743 141.266132 
L 100.042186 141.043078 
L 101.184406 141.028752 
L 102.469403 141.238185 
L 104.111344 141.750139 
L 106.324396 142.698179 
L 109.608278 144.376873 
L 128.526298 154.401016 
L 135.736562 157.81764 
L 143.089603 161.055744 
L 150.7282 164.174867 
L 158.509574 167.112735 
L 166.647891 169.94961 
L 175.071764 172.648598 
L 183.852581 175.229474 
L 193.06173 177.700288 
L 202.556434 180.019116 
L 212.693637 182.261478 
L 223.116394 184.339779 
L 234.324429 186.34473 
L 245.889406 188.187865 
L 258.453827 189.962611 
L 271.517969 191.581593 
L 285.795719 193.124881 
L 300.787357 194.518422 
L 317.20677 195.821532 
L 334.982569 197.00205 
L 354.257532 198.060322 
L 376.031102 199.023228 
L 399.446613 199.836038 
L 427.002671 200.564059 
L 458.342333 201.157645 
L 495.036152 201.630869 
L 516.31 201.824694 
L 516.31 201.824694 
" clip-path="url(#p350fcebb2f)" style="fill: none; stroke: #808080; stroke-opacity: 0.5; stroke-width: 1.5; stroke-linecap: square"/>
   </g>
   <g id="line2d_40">
    <path d="M 80.91 208.31 
L 82.05222 205.928925 
L 83.19444 203.026182 
L 84.408049 199.321171 
L 85.764435 194.403549 
L 87.334988 187.795195 
L 89.619428 177.076317 
L 92.260812 164.973179 
L 93.831364 158.789754 
L 95.116362 154.56477 
L 96.32997 151.330943 
L 97.472191 148.922115 
L 98.543022 147.177362 
L 99.542464 145.946475 
L 100.541907 145.044027 
L 101.541349 144.421685 
L 102.612181 144.015821 
L 103.754401 143.825345 
L 105.039398 143.8434 
L 106.538562 144.101466 
L 108.323281 144.650298 
L 110.67911 145.626472 
L 113.962992 147.250347 
L 121.316034 151.207504 
L 129.52574 155.509069 
L 136.450449 158.88411 
L 143.446547 162.045122 
L 150.585422 165.024067 
L 157.938464 167.852152 
L 165.57706 170.549559 
L 173.5726 173.135879 
L 181.853696 175.576029 
L 190.563123 177.909926 
L 199.558106 180.08771 
L 209.195588 182.18971 
L 219.118624 184.125506 
L 229.826937 185.984446 
L 240.963583 187.692567 
L 253.028282 189.312464 
L 265.806868 190.803382 
L 279.584898 192.180016 
L 294.505147 193.446271 
L 310.567616 194.579164 
L 328.414804 195.613469 
L 347.832545 196.507808 
L 369.891669 197.300216 
L 394.949121 197.965007 
L 423.790177 198.507944 
L 460.127052 198.951001 
L 503.959746 199.256316 
L 516.31 199.313224 
L 516.31 199.313224 
" clip-path="url(#p350fcebb2f)" style="fill: none; stroke: #808080; stroke-opacity: 0.5; stroke-width: 1.5; stroke-linecap: square"/>
   </g>
   <g id="line2d_41">
    <path d="M 80.91 208.31 
L 81.980831 205.965126 
L 83.123051 202.901741 
L 84.33666 198.955994 
L 85.621658 193.979718 
L 87.120821 187.248621 
L 89.47665 175.464187 
L 91.903868 163.70508 
L 93.403032 157.496809 
L 94.688029 153.086284 
L 95.830249 149.930102 
L 96.901081 147.582008 
L 97.900523 145.876671 
L 98.899966 144.586373 
L 99.899408 143.648628 
L 100.898851 143.006327 
L 101.969682 142.590811 
L 103.111902 142.398078 
L 104.396899 142.417567 
L 105.896063 142.676438 
L 107.680782 143.221363 
L 110.108 144.214249 
L 113.606049 145.913419 
L 135.593784 157.003032 
L 143.018214 160.319089 
L 150.656811 163.486806 
L 158.509574 166.501517 
L 166.647891 169.388348 
L 175.143153 172.161526 
L 183.92397 174.793924 
L 193.06173 177.298544 
L 202.627823 179.690298 
L 212.622248 181.956282 
L 223.116394 184.108215 
L 234.110262 186.132724 
L 245.818018 188.062053 
L 258.096883 189.856125 
L 271.303802 191.559508 
L 285.15322 193.118194 
L 300.287636 194.595383 
L 316.207327 195.922435 
L 333.840349 197.166823 
L 352.544202 198.260726 
L 373.675273 199.271033 
L 396.519674 200.13484 
L 422.719346 200.900943 
L 452.559844 201.539104 
L 487.040612 202.053412 
L 516.31 202.351625 
L 516.31 202.351625 
" clip-path="url(#p350fcebb2f)" style="fill: none; stroke: #808080; stroke-opacity: 0.5; stroke-width: 1.5; stroke-linecap: square"/>
   </g>
   <g id="line2d_42">
    <path d="M 80.91 208.31 
L 81.980831 205.897534 
L 83.123051 202.732484 
L 84.265271 198.903778 
L 85.550269 193.785784 
L 87.049433 186.86186 
L 89.619428 173.702546 
L 91.76109 163.297633 
L 93.188865 157.392985 
L 94.402474 153.250199 
L 95.544694 150.127307 
L 96.615525 147.835376 
L 97.614968 146.199279 
L 98.614411 144.986782 
L 99.613853 144.13019 
L 100.613296 143.571709 
L 101.612738 143.259239 
L 102.754958 143.14217 
L 104.039956 143.243027 
L 105.53912 143.594107 
L 107.395227 144.268429 
L 109.893833 145.422779 
L 113.891604 147.549413 
L 127.883799 155.140695 
L 134.66573 158.493462 
L 141.519051 161.632652 
L 148.586537 164.622476 
L 155.796801 167.431932 
L 163.364009 170.141411 
L 171.145383 172.691255 
L 179.355089 175.145928 
L 187.778962 177.434906 
L 196.773945 179.645826 
L 206.125871 181.71553 
L 216.048908 183.679571 
L 226.471666 185.516746 
L 237.608311 187.247466 
L 249.458844 188.863133 
L 262.023264 190.346107 
L 275.658516 191.731276 
L 290.221822 192.980533 
L 306.284291 194.133963 
L 323.631758 195.148711 
L 343.049498 196.061229 
L 364.751679 196.847279 
L 389.238021 197.512081 
L 418.864353 198.077788 
L 452.488455 198.495839 
L 497.177814 198.824559 
L 516.31 198.911857 
L 516.31 198.911857 
" clip-path="url(#p350fcebb2f)" style="fill: none; stroke: #808080; stroke-opacity: 0.5; stroke-width: 1.5; stroke-linecap: square"/>
   </g>
   <g id="line2d_43">
    <path d="M 80.91 208.31 
L 81.909443 205.813055 
L 82.980274 202.496581 
L 84.122494 198.163605 
L 85.336103 192.643013 
L 86.835266 184.697774 
L 91.689702 157.928865 
L 92.90331 152.853055 
L 93.974142 149.227904 
L 95.044973 146.37993 
L 96.044415 144.344899 
L 96.972469 142.926177 
L 97.900523 141.891053 
L 98.828577 141.170125 
L 99.828019 140.682079 
L 100.898851 140.424142 
L 102.112459 140.381159 
L 103.468846 140.561214 
L 105.182176 141.030171 
L 107.466616 141.905588 
L 110.893276 143.487766 
L 133.095178 154.158944 
L 141.090718 157.581102 
L 149.300425 160.850987 
L 157.724297 163.966896 
L 166.505114 166.976634 
L 175.500097 169.824146 
L 184.923412 172.574583 
L 194.703671 175.194541 
L 204.840874 177.681403 
L 215.549187 180.076294 
L 226.614443 182.322953 
L 238.393587 184.485602 
L 250.601064 186.499325 
L 263.665206 188.428305 
L 277.371846 190.223617 
L 292.00654 191.916146 
L 307.712066 193.502079 
L 324.274256 194.951487 
L 342.478388 196.315624 
L 361.610574 197.526627 
L 383.098588 198.660783 
L 406.157155 199.650617 
L 431.999884 200.53774 
L 461.626216 201.320281 
L 494.250876 201.958266 
L 516.31 202.287832 
L 516.31 202.287832 
" clip-path="url(#p350fcebb2f)" style="fill: none; stroke: #808080; stroke-opacity: 0.5; stroke-width: 1.5; stroke-linecap: square"/>
   </g>
   <g id="line2d_44">
    <path d="M 80.91 208.31 
L 81.980831 205.994596 
L 83.123051 202.977669 
L 84.33666 199.099599 
L 85.621658 194.217871 
L 87.19221 187.290503 
L 89.619428 175.36016 
L 91.975257 164.198286 
L 93.47442 158.113258 
L 94.759418 153.789352 
L 95.901638 150.69191 
L 96.972469 148.386585 
L 97.971912 146.713671 
L 98.971354 145.449846 
L 99.970797 144.534177 
L 100.970239 143.912506 
L 102.041071 143.518001 
L 103.183291 143.346838 
L 104.468288 143.390363 
L 105.967452 143.67922 
L 107.752171 144.261419 
L 110.179388 145.3062 
L 113.677437 147.080793 
L 132.9524 157.194141 
L 139.877109 160.421094 
L 146.944596 163.467759 
L 154.226249 166.364907 
L 161.793456 169.132765 
L 169.646219 171.768416 
L 177.784537 174.262157 
L 186.351187 176.654474 
L 195.132004 178.875805 
L 204.555319 181.030076 
L 214.264189 183.02109 
L 224.758336 184.943094 
L 235.609426 186.704322 
L 247.38857 188.386615 
L 259.738824 189.925618 
L 273.15991 191.368275 
L 287.43766 192.679683 
L 303.143186 193.890262 
L 320.06232 194.970748 
L 338.908951 195.941906 
L 359.468911 196.779758 
L 383.384143 197.519989 
L 409.726593 198.113481 
L 442.708196 198.622899 
L 482.257565 198.995669 
L 516.31 199.189823 
L 516.31 199.189823 
" clip-path="url(#p350fcebb2f)" style="fill: none; stroke: #808080; stroke-opacity: 0.5; stroke-width: 1.5; stroke-linecap: square"/>
   </g>
   <g id="line2d_45">
    <path d="M 80.91 208.31 
L 81.980831 205.75212 
L 83.051663 202.593714 
L 84.193883 198.506085 
L 85.47888 193.003589 
L 86.978044 185.541318 
L 92.260812 158.239634 
L 93.47442 153.561851 
L 94.61664 150.023035 
L 95.687472 147.425646 
L 96.686914 145.569106 
L 97.614968 144.276474 
L 98.543022 143.335086 
L 99.471076 142.686599 
L 100.470518 142.260304 
L 101.541349 142.055386 
L 102.754958 142.062818 
L 104.111344 142.295006 
L 105.824675 142.828664 
L 108.109115 143.793113 
L 111.464386 145.478915 
L 131.23907 155.782186 
L 138.306557 159.051362 
L 145.58821 162.173432 
L 153.01264 165.115802 
L 160.794014 167.961117 
L 168.789554 170.646706 
L 177.213427 173.241481 
L 185.922855 175.687585 
L 195.060615 178.023815 
L 204.626708 180.235073 
L 214.692522 182.333507 
L 225.258057 184.304096 
L 236.466091 186.168212 
L 248.316624 187.907909 
L 260.952433 189.538057 
L 274.444907 191.047837 
L 288.936824 192.445303 
L 304.64235 193.728023 
L 321.561484 194.88653 
L 340.336726 195.940094 
L 360.539743 196.852211 
L 384.026642 197.680224 
L 409.369649 198.350304 
L 440.066813 198.936362 
L 477.40313 199.406126 
L 516.31 199.70896 
L 516.31 199.70896 
" clip-path="url(#p350fcebb2f)" style="fill: none; stroke: #808080; stroke-opacity: 0.5; stroke-width: 1.5; stroke-linecap: square"/>
   </g>
   <g id="line2d_46">
    <path d="M 80.91 208.31 
L 81.980831 205.727338 
L 83.051663 202.532436 
L 84.193883 198.391888 
L 85.47888 192.812865 
L 86.978044 185.245215 
L 92.118034 158.31466 
L 93.403032 153.280668 
L 94.473863 149.908374 
L 95.544694 147.247475 
L 96.544137 145.343224 
L 97.472191 144.015319 
L 98.400244 143.046499 
L 99.328298 142.375945 
L 100.327741 141.930535 
L 101.398572 141.709337 
L 102.612181 141.702046 
L 103.968567 141.920175 
L 105.681897 142.438338 
L 107.966337 143.384204 
L 111.321608 145.044368 
L 131.952958 155.647862 
L 139.234611 158.967344 
L 146.73043 162.137718 
L 154.440415 165.154731 
L 162.364566 168.017789 
L 170.71705 170.795097 
L 179.212312 173.386794 
L 188.278683 175.916313 
L 197.559221 178.273556 
L 207.410869 180.544462 
L 217.548072 182.653631 
L 228.470551 184.696483 
L 239.749974 186.578619 
L 251.95745 188.387546 
L 264.59326 190.034492 
L 278.442677 191.613118 
L 292.863205 193.031712 
L 308.854286 194.379285 
L 325.702031 195.572625 
L 344.548662 196.683245 
L 365.037234 197.659381 
L 387.738857 198.519206 
L 413.938529 199.276756 
L 442.708196 199.88656 
L 478.259795 200.410315 
L 516.31 200.770272 
L 516.31 200.770272 
" clip-path="url(#p350fcebb2f)" style="fill: none; stroke: #808080; stroke-opacity: 0.5; stroke-width: 1.5; stroke-linecap: square"/>
   </g>
   <g id="line2d_47">
    <path d="M 80.91 208.31 
L 82.05222 205.868772 
L 83.19444 202.879648 
L 84.408049 199.051334 
L 85.693046 194.246677 
L 87.263599 187.441015 
L 89.619428 176.057205 
L 92.118034 164.343781 
L 93.688587 158.046093 
L 94.973584 153.776279 
L 96.115804 150.704288 
L 97.186636 148.406014 
L 98.257467 146.623965 
L 99.256909 145.373226 
L 100.256352 144.461463 
L 101.255794 143.836942 
L 102.326626 143.434213 
L 103.468846 143.250808 
L 104.753843 143.278745 
L 106.253007 143.548474 
L 108.037726 144.109319 
L 110.393555 145.096964 
L 113.748826 146.767228 
L 121.744366 151.077837 
L 129.811295 155.292437 
L 136.878782 158.734178 
L 144.017657 161.964746 
L 151.370698 165.046944 
L 158.937906 167.976116 
L 166.862058 170.801814 
L 174.928987 173.442132 
L 183.495637 176.009845 
L 192.276454 178.408737 
L 201.62838 180.729375 
L 211.265862 182.891385 
L 221.545842 184.965291 
L 232.254155 186.898952 
L 243.676355 188.730624 
L 255.812443 190.449919 
L 268.662418 192.040192 
L 282.511836 193.529207 
L 297.146531 194.875683 
L 313.351777 196.140897 
L 330.485078 197.252187 
L 349.83143 198.281155 
L 370.534168 199.156298 
L 394.592177 199.946616 
L 421.077404 200.587642 
L 452.702622 201.128639 
L 491.466714 201.550939 
L 516.31 201.727936 
L 516.31 201.727936 
" clip-path="url(#p350fcebb2f)" style="fill: none; stroke: #808080; stroke-opacity: 0.5; stroke-width: 1.5; stroke-linecap: square"/>
   </g>
   <g id="patch_9">
    <path d="M 59.14 217.0275 
L 59.14 129.8525 
" style="fill: none; stroke: #000000; stroke-width: 0.8; stroke-linejoin: miter; stroke-linecap: square"/>
   </g>
   <g id="patch_10">
    <path d="M 538.08 217.0275 
L 538.08 129.8525 
" style="fill: none; stroke: #000000; stroke-width: 0.8; stroke-linejoin: miter; stroke-linecap: square"/>
   </g>
   <g id="patch_11">
    <path d="M 59.14 217.0275 
L 538.08 217.0275 
" style="fill: none; stroke: #000000; stroke-width: 0.8; stroke-linejoin: miter; stroke-linecap: square"/>
   </g>
   <g id="patch_12">
    <path d="M 59.14 129.8525 
L 538.08 129.8525 
" style="fill: none; stroke: #000000; stroke-width: 0.8; stroke-linejoin: miter; stroke-linecap: square"/>
   </g>
   <g id="legend_2">
    <g id="patch_13">
     <path d="M 475.203437 167.20875 
L 531.08 167.20875 
Q 533.08 167.20875 533.08 165.20875 
L 533.08 136.8525 
Q 533.08 134.8525 531.08 134.8525 
L 475.203437 134.8525 
Q 473.203437 134.8525 473.203437 136.8525 
L 473.203437 165.20875 
Q 473.203437 167.20875 475.203437 167.20875 
z
" style="fill: #ffffff; opacity: 0.8; stroke: #cccccc; stroke-linejoin: miter"/>
    </g>
    <g id="line2d_48">
     <path d="M 477.203437 142.950938 
L 487.203437 142.950938 
L 497.203437 142.950938 
" style="fill: none; stroke: #1f77b4; stroke-width: 1.5; stroke-linecap: square"/>
    </g>
    <g id="text_14">
     <!-- True -->
     <g transform="translate(505.203437 146.450938) scale(0.1 -0.1)">
      <use xlink:href="#DejaVuSans-54"/>
      <use xlink:href="#DejaVuSans-72" x="46.333984"/>
      <use xlink:href="#DejaVuSans-75" x="87.447266"/>
      <use xlink:href="#DejaVuSans-65" x="150.826172"/>
     </g>
    </g>
    <g id="PathCollection_2">
     <g>
      <use xlink:href="#m7d8717e758" x="487.203437" y="158.504063" style="stroke: #000000"/>
     </g>
    </g>
    <g id="text_15">
     <!-- Data -->
     <g transform="translate(505.203437 161.129063) scale(0.1 -0.1)">
      <defs>
       <path id="DejaVuSans-44" d="M 1259 4147 
L 1259 519 
L 2022 519 
Q 2988 519 3436 956 
Q 3884 1394 3884 2338 
Q 3884 3275 3436 3711 
Q 2988 4147 2022 4147 
L 1259 4147 
z
M 628 4666 
L 1925 4666 
Q 3281 4666 3915 4102 
Q 4550 3538 4550 2338 
Q 4550 1131 3912 565 
Q 3275 0 1925 0 
L 628 0 
L 628 4666 
z
" transform="scale(0.015625)"/>
       <path id="DejaVuSans-61" d="M 2194 1759 
Q 1497 1759 1228 1600 
Q 959 1441 959 1056 
Q 959 750 1161 570 
Q 1363 391 1709 391 
Q 2188 391 2477 730 
Q 2766 1069 2766 1631 
L 2766 1759 
L 2194 1759 
z
M 3341 1997 
L 3341 0 
L 2766 0 
L 2766 531 
Q 2569 213 2275 61 
Q 1981 -91 1556 -91 
Q 1019 -91 701 211 
Q 384 513 384 1019 
Q 384 1609 779 1909 
Q 1175 2209 1959 2209 
L 2766 2209 
L 2766 2266 
Q 2766 2663 2505 2880 
Q 2244 3097 1772 3097 
Q 1472 3097 1187 3025 
Q 903 2953 641 2809 
L 641 3341 
Q 956 3463 1253 3523 
Q 1550 3584 1831 3584 
Q 2591 3584 2966 3190 
Q 3341 2797 3341 1997 
z
" transform="scale(0.015625)"/>
       <path id="DejaVuSans-74" d="M 1172 4494 
L 1172 3500 
L 2356 3500 
L 2356 3053 
L 1172 3053 
L 1172 1153 
Q 1172 725 1289 603 
Q 1406 481 1766 481 
L 2356 481 
L 2356 0 
L 1766 0 
Q 1100 0 847 248 
Q 594 497 594 1153 
L 594 3053 
L 172 3053 
L 172 3500 
L 594 3500 
L 594 4494 
L 1172 4494 
z
" transform="scale(0.015625)"/>
      </defs>
      <use xlink:href="#DejaVuSans-44"/>
      <use xlink:href="#DejaVuSans-61" x="77.001953"/>
      <use xlink:href="#DejaVuSans-74" x="138.28125"/>
      <use xlink:href="#DejaVuSans-61" x="177.490234"/>
     </g>
    </g>
   </g>
  </g>
  <g id="axes_3">
   <g id="patch_14">
    <path d="M 59.14 312.92 
L 538.08 312.92 
L 538.08 225.745 
L 59.14 225.745 
z
" style="fill: #ffffff"/>
   </g>
   <g id="matplotlib.axis_5">
    <g id="xtick_15">
     <g id="line2d_49">
      <g>
       <use xlink:href="#mfeb1a47ea9" x="80.91" y="312.92" style="stroke: #000000; stroke-width: 0.8"/>
      </g>
     </g>
     <g id="text_16">
      <!-- 0 -->
      <g transform="translate(77.72875 327.518438) scale(0.1 -0.1)">
       <use xlink:href="#DejaVuSans-30"/>
      </g>
     </g>
    </g>
    <g id="xtick_16">
     <g id="line2d_50">
      <g>
       <use xlink:href="#mfeb1a47ea9" x="153.476667" y="312.92" style="stroke: #000000; stroke-width: 0.8"/>
      </g>
     </g>
     <g id="text_17">
      <!-- 1 -->
      <g transform="translate(150.295417 327.518438) scale(0.1 -0.1)">
       <use xlink:href="#DejaVuSans-31"/>
      </g>
     </g>
    </g>
    <g id="xtick_17">
     <g id="line2d_51">
      <g>
       <use xlink:href="#mfeb1a47ea9" x="226.043333" y="312.92" style="stroke: #000000; stroke-width: 0.8"/>
      </g>
     </g>
     <g id="text_18">
      <!-- 2 -->
      <g transform="translate(222.862083 327.518438) scale(0.1 -0.1)">
       <use xlink:href="#DejaVuSans-32"/>
      </g>
     </g>
    </g>
    <g id="xtick_18">
     <g id="line2d_52">
      <g>
       <use xlink:href="#mfeb1a47ea9" x="298.61" y="312.92" style="stroke: #000000; stroke-width: 0.8"/>
      </g>
     </g>
     <g id="text_19">
      <!-- 3 -->
      <g transform="translate(295.42875 327.518438) scale(0.1 -0.1)">
       <defs>
        <path id="DejaVuSans-33" d="M 2597 2516 
Q 3050 2419 3304 2112 
Q 3559 1806 3559 1356 
Q 3559 666 3084 287 
Q 2609 -91 1734 -91 
Q 1441 -91 1130 -33 
Q 819 25 488 141 
L 488 750 
Q 750 597 1062 519 
Q 1375 441 1716 441 
Q 2309 441 2620 675 
Q 2931 909 2931 1356 
Q 2931 1769 2642 2001 
Q 2353 2234 1838 2234 
L 1294 2234 
L 1294 2753 
L 1863 2753 
Q 2328 2753 2575 2939 
Q 2822 3125 2822 3475 
Q 2822 3834 2567 4026 
Q 2313 4219 1838 4219 
Q 1578 4219 1281 4162 
Q 984 4106 628 3988 
L 628 4550 
Q 988 4650 1302 4700 
Q 1616 4750 1894 4750 
Q 2613 4750 3031 4423 
Q 3450 4097 3450 3541 
Q 3450 3153 3228 2886 
Q 3006 2619 2597 2516 
z
" transform="scale(0.015625)"/>
       </defs>
       <use xlink:href="#DejaVuSans-33"/>
      </g>
     </g>
    </g>
    <g id="xtick_19">
     <g id="line2d_53">
      <g>
       <use xlink:href="#mfeb1a47ea9" x="371.176667" y="312.92" style="stroke: #000000; stroke-width: 0.8"/>
      </g>
     </g>
     <g id="text_20">
      <!-- 4 -->
      <g transform="translate(367.995417 327.518438) scale(0.1 -0.1)">
       <defs>
        <path id="DejaVuSans-34" d="M 2419 4116 
L 825 1625 
L 2419 1625 
L 2419 4116 
z
M 2253 4666 
L 3047 4666 
L 3047 1625 
L 3713 1625 
L 3713 1100 
L 3047 1100 
L 3047 0 
L 2419 0 
L 2419 1100 
L 313 1100 
L 313 1709 
L 2253 4666 
z
" transform="scale(0.015625)"/>
       </defs>
       <use xlink:href="#DejaVuSans-34"/>
      </g>
     </g>
    </g>
    <g id="xtick_20">
     <g id="line2d_54">
      <g>
       <use xlink:href="#mfeb1a47ea9" x="443.743333" y="312.92" style="stroke: #000000; stroke-width: 0.8"/>
      </g>
     </g>
     <g id="text_21">
      <!-- 5 -->
      <g transform="translate(440.562083 327.518438) scale(0.1 -0.1)">
       <use xlink:href="#DejaVuSans-35"/>
      </g>
     </g>
    </g>
    <g id="xtick_21">
     <g id="line2d_55">
      <g>
       <use xlink:href="#mfeb1a47ea9" x="516.31" y="312.92" style="stroke: #000000; stroke-width: 0.8"/>
      </g>
     </g>
     <g id="text_22">
      <!-- 6 -->
      <g transform="translate(513.12875 327.518438) scale(0.1 -0.1)">
       <defs>
        <path id="DejaVuSans-36" d="M 2113 2584 
Q 1688 2584 1439 2293 
Q 1191 2003 1191 1497 
Q 1191 994 1439 701 
Q 1688 409 2113 409 
Q 2538 409 2786 701 
Q 3034 994 3034 1497 
Q 3034 2003 2786 2293 
Q 2538 2584 2113 2584 
z
M 3366 4563 
L 3366 3988 
Q 3128 4100 2886 4159 
Q 2644 4219 2406 4219 
Q 1781 4219 1451 3797 
Q 1122 3375 1075 2522 
Q 1259 2794 1537 2939 
Q 1816 3084 2150 3084 
Q 2853 3084 3261 2657 
Q 3669 2231 3669 1497 
Q 3669 778 3244 343 
Q 2819 -91 2113 -91 
Q 1303 -91 875 529 
Q 447 1150 447 2328 
Q 447 3434 972 4092 
Q 1497 4750 2381 4750 
Q 2619 4750 2861 4703 
Q 3103 4656 3366 4563 
z
" transform="scale(0.015625)"/>
       </defs>
       <use xlink:href="#DejaVuSans-36"/>
      </g>
     </g>
    </g>
    <g id="text_23">
     <!-- Time -->
     <g transform="translate(286.376406 341.196563) scale(0.1 -0.1)">
      <defs>
       <path id="DejaVuSans-69" d="M 603 3500 
L 1178 3500 
L 1178 0 
L 603 0 
L 603 3500 
z
M 603 4863 
L 1178 4863 
L 1178 4134 
L 603 4134 
L 603 4863 
z
" transform="scale(0.015625)"/>
       <path id="DejaVuSans-6d" d="M 3328 2828 
Q 3544 3216 3844 3400 
Q 4144 3584 4550 3584 
Q 5097 3584 5394 3201 
Q 5691 2819 5691 2113 
L 5691 0 
L 5113 0 
L 5113 2094 
Q 5113 2597 4934 2840 
Q 4756 3084 4391 3084 
Q 3944 3084 3684 2787 
Q 3425 2491 3425 1978 
L 3425 0 
L 2847 0 
L 2847 2094 
Q 2847 2600 2669 2842 
Q 2491 3084 2119 3084 
Q 1678 3084 1418 2786 
Q 1159 2488 1159 1978 
L 1159 0 
L 581 0 
L 581 3500 
L 1159 3500 
L 1159 2956 
Q 1356 3278 1631 3431 
Q 1906 3584 2284 3584 
Q 2666 3584 2933 3390 
Q 3200 3197 3328 2828 
z
" transform="scale(0.015625)"/>
      </defs>
      <use xlink:href="#DejaVuSans-54"/>
      <use xlink:href="#DejaVuSans-69" x="57.958984"/>
      <use xlink:href="#DejaVuSans-6d" x="85.742188"/>
      <use xlink:href="#DejaVuSans-65" x="183.154297"/>
     </g>
    </g>
   </g>
   <g id="matplotlib.axis_6">
    <g id="ytick_11">
     <g id="line2d_56">
      <g>
       <use xlink:href="#m1f4ddd9d94" x="59.14" y="312.92" style="stroke: #000000; stroke-width: 0.8"/>
      </g>
     </g>
     <g id="text_24">
      <!-- 0 -->
      <g transform="translate(45.7775 316.719219) scale(0.1 -0.1)">
       <use xlink:href="#DejaVuSans-30"/>
      </g>
     </g>
    </g>
    <g id="ytick_12">
     <g id="line2d_57">
      <g>
       <use xlink:href="#m1f4ddd9d94" x="59.14" y="291.12625" style="stroke: #000000; stroke-width: 0.8"/>
      </g>
     </g>
     <g id="text_25">
      <!-- 250 -->
      <g transform="translate(33.0525 294.925469) scale(0.1 -0.1)">
       <use xlink:href="#DejaVuSans-32"/>
       <use xlink:href="#DejaVuSans-35" x="63.623047"/>
       <use xlink:href="#DejaVuSans-30" x="127.246094"/>
      </g>
     </g>
    </g>
    <g id="ytick_13">
     <g id="line2d_58">
      <g>
       <use xlink:href="#m1f4ddd9d94" x="59.14" y="269.3325" style="stroke: #000000; stroke-width: 0.8"/>
      </g>
     </g>
     <g id="text_26">
      <!-- 500 -->
      <g transform="translate(33.0525 273.131719) scale(0.1 -0.1)">
       <use xlink:href="#DejaVuSans-35"/>
       <use xlink:href="#DejaVuSans-30" x="63.623047"/>
       <use xlink:href="#DejaVuSans-30" x="127.246094"/>
      </g>
     </g>
    </g>
    <g id="ytick_14">
     <g id="line2d_59">
      <g>
       <use xlink:href="#m1f4ddd9d94" x="59.14" y="247.53875" style="stroke: #000000; stroke-width: 0.8"/>
      </g>
     </g>
     <g id="text_27">
      <!-- 750 -->
      <g transform="translate(33.0525 251.337969) scale(0.1 -0.1)">
       <use xlink:href="#DejaVuSans-37"/>
       <use xlink:href="#DejaVuSans-35" x="63.623047"/>
       <use xlink:href="#DejaVuSans-30" x="127.246094"/>
      </g>
     </g>
    </g>
    <g id="ytick_15">
     <g id="line2d_60">
      <g>
       <use xlink:href="#m1f4ddd9d94" x="59.14" y="225.745" style="stroke: #000000; stroke-width: 0.8"/>
      </g>
     </g>
     <g id="text_28">
      <!-- 1000 -->
      <g transform="translate(26.69 229.544219) scale(0.1 -0.1)">
       <use xlink:href="#DejaVuSans-31"/>
       <use xlink:href="#DejaVuSans-30" x="63.623047"/>
       <use xlink:href="#DejaVuSans-30" x="127.246094"/>
       <use xlink:href="#DejaVuSans-30" x="190.869141"/>
      </g>
     </g>
    </g>
    <g id="text_29">
     <!-- R -->
     <g transform="translate(544.605781 276.930938) scale(0.1 -0.1)">
      <defs>
       <path id="DejaVuSans-52" d="M 2841 2188 
Q 3044 2119 3236 1894 
Q 3428 1669 3622 1275 
L 4263 0 
L 3584 0 
L 2988 1197 
Q 2756 1666 2539 1819 
Q 2322 1972 1947 1972 
L 1259 1972 
L 1259 0 
L 628 0 
L 628 4666 
L 2053 4666 
Q 2853 4666 3247 4331 
Q 3641 3997 3641 3322 
Q 3641 2881 3436 2590 
Q 3231 2300 2841 2188 
z
M 1259 4147 
L 1259 2491 
L 2053 2491 
Q 2509 2491 2742 2702 
Q 2975 2913 2975 3322 
Q 2975 3731 2742 3939 
Q 2509 4147 2053 4147 
L 1259 4147 
z
" transform="scale(0.015625)"/>
      </defs>
      <use xlink:href="#DejaVuSans-52"/>
     </g>
    </g>
   </g>
   <g id="line2d_61">
    <path d="M 80.91 312.92 
L 84.122494 312.579272 
L 86.692489 312.087625 
L 88.976929 311.429335 
L 91.332758 310.516418 
L 93.974142 309.245758 
L 97.472191 307.295929 
L 106.895506 301.657966 
L 114.10577 297.52817 
L 120.95909 293.860145 
L 127.883799 290.406931 
L 134.951285 287.129899 
L 142.232938 283.997314 
L 149.800146 280.985202 
L 157.58152 278.127287 
L 165.648449 275.400997 
L 174.072322 272.790632 
L 182.781749 270.324813 
L 191.91951 267.970566 
L 201.414214 265.754297 
L 211.408639 263.650956 
L 221.902786 261.671067 
L 232.968042 259.811098 
L 244.675798 258.070076 
L 257.168829 256.440225 
L 270.447137 254.934656 
L 284.724888 253.542617 
L 300.073469 252.272202 
L 316.778437 251.11555 
L 334.982569 250.080356 
L 355.256975 249.153884 
L 377.887209 248.347118 
L 403.729938 247.652854 
L 433.998769 247.070315 
L 470.050089 246.605734 
L 515.73889 246.248348 
L 516.31 246.245054 
L 516.31 246.245054 
" clip-path="url(#p16d4f67490)" style="fill: none; stroke: #1f77b4; stroke-width: 1.5; stroke-linecap: square"/>
   </g>
   <g id="line2d_62">
    <path d="M 80.91 312.92 
L 84.122494 312.559963 
L 86.692489 312.055641 
L 89.048318 311.364741 
L 91.404147 310.433709 
L 93.974142 309.167807 
L 97.186636 307.318248 
L 102.683569 303.846273 
L 111.964107 298.017456 
L 118.531872 294.167751 
L 125.099638 290.576686 
L 131.738792 287.199358 
L 138.592112 283.963121 
L 145.659598 280.873318 
L 152.941251 277.93348 
L 160.508459 275.120506 
L 168.361222 272.441582 
L 176.499539 269.902561 
L 184.994801 267.487677 
L 193.847006 265.205104 
L 203.127544 263.044305 
L 212.836414 261.014226 
L 223.045006 259.107912 
L 233.824707 257.322512 
L 245.318296 255.647496 
L 257.525773 254.096457 
L 270.589915 252.664182 
L 284.58211 251.355926 
L 299.787914 250.16127 
L 316.350105 249.086482 
L 334.625626 248.128489 
L 354.900031 247.291913 
L 377.958598 246.569333 
L 404.372436 245.968641 
L 436.140431 245.477309 
L 475.190079 245.105477 
L 516.31 244.883004 
L 516.31 244.883004 
" clip-path="url(#p16d4f67490)" style="fill: none; stroke: #808080; stroke-opacity: 0.5; stroke-width: 1.5; stroke-linecap: square"/>
   </g>
   <g id="line2d_63">
    <path d="M 80.91 312.92 
L 83.908328 312.589051 
L 86.264156 312.111326 
L 88.405819 311.451927 
L 90.61887 310.533296 
L 93.188865 309.212036 
L 96.758303 307.10147 
L 112.892161 297.291339 
L 119.674092 293.55043 
L 126.527413 290.023921 
L 133.594899 286.638116 
L 140.876552 283.398068 
L 148.372371 280.307346 
L 156.082356 277.368279 
L 164.077896 274.557918 
L 172.358992 271.882454 
L 180.997031 269.325968 
L 189.992013 266.897028 
L 199.415329 264.585035 
L 209.266977 262.399536 
L 219.618346 260.333646 
L 230.469436 258.396556 
L 241.963025 256.572933 
L 254.099113 254.874238 
L 267.020477 253.291799 
L 280.869895 251.822616 
L 295.718756 250.473846 
L 311.781225 249.240855 
L 329.20008 248.129076 
L 348.403655 247.128932 
L 369.748892 246.244787 
L 393.735512 245.477743 
L 421.434348 244.821584 
L 453.773453 244.284769 
L 493.251433 243.858954 
L 516.31 243.691 
L 516.31 243.691 
" clip-path="url(#p16d4f67490)" style="fill: none; stroke: #808080; stroke-opacity: 0.5; stroke-width: 1.5; stroke-linecap: square"/>
   </g>
   <g id="line2d_64">
    <path d="M 80.91 312.92 
L 84.193883 312.548566 
L 86.835266 312.029345 
L 89.191095 311.342521 
L 91.546924 310.422964 
L 94.116919 309.173766 
L 97.258024 307.38488 
L 102.255237 304.246271 
L 112.535217 297.778451 
L 119.031594 293.982215 
L 125.456581 290.487352 
L 131.952958 287.206448 
L 138.663501 284.067622 
L 145.58821 281.076301 
L 152.727085 278.236084 
L 160.151515 275.524085 
L 167.8615 272.947563 
L 175.85704 270.51187 
L 184.209525 268.202023 
L 192.918952 266.025197 
L 202.056713 263.971944 
L 211.694194 262.036234 
L 221.831397 260.228804 
L 232.611099 258.534988 
L 244.033299 256.967457 
L 256.312164 255.510336 
L 269.447695 254.178567 
L 283.654056 252.9647 
L 299.145416 251.867587 
L 316.207327 250.887062 
L 335.125347 250.026522 
L 356.541972 249.280672 
L 381.028314 248.654912 
L 410.297703 248.137609 
L 445.992079 247.738752 
L 492.751712 247.448976 
L 516.31 247.363633 
L 516.31 247.363633 
" clip-path="url(#p16d4f67490)" style="fill: none; stroke: #808080; stroke-opacity: 0.5; stroke-width: 1.5; stroke-linecap: square"/>
   </g>
   <g id="line2d_65">
    <path d="M 80.91 312.92 
L 84.193883 312.571156 
L 86.835266 312.070966 
L 89.191095 311.401089 
L 91.618313 310.47135 
L 94.259697 309.212576 
L 97.686357 307.312372 
L 104.254122 303.349416 
L 112.892161 298.224371 
L 119.888259 294.341351 
L 126.812968 290.751886 
L 133.880454 287.337455 
L 141.162107 284.066158 
L 148.657926 280.942117 
L 156.4393 277.941593 
L 164.43484 275.096578 
L 172.787324 272.362582 
L 181.425363 269.770322 
L 190.420346 267.30437 
L 199.843661 264.954146 
L 209.62392 262.744948 
L 219.903901 260.651541 
L 230.683602 258.683921 
L 242.105803 256.826829 
L 254.170502 255.092727 
L 267.020477 253.473086 
L 280.655729 251.980224 
L 295.361812 250.596808 
L 311.138726 249.338415 
L 328.343415 248.192572 
L 347.118657 247.168402 
L 367.964173 246.25837 
L 391.165517 245.471817 
L 417.793522 244.796691 
L 448.704852 244.242091 
L 486.112558 243.800376 
L 516.31 243.569363 
L 516.31 243.569363 
" clip-path="url(#p16d4f67490)" style="fill: none; stroke: #808080; stroke-opacity: 0.5; stroke-width: 1.5; stroke-linecap: square"/>
   </g>
   <g id="line2d_66">
    <path d="M 80.91 312.92 
L 84.051105 312.557527 
L 86.549711 312.050219 
L 88.834152 311.35681 
L 91.118592 310.424162 
L 93.617198 309.156127 
L 96.829692 307.254611 
L 102.683569 303.470411 
L 110.893276 298.237153 
L 117.246875 294.460219 
L 123.529085 290.983612 
L 129.954073 287.68219 
L 136.521838 284.556087 
L 143.303769 281.573065 
L 150.371256 278.709363 
L 157.652909 276.00004 
L 165.220116 273.422542 
L 173.072879 270.983121 
L 181.282586 268.666404 
L 189.849236 266.480768 
L 198.844219 264.416182 
L 208.338923 262.467657 
L 218.333348 260.645727 
L 228.898883 258.947125 
L 240.178306 257.361795 
L 252.171617 255.902235 
L 265.092981 254.556455 
L 279.013788 253.331839 
L 294.219592 252.220844 
L 310.92456 251.22664 
L 329.557024 250.346308 
L 350.40254 249.587757 
L 374.531938 248.938683 
L 402.730495 248.408961 
L 437.425429 247.987699 
L 482.685898 247.675365 
L 516.31 247.546142 
L 516.31 247.546142 
" clip-path="url(#p16d4f67490)" style="fill: none; stroke: #808080; stroke-opacity: 0.5; stroke-width: 1.5; stroke-linecap: square"/>
   </g>
   <g id="line2d_67">
    <path d="M 80.91 312.92 
L 84.122494 312.599597 
L 86.6211 312.136227 
L 88.90554 311.490686 
L 91.332758 310.563256 
L 94.116919 309.248837 
L 98.186078 307.053548 
L 113.748826 298.470181 
L 121.244645 294.678407 
L 128.811853 291.099692 
L 136.593227 287.665549 
L 144.588767 284.379476 
L 152.869862 281.217396 
L 161.436513 278.186391 
L 170.288718 275.291927 
L 179.426478 272.538233 
L 188.921182 269.909167 
L 198.844219 267.393788 
L 209.195588 265.001567 
L 219.975289 262.739536 
L 231.254712 260.600264 
L 243.176634 258.567642 
L 255.741054 256.654267 
L 268.947973 254.869183 
L 283.011558 253.194726 
L 298.003196 251.636594 
L 314.065665 250.193964 
L 331.270354 248.874422 
L 349.974207 247.66585 
L 370.39139 246.573925 
L 392.807459 245.601133 
L 417.864911 244.741264 
L 446.063468 244.000919 
L 478.688128 243.372518 
L 516.31 242.869788 
L 516.31 242.869788 
" clip-path="url(#p16d4f67490)" style="fill: none; stroke: #808080; stroke-opacity: 0.5; stroke-width: 1.5; stroke-linecap: square"/>
   </g>
   <g id="line2d_68">
    <path d="M 80.91 312.92 
L 84.122494 312.557187 
L 86.692489 312.04925 
L 89.048318 311.353784 
L 91.404147 310.417341 
L 93.974142 309.145284 
L 97.186636 307.289186 
L 102.754958 303.766206 
L 111.607163 298.210781 
L 118.10354 294.409573 
L 124.528528 290.909169 
L 131.096293 287.586866 
L 137.806836 284.442647 
L 144.731545 281.444445 
L 151.87042 278.595849 
L 159.29485 275.874087 
L 167.004835 273.286329 
L 175.000375 270.838313 
L 183.352859 268.514688 
L 192.062287 266.323208 
L 201.200048 264.253935 
L 210.837529 262.301341 
L 220.974732 260.475932 
L 231.754434 258.76319 
L 243.176634 257.176032 
L 255.384111 255.706065 
L 268.519641 254.3521 
L 282.726003 253.114836 
L 298.145973 251.9993 
L 315.136496 250.997167 
L 333.911738 250.117289 
L 355.114197 249.350503 
L 379.457762 248.699819 
L 407.941874 248.166269 
L 443.06514 247.740809 
L 488.25422 247.429092 
L 516.31 247.316128 
L 516.31 247.316128 
" clip-path="url(#p16d4f67490)" style="fill: none; stroke: #808080; stroke-opacity: 0.5; stroke-width: 1.5; stroke-linecap: square"/>
   </g>
   <g id="line2d_69">
    <path d="M 80.91 312.92 
L 84.051105 312.571849 
L 86.549711 312.071903 
L 88.762763 311.405926 
L 91.047203 310.48298 
L 93.617198 309.194778 
L 97.043858 307.204834 
L 116.675765 295.375353 
L 123.314919 291.82084 
L 130.09685 288.444169 
L 137.021559 285.244449 
L 144.160434 282.189654 
L 151.584865 279.256005 
L 159.223461 276.476832 
L 167.147613 273.829998 
L 175.428708 271.299746 
L 184.066747 268.895715 
L 193.06173 266.624753 
L 202.485045 264.476873 
L 212.408082 262.44577 
L 222.830839 260.541871 
L 233.824707 258.760869 
L 245.461074 257.102018 
L 257.882717 255.556895 
L 271.161025 254.13112 
L 285.510164 252.816526 
L 301.001523 251.623569 
L 317.992046 250.541638 
L 336.695899 249.578361 
L 357.541415 248.731395 
L 381.242481 247.997359 
L 408.441595 247.382681 
L 440.994866 246.87671 
L 481.472289 246.481984 
L 516.31 246.275294 
L 516.31 246.275294 
" clip-path="url(#p16d4f67490)" style="fill: none; stroke: #808080; stroke-opacity: 0.5; stroke-width: 1.5; stroke-linecap: square"/>
   </g>
   <g id="line2d_70">
    <path d="M 80.91 312.92 
L 84.051105 312.579572 
L 86.549711 312.088413 
L 88.834152 311.4078 
L 91.118592 310.491536 
L 93.759975 309.178909 
L 97.329413 307.128239 
L 115.961877 296.05685 
L 122.743809 292.443555 
L 129.668518 289.006384 
L 136.807393 285.712953 
L 144.160434 282.567724 
L 151.727642 279.573701 
L 159.580405 276.707504 
L 167.718723 273.976017 
L 176.142596 271.384122 
L 184.923412 268.916389 
L 194.061172 266.579872 
L 203.627265 264.364364 
L 213.693079 262.263647 
L 224.258615 260.288185 
L 235.39526 258.433996 
L 247.174404 256.700132 
L 259.667436 255.087081 
L 273.017132 253.589404 
L 287.366272 252.206058 
L 302.857631 250.939431 
L 319.633988 249.793566 
L 338.123674 248.758009 
L 358.469469 247.845241 
L 381.385258 247.044172 
L 407.513542 246.359917 
L 437.92515 245.79142 
L 474.904524 245.332096 
L 516.31 245.016394 
L 516.31 245.016394 
" clip-path="url(#p16d4f67490)" style="fill: none; stroke: #808080; stroke-opacity: 0.5; stroke-width: 1.5; stroke-linecap: square"/>
   </g>
   <g id="line2d_71">
    <path d="M 80.91 312.92 
L 84.193883 312.554297 
L 86.835266 312.037193 
L 89.191095 311.349246 
L 91.546924 310.426972 
L 94.116919 309.176163 
L 97.329413 307.349101 
L 102.683569 304.003648 
L 112.39244 297.953635 
L 119.031594 294.094035 
L 125.670748 290.49287 
L 132.38129 287.105712 
L 139.305999 283.860416 
L 146.444875 280.762156 
L 153.797916 277.814314 
L 161.436513 274.993816 
L 169.360664 272.307666 
L 177.570371 269.761564 
L 186.137021 267.339725 
L 195.060615 265.050161 
L 204.412541 262.882308 
L 214.1928 260.844947 
L 224.54417 258.918602 
L 235.39526 257.126789 
L 246.960238 255.444976 
L 259.239103 253.886539 
L 272.374634 252.446413 
L 286.509606 251.123518 
L 301.786799 249.920962 
L 318.420379 248.837587 
L 336.695899 247.87404 
L 357.041694 247.027303 
L 380.100261 246.296725 
L 406.585488 245.6855 
L 438.210705 245.187413 
L 476.83202 244.809806 
L 516.31 244.586478 
L 516.31 244.586478 
" clip-path="url(#p16d4f67490)" style="fill: none; stroke: #808080; stroke-opacity: 0.5; stroke-width: 1.5; stroke-linecap: square"/>
   </g>
   <g id="patch_15">
    <path d="M 59.14 312.92 
L 59.14 225.745 
" style="fill: none; stroke: #000000; stroke-width: 0.8; stroke-linejoin: miter; stroke-linecap: square"/>
   </g>
   <g id="patch_16">
    <path d="M 538.08 312.92 
L 538.08 225.745 
" style="fill: none; stroke: #000000; stroke-width: 0.8; stroke-linejoin: miter; stroke-linecap: square"/>
   </g>
   <g id="patch_17">
    <path d="M 59.14 312.92 
L 538.08 312.92 
" style="fill: none; stroke: #000000; stroke-width: 0.8; stroke-linejoin: miter; stroke-linecap: square"/>
   </g>
   <g id="patch_18">
    <path d="M 59.14 225.745 
L 538.08 225.745 
" style="fill: none; stroke: #000000; stroke-width: 0.8; stroke-linejoin: miter; stroke-linecap: square"/>
   </g>
   <g id="legend_3">
    <g id="patch_19">
     <path d="M 66.14 248.423125 
L 119.374375 248.423125 
Q 121.374375 248.423125 121.374375 246.423125 
L 121.374375 232.745 
Q 121.374375 230.745 119.374375 230.745 
L 66.14 230.745 
Q 64.14 230.745 64.14 232.745 
L 64.14 246.423125 
Q 64.14 248.423125 66.14 248.423125 
z
" style="fill: #ffffff; opacity: 0.8; stroke: #cccccc; stroke-linejoin: miter"/>
    </g>
    <g id="line2d_72">
     <path d="M 68.14 238.843437 
L 78.14 238.843437 
L 88.14 238.843437 
" style="fill: none; stroke: #1f77b4; stroke-width: 1.5; stroke-linecap: square"/>
    </g>
    <g id="text_30">
     <!-- True -->
     <g transform="translate(96.14 242.343437) scale(0.1 -0.1)">
      <use xlink:href="#DejaVuSans-54"/>
      <use xlink:href="#DejaVuSans-72" x="46.333984"/>
      <use xlink:href="#DejaVuSans-75" x="87.447266"/>
      <use xlink:href="#DejaVuSans-65" x="150.826172"/>
     </g>
    </g>
   </g>
  </g>
  <g id="text_31">
   <!-- 2.B Problem 1 Posterior Predictive -->
   <g transform="translate(169.117031 17.837812) scale(0.14 -0.14)">
    <defs>
     <path id="DejaVuSans-2e" d="M 684 794 
L 1344 794 
L 1344 0 
L 684 0 
L 684 794 
z
" transform="scale(0.015625)"/>
     <path id="DejaVuSans-42" d="M 1259 2228 
L 1259 519 
L 2272 519 
Q 2781 519 3026 730 
Q 3272 941 3272 1375 
Q 3272 1813 3026 2020 
Q 2781 2228 2272 2228 
L 1259 2228 
z
M 1259 4147 
L 1259 2741 
L 2194 2741 
Q 2656 2741 2882 2914 
Q 3109 3088 3109 3444 
Q 3109 3797 2882 3972 
Q 2656 4147 2194 4147 
L 1259 4147 
z
M 628 4666 
L 2241 4666 
Q 2963 4666 3353 4366 
Q 3744 4066 3744 3513 
Q 3744 3084 3544 2831 
Q 3344 2578 2956 2516 
Q 3422 2416 3680 2098 
Q 3938 1781 3938 1306 
Q 3938 681 3513 340 
Q 3088 0 2303 0 
L 628 0 
L 628 4666 
z
" transform="scale(0.015625)"/>
     <path id="DejaVuSans-20" transform="scale(0.015625)"/>
     <path id="DejaVuSans-50" d="M 1259 4147 
L 1259 2394 
L 2053 2394 
Q 2494 2394 2734 2622 
Q 2975 2850 2975 3272 
Q 2975 3691 2734 3919 
Q 2494 4147 2053 4147 
L 1259 4147 
z
M 628 4666 
L 2053 4666 
Q 2838 4666 3239 4311 
Q 3641 3956 3641 3272 
Q 3641 2581 3239 2228 
Q 2838 1875 2053 1875 
L 1259 1875 
L 1259 0 
L 628 0 
L 628 4666 
z
" transform="scale(0.015625)"/>
     <path id="DejaVuSans-6f" d="M 1959 3097 
Q 1497 3097 1228 2736 
Q 959 2375 959 1747 
Q 959 1119 1226 758 
Q 1494 397 1959 397 
Q 2419 397 2687 759 
Q 2956 1122 2956 1747 
Q 2956 2369 2687 2733 
Q 2419 3097 1959 3097 
z
M 1959 3584 
Q 2709 3584 3137 3096 
Q 3566 2609 3566 1747 
Q 3566 888 3137 398 
Q 2709 -91 1959 -91 
Q 1206 -91 779 398 
Q 353 888 353 1747 
Q 353 2609 779 3096 
Q 1206 3584 1959 3584 
z
" transform="scale(0.015625)"/>
     <path id="DejaVuSans-62" d="M 3116 1747 
Q 3116 2381 2855 2742 
Q 2594 3103 2138 3103 
Q 1681 3103 1420 2742 
Q 1159 2381 1159 1747 
Q 1159 1113 1420 752 
Q 1681 391 2138 391 
Q 2594 391 2855 752 
Q 3116 1113 3116 1747 
z
M 1159 2969 
Q 1341 3281 1617 3432 
Q 1894 3584 2278 3584 
Q 2916 3584 3314 3078 
Q 3713 2572 3713 1747 
Q 3713 922 3314 415 
Q 2916 -91 2278 -91 
Q 1894 -91 1617 61 
Q 1341 213 1159 525 
L 1159 0 
L 581 0 
L 581 4863 
L 1159 4863 
L 1159 2969 
z
" transform="scale(0.015625)"/>
     <path id="DejaVuSans-6c" d="M 603 4863 
L 1178 4863 
L 1178 0 
L 603 0 
L 603 4863 
z
" transform="scale(0.015625)"/>
     <path id="DejaVuSans-73" d="M 2834 3397 
L 2834 2853 
Q 2591 2978 2328 3040 
Q 2066 3103 1784 3103 
Q 1356 3103 1142 2972 
Q 928 2841 928 2578 
Q 928 2378 1081 2264 
Q 1234 2150 1697 2047 
L 1894 2003 
Q 2506 1872 2764 1633 
Q 3022 1394 3022 966 
Q 3022 478 2636 193 
Q 2250 -91 1575 -91 
Q 1294 -91 989 -36 
Q 684 19 347 128 
L 347 722 
Q 666 556 975 473 
Q 1284 391 1588 391 
Q 1994 391 2212 530 
Q 2431 669 2431 922 
Q 2431 1156 2273 1281 
Q 2116 1406 1581 1522 
L 1381 1569 
Q 847 1681 609 1914 
Q 372 2147 372 2553 
Q 372 3047 722 3315 
Q 1072 3584 1716 3584 
Q 2034 3584 2315 3537 
Q 2597 3491 2834 3397 
z
" transform="scale(0.015625)"/>
     <path id="DejaVuSans-64" d="M 2906 2969 
L 2906 4863 
L 3481 4863 
L 3481 0 
L 2906 0 
L 2906 525 
Q 2725 213 2448 61 
Q 2172 -91 1784 -91 
Q 1150 -91 751 415 
Q 353 922 353 1747 
Q 353 2572 751 3078 
Q 1150 3584 1784 3584 
Q 2172 3584 2448 3432 
Q 2725 3281 2906 2969 
z
M 947 1747 
Q 947 1113 1208 752 
Q 1469 391 1925 391 
Q 2381 391 2643 752 
Q 2906 1113 2906 1747 
Q 2906 2381 2643 2742 
Q 2381 3103 1925 3103 
Q 1469 3103 1208 2742 
Q 947 2381 947 1747 
z
" transform="scale(0.015625)"/>
     <path id="DejaVuSans-63" d="M 3122 3366 
L 3122 2828 
Q 2878 2963 2633 3030 
Q 2388 3097 2138 3097 
Q 1578 3097 1268 2742 
Q 959 2388 959 1747 
Q 959 1106 1268 751 
Q 1578 397 2138 397 
Q 2388 397 2633 464 
Q 2878 531 3122 666 
L 3122 134 
Q 2881 22 2623 -34 
Q 2366 -91 2075 -91 
Q 1284 -91 818 406 
Q 353 903 353 1747 
Q 353 2603 823 3093 
Q 1294 3584 2113 3584 
Q 2378 3584 2631 3529 
Q 2884 3475 3122 3366 
z
" transform="scale(0.015625)"/>
     <path id="DejaVuSans-76" d="M 191 3500 
L 800 3500 
L 1894 563 
L 2988 3500 
L 3597 3500 
L 2284 0 
L 1503 0 
L 191 3500 
z
" transform="scale(0.015625)"/>
    </defs>
    <use xlink:href="#DejaVuSans-32"/>
    <use xlink:href="#DejaVuSans-2e" x="63.623047"/>
    <use xlink:href="#DejaVuSans-42" x="95.410156"/>
    <use xlink:href="#DejaVuSans-20" x="164.013672"/>
    <use xlink:href="#DejaVuSans-50" x="195.800781"/>
    <use xlink:href="#DejaVuSans-72" x="254.353516"/>
    <use xlink:href="#DejaVuSans-6f" x="293.216797"/>
    <use xlink:href="#DejaVuSans-62" x="354.398438"/>
    <use xlink:href="#DejaVuSans-6c" x="417.875"/>
    <use xlink:href="#DejaVuSans-65" x="445.658203"/>
    <use xlink:href="#DejaVuSans-6d" x="507.181641"/>
    <use xlink:href="#DejaVuSans-20" x="604.59375"/>
    <use xlink:href="#DejaVuSans-31" x="636.380859"/>
    <use xlink:href="#DejaVuSans-20" x="700.003906"/>
    <use xlink:href="#DejaVuSans-50" x="731.791016"/>
    <use xlink:href="#DejaVuSans-6f" x="788.46875"/>
    <use xlink:href="#DejaVuSans-73" x="849.650391"/>
    <use xlink:href="#DejaVuSans-74" x="901.75"/>
    <use xlink:href="#DejaVuSans-65" x="940.958984"/>
    <use xlink:href="#DejaVuSans-72" x="1002.482422"/>
    <use xlink:href="#DejaVuSans-69" x="1043.595703"/>
    <use xlink:href="#DejaVuSans-6f" x="1071.378906"/>
    <use xlink:href="#DejaVuSans-72" x="1132.560547"/>
    <use xlink:href="#DejaVuSans-20" x="1173.673828"/>
    <use xlink:href="#DejaVuSans-50" x="1205.460938"/>
    <use xlink:href="#DejaVuSans-72" x="1264.013672"/>
    <use xlink:href="#DejaVuSans-65" x="1302.876953"/>
    <use xlink:href="#DejaVuSans-64" x="1364.400391"/>
    <use xlink:href="#DejaVuSans-69" x="1427.876953"/>
    <use xlink:href="#DejaVuSans-63" x="1455.660156"/>
    <use xlink:href="#DejaVuSans-74" x="1510.640625"/>
    <use xlink:href="#DejaVuSans-69" x="1549.849609"/>
    <use xlink:href="#DejaVuSans-76" x="1577.632812"/>
    <use xlink:href="#DejaVuSans-65" x="1636.8125"/>
   </g>
  </g>
 </g>
 <defs>
  <clipPath id="p0b20ba5246">
   <rect x="59.14" y="33.96" width="478.94" height="87.175"/>
  </clipPath>
  <clipPath id="p350fcebb2f">
   <rect x="59.14" y="129.8525" width="478.94" height="87.175"/>
  </clipPath>
  <clipPath id="p16d4f67490">
   <rect x="59.14" y="225.745" width="478.94" height="87.175"/>
  </clipPath>
 </defs>
</svg>
