<?xml version="1.0" encoding="utf-8" standalone="no"?>
<!DOCTYPE svg PUBLIC "-//W3C//DTD SVG 1.1//EN"
  "http://www.w3.org/Graphics/SVG/1.1/DTD/svg11.dtd">
<svg xmlns:xlink="http://www.w3.org/1999/xlink" width="576pt" height="360pt" viewBox="0 0 576 360" xmlns="http://www.w3.org/2000/svg" version="1.1">
 <metadata>
  <rdf:RDF xmlns:dc="http://purl.org/dc/elements/1.1/" xmlns:cc="http://creativecommons.org/ns#" xmlns:rdf="http://www.w3.org/1999/02/22-rdf-syntax-ns#">
   <cc:Work>
    <dc:type rdf:resource="http://purl.org/dc/dcmitype/StillImage"/>
    <dc:date>2024-04-04T00:00:20.748511</dc:date>
    <dc:format>image/svg+xml</dc:format>
    <dc:creator>
     <cc:Agent>
      <dc:title>Matplotlib v3.8.3, https://matplotlib.org/</dc:title>
     </cc:Agent>
    </dc:creator>
   </cc:Work>
  </rdf:RDF>
 </metadata>
 <defs>
  <style type="text/css">*{stroke-linejoin: round; stroke-linecap: butt}</style>
 </defs>
 <g id="figure_1">
  <g id="patch_1">
   <path d="M 0 360 
L 576 360 
L 576 0 
L 0 0 
z
" style="fill: #ffffff"/>
  </g>
  <g id="axes_1">
   <g id="patch_2">
    <path d="M 59.14 121.135 
L 538.08 121.135 
L 538.08 33.96 
L 59.14 33.96 
z
" style="fill: #ffffff"/>
   </g>
   <g id="matplotlib.axis_1">
    <g id="xtick_1">
     <g id="line2d_1">
      <defs>
       <path id="me23c64abb2" d="M 0 0 
L 0 3.5 
" style="stroke: #000000; stroke-width: 0.8"/>
      </defs>
      <g>
       <use xlink:href="#me23c64abb2" x="80.91" y="121.135" style="stroke: #000000; stroke-width: 0.8"/>
      </g>
     </g>
    </g>
    <g id="xtick_2">
     <g id="line2d_2">
      <g>
       <use xlink:href="#me23c64abb2" x="153.476667" y="121.135" style="stroke: #000000; stroke-width: 0.8"/>
      </g>
     </g>
    </g>
    <g id="xtick_3">
     <g id="line2d_3">
      <g>
       <use xlink:href="#me23c64abb2" x="226.043333" y="121.135" style="stroke: #000000; stroke-width: 0.8"/>
      </g>
     </g>
    </g>
    <g id="xtick_4">
     <g id="line2d_4">
      <g>
       <use xlink:href="#me23c64abb2" x="298.61" y="121.135" style="stroke: #000000; stroke-width: 0.8"/>
      </g>
     </g>
    </g>
    <g id="xtick_5">
     <g id="line2d_5">
      <g>
       <use xlink:href="#me23c64abb2" x="371.176667" y="121.135" style="stroke: #000000; stroke-width: 0.8"/>
      </g>
     </g>
    </g>
    <g id="xtick_6">
     <g id="line2d_6">
      <g>
       <use xlink:href="#me23c64abb2" x="443.743333" y="121.135" style="stroke: #000000; stroke-width: 0.8"/>
      </g>
     </g>
    </g>
    <g id="xtick_7">
     <g id="line2d_7">
      <g>
       <use xlink:href="#me23c64abb2" x="516.31" y="121.135" style="stroke: #000000; stroke-width: 0.8"/>
      </g>
     </g>
    </g>
   </g>
   <g id="matplotlib.axis_2">
    <g id="ytick_1">
     <g id="line2d_8">
      <defs>
       <path id="md00cf5c63d" d="M 0 0 
L -3.5 0 
" style="stroke: #000000; stroke-width: 0.8"/>
      </defs>
      <g>
       <use xlink:href="#md00cf5c63d" x="59.14" y="121.135" style="stroke: #000000; stroke-width: 0.8"/>
      </g>
     </g>
     <g id="text_1">
      <!-- 0 -->
      <g transform="translate(45.7775 124.934219) scale(0.1 -0.1)">
       <defs>
        <path id="DejaVuSans-30" d="M 2034 4250 
Q 1547 4250 1301 3770 
Q 1056 3291 1056 2328 
Q 1056 1369 1301 889 
Q 1547 409 2034 409 
Q 2525 409 2770 889 
Q 3016 1369 3016 2328 
Q 3016 3291 2770 3770 
Q 2525 4250 2034 4250 
z
M 2034 4750 
Q 2819 4750 3233 4129 
Q 3647 3509 3647 2328 
Q 3647 1150 3233 529 
Q 2819 -91 2034 -91 
Q 1250 -91 836 529 
Q 422 1150 422 2328 
Q 422 3509 836 4129 
Q 1250 4750 2034 4750 
z
" transform="scale(0.015625)"/>
       </defs>
       <use xlink:href="#DejaVuSans-30"/>
      </g>
     </g>
    </g>
    <g id="ytick_2">
     <g id="line2d_9">
      <g>
       <use xlink:href="#md00cf5c63d" x="59.14" y="99.34125" style="stroke: #000000; stroke-width: 0.8"/>
      </g>
     </g>
     <g id="text_2">
      <!-- 250 -->
      <g transform="translate(33.0525 103.140469) scale(0.1 -0.1)">
       <defs>
        <path id="DejaVuSans-32" d="M 1228 531 
L 3431 531 
L 3431 0 
L 469 0 
L 469 531 
Q 828 903 1448 1529 
Q 2069 2156 2228 2338 
Q 2531 2678 2651 2914 
Q 2772 3150 2772 3378 
Q 2772 3750 2511 3984 
Q 2250 4219 1831 4219 
Q 1534 4219 1204 4116 
Q 875 4013 500 3803 
L 500 4441 
Q 881 4594 1212 4672 
Q 1544 4750 1819 4750 
Q 2544 4750 2975 4387 
Q 3406 4025 3406 3419 
Q 3406 3131 3298 2873 
Q 3191 2616 2906 2266 
Q 2828 2175 2409 1742 
Q 1991 1309 1228 531 
z
" transform="scale(0.015625)"/>
        <path id="DejaVuSans-35" d="M 691 4666 
L 3169 4666 
L 3169 4134 
L 1269 4134 
L 1269 2991 
Q 1406 3038 1543 3061 
Q 1681 3084 1819 3084 
Q 2600 3084 3056 2656 
Q 3513 2228 3513 1497 
Q 3513 744 3044 326 
Q 2575 -91 1722 -91 
Q 1428 -91 1123 -41 
Q 819 9 494 109 
L 494 744 
Q 775 591 1075 516 
Q 1375 441 1709 441 
Q 2250 441 2565 725 
Q 2881 1009 2881 1497 
Q 2881 1984 2565 2268 
Q 2250 2553 1709 2553 
Q 1456 2553 1204 2497 
Q 953 2441 691 2322 
L 691 4666 
z
" transform="scale(0.015625)"/>
       </defs>
       <use xlink:href="#DejaVuSans-32"/>
       <use xlink:href="#DejaVuSans-35" x="63.623047"/>
       <use xlink:href="#DejaVuSans-30" x="127.246094"/>
      </g>
     </g>
    </g>
    <g id="ytick_3">
     <g id="line2d_10">
      <g>
       <use xlink:href="#md00cf5c63d" x="59.14" y="77.5475" style="stroke: #000000; stroke-width: 0.8"/>
      </g>
     </g>
     <g id="text_3">
      <!-- 500 -->
      <g transform="translate(33.0525 81.346719) scale(0.1 -0.1)">
       <use xlink:href="#DejaVuSans-35"/>
       <use xlink:href="#DejaVuSans-30" x="63.623047"/>
       <use xlink:href="#DejaVuSans-30" x="127.246094"/>
      </g>
     </g>
    </g>
    <g id="ytick_4">
     <g id="line2d_11">
      <g>
       <use xlink:href="#md00cf5c63d" x="59.14" y="55.75375" style="stroke: #000000; stroke-width: 0.8"/>
      </g>
     </g>
     <g id="text_4">
      <!-- 750 -->
      <g transform="translate(33.0525 59.552969) scale(0.1 -0.1)">
       <defs>
        <path id="DejaVuSans-37" d="M 525 4666 
L 3525 4666 
L 3525 4397 
L 1831 0 
L 1172 0 
L 2766 4134 
L 525 4134 
L 525 4666 
z
" transform="scale(0.015625)"/>
       </defs>
       <use xlink:href="#DejaVuSans-37"/>
       <use xlink:href="#DejaVuSans-35" x="63.623047"/>
       <use xlink:href="#DejaVuSans-30" x="127.246094"/>
      </g>
     </g>
    </g>
    <g id="ytick_5">
     <g id="line2d_12">
      <g>
       <use xlink:href="#md00cf5c63d" x="59.14" y="33.96" style="stroke: #000000; stroke-width: 0.8"/>
      </g>
     </g>
     <g id="text_5">
      <!-- 1000 -->
      <g transform="translate(26.69 37.759219) scale(0.1 -0.1)">
       <defs>
        <path id="DejaVuSans-31" d="M 794 531 
L 1825 531 
L 1825 4091 
L 703 3866 
L 703 4441 
L 1819 4666 
L 2450 4666 
L 2450 531 
L 3481 531 
L 3481 0 
L 794 0 
L 794 531 
z
" transform="scale(0.015625)"/>
       </defs>
       <use xlink:href="#DejaVuSans-31"/>
       <use xlink:href="#DejaVuSans-30" x="63.623047"/>
       <use xlink:href="#DejaVuSans-30" x="127.246094"/>
       <use xlink:href="#DejaVuSans-30" x="190.869141"/>
      </g>
     </g>
    </g>
    <g id="text_6">
     <!-- S -->
     <g transform="translate(544.905781 85.145938) scale(0.1 -0.1)">
      <defs>
       <path id="DejaVuSans-53" d="M 3425 4513 
L 3425 3897 
Q 3066 4069 2747 4153 
Q 2428 4238 2131 4238 
Q 1616 4238 1336 4038 
Q 1056 3838 1056 3469 
Q 1056 3159 1242 3001 
Q 1428 2844 1947 2747 
L 2328 2669 
Q 3034 2534 3370 2195 
Q 3706 1856 3706 1288 
Q 3706 609 3251 259 
Q 2797 -91 1919 -91 
Q 1588 -91 1214 -16 
Q 841 59 441 206 
L 441 856 
Q 825 641 1194 531 
Q 1563 422 1919 422 
Q 2459 422 2753 634 
Q 3047 847 3047 1241 
Q 3047 1584 2836 1778 
Q 2625 1972 2144 2069 
L 1759 2144 
Q 1053 2284 737 2584 
Q 422 2884 422 3419 
Q 422 4038 858 4394 
Q 1294 4750 2059 4750 
Q 2388 4750 2728 4690 
Q 3069 4631 3425 4513 
z
" transform="scale(0.015625)"/>
      </defs>
      <use xlink:href="#DejaVuSans-53"/>
     </g>
    </g>
   </g>
   <g id="line2d_13">
    <path d="M 80.91 42.6775 
L 81.980831 45.245203 
L 83.051663 48.403844 
L 84.193883 52.483288 
L 85.407491 57.649958 
L 86.835266 64.724905 
L 88.976929 76.639907 
L 91.618313 91.107125 
L 93.188865 98.46256 
L 94.473863 103.470667 
L 95.687472 107.330189 
L 96.829692 110.259067 
L 97.971912 112.586403 
L 99.114132 114.410063 
L 100.256352 115.826062 
L 101.469961 116.971851 
L 102.754958 117.874242 
L 104.182733 118.602237 
L 105.824675 119.17834 
L 107.82356 119.628287 
L 110.322166 119.953846 
L 113.891604 120.173917 
L 119.674092 120.278041 
L 133.594899 120.242096 
L 210.266419 119.677196 
L 362.39585 118.529954 
L 449.632905 118.148478 
L 516.31 117.9988 
L 516.31 117.9988 
" clip-path="url(#pd292935dd8)" style="fill: none; stroke: #1f77b4; stroke-width: 1.5; stroke-linecap: square"/>
   </g>
   <g id="line2d_14">
    <path d="M 80.91 42.6775 
L 81.909443 45.24657 
L 82.980274 48.6578 
L 84.122494 53.116777 
L 85.336103 58.807288 
L 86.835266 67.016007 
L 92.260812 98.007168 
L 93.545809 103.427026 
L 94.688029 107.326966 
L 95.830249 110.443548 
L 96.901081 112.741556 
L 97.971912 114.537687 
L 99.042743 115.928904 
L 100.184963 117.055521 
L 101.398572 117.942196 
L 102.754958 118.657452 
L 104.325511 119.221727 
L 106.253007 119.660076 
L 108.680225 119.971825 
L 112.178273 120.176329 
L 118.10354 120.264616 
L 133.809065 120.198838 
L 217.762238 119.528209 
L 343.335053 118.558373 
L 427.002671 118.18491 
L 516.31 118.003467 
L 516.31 118.003467 
" clip-path="url(#pd292935dd8)" style="fill: none; stroke: #808080; stroke-opacity: 0.5; stroke-width: 1.5; stroke-linecap: square"/>
   </g>
   <g id="line2d_15">
    <path d="M 80.91 42.6775 
L 81.980831 45.202635 
L 83.051663 48.297603 
L 84.193883 52.284389 
L 85.47888 57.645908 
L 86.978044 64.959771 
L 89.119707 76.679648 
L 91.76109 90.88483 
L 93.331643 98.141555 
L 94.61664 103.106215 
L 95.830249 106.957101 
L 96.972469 109.896835 
L 98.114689 112.247192 
L 99.256909 114.101631 
L 100.399129 115.550355 
L 101.612738 116.730606 
L 102.897736 117.667314 
L 104.325511 118.428636 
L 105.896063 119.014445 
L 107.82356 119.488143 
L 110.250777 119.844333 
L 113.606049 120.089146 
L 118.746039 120.216694 
L 129.382963 120.21366 
L 174.857598 119.862073 
L 388.095801 118.097058 
L 468.622313 117.79373 
L 516.31 117.704415 
L 516.31 117.704415 
" clip-path="url(#pd292935dd8)" style="fill: none; stroke: #808080; stroke-opacity: 0.5; stroke-width: 1.5; stroke-linecap: square"/>
   </g>
   <g id="line2d_16">
    <path d="M 80.91 42.6775 
L 81.909443 45.185987 
L 82.980274 48.504519 
L 84.122494 52.829531 
L 85.336103 58.341795 
L 86.763878 65.904834 
L 89.191095 80.23963 
L 91.332758 92.340399 
L 92.760533 99.223316 
L 93.974142 104.083406 
L 95.116362 107.80684 
L 96.258582 110.78727 
L 97.329413 112.991358 
L 98.400244 114.720495 
L 99.542464 116.143815 
L 100.684684 117.219631 
L 101.969682 118.113276 
L 103.397457 118.821442 
L 104.96801 119.350609 
L 106.966895 119.777426 
L 109.53689 120.082493 
L 113.249105 120.277717 
L 119.745481 120.358718 
L 138.235168 120.285229 
L 236.466091 119.598372 
L 380.314427 118.639365 
L 473.548137 118.303141 
L 516.31 118.217322 
L 516.31 118.217322 
" clip-path="url(#pd292935dd8)" style="fill: none; stroke: #808080; stroke-opacity: 0.5; stroke-width: 1.5; stroke-linecap: square"/>
   </g>
   <g id="line2d_17">
    <path d="M 80.91 42.6775 
L 81.980831 45.157269 
L 83.123051 48.411933 
L 84.265271 52.353123 
L 85.550269 57.637772 
L 87.049433 64.834244 
L 89.191095 76.367162 
L 91.975257 91.128394 
L 93.545809 98.262008 
L 94.830807 103.15417 
L 96.044415 106.958297 
L 97.258024 110.034878 
L 98.400244 112.340866 
L 99.542464 114.165385 
L 100.684684 115.596133 
L 101.898293 116.7664 
L 103.183291 117.69843 
L 104.611066 118.459209 
L 106.253007 119.070334 
L 108.180503 119.540883 
L 110.607721 119.897904 
L 113.962992 120.146081 
L 119.102982 120.279648 
L 129.597129 120.287941 
L 175.928429 119.976086 
L 422.005458 118.18235 
L 513.882782 117.911415 
L 516.31 117.907082 
L 516.31 117.907082 
" clip-path="url(#pd292935dd8)" style="fill: none; stroke: #808080; stroke-opacity: 0.5; stroke-width: 1.5; stroke-linecap: square"/>
   </g>
   <g id="line2d_18">
    <path d="M 80.91 42.6775 
L 81.980831 45.23327 
L 83.051663 48.374346 
L 84.193883 52.428608 
L 85.47888 57.889291 
L 86.978044 65.343332 
L 89.191095 77.664021 
L 91.689702 91.248939 
L 93.260254 98.567101 
L 94.545252 103.551669 
L 95.75886 107.398218 
L 96.901081 110.320912 
L 98.043301 112.646633 
L 99.185521 114.472457 
L 100.327741 115.892454 
L 101.541349 117.043682 
L 102.826347 117.952604 
L 104.254122 118.687706 
L 105.896063 119.271146 
L 107.894948 119.728961 
L 110.393555 120.062283 
L 113.962992 120.290564 
L 119.674092 120.403077 
L 133.095178 120.384327 
L 203.770043 119.924437 
L 437.425429 118.322082 
L 516.31 118.083983 
L 516.31 118.083983 
" clip-path="url(#pd292935dd8)" style="fill: none; stroke: #808080; stroke-opacity: 0.5; stroke-width: 1.5; stroke-linecap: square"/>
   </g>
   <g id="line2d_19">
    <path d="M 80.91 42.6775 
L 81.909443 45.353443 
L 82.908885 48.671502 
L 83.979716 53.003777 
L 85.193325 58.912137 
L 86.6211 67.051442 
L 91.832479 98.057612 
L 93.046088 103.412301 
L 94.188308 107.484598 
L 95.259139 110.529941 
L 96.32997 112.922619 
L 97.400802 114.77254 
L 98.471633 116.190015 
L 99.613853 117.324331 
L 100.827462 118.205262 
L 102.183848 118.905954 
L 103.683012 119.429759 
L 105.610508 119.852963 
L 108.037726 120.146957 
L 111.607163 120.336998 
L 117.960762 120.414666 
L 136.950171 120.338986 
L 242.676913 119.618011 
L 380.385816 118.733601 
L 463.553712 118.436985 
L 516.31 118.334024 
L 516.31 118.334024 
" clip-path="url(#pd292935dd8)" style="fill: none; stroke: #808080; stroke-opacity: 0.5; stroke-width: 1.5; stroke-linecap: square"/>
   </g>
   <g id="line2d_20">
    <path d="M 80.91 42.6775 
L 81.980831 45.145 
L 83.123051 48.380931 
L 84.265271 52.296908 
L 85.550269 57.545946 
L 87.049433 64.695031 
L 89.191095 76.164483 
L 91.975257 90.889058 
L 93.545809 98.030314 
L 94.902195 103.189028 
L 96.115804 106.972482 
L 97.329413 110.034976 
L 98.471633 112.332756 
L 99.613853 114.1527 
L 100.756073 115.581555 
L 101.969682 116.75178 
L 103.254679 117.684967 
L 104.682455 118.447727 
L 106.324396 119.06162 
L 108.251892 119.535051 
L 110.67911 119.895209 
L 114.034381 120.146357 
L 119.174371 120.282531 
L 129.597129 120.293236 
L 175.571485 119.988469 
L 429.072945 118.171241 
L 516.31 117.920428 
L 516.31 117.920428 
" clip-path="url(#pd292935dd8)" style="fill: none; stroke: #808080; stroke-opacity: 0.5; stroke-width: 1.5; stroke-linecap: square"/>
   </g>
   <g id="line2d_21">
    <path d="M 80.91 42.6775 
L 81.909443 45.266886 
L 82.980274 48.711287 
L 84.051105 52.912011 
L 85.264714 58.614301 
L 86.692489 66.453456 
L 89.333873 82.549546 
L 91.261369 93.552871 
L 92.617755 100.120213 
L 93.831364 104.958264 
L 94.973584 108.625484 
L 96.044415 111.365758 
L 97.115247 113.522139 
L 98.186078 115.199501 
L 99.256909 116.491597 
L 100.399129 117.532726 
L 101.684127 118.390711 
L 103.111902 119.063208 
L 104.753843 119.577486 
L 106.824117 119.977677 
L 109.53689 120.256102 
L 113.53466 120.424742 
L 121.030479 120.482716 
L 148.300982 120.359356 
L 254.598834 119.647677 
L 397.947449 118.711044 
L 483.613951 118.396901 
L 516.31 118.324648 
L 516.31 118.324648 
" clip-path="url(#pd292935dd8)" style="fill: none; stroke: #808080; stroke-opacity: 0.5; stroke-width: 1.5; stroke-linecap: square"/>
   </g>
   <g id="line2d_22">
    <path d="M 80.91 42.6775 
L 81.980831 45.118062 
L 83.123051 48.311236 
L 84.265271 52.168927 
L 85.550269 57.333666 
L 87.049433 64.365476 
L 89.119707 75.284689 
L 92.118034 90.970654 
L 93.688587 98.014528 
L 95.044973 103.108813 
L 96.258582 106.855964 
L 97.472191 109.897614 
L 98.614411 112.186958 
L 99.756631 114.007027 
L 100.970239 115.519102 
L 102.183848 116.679095 
L 103.468846 117.608054 
L 104.896621 118.370675 
L 106.538562 118.986825 
L 108.466058 119.464964 
L 110.893276 119.830935 
L 114.177159 120.084594 
L 119.174371 120.226134 
L 128.95463 120.242416 
L 168.43261 119.962449 
L 277.871567 118.987956 
L 374.960271 118.240697 
L 447.919575 117.900115 
L 516.31 117.731276 
L 516.31 117.731276 
" clip-path="url(#pd292935dd8)" style="fill: none; stroke: #808080; stroke-opacity: 0.5; stroke-width: 1.5; stroke-linecap: square"/>
   </g>
   <g id="line2d_23">
    <path d="M 80.91 42.6775 
L 81.980831 45.20533 
L 83.051663 48.30801 
L 84.193883 52.308132 
L 85.47888 57.693071 
L 86.978044 65.050805 
L 89.191095 77.244028 
L 91.76109 91.13947 
L 93.331643 98.425517 
L 94.61664 103.406198 
L 95.830249 107.25723 
L 96.972469 110.191483 
L 98.114689 112.533248 
L 99.256909 114.374767 
L 100.399129 115.810875 
L 101.612738 116.978447 
L 102.897736 117.901511 
L 104.325511 118.649222 
L 105.967452 119.245277 
L 107.894948 119.699743 
L 110.322166 120.040779 
L 113.748826 120.278097 
L 119.174371 120.403128 
L 131.167682 120.403898 
L 193.06173 120.046362 
L 443.993194 118.477549 
L 516.31 118.262899 
L 516.31 118.262899 
" clip-path="url(#pd292935dd8)" style="fill: none; stroke: #808080; stroke-opacity: 0.5; stroke-width: 1.5; stroke-linecap: square"/>
   </g>
   <g id="patch_3">
    <path d="M 59.14 121.135 
L 59.14 33.96 
" style="fill: none; stroke: #000000; stroke-width: 0.8; stroke-linejoin: miter; stroke-linecap: square"/>
   </g>
   <g id="patch_4">
    <path d="M 538.08 121.135 
L 538.08 33.96 
" style="fill: none; stroke: #000000; stroke-width: 0.8; stroke-linejoin: miter; stroke-linecap: square"/>
   </g>
   <g id="patch_5">
    <path d="M 59.14 121.135 
L 538.08 121.135 
" style="fill: none; stroke: #000000; stroke-width: 0.8; stroke-linejoin: miter; stroke-linecap: square"/>
   </g>
   <g id="patch_6">
    <path d="M 59.14 33.96 
L 538.08 33.96 
" style="fill: none; stroke: #000000; stroke-width: 0.8; stroke-linejoin: miter; stroke-linecap: square"/>
   </g>
   <g id="legend_1">
    <g id="patch_7">
     <path d="M 477.845625 56.638125 
L 531.08 56.638125 
Q 533.08 56.638125 533.08 54.638125 
L 533.08 40.96 
Q 533.08 38.96 531.08 38.96 
L 477.845625 38.96 
Q 475.845625 38.96 475.845625 40.96 
L 475.845625 54.638125 
Q 475.845625 56.638125 477.845625 56.638125 
z
" style="fill: #ffffff; opacity: 0.8; stroke: #cccccc; stroke-linejoin: miter"/>
    </g>
    <g id="line2d_24">
     <path d="M 479.845625 47.058438 
L 489.845625 47.058438 
L 499.845625 47.058438 
" style="fill: none; stroke: #1f77b4; stroke-width: 1.5; stroke-linecap: square"/>
    </g>
    <g id="text_7">
     <!-- True -->
     <g transform="translate(507.845625 50.558438) scale(0.1 -0.1)">
      <defs>
       <path id="DejaVuSans-54" d="M -19 4666 
L 3928 4666 
L 3928 4134 
L 2272 4134 
L 2272 0 
L 1638 0 
L 1638 4134 
L -19 4134 
L -19 4666 
z
" transform="scale(0.015625)"/>
       <path id="DejaVuSans-72" d="M 2631 2963 
Q 2534 3019 2420 3045 
Q 2306 3072 2169 3072 
Q 1681 3072 1420 2755 
Q 1159 2438 1159 1844 
L 1159 0 
L 581 0 
L 581 3500 
L 1159 3500 
L 1159 2956 
Q 1341 3275 1631 3429 
Q 1922 3584 2338 3584 
Q 2397 3584 2469 3576 
Q 2541 3569 2628 3553 
L 2631 2963 
z
" transform="scale(0.015625)"/>
       <path id="DejaVuSans-75" d="M 544 1381 
L 544 3500 
L 1119 3500 
L 1119 1403 
Q 1119 906 1312 657 
Q 1506 409 1894 409 
Q 2359 409 2629 706 
Q 2900 1003 2900 1516 
L 2900 3500 
L 3475 3500 
L 3475 0 
L 2900 0 
L 2900 538 
Q 2691 219 2414 64 
Q 2138 -91 1772 -91 
Q 1169 -91 856 284 
Q 544 659 544 1381 
z
M 1991 3584 
L 1991 3584 
z
" transform="scale(0.015625)"/>
       <path id="DejaVuSans-65" d="M 3597 1894 
L 3597 1613 
L 953 1613 
Q 991 1019 1311 708 
Q 1631 397 2203 397 
Q 2534 397 2845 478 
Q 3156 559 3463 722 
L 3463 178 
Q 3153 47 2828 -22 
Q 2503 -91 2169 -91 
Q 1331 -91 842 396 
Q 353 884 353 1716 
Q 353 2575 817 3079 
Q 1281 3584 2069 3584 
Q 2775 3584 3186 3129 
Q 3597 2675 3597 1894 
z
M 3022 2063 
Q 3016 2534 2758 2815 
Q 2500 3097 2075 3097 
Q 1594 3097 1305 2825 
Q 1016 2553 972 2059 
L 3022 2063 
z
" transform="scale(0.015625)"/>
      </defs>
      <use xlink:href="#DejaVuSans-54"/>
      <use xlink:href="#DejaVuSans-72" x="46.333984"/>
      <use xlink:href="#DejaVuSans-75" x="87.447266"/>
      <use xlink:href="#DejaVuSans-65" x="150.826172"/>
     </g>
    </g>
   </g>
  </g>
  <g id="axes_2">
   <g id="patch_8">
    <path d="M 59.14 217.0275 
L 538.08 217.0275 
L 538.08 129.8525 
L 59.14 129.8525 
z
" style="fill: #ffffff"/>
   </g>
   <g id="PathCollection_1">
    <defs>
     <path id="m5d58710818" d="M 0 1.581139 
C 0.419323 1.581139 0.821528 1.41454 1.118034 1.118034 
C 1.41454 0.821528 1.581139 0.419323 1.581139 0 
C 1.581139 -0.419323 1.41454 -0.821528 1.118034 -1.118034 
C 0.821528 -1.41454 0.419323 -1.581139 0 -1.581139 
C -0.419323 -1.581139 -0.821528 -1.41454 -1.118034 -1.118034 
C -1.41454 -0.821528 -1.581139 -0.419323 -1.581139 0 
C -1.581139 0.419323 -1.41454 0.821528 -1.118034 1.118034 
C -0.821528 1.41454 -0.419323 1.581139 0 1.581139 
z
" style="stroke: #000000"/>
    </defs>
    <g clip-path="url(#p7515b4c9b5)">
     <use xlink:href="#m5d58710818" x="80.91" y="200.513816" style="stroke: #000000"/>
     <use xlink:href="#m5d58710818" x="88.048875" y="178.917737" style="stroke: #000000"/>
     <use xlink:href="#m5d58710818" x="95.18775" y="149.053178" style="stroke: #000000"/>
     <use xlink:href="#m5d58710818" x="102.326626" y="150.035157" style="stroke: #000000"/>
     <use xlink:href="#m5d58710818" x="109.465501" y="145.096309" style="stroke: #000000"/>
     <use xlink:href="#m5d58710818" x="116.604376" y="149.047687" style="stroke: #000000"/>
     <use xlink:href="#m5d58710818" x="123.743251" y="151.541736" style="stroke: #000000"/>
     <use xlink:href="#m5d58710818" x="130.882127" y="157.396024" style="stroke: #000000"/>
     <use xlink:href="#m5d58710818" x="138.021002" y="158.103494" style="stroke: #000000"/>
     <use xlink:href="#m5d58710818" x="145.159877" y="163.01561" style="stroke: #000000"/>
     <use xlink:href="#m5d58710818" x="152.298752" y="169.47293" style="stroke: #000000"/>
     <use xlink:href="#m5d58710818" x="159.437627" y="162.503767" style="stroke: #000000"/>
     <use xlink:href="#m5d58710818" x="166.576503" y="164.947225" style="stroke: #000000"/>
     <use xlink:href="#m5d58710818" x="173.715378" y="163.595324" style="stroke: #000000"/>
     <use xlink:href="#m5d58710818" x="180.854253" y="172.929252" style="stroke: #000000"/>
     <use xlink:href="#m5d58710818" x="187.993128" y="176.862116" style="stroke: #000000"/>
     <use xlink:href="#m5d58710818" x="195.132004" y="179.291305" style="stroke: #000000"/>
     <use xlink:href="#m5d58710818" x="202.270879" y="185.341597" style="stroke: #000000"/>
     <use xlink:href="#m5d58710818" x="209.409754" y="175.887418" style="stroke: #000000"/>
     <use xlink:href="#m5d58710818" x="216.548629" y="186.428395" style="stroke: #000000"/>
     <use xlink:href="#m5d58710818" x="223.687505" y="188.14937" style="stroke: #000000"/>
     <use xlink:href="#m5d58710818" x="230.82638" y="185.140984" style="stroke: #000000"/>
     <use xlink:href="#m5d58710818" x="237.965255" y="178.940183" style="stroke: #000000"/>
     <use xlink:href="#m5d58710818" x="245.10413" y="185.474726" style="stroke: #000000"/>
     <use xlink:href="#m5d58710818" x="252.243005" y="191.981053" style="stroke: #000000"/>
     <use xlink:href="#m5d58710818" x="259.381881" y="191.568846" style="stroke: #000000"/>
     <use xlink:href="#m5d58710818" x="266.520756" y="186.610764" style="stroke: #000000"/>
     <use xlink:href="#m5d58710818" x="273.659631" y="190.847284" style="stroke: #000000"/>
     <use xlink:href="#m5d58710818" x="280.798506" y="194.254129" style="stroke: #000000"/>
     <use xlink:href="#m5d58710818" x="287.937382" y="192.608487" style="stroke: #000000"/>
     <use xlink:href="#m5d58710818" x="295.076257" y="189.009653" style="stroke: #000000"/>
     <use xlink:href="#m5d58710818" x="302.215132" y="184.247554" style="stroke: #000000"/>
     <use xlink:href="#m5d58710818" x="309.354007" y="198.845353" style="stroke: #000000"/>
     <use xlink:href="#m5d58710818" x="316.492882" y="196.675415" style="stroke: #000000"/>
     <use xlink:href="#m5d58710818" x="323.631758" y="197.93256" style="stroke: #000000"/>
     <use xlink:href="#m5d58710818" x="330.770633" y="205.420681" style="stroke: #000000"/>
     <use xlink:href="#m5d58710818" x="337.909508" y="199.31823" style="stroke: #000000"/>
     <use xlink:href="#m5d58710818" x="345.048383" y="200.140528" style="stroke: #000000"/>
     <use xlink:href="#m5d58710818" x="352.187259" y="191.137101" style="stroke: #000000"/>
     <use xlink:href="#m5d58710818" x="359.326134" y="196.942291" style="stroke: #000000"/>
     <use xlink:href="#m5d58710818" x="366.465009" y="203.747937" style="stroke: #000000"/>
     <use xlink:href="#m5d58710818" x="373.603884" y="194.136372" style="stroke: #000000"/>
     <use xlink:href="#m5d58710818" x="380.742759" y="198.770425" style="stroke: #000000"/>
     <use xlink:href="#m5d58710818" x="387.881635" y="205.059064" style="stroke: #000000"/>
     <use xlink:href="#m5d58710818" x="395.02051" y="200.286879" style="stroke: #000000"/>
     <use xlink:href="#m5d58710818" x="402.159385" y="200.458163" style="stroke: #000000"/>
     <use xlink:href="#m5d58710818" x="409.29826" y="201.891637" style="stroke: #000000"/>
     <use xlink:href="#m5d58710818" x="416.437136" y="198.128825" style="stroke: #000000"/>
     <use xlink:href="#m5d58710818" x="423.576011" y="208.220913" style="stroke: #000000"/>
     <use xlink:href="#m5d58710818" x="430.714886" y="199.739484" style="stroke: #000000"/>
     <use xlink:href="#m5d58710818" x="437.853761" y="194.2955" style="stroke: #000000"/>
     <use xlink:href="#m5d58710818" x="444.992636" y="195.121829" style="stroke: #000000"/>
     <use xlink:href="#m5d58710818" x="452.131512" y="194.124851" style="stroke: #000000"/>
     <use xlink:href="#m5d58710818" x="459.270387" y="194.182938" style="stroke: #000000"/>
     <use xlink:href="#m5d58710818" x="466.409262" y="192.677098" style="stroke: #000000"/>
     <use xlink:href="#m5d58710818" x="473.548137" y="204.126912" style="stroke: #000000"/>
     <use xlink:href="#m5d58710818" x="480.687013" y="195.650523" style="stroke: #000000"/>
     <use xlink:href="#m5d58710818" x="487.825888" y="207.526478" style="stroke: #000000"/>
     <use xlink:href="#m5d58710818" x="494.964763" y="202.114097" style="stroke: #000000"/>
     <use xlink:href="#m5d58710818" x="502.103638" y="207.895374" style="stroke: #000000"/>
     <use xlink:href="#m5d58710818" x="509.242514" y="195.041226" style="stroke: #000000"/>
    </g>
   </g>
   <g id="matplotlib.axis_3">
    <g id="xtick_8">
     <g id="line2d_25">
      <g>
       <use xlink:href="#me23c64abb2" x="80.91" y="217.0275" style="stroke: #000000; stroke-width: 0.8"/>
      </g>
     </g>
    </g>
    <g id="xtick_9">
     <g id="line2d_26">
      <g>
       <use xlink:href="#me23c64abb2" x="153.476667" y="217.0275" style="stroke: #000000; stroke-width: 0.8"/>
      </g>
     </g>
    </g>
    <g id="xtick_10">
     <g id="line2d_27">
      <g>
       <use xlink:href="#me23c64abb2" x="226.043333" y="217.0275" style="stroke: #000000; stroke-width: 0.8"/>
      </g>
     </g>
    </g>
    <g id="xtick_11">
     <g id="line2d_28">
      <g>
       <use xlink:href="#me23c64abb2" x="298.61" y="217.0275" style="stroke: #000000; stroke-width: 0.8"/>
      </g>
     </g>
    </g>
    <g id="xtick_12">
     <g id="line2d_29">
      <g>
       <use xlink:href="#me23c64abb2" x="371.176667" y="217.0275" style="stroke: #000000; stroke-width: 0.8"/>
      </g>
     </g>
    </g>
    <g id="xtick_13">
     <g id="line2d_30">
      <g>
       <use xlink:href="#me23c64abb2" x="443.743333" y="217.0275" style="stroke: #000000; stroke-width: 0.8"/>
      </g>
     </g>
    </g>
    <g id="xtick_14">
     <g id="line2d_31">
      <g>
       <use xlink:href="#me23c64abb2" x="516.31" y="217.0275" style="stroke: #000000; stroke-width: 0.8"/>
      </g>
     </g>
    </g>
   </g>
   <g id="matplotlib.axis_4">
    <g id="ytick_6">
     <g id="line2d_32">
      <g>
       <use xlink:href="#md00cf5c63d" x="59.14" y="217.0275" style="stroke: #000000; stroke-width: 0.8"/>
      </g>
     </g>
     <g id="text_8">
      <!-- 0 -->
      <g transform="translate(45.7775 220.826719) scale(0.1 -0.1)">
       <use xlink:href="#DejaVuSans-30"/>
      </g>
     </g>
    </g>
    <g id="ytick_7">
     <g id="line2d_33">
      <g>
       <use xlink:href="#md00cf5c63d" x="59.14" y="195.23375" style="stroke: #000000; stroke-width: 0.8"/>
      </g>
     </g>
     <g id="text_9">
      <!-- 250 -->
      <g transform="translate(33.0525 199.032969) scale(0.1 -0.1)">
       <use xlink:href="#DejaVuSans-32"/>
       <use xlink:href="#DejaVuSans-35" x="63.623047"/>
       <use xlink:href="#DejaVuSans-30" x="127.246094"/>
      </g>
     </g>
    </g>
    <g id="ytick_8">
     <g id="line2d_34">
      <g>
       <use xlink:href="#md00cf5c63d" x="59.14" y="173.44" style="stroke: #000000; stroke-width: 0.8"/>
      </g>
     </g>
     <g id="text_10">
      <!-- 500 -->
      <g transform="translate(33.0525 177.239219) scale(0.1 -0.1)">
       <use xlink:href="#DejaVuSans-35"/>
       <use xlink:href="#DejaVuSans-30" x="63.623047"/>
       <use xlink:href="#DejaVuSans-30" x="127.246094"/>
      </g>
     </g>
    </g>
    <g id="ytick_9">
     <g id="line2d_35">
      <g>
       <use xlink:href="#md00cf5c63d" x="59.14" y="151.64625" style="stroke: #000000; stroke-width: 0.8"/>
      </g>
     </g>
     <g id="text_11">
      <!-- 750 -->
      <g transform="translate(33.0525 155.445469) scale(0.1 -0.1)">
       <use xlink:href="#DejaVuSans-37"/>
       <use xlink:href="#DejaVuSans-35" x="63.623047"/>
       <use xlink:href="#DejaVuSans-30" x="127.246094"/>
      </g>
     </g>
    </g>
    <g id="ytick_10">
     <g id="line2d_36">
      <g>
       <use xlink:href="#md00cf5c63d" x="59.14" y="129.8525" style="stroke: #000000; stroke-width: 0.8"/>
      </g>
     </g>
     <g id="text_12">
      <!-- 1000 -->
      <g transform="translate(26.69 133.651719) scale(0.1 -0.1)">
       <use xlink:href="#DejaVuSans-31"/>
       <use xlink:href="#DejaVuSans-30" x="63.623047"/>
       <use xlink:href="#DejaVuSans-30" x="127.246094"/>
       <use xlink:href="#DejaVuSans-30" x="190.869141"/>
      </g>
     </g>
    </g>
    <g id="text_13">
     <!-- I -->
     <g transform="translate(546.605 181.038437) scale(0.1 -0.1)">
      <defs>
       <path id="DejaVuSans-49" d="M 628 4666 
L 1259 4666 
L 1259 0 
L 628 0 
L 628 4666 
z
" transform="scale(0.015625)"/>
      </defs>
      <use xlink:href="#DejaVuSans-49"/>
     </g>
    </g>
   </g>
   <g id="line2d_37">
    <path d="M 80.91 208.31 
L 81.980831 205.829973 
L 83.051663 202.783199 
L 84.193883 198.855536 
L 85.47888 193.578354 
L 86.978044 186.408305 
L 89.619428 172.408431 
L 91.618313 162.409753 
L 93.046088 156.342463 
L 94.259697 152.1079 
L 95.330528 149.112636 
L 96.401359 146.756881 
L 97.400802 145.077675 
L 98.400244 143.834278 
L 99.399687 142.954093 
L 100.399129 142.374734 
L 101.398572 142.042623 
L 102.540792 141.903076 
L 103.825789 141.976255 
L 105.324953 142.289935 
L 107.25245 142.939163 
L 109.822445 144.053772 
L 114.034381 146.160639 
L 128.240743 153.401829 
L 135.593784 156.833742 
L 142.946826 160.021571 
L 150.585422 163.090356 
L 158.509574 166.030411 
L 166.647891 168.812064 
L 175.214542 171.500961 
L 183.92397 174.003508 
L 193.204507 176.436758 
L 202.699211 178.698188 
L 212.907803 180.897949 
L 223.401949 182.931734 
L 234.752761 184.90055 
L 246.389128 186.694074 
L 259.096326 188.424686 
L 272.231856 189.990012 
L 286.723773 191.489988 
L 301.786799 192.825932 
L 318.634545 194.094309 
L 336.338956 195.202899 
L 356.470584 196.238215 
L 378.244153 197.127858 
L 402.873273 197.912321 
L 431.571551 198.589719 
L 463.482323 199.121316 
L 503.959746 199.566539 
L 516.31 199.663646 
L 516.31 199.663646 
" clip-path="url(#p7515b4c9b5)" style="fill: none; stroke: #1f77b4; stroke-width: 1.5; stroke-linecap: square"/>
   </g>
   <g id="line2d_38">
    <path d="M 80.91 208.31 
L 81.909443 205.826516 
L 82.980274 202.53335 
L 84.122494 198.237235 
L 85.336103 192.77061 
L 86.835266 184.923479 
L 91.689702 158.585431 
L 92.90331 153.613912 
L 93.974142 150.078275 
L 94.973584 147.46897 
L 95.973027 145.461246 
L 96.901081 144.070954 
L 97.829134 143.065862 
L 98.757188 142.378591 
L 99.685242 141.954409 
L 100.684684 141.734843 
L 101.826904 141.715059 
L 103.183291 141.9283 
L 104.825232 142.431201 
L 107.038283 143.364917 
L 110.250777 144.988908 
L 130.168239 155.451346 
L 137.164337 158.703598 
L 144.374601 161.809664 
L 151.799031 164.764062 
L 159.509016 167.592485 
L 167.575945 170.309013 
L 175.85704 172.863128 
L 184.566468 175.313151 
L 193.561451 177.613558 
L 203.127544 179.826639 
L 212.979192 181.879075 
L 223.616116 183.863382 
L 234.538595 185.676286 
L 246.460516 187.425885 
L 258.810771 189.013427 
L 272.374634 190.529406 
L 286.509606 191.884851 
L 302.286521 193.171249 
L 318.848711 194.296336 
L 337.552564 195.343307 
L 358.041136 196.257608 
L 380.814148 197.05239 
L 407.656319 197.752926 
L 437.211263 198.300229 
L 473.833692 198.755596 
L 516.31 199.078705 
L 516.31 199.078705 
" clip-path="url(#p7515b4c9b5)" style="fill: none; stroke: #808080; stroke-opacity: 0.5; stroke-width: 1.5; stroke-linecap: square"/>
   </g>
   <g id="line2d_39">
    <path d="M 80.91 208.31 
L 81.980831 205.879078 
L 83.123051 202.684922 
L 84.265271 198.816562 
L 85.550269 193.640567 
L 87.049433 186.63444 
L 89.690817 172.963827 
L 91.76109 162.845901 
L 93.188865 156.915888 
L 94.402474 152.768064 
L 95.544694 149.650326 
L 96.615525 147.368238 
L 97.614968 145.743328 
L 98.614411 144.542278 
L 99.613853 143.69605 
L 100.613296 143.146249 
L 101.612738 142.840544 
L 102.754958 142.72867 
L 104.039956 142.832268 
L 105.53912 143.182975 
L 107.466616 143.8818 
L 110.036611 145.066456 
L 114.248547 147.293659 
L 127.669633 154.513463 
L 134.66573 157.96357 
L 141.661828 161.167029 
L 148.943481 164.253948 
L 156.367911 167.15845 
L 164.149285 169.962705 
L 172.144825 172.605057 
L 180.568698 175.153708 
L 189.206737 177.533225 
L 198.415886 179.838223 
L 207.839202 181.967475 
L 217.976404 184.029499 
L 228.470551 185.935765 
L 239.821363 187.768564 
L 251.529118 189.434366 
L 264.379093 191.034524 
L 277.72879 192.47365 
L 292.506262 193.83875 
L 308.06901 195.053129 
L 325.559254 196.187927 
L 344.048941 197.165235 
L 365.394178 198.063819 
L 388.309967 198.80504 
L 415.794637 199.465499 
L 447.134299 199.9846 
L 485.113115 200.391641 
L 516.31 200.601646 
L 516.31 200.601646 
" clip-path="url(#p7515b4c9b5)" style="fill: none; stroke: #808080; stroke-opacity: 0.5; stroke-width: 1.5; stroke-linecap: square"/>
   </g>
   <g id="line2d_40">
    <path d="M 80.91 208.31 
L 81.909443 205.881787 
L 82.980274 202.673485 
L 84.122494 198.499833 
L 85.336103 193.19486 
L 86.835266 185.56278 
L 92.118034 157.554863 
L 93.331643 152.800375 
L 94.402474 149.424577 
L 95.473305 146.773857 
L 96.472748 144.88611 
L 97.400802 143.576173 
L 98.328856 142.625341 
L 99.256909 141.971275 
L 100.256352 141.541033 
L 101.327183 141.332253 
L 102.540792 141.333631 
L 103.968567 141.572821 
L 105.681897 142.097119 
L 108.037726 143.067856 
L 111.607163 144.811568 
L 129.954073 154.071751 
L 137.307114 157.40595 
L 144.874322 160.592132 
L 152.655696 163.625334 
L 160.722625 166.530543 
L 169.146498 169.323171 
L 177.784537 171.952391 
L 186.922297 174.497114 
L 196.274224 176.87055 
L 206.268649 179.174253 
L 216.477241 181.299452 
L 227.471108 183.359864 
L 238.82192 185.259605 
L 251.100785 187.087991 
L 263.879372 188.762888 
L 277.72879 190.353769 
L 292.434873 191.813066 
L 308.283176 193.162907 
L 325.559254 194.403052 
L 344.048941 195.508635 
L 364.965845 196.527649 
L 387.239136 197.39003 
L 413.367419 198.174252 
L 442.922363 198.825432 
L 476.617854 199.347939 
L 516.31 199.755345 
L 516.31 199.755345 
" clip-path="url(#p7515b4c9b5)" style="fill: none; stroke: #808080; stroke-opacity: 0.5; stroke-width: 1.5; stroke-linecap: square"/>
   </g>
   <g id="line2d_41">
    <path d="M 80.91 208.31 
L 81.980831 205.918965 
L 83.123051 202.785111 
L 84.265271 198.997558 
L 85.550269 193.933128 
L 87.049433 187.067735 
L 89.405262 175.057856 
L 91.689702 163.799788 
L 93.188865 157.471387 
L 94.473863 152.988976 
L 95.616083 149.794833 
L 96.686914 147.430206 
L 97.686357 145.722649 
L 98.685799 144.439371 
L 99.685242 143.514444 
L 100.684684 142.88865 
L 101.755516 142.492792 
L 102.897736 142.321084 
L 104.182733 142.362364 
L 105.681897 142.644262 
L 107.538005 143.237945 
L 110.036611 144.291431 
L 113.820215 146.163071 
L 131.81018 155.331575 
L 139.163222 158.706099 
L 146.659041 161.897579 
L 154.297637 164.908324 
L 162.293178 167.818581 
L 170.431495 170.545441 
L 179.069534 173.203399 
L 187.92174 175.693426 
L 197.345055 178.109366 
L 206.982536 180.350268 
L 217.333906 182.525066 
L 227.97083 184.532164 
L 239.464419 186.470308 
L 251.314952 188.243483 
L 264.236316 189.947476 
L 277.657401 191.493432 
L 292.434873 192.966193 
L 307.926232 194.286073 
L 325.130921 195.523045 
L 343.335053 196.608754 
L 364.037791 197.614185 
L 386.096916 198.46206 
L 412.011033 199.230368 
L 440.709311 199.851381 
L 474.904524 200.368657 
L 516.31 200.766552 
L 516.31 200.766552 
" clip-path="url(#p7515b4c9b5)" style="fill: none; stroke: #808080; stroke-opacity: 0.5; stroke-width: 1.5; stroke-linecap: square"/>
   </g>
   <g id="line2d_42">
    <path d="M 80.91 208.31 
L 81.980831 205.843485 
L 83.051663 202.81619 
L 84.193883 198.916186 
L 85.47888 193.678123 
L 86.978044 186.560899 
L 89.548039 173.01702 
L 91.618313 162.667063 
L 93.046088 156.594708 
L 94.259697 152.343969 
L 95.401917 149.151916 
L 96.472748 146.816061 
L 97.472191 145.151848 
L 98.471633 143.920475 
L 99.471076 143.050161 
L 100.470518 142.479772 
L 101.469961 142.156025 
L 102.612181 142.025606 
L 103.897178 142.109191 
L 105.396342 142.435945 
L 107.323838 143.103117 
L 109.893833 144.244009 
L 114.034381 146.360253 
L 128.669075 153.988748 
L 136.022117 157.498225 
L 143.446547 160.792874 
L 151.013755 163.908486 
L 158.937906 166.927756 
L 167.004835 169.763573 
L 175.500097 172.513378 
L 184.209525 175.098181 
L 193.418674 177.598325 
L 202.913378 179.944089 
L 212.979192 182.200855 
L 223.401949 184.308459 
L 234.538595 186.332097 
L 246.103573 188.206357 
L 258.596604 190.003211 
L 271.589357 191.646194 
L 285.795719 193.215202 
L 300.644579 194.629988 
L 317.063992 195.967497 
L 334.340071 197.150405 
L 353.757811 198.253932 
L 374.460549 199.205374 
L 398.233004 200.072303 
L 424.504065 200.79922 
L 454.844284 201.415318 
L 491.609492 201.923224 
L 516.31 202.158531 
L 516.31 202.158531 
" clip-path="url(#p7515b4c9b5)" style="fill: none; stroke: #808080; stroke-opacity: 0.5; stroke-width: 1.5; stroke-linecap: square"/>
   </g>
   <g id="line2d_43">
    <path d="M 80.91 208.31 
L 81.909443 205.716687 
L 82.908885 202.505107 
L 83.979716 198.319339 
L 85.193325 192.626429 
L 86.692489 184.40561 
L 91.261369 158.440776 
L 92.474978 153.206928 
L 93.545809 149.5042 
L 94.545252 146.794747 
L 95.473305 144.856094 
L 96.401359 143.404637 
L 97.329413 142.363532 
L 98.257467 141.657129 
L 99.185521 141.225158 
L 100.184963 141.004947 
L 101.327183 140.988756 
L 102.683569 141.208344 
L 104.325511 141.71675 
L 106.538562 142.650315 
L 109.893833 144.335623 
L 128.312131 153.913185 
L 135.522395 157.272195 
L 142.946826 160.484153 
L 150.656811 163.572657 
L 158.509574 166.477855 
L 166.790669 169.301729 
L 175.214542 171.938132 
L 184.138136 174.4974 
L 193.347285 176.903895 
L 202.984766 179.194204 
L 213.193358 181.386172 
L 223.758893 183.428466 
L 235.109705 185.390981 
L 246.81746 187.190869 
L 259.596047 188.926099 
L 272.802966 190.494988 
L 287.366272 191.998257 
L 302.572076 193.342002 
L 319.419821 194.606841 
L 337.623953 195.742171 
L 357.398637 196.754176 
L 379.957483 197.675314 
L 404.15827 198.440594 
L 432.856549 199.122081 
L 466.766206 199.686801 
L 505.815853 200.113628 
L 516.31 200.198741 
L 516.31 200.198741 
" clip-path="url(#p7515b4c9b5)" style="fill: none; stroke: #808080; stroke-opacity: 0.5; stroke-width: 1.5; stroke-linecap: square"/>
   </g>
   <g id="line2d_44">
    <path d="M 80.91 208.31 
L 81.980831 205.930631 
L 83.123051 202.814565 
L 84.33666 198.793329 
L 85.621658 193.716734 
L 87.120821 186.852828 
L 89.619428 174.148792 
L 91.832479 163.365148 
L 93.331643 157.128572 
L 94.545252 152.945803 
L 95.687472 149.769743 
L 96.758303 147.416259 
L 97.757746 145.714651 
L 98.757188 144.433829 
L 99.756631 143.508763 
L 100.756073 142.880835 
L 101.826904 142.48118 
L 102.969124 142.304442 
L 104.254122 142.339555 
L 105.753286 142.61381 
L 107.609393 143.198347 
L 110.108 144.240602 
L 113.820215 146.06106 
L 132.595457 155.558629 
L 139.948498 158.897719 
L 147.444317 162.057066 
L 155.154302 165.065579 
L 163.221231 167.972215 
L 171.430938 170.694469 
L 180.140366 173.346637 
L 189.06396 175.830008 
L 198.558664 178.238602 
L 208.267534 180.471673 
L 218.690292 182.638257 
L 229.398605 184.636851 
L 240.963583 186.566515 
L 252.885504 188.331132 
L 265.878257 190.026945 
L 279.370731 191.56479 
L 294.219592 193.030173 
L 309.78234 194.342894 
L 327.129807 195.578453 
L 345.405327 196.657652 
L 366.250843 197.660993 
L 388.524133 198.508568 
L 414.581028 199.273653 
L 443.779028 199.898496 
L 478.117018 200.411085 
L 516.31 200.780816 
L 516.31 200.780816 
" clip-path="url(#p7515b4c9b5)" style="fill: none; stroke: #808080; stroke-opacity: 0.5; stroke-width: 1.5; stroke-linecap: square"/>
   </g>
   <g id="line2d_45">
    <path d="M 80.91 208.31 
L 81.909443 205.803944 
L 82.980274 202.474786 
L 84.122494 198.125408 
L 85.336103 192.585421 
L 86.835266 184.629821 
L 91.546924 158.69017 
L 92.760533 153.593448 
L 93.831364 149.958641 
L 94.830807 147.273879 
L 95.830249 145.204296 
L 96.758303 143.767759 
L 97.686357 142.726522 
L 98.614411 142.010479 
L 99.542464 141.563252 
L 100.541907 141.324098 
L 101.684127 141.287043 
L 102.969124 141.468283 
L 104.539677 141.920769 
L 106.68134 142.790734 
L 109.751056 144.306669 
L 116.675765 148.047932 
L 124.95686 152.41136 
L 132.238513 155.990806 
L 139.591554 159.354014 
L 147.087373 162.53689 
L 154.868747 165.598417 
L 162.864288 168.503722 
L 171.145383 171.278491 
L 179.854811 173.957542 
L 188.849793 176.490697 
L 198.273109 178.910412 
L 208.053368 181.192052 
L 218.476126 183.390341 
L 229.184438 185.421973 
L 240.749416 187.386024 
L 252.671338 189.185123 
L 265.664091 190.917689 
L 279.156565 192.491212 
L 293.934037 193.988764 
L 309.425396 195.333523 
L 326.630085 196.601843 
L 345.048383 197.730172 
L 365.394178 198.753385 
L 388.095801 199.662204 
L 412.939087 200.434881 
L 442.351253 201.117051 
L 475.261467 201.65249 
L 515.596112 202.086031 
L 516.31 202.09195 
L 516.31 202.09195 
" clip-path="url(#p7515b4c9b5)" style="fill: none; stroke: #808080; stroke-opacity: 0.5; stroke-width: 1.5; stroke-linecap: square"/>
   </g>
   <g id="line2d_46">
    <path d="M 80.91 208.31 
L 81.980831 205.960838 
L 83.123051 202.891624 
L 84.33666 198.937981 
L 85.621658 193.953113 
L 87.19221 186.874968 
L 89.690817 174.353859 
L 91.903868 163.723702 
L 93.403032 157.557518 
L 94.688029 153.191661 
L 95.830249 150.076343 
L 96.901081 147.766148 
L 97.900523 146.095639 
L 98.899966 144.838361 
L 99.899408 143.931005 
L 100.898851 143.317584 
L 101.969682 142.930966 
L 103.111902 142.766299 
L 104.396899 142.814085 
L 105.896063 143.103744 
L 107.752171 143.708506 
L 110.250777 144.780204 
L 113.962992 146.64808 
L 132.238513 156.128124 
L 139.448777 159.484974 
L 146.73043 162.628568 
L 154.226249 165.623198 
L 162.007623 168.491294 
L 170.003163 171.203493 
L 178.427036 173.823751 
L 187.136463 176.299991 
L 196.274224 178.663905 
L 205.840316 180.908284 
L 215.906131 183.036372 
L 226.471666 185.042609 
L 237.608311 186.926528 
L 249.458844 188.705452 
L 261.951876 190.351596 
L 275.44435 191.904386 
L 289.650712 193.312065 
L 305.284848 194.636567 
L 321.847039 195.812528 
L 340.408114 196.905157 
L 360.325576 197.84919 
L 383.0272 198.700575 
L 408.441595 199.419788 
L 437.496818 200.01915 
L 473.191194 200.516324 
L 515.239169 200.874064 
L 516.31 200.880861 
L 516.31 200.880861 
" clip-path="url(#p7515b4c9b5)" style="fill: none; stroke: #808080; stroke-opacity: 0.5; stroke-width: 1.5; stroke-linecap: square"/>
   </g>
   <g id="line2d_47">
    <path d="M 80.91 208.31 
L 81.980831 205.865508 
L 83.051663 202.868875 
L 84.193883 199.012259 
L 85.47888 193.834124 
L 86.978044 186.788995 
L 89.405262 174.082614 
L 91.618313 162.952609 
L 93.117477 156.53686 
L 94.331085 152.253004 
L 95.473305 149.017622 
L 96.544137 146.634283 
L 97.543579 144.920368 
L 98.543022 143.637461 
L 99.542464 142.716358 
L 100.541907 142.094622 
L 101.612738 141.701891 
L 102.754958 141.530784 
L 104.039956 141.568216 
L 105.53912 141.839701 
L 107.395227 142.412084 
L 109.893833 143.4262 
L 113.748826 145.259505 
L 131.952958 154.173115 
L 139.662943 157.585771 
L 147.515706 160.816899 
L 155.582635 163.894424 
L 163.935119 166.843229 
L 172.644547 169.678116 
L 181.639529 172.371309 
L 191.062845 174.956276 
L 200.771715 177.389497 
L 211.051695 179.733134 
L 221.688619 181.929727 
L 233.039431 184.042592 
L 244.747186 185.996226 
L 257.382996 187.87616 
L 270.447137 189.596061 
L 284.724888 191.248461 
L 299.573748 192.743017 
L 315.993161 194.168627 
L 333.19785 195.437279 
L 352.401425 196.627923 
L 372.889997 197.67096 
L 395.948564 198.621121 
L 421.648515 199.446973 
L 450.204015 200.143279 
L 484.613394 200.747629 
L 516.31 201.134634 
L 516.31 201.134634 
" clip-path="url(#p7515b4c9b5)" style="fill: none; stroke: #808080; stroke-opacity: 0.5; stroke-width: 1.5; stroke-linecap: square"/>
   </g>
   <g id="patch_9">
    <path d="M 59.14 217.0275 
L 59.14 129.8525 
" style="fill: none; stroke: #000000; stroke-width: 0.8; stroke-linejoin: miter; stroke-linecap: square"/>
   </g>
   <g id="patch_10">
    <path d="M 538.08 217.0275 
L 538.08 129.8525 
" style="fill: none; stroke: #000000; stroke-width: 0.8; stroke-linejoin: miter; stroke-linecap: square"/>
   </g>
   <g id="patch_11">
    <path d="M 59.14 217.0275 
L 538.08 217.0275 
" style="fill: none; stroke: #000000; stroke-width: 0.8; stroke-linejoin: miter; stroke-linecap: square"/>
   </g>
   <g id="patch_12">
    <path d="M 59.14 129.8525 
L 538.08 129.8525 
" style="fill: none; stroke: #000000; stroke-width: 0.8; stroke-linejoin: miter; stroke-linecap: square"/>
   </g>
   <g id="legend_2">
    <g id="patch_13">
     <path d="M 475.203437 167.20875 
L 531.08 167.20875 
Q 533.08 167.20875 533.08 165.20875 
L 533.08 136.8525 
Q 533.08 134.8525 531.08 134.8525 
L 475.203437 134.8525 
Q 473.203437 134.8525 473.203437 136.8525 
L 473.203437 165.20875 
Q 473.203437 167.20875 475.203437 167.20875 
z
" style="fill: #ffffff; opacity: 0.8; stroke: #cccccc; stroke-linejoin: miter"/>
    </g>
    <g id="line2d_48">
     <path d="M 477.203437 142.950938 
L 487.203437 142.950938 
L 497.203437 142.950938 
" style="fill: none; stroke: #1f77b4; stroke-width: 1.5; stroke-linecap: square"/>
    </g>
    <g id="text_14">
     <!-- True -->
     <g transform="translate(505.203437 146.450938) scale(0.1 -0.1)">
      <use xlink:href="#DejaVuSans-54"/>
      <use xlink:href="#DejaVuSans-72" x="46.333984"/>
      <use xlink:href="#DejaVuSans-75" x="87.447266"/>
      <use xlink:href="#DejaVuSans-65" x="150.826172"/>
     </g>
    </g>
    <g id="PathCollection_2">
     <g>
      <use xlink:href="#m5d58710818" x="487.203437" y="158.504063" style="stroke: #000000"/>
     </g>
    </g>
    <g id="text_15">
     <!-- Data -->
     <g transform="translate(505.203437 161.129063) scale(0.1 -0.1)">
      <defs>
       <path id="DejaVuSans-44" d="M 1259 4147 
L 1259 519 
L 2022 519 
Q 2988 519 3436 956 
Q 3884 1394 3884 2338 
Q 3884 3275 3436 3711 
Q 2988 4147 2022 4147 
L 1259 4147 
z
M 628 4666 
L 1925 4666 
Q 3281 4666 3915 4102 
Q 4550 3538 4550 2338 
Q 4550 1131 3912 565 
Q 3275 0 1925 0 
L 628 0 
L 628 4666 
z
" transform="scale(0.015625)"/>
       <path id="DejaVuSans-61" d="M 2194 1759 
Q 1497 1759 1228 1600 
Q 959 1441 959 1056 
Q 959 750 1161 570 
Q 1363 391 1709 391 
Q 2188 391 2477 730 
Q 2766 1069 2766 1631 
L 2766 1759 
L 2194 1759 
z
M 3341 1997 
L 3341 0 
L 2766 0 
L 2766 531 
Q 2569 213 2275 61 
Q 1981 -91 1556 -91 
Q 1019 -91 701 211 
Q 384 513 384 1019 
Q 384 1609 779 1909 
Q 1175 2209 1959 2209 
L 2766 2209 
L 2766 2266 
Q 2766 2663 2505 2880 
Q 2244 3097 1772 3097 
Q 1472 3097 1187 3025 
Q 903 2953 641 2809 
L 641 3341 
Q 956 3463 1253 3523 
Q 1550 3584 1831 3584 
Q 2591 3584 2966 3190 
Q 3341 2797 3341 1997 
z
" transform="scale(0.015625)"/>
       <path id="DejaVuSans-74" d="M 1172 4494 
L 1172 3500 
L 2356 3500 
L 2356 3053 
L 1172 3053 
L 1172 1153 
Q 1172 725 1289 603 
Q 1406 481 1766 481 
L 2356 481 
L 2356 0 
L 1766 0 
Q 1100 0 847 248 
Q 594 497 594 1153 
L 594 3053 
L 172 3053 
L 172 3500 
L 594 3500 
L 594 4494 
L 1172 4494 
z
" transform="scale(0.015625)"/>
      </defs>
      <use xlink:href="#DejaVuSans-44"/>
      <use xlink:href="#DejaVuSans-61" x="77.001953"/>
      <use xlink:href="#DejaVuSans-74" x="138.28125"/>
      <use xlink:href="#DejaVuSans-61" x="177.490234"/>
     </g>
    </g>
   </g>
  </g>
  <g id="axes_3">
   <g id="patch_14">
    <path d="M 59.14 312.92 
L 538.08 312.92 
L 538.08 225.745 
L 59.14 225.745 
z
" style="fill: #ffffff"/>
   </g>
   <g id="matplotlib.axis_5">
    <g id="xtick_15">
     <g id="line2d_49">
      <g>
       <use xlink:href="#me23c64abb2" x="80.91" y="312.92" style="stroke: #000000; stroke-width: 0.8"/>
      </g>
     </g>
     <g id="text_16">
      <!-- 0 -->
      <g transform="translate(77.72875 327.518438) scale(0.1 -0.1)">
       <use xlink:href="#DejaVuSans-30"/>
      </g>
     </g>
    </g>
    <g id="xtick_16">
     <g id="line2d_50">
      <g>
       <use xlink:href="#me23c64abb2" x="153.476667" y="312.92" style="stroke: #000000; stroke-width: 0.8"/>
      </g>
     </g>
     <g id="text_17">
      <!-- 1 -->
      <g transform="translate(150.295417 327.518438) scale(0.1 -0.1)">
       <use xlink:href="#DejaVuSans-31"/>
      </g>
     </g>
    </g>
    <g id="xtick_17">
     <g id="line2d_51">
      <g>
       <use xlink:href="#me23c64abb2" x="226.043333" y="312.92" style="stroke: #000000; stroke-width: 0.8"/>
      </g>
     </g>
     <g id="text_18">
      <!-- 2 -->
      <g transform="translate(222.862083 327.518438) scale(0.1 -0.1)">
       <use xlink:href="#DejaVuSans-32"/>
      </g>
     </g>
    </g>
    <g id="xtick_18">
     <g id="line2d_52">
      <g>
       <use xlink:href="#me23c64abb2" x="298.61" y="312.92" style="stroke: #000000; stroke-width: 0.8"/>
      </g>
     </g>
     <g id="text_19">
      <!-- 3 -->
      <g transform="translate(295.42875 327.518438) scale(0.1 -0.1)">
       <defs>
        <path id="DejaVuSans-33" d="M 2597 2516 
Q 3050 2419 3304 2112 
Q 3559 1806 3559 1356 
Q 3559 666 3084 287 
Q 2609 -91 1734 -91 
Q 1441 -91 1130 -33 
Q 819 25 488 141 
L 488 750 
Q 750 597 1062 519 
Q 1375 441 1716 441 
Q 2309 441 2620 675 
Q 2931 909 2931 1356 
Q 2931 1769 2642 2001 
Q 2353 2234 1838 2234 
L 1294 2234 
L 1294 2753 
L 1863 2753 
Q 2328 2753 2575 2939 
Q 2822 3125 2822 3475 
Q 2822 3834 2567 4026 
Q 2313 4219 1838 4219 
Q 1578 4219 1281 4162 
Q 984 4106 628 3988 
L 628 4550 
Q 988 4650 1302 4700 
Q 1616 4750 1894 4750 
Q 2613 4750 3031 4423 
Q 3450 4097 3450 3541 
Q 3450 3153 3228 2886 
Q 3006 2619 2597 2516 
z
" transform="scale(0.015625)"/>
       </defs>
       <use xlink:href="#DejaVuSans-33"/>
      </g>
     </g>
    </g>
    <g id="xtick_19">
     <g id="line2d_53">
      <g>
       <use xlink:href="#me23c64abb2" x="371.176667" y="312.92" style="stroke: #000000; stroke-width: 0.8"/>
      </g>
     </g>
     <g id="text_20">
      <!-- 4 -->
      <g transform="translate(367.995417 327.518438) scale(0.1 -0.1)">
       <defs>
        <path id="DejaVuSans-34" d="M 2419 4116 
L 825 1625 
L 2419 1625 
L 2419 4116 
z
M 2253 4666 
L 3047 4666 
L 3047 1625 
L 3713 1625 
L 3713 1100 
L 3047 1100 
L 3047 0 
L 2419 0 
L 2419 1100 
L 313 1100 
L 313 1709 
L 2253 4666 
z
" transform="scale(0.015625)"/>
       </defs>
       <use xlink:href="#DejaVuSans-34"/>
      </g>
     </g>
    </g>
    <g id="xtick_20">
     <g id="line2d_54">
      <g>
       <use xlink:href="#me23c64abb2" x="443.743333" y="312.92" style="stroke: #000000; stroke-width: 0.8"/>
      </g>
     </g>
     <g id="text_21">
      <!-- 5 -->
      <g transform="translate(440.562083 327.518438) scale(0.1 -0.1)">
       <use xlink:href="#DejaVuSans-35"/>
      </g>
     </g>
    </g>
    <g id="xtick_21">
     <g id="line2d_55">
      <g>
       <use xlink:href="#me23c64abb2" x="516.31" y="312.92" style="stroke: #000000; stroke-width: 0.8"/>
      </g>
     </g>
     <g id="text_22">
      <!-- 6 -->
      <g transform="translate(513.12875 327.518438) scale(0.1 -0.1)">
       <defs>
        <path id="DejaVuSans-36" d="M 2113 2584 
Q 1688 2584 1439 2293 
Q 1191 2003 1191 1497 
Q 1191 994 1439 701 
Q 1688 409 2113 409 
Q 2538 409 2786 701 
Q 3034 994 3034 1497 
Q 3034 2003 2786 2293 
Q 2538 2584 2113 2584 
z
M 3366 4563 
L 3366 3988 
Q 3128 4100 2886 4159 
Q 2644 4219 2406 4219 
Q 1781 4219 1451 3797 
Q 1122 3375 1075 2522 
Q 1259 2794 1537 2939 
Q 1816 3084 2150 3084 
Q 2853 3084 3261 2657 
Q 3669 2231 3669 1497 
Q 3669 778 3244 343 
Q 2819 -91 2113 -91 
Q 1303 -91 875 529 
Q 447 1150 447 2328 
Q 447 3434 972 4092 
Q 1497 4750 2381 4750 
Q 2619 4750 2861 4703 
Q 3103 4656 3366 4563 
z
" transform="scale(0.015625)"/>
       </defs>
       <use xlink:href="#DejaVuSans-36"/>
      </g>
     </g>
    </g>
    <g id="text_23">
     <!-- Time -->
     <g transform="translate(286.376406 341.196563) scale(0.1 -0.1)">
      <defs>
       <path id="DejaVuSans-69" d="M 603 3500 
L 1178 3500 
L 1178 0 
L 603 0 
L 603 3500 
z
M 603 4863 
L 1178 4863 
L 1178 4134 
L 603 4134 
L 603 4863 
z
" transform="scale(0.015625)"/>
       <path id="DejaVuSans-6d" d="M 3328 2828 
Q 3544 3216 3844 3400 
Q 4144 3584 4550 3584 
Q 5097 3584 5394 3201 
Q 5691 2819 5691 2113 
L 5691 0 
L 5113 0 
L 5113 2094 
Q 5113 2597 4934 2840 
Q 4756 3084 4391 3084 
Q 3944 3084 3684 2787 
Q 3425 2491 3425 1978 
L 3425 0 
L 2847 0 
L 2847 2094 
Q 2847 2600 2669 2842 
Q 2491 3084 2119 3084 
Q 1678 3084 1418 2786 
Q 1159 2488 1159 1978 
L 1159 0 
L 581 0 
L 581 3500 
L 1159 3500 
L 1159 2956 
Q 1356 3278 1631 3431 
Q 1906 3584 2284 3584 
Q 2666 3584 2933 3390 
Q 3200 3197 3328 2828 
z
" transform="scale(0.015625)"/>
      </defs>
      <use xlink:href="#DejaVuSans-54"/>
      <use xlink:href="#DejaVuSans-69" x="57.958984"/>
      <use xlink:href="#DejaVuSans-6d" x="85.742188"/>
      <use xlink:href="#DejaVuSans-65" x="183.154297"/>
     </g>
    </g>
   </g>
   <g id="matplotlib.axis_6">
    <g id="ytick_11">
     <g id="line2d_56">
      <g>
       <use xlink:href="#md00cf5c63d" x="59.14" y="312.92" style="stroke: #000000; stroke-width: 0.8"/>
      </g>
     </g>
     <g id="text_24">
      <!-- 0 -->
      <g transform="translate(45.7775 316.719219) scale(0.1 -0.1)">
       <use xlink:href="#DejaVuSans-30"/>
      </g>
     </g>
    </g>
    <g id="ytick_12">
     <g id="line2d_57">
      <g>
       <use xlink:href="#md00cf5c63d" x="59.14" y="291.12625" style="stroke: #000000; stroke-width: 0.8"/>
      </g>
     </g>
     <g id="text_25">
      <!-- 250 -->
      <g transform="translate(33.0525 294.925469) scale(0.1 -0.1)">
       <use xlink:href="#DejaVuSans-32"/>
       <use xlink:href="#DejaVuSans-35" x="63.623047"/>
       <use xlink:href="#DejaVuSans-30" x="127.246094"/>
      </g>
     </g>
    </g>
    <g id="ytick_13">
     <g id="line2d_58">
      <g>
       <use xlink:href="#md00cf5c63d" x="59.14" y="269.3325" style="stroke: #000000; stroke-width: 0.8"/>
      </g>
     </g>
     <g id="text_26">
      <!-- 500 -->
      <g transform="translate(33.0525 273.131719) scale(0.1 -0.1)">
       <use xlink:href="#DejaVuSans-35"/>
       <use xlink:href="#DejaVuSans-30" x="63.623047"/>
       <use xlink:href="#DejaVuSans-30" x="127.246094"/>
      </g>
     </g>
    </g>
    <g id="ytick_14">
     <g id="line2d_59">
      <g>
       <use xlink:href="#md00cf5c63d" x="59.14" y="247.53875" style="stroke: #000000; stroke-width: 0.8"/>
      </g>
     </g>
     <g id="text_27">
      <!-- 750 -->
      <g transform="translate(33.0525 251.337969) scale(0.1 -0.1)">
       <use xlink:href="#DejaVuSans-37"/>
       <use xlink:href="#DejaVuSans-35" x="63.623047"/>
       <use xlink:href="#DejaVuSans-30" x="127.246094"/>
      </g>
     </g>
    </g>
    <g id="ytick_15">
     <g id="line2d_60">
      <g>
       <use xlink:href="#md00cf5c63d" x="59.14" y="225.745" style="stroke: #000000; stroke-width: 0.8"/>
      </g>
     </g>
     <g id="text_28">
      <!-- 1000 -->
      <g transform="translate(26.69 229.544219) scale(0.1 -0.1)">
       <use xlink:href="#DejaVuSans-31"/>
       <use xlink:href="#DejaVuSans-30" x="63.623047"/>
       <use xlink:href="#DejaVuSans-30" x="127.246094"/>
       <use xlink:href="#DejaVuSans-30" x="190.869141"/>
      </g>
     </g>
    </g>
    <g id="text_29">
     <!-- R -->
     <g transform="translate(544.605781 276.930938) scale(0.1 -0.1)">
      <defs>
       <path id="DejaVuSans-52" d="M 2841 2188 
Q 3044 2119 3236 1894 
Q 3428 1669 3622 1275 
L 4263 0 
L 3584 0 
L 2988 1197 
Q 2756 1666 2539 1819 
Q 2322 1972 1947 1972 
L 1259 1972 
L 1259 0 
L 628 0 
L 628 4666 
L 2053 4666 
Q 2853 4666 3247 4331 
Q 3641 3997 3641 3322 
Q 3641 2881 3436 2590 
Q 3231 2300 2841 2188 
z
M 1259 4147 
L 1259 2491 
L 2053 2491 
Q 2509 2491 2742 2702 
Q 2975 2913 2975 3322 
Q 2975 3731 2742 3939 
Q 2509 4147 2053 4147 
L 1259 4147 
z
" transform="scale(0.015625)"/>
      </defs>
      <use xlink:href="#DejaVuSans-52"/>
     </g>
    </g>
   </g>
   <g id="line2d_61">
    <path d="M 80.91 312.92 
L 84.122494 312.579272 
L 86.692489 312.087625 
L 88.976929 311.429335 
L 91.332758 310.516418 
L 93.974142 309.245758 
L 97.472191 307.295929 
L 106.895506 301.657966 
L 114.10577 297.52817 
L 120.95909 293.860145 
L 127.883799 290.406931 
L 134.951285 287.129899 
L 142.232938 283.997314 
L 149.800146 280.985202 
L 157.58152 278.127287 
L 165.648449 275.400997 
L 174.072322 272.790632 
L 182.781749 270.324813 
L 191.91951 267.970566 
L 201.414214 265.754297 
L 211.408639 263.650956 
L 221.902786 261.671067 
L 232.968042 259.811098 
L 244.675798 258.070076 
L 257.168829 256.440225 
L 270.447137 254.934656 
L 284.724888 253.542617 
L 300.073469 252.272202 
L 316.778437 251.11555 
L 334.982569 250.080356 
L 355.256975 249.153884 
L 377.887209 248.347118 
L 403.729938 247.652854 
L 433.998769 247.070315 
L 470.050089 246.605734 
L 515.73889 246.248348 
L 516.31 246.245054 
L 516.31 246.245054 
" clip-path="url(#pa71f4c8b0d)" style="fill: none; stroke: #1f77b4; stroke-width: 1.5; stroke-linecap: square"/>
   </g>
   <g id="line2d_62">
    <path d="M 80.91 312.92 
L 83.979716 312.576209 
L 86.406934 312.081652 
L 88.619985 311.398757 
L 90.904425 310.448078 
L 93.47442 309.12412 
L 97.043858 307.006703 
L 113.53466 296.922842 
L 120.102425 293.3019 
L 126.741579 289.896134 
L 133.594899 286.632292 
L 140.662386 283.51564 
L 147.944038 280.549721 
L 155.439857 277.736691 
L 163.221231 275.054121 
L 171.359549 272.486216 
L 179.783422 270.062861 
L 188.564238 267.768315 
L 197.773387 265.592886 
L 207.482258 263.530697 
L 217.619461 261.605963 
L 228.399162 259.787808 
L 239.821363 258.090389 
L 251.95745 256.514173 
L 264.950203 255.054446 
L 278.87101 253.716224 
L 293.934037 252.494231 
L 310.35345 251.38773 
L 328.486193 250.393209 
L 348.546432 249.519228 
L 371.319444 248.754701 
L 397.376339 248.108312 
L 428.144891 247.573307 
L 466.052318 247.14672 
L 515.239169 246.830182 
L 516.31 246.825328 
L 516.31 246.825328 
" clip-path="url(#pa71f4c8b0d)" style="fill: none; stroke: #808080; stroke-opacity: 0.5; stroke-width: 1.5; stroke-linecap: square"/>
   </g>
   <g id="line2d_63">
    <path d="M 80.91 312.92 
L 84.051105 312.566717 
L 86.549711 312.070266 
L 88.834152 311.390192 
L 91.118592 310.474538 
L 93.617198 309.229581 
L 96.829692 307.363148 
L 102.683569 303.648269 
L 111.178831 298.325566 
L 117.746596 294.483736 
L 124.242973 290.940919 
L 130.882127 287.573319 
L 137.735447 284.348331 
L 144.802933 281.271064 
L 152.084586 278.344886 
L 159.580405 275.571908 
L 167.361779 272.929751 
L 175.500097 270.403077 
L 183.92397 268.020847 
L 192.776175 265.750563 
L 202.056713 263.602958 
L 211.765583 261.5867 
L 221.974174 259.69471 
L 232.753876 257.924191 
L 244.247465 256.264165 
L 256.454942 254.728547 
L 269.519083 253.311089 
L 283.582668 252.011842 
L 298.859861 250.826892 
L 315.49344 249.763581 
L 333.911738 248.812979 
L 354.40031 247.983347 
L 377.673043 247.26812 
L 404.72938 246.667157 
L 436.711541 246.185446 
L 476.974798 245.811466 
L 516.31 245.60144 
L 516.31 245.60144 
" clip-path="url(#pa71f4c8b0d)" style="fill: none; stroke: #808080; stroke-opacity: 0.5; stroke-width: 1.5; stroke-linecap: square"/>
   </g>
   <g id="line2d_64">
    <path d="M 80.91 312.92 
L 84.051105 312.588757 
L 86.549711 312.107734 
L 88.834152 311.439399 
L 91.18998 310.508258 
L 93.831364 309.216508 
L 97.543579 307.127297 
L 114.67688 297.189899 
L 121.601589 293.558754 
L 128.669075 290.1061 
L 135.879339 286.831241 
L 143.303769 283.702411 
L 151.013755 280.695768 
L 159.009295 277.819182 
L 167.29039 275.079091 
L 175.85704 272.48001 
L 184.780635 270.006359 
L 194.061172 267.664871 
L 203.770043 265.445055 
L 213.978634 263.340639 
L 224.686947 261.361443 
L 235.96637 259.503549 
L 247.95968 257.755613 
L 260.666878 256.130535 
L 274.230741 254.621859 
L 288.794047 253.228692 
L 304.499572 251.952177 
L 321.561484 250.79217 
L 340.265337 249.746853 
L 360.968075 248.817386 
L 384.098031 248.005485 
L 410.583258 247.304123 
L 441.280421 246.720169 
L 478.117018 246.247996 
L 516.31 245.934833 
L 516.31 245.934833 
" clip-path="url(#pa71f4c8b0d)" style="fill: none; stroke: #808080; stroke-opacity: 0.5; stroke-width: 1.5; stroke-linecap: square"/>
   </g>
   <g id="line2d_65">
    <path d="M 80.91 312.92 
L 84.193883 312.567509 
L 86.763878 312.075249 
L 89.119707 311.398034 
L 91.475535 310.487252 
L 94.116919 309.219272 
L 97.543579 307.306677 
L 104.539677 303.0714 
L 112.677995 298.255086 
L 119.531315 294.463236 
L 126.384635 290.925877 
L 133.380733 287.565008 
L 140.590997 284.348679 
L 148.015427 281.280874 
L 155.725412 278.337994 
L 163.649564 275.551605 
L 171.85927 272.899741 
L 180.425921 270.366581 
L 189.349515 267.960886 
L 198.701441 265.672174 
L 208.4817 263.51015 
L 218.761681 261.468022 
L 229.541382 259.555142 
L 240.963583 257.756243 
L 253.028282 256.083004 
L 265.949646 254.518594 
L 279.727675 253.077767 
L 294.576535 251.751964 
L 310.567616 250.55014 
L 328.05786 249.461539 
L 347.261435 248.492685 
L 368.749449 247.635687 
L 392.878847 246.900653 
L 420.791849 246.277574 
L 453.987619 245.76763 
L 494.607819 245.374028 
L 516.31 245.233867 
L 516.31 245.233867 
" clip-path="url(#pa71f4c8b0d)" style="fill: none; stroke: #808080; stroke-opacity: 0.5; stroke-width: 1.5; stroke-linecap: square"/>
   </g>
   <g id="line2d_66">
    <path d="M 80.91 312.92 
L 84.122494 312.573471 
L 86.692489 312.07436 
L 88.976929 311.406462 
L 91.332758 310.479857 
L 93.974142 309.188421 
L 97.400802 307.245416 
L 105.110787 302.52804 
L 112.820772 297.94741 
L 119.674092 294.136381 
L 126.598801 290.541777 
L 133.666288 287.125158 
L 140.947941 283.854045 
L 148.44376 280.732283 
L 156.153745 277.762428 
L 164.149285 274.921418 
L 172.43038 272.215533 
L 181.068419 269.628901 
L 190.063402 267.170133 
L 199.415329 264.845675 
L 209.195588 262.644952 
L 219.475568 260.561532 
L 230.25527 258.605014 
L 241.67747 256.760275 
L 253.742169 255.039407 
L 266.592145 253.433871 
L 280.298785 251.948495 
L 295.004868 250.581295 
L 310.853171 249.334096 
L 328.05786 248.205416 
L 346.97588 247.191003 
L 367.892784 246.29586 
L 391.451072 245.515281 
L 418.221854 244.855592 
L 449.775683 244.306933 
L 488.111443 243.873338 
L 516.31 243.664987 
L 516.31 243.664987 
" clip-path="url(#pa71f4c8b0d)" style="fill: none; stroke: #808080; stroke-opacity: 0.5; stroke-width: 1.5; stroke-linecap: square"/>
   </g>
   <g id="line2d_67">
    <path d="M 80.91 312.92 
L 83.979716 312.584384 
L 86.335545 312.110233 
L 88.477208 311.458647 
L 90.761648 310.521031 
L 93.331643 309.216211 
L 97.043858 307.053582 
L 112.321051 297.918757 
L 119.102982 294.227117 
L 125.956303 290.748644 
L 133.023789 287.41084 
L 140.305442 284.218662 
L 147.801261 281.175557 
L 155.582635 278.25792 
L 163.649564 275.473025 
L 172.002048 272.82642 
L 180.711476 270.302266 
L 189.777847 267.908482 
L 199.272551 265.63441 
L 209.195588 263.489 
L 219.618346 261.465098 
L 230.612213 259.559712 
L 242.24858 257.771749 
L 254.598834 256.102848 
L 267.734365 254.555088 
L 281.797949 253.124916 
L 296.932364 251.812276 
L 313.351777 250.614727 
L 331.198965 249.538533 
L 350.97365 248.572233 
L 373.032774 247.72216 
L 397.947449 246.988591 
L 426.931282 246.364496 
L 461.197883 245.856728 
L 503.460025 245.460073 
L 516.31 245.374735 
L 516.31 245.374735 
" clip-path="url(#pa71f4c8b0d)" style="fill: none; stroke: #808080; stroke-opacity: 0.5; stroke-width: 1.5; stroke-linecap: square"/>
   </g>
   <g id="line2d_68">
    <path d="M 80.91 312.92 
L 84.193883 312.570306 
L 86.763878 312.082929 
L 89.119707 311.41297 
L 91.475535 310.511739 
L 94.116919 309.256053 
L 97.543579 307.359249 
L 104.325511 303.28028 
L 112.606606 298.398426 
L 119.531315 294.581261 
L 126.456024 291.020855 
L 133.52351 287.639563 
L 140.733774 284.435926 
L 148.229593 281.350343 
L 155.939579 278.418091 
L 163.935119 275.616188 
L 172.216214 272.950803 
L 180.854253 270.405981 
L 189.849236 267.990265 
L 199.201162 265.709589 
L 208.981422 263.553623 
L 219.261402 261.515682 
L 230.112492 259.593261 
L 241.606081 257.785903 
L 253.742169 256.105114 
L 266.663533 254.541977 
L 280.441563 253.100794 
L 295.361812 251.767254 
L 311.424281 250.558245 
L 328.985914 249.462891 
L 348.189488 248.490863 
L 369.677503 247.629521 
L 393.87829 246.887327 
L 421.791292 246.2588 
L 454.987062 245.742908 
L 495.464484 245.34433 
L 516.31 245.206256 
L 516.31 245.206256 
" clip-path="url(#pa71f4c8b0d)" style="fill: none; stroke: #808080; stroke-opacity: 0.5; stroke-width: 1.5; stroke-linecap: square"/>
   </g>
   <g id="line2d_69">
    <path d="M 80.91 312.92 
L 83.979716 312.584347 
L 86.406934 312.099067 
L 88.619985 311.4273 
L 90.904425 310.491212 
L 93.47442 309.187852 
L 97.043858 307.104229 
L 114.391325 296.66043 
L 121.173256 292.972029 
L 128.097965 289.458234 
L 135.23684 286.086267 
L 142.589882 282.86092 
L 150.15709 279.785534 
L 158.009852 276.836432 
L 166.14817 274.020735 
L 174.572043 271.344018 
L 183.281471 268.810098 
L 192.347842 266.403515 
L 201.842546 264.113736 
L 211.765583 261.950004 
L 222.188341 259.905366 
L 233.182209 257.977031 
L 244.818575 256.164143 
L 257.097441 254.477902 
L 270.232971 252.901053 
L 284.225166 251.447963 
L 299.288193 250.109617 
L 315.564829 248.889777 
L 333.269239 247.788203 
L 352.829757 246.798437 
L 374.460549 245.930302 
L 399.01828 245.172778 
L 427.07406 244.535878 
L 460.198441 244.012124 
L 501.104196 243.598332 
L 516.31 243.490902 
L 516.31 243.490902 
" clip-path="url(#pa71f4c8b0d)" style="fill: none; stroke: #808080; stroke-opacity: 0.5; stroke-width: 1.5; stroke-linecap: square"/>
   </g>
   <g id="line2d_70">
    <path d="M 80.91 312.92 
L 84.193883 312.558455 
L 86.763878 312.057462 
L 89.119707 311.370678 
L 91.475535 310.44737 
L 94.04553 309.19715 
L 97.329413 307.337622 
L 103.326068 303.630982 
L 112.035496 298.312336 
L 118.746039 294.483094 
L 125.456581 290.911556 
L 132.238513 287.553007 
L 139.234611 284.336126 
L 146.444875 281.265708 
L 153.869305 278.344861 
L 161.57929 275.550699 
L 169.57483 272.890045 
L 177.927314 270.347408 
L 186.565353 267.950716 
L 195.631725 265.667685 
L 205.126429 263.508388 
L 215.049465 261.481001 
L 225.543612 259.565886 
L 236.608869 257.775123 
L 248.316624 256.106791 
L 260.809656 254.553789 
L 274.159352 253.120311 
L 288.508492 251.8059 
L 304.07124 250.60631 
L 320.990374 249.528392 
L 339.694227 248.563045 
L 360.468354 247.718294 
L 384.026642 246.987395 
L 411.225757 246.373341 
L 443.350695 245.876353 
L 483.471174 245.488441 
L 516.31 245.295363 
L 516.31 245.295363 
" clip-path="url(#pa71f4c8b0d)" style="fill: none; stroke: #808080; stroke-opacity: 0.5; stroke-width: 1.5; stroke-linecap: square"/>
   </g>
   <g id="line2d_71">
    <path d="M 80.91 312.92 
L 84.265271 312.576954 
L 86.906655 312.084483 
L 89.262484 311.421616 
L 91.689702 310.504507 
L 94.473863 309.201049 
L 98.186078 307.195165 
L 118.174929 296.027498 
L 125.385193 292.414384 
L 132.738234 288.978239 
L 140.305442 285.687734 
L 148.086816 282.546264 
L 156.153745 279.530283 
L 164.506229 276.646655 
L 173.144268 273.900852 
L 182.139251 271.276776 
L 191.491177 268.782176 
L 201.200048 266.422826 
L 211.408639 264.172805 
L 222.045563 262.05681 
L 233.253597 260.05497 
L 245.032741 258.177617 
L 257.525773 256.412923 
L 270.804081 254.764271 
L 284.939054 253.23526 
L 300.073469 251.824021 
L 316.421494 250.525813 
L 334.054515 249.350969 
L 353.400867 248.287461 
L 374.746104 247.341245 
L 398.589948 246.510749 
L 425.717673 245.794681 
L 456.985947 245.197115 
L 494.536431 244.709515 
L 516.31 244.509966 
L 516.31 244.509966 
" clip-path="url(#pa71f4c8b0d)" style="fill: none; stroke: #808080; stroke-opacity: 0.5; stroke-width: 1.5; stroke-linecap: square"/>
   </g>
   <g id="patch_15">
    <path d="M 59.14 312.92 
L 59.14 225.745 
" style="fill: none; stroke: #000000; stroke-width: 0.8; stroke-linejoin: miter; stroke-linecap: square"/>
   </g>
   <g id="patch_16">
    <path d="M 538.08 312.92 
L 538.08 225.745 
" style="fill: none; stroke: #000000; stroke-width: 0.8; stroke-linejoin: miter; stroke-linecap: square"/>
   </g>
   <g id="patch_17">
    <path d="M 59.14 312.92 
L 538.08 312.92 
" style="fill: none; stroke: #000000; stroke-width: 0.8; stroke-linejoin: miter; stroke-linecap: square"/>
   </g>
   <g id="patch_18">
    <path d="M 59.14 225.745 
L 538.08 225.745 
" style="fill: none; stroke: #000000; stroke-width: 0.8; stroke-linejoin: miter; stroke-linecap: square"/>
   </g>
   <g id="legend_3">
    <g id="patch_19">
     <path d="M 66.14 248.423125 
L 119.374375 248.423125 
Q 121.374375 248.423125 121.374375 246.423125 
L 121.374375 232.745 
Q 121.374375 230.745 119.374375 230.745 
L 66.14 230.745 
Q 64.14 230.745 64.14 232.745 
L 64.14 246.423125 
Q 64.14 248.423125 66.14 248.423125 
z
" style="fill: #ffffff; opacity: 0.8; stroke: #cccccc; stroke-linejoin: miter"/>
    </g>
    <g id="line2d_72">
     <path d="M 68.14 238.843437 
L 78.14 238.843437 
L 88.14 238.843437 
" style="fill: none; stroke: #1f77b4; stroke-width: 1.5; stroke-linecap: square"/>
    </g>
    <g id="text_30">
     <!-- True -->
     <g transform="translate(96.14 242.343437) scale(0.1 -0.1)">
      <use xlink:href="#DejaVuSans-54"/>
      <use xlink:href="#DejaVuSans-72" x="46.333984"/>
      <use xlink:href="#DejaVuSans-75" x="87.447266"/>
      <use xlink:href="#DejaVuSans-65" x="150.826172"/>
     </g>
    </g>
   </g>
  </g>
  <g id="text_31">
   <!-- 2.B Problem 2 Posterior Predictive -->
   <g transform="translate(169.117031 17.837812) scale(0.14 -0.14)">
    <defs>
     <path id="DejaVuSans-2e" d="M 684 794 
L 1344 794 
L 1344 0 
L 684 0 
L 684 794 
z
" transform="scale(0.015625)"/>
     <path id="DejaVuSans-42" d="M 1259 2228 
L 1259 519 
L 2272 519 
Q 2781 519 3026 730 
Q 3272 941 3272 1375 
Q 3272 1813 3026 2020 
Q 2781 2228 2272 2228 
L 1259 2228 
z
M 1259 4147 
L 1259 2741 
L 2194 2741 
Q 2656 2741 2882 2914 
Q 3109 3088 3109 3444 
Q 3109 3797 2882 3972 
Q 2656 4147 2194 4147 
L 1259 4147 
z
M 628 4666 
L 2241 4666 
Q 2963 4666 3353 4366 
Q 3744 4066 3744 3513 
Q 3744 3084 3544 2831 
Q 3344 2578 2956 2516 
Q 3422 2416 3680 2098 
Q 3938 1781 3938 1306 
Q 3938 681 3513 340 
Q 3088 0 2303 0 
L 628 0 
L 628 4666 
z
" transform="scale(0.015625)"/>
     <path id="DejaVuSans-20" transform="scale(0.015625)"/>
     <path id="DejaVuSans-50" d="M 1259 4147 
L 1259 2394 
L 2053 2394 
Q 2494 2394 2734 2622 
Q 2975 2850 2975 3272 
Q 2975 3691 2734 3919 
Q 2494 4147 2053 4147 
L 1259 4147 
z
M 628 4666 
L 2053 4666 
Q 2838 4666 3239 4311 
Q 3641 3956 3641 3272 
Q 3641 2581 3239 2228 
Q 2838 1875 2053 1875 
L 1259 1875 
L 1259 0 
L 628 0 
L 628 4666 
z
" transform="scale(0.015625)"/>
     <path id="DejaVuSans-6f" d="M 1959 3097 
Q 1497 3097 1228 2736 
Q 959 2375 959 1747 
Q 959 1119 1226 758 
Q 1494 397 1959 397 
Q 2419 397 2687 759 
Q 2956 1122 2956 1747 
Q 2956 2369 2687 2733 
Q 2419 3097 1959 3097 
z
M 1959 3584 
Q 2709 3584 3137 3096 
Q 3566 2609 3566 1747 
Q 3566 888 3137 398 
Q 2709 -91 1959 -91 
Q 1206 -91 779 398 
Q 353 888 353 1747 
Q 353 2609 779 3096 
Q 1206 3584 1959 3584 
z
" transform="scale(0.015625)"/>
     <path id="DejaVuSans-62" d="M 3116 1747 
Q 3116 2381 2855 2742 
Q 2594 3103 2138 3103 
Q 1681 3103 1420 2742 
Q 1159 2381 1159 1747 
Q 1159 1113 1420 752 
Q 1681 391 2138 391 
Q 2594 391 2855 752 
Q 3116 1113 3116 1747 
z
M 1159 2969 
Q 1341 3281 1617 3432 
Q 1894 3584 2278 3584 
Q 2916 3584 3314 3078 
Q 3713 2572 3713 1747 
Q 3713 922 3314 415 
Q 2916 -91 2278 -91 
Q 1894 -91 1617 61 
Q 1341 213 1159 525 
L 1159 0 
L 581 0 
L 581 4863 
L 1159 4863 
L 1159 2969 
z
" transform="scale(0.015625)"/>
     <path id="DejaVuSans-6c" d="M 603 4863 
L 1178 4863 
L 1178 0 
L 603 0 
L 603 4863 
z
" transform="scale(0.015625)"/>
     <path id="DejaVuSans-73" d="M 2834 3397 
L 2834 2853 
Q 2591 2978 2328 3040 
Q 2066 3103 1784 3103 
Q 1356 3103 1142 2972 
Q 928 2841 928 2578 
Q 928 2378 1081 2264 
Q 1234 2150 1697 2047 
L 1894 2003 
Q 2506 1872 2764 1633 
Q 3022 1394 3022 966 
Q 3022 478 2636 193 
Q 2250 -91 1575 -91 
Q 1294 -91 989 -36 
Q 684 19 347 128 
L 347 722 
Q 666 556 975 473 
Q 1284 391 1588 391 
Q 1994 391 2212 530 
Q 2431 669 2431 922 
Q 2431 1156 2273 1281 
Q 2116 1406 1581 1522 
L 1381 1569 
Q 847 1681 609 1914 
Q 372 2147 372 2553 
Q 372 3047 722 3315 
Q 1072 3584 1716 3584 
Q 2034 3584 2315 3537 
Q 2597 3491 2834 3397 
z
" transform="scale(0.015625)"/>
     <path id="DejaVuSans-64" d="M 2906 2969 
L 2906 4863 
L 3481 4863 
L 3481 0 
L 2906 0 
L 2906 525 
Q 2725 213 2448 61 
Q 2172 -91 1784 -91 
Q 1150 -91 751 415 
Q 353 922 353 1747 
Q 353 2572 751 3078 
Q 1150 3584 1784 3584 
Q 2172 3584 2448 3432 
Q 2725 3281 2906 2969 
z
M 947 1747 
Q 947 1113 1208 752 
Q 1469 391 1925 391 
Q 2381 391 2643 752 
Q 2906 1113 2906 1747 
Q 2906 2381 2643 2742 
Q 2381 3103 1925 3103 
Q 1469 3103 1208 2742 
Q 947 2381 947 1747 
z
" transform="scale(0.015625)"/>
     <path id="DejaVuSans-63" d="M 3122 3366 
L 3122 2828 
Q 2878 2963 2633 3030 
Q 2388 3097 2138 3097 
Q 1578 3097 1268 2742 
Q 959 2388 959 1747 
Q 959 1106 1268 751 
Q 1578 397 2138 397 
Q 2388 397 2633 464 
Q 2878 531 3122 666 
L 3122 134 
Q 2881 22 2623 -34 
Q 2366 -91 2075 -91 
Q 1284 -91 818 406 
Q 353 903 353 1747 
Q 353 2603 823 3093 
Q 1294 3584 2113 3584 
Q 2378 3584 2631 3529 
Q 2884 3475 3122 3366 
z
" transform="scale(0.015625)"/>
     <path id="DejaVuSans-76" d="M 191 3500 
L 800 3500 
L 1894 563 
L 2988 3500 
L 3597 3500 
L 2284 0 
L 1503 0 
L 191 3500 
z
" transform="scale(0.015625)"/>
    </defs>
    <use xlink:href="#DejaVuSans-32"/>
    <use xlink:href="#DejaVuSans-2e" x="63.623047"/>
    <use xlink:href="#DejaVuSans-42" x="95.410156"/>
    <use xlink:href="#DejaVuSans-20" x="164.013672"/>
    <use xlink:href="#DejaVuSans-50" x="195.800781"/>
    <use xlink:href="#DejaVuSans-72" x="254.353516"/>
    <use xlink:href="#DejaVuSans-6f" x="293.216797"/>
    <use xlink:href="#DejaVuSans-62" x="354.398438"/>
    <use xlink:href="#DejaVuSans-6c" x="417.875"/>
    <use xlink:href="#DejaVuSans-65" x="445.658203"/>
    <use xlink:href="#DejaVuSans-6d" x="507.181641"/>
    <use xlink:href="#DejaVuSans-20" x="604.59375"/>
    <use xlink:href="#DejaVuSans-32" x="636.380859"/>
    <use xlink:href="#DejaVuSans-20" x="700.003906"/>
    <use xlink:href="#DejaVuSans-50" x="731.791016"/>
    <use xlink:href="#DejaVuSans-6f" x="788.46875"/>
    <use xlink:href="#DejaVuSans-73" x="849.650391"/>
    <use xlink:href="#DejaVuSans-74" x="901.75"/>
    <use xlink:href="#DejaVuSans-65" x="940.958984"/>
    <use xlink:href="#DejaVuSans-72" x="1002.482422"/>
    <use xlink:href="#DejaVuSans-69" x="1043.595703"/>
    <use xlink:href="#DejaVuSans-6f" x="1071.378906"/>
    <use xlink:href="#DejaVuSans-72" x="1132.560547"/>
    <use xlink:href="#DejaVuSans-20" x="1173.673828"/>
    <use xlink:href="#DejaVuSans-50" x="1205.460938"/>
    <use xlink:href="#DejaVuSans-72" x="1264.013672"/>
    <use xlink:href="#DejaVuSans-65" x="1302.876953"/>
    <use xlink:href="#DejaVuSans-64" x="1364.400391"/>
    <use xlink:href="#DejaVuSans-69" x="1427.876953"/>
    <use xlink:href="#DejaVuSans-63" x="1455.660156"/>
    <use xlink:href="#DejaVuSans-74" x="1510.640625"/>
    <use xlink:href="#DejaVuSans-69" x="1549.849609"/>
    <use xlink:href="#DejaVuSans-76" x="1577.632812"/>
    <use xlink:href="#DejaVuSans-65" x="1636.8125"/>
   </g>
  </g>
 </g>
 <defs>
  <clipPath id="pd292935dd8">
   <rect x="59.14" y="33.96" width="478.94" height="87.175"/>
  </clipPath>
  <clipPath id="p7515b4c9b5">
   <rect x="59.14" y="129.8525" width="478.94" height="87.175"/>
  </clipPath>
  <clipPath id="pa71f4c8b0d">
   <rect x="59.14" y="225.745" width="478.94" height="87.175"/>
  </clipPath>
 </defs>
</svg>
