<?xml version="1.0" encoding="utf-8" standalone="no"?>
<!DOCTYPE svg PUBLIC "-//W3C//DTD SVG 1.1//EN"
  "http://www.w3.org/Graphics/SVG/1.1/DTD/svg11.dtd">
<svg xmlns:xlink="http://www.w3.org/1999/xlink" width="460.8pt" height="345.6pt" viewBox="0 0 460.8 345.6" xmlns="http://www.w3.org/2000/svg" version="1.1">
 <metadata>
  <rdf:RDF xmlns:dc="http://purl.org/dc/elements/1.1/" xmlns:cc="http://creativecommons.org/ns#" xmlns:rdf="http://www.w3.org/1999/02/22-rdf-syntax-ns#">
   <cc:Work>
    <dc:type rdf:resource="http://purl.org/dc/dcmitype/StillImage"/>
    <dc:date>2024-03-26T19:01:32.035948</dc:date>
    <dc:format>image/svg+xml</dc:format>
    <dc:creator>
     <cc:Agent>
      <dc:title>Matplotlib v3.8.3, https://matplotlib.org/</dc:title>
     </cc:Agent>
    </dc:creator>
   </cc:Work>
  </rdf:RDF>
 </metadata>
 <defs>
  <style type="text/css">*{stroke-linejoin: round; stroke-linecap: butt}</style>
 </defs>
 <g id="figure_1">
  <g id="patch_1">
   <path d="M 0 345.6 
L 460.8 345.6 
L 460.8 0 
L 0 0 
z
" style="fill: #ffffff"/>
  </g>
  <g id="axes_1">
   <g id="patch_2">
    <path d="M 57.6 307.584 
L 414.72 307.584 
L 414.72 41.472 
L 57.6 41.472 
z
" style="fill: #ffffff"/>
   </g>
   <g id="QuadContourSet_1">
    <path d="M 61.207273 307.584 
L 64.814545 307.584 
L 67.413339 307.584 
L 68.349115 304.896 
L 68.421818 304.705515 
L 69.424552 302.208 
L 70.41123 299.52 
L 71.397304 296.832 
L 72.029091 295.224955 
L 72.469344 294.144 
L 73.519356 291.456 
L 74.548937 288.768 
L 75.636364 286.090991 
L 75.640905 286.08 
L 76.736853 283.392 
L 77.802687 280.704 
L 78.924892 278.016 
L 79.243636 277.302511 
L 80.061069 275.328 
L 81.156875 272.64 
L 82.310121 269.952 
L 82.850909 268.780215 
L 83.48819 267.264 
L 84.609862 264.576 
L 85.796803 261.888 
L 86.458182 260.502621 
L 87.014136 259.2 
L 88.160722 256.512 
L 89.386904 253.824 
L 90.065455 252.451265 
L 90.63559 251.136 
L 91.810124 248.448 
L 93.085083 245.76 
L 93.672727 244.612534 
L 94.351138 243.072 
L 95.561467 240.384 
L 96.90001 237.696 
L 97.28 236.980064 
L 98.162537 235.008 
L 99.422329 232.32 
L 100.846236 229.632 
L 100.887273 229.557406 
L 102.076231 226.944 
L 103.406435 224.256 
L 104.494545 222.286552 
L 104.831093 221.568 
L 106.10535 218.88 
L 107.536466 216.192 
L 108.101818 215.207372 
L 108.913537 213.504 
L 110.272596 210.816 
L 111.709091 208.336848 
L 111.811521 208.128 
L 113.126302 205.44 
L 114.614676 202.752 
L 115.316364 201.588666 
L 116.078051 200.064 
L 117.507892 197.376 
L 118.923636 195.060132 
L 119.115023 194.688 
L 120.50814 192 
L 122.119519 189.312 
L 122.530909 188.66601 
L 123.602171 186.624 
L 125.167952 183.936 
L 126.138182 182.438325 
L 126.781506 181.248 
L 128.321382 178.56 
L 129.745455 176.403082 
L 130.041187 175.872 
L 131.571518 173.184 
L 133.352727 170.541675 
L 133.37894 170.496 
L 134.914048 167.808 
L 136.730544 165.12 
L 136.96 164.793923 
L 138.348012 162.432 
L 140.184566 159.744 
L 140.567273 159.212663 
L 141.875573 157.056 
L 143.75422 154.368 
L 144.174545 153.798707 
L 145.502163 151.68 
L 147.447254 148.992 
L 147.781818 148.550552 
L 149.237053 146.304 
L 151.277242 143.616 
L 151.389091 143.472408 
L 153.094437 140.928 
L 154.996364 138.518677 
L 155.1906 138.24 
L 157.095209 135.552 
L 158.603636 133.699141 
L 159.206976 132.864 
L 161.269749 130.176 
L 162.210909 129.056132 
L 163.386705 127.488 
L 165.662233 124.8 
L 165.818182 124.620412 
L 167.773087 122.112 
L 169.425455 120.250471 
L 170.097154 119.424 
L 172.430198 116.736 
L 173.032727 116.080901 
L 174.755151 114.048 
L 176.64 112.05169 
L 177.252415 111.36 
L 179.77416 108.672 
L 180.247273 108.189659 
L 182.290603 105.984 
L 183.854545 104.437352 
L 184.962679 103.296 
L 187.461818 100.904306 
L 187.763738 100.608 
L 190.578647 97.92 
L 191.069091 97.470131 
L 193.471513 95.232 
L 194.676364 94.167139 
L 196.512823 92.544 
L 198.283636 91.039883 
L 199.698671 89.856 
L 201.890909 88.071202 
L 203.03429 87.168 
L 205.498182 85.250632 
L 206.534448 84.48 
L 209.105455 82.573239 
L 210.225068 81.792 
L 212.712727 80.039165 
L 214.146447 79.104 
L 216.32 77.653802 
L 218.358761 76.416 
L 219.927273 75.42864 
L 222.951134 73.728 
L 223.534545 73.38289 
L 227.141818 71.442811 
L 227.985654 71.04 
L 230.749091 69.621354 
L 233.674691 68.352 
L 234.356364 68.02857 
L 237.963636 66.505235 
L 240.359806 65.664 
L 241.570909 65.187458 
L 245.178182 63.96758 
L 248.785455 62.992618 
L 248.857529 62.976 
L 252.392727 62.031397 
L 256 61.281906 
L 259.607273 60.713288 
L 263.214545 60.30236 
L 263.404442 60.288 
L 266.821818 59.973343 
L 270.429091 59.80906 
L 274.036364 59.806298 
L 277.643636 59.96489 
L 281.218378 60.288 
L 281.250909 60.290449 
L 284.858182 60.699361 
L 288.465455 61.267337 
L 292.072727 62.015792 
L 295.68 62.975887 
L 295.680366 62.976 
L 299.287273 63.961375 
L 302.894545 65.18558 
L 304.115885 65.664 
L 306.501818 66.518867 
L 310.109091 68.05504 
L 310.736389 68.352 
L 313.716364 69.674558 
L 316.363542 71.04 
L 317.323636 71.51266 
L 320.930909 73.494872 
L 321.323645 73.728 
L 324.538182 75.584481 
L 325.848288 76.416 
L 328.145455 77.854442 
L 329.995126 79.104 
L 331.752727 80.290272 
L 333.849829 81.792 
L 335.36 82.884855 
L 337.469408 84.48 
L 338.967273 85.636708 
L 340.891604 87.168 
L 342.574545 88.548965 
L 344.140616 89.856 
L 346.181818 91.628947 
L 347.230491 92.544 
L 349.789091 94.888305 
L 350.16696 95.232 
L 353.016734 97.92 
L 353.396364 98.292132 
L 355.800658 100.608 
L 357.003636 101.843189 
L 358.458524 103.296 
L 360.610909 105.605207 
L 360.977833 105.984 
L 363.480255 108.672 
L 364.218182 109.510874 
L 365.917257 111.36 
L 367.825455 113.613759 
L 368.213555 114.048 
L 370.514014 116.736 
L 371.432727 117.879682 
L 372.745178 119.424 
L 374.850955 122.112 
L 375.04 122.359665 
L 377.01106 124.8 
L 378.647273 127.008464 
L 379.027583 127.488 
L 381.060626 130.176 
L 382.254545 131.863198 
L 383.011671 132.864 
L 384.924236 135.552 
L 385.861818 136.937042 
L 386.802206 138.24 
L 388.619332 140.928 
L 389.469091 142.238183 
L 390.418096 143.616 
L 392.154573 146.304 
L 393.076364 147.784962 
L 393.87026 148.992 
L 395.532826 151.68 
L 396.683636 153.603255 
L 397.164422 154.368 
L 398.753491 157.056 
L 400.290909 159.723626 
L 400.30317 159.744 
L 401.814446 162.432 
L 403.275957 165.12 
L 403.898182 166.285594 
L 404.713688 167.808 
L 406.065891 170.496 
L 407.443168 173.184 
L 407.505455 173.31398 
L 408.670783 175.872 
L 409.851934 178.56 
L 411.087983 181.248 
L 411.112727 181.309984 
L 412.034122 183.936 
L 412.864587 186.624 
L 413.555201 189.312 
L 413.870575 192 
L 411.112727 194.439727 
L 407.505455 192.582324 
L 406.784837 192 
L 403.898182 190.063139 
L 403.020594 189.312 
L 400.290909 187.27771 
L 399.544735 186.624 
L 396.683636 184.366252 
L 396.195038 183.936 
L 393.076364 181.400089 
L 392.90264 181.248 
L 389.651069 178.56 
L 389.469091 178.421744 
L 386.385781 175.872 
L 385.861818 175.468388 
L 383.065599 173.184 
L 382.254545 172.558829 
L 379.683173 170.496 
L 378.647273 169.704782 
L 376.228119 167.808 
L 375.04 166.915702 
L 372.687464 165.12 
L 371.432727 164.19935 
L 369.045974 162.432 
L 367.825455 161.561876 
L 365.286383 159.744 
L 364.218182 159.007731 
L 361.389503 157.056 
L 360.610909 156.539518 
L 357.334122 154.368 
L 357.003636 154.157932 
L 353.396364 151.885573 
L 353.065916 151.68 
L 349.789091 149.735081 
L 348.532428 148.992 
L 346.181818 147.672916 
L 343.735431 146.304 
L 342.574545 145.690758 
L 338.967273 143.806173 
L 338.592951 143.616 
L 335.36 142.087698 
L 332.911781 140.928 
L 331.752727 140.419821 
L 328.145455 138.888135 
L 326.586419 138.24 
L 324.538182 137.465089 
L 320.930909 136.139992 
L 319.268486 135.552 
L 317.323636 134.936727 
L 313.716364 133.858718 
L 310.263388 132.864 
L 310.109091 132.82487 
L 306.501818 132.012765 
L 302.894545 131.269665 
L 299.287273 130.606779 
L 296.534007 130.176 
L 295.68 130.063166 
L 292.072727 129.690569 
L 288.465455 129.419985 
L 284.858182 129.257661 
L 281.250909 129.207789 
L 277.643636 129.271846 
L 274.036364 129.44827 
L 270.429091 129.732498 
L 266.821818 130.11736 
L 266.394933 130.176 
L 263.214545 130.693909 
L 259.607273 131.378466 
L 256 132.13982 
L 252.852123 132.864 
L 252.392727 132.986636 
L 248.785455 134.060702 
L 245.178182 135.156926 
L 243.970161 135.552 
L 241.570909 136.434758 
L 237.963636 137.7822 
L 236.798262 138.24 
L 234.356364 139.298981 
L 230.749091 140.844519 
L 230.567684 140.928 
L 227.141818 142.632544 
L 225.149413 143.616 
L 223.534545 144.472349 
L 220.063553 146.304 
L 219.927273 146.380672 
L 216.32 148.501703 
L 215.49927 148.992 
L 212.712727 150.727427 
L 211.206946 151.68 
L 209.105455 153.053889 
L 207.138919 154.368 
L 205.498182 155.490744 
L 203.27535 157.056 
L 201.890909 158.045007 
L 199.595915 159.744 
L 198.283636 160.720382 
L 196.079356 162.432 
L 194.676364 163.516951 
L 192.703609 165.12 
L 191.069091 166.431285 
L 189.446389 167.808 
L 187.461818 169.45694 
L 186.286049 170.496 
L 183.854545 172.585313 
L 183.202593 173.184 
L 180.247273 175.806731 
L 180.178701 175.872 
L 177.371959 178.56 
L 176.64 179.230928 
L 174.616197 181.248 
L 173.032727 182.743459 
L 171.873864 183.936 
L 169.425455 186.316386 
L 169.13511 186.624 
L 166.575505 189.312 
L 165.818182 190.069282 
L 164.071376 192 
L 162.210909 193.912165 
L 161.526049 194.688 
L 159.055407 197.376 
L 158.603636 197.852462 
L 156.727348 200.064 
L 154.996364 201.938443 
L 154.319491 202.752 
L 151.997442 205.44 
L 151.389091 206.114815 
L 149.774513 208.128 
L 147.781818 210.396095 
L 147.449619 210.816 
L 145.312378 213.504 
L 144.174545 214.829007 
L 143.131598 216.192 
L 140.936576 218.88 
L 140.567273 219.319639 
L 138.900647 221.568 
L 136.96 223.937894 
L 136.725181 224.256 
L 134.757632 226.944 
L 133.352727 228.696954 
L 132.681237 229.632 
L 130.703695 232.32 
L 129.745455 233.541096 
L 128.71862 235.008 
L 126.739386 237.696 
L 126.138182 238.478188 
L 124.835091 240.384 
L 122.864022 243.072 
L 122.530909 243.514392 
L 121.02778 245.76 
L 119.075294 248.448 
L 118.923636 248.653573 
L 117.292991 251.136 
L 115.369106 253.824 
L 115.316364 253.896971 
L 113.62619 256.512 
L 111.739643 259.2 
L 111.709091 259.243149 
L 110.022149 261.888 
L 108.179627 264.576 
L 108.101818 264.688196 
L 106.475227 267.264 
L 104.680713 269.952 
L 104.494545 270.226155 
L 102.979738 272.64 
L 101.233964 275.328 
L 100.887273 275.849596 
L 99.530402 278.016 
L 97.830346 280.704 
L 97.28 281.550279 
L 96.122857 283.392 
L 94.461188 286.08 
L 93.672727 287.319801 
L 92.754283 288.768 
L 91.118552 291.456 
L 90.065455 293.150176 
L 89.424233 294.144 
L 87.79549 296.832 
L 86.458182 299.034214 
L 86.135971 299.52 
L 84.486114 302.208 
L 82.892663 304.896 
L 82.850909 304.965752 
L 81.18541 307.584 
L 82.850909 307.584 
L 86.458182 307.584 
L 90.065455 307.584 
L 93.672727 307.584 
L 97.28 307.584 
L 100.887273 307.584 
L 104.494545 307.584 
L 108.101818 307.584 
L 111.709091 307.584 
L 115.316364 307.584 
L 118.923636 307.584 
L 122.530909 307.584 
L 126.138182 307.584 
L 129.745455 307.584 
L 133.352727 307.584 
L 136.96 307.584 
L 140.567273 307.584 
L 144.174545 307.584 
L 147.781818 307.584 
L 151.389091 307.584 
L 154.996364 307.584 
L 158.603636 307.584 
L 162.210909 307.584 
L 165.818182 307.584 
L 169.425455 307.584 
L 173.032727 307.584 
L 176.64 307.584 
L 180.247273 307.584 
L 183.854545 307.584 
L 187.461818 307.584 
L 191.069091 307.584 
L 194.676364 307.584 
L 198.283636 307.584 
L 201.890909 307.584 
L 205.498182 307.584 
L 209.105455 307.584 
L 212.712727 307.584 
L 216.32 307.584 
L 219.927273 307.584 
L 223.534545 307.584 
L 227.141818 307.584 
L 230.749091 307.584 
L 234.356364 307.584 
L 237.963636 307.584 
L 241.570909 307.584 
L 245.178182 307.584 
L 248.785455 307.584 
L 252.392727 307.584 
L 256 307.584 
L 259.607273 307.584 
L 263.214545 307.584 
L 266.821818 307.584 
L 270.429091 307.584 
L 274.036364 307.584 
L 277.643636 307.584 
L 281.250909 307.584 
L 284.858182 307.584 
L 288.465455 307.584 
L 292.072727 307.584 
L 295.68 307.584 
L 299.287273 307.584 
L 302.894545 307.584 
L 306.501818 307.584 
L 310.109091 307.584 
L 313.716364 307.584 
L 317.323636 307.584 
L 320.930909 307.584 
L 324.538182 307.584 
L 328.145455 307.584 
L 331.752727 307.584 
L 335.36 307.584 
L 338.967273 307.584 
L 342.574545 307.584 
L 346.181818 307.584 
L 349.789091 307.584 
L 353.396364 307.584 
L 357.003636 307.584 
L 360.610909 307.584 
L 364.218182 307.584 
L 367.825455 307.584 
L 371.432727 307.584 
L 375.04 307.584 
L 378.647273 307.584 
L 382.254545 307.584 
L 385.861818 307.584 
L 389.469091 307.584 
L 393.076364 307.584 
L 396.683636 307.584 
L 400.290909 307.584 
L 403.898182 307.584 
L 407.505455 307.584 
L 411.112727 307.584 
L 414.72 307.584 
L 414.72 304.896 
L 414.72 302.208 
L 414.72 299.52 
L 414.72 296.832 
L 414.72 294.144 
L 414.72 291.456 
L 414.72 288.768 
L 414.72 286.08 
L 414.72 283.392 
L 414.72 280.704 
L 414.72 278.016 
L 414.72 275.328 
L 414.72 272.64 
L 414.72 269.952 
L 414.72 267.264 
L 414.72 264.576 
L 414.72 261.888 
L 414.72 259.2 
L 414.72 256.512 
L 414.72 253.824 
L 414.72 251.136 
L 414.72 248.448 
L 414.72 245.76 
L 414.72 243.072 
L 414.72 240.384 
L 414.72 237.696 
L 414.72 235.008 
L 414.72 232.32 
L 414.72 229.632 
L 414.72 226.944 
L 414.72 224.256 
L 414.72 221.568 
L 414.72 218.88 
L 414.72 216.192 
L 414.72 213.504 
L 414.72 210.816 
L 414.72 208.128 
L 414.72 205.44 
L 414.72 202.752 
L 414.72 200.064 
L 414.72 197.376 
L 414.72 194.688 
L 414.72 192 
L 414.72 189.312 
L 414.72 186.624 
L 414.72 183.936 
L 414.72 181.248 
L 414.72 178.56 
L 414.72 175.872 
L 414.72 173.184 
L 414.72 170.496 
L 414.72 167.808 
L 414.72 165.12 
L 414.72 162.432 
L 414.72 159.744 
L 414.72 157.056 
L 414.72 154.368 
L 414.72 151.68 
L 414.72 148.992 
L 414.72 146.304 
L 414.72 143.616 
L 414.72 140.928 
L 414.72 138.24 
L 414.72 135.552 
L 414.72 132.864 
L 414.72 130.176 
L 414.72 127.488 
L 414.72 124.8 
L 414.72 122.112 
L 414.72 119.424 
L 414.72 116.736 
L 414.72 114.048 
L 414.72 111.36 
L 414.72 108.672 
L 414.72 105.984 
L 414.72 103.296 
L 414.72 100.608 
L 414.72 97.92 
L 414.72 95.232 
L 414.72 92.544 
L 414.72 89.856 
L 414.72 87.168 
L 414.72 84.48 
L 414.72 81.792 
L 414.72 79.104 
L 414.72 76.416 
L 414.72 73.728 
L 414.72 71.04 
L 414.72 68.352 
L 414.72 65.664 
L 414.72 62.976 
L 414.72 60.288 
L 414.72 57.6 
L 414.72 54.912 
L 414.72 52.224 
L 414.72 49.536 
L 414.72 46.848 
L 414.72 44.16 
L 414.72 41.472 
L 411.112727 41.472 
L 407.505455 41.472 
L 403.898182 41.472 
L 400.290909 41.472 
L 396.683636 41.472 
L 393.076364 41.472 
L 389.469091 41.472 
L 385.861818 41.472 
L 382.254545 41.472 
L 378.647273 41.472 
L 375.04 41.472 
L 371.432727 41.472 
L 367.825455 41.472 
L 364.218182 41.472 
L 360.610909 41.472 
L 357.003636 41.472 
L 353.396364 41.472 
L 349.789091 41.472 
L 346.181818 41.472 
L 342.574545 41.472 
L 338.967273 41.472 
L 335.36 41.472 
L 331.752727 41.472 
L 328.145455 41.472 
L 324.538182 41.472 
L 320.930909 41.472 
L 317.323636 41.472 
L 313.716364 41.472 
L 310.109091 41.472 
L 306.501818 41.472 
L 302.894545 41.472 
L 299.287273 41.472 
L 295.68 41.472 
L 292.072727 41.472 
L 288.465455 41.472 
L 284.858182 41.472 
L 281.250909 41.472 
L 277.643636 41.472 
L 274.036364 41.472 
L 270.429091 41.472 
L 266.821818 41.472 
L 263.214545 41.472 
L 259.607273 41.472 
L 256 41.472 
L 252.392727 41.472 
L 248.785455 41.472 
L 245.178182 41.472 
L 241.570909 41.472 
L 237.963636 41.472 
L 234.356364 41.472 
L 230.749091 41.472 
L 227.141818 41.472 
L 223.534545 41.472 
L 219.927273 41.472 
L 216.32 41.472 
L 212.712727 41.472 
L 209.105455 41.472 
L 205.498182 41.472 
L 201.890909 41.472 
L 198.283636 41.472 
L 194.676364 41.472 
L 191.069091 41.472 
L 187.461818 41.472 
L 183.854545 41.472 
L 180.247273 41.472 
L 176.64 41.472 
L 173.032727 41.472 
L 169.425455 41.472 
L 165.818182 41.472 
L 162.210909 41.472 
L 158.603636 41.472 
L 154.996364 41.472 
L 151.389091 41.472 
L 147.781818 41.472 
L 144.174545 41.472 
L 140.567273 41.472 
L 136.96 41.472 
L 133.352727 41.472 
L 129.745455 41.472 
L 126.138182 41.472 
L 122.530909 41.472 
L 118.923636 41.472 
L 115.316364 41.472 
L 111.709091 41.472 
L 108.101818 41.472 
L 104.494545 41.472 
L 100.887273 41.472 
L 97.28 41.472 
L 93.672727 41.472 
L 90.065455 41.472 
L 86.458182 41.472 
L 82.850909 41.472 
L 79.243636 41.472 
L 75.636364 41.472 
L 72.029091 41.472 
L 68.421818 41.472 
L 64.814545 41.472 
L 61.207273 41.472 
L 57.6 41.472 
L 57.6 44.16 
L 57.6 46.848 
L 57.6 49.536 
L 57.6 52.224 
L 57.6 54.912 
L 57.6 57.6 
L 57.6 60.288 
L 57.6 62.976 
L 57.6 65.664 
L 57.6 68.352 
L 57.6 71.04 
L 57.6 73.728 
L 57.6 76.416 
L 57.6 79.104 
L 57.6 81.792 
L 57.6 84.48 
L 57.6 87.168 
L 57.6 89.856 
L 57.6 92.544 
L 57.6 95.232 
L 57.6 97.92 
L 57.6 100.608 
L 57.6 103.296 
L 57.6 105.984 
L 57.6 108.672 
L 57.6 111.36 
L 57.6 114.048 
L 57.6 116.736 
L 57.6 119.424 
L 57.6 122.112 
L 57.6 124.8 
L 57.6 127.488 
L 57.6 130.176 
L 57.6 132.864 
L 57.6 135.552 
L 57.6 138.24 
L 57.6 140.928 
L 57.6 143.616 
L 57.6 146.304 
L 57.6 148.992 
L 57.6 151.68 
L 57.6 154.368 
L 57.6 157.056 
L 57.6 159.744 
L 57.6 162.432 
L 57.6 165.12 
L 57.6 167.808 
L 57.6 170.496 
L 57.6 173.184 
L 57.6 175.872 
L 57.6 178.56 
L 57.6 181.248 
L 57.6 183.936 
L 57.6 186.624 
L 57.6 189.312 
L 57.6 192 
L 57.6 194.688 
L 57.6 197.376 
L 57.6 200.064 
L 57.6 202.752 
L 57.6 205.44 
L 57.6 208.128 
L 57.6 210.816 
L 57.6 213.504 
L 57.6 216.192 
L 57.6 218.88 
L 57.6 221.568 
L 57.6 224.256 
L 57.6 226.944 
L 57.6 229.632 
L 57.6 232.32 
L 57.6 235.008 
L 57.6 237.696 
L 57.6 240.384 
L 57.6 243.072 
L 57.6 245.76 
L 57.6 248.448 
L 57.6 251.136 
L 57.6 253.824 
L 57.6 256.512 
L 57.6 259.2 
L 57.6 261.888 
L 57.6 264.576 
L 57.6 267.264 
L 57.6 269.952 
L 57.6 272.64 
L 57.6 275.328 
L 57.6 278.016 
L 57.6 280.704 
L 57.6 283.392 
L 57.6 286.08 
L 57.6 288.768 
L 57.6 291.456 
L 57.6 294.144 
L 57.6 296.832 
L 57.6 299.52 
L 57.6 302.208 
L 57.6 304.896 
L 57.6 307.584 
z
" clip-path="url(#p12ba7b79f2)" style="fill: #48186a"/>
    <path d="M 68.421818 307.584 
L 72.029091 307.584 
L 75.636364 307.584 
L 79.243636 307.584 
L 81.18541 307.584 
L 82.850909 304.965752 
L 82.892663 304.896 
L 84.486114 302.208 
L 86.135971 299.52 
L 86.458182 299.034214 
L 87.79549 296.832 
L 89.424233 294.144 
L 90.065455 293.150176 
L 91.118552 291.456 
L 92.754283 288.768 
L 93.672727 287.319801 
L 94.461188 286.08 
L 96.122857 283.392 
L 97.28 281.550279 
L 97.830346 280.704 
L 99.530402 278.016 
L 100.887273 275.849596 
L 101.233964 275.328 
L 102.979738 272.64 
L 104.494545 270.226155 
L 104.680713 269.952 
L 106.475227 267.264 
L 108.101818 264.688196 
L 108.179627 264.576 
L 110.022149 261.888 
L 111.709091 259.243149 
L 111.739643 259.2 
L 113.62619 256.512 
L 115.316364 253.896971 
L 115.369106 253.824 
L 117.292991 251.136 
L 118.923636 248.653573 
L 119.075294 248.448 
L 121.02778 245.76 
L 122.530909 243.514392 
L 122.864022 243.072 
L 124.835091 240.384 
L 126.138182 238.478188 
L 126.739386 237.696 
L 128.71862 235.008 
L 129.745455 233.541096 
L 130.703695 232.32 
L 132.681237 229.632 
L 133.352727 228.696954 
L 134.757632 226.944 
L 136.725181 224.256 
L 136.96 223.937894 
L 138.900647 221.568 
L 140.567273 219.319639 
L 140.936576 218.88 
L 143.131598 216.192 
L 144.174545 214.829007 
L 145.312378 213.504 
L 147.449619 210.816 
L 147.781818 210.396095 
L 149.774513 208.128 
L 151.389091 206.114815 
L 151.997442 205.44 
L 154.319491 202.752 
L 154.996364 201.938443 
L 156.727348 200.064 
L 158.603636 197.852462 
L 159.055407 197.376 
L 161.526049 194.688 
L 162.210909 193.912165 
L 164.071376 192 
L 165.818182 190.069282 
L 166.575505 189.312 
L 169.13511 186.624 
L 169.425455 186.316386 
L 171.873864 183.936 
L 173.032727 182.743459 
L 174.616197 181.248 
L 176.64 179.230928 
L 177.371959 178.56 
L 180.178701 175.872 
L 180.247273 175.806731 
L 183.202593 173.184 
L 183.854545 172.585313 
L 186.286049 170.496 
L 187.461818 169.45694 
L 189.446389 167.808 
L 191.069091 166.431285 
L 192.703609 165.12 
L 194.676364 163.516951 
L 196.079356 162.432 
L 198.283636 160.720382 
L 199.595915 159.744 
L 201.890909 158.045007 
L 203.27535 157.056 
L 205.498182 155.490744 
L 207.138919 154.368 
L 209.105455 153.053889 
L 211.206946 151.68 
L 212.712727 150.727427 
L 215.49927 148.992 
L 216.32 148.501703 
L 219.927273 146.380672 
L 220.063553 146.304 
L 223.534545 144.472349 
L 225.149413 143.616 
L 227.141818 142.632544 
L 230.567684 140.928 
L 230.749091 140.844519 
L 234.356364 139.298981 
L 236.798262 138.24 
L 237.963636 137.7822 
L 241.570909 136.434758 
L 243.970161 135.552 
L 245.178182 135.156926 
L 248.785455 134.060702 
L 252.392727 132.986636 
L 252.852123 132.864 
L 256 132.13982 
L 259.607273 131.378466 
L 263.214545 130.693909 
L 266.394933 130.176 
L 266.821818 130.11736 
L 270.429091 129.732498 
L 274.036364 129.44827 
L 277.643636 129.271846 
L 281.250909 129.207789 
L 284.858182 129.257661 
L 288.465455 129.419985 
L 292.072727 129.690569 
L 295.68 130.063166 
L 296.534007 130.176 
L 299.287273 130.606779 
L 302.894545 131.269665 
L 306.501818 132.012765 
L 310.109091 132.82487 
L 310.263388 132.864 
L 313.716364 133.858718 
L 317.323636 134.936727 
L 319.268486 135.552 
L 320.930909 136.139992 
L 324.538182 137.465089 
L 326.586419 138.24 
L 328.145455 138.888135 
L 331.752727 140.419821 
L 332.911781 140.928 
L 335.36 142.087698 
L 338.592951 143.616 
L 338.967273 143.806173 
L 342.574545 145.690758 
L 343.735431 146.304 
L 346.181818 147.672916 
L 348.532428 148.992 
L 349.789091 149.735081 
L 353.065916 151.68 
L 353.396364 151.885573 
L 357.003636 154.157932 
L 357.334122 154.368 
L 360.610909 156.539518 
L 361.389503 157.056 
L 364.218182 159.007731 
L 365.286383 159.744 
L 367.825455 161.561876 
L 369.045974 162.432 
L 371.432727 164.19935 
L 372.687464 165.12 
L 375.04 166.915702 
L 376.228119 167.808 
L 378.647273 169.704782 
L 379.683173 170.496 
L 382.254545 172.558829 
L 383.065599 173.184 
L 385.861818 175.468388 
L 386.385781 175.872 
L 389.469091 178.421744 
L 389.651069 178.56 
L 392.90264 181.248 
L 393.076364 181.400089 
L 396.195038 183.936 
L 396.683636 184.366252 
L 399.544735 186.624 
L 400.290909 187.27771 
L 403.020594 189.312 
L 403.898182 190.063139 
L 406.784837 192 
L 407.505455 192.582324 
L 411.112727 194.439727 
L 413.870575 192 
L 413.555201 189.312 
L 412.864587 186.624 
L 412.034122 183.936 
L 411.112727 181.309984 
L 411.087983 181.248 
L 409.851934 178.56 
L 408.670783 175.872 
L 407.505455 173.31398 
L 407.443168 173.184 
L 406.065891 170.496 
L 404.713688 167.808 
L 403.898182 166.285594 
L 403.275957 165.12 
L 401.814446 162.432 
L 400.30317 159.744 
L 400.290909 159.723626 
L 398.753491 157.056 
L 397.164422 154.368 
L 396.683636 153.603255 
L 395.532826 151.68 
L 393.87026 148.992 
L 393.076364 147.784962 
L 392.154573 146.304 
L 390.418096 143.616 
L 389.469091 142.238183 
L 388.619332 140.928 
L 386.802206 138.24 
L 385.861818 136.937042 
L 384.924236 135.552 
L 383.011671 132.864 
L 382.254545 131.863198 
L 381.060626 130.176 
L 379.027583 127.488 
L 378.647273 127.008464 
L 377.01106 124.8 
L 375.04 122.359665 
L 374.850955 122.112 
L 372.745178 119.424 
L 371.432727 117.879682 
L 370.514014 116.736 
L 368.213555 114.048 
L 367.825455 113.613759 
L 365.917257 111.36 
L 364.218182 109.510874 
L 363.480255 108.672 
L 360.977833 105.984 
L 360.610909 105.605207 
L 358.458524 103.296 
L 357.003636 101.843189 
L 355.800658 100.608 
L 353.396364 98.292132 
L 353.016734 97.92 
L 350.16696 95.232 
L 349.789091 94.888305 
L 347.230491 92.544 
L 346.181818 91.628947 
L 344.140616 89.856 
L 342.574545 88.548965 
L 340.891604 87.168 
L 338.967273 85.636708 
L 337.469408 84.48 
L 335.36 82.884855 
L 333.849829 81.792 
L 331.752727 80.290272 
L 329.995126 79.104 
L 328.145455 77.854442 
L 325.848288 76.416 
L 324.538182 75.584481 
L 321.323645 73.728 
L 320.930909 73.494872 
L 317.323636 71.51266 
L 316.363542 71.04 
L 313.716364 69.674558 
L 310.736389 68.352 
L 310.109091 68.05504 
L 306.501818 66.518867 
L 304.115885 65.664 
L 302.894545 65.18558 
L 299.287273 63.961375 
L 295.680366 62.976 
L 295.68 62.975887 
L 292.072727 62.015792 
L 288.465455 61.267337 
L 284.858182 60.699361 
L 281.250909 60.290449 
L 281.218378 60.288 
L 277.643636 59.96489 
L 274.036364 59.806298 
L 270.429091 59.80906 
L 266.821818 59.973343 
L 263.404442 60.288 
L 263.214545 60.30236 
L 259.607273 60.713288 
L 256 61.281906 
L 252.392727 62.031397 
L 248.857529 62.976 
L 248.785455 62.992618 
L 245.178182 63.96758 
L 241.570909 65.187458 
L 240.359806 65.664 
L 237.963636 66.505235 
L 234.356364 68.02857 
L 233.674691 68.352 
L 230.749091 69.621354 
L 227.985654 71.04 
L 227.141818 71.442811 
L 223.534545 73.38289 
L 222.951134 73.728 
L 219.927273 75.42864 
L 218.358761 76.416 
L 216.32 77.653802 
L 214.146447 79.104 
L 212.712727 80.039165 
L 210.225068 81.792 
L 209.105455 82.573239 
L 206.534448 84.48 
L 205.498182 85.250632 
L 203.03429 87.168 
L 201.890909 88.071202 
L 199.698671 89.856 
L 198.283636 91.039883 
L 196.512823 92.544 
L 194.676364 94.167139 
L 193.471513 95.232 
L 191.069091 97.470131 
L 190.578647 97.92 
L 187.763738 100.608 
L 187.461818 100.904306 
L 184.962679 103.296 
L 183.854545 104.437352 
L 182.290603 105.984 
L 180.247273 108.189659 
L 179.77416 108.672 
L 177.252415 111.36 
L 176.64 112.05169 
L 174.755151 114.048 
L 173.032727 116.080901 
L 172.430198 116.736 
L 170.097154 119.424 
L 169.425455 120.250471 
L 167.773087 122.112 
L 165.818182 124.620412 
L 165.662233 124.8 
L 163.386705 127.488 
L 162.210909 129.056132 
L 161.269749 130.176 
L 159.206976 132.864 
L 158.603636 133.699141 
L 157.095209 135.552 
L 155.1906 138.24 
L 154.996364 138.518677 
L 153.094437 140.928 
L 151.389091 143.472408 
L 151.277242 143.616 
L 149.237053 146.304 
L 147.781818 148.550552 
L 147.447254 148.992 
L 145.502163 151.68 
L 144.174545 153.798707 
L 143.75422 154.368 
L 141.875573 157.056 
L 140.567273 159.212663 
L 140.184566 159.744 
L 138.348012 162.432 
L 136.96 164.793923 
L 136.730544 165.12 
L 134.914048 167.808 
L 133.37894 170.496 
L 133.352727 170.541675 
L 131.571518 173.184 
L 130.041187 175.872 
L 129.745455 176.403082 
L 128.321382 178.56 
L 126.781506 181.248 
L 126.138182 182.438325 
L 125.167952 183.936 
L 123.602171 186.624 
L 122.530909 188.66601 
L 122.119519 189.312 
L 120.50814 192 
L 119.115023 194.688 
L 118.923636 195.060132 
L 117.507892 197.376 
L 116.078051 200.064 
L 115.316364 201.588666 
L 114.614676 202.752 
L 113.126302 205.44 
L 111.811521 208.128 
L 111.709091 208.336848 
L 110.272596 210.816 
L 108.913537 213.504 
L 108.101818 215.207372 
L 107.536466 216.192 
L 106.10535 218.88 
L 104.831093 221.568 
L 104.494545 222.286552 
L 103.406435 224.256 
L 102.076231 226.944 
L 100.887273 229.557406 
L 100.846236 229.632 
L 99.422329 232.32 
L 98.162537 235.008 
L 97.28 236.980064 
L 96.90001 237.696 
L 95.561467 240.384 
L 94.351138 243.072 
L 93.672727 244.612534 
L 93.085083 245.76 
L 91.810124 248.448 
L 90.63559 251.136 
L 90.065455 252.451265 
L 89.386904 253.824 
L 88.160722 256.512 
L 87.014136 259.2 
L 86.458182 260.502621 
L 85.796803 261.888 
L 84.609862 264.576 
L 83.48819 267.264 
L 82.850909 268.780215 
L 82.310121 269.952 
L 81.156875 272.64 
L 80.061069 275.328 
L 79.243636 277.302511 
L 78.924892 278.016 
L 77.802687 280.704 
L 76.736853 283.392 
L 75.640905 286.08 
L 75.636364 286.090991 
L 74.548937 288.768 
L 73.519356 291.456 
L 72.469344 294.144 
L 72.029091 295.224955 
L 71.397304 296.832 
L 70.41123 299.52 
L 69.424552 302.208 
L 68.421818 304.705515 
L 68.349115 304.896 
L 67.413339 307.584 
z
M 93.02929 267.264 
L 93.246416 264.576 
L 93.672727 262.416765 
L 93.874331 261.888 
L 94.955986 259.2 
L 95.821223 256.512 
L 96.657597 253.824 
L 97.28 251.989294 
L 97.663895 251.136 
L 98.817572 248.448 
L 99.842046 245.76 
L 100.864012 243.072 
L 100.887273 243.017146 
L 102.126667 240.384 
L 103.260297 237.696 
L 104.388303 235.008 
L 104.494545 234.774695 
L 105.675489 232.32 
L 106.879052 229.632 
L 108.097519 226.944 
L 108.101818 226.935154 
L 109.418244 224.256 
L 110.679248 221.568 
L 111.709091 219.455923 
L 111.998284 218.88 
L 113.330808 216.192 
L 114.656362 213.504 
L 115.316364 212.236278 
L 116.045887 210.816 
L 117.407924 208.128 
L 118.821887 205.44 
L 118.923636 205.255868 
L 120.238401 202.752 
L 121.663104 200.064 
L 122.530909 198.517985 
L 123.145967 197.376 
L 124.59489 194.688 
L 126.131634 192 
L 126.138182 191.988986 
L 127.613927 189.312 
L 129.157858 186.624 
L 129.745455 185.655988 
L 130.719773 183.936 
L 132.281352 181.248 
L 133.352727 179.523537 
L 133.913886 178.56 
L 135.500905 175.872 
L 136.96 173.582739 
L 137.198918 173.184 
L 138.817555 170.496 
L 140.567273 167.825871 
L 140.578298 167.808 
L 142.234238 165.12 
L 144.03723 162.432 
L 144.174545 162.23402 
L 145.755754 159.744 
L 147.613327 157.056 
L 147.781818 156.820206 
L 149.3891 154.368 
L 151.317961 151.68 
L 151.389091 151.583524 
L 153.144203 148.992 
L 154.996364 146.50715 
L 155.13877 146.304 
L 157.035156 143.616 
L 158.603636 141.585331 
L 159.080842 140.928 
L 161.082108 138.24 
L 162.210909 136.831041 
L 163.173916 135.552 
L 165.314069 132.864 
L 165.818182 132.257849 
L 167.44624 130.176 
L 169.425455 127.847352 
L 169.717461 127.488 
L 171.93972 124.8 
L 173.032727 123.565196 
L 174.263388 122.112 
L 176.64 119.497928 
L 176.705215 119.424 
L 179.090277 116.736 
L 180.247273 115.517406 
L 181.603506 114.048 
L 183.854545 111.751082 
L 184.231811 111.36 
L 186.886619 108.672 
L 187.461818 108.111282 
L 189.618683 105.984 
L 191.069091 104.620804 
L 192.47897 103.296 
L 194.676364 101.310216 
L 195.462405 100.608 
L 198.283636 98.163482 
L 198.571007 97.92 
L 201.804347 95.232 
L 201.890909 95.160776 
L 205.174867 92.544 
L 205.498182 92.290183 
L 208.739795 89.856 
L 209.105455 89.582954 
L 212.529921 87.168 
L 212.712727 87.038577 
L 216.32 84.636545 
L 216.573001 84.48 
L 219.927273 82.366054 
L 220.928192 81.792 
L 223.534545 80.254063 
L 225.710266 79.104 
L 227.141818 78.316687 
L 230.749091 76.556303 
L 231.065652 76.416 
L 234.356364 74.876601 
L 237.23363 73.728 
L 237.963636 73.415912 
L 241.570909 72.053052 
L 244.785323 71.04 
L 245.178182 70.904943 
L 248.785455 69.832105 
L 252.392727 68.965774 
L 255.59256 68.352 
L 256 68.264615 
L 259.607273 67.656407 
L 263.214545 67.222708 
L 266.821818 66.95085 
L 270.429091 66.833879 
L 274.036364 66.869277 
L 277.643636 67.058281 
L 281.250909 67.405764 
L 284.858182 67.920639 
L 287.129545 68.352 
L 288.465455 68.585089 
L 292.072727 69.369247 
L 295.68 70.342347 
L 297.85126 71.04 
L 299.287273 71.477604 
L 302.894545 72.745483 
L 305.30063 73.728 
L 306.501818 74.203129 
L 310.109091 75.80134 
L 311.355599 76.416 
L 313.716364 77.56135 
L 316.574514 79.104 
L 317.323636 79.507584 
L 320.930909 81.609457 
L 321.225179 81.792 
L 324.538182 83.862145 
L 325.466009 84.48 
L 328.145455 86.29496 
L 329.372415 87.168 
L 331.752727 88.904974 
L 333.008982 89.856 
L 335.36 91.693709 
L 336.420023 92.544 
L 338.967273 94.665659 
L 339.636217 95.232 
L 342.574545 97.827295 
L 342.678688 97.92 
L 345.5944 100.608 
L 346.181818 101.175693 
L 348.379629 103.296 
L 349.789091 104.726396 
L 351.037359 105.984 
L 353.396364 108.487868 
L 353.572052 108.672 
L 356.02111 111.36 
L 357.003636 112.491698 
L 358.374499 114.048 
L 360.610909 116.716104 
L 360.627897 116.736 
L 362.795454 119.424 
L 364.218182 121.260605 
L 364.887923 122.112 
L 366.878187 124.8 
L 367.825455 126.130285 
L 368.800413 127.488 
L 370.622985 130.176 
L 371.432727 131.423599 
L 372.36503 132.864 
L 373.987972 135.552 
L 375.04 137.353772 
L 375.547848 138.24 
L 376.881637 140.928 
L 378.158931 143.616 
L 378.647273 144.895163 
L 379.14506 146.304 
L 379.606382 148.992 
L 378.965817 151.68 
L 378.647273 151.970257 
L 375.04 151.96175 
L 374.34077 151.68 
L 371.432727 150.660461 
L 367.825455 149.078645 
L 367.666584 148.992 
L 364.218182 147.258267 
L 362.426924 146.304 
L 360.610909 145.404185 
L 357.139133 143.616 
L 357.003636 143.55063 
L 353.396364 141.693523 
L 351.920027 140.928 
L 349.789091 139.879716 
L 346.437246 138.24 
L 346.181818 138.121197 
L 342.574545 136.434269 
L 340.657865 135.552 
L 338.967273 134.812125 
L 335.36 133.272506 
L 334.382484 132.864 
L 331.752727 131.824601 
L 328.145455 130.451438 
L 327.394653 130.176 
L 324.538182 129.192584 
L 320.930909 128.014103 
L 319.231769 127.488 
L 317.323636 126.938055 
L 313.716364 125.977306 
L 310.109091 125.088776 
L 308.814427 124.8 
L 306.501818 124.32851 
L 302.894545 123.684916 
L 299.287273 123.134236 
L 295.68 122.681618 
L 292.072727 122.333544 
L 288.700155 122.112 
L 288.465455 122.098366 
L 284.858182 121.99266 
L 281.250909 121.992854 
L 277.643636 122.099035 
L 277.425753 122.112 
L 274.036364 122.338268 
L 270.429091 122.695077 
L 266.821818 123.161225 
L 263.214545 123.728819 
L 259.607273 124.389408 
L 257.659338 124.8 
L 256 125.185804 
L 252.392727 126.122374 
L 248.785455 127.122721 
L 247.586351 127.488 
L 245.178182 128.283928 
L 241.570909 129.535538 
L 239.829173 130.176 
L 237.963636 130.913056 
L 234.356364 132.390228 
L 233.260028 132.864 
L 230.749091 134.015025 
L 227.435005 135.552 
L 227.141818 135.696014 
L 223.534545 137.558151 
L 222.246837 138.24 
L 219.927273 139.520958 
L 217.425343 140.928 
L 216.32 141.573646 
L 212.891693 143.616 
L 212.712727 143.726176 
L 209.105455 146.031172 
L 208.692239 146.304 
L 205.498182 148.454135 
L 204.722508 148.992 
L 201.890909 150.984173 
L 200.933135 151.68 
L 198.283636 153.623548 
L 197.303241 154.368 
L 194.676364 156.372788 
L 193.813409 157.056 
L 191.069091 159.230747 
L 190.445743 159.744 
L 187.461818 162.194942 
L 187.18425 162.432 
L 184.042775 165.12 
L 183.854545 165.280768 
L 181.035642 167.808 
L 180.247273 168.503716 
L 178.096636 170.496 
L 176.64 171.822416 
L 175.213241 173.184 
L 173.032727 175.230384 
L 172.37792 175.872 
L 169.614029 178.56 
L 169.425455 178.742816 
L 166.978263 181.248 
L 165.818182 182.404807 
L 164.354278 183.936 
L 162.210909 186.132273 
L 161.748802 186.624 
L 159.243024 189.312 
L 158.603636 189.986469 
L 156.784837 192 
L 154.996364 193.935923 
L 154.324188 194.688 
L 151.93828 197.376 
L 151.389091 197.986771 
L 149.598573 200.064 
L 147.781818 202.134877 
L 147.251095 202.752 
L 144.985916 205.44 
L 144.174545 206.388881 
L 142.726391 208.128 
L 140.567273 210.713042 
L 140.480771 210.816 
L 138.307347 213.504 
L 136.96 215.157436 
L 136.114188 216.192 
L 133.984277 218.88 
L 133.352727 219.673722 
L 131.841781 221.568 
L 129.749785 224.256 
L 129.745455 224.26157 
L 127.65222 226.944 
L 126.138182 228.935248 
L 125.574865 229.632 
L 123.53514 232.32 
L 122.530909 233.671224 
L 121.463745 235.008 
L 119.479985 237.696 
L 118.923636 238.461523 
L 117.40133 240.384 
L 115.474967 243.072 
L 115.316364 243.295095 
L 113.370014 245.76 
L 111.709091 248.137841 
L 111.436685 248.448 
L 109.347453 251.136 
L 108.101818 252.956438 
L 107.31795 253.824 
L 105.302645 256.512 
L 104.494545 257.716406 
L 103.089597 259.2 
L 101.188505 261.888 
L 100.887273 262.345189 
L 98.607985 264.576 
L 97.28 266.547861 
L 95.682041 267.264 
L 93.672727 269.544429 
z
" clip-path="url(#p12ba7b79f2)" style="fill: #424086"/>
    <path d="M 93.672727 269.544429 
L 95.682041 267.264 
L 97.28 266.547861 
L 98.607985 264.576 
L 100.887273 262.345189 
L 101.188505 261.888 
L 103.089597 259.2 
L 104.494545 257.716406 
L 105.302645 256.512 
L 107.31795 253.824 
L 108.101818 252.956438 
L 109.347453 251.136 
L 111.436685 248.448 
L 111.709091 248.137841 
L 113.370014 245.76 
L 115.316364 243.295095 
L 115.474967 243.072 
L 117.40133 240.384 
L 118.923636 238.461523 
L 119.479985 237.696 
L 121.463745 235.008 
L 122.530909 233.671224 
L 123.53514 232.32 
L 125.574865 229.632 
L 126.138182 228.935248 
L 127.65222 226.944 
L 129.745455 224.26157 
L 129.749785 224.256 
L 131.841781 221.568 
L 133.352727 219.673722 
L 133.984277 218.88 
L 136.114188 216.192 
L 136.96 215.157436 
L 138.307347 213.504 
L 140.480771 210.816 
L 140.567273 210.713042 
L 142.726391 208.128 
L 144.174545 206.388881 
L 144.985916 205.44 
L 147.251095 202.752 
L 147.781818 202.134877 
L 149.598573 200.064 
L 151.389091 197.986771 
L 151.93828 197.376 
L 154.324188 194.688 
L 154.996364 193.935923 
L 156.784837 192 
L 158.603636 189.986469 
L 159.243024 189.312 
L 161.748802 186.624 
L 162.210909 186.132273 
L 164.354278 183.936 
L 165.818182 182.404807 
L 166.978263 181.248 
L 169.425455 178.742816 
L 169.614029 178.56 
L 172.37792 175.872 
L 173.032727 175.230384 
L 175.213241 173.184 
L 176.64 171.822416 
L 178.096636 170.496 
L 180.247273 168.503716 
L 181.035642 167.808 
L 183.854545 165.280768 
L 184.042775 165.12 
L 187.18425 162.432 
L 187.461818 162.194942 
L 190.445743 159.744 
L 191.069091 159.230747 
L 193.813409 157.056 
L 194.676364 156.372788 
L 197.303241 154.368 
L 198.283636 153.623548 
L 200.933135 151.68 
L 201.890909 150.984173 
L 204.722508 148.992 
L 205.498182 148.454135 
L 208.692239 146.304 
L 209.105455 146.031172 
L 212.712727 143.726176 
L 212.891693 143.616 
L 216.32 141.573646 
L 217.425343 140.928 
L 219.927273 139.520958 
L 222.246837 138.24 
L 223.534545 137.558151 
L 227.141818 135.696014 
L 227.435005 135.552 
L 230.749091 134.015025 
L 233.260028 132.864 
L 234.356364 132.390228 
L 237.963636 130.913056 
L 239.829173 130.176 
L 241.570909 129.535538 
L 245.178182 128.283928 
L 247.586351 127.488 
L 248.785455 127.122721 
L 252.392727 126.122374 
L 256 125.185804 
L 257.659338 124.8 
L 259.607273 124.389408 
L 263.214545 123.728819 
L 266.821818 123.161225 
L 270.429091 122.695077 
L 274.036364 122.338268 
L 277.425753 122.112 
L 277.643636 122.099035 
L 281.250909 121.992854 
L 284.858182 121.99266 
L 288.465455 122.098366 
L 288.700155 122.112 
L 292.072727 122.333544 
L 295.68 122.681618 
L 299.287273 123.134236 
L 302.894545 123.684916 
L 306.501818 124.32851 
L 308.814427 124.8 
L 310.109091 125.088776 
L 313.716364 125.977306 
L 317.323636 126.938055 
L 319.231769 127.488 
L 320.930909 128.014103 
L 324.538182 129.192584 
L 327.394653 130.176 
L 328.145455 130.451438 
L 331.752727 131.824601 
L 334.382484 132.864 
L 335.36 133.272506 
L 338.967273 134.812125 
L 340.657865 135.552 
L 342.574545 136.434269 
L 346.181818 138.121197 
L 346.437246 138.24 
L 349.789091 139.879716 
L 351.920027 140.928 
L 353.396364 141.693523 
L 357.003636 143.55063 
L 357.139133 143.616 
L 360.610909 145.404185 
L 362.426924 146.304 
L 364.218182 147.258267 
L 367.666584 148.992 
L 367.825455 149.078645 
L 371.432727 150.660461 
L 374.34077 151.68 
L 375.04 151.96175 
L 378.647273 151.970257 
L 378.965817 151.68 
L 379.606382 148.992 
L 379.14506 146.304 
L 378.647273 144.895163 
L 378.158931 143.616 
L 376.881637 140.928 
L 375.547848 138.24 
L 375.04 137.353772 
L 373.987972 135.552 
L 372.36503 132.864 
L 371.432727 131.423599 
L 370.622985 130.176 
L 368.800413 127.488 
L 367.825455 126.130285 
L 366.878187 124.8 
L 364.887923 122.112 
L 364.218182 121.260605 
L 362.795454 119.424 
L 360.627897 116.736 
L 360.610909 116.716104 
L 358.374499 114.048 
L 357.003636 112.491698 
L 356.02111 111.36 
L 353.572052 108.672 
L 353.396364 108.487868 
L 351.037359 105.984 
L 349.789091 104.726396 
L 348.379629 103.296 
L 346.181818 101.175693 
L 345.5944 100.608 
L 342.678688 97.92 
L 342.574545 97.827295 
L 339.636217 95.232 
L 338.967273 94.665659 
L 336.420023 92.544 
L 335.36 91.693709 
L 333.008982 89.856 
L 331.752727 88.904974 
L 329.372415 87.168 
L 328.145455 86.29496 
L 325.466009 84.48 
L 324.538182 83.862145 
L 321.225179 81.792 
L 320.930909 81.609457 
L 317.323636 79.507584 
L 316.574514 79.104 
L 313.716364 77.56135 
L 311.355599 76.416 
L 310.109091 75.80134 
L 306.501818 74.203129 
L 305.30063 73.728 
L 302.894545 72.745483 
L 299.287273 71.477604 
L 297.85126 71.04 
L 295.68 70.342347 
L 292.072727 69.369247 
L 288.465455 68.585089 
L 287.129545 68.352 
L 284.858182 67.920639 
L 281.250909 67.405764 
L 277.643636 67.058281 
L 274.036364 66.869277 
L 270.429091 66.833879 
L 266.821818 66.95085 
L 263.214545 67.222708 
L 259.607273 67.656407 
L 256 68.264615 
L 255.59256 68.352 
L 252.392727 68.965774 
L 248.785455 69.832105 
L 245.178182 70.904943 
L 244.785323 71.04 
L 241.570909 72.053052 
L 237.963636 73.415912 
L 237.23363 73.728 
L 234.356364 74.876601 
L 231.065652 76.416 
L 230.749091 76.556303 
L 227.141818 78.316687 
L 225.710266 79.104 
L 223.534545 80.254063 
L 220.928192 81.792 
L 219.927273 82.366054 
L 216.573001 84.48 
L 216.32 84.636545 
L 212.712727 87.038577 
L 212.529921 87.168 
L 209.105455 89.582954 
L 208.739795 89.856 
L 205.498182 92.290183 
L 205.174867 92.544 
L 201.890909 95.160776 
L 201.804347 95.232 
L 198.571007 97.92 
L 198.283636 98.163482 
L 195.462405 100.608 
L 194.676364 101.310216 
L 192.47897 103.296 
L 191.069091 104.620804 
L 189.618683 105.984 
L 187.461818 108.111282 
L 186.886619 108.672 
L 184.231811 111.36 
L 183.854545 111.751082 
L 181.603506 114.048 
L 180.247273 115.517406 
L 179.090277 116.736 
L 176.705215 119.424 
L 176.64 119.497928 
L 174.263388 122.112 
L 173.032727 123.565196 
L 171.93972 124.8 
L 169.717461 127.488 
L 169.425455 127.847352 
L 167.44624 130.176 
L 165.818182 132.257849 
L 165.314069 132.864 
L 163.173916 135.552 
L 162.210909 136.831041 
L 161.082108 138.24 
L 159.080842 140.928 
L 158.603636 141.585331 
L 157.035156 143.616 
L 155.13877 146.304 
L 154.996364 146.50715 
L 153.144203 148.992 
L 151.389091 151.583524 
L 151.317961 151.68 
L 149.3891 154.368 
L 147.781818 156.820206 
L 147.613327 157.056 
L 145.755754 159.744 
L 144.174545 162.23402 
L 144.03723 162.432 
L 142.234238 165.12 
L 140.578298 167.808 
L 140.567273 167.825871 
L 138.817555 170.496 
L 137.198918 173.184 
L 136.96 173.582739 
L 135.500905 175.872 
L 133.913886 178.56 
L 133.352727 179.523537 
L 132.281352 181.248 
L 130.719773 183.936 
L 129.745455 185.655988 
L 129.157858 186.624 
L 127.613927 189.312 
L 126.138182 191.988986 
L 126.131634 192 
L 124.59489 194.688 
L 123.145967 197.376 
L 122.530909 198.517985 
L 121.663104 200.064 
L 120.238401 202.752 
L 118.923636 205.255868 
L 118.821887 205.44 
L 117.407924 208.128 
L 116.045887 210.816 
L 115.316364 212.236278 
L 114.656362 213.504 
L 113.330808 216.192 
L 111.998284 218.88 
L 111.709091 219.455923 
L 110.679248 221.568 
L 109.418244 224.256 
L 108.101818 226.935154 
L 108.097519 226.944 
L 106.879052 229.632 
L 105.675489 232.32 
L 104.494545 234.774695 
L 104.388303 235.008 
L 103.260297 237.696 
L 102.126667 240.384 
L 100.887273 243.017146 
L 100.864012 243.072 
L 99.842046 245.76 
L 98.817572 248.448 
L 97.663895 251.136 
L 97.28 251.989294 
L 96.657597 253.824 
L 95.821223 256.512 
L 94.955986 259.2 
L 93.874331 261.888 
L 93.672727 262.416765 
L 93.246416 264.576 
L 93.02929 267.264 
z
M 117.862705 224.256 
L 118.020958 221.568 
L 118.603252 218.88 
L 118.923636 217.873991 
L 119.699682 216.192 
L 120.814677 213.504 
L 121.828252 210.816 
L 122.530909 209.070011 
L 123.008327 208.128 
L 124.323909 205.44 
L 125.517132 202.752 
L 126.138182 201.425832 
L 126.869493 200.064 
L 128.237204 197.376 
L 129.543326 194.688 
L 129.745455 194.301739 
L 131.035385 192 
L 132.44541 189.312 
L 133.352727 187.624086 
L 133.92727 186.624 
L 135.439171 183.936 
L 136.930706 181.248 
L 136.96 181.19818 
L 138.533464 178.56 
L 140.092659 175.872 
L 140.567273 175.089999 
L 141.736704 173.184 
L 143.362422 170.496 
L 144.174545 169.203081 
L 145.056298 167.808 
L 146.746724 165.12 
L 147.781818 163.531379 
L 148.498632 162.432 
L 150.253037 159.744 
L 151.389091 158.066292 
L 152.069614 157.056 
L 153.890138 154.368 
L 154.996364 152.798379 
L 155.775744 151.68 
L 157.669182 148.992 
L 158.603636 147.719501 
L 159.62567 146.304 
L 161.605332 143.616 
L 162.210909 142.825203 
L 163.632256 140.928 
L 165.720102 138.24 
L 165.818182 138.117248 
L 167.815277 135.552 
L 169.425455 133.577072 
L 170.000252 132.864 
L 172.20507 130.176 
L 173.032727 129.206752 
L 174.478059 127.488 
L 176.64 125.021735 
L 176.833647 124.8 
L 179.206023 122.112 
L 180.247273 120.981176 
L 181.672051 119.424 
L 183.854545 117.128707 
L 184.229204 116.736 
L 186.8362 114.048 
L 187.461818 113.422912 
L 189.533339 111.36 
L 191.069091 109.882342 
L 192.342521 108.672 
L 194.676364 106.516106 
L 195.264289 105.984 
L 198.283636 103.31463 
L 198.30531 103.296 
L 201.459595 100.608 
L 201.890909 100.247823 
L 204.775881 97.92 
L 205.498182 97.345761 
L 208.275524 95.232 
L 209.105455 94.605892 
L 211.988228 92.544 
L 212.712727 92.027108 
L 215.955934 89.856 
L 216.32 89.61124 
L 219.927273 87.347396 
L 220.234778 87.168 
L 223.534545 85.220369 
L 224.91201 84.48 
L 227.141818 83.257452 
L 230.120938 81.792 
L 230.749091 81.473727 
L 234.356364 79.820735 
L 236.124286 79.104 
L 237.963636 78.328629 
L 241.570909 77.001896 
L 243.407675 76.416 
L 245.178182 75.821792 
L 248.785455 74.79404 
L 252.392727 73.947418 
L 253.541921 73.728 
L 256 73.227023 
L 259.607273 72.664817 
L 263.214545 72.268851 
L 266.821818 72.032542 
L 270.429091 71.953068 
L 274.036364 72.030227 
L 277.643636 72.265813 
L 281.250909 72.663491 
L 284.858182 73.229183 
L 287.30694 73.728 
L 288.465455 73.95833 
L 292.072727 74.831744 
L 295.68 75.88583 
L 297.246434 76.416 
L 299.287273 77.105677 
L 302.894545 78.491128 
L 304.321864 79.104 
L 306.501818 80.05294 
L 310.108526 81.792 
L 310.109091 81.792281 
L 313.716364 83.7025 
L 315.08004 84.48 
L 317.323636 85.804439 
L 319.509231 87.168 
L 320.930909 88.095612 
L 323.523391 89.856 
L 324.538182 90.5822 
L 327.205736 92.544 
L 328.145455 93.276235 
L 330.612512 95.232 
L 331.752727 96.192737 
L 333.783556 97.92 
L 335.36 99.346684 
L 336.748967 100.608 
L 338.967273 102.749988 
L 339.533266 103.296 
L 342.134706 105.984 
L 342.574545 106.476922 
L 344.551355 108.672 
L 346.181818 110.596471 
L 346.834525 111.36 
L 348.916226 114.048 
L 349.789091 115.287227 
L 350.818506 116.736 
L 352.50187 119.424 
L 353.396364 121.105991 
L 353.932293 122.112 
L 354.834934 124.8 
L 354.884687 127.488 
L 353.396364 129.068733 
L 349.789091 129.333046 
L 346.181818 128.686205 
L 342.574545 127.793251 
L 341.57429 127.488 
L 338.967273 126.717637 
L 335.36 125.630956 
L 332.598747 124.8 
L 331.752727 124.551794 
L 328.145455 123.479764 
L 324.538182 122.47696 
L 323.190656 122.112 
L 320.930909 121.518179 
L 317.323636 120.637783 
L 313.716364 119.834847 
L 311.708283 119.424 
L 310.109091 119.109035 
L 306.501818 118.478797 
L 302.894545 117.940342 
L 299.287273 117.493292 
L 295.68 117.140198 
L 292.072727 116.885076 
L 288.55417 116.736 
L 288.465455 116.732479 
L 284.858182 116.688577 
L 281.947224 116.736 
L 281.250909 116.747878 
L 277.643636 116.920089 
L 274.036364 117.201753 
L 270.429091 117.590799 
L 266.821818 118.08403 
L 263.214545 118.67781 
L 259.607273 119.368992 
L 259.360955 119.424 
L 256 120.211419 
L 252.392727 121.143483 
L 248.955086 122.112 
L 248.785455 122.162365 
L 245.178182 123.342915 
L 241.570909 124.586519 
L 241.002057 124.8 
L 237.963636 125.985188 
L 234.356364 127.446009 
L 234.260286 127.488 
L 230.749091 129.072942 
L 228.388046 130.176 
L 227.141818 130.778769 
L 223.534545 132.590796 
L 223.01853 132.864 
L 219.927273 134.542669 
L 218.127017 135.552 
L 216.32 136.590533 
L 213.535064 138.24 
L 212.712727 138.738451 
L 209.204876 140.928 
L 209.105455 140.991355 
L 205.498182 143.374125 
L 205.143442 143.616 
L 201.890909 145.866331 
L 201.276422 146.304 
L 198.283636 148.46397 
L 197.572105 148.992 
L 194.676364 151.167132 
L 194.011272 151.68 
L 191.069091 153.975231 
L 190.577499 154.368 
L 187.461818 156.887272 
L 187.257362 157.056 
L 184.052184 159.744 
L 183.854545 159.910869 
L 180.950048 162.432 
L 180.247273 163.044995 
L 177.92335 165.12 
L 176.64 166.274585 
L 174.964116 167.808 
L 173.032727 169.597322 
L 172.070023 170.496 
L 169.425455 173.014628 
L 169.246663 173.184 
L 166.496328 175.872 
L 165.818182 176.541386 
L 163.781799 178.56 
L 162.210909 180.1505 
L 161.112135 181.248 
L 158.603636 183.847759 
L 158.51521 183.936 
L 155.937539 186.624 
L 154.996364 187.631864 
L 153.380446 189.312 
L 151.389091 191.489388 
L 150.891351 192 
L 148.432425 194.688 
L 147.781818 195.421538 
L 145.945195 197.376 
L 144.174545 199.407788 
L 143.537391 200.064 
L 141.156907 202.752 
L 140.567273 203.448616 
L 138.69246 205.44 
L 136.96 207.511795 
L 136.339529 208.128 
L 133.974382 210.816 
L 133.352727 211.580436 
L 131.456553 213.504 
L 129.745455 215.608999 
L 129.080276 216.192 
L 126.645785 218.88 
L 126.138182 219.520743 
L 123.796608 221.568 
L 122.530909 223.112031 
L 120.477746 224.256 
L 118.923636 225.836733 
z
" clip-path="url(#p12ba7b79f2)" style="fill: #33638d"/>
    <path d="M 118.923636 225.836733 
L 120.477746 224.256 
L 122.530909 223.112031 
L 123.796608 221.568 
L 126.138182 219.520743 
L 126.645785 218.88 
L 129.080276 216.192 
L 129.745455 215.608999 
L 131.456553 213.504 
L 133.352727 211.580436 
L 133.974382 210.816 
L 136.339529 208.128 
L 136.96 207.511795 
L 138.69246 205.44 
L 140.567273 203.448616 
L 141.156907 202.752 
L 143.537391 200.064 
L 144.174545 199.407788 
L 145.945195 197.376 
L 147.781818 195.421538 
L 148.432425 194.688 
L 150.891351 192 
L 151.389091 191.489388 
L 153.380446 189.312 
L 154.996364 187.631864 
L 155.937539 186.624 
L 158.51521 183.936 
L 158.603636 183.847759 
L 161.112135 181.248 
L 162.210909 180.1505 
L 163.781799 178.56 
L 165.818182 176.541386 
L 166.496328 175.872 
L 169.246663 173.184 
L 169.425455 173.014628 
L 172.070023 170.496 
L 173.032727 169.597322 
L 174.964116 167.808 
L 176.64 166.274585 
L 177.92335 165.12 
L 180.247273 163.044995 
L 180.950048 162.432 
L 183.854545 159.910869 
L 184.052184 159.744 
L 187.257362 157.056 
L 187.461818 156.887272 
L 190.577499 154.368 
L 191.069091 153.975231 
L 194.011272 151.68 
L 194.676364 151.167132 
L 197.572105 148.992 
L 198.283636 148.46397 
L 201.276422 146.304 
L 201.890909 145.866331 
L 205.143442 143.616 
L 205.498182 143.374125 
L 209.105455 140.991355 
L 209.204876 140.928 
L 212.712727 138.738451 
L 213.535064 138.24 
L 216.32 136.590533 
L 218.127017 135.552 
L 219.927273 134.542669 
L 223.01853 132.864 
L 223.534545 132.590796 
L 227.141818 130.778769 
L 228.388046 130.176 
L 230.749091 129.072942 
L 234.260286 127.488 
L 234.356364 127.446009 
L 237.963636 125.985188 
L 241.002057 124.8 
L 241.570909 124.586519 
L 245.178182 123.342915 
L 248.785455 122.162365 
L 248.955086 122.112 
L 252.392727 121.143483 
L 256 120.211419 
L 259.360955 119.424 
L 259.607273 119.368992 
L 263.214545 118.67781 
L 266.821818 118.08403 
L 270.429091 117.590799 
L 274.036364 117.201753 
L 277.643636 116.920089 
L 281.250909 116.747878 
L 281.947224 116.736 
L 284.858182 116.688577 
L 288.465455 116.732479 
L 288.55417 116.736 
L 292.072727 116.885076 
L 295.68 117.140198 
L 299.287273 117.493292 
L 302.894545 117.940342 
L 306.501818 118.478797 
L 310.109091 119.109035 
L 311.708283 119.424 
L 313.716364 119.834847 
L 317.323636 120.637783 
L 320.930909 121.518179 
L 323.190656 122.112 
L 324.538182 122.47696 
L 328.145455 123.479764 
L 331.752727 124.551794 
L 332.598747 124.8 
L 335.36 125.630956 
L 338.967273 126.717637 
L 341.57429 127.488 
L 342.574545 127.793251 
L 346.181818 128.686205 
L 349.789091 129.333046 
L 353.396364 129.068733 
L 354.884687 127.488 
L 354.834934 124.8 
L 353.932293 122.112 
L 353.396364 121.105991 
L 352.50187 119.424 
L 350.818506 116.736 
L 349.789091 115.287227 
L 348.916226 114.048 
L 346.834525 111.36 
L 346.181818 110.596471 
L 344.551355 108.672 
L 342.574545 106.476922 
L 342.134706 105.984 
L 339.533266 103.296 
L 338.967273 102.749988 
L 336.748967 100.608 
L 335.36 99.346684 
L 333.783556 97.92 
L 331.752727 96.192737 
L 330.612512 95.232 
L 328.145455 93.276235 
L 327.205736 92.544 
L 324.538182 90.5822 
L 323.523391 89.856 
L 320.930909 88.095612 
L 319.509231 87.168 
L 317.323636 85.804439 
L 315.08004 84.48 
L 313.716364 83.7025 
L 310.109091 81.792281 
L 310.108526 81.792 
L 306.501818 80.05294 
L 304.321864 79.104 
L 302.894545 78.491128 
L 299.287273 77.105677 
L 297.246434 76.416 
L 295.68 75.88583 
L 292.072727 74.831744 
L 288.465455 73.95833 
L 287.30694 73.728 
L 284.858182 73.229183 
L 281.250909 72.663491 
L 277.643636 72.265813 
L 274.036364 72.030227 
L 270.429091 71.953068 
L 266.821818 72.032542 
L 263.214545 72.268851 
L 259.607273 72.664817 
L 256 73.227023 
L 253.541921 73.728 
L 252.392727 73.947418 
L 248.785455 74.79404 
L 245.178182 75.821792 
L 243.407675 76.416 
L 241.570909 77.001896 
L 237.963636 78.328629 
L 236.124286 79.104 
L 234.356364 79.820735 
L 230.749091 81.473727 
L 230.120938 81.792 
L 227.141818 83.257452 
L 224.91201 84.48 
L 223.534545 85.220369 
L 220.234778 87.168 
L 219.927273 87.347396 
L 216.32 89.61124 
L 215.955934 89.856 
L 212.712727 92.027108 
L 211.988228 92.544 
L 209.105455 94.605892 
L 208.275524 95.232 
L 205.498182 97.345761 
L 204.775881 97.92 
L 201.890909 100.247823 
L 201.459595 100.608 
L 198.30531 103.296 
L 198.283636 103.31463 
L 195.264289 105.984 
L 194.676364 106.516106 
L 192.342521 108.672 
L 191.069091 109.882342 
L 189.533339 111.36 
L 187.461818 113.422912 
L 186.8362 114.048 
L 184.229204 116.736 
L 183.854545 117.128707 
L 181.672051 119.424 
L 180.247273 120.981176 
L 179.206023 122.112 
L 176.833647 124.8 
L 176.64 125.021735 
L 174.478059 127.488 
L 173.032727 129.206752 
L 172.20507 130.176 
L 170.000252 132.864 
L 169.425455 133.577072 
L 167.815277 135.552 
L 165.818182 138.117248 
L 165.720102 138.24 
L 163.632256 140.928 
L 162.210909 142.825203 
L 161.605332 143.616 
L 159.62567 146.304 
L 158.603636 147.719501 
L 157.669182 148.992 
L 155.775744 151.68 
L 154.996364 152.798379 
L 153.890138 154.368 
L 152.069614 157.056 
L 151.389091 158.066292 
L 150.253037 159.744 
L 148.498632 162.432 
L 147.781818 163.531379 
L 146.746724 165.12 
L 145.056298 167.808 
L 144.174545 169.203081 
L 143.362422 170.496 
L 141.736704 173.184 
L 140.567273 175.089999 
L 140.092659 175.872 
L 138.533464 178.56 
L 136.96 181.19818 
L 136.930706 181.248 
L 135.439171 183.936 
L 133.92727 186.624 
L 133.352727 187.624086 
L 132.44541 189.312 
L 131.035385 192 
L 129.745455 194.301739 
L 129.543326 194.688 
L 128.237204 197.376 
L 126.869493 200.064 
L 126.138182 201.425832 
L 125.517132 202.752 
L 124.323909 205.44 
L 123.008327 208.128 
L 122.530909 209.070011 
L 121.828252 210.816 
L 120.814677 213.504 
L 119.699682 216.192 
L 118.923636 217.873991 
L 118.603252 218.88 
L 118.020958 221.568 
L 117.862705 224.256 
z
M 139.058681 192 
L 139.302487 189.312 
L 140.036304 186.624 
L 140.567273 185.196365 
L 141.205324 183.936 
L 142.534644 181.248 
L 143.733855 178.56 
L 144.174545 177.672781 
L 145.229783 175.872 
L 146.67657 173.184 
L 147.781818 171.088978 
L 148.142664 170.496 
L 149.781069 167.808 
L 151.301526 165.12 
L 151.389091 164.97691 
L 153.056443 162.432 
L 154.696118 159.744 
L 154.996364 159.277969 
L 156.506986 157.056 
L 158.250194 154.368 
L 158.603636 153.847256 
L 160.134878 151.68 
L 161.973611 148.992 
L 162.210909 148.660161 
L 163.943267 146.304 
L 165.818182 143.703934 
L 165.884428 143.616 
L 167.939541 140.928 
L 169.425455 138.984885 
L 170.012639 138.24 
L 172.138852 135.552 
L 173.032727 134.447701 
L 174.34003 132.864 
L 176.568269 130.176 
L 176.64 130.092136 
L 178.893149 127.488 
L 180.247273 125.948895 
L 181.278506 124.8 
L 183.718991 122.112 
L 183.854545 121.966522 
L 186.257732 119.424 
L 187.461818 118.176512 
L 188.881857 116.736 
L 191.069091 114.55586 
L 191.592395 114.048 
L 194.402209 111.36 
L 194.676364 111.102967 
L 197.336418 108.672 
L 198.283636 107.822932 
L 200.400859 105.984 
L 201.890909 104.711433 
L 203.611121 103.296 
L 205.498182 101.765946 
L 206.989072 100.608 
L 209.105455 98.984774 
L 210.563689 97.92 
L 212.712727 96.366605 
L 214.37291 95.232 
L 216.32 93.910644 
L 218.46701 92.544 
L 219.927273 91.617311 
L 222.914245 89.856 
L 223.534545 89.489444 
L 227.141818 87.522588 
L 227.848045 87.168 
L 230.749091 85.706986 
L 233.444854 84.48 
L 234.356364 84.060233 
L 237.963636 82.571926 
L 240.092898 81.792 
L 241.570909 81.241816 
L 245.178182 80.074327 
L 248.677227 79.104 
L 248.785455 79.073242 
L 252.392727 78.218731 
L 256 77.53557 
L 259.607273 77.015945 
L 263.214545 76.657431 
L 266.821818 76.460835 
L 270.429091 76.428446 
L 274.036364 76.562713 
L 277.643636 76.865452 
L 281.250909 77.337657 
L 284.858182 77.979997 
L 288.465455 78.793959 
L 289.614612 79.104 
L 292.072727 79.797 
L 295.68 80.972758 
L 297.897297 81.792 
L 299.287273 82.339351 
L 302.894545 83.894406 
L 304.144965 84.48 
L 306.501818 85.667075 
L 309.316672 87.168 
L 310.109091 87.630998 
L 313.716364 89.810257 
L 313.789137 89.856 
L 317.323636 92.274348 
L 317.710235 92.544 
L 320.930909 95.012082 
L 321.216145 95.232 
L 324.353909 97.92 
L 324.538182 98.103278 
L 327.117749 100.608 
L 328.145455 101.761658 
L 329.553643 103.296 
L 331.674619 105.984 
L 331.752727 106.131127 
L 333.179251 108.672 
L 333.973292 111.36 
L 332.769021 114.048 
L 331.752727 114.526846 
L 328.145455 115.006212 
L 324.538182 114.900621 
L 320.930909 114.580088 
L 317.323636 114.175704 
L 316.316956 114.048 
L 313.716364 113.709266 
L 310.109091 113.261396 
L 306.501818 112.864687 
L 302.894545 112.527072 
L 299.287273 112.255514 
L 295.68 112.056524 
L 292.072727 111.936197 
L 288.465455 111.900042 
L 284.858182 111.952785 
L 281.250909 112.098219 
L 277.643636 112.339178 
L 274.036364 112.677668 
L 270.429091 113.115217 
L 266.821818 113.653474 
L 264.613975 114.048 
L 263.214545 114.297954 
L 259.607273 115.047422 
L 256 115.895133 
L 252.811978 116.736 
L 252.392727 116.847838 
L 248.785455 117.916339 
L 245.178182 119.077703 
L 244.197343 119.424 
L 241.570909 120.359553 
L 237.963636 121.734452 
L 237.046414 122.112 
L 234.356364 123.230157 
L 230.785911 124.8 
L 230.749091 124.81647 
L 227.141818 126.525974 
L 225.214482 127.488 
L 223.534545 128.337372 
L 220.057193 130.176 
L 219.927273 130.245795 
L 216.32 132.269704 
L 215.304958 132.864 
L 212.712727 134.399518 
L 210.838657 135.552 
L 209.105455 136.631998 
L 206.610152 138.24 
L 205.498182 138.966724 
L 202.586622 140.928 
L 201.890909 141.403565 
L 198.740777 143.616 
L 198.283636 143.942 
L 195.04921 146.304 
L 194.676364 146.580718 
L 191.491443 148.992 
L 191.069091 149.317485 
L 188.049492 151.68 
L 187.461818 152.149231 
L 184.707841 154.368 
L 183.854545 155.072366 
L 181.453752 157.056 
L 180.247273 158.083301 
L 178.277948 159.744 
L 176.64 161.179188 
L 175.175798 162.432 
L 173.032727 164.358946 
L 172.14946 165.12 
L 169.425455 167.624741 
L 169.212081 167.808 
L 166.280636 170.496 
L 165.818182 170.940599 
L 163.347742 173.184 
L 162.210909 174.297993 
L 160.451725 175.872 
L 158.603636 177.707192 
L 157.615867 178.56 
L 154.996364 181.170703 
L 154.9001 181.248 
L 151.974472 183.936 
L 151.389091 184.546432 
L 148.954878 186.624 
L 147.781818 187.8367 
L 145.804361 189.312 
L 144.174545 190.923472 
L 142.164634 192 
L 140.567273 193.340415 
z
" clip-path="url(#p12ba7b79f2)" style="fill: #26828e"/>
    <path d="M 140.567273 193.340415 
L 142.164634 192 
L 144.174545 190.923472 
L 145.804361 189.312 
L 147.781818 187.8367 
L 148.954878 186.624 
L 151.389091 184.546432 
L 151.974472 183.936 
L 154.9001 181.248 
L 154.996364 181.170703 
L 157.615867 178.56 
L 158.603636 177.707192 
L 160.451725 175.872 
L 162.210909 174.297993 
L 163.347742 173.184 
L 165.818182 170.940599 
L 166.280636 170.496 
L 169.212081 167.808 
L 169.425455 167.624741 
L 172.14946 165.12 
L 173.032727 164.358946 
L 175.175798 162.432 
L 176.64 161.179188 
L 178.277948 159.744 
L 180.247273 158.083301 
L 181.453752 157.056 
L 183.854545 155.072366 
L 184.707841 154.368 
L 187.461818 152.149231 
L 188.049492 151.68 
L 191.069091 149.317485 
L 191.491443 148.992 
L 194.676364 146.580718 
L 195.04921 146.304 
L 198.283636 143.942 
L 198.740777 143.616 
L 201.890909 141.403565 
L 202.586622 140.928 
L 205.498182 138.966724 
L 206.610152 138.24 
L 209.105455 136.631998 
L 210.838657 135.552 
L 212.712727 134.399518 
L 215.304958 132.864 
L 216.32 132.269704 
L 219.927273 130.245795 
L 220.057193 130.176 
L 223.534545 128.337372 
L 225.214482 127.488 
L 227.141818 126.525974 
L 230.749091 124.81647 
L 230.785911 124.8 
L 234.356364 123.230157 
L 237.046414 122.112 
L 237.963636 121.734452 
L 241.570909 120.359553 
L 244.197343 119.424 
L 245.178182 119.077703 
L 248.785455 117.916339 
L 252.392727 116.847838 
L 252.811978 116.736 
L 256 115.895133 
L 259.607273 115.047422 
L 263.214545 114.297954 
L 264.613975 114.048 
L 266.821818 113.653474 
L 270.429091 113.115217 
L 274.036364 112.677668 
L 277.643636 112.339178 
L 281.250909 112.098219 
L 284.858182 111.952785 
L 288.465455 111.900042 
L 292.072727 111.936197 
L 295.68 112.056524 
L 299.287273 112.255514 
L 302.894545 112.527072 
L 306.501818 112.864687 
L 310.109091 113.261396 
L 313.716364 113.709266 
L 316.316956 114.048 
L 317.323636 114.175704 
L 320.930909 114.580088 
L 324.538182 114.900621 
L 328.145455 115.006212 
L 331.752727 114.526846 
L 332.769021 114.048 
L 333.973292 111.36 
L 333.179251 108.672 
L 331.752727 106.131127 
L 331.674619 105.984 
L 329.553643 103.296 
L 328.145455 101.761658 
L 327.117749 100.608 
L 324.538182 98.103278 
L 324.353909 97.92 
L 321.216145 95.232 
L 320.930909 95.012082 
L 317.710235 92.544 
L 317.323636 92.274348 
L 313.789137 89.856 
L 313.716364 89.810257 
L 310.109091 87.630998 
L 309.316672 87.168 
L 306.501818 85.667075 
L 304.144965 84.48 
L 302.894545 83.894406 
L 299.287273 82.339351 
L 297.897297 81.792 
L 295.68 80.972758 
L 292.072727 79.797 
L 289.614612 79.104 
L 288.465455 78.793959 
L 284.858182 77.979997 
L 281.250909 77.337657 
L 277.643636 76.865452 
L 274.036364 76.562713 
L 270.429091 76.428446 
L 266.821818 76.460835 
L 263.214545 76.657431 
L 259.607273 77.015945 
L 256 77.53557 
L 252.392727 78.218731 
L 248.785455 79.073242 
L 248.677227 79.104 
L 245.178182 80.074327 
L 241.570909 81.241816 
L 240.092898 81.792 
L 237.963636 82.571926 
L 234.356364 84.060233 
L 233.444854 84.48 
L 230.749091 85.706986 
L 227.848045 87.168 
L 227.141818 87.522588 
L 223.534545 89.489444 
L 222.914245 89.856 
L 219.927273 91.617311 
L 218.46701 92.544 
L 216.32 93.910644 
L 214.37291 95.232 
L 212.712727 96.366605 
L 210.563689 97.92 
L 209.105455 98.984774 
L 206.989072 100.608 
L 205.498182 101.765946 
L 203.611121 103.296 
L 201.890909 104.711433 
L 200.400859 105.984 
L 198.283636 107.822932 
L 197.336418 108.672 
L 194.676364 111.102967 
L 194.402209 111.36 
L 191.592395 114.048 
L 191.069091 114.55586 
L 188.881857 116.736 
L 187.461818 118.176512 
L 186.257732 119.424 
L 183.854545 121.966522 
L 183.718991 122.112 
L 181.278506 124.8 
L 180.247273 125.948895 
L 178.893149 127.488 
L 176.64 130.092136 
L 176.568269 130.176 
L 174.34003 132.864 
L 173.032727 134.447701 
L 172.138852 135.552 
L 170.012639 138.24 
L 169.425455 138.984885 
L 167.939541 140.928 
L 165.884428 143.616 
L 165.818182 143.703934 
L 163.943267 146.304 
L 162.210909 148.660161 
L 161.973611 148.992 
L 160.134878 151.68 
L 158.603636 153.847256 
L 158.250194 154.368 
L 156.506986 157.056 
L 154.996364 159.277969 
L 154.696118 159.744 
L 153.056443 162.432 
L 151.389091 164.97691 
L 151.301526 165.12 
L 149.781069 167.808 
L 148.142664 170.496 
L 147.781818 171.088978 
L 146.67657 173.184 
L 145.229783 175.872 
L 144.174545 177.672781 
L 143.733855 178.56 
L 142.534644 181.248 
L 141.205324 183.936 
L 140.567273 185.196365 
L 140.036304 186.624 
L 139.302487 189.312 
L 139.058681 192 
z
M 158.565137 165.12 
L 158.603636 164.995167 
L 159.738351 162.432 
L 160.887358 159.744 
L 162.058444 157.056 
L 162.210909 156.779597 
L 163.772865 154.368 
L 165.294022 151.68 
L 165.818182 150.827227 
L 167.093696 148.992 
L 168.827671 146.304 
L 169.425455 145.419447 
L 170.7624 143.616 
L 172.637676 140.928 
L 173.032727 140.390717 
L 174.726281 138.24 
L 176.64 135.667759 
L 176.733029 135.552 
L 178.962597 132.864 
L 180.247273 131.281221 
L 181.196228 130.176 
L 183.476409 127.488 
L 183.854545 127.05668 
L 185.916759 124.8 
L 187.461818 123.096322 
L 188.395446 122.112 
L 190.938312 119.424 
L 191.069091 119.2902 
L 193.656152 116.736 
L 194.676364 115.736032 
L 196.46571 114.048 
L 198.283636 112.348216 
L 199.383746 111.36 
L 201.890909 109.133571 
L 202.432676 108.672 
L 205.498182 106.098018 
L 205.639908 105.984 
L 209.043506 103.296 
L 209.105455 103.247888 
L 212.667842 100.608 
L 212.712727 100.575224 
L 216.32 98.079752 
L 216.563089 97.92 
L 219.927273 95.75808 
L 220.793359 95.232 
L 223.534545 93.601824 
L 225.430748 92.544 
L 227.141818 91.606558 
L 230.582565 89.856 
L 230.749091 89.772364 
L 234.356364 88.129928 
L 236.66092 87.168 
L 237.963636 86.633485 
L 241.570909 85.319321 
L 244.159056 84.48 
L 245.178182 84.155385 
L 248.785455 83.179983 
L 252.392727 82.360057 
L 255.48746 81.792 
L 256 81.700153 
L 259.607273 81.231337 
L 263.214545 80.932054 
L 266.821818 80.804723 
L 270.429091 80.852291 
L 274.036364 81.076692 
L 277.643636 81.477962 
L 279.62448 81.792 
L 281.250909 82.081701 
L 284.858182 82.901556 
L 288.465455 83.889952 
L 290.328211 84.48 
L 292.072727 85.118551 
L 295.68 86.568778 
L 297.056623 87.168 
L 299.287273 88.314095 
L 302.198284 89.856 
L 302.894545 90.311256 
L 306.3285 92.544 
L 306.501818 92.69088 
L 309.613393 95.232 
L 310.109091 95.800025 
L 312.082841 97.92 
L 313.653875 100.608 
L 313.407246 103.296 
L 310.109091 105.058471 
L 306.501818 105.841621 
L 305.259546 105.984 
L 302.894545 106.152692 
L 299.287273 106.324701 
L 295.68 106.46569 
L 292.072727 106.614895 
L 288.465455 106.797708 
L 284.858182 107.031805 
L 281.250909 107.330348 
L 277.643636 107.703902 
L 274.036364 108.161841 
L 270.704094 108.672 
L 270.429091 108.710587 
L 266.821818 109.314683 
L 263.214545 110.016085 
L 259.607273 110.823383 
L 257.509336 111.36 
L 256 111.727411 
L 252.392727 112.70971 
L 248.785455 113.810051 
L 248.081089 114.048 
L 245.178182 114.993715 
L 241.570909 116.284205 
L 240.416221 116.736 
L 237.963636 117.67165 
L 234.356364 119.165183 
L 233.775475 119.424 
L 230.749091 120.74626 
L 227.853528 122.112 
L 227.141818 122.444857 
L 223.534545 124.225074 
L 222.438906 124.8 
L 219.927273 126.108545 
L 217.428471 127.488 
L 216.32 128.099682 
L 212.738753 130.176 
L 212.712727 130.19116 
L 209.105455 132.352942 
L 208.284682 132.864 
L 205.498182 134.615133 
L 204.051473 135.552 
L 201.890909 136.972013 
L 200.002526 138.24 
L 198.283636 139.417935 
L 196.107179 140.928 
L 194.676364 141.947299 
L 192.339389 143.616 
L 191.069091 144.553866 
L 188.676174 146.304 
L 187.461818 147.230173 
L 185.096349 148.992 
L 183.854545 149.966848 
L 181.57918 151.68 
L 180.247273 152.751555 
L 178.102349 154.368 
L 176.64 155.566958 
L 174.637847 157.056 
L 173.032727 158.386405 
L 171.141831 159.744 
L 169.425455 161.163846 
L 167.523846 162.432 
L 165.818182 163.807422 
L 163.521158 165.12 
L 162.210909 166.096641 
L 158.603636 165.486988 
z
" clip-path="url(#p12ba7b79f2)" style="fill: #1fa088"/>
    <path d="M 158.603636 165.486988 
L 162.210909 166.096641 
L 163.521158 165.12 
L 165.818182 163.807422 
L 167.523846 162.432 
L 169.425455 161.163846 
L 171.141831 159.744 
L 173.032727 158.386405 
L 174.637847 157.056 
L 176.64 155.566958 
L 178.102349 154.368 
L 180.247273 152.751555 
L 181.57918 151.68 
L 183.854545 149.966848 
L 185.096349 148.992 
L 187.461818 147.230173 
L 188.676174 146.304 
L 191.069091 144.553866 
L 192.339389 143.616 
L 194.676364 141.947299 
L 196.107179 140.928 
L 198.283636 139.417935 
L 200.002526 138.24 
L 201.890909 136.972013 
L 204.051473 135.552 
L 205.498182 134.615133 
L 208.284682 132.864 
L 209.105455 132.352942 
L 212.712727 130.19116 
L 212.738753 130.176 
L 216.32 128.099682 
L 217.428471 127.488 
L 219.927273 126.108545 
L 222.438906 124.8 
L 223.534545 124.225074 
L 227.141818 122.444857 
L 227.853528 122.112 
L 230.749091 120.74626 
L 233.775475 119.424 
L 234.356364 119.165183 
L 237.963636 117.67165 
L 240.416221 116.736 
L 241.570909 116.284205 
L 245.178182 114.993715 
L 248.081089 114.048 
L 248.785455 113.810051 
L 252.392727 112.70971 
L 256 111.727411 
L 257.509336 111.36 
L 259.607273 110.823383 
L 263.214545 110.016085 
L 266.821818 109.314683 
L 270.429091 108.710587 
L 270.704094 108.672 
L 274.036364 108.161841 
L 277.643636 107.703902 
L 281.250909 107.330348 
L 284.858182 107.031805 
L 288.465455 106.797708 
L 292.072727 106.614895 
L 295.68 106.46569 
L 299.287273 106.324701 
L 302.894545 106.152692 
L 305.259546 105.984 
L 306.501818 105.841621 
L 310.109091 105.058471 
L 313.407246 103.296 
L 313.653875 100.608 
L 312.082841 97.92 
L 310.109091 95.800025 
L 309.613393 95.232 
L 306.501818 92.69088 
L 306.3285 92.544 
L 302.894545 90.311256 
L 302.198284 89.856 
L 299.287273 88.314095 
L 297.056623 87.168 
L 295.68 86.568778 
L 292.072727 85.118551 
L 290.328211 84.48 
L 288.465455 83.889952 
L 284.858182 82.901556 
L 281.250909 82.081701 
L 279.62448 81.792 
L 277.643636 81.477962 
L 274.036364 81.076692 
L 270.429091 80.852291 
L 266.821818 80.804723 
L 263.214545 80.932054 
L 259.607273 81.231337 
L 256 81.700153 
L 255.48746 81.792 
L 252.392727 82.360057 
L 248.785455 83.179983 
L 245.178182 84.155385 
L 244.159056 84.48 
L 241.570909 85.319321 
L 237.963636 86.633485 
L 236.66092 87.168 
L 234.356364 88.129928 
L 230.749091 89.772364 
L 230.582565 89.856 
L 227.141818 91.606558 
L 225.430748 92.544 
L 223.534545 93.601824 
L 220.793359 95.232 
L 219.927273 95.75808 
L 216.563089 97.92 
L 216.32 98.079752 
L 212.712727 100.575224 
L 212.667842 100.608 
L 209.105455 103.247888 
L 209.043506 103.296 
L 205.639908 105.984 
L 205.498182 106.098018 
L 202.432676 108.672 
L 201.890909 109.133571 
L 199.383746 111.36 
L 198.283636 112.348216 
L 196.46571 114.048 
L 194.676364 115.736032 
L 193.656152 116.736 
L 191.069091 119.2902 
L 190.938312 119.424 
L 188.395446 122.112 
L 187.461818 123.096322 
L 185.916759 124.8 
L 183.854545 127.05668 
L 183.476409 127.488 
L 181.196228 130.176 
L 180.247273 131.281221 
L 178.962597 132.864 
L 176.733029 135.552 
L 176.64 135.667759 
L 174.726281 138.24 
L 173.032727 140.390717 
L 172.637676 140.928 
L 170.7624 143.616 
L 169.425455 145.419447 
L 168.827671 146.304 
L 167.093696 148.992 
L 165.818182 150.827227 
L 165.294022 151.68 
L 163.772865 154.368 
L 162.210909 156.779597 
L 162.058444 157.056 
L 160.887358 159.744 
L 159.738351 162.432 
L 158.603636 164.995167 
L 158.565137 165.12 
z
M 180.557687 140.928 
L 181.925409 138.24 
L 183.316609 135.552 
L 183.854545 134.729091 
L 185.240353 132.864 
L 187.111225 130.176 
L 187.461818 129.729181 
L 189.3781 127.488 
L 191.069091 125.393332 
L 191.589389 124.8 
L 194.0221 122.112 
L 194.676364 121.407977 
L 196.631126 119.424 
L 198.283636 117.730865 
L 199.308851 116.736 
L 201.890909 114.2351 
L 202.093816 114.048 
L 205.122904 111.36 
L 205.498182 111.035261 
L 208.349157 108.672 
L 209.105455 108.05829 
L 211.770621 105.984 
L 212.712727 105.270653 
L 215.430886 103.296 
L 216.32 102.670732 
L 219.380598 100.608 
L 219.927273 100.252497 
L 223.534545 98.022495 
L 223.709653 97.92 
L 227.141818 96.02665 
L 228.642709 95.232 
L 230.749091 94.178403 
L 234.187785 92.544 
L 234.356364 92.467888 
L 237.963636 91.023916 
L 241.063683 89.856 
L 241.570909 89.676869 
L 245.178182 88.588718 
L 248.785455 87.624719 
L 250.833195 87.168 
L 252.392727 86.851612 
L 256 86.304194 
L 259.607273 85.932087 
L 263.214545 85.749405 
L 266.821818 85.769964 
L 270.429091 86.00307 
L 274.036364 86.449857 
L 277.643636 87.101334 
L 277.93329 87.168 
L 281.250909 88.205024 
L 284.858182 89.516476 
L 285.69685 89.856 
L 288.465455 91.573094 
L 290.010012 92.544 
L 292.034646 95.232 
L 290.988473 97.92 
L 288.465455 99.106591 
L 284.858182 100.440974 
L 284.366749 100.608 
L 281.250909 101.257534 
L 277.643636 102.008869 
L 274.036364 102.799116 
L 271.973754 103.296 
L 270.429091 103.587258 
L 266.821818 104.348948 
L 263.214545 105.213047 
L 260.406173 105.984 
L 259.607273 106.172312 
L 256 107.120999 
L 252.392727 108.20835 
L 251.025529 108.672 
L 248.785455 109.351412 
L 245.178182 110.573954 
L 243.119418 111.36 
L 241.570909 111.903924 
L 237.963636 113.292912 
L 236.199791 114.048 
L 234.356364 114.786926 
L 230.749091 116.374317 
L 229.985132 116.736 
L 227.141818 118.011561 
L 224.294286 119.424 
L 223.534545 119.787472 
L 219.927273 121.60468 
L 218.978388 122.112 
L 216.32 123.494582 
L 213.979382 124.8 
L 212.712727 125.496156 
L 209.283571 127.488 
L 209.105455 127.59107 
L 205.498182 129.67831 
L 204.652453 130.176 
L 201.890909 131.82572 
L 200.167736 132.864 
L 198.283636 134.032745 
L 195.804302 135.552 
L 194.676364 136.274329 
L 191.493389 138.24 
L 191.069091 138.518563 
L 187.461818 140.608157 
L 186.664347 140.928 
L 183.854545 142.275927 
z
" clip-path="url(#p12ba7b79f2)" style="fill: #3fbc73"/>
    <path d="M 183.854545 142.275927 
L 186.664347 140.928 
L 187.461818 140.608157 
L 191.069091 138.518563 
L 191.493389 138.24 
L 194.676364 136.274329 
L 195.804302 135.552 
L 198.283636 134.032745 
L 200.167736 132.864 
L 201.890909 131.82572 
L 204.652453 130.176 
L 205.498182 129.67831 
L 209.105455 127.59107 
L 209.283571 127.488 
L 212.712727 125.496156 
L 213.979382 124.8 
L 216.32 123.494582 
L 218.978388 122.112 
L 219.927273 121.60468 
L 223.534545 119.787472 
L 224.294286 119.424 
L 227.141818 118.011561 
L 229.985132 116.736 
L 230.749091 116.374317 
L 234.356364 114.786926 
L 236.199791 114.048 
L 237.963636 113.292912 
L 241.570909 111.903924 
L 243.119418 111.36 
L 245.178182 110.573954 
L 248.785455 109.351412 
L 251.025529 108.672 
L 252.392727 108.20835 
L 256 107.120999 
L 259.607273 106.172312 
L 260.406173 105.984 
L 263.214545 105.213047 
L 266.821818 104.348948 
L 270.429091 103.587258 
L 271.973754 103.296 
L 274.036364 102.799116 
L 277.643636 102.008869 
L 281.250909 101.257534 
L 284.366749 100.608 
L 284.858182 100.440974 
L 288.465455 99.106591 
L 290.988473 97.92 
L 292.034646 95.232 
L 290.010012 92.544 
L 288.465455 91.573094 
L 285.69685 89.856 
L 284.858182 89.516476 
L 281.250909 88.205024 
L 277.93329 87.168 
L 277.643636 87.101334 
L 274.036364 86.449857 
L 270.429091 86.00307 
L 266.821818 85.769964 
L 263.214545 85.749405 
L 259.607273 85.932087 
L 256 86.304194 
L 252.392727 86.851612 
L 250.833195 87.168 
L 248.785455 87.624719 
L 245.178182 88.588718 
L 241.570909 89.676869 
L 241.063683 89.856 
L 237.963636 91.023916 
L 234.356364 92.467888 
L 234.187785 92.544 
L 230.749091 94.178403 
L 228.642709 95.232 
L 227.141818 96.02665 
L 223.709653 97.92 
L 223.534545 98.022495 
L 219.927273 100.252497 
L 219.380598 100.608 
L 216.32 102.670732 
L 215.430886 103.296 
L 212.712727 105.270653 
L 211.770621 105.984 
L 209.105455 108.05829 
L 208.349157 108.672 
L 205.498182 111.035261 
L 205.122904 111.36 
L 202.093816 114.048 
L 201.890909 114.2351 
L 199.308851 116.736 
L 198.283636 117.730865 
L 196.631126 119.424 
L 194.676364 121.407977 
L 194.0221 122.112 
L 191.589389 124.8 
L 191.069091 125.393332 
L 189.3781 127.488 
L 187.461818 129.729181 
L 187.111225 130.176 
L 185.240353 132.864 
L 183.854545 134.729091 
L 183.316609 135.552 
L 181.925409 138.24 
L 180.557687 140.928 
z
M 210.983695 116.736 
L 212.116828 114.048 
L 212.712727 113.44527 
L 214.779641 111.36 
L 216.32 110.015019 
L 217.835862 108.672 
L 219.927273 107.095886 
L 221.365962 105.984 
L 223.534545 104.566387 
L 225.422569 103.296 
L 227.141818 102.314673 
L 230.055476 100.608 
L 230.749091 100.260342 
L 234.356364 98.588845 
L 235.791672 97.92 
L 237.963636 97.110441 
L 241.570909 95.841576 
L 243.441566 95.232 
L 245.178182 94.800868 
L 248.785455 94.137263 
L 252.392727 93.699308 
L 256 93.629679 
L 259.607273 94.211156 
L 261.951594 95.232 
L 260.136086 97.92 
L 259.607273 98.14058 
L 256 99.843755 
L 254.709716 100.608 
L 252.392727 101.409633 
L 248.785455 102.937728 
L 248.059804 103.296 
L 245.178182 104.285091 
L 241.570909 105.843248 
L 241.274958 105.984 
L 237.963636 107.173337 
L 234.682094 108.672 
L 234.356364 108.795413 
L 230.749091 110.177662 
L 228.235746 111.36 
L 227.141818 111.798239 
L 223.534545 113.291901 
L 221.873639 114.048 
L 219.927273 114.813411 
L 216.32 116.292885 
L 214.900268 116.736 
L 212.712727 117.325753 
z
" clip-path="url(#p12ba7b79f2)" style="fill: #84d44b"/>
    <path d="M 212.712727 117.325753 
L 214.900268 116.736 
L 216.32 116.292885 
L 219.927273 114.813411 
L 221.873639 114.048 
L 223.534545 113.291901 
L 227.141818 111.798239 
L 228.235746 111.36 
L 230.749091 110.177662 
L 234.356364 108.795413 
L 234.682094 108.672 
L 237.963636 107.173337 
L 241.274958 105.984 
L 241.570909 105.843248 
L 245.178182 104.285091 
L 248.059804 103.296 
L 248.785455 102.937728 
L 252.392727 101.409633 
L 254.709716 100.608 
L 256 99.843755 
L 259.607273 98.14058 
L 260.136086 97.92 
L 261.951594 95.232 
L 259.607273 94.211156 
L 256 93.629679 
L 252.392727 93.699308 
L 248.785455 94.137263 
L 245.178182 94.800868 
L 243.441566 95.232 
L 241.570909 95.841576 
L 237.963636 97.110441 
L 235.791672 97.92 
L 234.356364 98.588845 
L 230.749091 100.260342 
L 230.055476 100.608 
L 227.141818 102.314673 
L 225.422569 103.296 
L 223.534545 104.566387 
L 221.365962 105.984 
L 219.927273 107.095886 
L 217.835862 108.672 
L 216.32 110.015019 
L 214.779641 111.36 
L 212.712727 113.44527 
L 212.116828 114.048 
L 210.983695 116.736 
z
" clip-path="url(#p12ba7b79f2)" style="fill: #d8e219"/>
   </g>
   <g id="matplotlib.axis_1">
    <g id="xtick_1">
     <g id="line2d_1">
      <defs>
       <path id="m5568659cbf" d="M 0 0 
L 0 3.5 
" style="stroke: #000000; stroke-width: 0.8"/>
      </defs>
      <g>
       <use xlink:href="#m5568659cbf" x="57.6" y="307.584" style="stroke: #000000; stroke-width: 0.8"/>
      </g>
     </g>
     <g id="text_1">
      <!-- 2.0 -->
      <g transform="translate(45.458594 322.182437) scale(0.1 -0.1)">
       <defs>
        <path id="DejaVuSans-2212" d="M 678 2272 
L 4684 2272 
L 4684 1741 
L 678 1741 
L 678 2272 
z
" transform="scale(0.015625)"/>
        <path id="DejaVuSans-32" d="M 1228 531 
L 3431 531 
L 3431 0 
L 469 0 
L 469 531 
Q 828 903 1448 1529 
Q 2069 2156 2228 2338 
Q 2531 2678 2651 2914 
Q 2772 3150 2772 3378 
Q 2772 3750 2511 3984 
Q 2250 4219 1831 4219 
Q 1534 4219 1204 4116 
Q 875 4013 500 3803 
L 500 4441 
Q 881 4594 1212 4672 
Q 1544 4750 1819 4750 
Q 2544 4750 2975 4387 
Q 3406 4025 3406 3419 
Q 3406 3131 3298 2873 
Q 3191 2616 2906 2266 
Q 2828 2175 2409 1742 
Q 1991 1309 1228 531 
z
" transform="scale(0.015625)"/>
        <path id="DejaVuSans-2e" d="M 684 794 
L 1344 794 
L 1344 0 
L 684 0 
L 684 794 
z
" transform="scale(0.015625)"/>
        <path id="DejaVuSans-30" d="M 2034 4250 
Q 1547 4250 1301 3770 
Q 1056 3291 1056 2328 
Q 1056 1369 1301 889 
Q 1547 409 2034 409 
Q 2525 409 2770 889 
Q 3016 1369 3016 2328 
Q 3016 3291 2770 3770 
Q 2525 4250 2034 4250 
z
M 2034 4750 
Q 2819 4750 3233 4129 
Q 3647 3509 3647 2328 
Q 3647 1150 3233 529 
Q 2819 -91 2034 -91 
Q 1250 -91 836 529 
Q 422 1150 422 2328 
Q 422 3509 836 4129 
Q 1250 4750 2034 4750 
z
" transform="scale(0.015625)"/>
       </defs>
       <use xlink:href="#DejaVuSans-2212"/>
       <use xlink:href="#DejaVuSans-32" x="83.789062"/>
       <use xlink:href="#DejaVuSans-2e" x="147.412109"/>
       <use xlink:href="#DejaVuSans-30" x="179.199219"/>
      </g>
     </g>
    </g>
    <g id="xtick_2">
     <g id="line2d_2">
      <g>
       <use xlink:href="#m5568659cbf" x="102.24" y="307.584" style="stroke: #000000; stroke-width: 0.8"/>
      </g>
     </g>
     <g id="text_2">
      <!-- 1.5 -->
      <g transform="translate(90.098594 322.182437) scale(0.1 -0.1)">
       <defs>
        <path id="DejaVuSans-31" d="M 794 531 
L 1825 531 
L 1825 4091 
L 703 3866 
L 703 4441 
L 1819 4666 
L 2450 4666 
L 2450 531 
L 3481 531 
L 3481 0 
L 794 0 
L 794 531 
z
" transform="scale(0.015625)"/>
        <path id="DejaVuSans-35" d="M 691 4666 
L 3169 4666 
L 3169 4134 
L 1269 4134 
L 1269 2991 
Q 1406 3038 1543 3061 
Q 1681 3084 1819 3084 
Q 2600 3084 3056 2656 
Q 3513 2228 3513 1497 
Q 3513 744 3044 326 
Q 2575 -91 1722 -91 
Q 1428 -91 1123 -41 
Q 819 9 494 109 
L 494 744 
Q 775 591 1075 516 
Q 1375 441 1709 441 
Q 2250 441 2565 725 
Q 2881 1009 2881 1497 
Q 2881 1984 2565 2268 
Q 2250 2553 1709 2553 
Q 1456 2553 1204 2497 
Q 953 2441 691 2322 
L 691 4666 
z
" transform="scale(0.015625)"/>
       </defs>
       <use xlink:href="#DejaVuSans-2212"/>
       <use xlink:href="#DejaVuSans-31" x="83.789062"/>
       <use xlink:href="#DejaVuSans-2e" x="147.412109"/>
       <use xlink:href="#DejaVuSans-35" x="179.199219"/>
      </g>
     </g>
    </g>
    <g id="xtick_3">
     <g id="line2d_3">
      <g>
       <use xlink:href="#m5568659cbf" x="146.88" y="307.584" style="stroke: #000000; stroke-width: 0.8"/>
      </g>
     </g>
     <g id="text_3">
      <!-- 1.0 -->
      <g transform="translate(134.738594 322.182437) scale(0.1 -0.1)">
       <use xlink:href="#DejaVuSans-2212"/>
       <use xlink:href="#DejaVuSans-31" x="83.789062"/>
       <use xlink:href="#DejaVuSans-2e" x="147.412109"/>
       <use xlink:href="#DejaVuSans-30" x="179.199219"/>
      </g>
     </g>
    </g>
    <g id="xtick_4">
     <g id="line2d_4">
      <g>
       <use xlink:href="#m5568659cbf" x="191.52" y="307.584" style="stroke: #000000; stroke-width: 0.8"/>
      </g>
     </g>
     <g id="text_4">
      <!-- 0.5 -->
      <g transform="translate(179.378594 322.182437) scale(0.1 -0.1)">
       <use xlink:href="#DejaVuSans-2212"/>
       <use xlink:href="#DejaVuSans-30" x="83.789062"/>
       <use xlink:href="#DejaVuSans-2e" x="147.412109"/>
       <use xlink:href="#DejaVuSans-35" x="179.199219"/>
      </g>
     </g>
    </g>
    <g id="xtick_5">
     <g id="line2d_5">
      <g>
       <use xlink:href="#m5568659cbf" x="236.16" y="307.584" style="stroke: #000000; stroke-width: 0.8"/>
      </g>
     </g>
     <g id="text_5">
      <!-- 0.0 -->
      <g transform="translate(228.208438 322.182437) scale(0.1 -0.1)">
       <use xlink:href="#DejaVuSans-30"/>
       <use xlink:href="#DejaVuSans-2e" x="63.623047"/>
       <use xlink:href="#DejaVuSans-30" x="95.410156"/>
      </g>
     </g>
    </g>
    <g id="xtick_6">
     <g id="line2d_6">
      <g>
       <use xlink:href="#m5568659cbf" x="280.8" y="307.584" style="stroke: #000000; stroke-width: 0.8"/>
      </g>
     </g>
     <g id="text_6">
      <!-- 0.5 -->
      <g transform="translate(272.848437 322.182437) scale(0.1 -0.1)">
       <use xlink:href="#DejaVuSans-30"/>
       <use xlink:href="#DejaVuSans-2e" x="63.623047"/>
       <use xlink:href="#DejaVuSans-35" x="95.410156"/>
      </g>
     </g>
    </g>
    <g id="xtick_7">
     <g id="line2d_7">
      <g>
       <use xlink:href="#m5568659cbf" x="325.44" y="307.584" style="stroke: #000000; stroke-width: 0.8"/>
      </g>
     </g>
     <g id="text_7">
      <!-- 1.0 -->
      <g transform="translate(317.488437 322.182437) scale(0.1 -0.1)">
       <use xlink:href="#DejaVuSans-31"/>
       <use xlink:href="#DejaVuSans-2e" x="63.623047"/>
       <use xlink:href="#DejaVuSans-30" x="95.410156"/>
      </g>
     </g>
    </g>
    <g id="xtick_8">
     <g id="line2d_8">
      <g>
       <use xlink:href="#m5568659cbf" x="370.08" y="307.584" style="stroke: #000000; stroke-width: 0.8"/>
      </g>
     </g>
     <g id="text_8">
      <!-- 1.5 -->
      <g transform="translate(362.128438 322.182437) scale(0.1 -0.1)">
       <use xlink:href="#DejaVuSans-31"/>
       <use xlink:href="#DejaVuSans-2e" x="63.623047"/>
       <use xlink:href="#DejaVuSans-35" x="95.410156"/>
      </g>
     </g>
    </g>
    <g id="xtick_9">
     <g id="line2d_9">
      <g>
       <use xlink:href="#m5568659cbf" x="414.72" y="307.584" style="stroke: #000000; stroke-width: 0.8"/>
      </g>
     </g>
     <g id="text_9">
      <!-- 2.0 -->
      <g transform="translate(406.768438 322.182437) scale(0.1 -0.1)">
       <use xlink:href="#DejaVuSans-32"/>
       <use xlink:href="#DejaVuSans-2e" x="63.623047"/>
       <use xlink:href="#DejaVuSans-30" x="95.410156"/>
      </g>
     </g>
    </g>
    <g id="text_10">
     <!-- $x_1$ -->
     <g transform="translate(230.81 335.860562) scale(0.1 -0.1)">
      <defs>
       <path id="DejaVuSans-Oblique-78" d="M 3841 3500 
L 2234 1784 
L 3219 0 
L 2559 0 
L 1819 1388 
L 531 0 
L -166 0 
L 1556 1844 
L 641 3500 
L 1300 3500 
L 1972 2234 
L 3144 3500 
L 3841 3500 
z
" transform="scale(0.015625)"/>
      </defs>
      <use xlink:href="#DejaVuSans-Oblique-78" transform="translate(0 0.3125)"/>
      <use xlink:href="#DejaVuSans-31" transform="translate(59.179688 -16.09375) scale(0.7)"/>
     </g>
    </g>
   </g>
   <g id="matplotlib.axis_2">
    <g id="ytick_1">
     <g id="line2d_10">
      <defs>
       <path id="mc0d0704f05" d="M 0 0 
L -3.5 0 
" style="stroke: #000000; stroke-width: 0.8"/>
      </defs>
      <g>
       <use xlink:href="#mc0d0704f05" x="57.6" y="307.584" style="stroke: #000000; stroke-width: 0.8"/>
      </g>
     </g>
     <g id="text_11">
      <!-- 6 -->
      <g transform="translate(35.857813 311.383219) scale(0.1 -0.1)">
       <defs>
        <path id="DejaVuSans-36" d="M 2113 2584 
Q 1688 2584 1439 2293 
Q 1191 2003 1191 1497 
Q 1191 994 1439 701 
Q 1688 409 2113 409 
Q 2538 409 2786 701 
Q 3034 994 3034 1497 
Q 3034 2003 2786 2293 
Q 2538 2584 2113 2584 
z
M 3366 4563 
L 3366 3988 
Q 3128 4100 2886 4159 
Q 2644 4219 2406 4219 
Q 1781 4219 1451 3797 
Q 1122 3375 1075 2522 
Q 1259 2794 1537 2939 
Q 1816 3084 2150 3084 
Q 2853 3084 3261 2657 
Q 3669 2231 3669 1497 
Q 3669 778 3244 343 
Q 2819 -91 2113 -91 
Q 1303 -91 875 529 
Q 447 1150 447 2328 
Q 447 3434 972 4092 
Q 1497 4750 2381 4750 
Q 2619 4750 2861 4703 
Q 3103 4656 3366 4563 
z
" transform="scale(0.015625)"/>
       </defs>
       <use xlink:href="#DejaVuSans-2212"/>
       <use xlink:href="#DejaVuSans-36" x="83.789062"/>
      </g>
     </g>
    </g>
    <g id="ytick_2">
     <g id="line2d_11">
      <g>
       <use xlink:href="#mc0d0704f05" x="57.6" y="266.643692" style="stroke: #000000; stroke-width: 0.8"/>
      </g>
     </g>
     <g id="text_12">
      <!-- 5 -->
      <g transform="translate(35.857813 270.442911) scale(0.1 -0.1)">
       <use xlink:href="#DejaVuSans-2212"/>
       <use xlink:href="#DejaVuSans-35" x="83.789062"/>
      </g>
     </g>
    </g>
    <g id="ytick_3">
     <g id="line2d_12">
      <g>
       <use xlink:href="#mc0d0704f05" x="57.6" y="225.703385" style="stroke: #000000; stroke-width: 0.8"/>
      </g>
     </g>
     <g id="text_13">
      <!-- 4 -->
      <g transform="translate(35.857813 229.502603) scale(0.1 -0.1)">
       <defs>
        <path id="DejaVuSans-34" d="M 2419 4116 
L 825 1625 
L 2419 1625 
L 2419 4116 
z
M 2253 4666 
L 3047 4666 
L 3047 1625 
L 3713 1625 
L 3713 1100 
L 3047 1100 
L 3047 0 
L 2419 0 
L 2419 1100 
L 313 1100 
L 313 1709 
L 2253 4666 
z
" transform="scale(0.015625)"/>
       </defs>
       <use xlink:href="#DejaVuSans-2212"/>
       <use xlink:href="#DejaVuSans-34" x="83.789062"/>
      </g>
     </g>
    </g>
    <g id="ytick_4">
     <g id="line2d_13">
      <g>
       <use xlink:href="#mc0d0704f05" x="57.6" y="184.763077" style="stroke: #000000; stroke-width: 0.8"/>
      </g>
     </g>
     <g id="text_14">
      <!-- 3 -->
      <g transform="translate(35.857813 188.562296) scale(0.1 -0.1)">
       <defs>
        <path id="DejaVuSans-33" d="M 2597 2516 
Q 3050 2419 3304 2112 
Q 3559 1806 3559 1356 
Q 3559 666 3084 287 
Q 2609 -91 1734 -91 
Q 1441 -91 1130 -33 
Q 819 25 488 141 
L 488 750 
Q 750 597 1062 519 
Q 1375 441 1716 441 
Q 2309 441 2620 675 
Q 2931 909 2931 1356 
Q 2931 1769 2642 2001 
Q 2353 2234 1838 2234 
L 1294 2234 
L 1294 2753 
L 1863 2753 
Q 2328 2753 2575 2939 
Q 2822 3125 2822 3475 
Q 2822 3834 2567 4026 
Q 2313 4219 1838 4219 
Q 1578 4219 1281 4162 
Q 984 4106 628 3988 
L 628 4550 
Q 988 4650 1302 4700 
Q 1616 4750 1894 4750 
Q 2613 4750 3031 4423 
Q 3450 4097 3450 3541 
Q 3450 3153 3228 2886 
Q 3006 2619 2597 2516 
z
" transform="scale(0.015625)"/>
       </defs>
       <use xlink:href="#DejaVuSans-2212"/>
       <use xlink:href="#DejaVuSans-33" x="83.789062"/>
      </g>
     </g>
    </g>
    <g id="ytick_5">
     <g id="line2d_14">
      <g>
       <use xlink:href="#mc0d0704f05" x="57.6" y="143.822769" style="stroke: #000000; stroke-width: 0.8"/>
      </g>
     </g>
     <g id="text_15">
      <!-- 2 -->
      <g transform="translate(35.857813 147.621988) scale(0.1 -0.1)">
       <use xlink:href="#DejaVuSans-2212"/>
       <use xlink:href="#DejaVuSans-32" x="83.789062"/>
      </g>
     </g>
    </g>
    <g id="ytick_6">
     <g id="line2d_15">
      <g>
       <use xlink:href="#mc0d0704f05" x="57.6" y="102.882462" style="stroke: #000000; stroke-width: 0.8"/>
      </g>
     </g>
     <g id="text_16">
      <!-- 1 -->
      <g transform="translate(35.857813 106.68168) scale(0.1 -0.1)">
       <use xlink:href="#DejaVuSans-2212"/>
       <use xlink:href="#DejaVuSans-31" x="83.789062"/>
      </g>
     </g>
    </g>
    <g id="ytick_7">
     <g id="line2d_16">
      <g>
       <use xlink:href="#mc0d0704f05" x="57.6" y="61.942154" style="stroke: #000000; stroke-width: 0.8"/>
      </g>
     </g>
     <g id="text_17">
      <!-- 0 -->
      <g transform="translate(44.2375 65.741373) scale(0.1 -0.1)">
       <use xlink:href="#DejaVuSans-30"/>
      </g>
     </g>
    </g>
    <g id="text_18">
     <!-- $x_2$ -->
     <g transform="translate(29.778125 179.878) rotate(-90) scale(0.1 -0.1)">
      <use xlink:href="#DejaVuSans-Oblique-78" transform="translate(0 0.3125)"/>
      <use xlink:href="#DejaVuSans-32" transform="translate(59.179688 -16.09375) scale(0.7)"/>
     </g>
    </g>
   </g>
   <g id="patch_3">
    <path d="M 57.6 307.584 
L 57.6 41.472 
" style="fill: none; stroke: #000000; stroke-width: 0.8; stroke-linejoin: miter; stroke-linecap: square"/>
   </g>
   <g id="patch_4">
    <path d="M 414.72 307.584 
L 414.72 41.472 
" style="fill: none; stroke: #000000; stroke-width: 0.8; stroke-linejoin: miter; stroke-linecap: square"/>
   </g>
   <g id="patch_5">
    <path d="M 57.6 307.584 
L 414.72 307.584 
" style="fill: none; stroke: #000000; stroke-width: 0.8; stroke-linejoin: miter; stroke-linecap: square"/>
   </g>
   <g id="patch_6">
    <path d="M 57.6 41.472 
L 414.72 41.472 
" style="fill: none; stroke: #000000; stroke-width: 0.8; stroke-linejoin: miter; stroke-linecap: square"/>
   </g>
   <g id="text_19">
    <!-- Banana distribution -->
    <g transform="translate(167.500937 35.472) scale(0.14 -0.14)">
     <defs>
      <path id="DejaVuSans-42" d="M 1259 2228 
L 1259 519 
L 2272 519 
Q 2781 519 3026 730 
Q 3272 941 3272 1375 
Q 3272 1813 3026 2020 
Q 2781 2228 2272 2228 
L 1259 2228 
z
M 1259 4147 
L 1259 2741 
L 2194 2741 
Q 2656 2741 2882 2914 
Q 3109 3088 3109 3444 
Q 3109 3797 2882 3972 
Q 2656 4147 2194 4147 
L 1259 4147 
z
M 628 4666 
L 2241 4666 
Q 2963 4666 3353 4366 
Q 3744 4066 3744 3513 
Q 3744 3084 3544 2831 
Q 3344 2578 2956 2516 
Q 3422 2416 3680 2098 
Q 3938 1781 3938 1306 
Q 3938 681 3513 340 
Q 3088 0 2303 0 
L 628 0 
L 628 4666 
z
" transform="scale(0.015625)"/>
      <path id="DejaVuSans-61" d="M 2194 1759 
Q 1497 1759 1228 1600 
Q 959 1441 959 1056 
Q 959 750 1161 570 
Q 1363 391 1709 391 
Q 2188 391 2477 730 
Q 2766 1069 2766 1631 
L 2766 1759 
L 2194 1759 
z
M 3341 1997 
L 3341 0 
L 2766 0 
L 2766 531 
Q 2569 213 2275 61 
Q 1981 -91 1556 -91 
Q 1019 -91 701 211 
Q 384 513 384 1019 
Q 384 1609 779 1909 
Q 1175 2209 1959 2209 
L 2766 2209 
L 2766 2266 
Q 2766 2663 2505 2880 
Q 2244 3097 1772 3097 
Q 1472 3097 1187 3025 
Q 903 2953 641 2809 
L 641 3341 
Q 956 3463 1253 3523 
Q 1550 3584 1831 3584 
Q 2591 3584 2966 3190 
Q 3341 2797 3341 1997 
z
" transform="scale(0.015625)"/>
      <path id="DejaVuSans-6e" d="M 3513 2113 
L 3513 0 
L 2938 0 
L 2938 2094 
Q 2938 2591 2744 2837 
Q 2550 3084 2163 3084 
Q 1697 3084 1428 2787 
Q 1159 2491 1159 1978 
L 1159 0 
L 581 0 
L 581 3500 
L 1159 3500 
L 1159 2956 
Q 1366 3272 1645 3428 
Q 1925 3584 2291 3584 
Q 2894 3584 3203 3211 
Q 3513 2838 3513 2113 
z
" transform="scale(0.015625)"/>
      <path id="DejaVuSans-20" transform="scale(0.015625)"/>
      <path id="DejaVuSans-64" d="M 2906 2969 
L 2906 4863 
L 3481 4863 
L 3481 0 
L 2906 0 
L 2906 525 
Q 2725 213 2448 61 
Q 2172 -91 1784 -91 
Q 1150 -91 751 415 
Q 353 922 353 1747 
Q 353 2572 751 3078 
Q 1150 3584 1784 3584 
Q 2172 3584 2448 3432 
Q 2725 3281 2906 2969 
z
M 947 1747 
Q 947 1113 1208 752 
Q 1469 391 1925 391 
Q 2381 391 2643 752 
Q 2906 1113 2906 1747 
Q 2906 2381 2643 2742 
Q 2381 3103 1925 3103 
Q 1469 3103 1208 2742 
Q 947 2381 947 1747 
z
" transform="scale(0.015625)"/>
      <path id="DejaVuSans-69" d="M 603 3500 
L 1178 3500 
L 1178 0 
L 603 0 
L 603 3500 
z
M 603 4863 
L 1178 4863 
L 1178 4134 
L 603 4134 
L 603 4863 
z
" transform="scale(0.015625)"/>
      <path id="DejaVuSans-73" d="M 2834 3397 
L 2834 2853 
Q 2591 2978 2328 3040 
Q 2066 3103 1784 3103 
Q 1356 3103 1142 2972 
Q 928 2841 928 2578 
Q 928 2378 1081 2264 
Q 1234 2150 1697 2047 
L 1894 2003 
Q 2506 1872 2764 1633 
Q 3022 1394 3022 966 
Q 3022 478 2636 193 
Q 2250 -91 1575 -91 
Q 1294 -91 989 -36 
Q 684 19 347 128 
L 347 722 
Q 666 556 975 473 
Q 1284 391 1588 391 
Q 1994 391 2212 530 
Q 2431 669 2431 922 
Q 2431 1156 2273 1281 
Q 2116 1406 1581 1522 
L 1381 1569 
Q 847 1681 609 1914 
Q 372 2147 372 2553 
Q 372 3047 722 3315 
Q 1072 3584 1716 3584 
Q 2034 3584 2315 3537 
Q 2597 3491 2834 3397 
z
" transform="scale(0.015625)"/>
      <path id="DejaVuSans-74" d="M 1172 4494 
L 1172 3500 
L 2356 3500 
L 2356 3053 
L 1172 3053 
L 1172 1153 
Q 1172 725 1289 603 
Q 1406 481 1766 481 
L 2356 481 
L 2356 0 
L 1766 0 
Q 1100 0 847 248 
Q 594 497 594 1153 
L 594 3053 
L 172 3053 
L 172 3500 
L 594 3500 
L 594 4494 
L 1172 4494 
z
" transform="scale(0.015625)"/>
      <path id="DejaVuSans-72" d="M 2631 2963 
Q 2534 3019 2420 3045 
Q 2306 3072 2169 3072 
Q 1681 3072 1420 2755 
Q 1159 2438 1159 1844 
L 1159 0 
L 581 0 
L 581 3500 
L 1159 3500 
L 1159 2956 
Q 1341 3275 1631 3429 
Q 1922 3584 2338 3584 
Q 2397 3584 2469 3576 
Q 2541 3569 2628 3553 
L 2631 2963 
z
" transform="scale(0.015625)"/>
      <path id="DejaVuSans-62" d="M 3116 1747 
Q 3116 2381 2855 2742 
Q 2594 3103 2138 3103 
Q 1681 3103 1420 2742 
Q 1159 2381 1159 1747 
Q 1159 1113 1420 752 
Q 1681 391 2138 391 
Q 2594 391 2855 752 
Q 3116 1113 3116 1747 
z
M 1159 2969 
Q 1341 3281 1617 3432 
Q 1894 3584 2278 3584 
Q 2916 3584 3314 3078 
Q 3713 2572 3713 1747 
Q 3713 922 3314 415 
Q 2916 -91 2278 -91 
Q 1894 -91 1617 61 
Q 1341 213 1159 525 
L 1159 0 
L 581 0 
L 581 4863 
L 1159 4863 
L 1159 2969 
z
" transform="scale(0.015625)"/>
      <path id="DejaVuSans-75" d="M 544 1381 
L 544 3500 
L 1119 3500 
L 1119 1403 
Q 1119 906 1312 657 
Q 1506 409 1894 409 
Q 2359 409 2629 706 
Q 2900 1003 2900 1516 
L 2900 3500 
L 3475 3500 
L 3475 0 
L 2900 0 
L 2900 538 
Q 2691 219 2414 64 
Q 2138 -91 1772 -91 
Q 1169 -91 856 284 
Q 544 659 544 1381 
z
M 1991 3584 
L 1991 3584 
z
" transform="scale(0.015625)"/>
      <path id="DejaVuSans-6f" d="M 1959 3097 
Q 1497 3097 1228 2736 
Q 959 2375 959 1747 
Q 959 1119 1226 758 
Q 1494 397 1959 397 
Q 2419 397 2687 759 
Q 2956 1122 2956 1747 
Q 2956 2369 2687 2733 
Q 2419 3097 1959 3097 
z
M 1959 3584 
Q 2709 3584 3137 3096 
Q 3566 2609 3566 1747 
Q 3566 888 3137 398 
Q 2709 -91 1959 -91 
Q 1206 -91 779 398 
Q 353 888 353 1747 
Q 353 2609 779 3096 
Q 1206 3584 1959 3584 
z
" transform="scale(0.015625)"/>
     </defs>
     <use xlink:href="#DejaVuSans-42"/>
     <use xlink:href="#DejaVuSans-61" x="68.603516"/>
     <use xlink:href="#DejaVuSans-6e" x="129.882812"/>
     <use xlink:href="#DejaVuSans-61" x="193.261719"/>
     <use xlink:href="#DejaVuSans-6e" x="254.541016"/>
     <use xlink:href="#DejaVuSans-61" x="317.919922"/>
     <use xlink:href="#DejaVuSans-20" x="379.199219"/>
     <use xlink:href="#DejaVuSans-64" x="410.986328"/>
     <use xlink:href="#DejaVuSans-69" x="474.462891"/>
     <use xlink:href="#DejaVuSans-73" x="502.246094"/>
     <use xlink:href="#DejaVuSans-74" x="554.345703"/>
     <use xlink:href="#DejaVuSans-72" x="593.554688"/>
     <use xlink:href="#DejaVuSans-69" x="634.667969"/>
     <use xlink:href="#DejaVuSans-62" x="662.451172"/>
     <use xlink:href="#DejaVuSans-75" x="725.927734"/>
     <use xlink:href="#DejaVuSans-74" x="789.306641"/>
     <use xlink:href="#DejaVuSans-69" x="828.515625"/>
     <use xlink:href="#DejaVuSans-6f" x="856.298828"/>
     <use xlink:href="#DejaVuSans-6e" x="917.480469"/>
    </g>
   </g>
  </g>
 </g>
 <defs>
  <clipPath id="p12ba7b79f2">
   <rect x="57.6" y="41.472" width="357.12" height="266.112"/>
  </clipPath>
 </defs>
</svg>
