<?xml version="1.0" encoding="utf-8" standalone="no"?>
<!DOCTYPE svg PUBLIC "-//W3C//DTD SVG 1.1//EN"
  "http://www.w3.org/Graphics/SVG/1.1/DTD/svg11.dtd">
<svg xmlns:xlink="http://www.w3.org/1999/xlink" width="460.8pt" height="345.6pt" viewBox="0 0 460.8 345.6" xmlns="http://www.w3.org/2000/svg" version="1.1">
 <metadata>
  <rdf:RDF xmlns:dc="http://purl.org/dc/elements/1.1/" xmlns:cc="http://creativecommons.org/ns#" xmlns:rdf="http://www.w3.org/1999/02/22-rdf-syntax-ns#">
   <cc:Work>
    <dc:type rdf:resource="http://purl.org/dc/dcmitype/StillImage"/>
    <dc:date>2024-04-03T16:51:23.085410</dc:date>
    <dc:format>image/svg+xml</dc:format>
    <dc:creator>
     <cc:Agent>
      <dc:title>Matplotlib v3.8.3, https://matplotlib.org/</dc:title>
     </cc:Agent>
    </dc:creator>
   </cc:Work>
  </rdf:RDF>
 </metadata>
 <defs>
  <style type="text/css">*{stroke-linejoin: round; stroke-linecap: butt}</style>
 </defs>
 <g id="figure_1">
  <g id="patch_1">
   <path d="M 0 345.6 
L 460.8 345.6 
L 460.8 0 
L 0 0 
z
" style="fill: #ffffff"/>
  </g>
  <g id="axes_1">
   <g id="patch_2">
    <path d="M 57.6 307.584 
L 414.72 307.584 
L 414.72 41.472 
L 57.6 41.472 
z
" style="fill: #ffffff"/>
   </g>
   <g id="QuadContourSet_1">
    <path d="M 61.207273 307.584 
L 64.814545 307.584 
L 68.421818 307.584 
L 72.029091 307.584 
L 75.636364 307.584 
L 79.243636 307.584 
L 82.850909 307.584 
L 86.458182 307.584 
L 90.065455 307.584 
L 93.672727 307.584 
L 97.28 307.584 
L 100.887273 307.584 
L 104.494545 307.584 
L 108.101818 307.584 
L 111.709091 307.584 
L 115.316364 307.584 
L 118.923636 307.584 
L 122.530909 307.584 
L 126.138182 307.584 
L 129.745455 307.584 
L 133.352727 307.584 
L 136.96 307.584 
L 140.567273 307.584 
L 144.174545 307.584 
L 147.781818 307.584 
L 151.389091 307.584 
L 154.996364 307.584 
L 158.603636 307.584 
L 162.210909 307.584 
L 165.818182 307.584 
L 169.425455 307.584 
L 173.032727 307.584 
L 176.64 307.584 
L 180.247273 307.584 
L 183.854545 307.584 
L 187.461818 307.584 
L 191.069091 307.584 
L 194.676364 307.584 
L 198.283636 307.584 
L 201.890909 307.584 
L 205.498182 307.584 
L 209.105455 307.584 
L 212.712727 307.584 
L 216.32 307.584 
L 219.927273 307.584 
L 223.534545 307.584 
L 227.141818 307.584 
L 230.749091 307.584 
L 234.356364 307.584 
L 237.963636 307.584 
L 241.570909 307.584 
L 245.178182 307.584 
L 248.785455 307.584 
L 252.392727 307.584 
L 256 307.584 
L 259.607273 307.584 
L 263.214545 307.584 
L 266.821818 307.584 
L 270.429091 307.584 
L 274.036364 307.584 
L 277.643636 307.584 
L 281.250909 307.584 
L 284.858182 307.584 
L 288.465455 307.584 
L 292.072727 307.584 
L 295.68 307.584 
L 299.287273 307.584 
L 302.894545 307.584 
L 306.501818 307.584 
L 310.109091 307.584 
L 313.716364 307.584 
L 317.323636 307.584 
L 320.930909 307.584 
L 324.538182 307.584 
L 328.145455 307.584 
L 331.752727 307.584 
L 335.36 307.584 
L 338.967273 307.584 
L 342.574545 307.584 
L 346.181818 307.584 
L 349.789091 307.584 
L 353.396364 307.584 
L 357.003636 307.584 
L 360.610909 307.584 
L 364.218182 307.584 
L 367.825455 307.584 
L 371.432727 307.584 
L 375.04 307.584 
L 378.647273 307.584 
L 382.254545 307.584 
L 385.861818 307.584 
L 389.469091 307.584 
L 393.076364 307.584 
L 396.683636 307.584 
L 400.290909 307.584 
L 403.898182 307.584 
L 407.505455 307.584 
L 411.112727 307.584 
L 414.72 307.584 
L 414.72 304.896 
L 414.72 302.208 
L 414.72 299.52 
L 414.72 296.832 
L 414.72 294.144 
L 414.72 291.456 
L 414.72 288.768 
L 414.72 286.08 
L 414.72 283.392 
L 414.72 280.704 
L 414.72 278.016 
L 414.72 275.328 
L 414.72 272.64 
L 414.72 269.952 
L 414.72 267.264 
L 414.72 264.576 
L 414.72 261.888 
L 414.72 259.2 
L 414.72 256.512 
L 414.72 253.824 
L 414.72 251.136 
L 414.72 248.448 
L 414.72 245.76 
L 414.72 243.072 
L 414.72 240.384 
L 414.72 237.696 
L 414.72 235.008 
L 414.72 232.32 
L 414.72 229.632 
L 414.72 226.944 
L 414.72 224.256 
L 414.72 221.568 
L 414.72 218.88 
L 414.72 216.192 
L 414.72 213.504 
L 414.72 210.816 
L 414.72 208.128 
L 414.72 205.44 
L 414.72 202.752 
L 414.72 200.064 
L 414.72 197.376 
L 414.72 194.688 
L 414.72 192 
L 414.72 189.312 
L 414.72 186.624 
L 414.72 183.936 
L 414.72 181.248 
L 414.72 178.56 
L 414.72 175.872 
L 414.72 173.184 
L 414.72 170.496 
L 414.72 167.808 
L 414.72 165.12 
L 414.72 162.432 
L 414.72 159.744 
L 414.72 157.056 
L 414.72 154.368 
L 414.72 151.68 
L 414.72 148.992 
L 414.72 146.304 
L 414.72 143.616 
L 414.72 140.928 
L 414.72 138.24 
L 414.72 135.552 
L 414.72 132.864 
L 414.72 130.176 
L 414.72 127.488 
L 414.72 124.8 
L 414.72 122.112 
L 414.72 119.424 
L 414.72 116.736 
L 414.72 114.048 
L 414.72 111.36 
L 414.72 108.672 
L 414.72 105.984 
L 414.72 103.296 
L 414.72 100.608 
L 414.72 97.92 
L 414.72 95.232 
L 414.72 92.544 
L 414.72 89.856 
L 414.72 87.168 
L 414.72 84.48 
L 414.72 81.792 
L 414.72 79.104 
L 414.72 76.416 
L 414.72 73.728 
L 414.72 71.04 
L 414.72 68.352 
L 414.72 65.664 
L 414.72 62.976 
L 414.72 60.288 
L 414.72 57.6 
L 414.72 54.912 
L 414.72 52.224 
L 414.72 49.536 
L 414.72 46.848 
L 414.72 44.16 
L 414.72 41.472 
L 411.112727 41.472 
L 407.505455 41.472 
L 403.898182 41.472 
L 400.290909 41.472 
L 396.683636 41.472 
L 393.076364 41.472 
L 389.469091 41.472 
L 385.861818 41.472 
L 382.254545 41.472 
L 378.647273 41.472 
L 375.04 41.472 
L 371.432727 41.472 
L 367.825455 41.472 
L 364.218182 41.472 
L 360.610909 41.472 
L 357.003636 41.472 
L 353.396364 41.472 
L 349.789091 41.472 
L 346.181818 41.472 
L 342.574545 41.472 
L 338.967273 41.472 
L 335.36 41.472 
L 331.752727 41.472 
L 328.145455 41.472 
L 324.538182 41.472 
L 320.930909 41.472 
L 317.323636 41.472 
L 313.716364 41.472 
L 310.109091 41.472 
L 306.501818 41.472 
L 302.894545 41.472 
L 299.287273 41.472 
L 295.68 41.472 
L 292.072727 41.472 
L 288.465455 41.472 
L 284.858182 41.472 
L 281.250909 41.472 
L 277.643636 41.472 
L 274.036364 41.472 
L 270.429091 41.472 
L 266.821818 41.472 
L 263.214545 41.472 
L 259.607273 41.472 
L 256 41.472 
L 252.392727 41.472 
L 248.785455 41.472 
L 245.178182 41.472 
L 241.570909 41.472 
L 237.963636 41.472 
L 234.356364 41.472 
L 230.749091 41.472 
L 227.141818 41.472 
L 223.534545 41.472 
L 219.927273 41.472 
L 216.32 41.472 
L 212.712727 41.472 
L 209.105455 41.472 
L 205.498182 41.472 
L 201.890909 41.472 
L 198.283636 41.472 
L 194.676364 41.472 
L 191.069091 41.472 
L 187.461818 41.472 
L 183.854545 41.472 
L 180.247273 41.472 
L 176.64 41.472 
L 173.032727 41.472 
L 169.425455 41.472 
L 165.818182 41.472 
L 162.210909 41.472 
L 158.603636 41.472 
L 154.996364 41.472 
L 151.389091 41.472 
L 147.781818 41.472 
L 144.174545 41.472 
L 140.567273 41.472 
L 136.96 41.472 
L 133.352727 41.472 
L 129.745455 41.472 
L 126.138182 41.472 
L 122.530909 41.472 
L 118.923636 41.472 
L 115.316364 41.472 
L 111.709091 41.472 
L 108.101818 41.472 
L 104.494545 41.472 
L 100.887273 41.472 
L 97.28 41.472 
L 93.672727 41.472 
L 90.065455 41.472 
L 86.458182 41.472 
L 82.850909 41.472 
L 79.243636 41.472 
L 75.636364 41.472 
L 72.029091 41.472 
L 68.421818 41.472 
L 64.814545 41.472 
L 61.207273 41.472 
L 57.6 41.472 
L 57.6 44.16 
L 57.6 46.848 
L 57.6 49.536 
L 57.6 52.224 
L 57.6 54.912 
L 57.6 57.6 
L 57.6 60.288 
L 57.6 62.976 
L 57.6 65.664 
L 57.6 68.352 
L 57.6 71.04 
L 57.6 73.728 
L 57.6 76.416 
L 57.6 79.104 
L 57.6 81.792 
L 57.6 84.48 
L 57.6 87.168 
L 57.6 89.856 
L 57.6 92.544 
L 57.6 95.232 
L 57.6 97.92 
L 57.6 100.608 
L 57.6 103.296 
L 57.6 105.984 
L 57.6 108.672 
L 57.6 111.36 
L 57.6 114.048 
L 57.6 116.736 
L 57.6 119.424 
L 57.6 122.112 
L 57.6 124.8 
L 57.6 127.488 
L 57.6 130.176 
L 57.6 132.864 
L 57.6 135.552 
L 57.6 138.24 
L 57.6 140.928 
L 57.6 143.616 
L 57.6 146.304 
L 57.6 148.992 
L 57.6 151.68 
L 57.6 154.368 
L 57.6 157.056 
L 57.6 159.744 
L 57.6 162.432 
L 57.6 165.12 
L 57.6 167.808 
L 57.6 170.496 
L 57.6 173.184 
L 57.6 175.872 
L 57.6 178.56 
L 57.6 181.248 
L 57.6 183.936 
L 57.6 186.624 
L 57.6 189.312 
L 57.6 192 
L 57.6 194.688 
L 57.6 197.376 
L 57.6 200.064 
L 57.6 202.752 
L 57.6 205.44 
L 57.6 208.128 
L 57.6 210.816 
L 57.6 213.504 
L 57.6 216.192 
L 57.6 218.88 
L 57.6 221.568 
L 57.6 224.256 
L 57.6 226.944 
L 57.6 229.632 
L 57.6 232.32 
L 57.6 235.008 
L 57.6 237.696 
L 57.6 240.384 
L 57.6 243.072 
L 57.6 245.76 
L 57.6 248.448 
L 57.6 251.136 
L 57.6 253.824 
L 57.6 256.512 
L 57.6 259.2 
L 57.6 261.888 
L 57.6 264.576 
L 57.6 267.264 
L 57.6 269.952 
L 57.6 272.64 
L 57.6 275.328 
L 57.6 278.016 
L 57.6 280.704 
L 57.6 283.392 
L 57.6 286.08 
L 57.6 288.768 
L 57.6 291.456 
L 57.6 294.144 
L 57.6 296.832 
L 57.6 299.52 
L 57.6 302.208 
L 57.6 304.896 
L 57.6 307.584 
z
M 88.026346 267.264 
L 86.458182 266.857303 
L 82.850909 265.652974 
L 80.32631 264.576 
L 79.243636 264.061489 
L 75.636364 261.947751 
L 75.549377 261.888 
L 72.202013 259.2 
L 72.029091 259.033005 
L 69.732135 256.512 
L 68.421818 254.677733 
L 67.867478 253.824 
L 66.476011 251.136 
L 65.459662 248.448 
L 64.814545 245.994982 
L 64.755267 245.76 
L 64.305026 243.072 
L 64.082988 240.384 
L 64.061959 237.696 
L 64.221104 235.008 
L 64.544689 232.32 
L 64.814545 230.81132 
L 65.011194 229.632 
L 65.599039 226.944 
L 66.314552 224.256 
L 67.155078 221.568 
L 68.120763 218.88 
L 68.421818 218.138279 
L 69.162712 216.192 
L 70.301199 213.504 
L 71.560644 210.816 
L 72.029091 209.900339 
L 72.883307 208.128 
L 74.292715 205.44 
L 75.636364 203.087358 
L 75.817457 202.752 
L 77.367724 200.064 
L 79.052282 197.376 
L 79.243636 197.087417 
L 80.754932 194.688 
L 82.585301 192 
L 82.850909 191.629353 
L 84.434168 189.312 
L 86.416367 186.624 
L 86.458182 186.569584 
L 88.394804 183.936 
L 90.065455 181.821536 
L 90.500268 181.248 
L 92.635227 178.56 
L 93.672727 177.325652 
L 94.849505 175.872 
L 97.162765 173.184 
L 97.28 173.052183 
L 99.477856 170.496 
L 100.887273 168.950444 
L 101.897174 167.808 
L 104.404909 165.12 
L 104.494545 165.026573 
L 106.916806 162.432 
L 108.101818 161.22599 
L 109.522608 159.744 
L 111.709091 157.571045 
L 112.21611 157.056 
L 114.961598 154.368 
L 115.316364 154.030943 
L 117.746528 151.68 
L 118.923636 150.586817 
L 120.614701 148.992 
L 122.530909 147.252343 
L 123.562341 146.304 
L 126.138182 144.017803 
L 126.586396 143.616 
L 129.678913 140.928 
L 129.745455 140.871215 
L 132.810124 138.24 
L 133.352727 137.786923 
L 136.020259 135.552 
L 136.96 134.784152 
L 139.308436 132.864 
L 140.567273 131.857444 
L 142.674436 130.176 
L 144.174545 129.002143 
L 146.118708 127.488 
L 147.781818 126.214322 
L 149.642373 124.8 
L 151.389091 123.490732 
L 153.247229 122.112 
L 154.996364 120.828725 
L 156.935777 119.424 
L 158.603636 118.226241 
L 160.711266 116.736 
L 162.210909 115.681773 
L 164.577738 114.048 
L 165.818182 113.194348 
L 168.540085 111.36 
L 169.425455 110.763505 
L 172.604119 108.672 
L 173.032727 108.389289 
L 176.64 106.06181 
L 176.762757 105.984 
L 180.247273 103.764876 
L 181.006203 103.296 
L 183.854545 101.520911 
L 185.368643 100.608 
L 187.461818 99.331429 
L 189.860344 97.92 
L 191.069091 97.198547 
L 194.49305 95.232 
L 194.676364 95.124917 
L 198.283636 93.061883 
L 199.224882 92.544 
L 201.890909 91.046932 
L 204.109621 89.856 
L 205.498182 89.09335 
L 209.105455 87.201553 
L 209.170879 87.168 
L 212.712727 85.302739 
L 214.358204 84.48 
L 216.32 83.469956 
L 219.761958 81.792 
L 219.927273 81.708786 
L 223.534545 79.939361 
L 225.335128 79.104 
L 227.141818 78.235593 
L 230.749091 76.594077 
L 231.153542 76.416 
L 234.356364 74.9501 
L 237.206639 73.728 
L 237.963636 73.38967 
L 241.570909 71.839879 
L 243.544031 71.04 
L 245.178182 70.347173 
L 248.785455 68.897128 
L 250.21264 68.352 
L 252.392727 67.478275 
L 256 66.118224 
L 257.26706 65.664 
L 259.607273 64.78088 
L 263.214545 63.503557 
L 264.789573 62.976 
L 266.821818 62.257136 
L 270.429091 61.057516 
L 272.900398 60.288 
L 274.036364 59.913258 
L 277.643636 58.788257 
L 281.250909 57.746295 
L 281.786549 57.6 
L 284.858182 56.708066 
L 288.465455 55.73732 
L 291.778281 54.912 
L 292.072727 54.833768 
L 295.68 53.936666 
L 299.287273 53.113082 
L 302.894545 52.357857 
L 303.590672 52.224 
L 306.501818 51.624863 
L 310.109091 50.952346 
L 313.716364 50.347907 
L 317.323636 49.809505 
L 319.414089 49.536 
L 320.930909 49.32289 
L 324.538182 48.889934 
L 328.145455 48.530048 
L 331.752727 48.244569 
L 335.36 48.03599 
L 338.967273 47.908043 
L 342.574545 47.865833 
L 346.181818 47.915985 
L 349.789091 48.066836 
L 353.396364 48.328643 
L 357.003636 48.713912 
L 360.610909 49.2378 
L 362.236849 49.536 
L 364.218182 49.913533 
L 367.825455 50.767738 
L 371.432727 51.834813 
L 372.552705 52.224 
L 375.04 53.161016 
L 378.647273 54.801081 
L 378.862624 54.912 
L 382.254545 56.880662 
L 383.332912 57.6 
L 385.861818 59.564873 
L 386.695276 60.288 
L 389.268176 62.976 
L 389.469091 63.23172 
L 391.245706 65.664 
L 392.73951 68.352 
L 393.076364 69.148244 
L 393.84522 71.04 
L 394.615861 73.728 
L 395.092167 76.416 
L 395.310965 79.104 
L 395.301117 81.792 
L 395.084884 84.48 
L 394.678973 87.168 
L 394.095322 89.856 
L 393.341693 92.544 
L 393.076364 93.31643 
L 392.458132 95.232 
L 391.438608 97.92 
L 390.268252 100.608 
L 389.469091 102.233221 
L 388.975085 103.296 
L 387.584966 105.984 
L 386.043322 108.672 
L 385.861818 108.963208 
L 384.441128 111.36 
L 382.696523 114.048 
L 382.254545 114.681455 
L 380.885613 116.736 
L 378.942213 119.424 
L 378.647273 119.808025 
L 376.950531 122.112 
L 375.04 124.513715 
L 374.821136 124.8 
L 372.653353 127.488 
L 371.432727 128.905507 
L 370.377043 130.176 
L 367.998217 132.864 
L 367.825455 133.051144 
L 365.588714 135.552 
L 364.218182 136.996171 
L 363.072027 138.24 
L 360.610909 140.764619 
L 360.455918 140.928 
L 357.808617 143.616 
L 357.003636 144.395971 
L 355.07971 146.304 
L 353.396364 147.896322 
L 352.262206 148.992 
L 349.789091 151.277126 
L 349.361232 151.68 
L 346.398117 154.368 
L 346.181818 154.558565 
L 343.389302 157.056 
L 342.574545 157.758711 
L 340.302035 159.744 
L 338.967273 160.871459 
L 337.139376 162.432 
L 335.36 163.904608 
L 333.90384 165.12 
L 331.752727 166.864907 
L 330.597423 167.808 
L 328.145455 169.758167 
L 327.221631 170.496 
L 324.538182 172.589379 
L 323.77749 173.184 
L 320.930909 175.362806 
L 320.265572 175.872 
L 317.323636 178.082068 
L 316.685995 178.56 
L 313.716364 180.750202 
L 313.038432 181.248 
L 310.109091 183.369696 
L 309.322078 183.936 
L 306.501818 185.942548 
L 305.535657 186.624 
L 302.894545 188.470309 
L 301.677414 189.312 
L 299.287273 190.954116 
L 297.745096 192 
L 295.68 193.394704 
L 293.735918 194.688 
L 292.072727 195.792433 
L 289.646536 197.376 
L 288.465455 198.147297 
L 285.47302 200.064 
L 284.858182 200.45894 
L 281.250909 202.728707 
L 281.213558 202.752 
L 277.643636 204.977032 
L 276.8822 205.44 
L 274.036364 207.19508 
L 272.483189 208.128 
L 270.429091 209.374099 
L 267.983416 210.816 
L 266.821818 211.509265 
L 263.37538 213.504 
L 263.214545 213.598449 
L 259.607273 215.687664 
L 258.709687 216.192 
L 256 217.740641 
L 253.933928 218.88 
L 252.392727 219.746477 
L 249.02767 221.568 
L 248.785455 221.701973 
L 245.178182 223.662322 
L 244.045473 224.256 
L 241.570909 225.584636 
L 238.927793 226.944 
L 237.963636 227.453135 
L 234.356364 229.296764 
L 233.681446 229.632 
L 230.749091 231.131335 
L 228.3093 232.32 
L 227.141818 232.906855 
L 223.534545 234.653423 
L 222.778765 235.008 
L 219.927273 236.391984 
L 217.092343 237.696 
L 216.32 238.06442 
L 212.712727 239.730118 
L 211.231884 240.384 
L 209.105455 241.360057 
L 205.498182 242.928432 
L 205.158312 243.072 
L 201.890909 244.510613 
L 198.86979 245.76 
L 198.283636 246.013241 
L 194.676364 247.519368 
L 192.318468 248.448 
L 191.069091 248.963451 
L 187.461818 250.386337 
L 185.454389 251.136 
L 183.854545 251.763588 
L 180.247273 253.10818 
L 178.215562 253.824 
L 176.64 254.408736 
L 173.032727 255.677972 
L 170.508655 256.512 
L 169.425455 256.890091 
L 165.818182 258.066182 
L 162.210909 259.16202 
L 162.081098 259.2 
L 158.603636 260.278403 
L 154.996364 261.314964 
L 152.85834 261.888 
L 151.389091 262.306613 
L 147.781818 263.263051 
L 144.174545 264.142202 
L 142.239549 264.576 
L 140.567273 264.975938 
L 136.96 265.762218 
L 133.352727 266.470787 
L 129.745455 267.103325 
L 128.697675 267.264 
L 126.138182 267.68447 
L 122.530909 268.18988 
L 118.923636 268.607024 
L 115.316364 268.932091 
L 111.709091 269.159172 
L 108.101818 269.279933 
L 104.494545 269.283194 
L 100.887273 269.154355 
L 97.28 268.874618 
L 93.672727 268.420009 
L 90.065455 267.760107 
z
" clip-path="url(#p97074d11f7)" style="fill: #481b6d"/>
    <path d="M 90.065455 267.760107 
L 93.672727 268.420009 
L 97.28 268.874618 
L 100.887273 269.154355 
L 104.494545 269.283194 
L 108.101818 269.279933 
L 111.709091 269.159172 
L 115.316364 268.932091 
L 118.923636 268.607024 
L 122.530909 268.18988 
L 126.138182 267.68447 
L 128.697675 267.264 
L 129.745455 267.103325 
L 133.352727 266.470787 
L 136.96 265.762218 
L 140.567273 264.975938 
L 142.239549 264.576 
L 144.174545 264.142202 
L 147.781818 263.263051 
L 151.389091 262.306613 
L 152.85834 261.888 
L 154.996364 261.314964 
L 158.603636 260.278403 
L 162.081098 259.2 
L 162.210909 259.16202 
L 165.818182 258.066182 
L 169.425455 256.890091 
L 170.508655 256.512 
L 173.032727 255.677972 
L 176.64 254.408736 
L 178.215562 253.824 
L 180.247273 253.10818 
L 183.854545 251.763588 
L 185.454389 251.136 
L 187.461818 250.386337 
L 191.069091 248.963451 
L 192.318468 248.448 
L 194.676364 247.519368 
L 198.283636 246.013241 
L 198.86979 245.76 
L 201.890909 244.510613 
L 205.158312 243.072 
L 205.498182 242.928432 
L 209.105455 241.360057 
L 211.231884 240.384 
L 212.712727 239.730118 
L 216.32 238.06442 
L 217.092343 237.696 
L 219.927273 236.391984 
L 222.778765 235.008 
L 223.534545 234.653423 
L 227.141818 232.906855 
L 228.3093 232.32 
L 230.749091 231.131335 
L 233.681446 229.632 
L 234.356364 229.296764 
L 237.963636 227.453135 
L 238.927793 226.944 
L 241.570909 225.584636 
L 244.045473 224.256 
L 245.178182 223.662322 
L 248.785455 221.701973 
L 249.02767 221.568 
L 252.392727 219.746477 
L 253.933928 218.88 
L 256 217.740641 
L 258.709687 216.192 
L 259.607273 215.687664 
L 263.214545 213.598449 
L 263.37538 213.504 
L 266.821818 211.509265 
L 267.983416 210.816 
L 270.429091 209.374099 
L 272.483189 208.128 
L 274.036364 207.19508 
L 276.8822 205.44 
L 277.643636 204.977032 
L 281.213558 202.752 
L 281.250909 202.728707 
L 284.858182 200.45894 
L 285.47302 200.064 
L 288.465455 198.147297 
L 289.646536 197.376 
L 292.072727 195.792433 
L 293.735918 194.688 
L 295.68 193.394704 
L 297.745096 192 
L 299.287273 190.954116 
L 301.677414 189.312 
L 302.894545 188.470309 
L 305.535657 186.624 
L 306.501818 185.942548 
L 309.322078 183.936 
L 310.109091 183.369696 
L 313.038432 181.248 
L 313.716364 180.750202 
L 316.685995 178.56 
L 317.323636 178.082068 
L 320.265572 175.872 
L 320.930909 175.362806 
L 323.77749 173.184 
L 324.538182 172.589379 
L 327.221631 170.496 
L 328.145455 169.758167 
L 330.597423 167.808 
L 331.752727 166.864907 
L 333.90384 165.12 
L 335.36 163.904608 
L 337.139376 162.432 
L 338.967273 160.871459 
L 340.302035 159.744 
L 342.574545 157.758711 
L 343.389302 157.056 
L 346.181818 154.558565 
L 346.398117 154.368 
L 349.361232 151.68 
L 349.789091 151.277126 
L 352.262206 148.992 
L 353.396364 147.896322 
L 355.07971 146.304 
L 357.003636 144.395971 
L 357.808617 143.616 
L 360.455918 140.928 
L 360.610909 140.764619 
L 363.072027 138.24 
L 364.218182 136.996171 
L 365.588714 135.552 
L 367.825455 133.051144 
L 367.998217 132.864 
L 370.377043 130.176 
L 371.432727 128.905507 
L 372.653353 127.488 
L 374.821136 124.8 
L 375.04 124.513715 
L 376.950531 122.112 
L 378.647273 119.808025 
L 378.942213 119.424 
L 380.885613 116.736 
L 382.254545 114.681455 
L 382.696523 114.048 
L 384.441128 111.36 
L 385.861818 108.963208 
L 386.043322 108.672 
L 387.584966 105.984 
L 388.975085 103.296 
L 389.469091 102.233221 
L 390.268252 100.608 
L 391.438608 97.92 
L 392.458132 95.232 
L 393.076364 93.31643 
L 393.341693 92.544 
L 394.095322 89.856 
L 394.678973 87.168 
L 395.084884 84.48 
L 395.301117 81.792 
L 395.310965 79.104 
L 395.092167 76.416 
L 394.615861 73.728 
L 393.84522 71.04 
L 393.076364 69.148244 
L 392.73951 68.352 
L 391.245706 65.664 
L 389.469091 63.23172 
L 389.268176 62.976 
L 386.695276 60.288 
L 385.861818 59.564873 
L 383.332912 57.6 
L 382.254545 56.880662 
L 378.862624 54.912 
L 378.647273 54.801081 
L 375.04 53.161016 
L 372.552705 52.224 
L 371.432727 51.834813 
L 367.825455 50.767738 
L 364.218182 49.913533 
L 362.236849 49.536 
L 360.610909 49.2378 
L 357.003636 48.713912 
L 353.396364 48.328643 
L 349.789091 48.066836 
L 346.181818 47.915985 
L 342.574545 47.865833 
L 338.967273 47.908043 
L 335.36 48.03599 
L 331.752727 48.244569 
L 328.145455 48.530048 
L 324.538182 48.889934 
L 320.930909 49.32289 
L 319.414089 49.536 
L 317.323636 49.809505 
L 313.716364 50.347907 
L 310.109091 50.952346 
L 306.501818 51.624863 
L 303.590672 52.224 
L 302.894545 52.357857 
L 299.287273 53.113082 
L 295.68 53.936666 
L 292.072727 54.833768 
L 291.778281 54.912 
L 288.465455 55.73732 
L 284.858182 56.708066 
L 281.786549 57.6 
L 281.250909 57.746295 
L 277.643636 58.788257 
L 274.036364 59.913258 
L 272.900398 60.288 
L 270.429091 61.057516 
L 266.821818 62.257136 
L 264.789573 62.976 
L 263.214545 63.503557 
L 259.607273 64.78088 
L 257.26706 65.664 
L 256 66.118224 
L 252.392727 67.478275 
L 250.21264 68.352 
L 248.785455 68.897128 
L 245.178182 70.347173 
L 243.544031 71.04 
L 241.570909 71.839879 
L 237.963636 73.38967 
L 237.206639 73.728 
L 234.356364 74.9501 
L 231.153542 76.416 
L 230.749091 76.594077 
L 227.141818 78.235593 
L 225.335128 79.104 
L 223.534545 79.939361 
L 219.927273 81.708786 
L 219.761958 81.792 
L 216.32 83.469956 
L 214.358204 84.48 
L 212.712727 85.302739 
L 209.170879 87.168 
L 209.105455 87.201553 
L 205.498182 89.09335 
L 204.109621 89.856 
L 201.890909 91.046932 
L 199.224882 92.544 
L 198.283636 93.061883 
L 194.676364 95.124917 
L 194.49305 95.232 
L 191.069091 97.198547 
L 189.860344 97.92 
L 187.461818 99.331429 
L 185.368643 100.608 
L 183.854545 101.520911 
L 181.006203 103.296 
L 180.247273 103.764876 
L 176.762757 105.984 
L 176.64 106.06181 
L 173.032727 108.389289 
L 172.604119 108.672 
L 169.425455 110.763505 
L 168.540085 111.36 
L 165.818182 113.194348 
L 164.577738 114.048 
L 162.210909 115.681773 
L 160.711266 116.736 
L 158.603636 118.226241 
L 156.935777 119.424 
L 154.996364 120.828725 
L 153.247229 122.112 
L 151.389091 123.490732 
L 149.642373 124.8 
L 147.781818 126.214322 
L 146.118708 127.488 
L 144.174545 129.002143 
L 142.674436 130.176 
L 140.567273 131.857444 
L 139.308436 132.864 
L 136.96 134.784152 
L 136.020259 135.552 
L 133.352727 137.786923 
L 132.810124 138.24 
L 129.745455 140.871215 
L 129.678913 140.928 
L 126.586396 143.616 
L 126.138182 144.017803 
L 123.562341 146.304 
L 122.530909 147.252343 
L 120.614701 148.992 
L 118.923636 150.586817 
L 117.746528 151.68 
L 115.316364 154.030943 
L 114.961598 154.368 
L 112.21611 157.056 
L 111.709091 157.571045 
L 109.522608 159.744 
L 108.101818 161.22599 
L 106.916806 162.432 
L 104.494545 165.026573 
L 104.404909 165.12 
L 101.897174 167.808 
L 100.887273 168.950444 
L 99.477856 170.496 
L 97.28 173.052183 
L 97.162765 173.184 
L 94.849505 175.872 
L 93.672727 177.325652 
L 92.635227 178.56 
L 90.500268 181.248 
L 90.065455 181.821536 
L 88.394804 183.936 
L 86.458182 186.569584 
L 86.416367 186.624 
L 84.434168 189.312 
L 82.850909 191.629353 
L 82.585301 192 
L 80.754932 194.688 
L 79.243636 197.087417 
L 79.052282 197.376 
L 77.367724 200.064 
L 75.817457 202.752 
L 75.636364 203.087358 
L 74.292715 205.44 
L 72.883307 208.128 
L 72.029091 209.900339 
L 71.560644 210.816 
L 70.301199 213.504 
L 69.162712 216.192 
L 68.421818 218.138279 
L 68.120763 218.88 
L 67.155078 221.568 
L 66.314552 224.256 
L 65.599039 226.944 
L 65.011194 229.632 
L 64.814545 230.81132 
L 64.544689 232.32 
L 64.221104 235.008 
L 64.061959 237.696 
L 64.082988 240.384 
L 64.305026 243.072 
L 64.755267 245.76 
L 64.814545 245.994982 
L 65.459662 248.448 
L 66.476011 251.136 
L 67.867478 253.824 
L 68.421818 254.677733 
L 69.732135 256.512 
L 72.029091 259.033005 
L 72.202013 259.2 
L 75.549377 261.888 
L 75.636364 261.947751 
L 79.243636 264.061489 
L 80.32631 264.576 
L 82.850909 265.652974 
L 86.458182 266.857303 
L 88.026346 267.264 
z
M 126.056099 245.76 
L 122.530909 245.490101 
L 118.923636 244.996472 
L 115.316364 244.239099 
L 111.709091 243.157696 
L 111.483217 243.072 
L 108.101818 241.603167 
L 105.945351 240.384 
L 104.494545 239.401284 
L 102.433887 237.696 
L 100.887273 236.068086 
L 100.022824 235.008 
L 98.346746 232.32 
L 97.28 229.86597 
L 97.187839 229.632 
L 96.450674 226.944 
L 96.04088 224.256 
L 95.908217 221.568 
L 96.014433 218.88 
L 96.330697 216.192 
L 96.835749 213.504 
L 97.28 211.759421 
L 97.508951 210.816 
L 98.326104 208.128 
L 99.287914 205.44 
L 100.391063 202.752 
L 100.887273 201.684058 
L 101.608253 200.064 
L 102.936917 197.376 
L 104.397954 194.688 
L 104.494545 194.524812 
L 105.932231 192 
L 107.592121 189.312 
L 108.101818 188.543989 
L 109.331999 186.624 
L 111.182162 183.936 
L 111.709091 183.216538 
L 113.106012 181.248 
L 115.145826 178.56 
L 115.316364 178.346373 
L 117.237183 175.872 
L 118.923636 173.831187 
L 119.445069 173.184 
L 121.7206 170.496 
L 122.530909 169.585368 
L 124.07856 167.808 
L 126.138182 165.566411 
L 126.540615 165.12 
L 129.065774 162.432 
L 129.745455 161.738389 
L 131.670031 159.744 
L 133.352727 158.077581 
L 134.371257 157.056 
L 136.96 154.567622 
L 137.165591 154.368 
L 140.02181 151.68 
L 140.567273 151.183767 
L 142.961287 148.992 
L 144.174545 147.918868 
L 145.993557 146.304 
L 147.781818 144.765944 
L 149.117415 143.616 
L 151.389091 141.715828 
L 152.332432 140.928 
L 154.996364 138.760619 
L 155.638958 138.24 
L 158.603636 135.89354 
L 159.038126 135.552 
L 162.210909 133.108819 
L 162.531866 132.864 
L 165.818182 130.401599 
L 166.122936 130.176 
L 169.425455 127.767857 
L 169.814937 127.488 
L 173.032727 125.204258 
L 173.612296 124.8 
L 176.64 122.708271 
L 177.52053 122.112 
L 180.247273 120.278096 
L 181.546285 119.424 
L 183.854545 117.912512 
L 185.69292 116.736 
L 187.461818 115.605696 
L 189.973411 114.048 
L 191.069091 113.367516 
L 194.401719 111.36 
L 194.676364 111.193875 
L 198.283636 109.062712 
L 198.9656 108.672 
L 201.890909 106.983703 
L 203.688803 105.984 
L 205.498182 104.967728 
L 208.595631 103.296 
L 209.105455 103.017294 
L 212.712727 101.100412 
L 213.676863 100.608 
L 216.32 99.236299 
L 218.977517 97.92 
L 219.927273 97.440674 
L 223.534545 95.689342 
L 224.515218 95.232 
L 227.141818 93.979974 
L 230.319588 92.544 
L 230.749091 92.345076 
L 234.356364 90.734976 
L 236.433677 89.856 
L 237.963636 89.190421 
L 241.570909 87.697158 
L 242.913404 87.168 
L 245.178182 86.247391 
L 248.785455 84.863097 
L 249.83509 84.48 
L 252.392727 83.514387 
L 256 82.234178 
L 257.317585 81.792 
L 259.607273 80.994754 
L 263.214545 79.816668 
L 265.543638 79.104 
L 266.821818 78.69701 
L 270.429091 77.621842 
L 274.036364 76.624245 
L 274.846812 76.416 
L 277.643636 75.665875 
L 281.250909 74.775812 
L 284.858182 73.96039 
L 285.991037 73.728 
L 288.465455 73.196633 
L 292.072727 72.502219 
L 295.68 71.886261 
L 299.287273 71.349035 
L 301.743824 71.04 
L 302.894545 70.888064 
L 306.501818 70.506938 
L 310.109091 70.219975 
L 313.716364 70.033108 
L 317.323636 69.954376 
L 320.930909 69.994251 
L 324.538182 70.166056 
L 328.145455 70.486507 
L 331.752727 70.9764 
L 332.105248 71.04 
L 335.36 71.673649 
L 338.967273 72.613686 
L 342.261372 73.728 
L 342.574545 73.847292 
L 346.181818 75.509189 
L 347.79506 76.416 
L 349.789091 77.747937 
L 351.518322 79.104 
L 353.396364 80.947329 
L 354.156238 81.792 
L 356.033053 84.48 
L 357.003636 86.422817 
L 357.347123 87.168 
L 358.207126 89.856 
L 358.696476 92.544 
L 358.869611 95.232 
L 358.768265 97.92 
L 358.424061 100.608 
L 357.86044 103.296 
L 357.094075 105.984 
L 357.003636 106.234109 
L 356.16295 108.672 
L 355.062632 111.36 
L 353.794025 114.048 
L 353.396364 114.790146 
L 352.396324 116.736 
L 350.857089 119.424 
L 349.789091 121.114893 
L 349.182603 122.112 
L 347.397655 124.8 
L 346.181818 126.486173 
L 345.483381 127.488 
L 343.465207 130.176 
L 342.574545 131.282839 
L 341.339464 132.864 
L 339.089681 135.552 
L 338.967273 135.690632 
L 336.773514 138.24 
L 335.36 139.784465 
L 334.337724 140.928 
L 331.791879 143.616 
L 331.752727 143.655642 
L 329.187852 146.304 
L 328.145455 147.32695 
L 326.477909 148.992 
L 324.538182 150.838502 
L 323.667436 151.68 
L 320.930909 154.208979 
L 320.761032 154.368 
L 317.786006 157.056 
L 317.323636 157.459025 
L 314.725694 159.744 
L 313.716364 160.600789 
L 311.573682 162.432 
L 310.109091 163.643447 
L 308.33208 165.12 
L 306.501818 166.595986 
L 305.002353 167.808 
L 302.894545 169.46606 
L 301.585336 170.496 
L 299.287273 172.260156 
L 298.081244 173.184 
L 295.68 174.983742 
L 294.489675 175.872 
L 292.072727 177.641386 
L 290.809609 178.56 
L 288.465455 180.23685 
L 287.039386 181.248 
L 284.858182 182.773165 
L 283.176682 183.936 
L 281.250909 185.252705 
L 279.218489 186.624 
L 277.643636 187.67724 
L 275.161078 189.312 
L 274.036364 190.047979 
L 270.999951 192 
L 270.429091 192.365605 
L 266.821818 194.633195 
L 266.733533 194.688 
L 263.214545 196.85635 
L 262.351339 197.376 
L 259.607273 199.041133 
L 257.878484 200.064 
L 256 201.17958 
L 253.27839 202.752 
L 252.392727 203.26687 
L 248.785455 205.308927 
L 248.549499 205.44 
L 245.178182 207.329256 
L 243.705018 208.128 
L 241.570909 209.298176 
L 238.703375 210.816 
L 237.963636 211.212947 
L 234.356364 213.095543 
L 233.550136 213.504 
L 230.749091 214.946417 
L 228.229101 216.192 
L 227.141818 216.739597 
L 223.534545 218.494755 
L 222.716508 218.88 
L 219.927273 220.221996 
L 216.995413 221.568 
L 216.32 221.885568 
L 212.712727 223.525676 
L 211.033977 224.256 
L 209.105455 225.117572 
L 205.498182 226.654612 
L 204.792486 226.944 
L 201.890909 228.169238 
L 198.283636 229.608597 
L 198.222712 229.632 
L 194.676364 231.038629 
L 191.24153 232.32 
L 191.069091 232.386589 
L 187.461818 233.719219 
L 183.854545 234.968674 
L 183.735011 235.008 
L 180.247273 236.199535 
L 176.64 237.351031 
L 175.488715 237.696 
L 173.032727 238.462659 
L 169.425455 239.510172 
L 166.177978 240.384 
L 165.818182 240.485104 
L 162.210909 241.417881 
L 158.603636 242.268589 
L 154.996364 243.038852 
L 154.820418 243.072 
L 151.389091 243.749586 
L 147.781818 244.369814 
L 144.174545 244.869144 
L 140.567273 245.288451 
L 136.96 245.598844 
L 133.999599 245.76 
L 133.352727 245.797055 
L 129.745455 245.859811 
L 126.138182 245.76594 
z
" clip-path="url(#p97074d11f7)" style="fill: #3f4788"/>
    <path d="M 126.138182 245.76594 
L 129.745455 245.859811 
L 133.352727 245.797055 
L 133.999599 245.76 
L 136.96 245.598844 
L 140.567273 245.288451 
L 144.174545 244.869144 
L 147.781818 244.369814 
L 151.389091 243.749586 
L 154.820418 243.072 
L 154.996364 243.038852 
L 158.603636 242.268589 
L 162.210909 241.417881 
L 165.818182 240.485104 
L 166.177978 240.384 
L 169.425455 239.510172 
L 173.032727 238.462659 
L 175.488715 237.696 
L 176.64 237.351031 
L 180.247273 236.199535 
L 183.735011 235.008 
L 183.854545 234.968674 
L 187.461818 233.719219 
L 191.069091 232.386589 
L 191.24153 232.32 
L 194.676364 231.038629 
L 198.222712 229.632 
L 198.283636 229.608597 
L 201.890909 228.169238 
L 204.792486 226.944 
L 205.498182 226.654612 
L 209.105455 225.117572 
L 211.033977 224.256 
L 212.712727 223.525676 
L 216.32 221.885568 
L 216.995413 221.568 
L 219.927273 220.221996 
L 222.716508 218.88 
L 223.534545 218.494755 
L 227.141818 216.739597 
L 228.229101 216.192 
L 230.749091 214.946417 
L 233.550136 213.504 
L 234.356364 213.095543 
L 237.963636 211.212947 
L 238.703375 210.816 
L 241.570909 209.298176 
L 243.705018 208.128 
L 245.178182 207.329256 
L 248.549499 205.44 
L 248.785455 205.308927 
L 252.392727 203.26687 
L 253.27839 202.752 
L 256 201.17958 
L 257.878484 200.064 
L 259.607273 199.041133 
L 262.351339 197.376 
L 263.214545 196.85635 
L 266.733533 194.688 
L 266.821818 194.633195 
L 270.429091 192.365605 
L 270.999951 192 
L 274.036364 190.047979 
L 275.161078 189.312 
L 277.643636 187.67724 
L 279.218489 186.624 
L 281.250909 185.252705 
L 283.176682 183.936 
L 284.858182 182.773165 
L 287.039386 181.248 
L 288.465455 180.23685 
L 290.809609 178.56 
L 292.072727 177.641386 
L 294.489675 175.872 
L 295.68 174.983742 
L 298.081244 173.184 
L 299.287273 172.260156 
L 301.585336 170.496 
L 302.894545 169.46606 
L 305.002353 167.808 
L 306.501818 166.595986 
L 308.33208 165.12 
L 310.109091 163.643447 
L 311.573682 162.432 
L 313.716364 160.600789 
L 314.725694 159.744 
L 317.323636 157.459025 
L 317.786006 157.056 
L 320.761032 154.368 
L 320.930909 154.208979 
L 323.667436 151.68 
L 324.538182 150.838502 
L 326.477909 148.992 
L 328.145455 147.32695 
L 329.187852 146.304 
L 331.752727 143.655642 
L 331.791879 143.616 
L 334.337724 140.928 
L 335.36 139.784465 
L 336.773514 138.24 
L 338.967273 135.690632 
L 339.089681 135.552 
L 341.339464 132.864 
L 342.574545 131.282839 
L 343.465207 130.176 
L 345.483381 127.488 
L 346.181818 126.486173 
L 347.397655 124.8 
L 349.182603 122.112 
L 349.789091 121.114893 
L 350.857089 119.424 
L 352.396324 116.736 
L 353.396364 114.790146 
L 353.794025 114.048 
L 355.062632 111.36 
L 356.16295 108.672 
L 357.003636 106.234109 
L 357.094075 105.984 
L 357.86044 103.296 
L 358.424061 100.608 
L 358.768265 97.92 
L 358.869611 95.232 
L 358.696476 92.544 
L 358.207126 89.856 
L 357.347123 87.168 
L 357.003636 86.422817 
L 356.033053 84.48 
L 354.156238 81.792 
L 353.396364 80.947329 
L 351.518322 79.104 
L 349.789091 77.747937 
L 347.79506 76.416 
L 346.181818 75.509189 
L 342.574545 73.847292 
L 342.261372 73.728 
L 338.967273 72.613686 
L 335.36 71.673649 
L 332.105248 71.04 
L 331.752727 70.9764 
L 328.145455 70.486507 
L 324.538182 70.166056 
L 320.930909 69.994251 
L 317.323636 69.954376 
L 313.716364 70.033108 
L 310.109091 70.219975 
L 306.501818 70.506938 
L 302.894545 70.888064 
L 301.743824 71.04 
L 299.287273 71.349035 
L 295.68 71.886261 
L 292.072727 72.502219 
L 288.465455 73.196633 
L 285.991037 73.728 
L 284.858182 73.96039 
L 281.250909 74.775812 
L 277.643636 75.665875 
L 274.846812 76.416 
L 274.036364 76.624245 
L 270.429091 77.621842 
L 266.821818 78.69701 
L 265.543638 79.104 
L 263.214545 79.816668 
L 259.607273 80.994754 
L 257.317585 81.792 
L 256 82.234178 
L 252.392727 83.514387 
L 249.83509 84.48 
L 248.785455 84.863097 
L 245.178182 86.247391 
L 242.913404 87.168 
L 241.570909 87.697158 
L 237.963636 89.190421 
L 236.433677 89.856 
L 234.356364 90.734976 
L 230.749091 92.345076 
L 230.319588 92.544 
L 227.141818 93.979974 
L 224.515218 95.232 
L 223.534545 95.689342 
L 219.927273 97.440674 
L 218.977517 97.92 
L 216.32 99.236299 
L 213.676863 100.608 
L 212.712727 101.100412 
L 209.105455 103.017294 
L 208.595631 103.296 
L 205.498182 104.967728 
L 203.688803 105.984 
L 201.890909 106.983703 
L 198.9656 108.672 
L 198.283636 109.062712 
L 194.676364 111.193875 
L 194.401719 111.36 
L 191.069091 113.367516 
L 189.973411 114.048 
L 187.461818 115.605696 
L 185.69292 116.736 
L 183.854545 117.912512 
L 181.546285 119.424 
L 180.247273 120.278096 
L 177.52053 122.112 
L 176.64 122.708271 
L 173.612296 124.8 
L 173.032727 125.204258 
L 169.814937 127.488 
L 169.425455 127.767857 
L 166.122936 130.176 
L 165.818182 130.401599 
L 162.531866 132.864 
L 162.210909 133.108819 
L 159.038126 135.552 
L 158.603636 135.89354 
L 155.638958 138.24 
L 154.996364 138.760619 
L 152.332432 140.928 
L 151.389091 141.715828 
L 149.117415 143.616 
L 147.781818 144.765944 
L 145.993557 146.304 
L 144.174545 147.918868 
L 142.961287 148.992 
L 140.567273 151.183767 
L 140.02181 151.68 
L 137.165591 154.368 
L 136.96 154.567622 
L 134.371257 157.056 
L 133.352727 158.077581 
L 131.670031 159.744 
L 129.745455 161.738389 
L 129.065774 162.432 
L 126.540615 165.12 
L 126.138182 165.566411 
L 124.07856 167.808 
L 122.530909 169.585368 
L 121.7206 170.496 
L 119.445069 173.184 
L 118.923636 173.831187 
L 117.237183 175.872 
L 115.316364 178.346373 
L 115.145826 178.56 
L 113.106012 181.248 
L 111.709091 183.216538 
L 111.182162 183.936 
L 109.331999 186.624 
L 108.101818 188.543989 
L 107.592121 189.312 
L 105.932231 192 
L 104.494545 194.524812 
L 104.397954 194.688 
L 102.936917 197.376 
L 101.608253 200.064 
L 100.887273 201.684058 
L 100.391063 202.752 
L 99.287914 205.44 
L 98.326104 208.128 
L 97.508951 210.816 
L 97.28 211.759421 
L 96.835749 213.504 
L 96.330697 216.192 
L 96.014433 218.88 
L 95.908217 221.568 
L 96.04088 224.256 
L 96.450674 226.944 
L 97.187839 229.632 
L 97.28 229.86597 
L 98.346746 232.32 
L 100.022824 235.008 
L 100.887273 236.068086 
L 102.433887 237.696 
L 104.494545 239.401284 
L 105.945351 240.384 
L 108.101818 241.603167 
L 111.483217 243.072 
L 111.709091 243.157696 
L 115.316364 244.239099 
L 118.923636 244.996472 
L 122.530909 245.490101 
L 126.056099 245.76 
z
M 133.538697 226.944 
L 133.352727 226.889092 
L 129.745455 225.426337 
L 127.644479 224.256 
L 126.138182 223.20358 
L 124.288318 221.568 
L 122.530909 219.441998 
L 122.14145 218.88 
L 120.799515 216.192 
L 119.983041 213.504 
L 119.58527 210.816 
L 119.528113 208.128 
L 119.754253 205.44 
L 120.221764 202.752 
L 120.900385 200.064 
L 121.768926 197.376 
L 122.530909 195.428708 
L 122.812021 194.688 
L 124.009754 192 
L 125.356396 189.312 
L 126.138182 187.914502 
L 126.841203 186.624 
L 128.45193 183.936 
L 129.745455 181.951095 
L 130.193163 181.248 
L 132.043881 178.56 
L 133.352727 176.788823 
L 134.017016 175.872 
L 136.095518 173.184 
L 136.96 172.131933 
L 138.282648 170.496 
L 140.567273 167.831173 
L 140.586871 167.808 
L 142.976432 165.12 
L 144.174545 163.84003 
L 145.479336 162.432 
L 147.781818 160.06537 
L 148.092153 159.744 
L 150.797749 157.056 
L 151.389091 156.491611 
L 153.60552 154.368 
L 154.996364 153.086963 
L 156.52199 151.68 
L 158.603636 149.829173 
L 159.546471 148.992 
L 162.210909 146.704475 
L 162.67921 146.304 
L 165.818182 143.701025 
L 165.921384 143.616 
L 169.271774 140.928 
L 169.425455 140.807644 
L 172.737446 138.24 
L 173.032727 138.016123 
L 176.324625 135.552 
L 176.64 135.320476 
L 180.038106 132.864 
L 180.247273 132.715289 
L 183.854545 130.195796 
L 183.883393 130.176 
L 187.461818 127.753867 
L 187.863415 127.488 
L 191.069091 125.388772 
L 191.987298 124.8 
L 194.676364 123.090064 
L 196.262165 122.112 
L 198.283636 120.871835 
L 200.715449 119.424 
L 201.890909 118.72592 
L 205.352694 116.736 
L 205.498182 116.652347 
L 209.105455 114.63413 
L 210.19118 114.048 
L 212.712727 112.682362 
L 215.240536 111.36 
L 216.32 110.79221 
L 219.927273 108.974241 
L 220.549739 108.672 
L 223.534545 107.209689 
L 226.155404 105.984 
L 227.141818 105.517232 
L 230.749091 103.882485 
L 232.104576 103.296 
L 234.356364 102.307342 
L 237.963636 100.803936 
L 238.456942 100.608 
L 241.570909 99.349372 
L 245.178182 97.973422 
L 245.326076 97.92 
L 248.785455 96.64482 
L 252.392727 95.396084 
L 252.897945 95.232 
L 256 94.201045 
L 259.607273 93.082981 
L 261.479849 92.544 
L 263.214545 92.031669 
L 266.821818 91.051577 
L 270.429091 90.151977 
L 271.744675 89.856 
L 274.036364 89.325665 
L 277.643636 88.582911 
L 281.250909 87.929517 
L 284.858182 87.368532 
L 286.448117 87.168 
L 288.465455 86.905827 
L 292.072727 86.552506 
L 295.68 86.318458 
L 299.287273 86.216174 
L 302.894545 86.262091 
L 306.501818 86.477476 
L 310.109091 86.88963 
L 311.725524 87.168 
L 313.716364 87.552036 
L 317.323636 88.530676 
L 320.859625 89.856 
L 320.930909 89.887702 
L 324.538182 91.89938 
L 325.466013 92.544 
L 328.145455 94.946141 
L 328.414867 95.232 
L 330.328833 97.92 
L 331.57431 100.608 
L 331.752727 101.242024 
L 332.278485 103.296 
L 332.565889 105.984 
L 332.507519 108.672 
L 332.152219 111.36 
L 331.752727 113.080334 
L 331.536435 114.048 
L 330.692278 116.736 
L 329.641362 119.424 
L 328.396595 122.112 
L 328.145455 122.577625 
L 326.983866 124.8 
L 325.405604 127.488 
L 324.538182 128.816846 
L 323.675083 130.176 
L 321.802363 132.864 
L 320.930909 134.014469 
L 319.793528 135.552 
L 317.648566 138.24 
L 317.323636 138.620323 
L 315.390801 140.928 
L 313.716364 142.801392 
L 313.000894 143.616 
L 310.4957 146.304 
L 310.109091 146.697545 
L 307.885703 148.992 
L 306.501818 150.34758 
L 305.156939 151.68 
L 302.894545 153.815016 
L 302.313838 154.368 
L 299.361971 157.056 
L 299.287273 157.121552 
L 296.314686 159.744 
L 295.68 160.283053 
L 293.157329 162.432 
L 292.072727 163.324231 
L 289.89124 165.12 
L 288.465455 166.256871 
L 286.516949 167.808 
L 284.858182 169.090878 
L 283.034173 170.496 
L 281.250909 171.834537 
L 279.441817 173.184 
L 277.643636 174.494737 
L 275.737951 175.872 
L 274.036364 177.077143 
L 271.919785 178.56 
L 270.429091 179.586344 
L 267.983628 181.248 
L 266.821818 182.025966 
L 263.924812 183.936 
L 263.214545 184.398755 
L 259.737673 186.624 
L 259.607273 186.706696 
L 256 188.959771 
L 255.419904 189.312 
L 252.392727 191.138688 
L 250.943249 192 
L 248.785455 193.277165 
L 246.339308 194.688 
L 245.178182 195.356839 
L 241.572429 197.376 
L 241.570909 197.376852 
L 237.963636 199.357727 
L 236.635758 200.064 
L 234.356364 201.281231 
L 231.505989 202.752 
L 230.749091 203.145156 
L 227.141818 204.961883 
L 226.160057 205.44 
L 223.534545 206.730574 
L 220.573517 208.128 
L 219.927273 208.436649 
L 216.32 210.09903 
L 214.697804 210.816 
L 212.712727 211.706285 
L 209.105455 213.252194 
L 208.492339 213.504 
L 205.498182 214.755221 
L 201.890909 216.186189 
L 201.875536 216.192 
L 198.283636 217.577281 
L 194.707127 218.88 
L 194.676364 218.891463 
L 191.069091 220.160083 
L 187.461818 221.350752 
L 186.756003 221.568 
L 183.854545 222.484267 
L 180.247273 223.540892 
L 177.598812 224.256 
L 176.64 224.522364 
L 173.032727 225.428634 
L 169.425455 226.231503 
L 165.945902 226.944 
L 165.818182 226.970461 
L 162.210909 227.558254 
L 158.603636 228.082916 
L 154.996364 228.453841 
L 151.389091 228.707828 
L 147.781818 228.803666 
L 144.174545 228.713991 
L 140.567273 228.401582 
L 136.96 227.816774 
z
" clip-path="url(#p97074d11f7)" style="fill: #2e6e8e"/>
    <path d="M 136.96 227.816774 
L 140.567273 228.401582 
L 144.174545 228.713991 
L 147.781818 228.803666 
L 151.389091 228.707828 
L 154.996364 228.453841 
L 158.603636 228.082916 
L 162.210909 227.558254 
L 165.818182 226.970461 
L 165.945902 226.944 
L 169.425455 226.231503 
L 173.032727 225.428634 
L 176.64 224.522364 
L 177.598812 224.256 
L 180.247273 223.540892 
L 183.854545 222.484267 
L 186.756003 221.568 
L 187.461818 221.350752 
L 191.069091 220.160083 
L 194.676364 218.891463 
L 194.707127 218.88 
L 198.283636 217.577281 
L 201.875536 216.192 
L 201.890909 216.186189 
L 205.498182 214.755221 
L 208.492339 213.504 
L 209.105455 213.252194 
L 212.712727 211.706285 
L 214.697804 210.816 
L 216.32 210.09903 
L 219.927273 208.436649 
L 220.573517 208.128 
L 223.534545 206.730574 
L 226.160057 205.44 
L 227.141818 204.961883 
L 230.749091 203.145156 
L 231.505989 202.752 
L 234.356364 201.281231 
L 236.635758 200.064 
L 237.963636 199.357727 
L 241.570909 197.376852 
L 241.572429 197.376 
L 245.178182 195.356839 
L 246.339308 194.688 
L 248.785455 193.277165 
L 250.943249 192 
L 252.392727 191.138688 
L 255.419904 189.312 
L 256 188.959771 
L 259.607273 186.706696 
L 259.737673 186.624 
L 263.214545 184.398755 
L 263.924812 183.936 
L 266.821818 182.025966 
L 267.983628 181.248 
L 270.429091 179.586344 
L 271.919785 178.56 
L 274.036364 177.077143 
L 275.737951 175.872 
L 277.643636 174.494737 
L 279.441817 173.184 
L 281.250909 171.834537 
L 283.034173 170.496 
L 284.858182 169.090878 
L 286.516949 167.808 
L 288.465455 166.256871 
L 289.89124 165.12 
L 292.072727 163.324231 
L 293.157329 162.432 
L 295.68 160.283053 
L 296.314686 159.744 
L 299.287273 157.121552 
L 299.361971 157.056 
L 302.313838 154.368 
L 302.894545 153.815016 
L 305.156939 151.68 
L 306.501818 150.34758 
L 307.885703 148.992 
L 310.109091 146.697545 
L 310.4957 146.304 
L 313.000894 143.616 
L 313.716364 142.801392 
L 315.390801 140.928 
L 317.323636 138.620323 
L 317.648566 138.24 
L 319.793528 135.552 
L 320.930909 134.014469 
L 321.802363 132.864 
L 323.675083 130.176 
L 324.538182 128.816846 
L 325.405604 127.488 
L 326.983866 124.8 
L 328.145455 122.577625 
L 328.396595 122.112 
L 329.641362 119.424 
L 330.692278 116.736 
L 331.536435 114.048 
L 331.752727 113.080334 
L 332.152219 111.36 
L 332.507519 108.672 
L 332.565889 105.984 
L 332.278485 103.296 
L 331.752727 101.242024 
L 331.57431 100.608 
L 330.328833 97.92 
L 328.414867 95.232 
L 328.145455 94.946141 
L 325.466013 92.544 
L 324.538182 91.89938 
L 320.930909 89.887702 
L 320.859625 89.856 
L 317.323636 88.530676 
L 313.716364 87.552036 
L 311.725524 87.168 
L 310.109091 86.88963 
L 306.501818 86.477476 
L 302.894545 86.262091 
L 299.287273 86.216174 
L 295.68 86.318458 
L 292.072727 86.552506 
L 288.465455 86.905827 
L 286.448117 87.168 
L 284.858182 87.368532 
L 281.250909 87.929517 
L 277.643636 88.582911 
L 274.036364 89.325665 
L 271.744675 89.856 
L 270.429091 90.151977 
L 266.821818 91.051577 
L 263.214545 92.031669 
L 261.479849 92.544 
L 259.607273 93.082981 
L 256 94.201045 
L 252.897945 95.232 
L 252.392727 95.396084 
L 248.785455 96.64482 
L 245.326076 97.92 
L 245.178182 97.973422 
L 241.570909 99.349372 
L 238.456942 100.608 
L 237.963636 100.803936 
L 234.356364 102.307342 
L 232.104576 103.296 
L 230.749091 103.882485 
L 227.141818 105.517232 
L 226.155404 105.984 
L 223.534545 107.209689 
L 220.549739 108.672 
L 219.927273 108.974241 
L 216.32 110.79221 
L 215.240536 111.36 
L 212.712727 112.682362 
L 210.19118 114.048 
L 209.105455 114.63413 
L 205.498182 116.652347 
L 205.352694 116.736 
L 201.890909 118.72592 
L 200.715449 119.424 
L 198.283636 120.871835 
L 196.262165 122.112 
L 194.676364 123.090064 
L 191.987298 124.8 
L 191.069091 125.388772 
L 187.863415 127.488 
L 187.461818 127.753867 
L 183.883393 130.176 
L 183.854545 130.195796 
L 180.247273 132.715289 
L 180.038106 132.864 
L 176.64 135.320476 
L 176.324625 135.552 
L 173.032727 138.016123 
L 172.737446 138.24 
L 169.425455 140.807644 
L 169.271774 140.928 
L 165.921384 143.616 
L 165.818182 143.701025 
L 162.67921 146.304 
L 162.210909 146.704475 
L 159.546471 148.992 
L 158.603636 149.829173 
L 156.52199 151.68 
L 154.996364 153.086963 
L 153.60552 154.368 
L 151.389091 156.491611 
L 150.797749 157.056 
L 148.092153 159.744 
L 147.781818 160.06537 
L 145.479336 162.432 
L 144.174545 163.84003 
L 142.976432 165.12 
L 140.586871 167.808 
L 140.567273 167.831173 
L 138.282648 170.496 
L 136.96 172.131933 
L 136.095518 173.184 
L 134.017016 175.872 
L 133.352727 176.788823 
L 132.043881 178.56 
L 130.193163 181.248 
L 129.745455 181.951095 
L 128.45193 183.936 
L 126.841203 186.624 
L 126.138182 187.914502 
L 125.356396 189.312 
L 124.009754 192 
L 122.812021 194.688 
L 122.530909 195.428708 
L 121.768926 197.376 
L 120.900385 200.064 
L 120.221764 202.752 
L 119.754253 205.44 
L 119.528113 208.128 
L 119.58527 210.816 
L 119.983041 213.504 
L 120.799515 216.192 
L 122.14145 218.88 
L 122.530909 219.441998 
L 124.288318 221.568 
L 126.138182 223.20358 
L 127.644479 224.256 
L 129.745455 225.426337 
L 133.352727 226.889092 
L 133.538697 226.944 
z
M 158.03547 213.504 
L 154.996364 213.05363 
L 151.389091 212.098854 
L 148.313317 210.816 
L 147.781818 210.531366 
L 144.564495 208.128 
L 144.174545 207.710804 
L 142.501516 205.44 
L 141.309701 202.752 
L 140.731885 200.064 
L 140.623633 197.376 
L 140.885055 194.688 
L 141.446451 192 
L 142.259235 189.312 
L 143.290065 186.624 
L 144.174545 184.705882 
L 144.52391 183.936 
L 145.949833 181.248 
L 147.534883 178.56 
L 147.781818 178.185734 
L 149.289642 175.872 
L 151.186166 173.184 
L 151.389091 172.919876 
L 153.234477 170.496 
L 154.996364 168.328633 
L 155.416855 167.808 
L 157.736318 165.12 
L 158.603636 164.171673 
L 160.189663 162.432 
L 162.210909 160.328624 
L 162.772362 159.744 
L 165.485247 157.056 
L 165.818182 156.74076 
L 168.330998 154.368 
L 169.425455 153.376629 
L 171.308651 151.68 
L 173.032727 150.185288 
L 174.42019 148.992 
L 176.64 147.149102 
L 177.668804 146.304 
L 180.247273 144.253122 
L 181.058955 143.616 
L 183.854545 141.484724 
L 184.596451 140.928 
L 187.461818 138.833314 
L 188.288533 138.24 
L 191.069091 136.290081 
L 192.143986 135.552 
L 194.676364 133.847795 
L 196.173277 132.864 
L 198.283636 131.494792 
L 200.368689 130.176 
L 201.890909 129.231173 
L 204.781613 127.488 
L 205.498182 127.060744 
L 209.105455 124.975767 
L 209.419591 124.8 
L 212.712727 122.973379 
L 214.322714 122.112 
L 216.32 121.049542 
L 219.47185 119.424 
L 219.927273 119.18994 
L 223.534545 117.424277 
L 225.003447 116.736 
L 227.141818 115.734214 
L 230.749091 114.121185 
L 230.9215 114.048 
L 234.356364 112.586491 
L 237.3912 111.36 
L 237.963636 111.127418 
L 241.570909 109.749831 
L 244.564151 108.672 
L 245.178182 108.449148 
L 248.785455 107.234674 
L 252.392727 106.100302 
L 252.799135 105.984 
L 256 105.059059 
L 259.607273 104.108447 
L 263.021508 103.296 
L 263.214545 103.249506 
L 266.821818 102.504283 
L 270.429091 101.868189 
L 274.036364 101.35026 
L 277.643636 100.963749 
L 281.250909 100.727138 
L 284.858182 100.665582 
L 288.465455 100.81309 
L 292.072727 101.215561 
L 295.68 101.935244 
L 299.287273 103.057419 
L 299.859083 103.296 
L 302.894545 104.903118 
L 304.426771 105.984 
L 306.501818 108.027922 
L 307.032066 108.672 
L 308.520838 111.36 
L 309.316554 114.048 
L 309.57675 116.736 
L 309.411838 119.424 
L 308.899819 122.112 
L 308.095734 124.8 
L 307.037883 127.488 
L 306.501818 128.586426 
L 305.742962 130.176 
L 304.240754 132.864 
L 302.894545 134.995081 
L 302.549145 135.552 
L 300.676131 138.24 
L 299.287273 140.062366 
L 298.637195 140.928 
L 296.44007 143.616 
L 295.68 144.478869 
L 294.089974 146.304 
L 292.072727 148.473223 
L 291.594435 148.992 
L 288.957931 151.68 
L 288.465455 152.155001 
L 286.182423 154.368 
L 284.858182 155.588645 
L 283.270367 157.056 
L 281.250909 158.837505 
L 280.223489 159.744 
L 277.643636 161.924911 
L 277.042427 162.432 
L 274.036364 164.870052 
L 273.726733 165.12 
L 270.429091 167.688705 
L 270.274847 167.808 
L 266.821818 170.393808 
L 266.684042 170.496 
L 263.214545 172.995962 
L 262.950433 173.184 
L 259.607273 175.503788 
L 259.068909 175.872 
L 256 177.924207 
L 255.033033 178.56 
L 252.392727 180.262662 
L 250.834918 181.248 
L 248.785455 182.523297 
L 246.446842 183.936 
L 245.178182 184.692381 
L 241.886459 186.624 
L 241.570909 186.807249 
L 237.963636 188.849686 
L 237.124038 189.312 
L 234.356364 190.824076 
L 232.136348 192 
L 230.749091 192.731225 
L 227.141818 194.570129 
L 226.902334 194.688 
L 223.534545 196.341777 
L 221.346481 197.376 
L 219.927273 198.04723 
L 216.32 199.683613 
L 215.442941 200.064 
L 212.712727 201.25198 
L 209.105455 202.750885 
L 209.102486 202.752 
L 205.498182 204.1462 
L 201.97097 205.44 
L 201.890909 205.469614 
L 198.283636 206.740372 
L 194.676364 207.934658 
L 194.039427 208.128 
L 191.069091 209.039836 
L 187.461818 210.055139 
L 184.477918 210.816 
L 183.854545 210.977179 
L 180.247273 211.784429 
L 176.64 212.478463 
L 173.032727 213.047183 
L 169.425455 213.472777 
L 168.963003 213.504 
L 165.818182 213.719503 
L 162.210909 213.767354 
L 158.603636 213.575952 
z
" clip-path="url(#p97074d11f7)" style="fill: #21918c"/>
    <path d="M 158.603636 213.575952 
L 162.210909 213.767354 
L 165.818182 213.719503 
L 168.963003 213.504 
L 169.425455 213.472777 
L 173.032727 213.047183 
L 176.64 212.478463 
L 180.247273 211.784429 
L 183.854545 210.977179 
L 184.477918 210.816 
L 187.461818 210.055139 
L 191.069091 209.039836 
L 194.039427 208.128 
L 194.676364 207.934658 
L 198.283636 206.740372 
L 201.890909 205.469614 
L 201.97097 205.44 
L 205.498182 204.1462 
L 209.102486 202.752 
L 209.105455 202.750885 
L 212.712727 201.25198 
L 215.442941 200.064 
L 216.32 199.683613 
L 219.927273 198.04723 
L 221.346481 197.376 
L 223.534545 196.341777 
L 226.902334 194.688 
L 227.141818 194.570129 
L 230.749091 192.731225 
L 232.136348 192 
L 234.356364 190.824076 
L 237.124038 189.312 
L 237.963636 188.849686 
L 241.570909 186.807249 
L 241.886459 186.624 
L 245.178182 184.692381 
L 246.446842 183.936 
L 248.785455 182.523297 
L 250.834918 181.248 
L 252.392727 180.262662 
L 255.033033 178.56 
L 256 177.924207 
L 259.068909 175.872 
L 259.607273 175.503788 
L 262.950433 173.184 
L 263.214545 172.995962 
L 266.684042 170.496 
L 266.821818 170.393808 
L 270.274847 167.808 
L 270.429091 167.688705 
L 273.726733 165.12 
L 274.036364 164.870052 
L 277.042427 162.432 
L 277.643636 161.924911 
L 280.223489 159.744 
L 281.250909 158.837505 
L 283.270367 157.056 
L 284.858182 155.588645 
L 286.182423 154.368 
L 288.465455 152.155001 
L 288.957931 151.68 
L 291.594435 148.992 
L 292.072727 148.473223 
L 294.089974 146.304 
L 295.68 144.478869 
L 296.44007 143.616 
L 298.637195 140.928 
L 299.287273 140.062366 
L 300.676131 138.24 
L 302.549145 135.552 
L 302.894545 134.995081 
L 304.240754 132.864 
L 305.742962 130.176 
L 306.501818 128.586426 
L 307.037883 127.488 
L 308.095734 124.8 
L 308.899819 122.112 
L 309.411838 119.424 
L 309.57675 116.736 
L 309.316554 114.048 
L 308.520838 111.36 
L 307.032066 108.672 
L 306.501818 108.027922 
L 304.426771 105.984 
L 302.894545 104.903118 
L 299.859083 103.296 
L 299.287273 103.057419 
L 295.68 101.935244 
L 292.072727 101.215561 
L 288.465455 100.81309 
L 284.858182 100.665582 
L 281.250909 100.727138 
L 277.643636 100.963749 
L 274.036364 101.35026 
L 270.429091 101.868189 
L 266.821818 102.504283 
L 263.214545 103.249506 
L 263.021508 103.296 
L 259.607273 104.108447 
L 256 105.059059 
L 252.799135 105.984 
L 252.392727 106.100302 
L 248.785455 107.234674 
L 245.178182 108.449148 
L 244.564151 108.672 
L 241.570909 109.749831 
L 237.963636 111.127418 
L 237.3912 111.36 
L 234.356364 112.586491 
L 230.9215 114.048 
L 230.749091 114.121185 
L 227.141818 115.734214 
L 225.003447 116.736 
L 223.534545 117.424277 
L 219.927273 119.18994 
L 219.47185 119.424 
L 216.32 121.049542 
L 214.322714 122.112 
L 212.712727 122.973379 
L 209.419591 124.8 
L 209.105455 124.975767 
L 205.498182 127.060744 
L 204.781613 127.488 
L 201.890909 129.231173 
L 200.368689 130.176 
L 198.283636 131.494792 
L 196.173277 132.864 
L 194.676364 133.847795 
L 192.143986 135.552 
L 191.069091 136.290081 
L 188.288533 138.24 
L 187.461818 138.833314 
L 184.596451 140.928 
L 183.854545 141.484724 
L 181.058955 143.616 
L 180.247273 144.253122 
L 177.668804 146.304 
L 176.64 147.149102 
L 174.42019 148.992 
L 173.032727 150.185288 
L 171.308651 151.68 
L 169.425455 153.376629 
L 168.330998 154.368 
L 165.818182 156.74076 
L 165.485247 157.056 
L 162.772362 159.744 
L 162.210909 160.328624 
L 160.189663 162.432 
L 158.603636 164.171673 
L 157.736318 165.12 
L 155.416855 167.808 
L 154.996364 168.328633 
L 153.234477 170.496 
L 151.389091 172.919876 
L 151.186166 173.184 
L 149.289642 175.872 
L 147.781818 178.185734 
L 147.534883 178.56 
L 145.949833 181.248 
L 144.52391 183.936 
L 144.174545 184.705882 
L 143.290065 186.624 
L 142.259235 189.312 
L 141.446451 192 
L 140.885055 194.688 
L 140.623633 197.376 
L 140.731885 200.064 
L 141.309701 202.752 
L 142.501516 205.44 
L 144.174545 207.710804 
L 144.564495 208.128 
L 147.781818 210.531366 
L 148.313317 210.816 
L 151.389091 212.098854 
L 154.996364 213.05363 
L 158.03547 213.504 
z
M 170.166693 197.376 
L 169.425455 197.123759 
L 165.818182 195.06408 
L 165.372749 194.688 
L 163.337173 192 
L 162.383708 189.312 
L 162.210909 187.204489 
L 162.172177 186.624 
L 162.210909 186.287541 
L 162.4811 183.936 
L 163.189265 181.248 
L 164.207198 178.56 
L 165.479483 175.872 
L 165.818182 175.285395 
L 167.030943 173.184 
L 168.781604 170.496 
L 169.425455 169.617907 
L 170.755558 167.808 
L 172.898518 165.12 
L 173.032727 164.9666 
L 175.261639 162.432 
L 176.64 160.960874 
L 177.789071 159.744 
L 180.247273 157.289881 
L 180.48401 157.056 
L 183.373517 154.368 
L 183.854545 153.942553 
L 186.447264 151.68 
L 187.461818 150.832942 
L 189.702552 148.992 
L 191.069091 147.913936 
L 193.148472 146.304 
L 194.676364 145.164051 
L 196.796205 143.616 
L 198.283636 142.565604 
L 200.659217 140.928 
L 201.890909 140.104118 
L 204.728314 138.24 
L 205.498182 137.747779 
L 209.062302 135.552 
L 209.105455 135.526031 
L 212.712727 133.437255 
L 213.738144 132.864 
L 216.32 131.451257 
L 218.739983 130.176 
L 219.927273 129.556468 
L 223.534545 127.753106 
L 224.100257 127.488 
L 227.141818 126.085349 
L 230.06235 124.8 
L 230.749091 124.50157 
L 234.356364 123.039763 
L 236.789033 122.112 
L 237.963636 121.6688 
L 241.570909 120.42058 
L 244.680204 119.424 
L 245.178182 119.265785 
L 248.785455 118.25837 
L 252.392727 117.360929 
L 255.333806 116.736 
L 256 116.595693 
L 259.607273 116.011709 
L 263.214545 115.59707 
L 266.821818 115.385661 
L 270.429091 115.425894 
L 274.036364 115.787437 
L 277.643636 116.572035 
L 278.12679 116.736 
L 281.250909 118.177325 
L 283.037811 119.424 
L 284.858182 121.455882 
L 285.303157 122.112 
L 286.29241 124.8 
L 286.550664 127.488 
L 286.266364 130.176 
L 285.562816 132.864 
L 284.858182 134.645923 
L 284.503346 135.552 
L 283.122561 138.24 
L 281.506791 140.928 
L 281.250909 141.290785 
L 279.620625 143.616 
L 277.643636 146.175249 
L 277.544508 146.304 
L 275.232535 148.992 
L 274.036364 150.27994 
L 272.736102 151.68 
L 270.429091 153.99864 
L 270.060632 154.368 
L 267.192252 157.056 
L 266.821818 157.383325 
L 264.134509 159.744 
L 263.214545 160.512582 
L 260.89758 162.432 
L 259.607273 163.453064 
L 257.477387 165.12 
L 256 166.229159 
L 253.868063 167.808 
L 252.392727 168.860316 
L 250.06187 170.496 
L 248.785455 171.362079 
L 246.049063 173.184 
L 245.178182 173.746763 
L 241.817693 175.872 
L 241.570909 176.02305 
L 237.963636 178.169281 
L 237.293449 178.56 
L 234.356364 180.231749 
L 232.517615 181.248 
L 230.749091 182.205714 
L 227.449284 183.936 
L 227.141818 184.094522 
L 223.534545 185.87106 
L 221.942148 186.624 
L 219.927273 187.562988 
L 216.32 189.167037 
L 215.964514 189.312 
L 212.712727 190.583732 
L 209.108553 192 
L 209.105455 192.001207 
L 205.498182 193.283551 
L 201.890909 194.484042 
L 201.201587 194.688 
L 198.283636 195.544974 
L 194.676364 196.486073 
L 191.069091 197.303694 
L 190.655935 197.376 
L 187.461818 197.931222 
L 183.854545 198.375051 
L 180.247273 198.598318 
L 176.64 198.539784 
L 173.032727 198.107925 
z
" clip-path="url(#p97074d11f7)" style="fill: #2db27d"/>
    <path d="M 173.032727 198.107925 
L 176.64 198.539784 
L 180.247273 198.598318 
L 183.854545 198.375051 
L 187.461818 197.931222 
L 190.655935 197.376 
L 191.069091 197.303694 
L 194.676364 196.486073 
L 198.283636 195.544974 
L 201.201587 194.688 
L 201.890909 194.484042 
L 205.498182 193.283551 
L 209.105455 192.001207 
L 209.108553 192 
L 212.712727 190.583732 
L 215.964514 189.312 
L 216.32 189.167037 
L 219.927273 187.562988 
L 221.942148 186.624 
L 223.534545 185.87106 
L 227.141818 184.094522 
L 227.449284 183.936 
L 230.749091 182.205714 
L 232.517615 181.248 
L 234.356364 180.231749 
L 237.293449 178.56 
L 237.963636 178.169281 
L 241.570909 176.02305 
L 241.817693 175.872 
L 245.178182 173.746763 
L 246.049063 173.184 
L 248.785455 171.362079 
L 250.06187 170.496 
L 252.392727 168.860316 
L 253.868063 167.808 
L 256 166.229159 
L 257.477387 165.12 
L 259.607273 163.453064 
L 260.89758 162.432 
L 263.214545 160.512582 
L 264.134509 159.744 
L 266.821818 157.383325 
L 267.192252 157.056 
L 270.060632 154.368 
L 270.429091 153.99864 
L 272.736102 151.68 
L 274.036364 150.27994 
L 275.232535 148.992 
L 277.544508 146.304 
L 277.643636 146.175249 
L 279.620625 143.616 
L 281.250909 141.290785 
L 281.506791 140.928 
L 283.122561 138.24 
L 284.503346 135.552 
L 284.858182 134.645923 
L 285.562816 132.864 
L 286.266364 130.176 
L 286.550664 127.488 
L 286.29241 124.8 
L 285.303157 122.112 
L 284.858182 121.455882 
L 283.037811 119.424 
L 281.250909 118.177325 
L 278.12679 116.736 
L 277.643636 116.572035 
L 274.036364 115.787437 
L 270.429091 115.425894 
L 266.821818 115.385661 
L 263.214545 115.59707 
L 259.607273 116.011709 
L 256 116.595693 
L 255.333806 116.736 
L 252.392727 117.360929 
L 248.785455 118.25837 
L 245.178182 119.265785 
L 244.680204 119.424 
L 241.570909 120.42058 
L 237.963636 121.6688 
L 236.789033 122.112 
L 234.356364 123.039763 
L 230.749091 124.50157 
L 230.06235 124.8 
L 227.141818 126.085349 
L 224.100257 127.488 
L 223.534545 127.753106 
L 219.927273 129.556468 
L 218.739983 130.176 
L 216.32 131.451257 
L 213.738144 132.864 
L 212.712727 133.437255 
L 209.105455 135.526031 
L 209.062302 135.552 
L 205.498182 137.747779 
L 204.728314 138.24 
L 201.890909 140.104118 
L 200.659217 140.928 
L 198.283636 142.565604 
L 196.796205 143.616 
L 194.676364 145.164051 
L 193.148472 146.304 
L 191.069091 147.913936 
L 189.702552 148.992 
L 187.461818 150.832942 
L 186.447264 151.68 
L 183.854545 153.942553 
L 183.373517 154.368 
L 180.48401 157.056 
L 180.247273 157.289881 
L 177.789071 159.744 
L 176.64 160.960874 
L 175.261639 162.432 
L 173.032727 164.9666 
L 172.898518 165.12 
L 170.755558 167.808 
L 169.425455 169.617907 
L 168.781604 170.496 
L 167.030943 173.184 
L 165.818182 175.285395 
L 165.479483 175.872 
L 164.207198 178.56 
L 163.189265 181.248 
L 162.4811 183.936 
L 162.210909 186.287541 
L 162.172177 186.624 
L 162.210909 187.204489 
L 162.383708 189.312 
L 163.337173 192 
L 165.372749 194.688 
L 165.818182 195.06408 
L 169.425455 197.123759 
L 170.166693 197.376 
z
M 192.281907 178.56 
L 191.069091 177.675622 
L 189.754362 175.872 
L 189.289213 173.184 
L 189.756399 170.496 
L 190.804842 167.808 
L 191.069091 167.358918 
L 192.419425 165.12 
L 194.344351 162.432 
L 194.676364 162.044868 
L 196.70028 159.744 
L 198.283636 158.112488 
L 199.338632 157.056 
L 201.890909 154.717532 
L 202.284726 154.368 
L 205.498182 151.736636 
L 205.569818 151.68 
L 209.105455 149.081548 
L 209.232081 148.992 
L 212.712727 146.688099 
L 213.303572 146.304 
L 216.32 144.45833 
L 217.791577 143.616 
L 219.927273 142.457739 
L 222.808565 140.928 
L 223.534545 140.56124 
L 227.141818 138.939093 
L 228.833189 138.24 
L 230.749091 137.485713 
L 234.356364 136.221036 
L 236.572021 135.552 
L 237.963636 135.151984 
L 241.570909 134.359616 
L 245.178182 133.820782 
L 248.785455 133.648717 
L 252.392727 134.049681 
L 256 135.431408 
L 256.173185 135.552 
L 258.068057 138.24 
L 258.360942 140.928 
L 257.745919 143.616 
L 256.558512 146.304 
L 256 147.188623 
L 254.842763 148.992 
L 252.779195 151.68 
L 252.392727 152.104843 
L 250.297127 154.368 
L 248.785455 155.843349 
L 247.516517 157.056 
L 245.178182 159.09778 
L 244.419839 159.744 
L 241.570909 161.983511 
L 240.9843 162.432 
L 237.963636 164.58052 
L 237.181044 165.12 
L 234.356364 166.945327 
L 232.973982 167.808 
L 230.749091 169.111863 
L 228.299338 170.496 
L 227.141818 171.120265 
L 223.534545 172.966122 
L 223.029313 173.184 
L 219.927273 174.456793 
L 216.576344 175.872 
L 216.32 175.975549 
L 212.712727 177.225433 
L 209.105455 178.348711 
L 208.219601 178.56 
L 205.498182 179.177388 
L 201.890909 179.718986 
L 198.283636 179.885271 
L 194.676364 179.457121 
z
" clip-path="url(#p97074d11f7)" style="fill: #73d056"/>
    <path d="M 194.676364 179.457121 
L 198.283636 179.885271 
L 201.890909 179.718986 
L 205.498182 179.177388 
L 208.219601 178.56 
L 209.105455 178.348711 
L 212.712727 177.225433 
L 216.32 175.975549 
L 216.576344 175.872 
L 219.927273 174.456793 
L 223.029313 173.184 
L 223.534545 172.966122 
L 227.141818 171.120265 
L 228.299338 170.496 
L 230.749091 169.111863 
L 232.973982 167.808 
L 234.356364 166.945327 
L 237.181044 165.12 
L 237.963636 164.58052 
L 240.9843 162.432 
L 241.570909 161.983511 
L 244.419839 159.744 
L 245.178182 159.09778 
L 247.516517 157.056 
L 248.785455 155.843349 
L 250.297127 154.368 
L 252.392727 152.104843 
L 252.779195 151.68 
L 254.842763 148.992 
L 256 147.188623 
L 256.558512 146.304 
L 257.745919 143.616 
L 258.360942 140.928 
L 258.068057 138.24 
L 256.173185 135.552 
L 256 135.431408 
L 252.392727 134.049681 
L 248.785455 133.648717 
L 245.178182 133.820782 
L 241.570909 134.359616 
L 237.963636 135.151984 
L 236.572021 135.552 
L 234.356364 136.221036 
L 230.749091 137.485713 
L 228.833189 138.24 
L 227.141818 138.939093 
L 223.534545 140.56124 
L 222.808565 140.928 
L 219.927273 142.457739 
L 217.791577 143.616 
L 216.32 144.45833 
L 213.303572 146.304 
L 212.712727 146.688099 
L 209.232081 148.992 
L 209.105455 149.081548 
L 205.569818 151.68 
L 205.498182 151.736636 
L 202.284726 154.368 
L 201.890909 154.717532 
L 199.338632 157.056 
L 198.283636 158.112488 
L 196.70028 159.744 
L 194.676364 162.044868 
L 194.344351 162.432 
L 192.419425 165.12 
L 191.069091 167.358918 
L 190.804842 167.808 
L 189.756399 170.496 
L 189.289213 173.184 
L 189.754362 175.872 
L 191.069091 177.675622 
L 192.281907 178.56 
z
" clip-path="url(#p97074d11f7)" style="fill: #d0e11c"/>
   </g>
   <g id="matplotlib.axis_1">
    <g id="xtick_1">
     <g id="line2d_1">
      <defs>
       <path id="mc1138d2dfc" d="M 0 0 
L 0 3.5 
" style="stroke: #000000; stroke-width: 0.8"/>
      </defs>
      <g>
       <use xlink:href="#mc1138d2dfc" x="57.6" y="307.584" style="stroke: #000000; stroke-width: 0.8"/>
      </g>
     </g>
     <g id="text_1">
      <!-- 4.0 -->
      <g transform="translate(49.648437 322.182437) scale(0.1 -0.1)">
       <defs>
        <path id="DejaVuSans-34" d="M 2419 4116 
L 825 1625 
L 2419 1625 
L 2419 4116 
z
M 2253 4666 
L 3047 4666 
L 3047 1625 
L 3713 1625 
L 3713 1100 
L 3047 1100 
L 3047 0 
L 2419 0 
L 2419 1100 
L 313 1100 
L 313 1709 
L 2253 4666 
z
" transform="scale(0.015625)"/>
        <path id="DejaVuSans-2e" d="M 684 794 
L 1344 794 
L 1344 0 
L 684 0 
L 684 794 
z
" transform="scale(0.015625)"/>
        <path id="DejaVuSans-30" d="M 2034 4250 
Q 1547 4250 1301 3770 
Q 1056 3291 1056 2328 
Q 1056 1369 1301 889 
Q 1547 409 2034 409 
Q 2525 409 2770 889 
Q 3016 1369 3016 2328 
Q 3016 3291 2770 3770 
Q 2525 4250 2034 4250 
z
M 2034 4750 
Q 2819 4750 3233 4129 
Q 3647 3509 3647 2328 
Q 3647 1150 3233 529 
Q 2819 -91 2034 -91 
Q 1250 -91 836 529 
Q 422 1150 422 2328 
Q 422 3509 836 4129 
Q 1250 4750 2034 4750 
z
" transform="scale(0.015625)"/>
       </defs>
       <use xlink:href="#DejaVuSans-34"/>
       <use xlink:href="#DejaVuSans-2e" x="63.623047"/>
       <use xlink:href="#DejaVuSans-30" x="95.410156"/>
      </g>
     </g>
    </g>
    <g id="xtick_2">
     <g id="line2d_2">
      <g>
       <use xlink:href="#mc1138d2dfc" x="114.7392" y="307.584" style="stroke: #000000; stroke-width: 0.8"/>
      </g>
     </g>
     <g id="text_2">
      <!-- 4.2 -->
      <g transform="translate(106.787637 322.182437) scale(0.1 -0.1)">
       <defs>
        <path id="DejaVuSans-32" d="M 1228 531 
L 3431 531 
L 3431 0 
L 469 0 
L 469 531 
Q 828 903 1448 1529 
Q 2069 2156 2228 2338 
Q 2531 2678 2651 2914 
Q 2772 3150 2772 3378 
Q 2772 3750 2511 3984 
Q 2250 4219 1831 4219 
Q 1534 4219 1204 4116 
Q 875 4013 500 3803 
L 500 4441 
Q 881 4594 1212 4672 
Q 1544 4750 1819 4750 
Q 2544 4750 2975 4387 
Q 3406 4025 3406 3419 
Q 3406 3131 3298 2873 
Q 3191 2616 2906 2266 
Q 2828 2175 2409 1742 
Q 1991 1309 1228 531 
z
" transform="scale(0.015625)"/>
       </defs>
       <use xlink:href="#DejaVuSans-34"/>
       <use xlink:href="#DejaVuSans-2e" x="63.623047"/>
       <use xlink:href="#DejaVuSans-32" x="95.410156"/>
      </g>
     </g>
    </g>
    <g id="xtick_3">
     <g id="line2d_3">
      <g>
       <use xlink:href="#mc1138d2dfc" x="171.8784" y="307.584" style="stroke: #000000; stroke-width: 0.8"/>
      </g>
     </g>
     <g id="text_3">
      <!-- 4.4 -->
      <g transform="translate(163.926838 322.182437) scale(0.1 -0.1)">
       <use xlink:href="#DejaVuSans-34"/>
       <use xlink:href="#DejaVuSans-2e" x="63.623047"/>
       <use xlink:href="#DejaVuSans-34" x="95.410156"/>
      </g>
     </g>
    </g>
    <g id="xtick_4">
     <g id="line2d_4">
      <g>
       <use xlink:href="#mc1138d2dfc" x="229.0176" y="307.584" style="stroke: #000000; stroke-width: 0.8"/>
      </g>
     </g>
     <g id="text_4">
      <!-- 4.6 -->
      <g transform="translate(221.066038 322.182437) scale(0.1 -0.1)">
       <defs>
        <path id="DejaVuSans-36" d="M 2113 2584 
Q 1688 2584 1439 2293 
Q 1191 2003 1191 1497 
Q 1191 994 1439 701 
Q 1688 409 2113 409 
Q 2538 409 2786 701 
Q 3034 994 3034 1497 
Q 3034 2003 2786 2293 
Q 2538 2584 2113 2584 
z
M 3366 4563 
L 3366 3988 
Q 3128 4100 2886 4159 
Q 2644 4219 2406 4219 
Q 1781 4219 1451 3797 
Q 1122 3375 1075 2522 
Q 1259 2794 1537 2939 
Q 1816 3084 2150 3084 
Q 2853 3084 3261 2657 
Q 3669 2231 3669 1497 
Q 3669 778 3244 343 
Q 2819 -91 2113 -91 
Q 1303 -91 875 529 
Q 447 1150 447 2328 
Q 447 3434 972 4092 
Q 1497 4750 2381 4750 
Q 2619 4750 2861 4703 
Q 3103 4656 3366 4563 
z
" transform="scale(0.015625)"/>
       </defs>
       <use xlink:href="#DejaVuSans-34"/>
       <use xlink:href="#DejaVuSans-2e" x="63.623047"/>
       <use xlink:href="#DejaVuSans-36" x="95.410156"/>
      </g>
     </g>
    </g>
    <g id="xtick_5">
     <g id="line2d_5">
      <g>
       <use xlink:href="#mc1138d2dfc" x="286.1568" y="307.584" style="stroke: #000000; stroke-width: 0.8"/>
      </g>
     </g>
     <g id="text_5">
      <!-- 4.8 -->
      <g transform="translate(278.205238 322.182437) scale(0.1 -0.1)">
       <defs>
        <path id="DejaVuSans-38" d="M 2034 2216 
Q 1584 2216 1326 1975 
Q 1069 1734 1069 1313 
Q 1069 891 1326 650 
Q 1584 409 2034 409 
Q 2484 409 2743 651 
Q 3003 894 3003 1313 
Q 3003 1734 2745 1975 
Q 2488 2216 2034 2216 
z
M 1403 2484 
Q 997 2584 770 2862 
Q 544 3141 544 3541 
Q 544 4100 942 4425 
Q 1341 4750 2034 4750 
Q 2731 4750 3128 4425 
Q 3525 4100 3525 3541 
Q 3525 3141 3298 2862 
Q 3072 2584 2669 2484 
Q 3125 2378 3379 2068 
Q 3634 1759 3634 1313 
Q 3634 634 3220 271 
Q 2806 -91 2034 -91 
Q 1263 -91 848 271 
Q 434 634 434 1313 
Q 434 1759 690 2068 
Q 947 2378 1403 2484 
z
M 1172 3481 
Q 1172 3119 1398 2916 
Q 1625 2713 2034 2713 
Q 2441 2713 2670 2916 
Q 2900 3119 2900 3481 
Q 2900 3844 2670 4047 
Q 2441 4250 2034 4250 
Q 1625 4250 1398 4047 
Q 1172 3844 1172 3481 
z
" transform="scale(0.015625)"/>
       </defs>
       <use xlink:href="#DejaVuSans-34"/>
       <use xlink:href="#DejaVuSans-2e" x="63.623047"/>
       <use xlink:href="#DejaVuSans-38" x="95.410156"/>
      </g>
     </g>
    </g>
    <g id="xtick_6">
     <g id="line2d_6">
      <g>
       <use xlink:href="#mc1138d2dfc" x="343.296" y="307.584" style="stroke: #000000; stroke-width: 0.8"/>
      </g>
     </g>
     <g id="text_6">
      <!-- 5.0 -->
      <g transform="translate(335.344437 322.182437) scale(0.1 -0.1)">
       <defs>
        <path id="DejaVuSans-35" d="M 691 4666 
L 3169 4666 
L 3169 4134 
L 1269 4134 
L 1269 2991 
Q 1406 3038 1543 3061 
Q 1681 3084 1819 3084 
Q 2600 3084 3056 2656 
Q 3513 2228 3513 1497 
Q 3513 744 3044 326 
Q 2575 -91 1722 -91 
Q 1428 -91 1123 -41 
Q 819 9 494 109 
L 494 744 
Q 775 591 1075 516 
Q 1375 441 1709 441 
Q 2250 441 2565 725 
Q 2881 1009 2881 1497 
Q 2881 1984 2565 2268 
Q 2250 2553 1709 2553 
Q 1456 2553 1204 2497 
Q 953 2441 691 2322 
L 691 4666 
z
" transform="scale(0.015625)"/>
       </defs>
       <use xlink:href="#DejaVuSans-35"/>
       <use xlink:href="#DejaVuSans-2e" x="63.623047"/>
       <use xlink:href="#DejaVuSans-30" x="95.410156"/>
      </g>
     </g>
    </g>
    <g id="xtick_7">
     <g id="line2d_7">
      <g>
       <use xlink:href="#mc1138d2dfc" x="400.4352" y="307.584" style="stroke: #000000; stroke-width: 0.8"/>
      </g>
     </g>
     <g id="text_7">
      <!-- 5.2 -->
      <g transform="translate(392.483637 322.182437) scale(0.1 -0.1)">
       <use xlink:href="#DejaVuSans-35"/>
       <use xlink:href="#DejaVuSans-2e" x="63.623047"/>
       <use xlink:href="#DejaVuSans-32" x="95.410156"/>
      </g>
     </g>
    </g>
    <g id="text_8">
     <!-- $k_1$ -->
     <g transform="translate(230.86 335.860562) scale(0.1 -0.1)">
      <defs>
       <path id="DejaVuSans-Oblique-6b" d="M 1172 4863 
L 1747 4863 
L 1197 2028 
L 3169 3500 
L 3916 3500 
L 1716 1825 
L 3322 0 
L 2625 0 
L 1131 1709 
L 800 0 
L 225 0 
L 1172 4863 
z
" transform="scale(0.015625)"/>
       <path id="DejaVuSans-31" d="M 794 531 
L 1825 531 
L 1825 4091 
L 703 3866 
L 703 4441 
L 1819 4666 
L 2450 4666 
L 2450 531 
L 3481 531 
L 3481 0 
L 794 0 
L 794 531 
z
" transform="scale(0.015625)"/>
      </defs>
      <use xlink:href="#DejaVuSans-Oblique-6b" transform="translate(0 0.015625)"/>
      <use xlink:href="#DejaVuSans-31" transform="translate(57.910156 -16.390625) scale(0.7)"/>
     </g>
    </g>
   </g>
   <g id="matplotlib.axis_2">
    <g id="ytick_1">
     <g id="line2d_8">
      <defs>
       <path id="mb2c1cdf467" d="M 0 0 
L -3.5 0 
" style="stroke: #000000; stroke-width: 0.8"/>
      </defs>
      <g>
       <use xlink:href="#mb2c1cdf467" x="57.6" y="299.9808" style="stroke: #000000; stroke-width: 0.8"/>
      </g>
     </g>
     <g id="text_9">
      <!-- 4.88 -->
      <g transform="translate(28.334375 303.780019) scale(0.1 -0.1)">
       <use xlink:href="#DejaVuSans-34"/>
       <use xlink:href="#DejaVuSans-2e" x="63.623047"/>
       <use xlink:href="#DejaVuSans-38" x="95.410156"/>
       <use xlink:href="#DejaVuSans-38" x="159.033203"/>
      </g>
     </g>
    </g>
    <g id="ytick_2">
     <g id="line2d_9">
      <g>
       <use xlink:href="#mb2c1cdf467" x="57.6" y="269.568" style="stroke: #000000; stroke-width: 0.8"/>
      </g>
     </g>
     <g id="text_10">
      <!-- 4.90 -->
      <g transform="translate(28.334375 273.367219) scale(0.1 -0.1)">
       <defs>
        <path id="DejaVuSans-39" d="M 703 97 
L 703 672 
Q 941 559 1184 500 
Q 1428 441 1663 441 
Q 2288 441 2617 861 
Q 2947 1281 2994 2138 
Q 2813 1869 2534 1725 
Q 2256 1581 1919 1581 
Q 1219 1581 811 2004 
Q 403 2428 403 3163 
Q 403 3881 828 4315 
Q 1253 4750 1959 4750 
Q 2769 4750 3195 4129 
Q 3622 3509 3622 2328 
Q 3622 1225 3098 567 
Q 2575 -91 1691 -91 
Q 1453 -91 1209 -44 
Q 966 3 703 97 
z
M 1959 2075 
Q 2384 2075 2632 2365 
Q 2881 2656 2881 3163 
Q 2881 3666 2632 3958 
Q 2384 4250 1959 4250 
Q 1534 4250 1286 3958 
Q 1038 3666 1038 3163 
Q 1038 2656 1286 2365 
Q 1534 2075 1959 2075 
z
" transform="scale(0.015625)"/>
       </defs>
       <use xlink:href="#DejaVuSans-34"/>
       <use xlink:href="#DejaVuSans-2e" x="63.623047"/>
       <use xlink:href="#DejaVuSans-39" x="95.410156"/>
       <use xlink:href="#DejaVuSans-30" x="159.033203"/>
      </g>
     </g>
    </g>
    <g id="ytick_3">
     <g id="line2d_10">
      <g>
       <use xlink:href="#mb2c1cdf467" x="57.6" y="239.1552" style="stroke: #000000; stroke-width: 0.8"/>
      </g>
     </g>
     <g id="text_11">
      <!-- 4.92 -->
      <g transform="translate(28.334375 242.954419) scale(0.1 -0.1)">
       <use xlink:href="#DejaVuSans-34"/>
       <use xlink:href="#DejaVuSans-2e" x="63.623047"/>
       <use xlink:href="#DejaVuSans-39" x="95.410156"/>
       <use xlink:href="#DejaVuSans-32" x="159.033203"/>
      </g>
     </g>
    </g>
    <g id="ytick_4">
     <g id="line2d_11">
      <g>
       <use xlink:href="#mb2c1cdf467" x="57.6" y="208.7424" style="stroke: #000000; stroke-width: 0.8"/>
      </g>
     </g>
     <g id="text_12">
      <!-- 4.94 -->
      <g transform="translate(28.334375 212.541619) scale(0.1 -0.1)">
       <use xlink:href="#DejaVuSans-34"/>
       <use xlink:href="#DejaVuSans-2e" x="63.623047"/>
       <use xlink:href="#DejaVuSans-39" x="95.410156"/>
       <use xlink:href="#DejaVuSans-34" x="159.033203"/>
      </g>
     </g>
    </g>
    <g id="ytick_5">
     <g id="line2d_12">
      <g>
       <use xlink:href="#mb2c1cdf467" x="57.6" y="178.3296" style="stroke: #000000; stroke-width: 0.8"/>
      </g>
     </g>
     <g id="text_13">
      <!-- 4.96 -->
      <g transform="translate(28.334375 182.128819) scale(0.1 -0.1)">
       <use xlink:href="#DejaVuSans-34"/>
       <use xlink:href="#DejaVuSans-2e" x="63.623047"/>
       <use xlink:href="#DejaVuSans-39" x="95.410156"/>
       <use xlink:href="#DejaVuSans-36" x="159.033203"/>
      </g>
     </g>
    </g>
    <g id="ytick_6">
     <g id="line2d_13">
      <g>
       <use xlink:href="#mb2c1cdf467" x="57.6" y="147.9168" style="stroke: #000000; stroke-width: 0.8"/>
      </g>
     </g>
     <g id="text_14">
      <!-- 4.98 -->
      <g transform="translate(28.334375 151.716019) scale(0.1 -0.1)">
       <use xlink:href="#DejaVuSans-34"/>
       <use xlink:href="#DejaVuSans-2e" x="63.623047"/>
       <use xlink:href="#DejaVuSans-39" x="95.410156"/>
       <use xlink:href="#DejaVuSans-38" x="159.033203"/>
      </g>
     </g>
    </g>
    <g id="ytick_7">
     <g id="line2d_14">
      <g>
       <use xlink:href="#mb2c1cdf467" x="57.6" y="117.504" style="stroke: #000000; stroke-width: 0.8"/>
      </g>
     </g>
     <g id="text_15">
      <!-- 5.00 -->
      <g transform="translate(28.334375 121.303219) scale(0.1 -0.1)">
       <use xlink:href="#DejaVuSans-35"/>
       <use xlink:href="#DejaVuSans-2e" x="63.623047"/>
       <use xlink:href="#DejaVuSans-30" x="95.410156"/>
       <use xlink:href="#DejaVuSans-30" x="159.033203"/>
      </g>
     </g>
    </g>
    <g id="ytick_8">
     <g id="line2d_15">
      <g>
       <use xlink:href="#mb2c1cdf467" x="57.6" y="87.0912" style="stroke: #000000; stroke-width: 0.8"/>
      </g>
     </g>
     <g id="text_16">
      <!-- 5.02 -->
      <g transform="translate(28.334375 90.890419) scale(0.1 -0.1)">
       <use xlink:href="#DejaVuSans-35"/>
       <use xlink:href="#DejaVuSans-2e" x="63.623047"/>
       <use xlink:href="#DejaVuSans-30" x="95.410156"/>
       <use xlink:href="#DejaVuSans-32" x="159.033203"/>
      </g>
     </g>
    </g>
    <g id="ytick_9">
     <g id="line2d_16">
      <g>
       <use xlink:href="#mb2c1cdf467" x="57.6" y="56.6784" style="stroke: #000000; stroke-width: 0.8"/>
      </g>
     </g>
     <g id="text_17">
      <!-- 5.04 -->
      <g transform="translate(28.334375 60.477619) scale(0.1 -0.1)">
       <use xlink:href="#DejaVuSans-35"/>
       <use xlink:href="#DejaVuSans-2e" x="63.623047"/>
       <use xlink:href="#DejaVuSans-30" x="95.410156"/>
       <use xlink:href="#DejaVuSans-34" x="159.033203"/>
      </g>
     </g>
    </g>
    <g id="text_18">
     <!-- $k_2$ -->
     <g transform="translate(22.254688 179.828) rotate(-90) scale(0.1 -0.1)">
      <use xlink:href="#DejaVuSans-Oblique-6b" transform="translate(0 0.015625)"/>
      <use xlink:href="#DejaVuSans-32" transform="translate(57.910156 -16.390625) scale(0.7)"/>
     </g>
    </g>
   </g>
   <g id="patch_3">
    <path d="M 57.6 307.584 
L 57.6 41.472 
" style="fill: none; stroke: #000000; stroke-width: 0.8; stroke-linejoin: miter; stroke-linecap: square"/>
   </g>
   <g id="patch_4">
    <path d="M 414.72 307.584 
L 414.72 41.472 
" style="fill: none; stroke: #000000; stroke-width: 0.8; stroke-linejoin: miter; stroke-linecap: square"/>
   </g>
   <g id="patch_5">
    <path d="M 57.6 307.584 
L 414.72 307.584 
" style="fill: none; stroke: #000000; stroke-width: 0.8; stroke-linejoin: miter; stroke-linecap: square"/>
   </g>
   <g id="patch_6">
    <path d="M 57.6 41.472 
L 414.72 41.472 
" style="fill: none; stroke: #000000; stroke-width: 0.8; stroke-linejoin: miter; stroke-linecap: square"/>
   </g>
   <g id="text_19">
    <!-- Ex 2.A problem 1 Log Posterior -->
    <g transform="translate(128.152187 35.472) scale(0.14 -0.14)">
     <defs>
      <path id="DejaVuSans-45" d="M 628 4666 
L 3578 4666 
L 3578 4134 
L 1259 4134 
L 1259 2753 
L 3481 2753 
L 3481 2222 
L 1259 2222 
L 1259 531 
L 3634 531 
L 3634 0 
L 628 0 
L 628 4666 
z
" transform="scale(0.015625)"/>
      <path id="DejaVuSans-78" d="M 3513 3500 
L 2247 1797 
L 3578 0 
L 2900 0 
L 1881 1375 
L 863 0 
L 184 0 
L 1544 1831 
L 300 3500 
L 978 3500 
L 1906 2253 
L 2834 3500 
L 3513 3500 
z
" transform="scale(0.015625)"/>
      <path id="DejaVuSans-20" transform="scale(0.015625)"/>
      <path id="DejaVuSans-41" d="M 2188 4044 
L 1331 1722 
L 3047 1722 
L 2188 4044 
z
M 1831 4666 
L 2547 4666 
L 4325 0 
L 3669 0 
L 3244 1197 
L 1141 1197 
L 716 0 
L 50 0 
L 1831 4666 
z
" transform="scale(0.015625)"/>
      <path id="DejaVuSans-70" d="M 1159 525 
L 1159 -1331 
L 581 -1331 
L 581 3500 
L 1159 3500 
L 1159 2969 
Q 1341 3281 1617 3432 
Q 1894 3584 2278 3584 
Q 2916 3584 3314 3078 
Q 3713 2572 3713 1747 
Q 3713 922 3314 415 
Q 2916 -91 2278 -91 
Q 1894 -91 1617 61 
Q 1341 213 1159 525 
z
M 3116 1747 
Q 3116 2381 2855 2742 
Q 2594 3103 2138 3103 
Q 1681 3103 1420 2742 
Q 1159 2381 1159 1747 
Q 1159 1113 1420 752 
Q 1681 391 2138 391 
Q 2594 391 2855 752 
Q 3116 1113 3116 1747 
z
" transform="scale(0.015625)"/>
      <path id="DejaVuSans-72" d="M 2631 2963 
Q 2534 3019 2420 3045 
Q 2306 3072 2169 3072 
Q 1681 3072 1420 2755 
Q 1159 2438 1159 1844 
L 1159 0 
L 581 0 
L 581 3500 
L 1159 3500 
L 1159 2956 
Q 1341 3275 1631 3429 
Q 1922 3584 2338 3584 
Q 2397 3584 2469 3576 
Q 2541 3569 2628 3553 
L 2631 2963 
z
" transform="scale(0.015625)"/>
      <path id="DejaVuSans-6f" d="M 1959 3097 
Q 1497 3097 1228 2736 
Q 959 2375 959 1747 
Q 959 1119 1226 758 
Q 1494 397 1959 397 
Q 2419 397 2687 759 
Q 2956 1122 2956 1747 
Q 2956 2369 2687 2733 
Q 2419 3097 1959 3097 
z
M 1959 3584 
Q 2709 3584 3137 3096 
Q 3566 2609 3566 1747 
Q 3566 888 3137 398 
Q 2709 -91 1959 -91 
Q 1206 -91 779 398 
Q 353 888 353 1747 
Q 353 2609 779 3096 
Q 1206 3584 1959 3584 
z
" transform="scale(0.015625)"/>
      <path id="DejaVuSans-62" d="M 3116 1747 
Q 3116 2381 2855 2742 
Q 2594 3103 2138 3103 
Q 1681 3103 1420 2742 
Q 1159 2381 1159 1747 
Q 1159 1113 1420 752 
Q 1681 391 2138 391 
Q 2594 391 2855 752 
Q 3116 1113 3116 1747 
z
M 1159 2969 
Q 1341 3281 1617 3432 
Q 1894 3584 2278 3584 
Q 2916 3584 3314 3078 
Q 3713 2572 3713 1747 
Q 3713 922 3314 415 
Q 2916 -91 2278 -91 
Q 1894 -91 1617 61 
Q 1341 213 1159 525 
L 1159 0 
L 581 0 
L 581 4863 
L 1159 4863 
L 1159 2969 
z
" transform="scale(0.015625)"/>
      <path id="DejaVuSans-6c" d="M 603 4863 
L 1178 4863 
L 1178 0 
L 603 0 
L 603 4863 
z
" transform="scale(0.015625)"/>
      <path id="DejaVuSans-65" d="M 3597 1894 
L 3597 1613 
L 953 1613 
Q 991 1019 1311 708 
Q 1631 397 2203 397 
Q 2534 397 2845 478 
Q 3156 559 3463 722 
L 3463 178 
Q 3153 47 2828 -22 
Q 2503 -91 2169 -91 
Q 1331 -91 842 396 
Q 353 884 353 1716 
Q 353 2575 817 3079 
Q 1281 3584 2069 3584 
Q 2775 3584 3186 3129 
Q 3597 2675 3597 1894 
z
M 3022 2063 
Q 3016 2534 2758 2815 
Q 2500 3097 2075 3097 
Q 1594 3097 1305 2825 
Q 1016 2553 972 2059 
L 3022 2063 
z
" transform="scale(0.015625)"/>
      <path id="DejaVuSans-6d" d="M 3328 2828 
Q 3544 3216 3844 3400 
Q 4144 3584 4550 3584 
Q 5097 3584 5394 3201 
Q 5691 2819 5691 2113 
L 5691 0 
L 5113 0 
L 5113 2094 
Q 5113 2597 4934 2840 
Q 4756 3084 4391 3084 
Q 3944 3084 3684 2787 
Q 3425 2491 3425 1978 
L 3425 0 
L 2847 0 
L 2847 2094 
Q 2847 2600 2669 2842 
Q 2491 3084 2119 3084 
Q 1678 3084 1418 2786 
Q 1159 2488 1159 1978 
L 1159 0 
L 581 0 
L 581 3500 
L 1159 3500 
L 1159 2956 
Q 1356 3278 1631 3431 
Q 1906 3584 2284 3584 
Q 2666 3584 2933 3390 
Q 3200 3197 3328 2828 
z
" transform="scale(0.015625)"/>
      <path id="DejaVuSans-4c" d="M 628 4666 
L 1259 4666 
L 1259 531 
L 3531 531 
L 3531 0 
L 628 0 
L 628 4666 
z
" transform="scale(0.015625)"/>
      <path id="DejaVuSans-67" d="M 2906 1791 
Q 2906 2416 2648 2759 
Q 2391 3103 1925 3103 
Q 1463 3103 1205 2759 
Q 947 2416 947 1791 
Q 947 1169 1205 825 
Q 1463 481 1925 481 
Q 2391 481 2648 825 
Q 2906 1169 2906 1791 
z
M 3481 434 
Q 3481 -459 3084 -895 
Q 2688 -1331 1869 -1331 
Q 1566 -1331 1297 -1286 
Q 1028 -1241 775 -1147 
L 775 -588 
Q 1028 -725 1275 -790 
Q 1522 -856 1778 -856 
Q 2344 -856 2625 -561 
Q 2906 -266 2906 331 
L 2906 616 
Q 2728 306 2450 153 
Q 2172 0 1784 0 
Q 1141 0 747 490 
Q 353 981 353 1791 
Q 353 2603 747 3093 
Q 1141 3584 1784 3584 
Q 2172 3584 2450 3431 
Q 2728 3278 2906 2969 
L 2906 3500 
L 3481 3500 
L 3481 434 
z
" transform="scale(0.015625)"/>
      <path id="DejaVuSans-50" d="M 1259 4147 
L 1259 2394 
L 2053 2394 
Q 2494 2394 2734 2622 
Q 2975 2850 2975 3272 
Q 2975 3691 2734 3919 
Q 2494 4147 2053 4147 
L 1259 4147 
z
M 628 4666 
L 2053 4666 
Q 2838 4666 3239 4311 
Q 3641 3956 3641 3272 
Q 3641 2581 3239 2228 
Q 2838 1875 2053 1875 
L 1259 1875 
L 1259 0 
L 628 0 
L 628 4666 
z
" transform="scale(0.015625)"/>
      <path id="DejaVuSans-73" d="M 2834 3397 
L 2834 2853 
Q 2591 2978 2328 3040 
Q 2066 3103 1784 3103 
Q 1356 3103 1142 2972 
Q 928 2841 928 2578 
Q 928 2378 1081 2264 
Q 1234 2150 1697 2047 
L 1894 2003 
Q 2506 1872 2764 1633 
Q 3022 1394 3022 966 
Q 3022 478 2636 193 
Q 2250 -91 1575 -91 
Q 1294 -91 989 -36 
Q 684 19 347 128 
L 347 722 
Q 666 556 975 473 
Q 1284 391 1588 391 
Q 1994 391 2212 530 
Q 2431 669 2431 922 
Q 2431 1156 2273 1281 
Q 2116 1406 1581 1522 
L 1381 1569 
Q 847 1681 609 1914 
Q 372 2147 372 2553 
Q 372 3047 722 3315 
Q 1072 3584 1716 3584 
Q 2034 3584 2315 3537 
Q 2597 3491 2834 3397 
z
" transform="scale(0.015625)"/>
      <path id="DejaVuSans-74" d="M 1172 4494 
L 1172 3500 
L 2356 3500 
L 2356 3053 
L 1172 3053 
L 1172 1153 
Q 1172 725 1289 603 
Q 1406 481 1766 481 
L 2356 481 
L 2356 0 
L 1766 0 
Q 1100 0 847 248 
Q 594 497 594 1153 
L 594 3053 
L 172 3053 
L 172 3500 
L 594 3500 
L 594 4494 
L 1172 4494 
z
" transform="scale(0.015625)"/>
      <path id="DejaVuSans-69" d="M 603 3500 
L 1178 3500 
L 1178 0 
L 603 0 
L 603 3500 
z
M 603 4863 
L 1178 4863 
L 1178 4134 
L 603 4134 
L 603 4863 
z
" transform="scale(0.015625)"/>
     </defs>
     <use xlink:href="#DejaVuSans-45"/>
     <use xlink:href="#DejaVuSans-78" x="63.183594"/>
     <use xlink:href="#DejaVuSans-20" x="122.363281"/>
     <use xlink:href="#DejaVuSans-32" x="154.150391"/>
     <use xlink:href="#DejaVuSans-2e" x="217.773438"/>
     <use xlink:href="#DejaVuSans-41" x="249.560547"/>
     <use xlink:href="#DejaVuSans-20" x="317.96875"/>
     <use xlink:href="#DejaVuSans-70" x="349.755859"/>
     <use xlink:href="#DejaVuSans-72" x="413.232422"/>
     <use xlink:href="#DejaVuSans-6f" x="452.095703"/>
     <use xlink:href="#DejaVuSans-62" x="513.277344"/>
     <use xlink:href="#DejaVuSans-6c" x="576.753906"/>
     <use xlink:href="#DejaVuSans-65" x="604.537109"/>
     <use xlink:href="#DejaVuSans-6d" x="666.060547"/>
     <use xlink:href="#DejaVuSans-20" x="763.472656"/>
     <use xlink:href="#DejaVuSans-31" x="795.259766"/>
     <use xlink:href="#DejaVuSans-20" x="858.882812"/>
     <use xlink:href="#DejaVuSans-4c" x="890.669922"/>
     <use xlink:href="#DejaVuSans-6f" x="944.632812"/>
     <use xlink:href="#DejaVuSans-67" x="1005.814453"/>
     <use xlink:href="#DejaVuSans-20" x="1069.291016"/>
     <use xlink:href="#DejaVuSans-50" x="1101.078125"/>
     <use xlink:href="#DejaVuSans-6f" x="1157.755859"/>
     <use xlink:href="#DejaVuSans-73" x="1218.9375"/>
     <use xlink:href="#DejaVuSans-74" x="1271.037109"/>
     <use xlink:href="#DejaVuSans-65" x="1310.246094"/>
     <use xlink:href="#DejaVuSans-72" x="1371.769531"/>
     <use xlink:href="#DejaVuSans-69" x="1412.882812"/>
     <use xlink:href="#DejaVuSans-6f" x="1440.666016"/>
     <use xlink:href="#DejaVuSans-72" x="1501.847656"/>
    </g>
   </g>
  </g>
 </g>
 <defs>
  <clipPath id="p97074d11f7">
   <rect x="57.6" y="41.472" width="357.12" height="266.112"/>
  </clipPath>
 </defs>
</svg>
