<?xml version="1.0" encoding="utf-8" standalone="no"?>
<!DOCTYPE svg PUBLIC "-//W3C//DTD SVG 1.1//EN"
  "http://www.w3.org/Graphics/SVG/1.1/DTD/svg11.dtd">
<svg xmlns:xlink="http://www.w3.org/1999/xlink" width="360pt" height="720pt" viewBox="0 0 360 720" xmlns="http://www.w3.org/2000/svg" version="1.1">
 <metadata>
  <rdf:RDF xmlns:dc="http://purl.org/dc/elements/1.1/" xmlns:cc="http://creativecommons.org/ns#" xmlns:rdf="http://www.w3.org/1999/02/22-rdf-syntax-ns#">
   <cc:Work>
    <dc:type rdf:resource="http://purl.org/dc/dcmitype/StillImage"/>
    <dc:date>2024-03-27T03:03:34.618241</dc:date>
    <dc:format>image/svg+xml</dc:format>
    <dc:creator>
     <cc:Agent>
      <dc:title>Matplotlib v3.8.3, https://matplotlib.org/</dc:title>
     </cc:Agent>
    </dc:creator>
   </cc:Work>
  </rdf:RDF>
 </metadata>
 <defs>
  <style type="text/css">*{stroke-linejoin: round; stroke-linecap: butt}</style>
 </defs>
 <g id="figure_1">
  <g id="patch_1">
   <path d="M 0 720 
L 360 720 
L 360 0 
L 0 0 
z
" style="fill: #ffffff"/>
  </g>
  <g id="axes_1">
   <g id="patch_2">
    <path d="M 52.84 118.033684 
L 322.08 118.033684 
L 322.08 33.96 
L 52.84 33.96 
z
" style="fill: #ffffff"/>
   </g>
   <g id="matplotlib.axis_1">
    <g id="xtick_1">
     <g id="line2d_1">
      <defs>
       <path id="m425f4a7874" d="M 0 0 
L 0 3.5 
" style="stroke: #000000; stroke-width: 0.8"/>
      </defs>
      <g>
       <use xlink:href="#m425f4a7874" x="65.078182" y="118.033684" style="stroke: #000000; stroke-width: 0.8"/>
      </g>
     </g>
    </g>
    <g id="xtick_2">
     <g id="line2d_2">
      <g>
       <use xlink:href="#m425f4a7874" x="105.872121" y="118.033684" style="stroke: #000000; stroke-width: 0.8"/>
      </g>
     </g>
    </g>
    <g id="xtick_3">
     <g id="line2d_3">
      <g>
       <use xlink:href="#m425f4a7874" x="146.666061" y="118.033684" style="stroke: #000000; stroke-width: 0.8"/>
      </g>
     </g>
    </g>
    <g id="xtick_4">
     <g id="line2d_4">
      <g>
       <use xlink:href="#m425f4a7874" x="187.46" y="118.033684" style="stroke: #000000; stroke-width: 0.8"/>
      </g>
     </g>
    </g>
    <g id="xtick_5">
     <g id="line2d_5">
      <g>
       <use xlink:href="#m425f4a7874" x="228.253939" y="118.033684" style="stroke: #000000; stroke-width: 0.8"/>
      </g>
     </g>
    </g>
    <g id="xtick_6">
     <g id="line2d_6">
      <g>
       <use xlink:href="#m425f4a7874" x="269.047879" y="118.033684" style="stroke: #000000; stroke-width: 0.8"/>
      </g>
     </g>
    </g>
    <g id="xtick_7">
     <g id="line2d_7">
      <g>
       <use xlink:href="#m425f4a7874" x="309.841818" y="118.033684" style="stroke: #000000; stroke-width: 0.8"/>
      </g>
     </g>
    </g>
   </g>
   <g id="matplotlib.axis_2">
    <g id="ytick_1">
     <g id="line2d_8">
      <defs>
       <path id="m2561e4392b" d="M 0 0 
L -3.5 0 
" style="stroke: #000000; stroke-width: 0.8"/>
      </defs>
      <g>
       <use xlink:href="#m2561e4392b" x="52.84" y="107.143476" style="stroke: #000000; stroke-width: 0.8"/>
      </g>
     </g>
     <g id="text_1">
      <!-- −0.5 -->
      <g transform="translate(21.557188 110.942695) scale(0.1 -0.1)">
       <defs>
        <path id="DejaVuSans-2212" d="M 678 2272 
L 4684 2272 
L 4684 1741 
L 678 1741 
L 678 2272 
z
" transform="scale(0.015625)"/>
        <path id="DejaVuSans-30" d="M 2034 4250 
Q 1547 4250 1301 3770 
Q 1056 3291 1056 2328 
Q 1056 1369 1301 889 
Q 1547 409 2034 409 
Q 2525 409 2770 889 
Q 3016 1369 3016 2328 
Q 3016 3291 2770 3770 
Q 2525 4250 2034 4250 
z
M 2034 4750 
Q 2819 4750 3233 4129 
Q 3647 3509 3647 2328 
Q 3647 1150 3233 529 
Q 2819 -91 2034 -91 
Q 1250 -91 836 529 
Q 422 1150 422 2328 
Q 422 3509 836 4129 
Q 1250 4750 2034 4750 
z
" transform="scale(0.015625)"/>
        <path id="DejaVuSans-2e" d="M 684 794 
L 1344 794 
L 1344 0 
L 684 0 
L 684 794 
z
" transform="scale(0.015625)"/>
        <path id="DejaVuSans-35" d="M 691 4666 
L 3169 4666 
L 3169 4134 
L 1269 4134 
L 1269 2991 
Q 1406 3038 1543 3061 
Q 1681 3084 1819 3084 
Q 2600 3084 3056 2656 
Q 3513 2228 3513 1497 
Q 3513 744 3044 326 
Q 2575 -91 1722 -91 
Q 1428 -91 1123 -41 
Q 819 9 494 109 
L 494 744 
Q 775 591 1075 516 
Q 1375 441 1709 441 
Q 2250 441 2565 725 
Q 2881 1009 2881 1497 
Q 2881 1984 2565 2268 
Q 2250 2553 1709 2553 
Q 1456 2553 1204 2497 
Q 953 2441 691 2322 
L 691 4666 
z
" transform="scale(0.015625)"/>
       </defs>
       <use xlink:href="#DejaVuSans-2212"/>
       <use xlink:href="#DejaVuSans-30" x="83.789062"/>
       <use xlink:href="#DejaVuSans-2e" x="147.412109"/>
       <use xlink:href="#DejaVuSans-35" x="179.199219"/>
      </g>
     </g>
    </g>
    <g id="ytick_2">
     <g id="line2d_9">
      <g>
       <use xlink:href="#m2561e4392b" x="52.84" y="79.733893" style="stroke: #000000; stroke-width: 0.8"/>
      </g>
     </g>
     <g id="text_2">
      <!-- 0.0 -->
      <g transform="translate(29.936875 83.533112) scale(0.1 -0.1)">
       <use xlink:href="#DejaVuSans-30"/>
       <use xlink:href="#DejaVuSans-2e" x="63.623047"/>
       <use xlink:href="#DejaVuSans-30" x="95.410156"/>
      </g>
     </g>
    </g>
    <g id="ytick_3">
     <g id="line2d_10">
      <g>
       <use xlink:href="#m2561e4392b" x="52.84" y="52.324311" style="stroke: #000000; stroke-width: 0.8"/>
      </g>
     </g>
     <g id="text_3">
      <!-- 0.5 -->
      <g transform="translate(29.936875 56.123529) scale(0.1 -0.1)">
       <use xlink:href="#DejaVuSans-30"/>
       <use xlink:href="#DejaVuSans-2e" x="63.623047"/>
       <use xlink:href="#DejaVuSans-35" x="95.410156"/>
      </g>
     </g>
    </g>
    <g id="text_4">
     <!-- $q_1$ -->
     <g transform="translate(333.658125 81.546842) rotate(-90) scale(0.1 -0.1)">
      <defs>
       <path id="DejaVuSans-Oblique-71" d="M 2669 525 
Q 2438 222 2123 65 
Q 1809 -91 1428 -91 
Q 897 -91 595 267 
Q 294 625 294 1253 
Q 294 1759 480 2231 
Q 666 2703 1013 3078 
Q 1238 3322 1530 3453 
Q 1822 3584 2144 3584 
Q 2531 3584 2781 3431 
Q 3031 3278 3144 2969 
L 3244 3494 
L 3822 3494 
L 2888 -1319 
L 2309 -1319 
L 2669 525 
z
M 891 1338 
Q 891 875 1084 633 
Q 1278 391 1644 391 
Q 2188 391 2572 911 
Q 2956 1431 2956 2175 
Q 2956 2625 2757 2864 
Q 2559 3103 2188 3103 
Q 1916 3103 1684 2976 
Q 1453 2850 1281 2606 
Q 1100 2350 995 2006 
Q 891 1663 891 1338 
z
" transform="scale(0.015625)"/>
       <path id="DejaVuSans-31" d="M 794 531 
L 1825 531 
L 1825 4091 
L 703 3866 
L 703 4441 
L 1819 4666 
L 2450 4666 
L 2450 531 
L 3481 531 
L 3481 0 
L 794 0 
L 794 531 
z
" transform="scale(0.015625)"/>
      </defs>
      <use xlink:href="#DejaVuSans-Oblique-71"/>
      <use xlink:href="#DejaVuSans-31" transform="translate(63.476562 -16.40625) scale(0.7)"/>
     </g>
    </g>
   </g>
   <g id="line2d_11">
    <path d="M 65.078182 114.212153 
L 70.073358 84.73865 
L 75.068534 54.29355 
L 80.063711 45.617981 
L 85.058887 38.967747 
L 90.054063 38.9276 
L 95.049239 38.432894 
L 100.044416 37.781531 
L 105.039592 47.984232 
L 110.034768 51.438597 
L 115.029944 56.665276 
L 120.025121 65.052505 
L 125.020297 70.831895 
L 130.015473 76.421767 
L 135.010649 80.637802 
L 140.005826 76.851846 
L 145.001002 80.839781 
L 149.996178 84.772904 
L 154.991354 87.584966 
L 159.986531 84.195641 
L 164.981707 83.215888 
L 169.976883 84.212147 
L 174.972059 82.82561 
L 179.967236 85.903919 
L 184.962412 80.329022 
L 189.957588 83.227897 
L 194.952764 78.748475 
L 199.947941 71.693072 
L 204.943117 78.964784 
L 209.938293 80.724475 
L 214.933469 78.126198 
L 219.928646 74.928228 
L 224.923822 73.508647 
L 229.918998 76.930355 
L 234.914174 81.590543 
L 239.909351 78.997619 
L 244.904527 78.764323 
L 249.899703 79.64528 
L 254.894879 73.468892 
L 259.890056 81.021568 
L 264.885232 81.100238 
L 269.880408 74.233442 
L 274.875584 83.443926 
L 279.870761 79.705733 
L 284.865937 83.642673 
L 289.861113 79.718659 
L 294.856289 79.298813 
L 299.851466 78.488027 
L 304.846642 79.658003 
L 309.841818 83.28193 
" clip-path="url(#p1e30a289eb)" style="fill: none; stroke: #1f77b4; stroke-width: 1.5; stroke-linecap: square"/>
   </g>
   <g id="patch_3">
    <path d="M 52.84 118.033684 
L 52.84 33.96 
" style="fill: none; stroke: #000000; stroke-width: 0.8; stroke-linejoin: miter; stroke-linecap: square"/>
   </g>
   <g id="patch_4">
    <path d="M 322.08 118.033684 
L 322.08 33.96 
" style="fill: none; stroke: #000000; stroke-width: 0.8; stroke-linejoin: miter; stroke-linecap: square"/>
   </g>
   <g id="patch_5">
    <path d="M 52.84 118.033684 
L 322.08 118.033684 
" style="fill: none; stroke: #000000; stroke-width: 0.8; stroke-linejoin: miter; stroke-linecap: square"/>
   </g>
   <g id="patch_6">
    <path d="M 52.84 33.96 
L 322.08 33.96 
" style="fill: none; stroke: #000000; stroke-width: 0.8; stroke-linejoin: miter; stroke-linecap: square"/>
   </g>
  </g>
  <g id="axes_2">
   <g id="patch_7">
    <path d="M 52.84 210.514737 
L 322.08 210.514737 
L 322.08 126.441053 
L 52.84 126.441053 
z
" style="fill: #ffffff"/>
   </g>
   <g id="matplotlib.axis_3">
    <g id="xtick_8">
     <g id="line2d_12">
      <g>
       <use xlink:href="#m425f4a7874" x="65.078182" y="210.514737" style="stroke: #000000; stroke-width: 0.8"/>
      </g>
     </g>
    </g>
    <g id="xtick_9">
     <g id="line2d_13">
      <g>
       <use xlink:href="#m425f4a7874" x="105.872121" y="210.514737" style="stroke: #000000; stroke-width: 0.8"/>
      </g>
     </g>
    </g>
    <g id="xtick_10">
     <g id="line2d_14">
      <g>
       <use xlink:href="#m425f4a7874" x="146.666061" y="210.514737" style="stroke: #000000; stroke-width: 0.8"/>
      </g>
     </g>
    </g>
    <g id="xtick_11">
     <g id="line2d_15">
      <g>
       <use xlink:href="#m425f4a7874" x="187.46" y="210.514737" style="stroke: #000000; stroke-width: 0.8"/>
      </g>
     </g>
    </g>
    <g id="xtick_12">
     <g id="line2d_16">
      <g>
       <use xlink:href="#m425f4a7874" x="228.253939" y="210.514737" style="stroke: #000000; stroke-width: 0.8"/>
      </g>
     </g>
    </g>
    <g id="xtick_13">
     <g id="line2d_17">
      <g>
       <use xlink:href="#m425f4a7874" x="269.047879" y="210.514737" style="stroke: #000000; stroke-width: 0.8"/>
      </g>
     </g>
    </g>
    <g id="xtick_14">
     <g id="line2d_18">
      <g>
       <use xlink:href="#m425f4a7874" x="309.841818" y="210.514737" style="stroke: #000000; stroke-width: 0.8"/>
      </g>
     </g>
    </g>
   </g>
   <g id="matplotlib.axis_4">
    <g id="ytick_4">
     <g id="line2d_19">
      <g>
       <use xlink:href="#m2561e4392b" x="52.84" y="187.951561" style="stroke: #000000; stroke-width: 0.8"/>
      </g>
     </g>
     <g id="text_5">
      <!-- −0.5 -->
      <g transform="translate(21.557188 191.75078) scale(0.1 -0.1)">
       <use xlink:href="#DejaVuSans-2212"/>
       <use xlink:href="#DejaVuSans-30" x="83.789062"/>
       <use xlink:href="#DejaVuSans-2e" x="147.412109"/>
       <use xlink:href="#DejaVuSans-35" x="179.199219"/>
      </g>
     </g>
    </g>
    <g id="ytick_5">
     <g id="line2d_20">
      <g>
       <use xlink:href="#m2561e4392b" x="52.84" y="156.784281" style="stroke: #000000; stroke-width: 0.8"/>
      </g>
     </g>
     <g id="text_6">
      <!-- 0.0 -->
      <g transform="translate(29.936875 160.5835) scale(0.1 -0.1)">
       <use xlink:href="#DejaVuSans-30"/>
       <use xlink:href="#DejaVuSans-2e" x="63.623047"/>
       <use xlink:href="#DejaVuSans-30" x="95.410156"/>
      </g>
     </g>
    </g>
    <g id="text_7">
     <!-- $q_2$ -->
     <g transform="translate(333.658125 174.027895) rotate(-90) scale(0.1 -0.1)">
      <defs>
       <path id="DejaVuSans-32" d="M 1228 531 
L 3431 531 
L 3431 0 
L 469 0 
L 469 531 
Q 828 903 1448 1529 
Q 2069 2156 2228 2338 
Q 2531 2678 2651 2914 
Q 2772 3150 2772 3378 
Q 2772 3750 2511 3984 
Q 2250 4219 1831 4219 
Q 1534 4219 1204 4116 
Q 875 4013 500 3803 
L 500 4441 
Q 881 4594 1212 4672 
Q 1544 4750 1819 4750 
Q 2544 4750 2975 4387 
Q 3406 4025 3406 3419 
Q 3406 3131 3298 2873 
Q 3191 2616 2906 2266 
Q 2828 2175 2409 1742 
Q 1991 1309 1228 531 
z
" transform="scale(0.015625)"/>
      </defs>
      <use xlink:href="#DejaVuSans-Oblique-71"/>
      <use xlink:href="#DejaVuSans-32" transform="translate(63.476562 -16.40625) scale(0.7)"/>
     </g>
    </g>
   </g>
   <g id="line2d_21">
    <path d="M 65.078182 130.262584 
L 70.073358 174.476457 
L 75.068534 199.291371 
L 80.063711 206.693206 
L 85.058887 193.644907 
L 90.054063 195.561325 
L 95.049239 186.827288 
L 100.044416 180.697339 
L 105.039592 172.764078 
L 110.034768 164.115876 
L 115.029944 163.881756 
L 120.025121 164.252621 
L 125.020297 154.189136 
L 130.015473 154.837475 
L 135.010649 151.047228 
L 140.005826 156.873103 
L 145.001002 150.21076 
L 149.996178 146.529387 
L 154.991354 158.946011 
L 159.986531 154.814416 
L 164.981707 156.578569 
L 169.976883 157.806506 
L 174.972059 159.965656 
L 179.967236 156.428406 
L 184.962412 156.412373 
L 189.957588 154.670228 
L 194.952764 159.330962 
L 199.947941 160.078823 
L 204.943117 158.115824 
L 209.938293 157.311384 
L 214.933469 159.038774 
L 219.928646 154.619005 
L 224.923822 151.267553 
L 229.918998 155.853751 
L 234.914174 160.064216 
L 239.909351 158.754256 
L 244.904527 160.949826 
L 249.899703 156.517307 
L 254.894879 156.527528 
L 259.890056 157.54026 
L 264.885232 155.234808 
L 269.880408 153.327523 
L 274.875584 158.892539 
L 279.870761 161.210958 
L 284.865937 157.148896 
L 289.861113 161.228965 
L 294.856289 157.635021 
L 299.851466 153.785912 
L 304.846642 160.736515 
L 309.841818 154.226906 
" clip-path="url(#p88a177ec0b)" style="fill: none; stroke: #1f77b4; stroke-width: 1.5; stroke-linecap: square"/>
   </g>
   <g id="patch_8">
    <path d="M 52.84 210.514737 
L 52.84 126.441053 
" style="fill: none; stroke: #000000; stroke-width: 0.8; stroke-linejoin: miter; stroke-linecap: square"/>
   </g>
   <g id="patch_9">
    <path d="M 322.08 210.514737 
L 322.08 126.441053 
" style="fill: none; stroke: #000000; stroke-width: 0.8; stroke-linejoin: miter; stroke-linecap: square"/>
   </g>
   <g id="patch_10">
    <path d="M 52.84 210.514737 
L 322.08 210.514737 
" style="fill: none; stroke: #000000; stroke-width: 0.8; stroke-linejoin: miter; stroke-linecap: square"/>
   </g>
   <g id="patch_11">
    <path d="M 52.84 126.441053 
L 322.08 126.441053 
" style="fill: none; stroke: #000000; stroke-width: 0.8; stroke-linejoin: miter; stroke-linecap: square"/>
   </g>
  </g>
  <g id="axes_3">
   <g id="patch_12">
    <path d="M 52.84 302.995789 
L 322.08 302.995789 
L 322.08 218.922105 
L 52.84 218.922105 
z
" style="fill: #ffffff"/>
   </g>
   <g id="matplotlib.axis_5">
    <g id="xtick_15">
     <g id="line2d_22">
      <g>
       <use xlink:href="#m425f4a7874" x="65.078182" y="302.995789" style="stroke: #000000; stroke-width: 0.8"/>
      </g>
     </g>
    </g>
    <g id="xtick_16">
     <g id="line2d_23">
      <g>
       <use xlink:href="#m425f4a7874" x="105.872121" y="302.995789" style="stroke: #000000; stroke-width: 0.8"/>
      </g>
     </g>
    </g>
    <g id="xtick_17">
     <g id="line2d_24">
      <g>
       <use xlink:href="#m425f4a7874" x="146.666061" y="302.995789" style="stroke: #000000; stroke-width: 0.8"/>
      </g>
     </g>
    </g>
    <g id="xtick_18">
     <g id="line2d_25">
      <g>
       <use xlink:href="#m425f4a7874" x="187.46" y="302.995789" style="stroke: #000000; stroke-width: 0.8"/>
      </g>
     </g>
    </g>
    <g id="xtick_19">
     <g id="line2d_26">
      <g>
       <use xlink:href="#m425f4a7874" x="228.253939" y="302.995789" style="stroke: #000000; stroke-width: 0.8"/>
      </g>
     </g>
    </g>
    <g id="xtick_20">
     <g id="line2d_27">
      <g>
       <use xlink:href="#m425f4a7874" x="269.047879" y="302.995789" style="stroke: #000000; stroke-width: 0.8"/>
      </g>
     </g>
    </g>
    <g id="xtick_21">
     <g id="line2d_28">
      <g>
       <use xlink:href="#m425f4a7874" x="309.841818" y="302.995789" style="stroke: #000000; stroke-width: 0.8"/>
      </g>
     </g>
    </g>
   </g>
   <g id="matplotlib.axis_6">
    <g id="ytick_6">
     <g id="line2d_29">
      <g>
       <use xlink:href="#m2561e4392b" x="52.84" y="288.986882" style="stroke: #000000; stroke-width: 0.8"/>
      </g>
     </g>
     <g id="text_8">
      <!-- −0.2 -->
      <g transform="translate(21.557188 292.786101) scale(0.1 -0.1)">
       <use xlink:href="#DejaVuSans-2212"/>
       <use xlink:href="#DejaVuSans-30" x="83.789062"/>
       <use xlink:href="#DejaVuSans-2e" x="147.412109"/>
       <use xlink:href="#DejaVuSans-32" x="179.199219"/>
      </g>
     </g>
    </g>
    <g id="ytick_7">
     <g id="line2d_30">
      <g>
       <use xlink:href="#m2561e4392b" x="52.84" y="254.685963" style="stroke: #000000; stroke-width: 0.8"/>
      </g>
     </g>
     <g id="text_9">
      <!-- 0.0 -->
      <g transform="translate(29.936875 258.485182) scale(0.1 -0.1)">
       <use xlink:href="#DejaVuSans-30"/>
       <use xlink:href="#DejaVuSans-2e" x="63.623047"/>
       <use xlink:href="#DejaVuSans-30" x="95.410156"/>
      </g>
     </g>
    </g>
    <g id="ytick_8">
     <g id="line2d_31">
      <g>
       <use xlink:href="#m2561e4392b" x="52.84" y="220.385045" style="stroke: #000000; stroke-width: 0.8"/>
      </g>
     </g>
     <g id="text_10">
      <!-- 0.2 -->
      <g transform="translate(29.936875 224.184263) scale(0.1 -0.1)">
       <use xlink:href="#DejaVuSans-30"/>
       <use xlink:href="#DejaVuSans-2e" x="63.623047"/>
       <use xlink:href="#DejaVuSans-32" x="95.410156"/>
      </g>
     </g>
    </g>
    <g id="text_11">
     <!-- $q_3$ -->
     <g transform="translate(333.658125 266.508947) rotate(-90) scale(0.1 -0.1)">
      <defs>
       <path id="DejaVuSans-33" d="M 2597 2516 
Q 3050 2419 3304 2112 
Q 3559 1806 3559 1356 
Q 3559 666 3084 287 
Q 2609 -91 1734 -91 
Q 1441 -91 1130 -33 
Q 819 25 488 141 
L 488 750 
Q 750 597 1062 519 
Q 1375 441 1716 441 
Q 2309 441 2620 675 
Q 2931 909 2931 1356 
Q 2931 1769 2642 2001 
Q 2353 2234 1838 2234 
L 1294 2234 
L 1294 2753 
L 1863 2753 
Q 2328 2753 2575 2939 
Q 2822 3125 2822 3475 
Q 2822 3834 2567 4026 
Q 2313 4219 1838 4219 
Q 1578 4219 1281 4162 
Q 984 4106 628 3988 
L 628 4550 
Q 988 4650 1302 4700 
Q 1616 4750 1894 4750 
Q 2613 4750 3031 4423 
Q 3450 4097 3450 3541 
Q 3450 3153 3228 2886 
Q 3006 2619 2597 2516 
z
" transform="scale(0.015625)"/>
      </defs>
      <use xlink:href="#DejaVuSans-Oblique-71"/>
      <use xlink:href="#DejaVuSans-33" transform="translate(63.476562 -16.40625) scale(0.7)"/>
     </g>
    </g>
   </g>
   <g id="line2d_32">
    <path d="M 65.078182 299.174258 
L 70.073358 228.807573 
L 75.068534 232.413563 
L 80.063711 229.893057 
L 85.058887 222.743636 
L 90.054063 237.442553 
L 95.049239 240.811827 
L 100.044416 250.701239 
L 105.039592 253.701898 
L 110.034768 257.406078 
L 115.029944 243.889226 
L 120.025121 241.242485 
L 125.020297 253.531754 
L 130.015473 260.011361 
L 135.010649 258.208151 
L 140.005826 266.246518 
L 145.001002 260.233771 
L 149.996178 244.312399 
L 154.991354 256.943941 
L 159.986531 240.037913 
L 164.981707 254.295835 
L 169.976883 242.505706 
L 174.972059 262.754085 
L 179.967236 256.013699 
L 184.962412 260.43452 
L 189.957588 254.846697 
L 194.952764 265.612271 
L 199.947941 251.278793 
L 204.943117 248.12325 
L 209.938293 253.288602 
L 214.933469 251.010764 
L 219.928646 260.432688 
L 224.923822 234.245124 
L 229.918998 254.67347 
L 234.914174 268.13311 
L 239.909351 252.27797 
L 244.904527 234.15139 
L 249.899703 246.422707 
L 254.894879 252.642935 
L 259.890056 252.323388 
L 264.885232 247.239549 
L 269.880408 274.71529 
L 274.875584 258.658571 
L 279.870761 258.742766 
L 284.865937 262.563215 
L 289.861113 258.177585 
L 294.856289 251.305772 
L 299.851466 261.283524 
L 304.846642 254.949602 
L 309.841818 256.259861 
" clip-path="url(#p46e6c62181)" style="fill: none; stroke: #1f77b4; stroke-width: 1.5; stroke-linecap: square"/>
   </g>
   <g id="patch_13">
    <path d="M 52.84 302.995789 
L 52.84 218.922105 
" style="fill: none; stroke: #000000; stroke-width: 0.8; stroke-linejoin: miter; stroke-linecap: square"/>
   </g>
   <g id="patch_14">
    <path d="M 322.08 302.995789 
L 322.08 218.922105 
" style="fill: none; stroke: #000000; stroke-width: 0.8; stroke-linejoin: miter; stroke-linecap: square"/>
   </g>
   <g id="patch_15">
    <path d="M 52.84 302.995789 
L 322.08 302.995789 
" style="fill: none; stroke: #000000; stroke-width: 0.8; stroke-linejoin: miter; stroke-linecap: square"/>
   </g>
   <g id="patch_16">
    <path d="M 52.84 218.922105 
L 322.08 218.922105 
" style="fill: none; stroke: #000000; stroke-width: 0.8; stroke-linejoin: miter; stroke-linecap: square"/>
   </g>
  </g>
  <g id="axes_4">
   <g id="patch_17">
    <path d="M 52.84 395.476842 
L 322.08 395.476842 
L 322.08 311.403158 
L 52.84 311.403158 
z
" style="fill: #ffffff"/>
   </g>
   <g id="matplotlib.axis_7">
    <g id="xtick_22">
     <g id="line2d_33">
      <g>
       <use xlink:href="#m425f4a7874" x="65.078182" y="395.476842" style="stroke: #000000; stroke-width: 0.8"/>
      </g>
     </g>
    </g>
    <g id="xtick_23">
     <g id="line2d_34">
      <g>
       <use xlink:href="#m425f4a7874" x="105.872121" y="395.476842" style="stroke: #000000; stroke-width: 0.8"/>
      </g>
     </g>
    </g>
    <g id="xtick_24">
     <g id="line2d_35">
      <g>
       <use xlink:href="#m425f4a7874" x="146.666061" y="395.476842" style="stroke: #000000; stroke-width: 0.8"/>
      </g>
     </g>
    </g>
    <g id="xtick_25">
     <g id="line2d_36">
      <g>
       <use xlink:href="#m425f4a7874" x="187.46" y="395.476842" style="stroke: #000000; stroke-width: 0.8"/>
      </g>
     </g>
    </g>
    <g id="xtick_26">
     <g id="line2d_37">
      <g>
       <use xlink:href="#m425f4a7874" x="228.253939" y="395.476842" style="stroke: #000000; stroke-width: 0.8"/>
      </g>
     </g>
    </g>
    <g id="xtick_27">
     <g id="line2d_38">
      <g>
       <use xlink:href="#m425f4a7874" x="269.047879" y="395.476842" style="stroke: #000000; stroke-width: 0.8"/>
      </g>
     </g>
    </g>
    <g id="xtick_28">
     <g id="line2d_39">
      <g>
       <use xlink:href="#m425f4a7874" x="309.841818" y="395.476842" style="stroke: #000000; stroke-width: 0.8"/>
      </g>
     </g>
    </g>
   </g>
   <g id="matplotlib.axis_8">
    <g id="ytick_9">
     <g id="line2d_40">
      <g>
       <use xlink:href="#m2561e4392b" x="52.84" y="387.952099" style="stroke: #000000; stroke-width: 0.8"/>
      </g>
     </g>
     <g id="text_12">
      <!-- −1 -->
      <g transform="translate(31.097813 391.751318) scale(0.1 -0.1)">
       <use xlink:href="#DejaVuSans-2212"/>
       <use xlink:href="#DejaVuSans-31" x="83.789062"/>
      </g>
     </g>
    </g>
    <g id="ytick_10">
     <g id="line2d_41">
      <g>
       <use xlink:href="#m2561e4392b" x="52.84" y="350.012426" style="stroke: #000000; stroke-width: 0.8"/>
      </g>
     </g>
     <g id="text_13">
      <!-- 0 -->
      <g transform="translate(39.4775 353.811645) scale(0.1 -0.1)">
       <use xlink:href="#DejaVuSans-30"/>
      </g>
     </g>
    </g>
    <g id="ytick_11">
     <g id="line2d_42">
      <g>
       <use xlink:href="#m2561e4392b" x="52.84" y="312.072754" style="stroke: #000000; stroke-width: 0.8"/>
      </g>
     </g>
     <g id="text_14">
      <!-- 1 -->
      <g transform="translate(39.4775 315.871972) scale(0.1 -0.1)">
       <use xlink:href="#DejaVuSans-31"/>
      </g>
     </g>
    </g>
    <g id="text_15">
     <!-- $q_4$ -->
     <g transform="translate(333.658125 358.99) rotate(-90) scale(0.1 -0.1)">
      <defs>
       <path id="DejaVuSans-34" d="M 2419 4116 
L 825 1625 
L 2419 1625 
L 2419 4116 
z
M 2253 4666 
L 3047 4666 
L 3047 1625 
L 3713 1625 
L 3713 1100 
L 3047 1100 
L 3047 0 
L 2419 0 
L 2419 1100 
L 313 1100 
L 313 1709 
L 2253 4666 
z
" transform="scale(0.015625)"/>
      </defs>
      <use xlink:href="#DejaVuSans-Oblique-71"/>
      <use xlink:href="#DejaVuSans-34" transform="translate(63.476562 -16.40625) scale(0.7)"/>
     </g>
    </g>
   </g>
   <g id="line2d_43">
    <path d="M 65.078182 326.866689 
L 70.073358 315.224689 
L 75.068534 331.377278 
L 80.063711 344.551901 
L 85.058887 353.540426 
L 90.054063 366.726245 
L 95.049239 373.390894 
L 100.044416 377.095852 
L 105.039592 377.553981 
L 110.034768 382.757083 
L 115.029944 388.145079 
L 120.025121 384.923611 
L 125.020297 386.877751 
L 130.015473 389.60601 
L 135.010649 391.066126 
L 140.005826 386.732606 
L 145.001002 383.889222 
L 149.996178 386.409629 
L 154.991354 389.335987 
L 159.986531 385.749911 
L 164.981707 387.84124 
L 169.976883 388.880961 
L 174.972059 387.582999 
L 179.967236 389.777712 
L 184.962412 387.439279 
L 189.957588 384.424956 
L 194.952764 386.11462 
L 199.947941 386.243779 
L 204.943117 387.720116 
L 209.938293 385.827804 
L 214.933469 387.84738 
L 219.928646 390.072524 
L 224.923822 390.645696 
L 229.918998 387.608541 
L 234.914174 387.516053 
L 239.909351 390.893912 
L 244.904527 391.655311 
L 249.899703 386.950592 
L 254.894879 387.810754 
L 259.890056 388.901858 
L 264.885232 389.198184 
L 269.880408 387.350238 
L 274.875584 387.377923 
L 279.870761 385.535583 
L 284.865937 387.465333 
L 289.861113 388.735607 
L 294.856289 388.376067 
L 299.851466 387.527817 
L 304.846642 390.478357 
L 309.841818 386.399304 
" clip-path="url(#p5172f75b30)" style="fill: none; stroke: #1f77b4; stroke-width: 1.5; stroke-linecap: square"/>
   </g>
   <g id="patch_18">
    <path d="M 52.84 395.476842 
L 52.84 311.403158 
" style="fill: none; stroke: #000000; stroke-width: 0.8; stroke-linejoin: miter; stroke-linecap: square"/>
   </g>
   <g id="patch_19">
    <path d="M 322.08 395.476842 
L 322.08 311.403158 
" style="fill: none; stroke: #000000; stroke-width: 0.8; stroke-linejoin: miter; stroke-linecap: square"/>
   </g>
   <g id="patch_20">
    <path d="M 52.84 395.476842 
L 322.08 395.476842 
" style="fill: none; stroke: #000000; stroke-width: 0.8; stroke-linejoin: miter; stroke-linecap: square"/>
   </g>
   <g id="patch_21">
    <path d="M 52.84 311.403158 
L 322.08 311.403158 
" style="fill: none; stroke: #000000; stroke-width: 0.8; stroke-linejoin: miter; stroke-linecap: square"/>
   </g>
  </g>
  <g id="axes_5">
   <g id="patch_22">
    <path d="M 52.84 487.957895 
L 322.08 487.957895 
L 322.08 403.884211 
L 52.84 403.884211 
z
" style="fill: #ffffff"/>
   </g>
   <g id="matplotlib.axis_9">
    <g id="xtick_29">
     <g id="line2d_44">
      <g>
       <use xlink:href="#m425f4a7874" x="65.078182" y="487.957895" style="stroke: #000000; stroke-width: 0.8"/>
      </g>
     </g>
    </g>
    <g id="xtick_30">
     <g id="line2d_45">
      <g>
       <use xlink:href="#m425f4a7874" x="105.872121" y="487.957895" style="stroke: #000000; stroke-width: 0.8"/>
      </g>
     </g>
    </g>
    <g id="xtick_31">
     <g id="line2d_46">
      <g>
       <use xlink:href="#m425f4a7874" x="146.666061" y="487.957895" style="stroke: #000000; stroke-width: 0.8"/>
      </g>
     </g>
    </g>
    <g id="xtick_32">
     <g id="line2d_47">
      <g>
       <use xlink:href="#m425f4a7874" x="187.46" y="487.957895" style="stroke: #000000; stroke-width: 0.8"/>
      </g>
     </g>
    </g>
    <g id="xtick_33">
     <g id="line2d_48">
      <g>
       <use xlink:href="#m425f4a7874" x="228.253939" y="487.957895" style="stroke: #000000; stroke-width: 0.8"/>
      </g>
     </g>
    </g>
    <g id="xtick_34">
     <g id="line2d_49">
      <g>
       <use xlink:href="#m425f4a7874" x="269.047879" y="487.957895" style="stroke: #000000; stroke-width: 0.8"/>
      </g>
     </g>
    </g>
    <g id="xtick_35">
     <g id="line2d_50">
      <g>
       <use xlink:href="#m425f4a7874" x="309.841818" y="487.957895" style="stroke: #000000; stroke-width: 0.8"/>
      </g>
     </g>
    </g>
   </g>
   <g id="matplotlib.axis_10">
    <g id="ytick_12">
     <g id="line2d_51">
      <g>
       <use xlink:href="#m2561e4392b" x="52.84" y="474.413656" style="stroke: #000000; stroke-width: 0.8"/>
      </g>
     </g>
     <g id="text_16">
      <!-- 0.0 -->
      <g transform="translate(29.936875 478.212875) scale(0.1 -0.1)">
       <use xlink:href="#DejaVuSans-30"/>
       <use xlink:href="#DejaVuSans-2e" x="63.623047"/>
       <use xlink:href="#DejaVuSans-30" x="95.410156"/>
      </g>
     </g>
    </g>
    <g id="ytick_13">
     <g id="line2d_52">
      <g>
       <use xlink:href="#m2561e4392b" x="52.84" y="444.826211" style="stroke: #000000; stroke-width: 0.8"/>
      </g>
     </g>
     <g id="text_17">
      <!-- 0.5 -->
      <g transform="translate(29.936875 448.62543) scale(0.1 -0.1)">
       <use xlink:href="#DejaVuSans-30"/>
       <use xlink:href="#DejaVuSans-2e" x="63.623047"/>
       <use xlink:href="#DejaVuSans-35" x="95.410156"/>
      </g>
     </g>
    </g>
    <g id="ytick_14">
     <g id="line2d_53">
      <g>
       <use xlink:href="#m2561e4392b" x="52.84" y="415.238766" style="stroke: #000000; stroke-width: 0.8"/>
      </g>
     </g>
     <g id="text_18">
      <!-- 1.0 -->
      <g transform="translate(29.936875 419.037984) scale(0.1 -0.1)">
       <use xlink:href="#DejaVuSans-31"/>
       <use xlink:href="#DejaVuSans-2e" x="63.623047"/>
       <use xlink:href="#DejaVuSans-30" x="95.410156"/>
      </g>
     </g>
    </g>
    <g id="text_19">
     <!-- $\omega_1$ -->
     <g transform="translate(333.678438 452.521053) rotate(-90) scale(0.1 -0.1)">
      <defs>
       <path id="DejaVuSans-Oblique-3c9" d="M 1369 -91 
Q 72 -91 434 1766 
Q 575 2500 1256 3500 
L 1875 3500 
Q 1231 2500 1088 1750 
Q 819 397 1519 397 
Q 2166 397 2478 2078 
L 3009 2078 
Q 2669 388 3316 397 
Q 4013 403 4275 1750 
Q 4419 2500 4169 3500 
L 4788 3500 
Q 5075 2500 4934 1766 
Q 4578 -94 3278 -91 
Q 2428 -88 2503 844 
Q 2194 -91 1369 -91 
z
" transform="scale(0.015625)"/>
      </defs>
      <use xlink:href="#DejaVuSans-Oblique-3c9" transform="translate(0 0.3125)"/>
      <use xlink:href="#DejaVuSans-31" transform="translate(83.740234 -16.09375) scale(0.7)"/>
     </g>
    </g>
   </g>
   <g id="line2d_54">
    <path d="M 65.078182 407.705742 
L 70.073358 419.239029 
L 75.068534 440.455879 
L 80.063711 446.616266 
L 85.058887 461.151406 
L 90.054063 462.970649 
L 95.049239 465.529733 
L 100.044416 458.874353 
L 105.039592 459.610843 
L 110.034768 467.606787 
L 115.029944 460.535779 
L 120.025121 467.792218 
L 125.020297 465.181853 
L 130.015473 467.503676 
L 135.010649 467.077537 
L 140.005826 469.661429 
L 145.001002 476.51137 
L 149.996178 469.425969 
L 154.991354 476.3902 
L 159.986531 474.600087 
L 164.981707 480.02705 
L 169.976883 477.752555 
L 174.972059 478.353553 
L 179.967236 475.570397 
L 184.962412 475.409588 
L 189.957588 476.564102 
L 194.952764 475.124124 
L 199.947941 478.145693 
L 204.943117 476.522868 
L 209.938293 470.185976 
L 214.933469 476.696055 
L 219.928646 475.162522 
L 224.923822 476.47055 
L 229.918998 476.178329 
L 234.914174 468.735662 
L 239.909351 484.136364 
L 244.904527 471.985925 
L 249.899703 479.809549 
L 254.894879 476.29719 
L 259.890056 482.847754 
L 264.885232 471.115374 
L 269.880408 470.926358 
L 274.875584 475.331227 
L 279.870761 473.880025 
L 284.865937 469.710711 
L 289.861113 476.120027 
L 294.856289 476.654071 
L 299.851466 473.685285 
L 304.846642 468.835102 
L 309.841818 477.05853 
" clip-path="url(#p9760a1788b)" style="fill: none; stroke: #1f77b4; stroke-width: 1.5; stroke-linecap: square"/>
   </g>
   <g id="patch_23">
    <path d="M 52.84 487.957895 
L 52.84 403.884211 
" style="fill: none; stroke: #000000; stroke-width: 0.8; stroke-linejoin: miter; stroke-linecap: square"/>
   </g>
   <g id="patch_24">
    <path d="M 322.08 487.957895 
L 322.08 403.884211 
" style="fill: none; stroke: #000000; stroke-width: 0.8; stroke-linejoin: miter; stroke-linecap: square"/>
   </g>
   <g id="patch_25">
    <path d="M 52.84 487.957895 
L 322.08 487.957895 
" style="fill: none; stroke: #000000; stroke-width: 0.8; stroke-linejoin: miter; stroke-linecap: square"/>
   </g>
   <g id="patch_26">
    <path d="M 52.84 403.884211 
L 322.08 403.884211 
" style="fill: none; stroke: #000000; stroke-width: 0.8; stroke-linejoin: miter; stroke-linecap: square"/>
   </g>
  </g>
  <g id="axes_6">
   <g id="patch_27">
    <path d="M 52.84 580.438947 
L 322.08 580.438947 
L 322.08 496.365263 
L 52.84 496.365263 
z
" style="fill: #ffffff"/>
   </g>
   <g id="matplotlib.axis_11">
    <g id="xtick_36">
     <g id="line2d_55">
      <g>
       <use xlink:href="#m425f4a7874" x="65.078182" y="580.438947" style="stroke: #000000; stroke-width: 0.8"/>
      </g>
     </g>
    </g>
    <g id="xtick_37">
     <g id="line2d_56">
      <g>
       <use xlink:href="#m425f4a7874" x="105.872121" y="580.438947" style="stroke: #000000; stroke-width: 0.8"/>
      </g>
     </g>
    </g>
    <g id="xtick_38">
     <g id="line2d_57">
      <g>
       <use xlink:href="#m425f4a7874" x="146.666061" y="580.438947" style="stroke: #000000; stroke-width: 0.8"/>
      </g>
     </g>
    </g>
    <g id="xtick_39">
     <g id="line2d_58">
      <g>
       <use xlink:href="#m425f4a7874" x="187.46" y="580.438947" style="stroke: #000000; stroke-width: 0.8"/>
      </g>
     </g>
    </g>
    <g id="xtick_40">
     <g id="line2d_59">
      <g>
       <use xlink:href="#m425f4a7874" x="228.253939" y="580.438947" style="stroke: #000000; stroke-width: 0.8"/>
      </g>
     </g>
    </g>
    <g id="xtick_41">
     <g id="line2d_60">
      <g>
       <use xlink:href="#m425f4a7874" x="269.047879" y="580.438947" style="stroke: #000000; stroke-width: 0.8"/>
      </g>
     </g>
    </g>
    <g id="xtick_42">
     <g id="line2d_61">
      <g>
       <use xlink:href="#m425f4a7874" x="309.841818" y="580.438947" style="stroke: #000000; stroke-width: 0.8"/>
      </g>
     </g>
    </g>
   </g>
   <g id="matplotlib.axis_12">
    <g id="ytick_15">
     <g id="line2d_62">
      <g>
       <use xlink:href="#m2561e4392b" x="52.84" y="575.138697" style="stroke: #000000; stroke-width: 0.8"/>
      </g>
     </g>
     <g id="text_20">
      <!-- −1.5 -->
      <g transform="translate(21.557188 578.937916) scale(0.1 -0.1)">
       <use xlink:href="#DejaVuSans-2212"/>
       <use xlink:href="#DejaVuSans-31" x="83.789062"/>
       <use xlink:href="#DejaVuSans-2e" x="147.412109"/>
       <use xlink:href="#DejaVuSans-35" x="179.199219"/>
      </g>
     </g>
    </g>
    <g id="ytick_16">
     <g id="line2d_63">
      <g>
       <use xlink:href="#m2561e4392b" x="52.84" y="551.595812" style="stroke: #000000; stroke-width: 0.8"/>
      </g>
     </g>
     <g id="text_21">
      <!-- −1.0 -->
      <g transform="translate(21.557188 555.395031) scale(0.1 -0.1)">
       <use xlink:href="#DejaVuSans-2212"/>
       <use xlink:href="#DejaVuSans-31" x="83.789062"/>
       <use xlink:href="#DejaVuSans-2e" x="147.412109"/>
       <use xlink:href="#DejaVuSans-30" x="179.199219"/>
      </g>
     </g>
    </g>
    <g id="ytick_17">
     <g id="line2d_64">
      <g>
       <use xlink:href="#m2561e4392b" x="52.84" y="528.052926" style="stroke: #000000; stroke-width: 0.8"/>
      </g>
     </g>
     <g id="text_22">
      <!-- −0.5 -->
      <g transform="translate(21.557188 531.852145) scale(0.1 -0.1)">
       <use xlink:href="#DejaVuSans-2212"/>
       <use xlink:href="#DejaVuSans-30" x="83.789062"/>
       <use xlink:href="#DejaVuSans-2e" x="147.412109"/>
       <use xlink:href="#DejaVuSans-35" x="179.199219"/>
      </g>
     </g>
    </g>
    <g id="ytick_18">
     <g id="line2d_65">
      <g>
       <use xlink:href="#m2561e4392b" x="52.84" y="504.510041" style="stroke: #000000; stroke-width: 0.8"/>
      </g>
     </g>
     <g id="text_23">
      <!-- 0.0 -->
      <g transform="translate(29.936875 508.30926) scale(0.1 -0.1)">
       <use xlink:href="#DejaVuSans-30"/>
       <use xlink:href="#DejaVuSans-2e" x="63.623047"/>
       <use xlink:href="#DejaVuSans-30" x="95.410156"/>
      </g>
     </g>
    </g>
    <g id="text_24">
     <!-- $\omega_2$ -->
     <g transform="translate(333.678438 545.002105) rotate(-90) scale(0.1 -0.1)">
      <use xlink:href="#DejaVuSans-Oblique-3c9" transform="translate(0 0.3125)"/>
      <use xlink:href="#DejaVuSans-32" transform="translate(83.740234 -16.09375) scale(0.7)"/>
     </g>
    </g>
   </g>
   <g id="line2d_66">
    <path d="M 65.078182 576.617416 
L 70.073358 552.328615 
L 75.068534 542.937741 
L 80.063711 526.712607 
L 85.058887 521.994077 
L 90.054063 515.061338 
L 95.049239 516.770411 
L 100.044416 515.689381 
L 105.039592 511.256393 
L 110.034768 514.937137 
L 115.029944 509.22331 
L 120.025121 509.686271 
L 125.020297 507.855163 
L 130.015473 509.35182 
L 135.010649 506.192046 
L 140.005826 501.399512 
L 145.001002 505.196066 
L 149.996178 505.023393 
L 154.991354 505.087722 
L 159.986531 506.713252 
L 164.981707 504.050647 
L 169.976883 505.405324 
L 174.972059 502.512695 
L 179.967236 504.94257 
L 184.962412 503.44948 
L 189.957588 505.987463 
L 194.952764 506.609735 
L 199.947941 505.375952 
L 204.943117 500.186794 
L 209.938293 506.446572 
L 214.933469 502.001805 
L 219.928646 504.807205 
L 224.923822 503.107022 
L 229.918998 505.712044 
L 234.914174 509.110627 
L 239.909351 506.413034 
L 244.904527 507.139111 
L 249.899703 505.549674 
L 254.894879 507.104299 
L 259.890056 505.41573 
L 264.885232 504.784842 
L 269.880408 500.560511 
L 274.875584 508.016623 
L 279.870761 510.719076 
L 284.865937 506.259983 
L 289.861113 504.573841 
L 294.856289 507.309953 
L 299.851466 500.829462 
L 304.846642 505.116696 
L 309.841818 505.799009 
" clip-path="url(#p4649530594)" style="fill: none; stroke: #1f77b4; stroke-width: 1.5; stroke-linecap: square"/>
   </g>
   <g id="patch_28">
    <path d="M 52.84 580.438947 
L 52.84 496.365263 
" style="fill: none; stroke: #000000; stroke-width: 0.8; stroke-linejoin: miter; stroke-linecap: square"/>
   </g>
   <g id="patch_29">
    <path d="M 322.08 580.438947 
L 322.08 496.365263 
" style="fill: none; stroke: #000000; stroke-width: 0.8; stroke-linejoin: miter; stroke-linecap: square"/>
   </g>
   <g id="patch_30">
    <path d="M 52.84 580.438947 
L 322.08 580.438947 
" style="fill: none; stroke: #000000; stroke-width: 0.8; stroke-linejoin: miter; stroke-linecap: square"/>
   </g>
   <g id="patch_31">
    <path d="M 52.84 496.365263 
L 322.08 496.365263 
" style="fill: none; stroke: #000000; stroke-width: 0.8; stroke-linejoin: miter; stroke-linecap: square"/>
   </g>
  </g>
  <g id="axes_7">
   <g id="patch_32">
    <path d="M 52.84 672.92 
L 322.08 672.92 
L 322.08 588.846316 
L 52.84 588.846316 
z
" style="fill: #ffffff"/>
   </g>
   <g id="matplotlib.axis_13">
    <g id="xtick_43">
     <g id="line2d_67">
      <g>
       <use xlink:href="#m425f4a7874" x="65.078182" y="672.92" style="stroke: #000000; stroke-width: 0.8"/>
      </g>
     </g>
     <g id="text_25">
      <!-- 0 -->
      <g transform="translate(61.896932 687.518438) scale(0.1 -0.1)">
       <use xlink:href="#DejaVuSans-30"/>
      </g>
     </g>
    </g>
    <g id="xtick_44">
     <g id="line2d_68">
      <g>
       <use xlink:href="#m425f4a7874" x="105.872121" y="672.92" style="stroke: #000000; stroke-width: 0.8"/>
      </g>
     </g>
     <g id="text_26">
      <!-- 10 -->
      <g transform="translate(99.509621 687.518438) scale(0.1 -0.1)">
       <use xlink:href="#DejaVuSans-31"/>
       <use xlink:href="#DejaVuSans-30" x="63.623047"/>
      </g>
     </g>
    </g>
    <g id="xtick_45">
     <g id="line2d_69">
      <g>
       <use xlink:href="#m425f4a7874" x="146.666061" y="672.92" style="stroke: #000000; stroke-width: 0.8"/>
      </g>
     </g>
     <g id="text_27">
      <!-- 20 -->
      <g transform="translate(140.303561 687.518438) scale(0.1 -0.1)">
       <use xlink:href="#DejaVuSans-32"/>
       <use xlink:href="#DejaVuSans-30" x="63.623047"/>
      </g>
     </g>
    </g>
    <g id="xtick_46">
     <g id="line2d_70">
      <g>
       <use xlink:href="#m425f4a7874" x="187.46" y="672.92" style="stroke: #000000; stroke-width: 0.8"/>
      </g>
     </g>
     <g id="text_28">
      <!-- 30 -->
      <g transform="translate(181.0975 687.518438) scale(0.1 -0.1)">
       <use xlink:href="#DejaVuSans-33"/>
       <use xlink:href="#DejaVuSans-30" x="63.623047"/>
      </g>
     </g>
    </g>
    <g id="xtick_47">
     <g id="line2d_71">
      <g>
       <use xlink:href="#m425f4a7874" x="228.253939" y="672.92" style="stroke: #000000; stroke-width: 0.8"/>
      </g>
     </g>
     <g id="text_29">
      <!-- 40 -->
      <g transform="translate(221.891439 687.518438) scale(0.1 -0.1)">
       <use xlink:href="#DejaVuSans-34"/>
       <use xlink:href="#DejaVuSans-30" x="63.623047"/>
      </g>
     </g>
    </g>
    <g id="xtick_48">
     <g id="line2d_72">
      <g>
       <use xlink:href="#m425f4a7874" x="269.047879" y="672.92" style="stroke: #000000; stroke-width: 0.8"/>
      </g>
     </g>
     <g id="text_30">
      <!-- 50 -->
      <g transform="translate(262.685379 687.518438) scale(0.1 -0.1)">
       <use xlink:href="#DejaVuSans-35"/>
       <use xlink:href="#DejaVuSans-30" x="63.623047"/>
      </g>
     </g>
    </g>
    <g id="xtick_49">
     <g id="line2d_73">
      <g>
       <use xlink:href="#m425f4a7874" x="309.841818" y="672.92" style="stroke: #000000; stroke-width: 0.8"/>
      </g>
     </g>
     <g id="text_31">
      <!-- 60 -->
      <g transform="translate(303.479318 687.518438) scale(0.1 -0.1)">
       <defs>
        <path id="DejaVuSans-36" d="M 2113 2584 
Q 1688 2584 1439 2293 
Q 1191 2003 1191 1497 
Q 1191 994 1439 701 
Q 1688 409 2113 409 
Q 2538 409 2786 701 
Q 3034 994 3034 1497 
Q 3034 2003 2786 2293 
Q 2538 2584 2113 2584 
z
M 3366 4563 
L 3366 3988 
Q 3128 4100 2886 4159 
Q 2644 4219 2406 4219 
Q 1781 4219 1451 3797 
Q 1122 3375 1075 2522 
Q 1259 2794 1537 2939 
Q 1816 3084 2150 3084 
Q 2853 3084 3261 2657 
Q 3669 2231 3669 1497 
Q 3669 778 3244 343 
Q 2819 -91 2113 -91 
Q 1303 -91 875 529 
Q 447 1150 447 2328 
Q 447 3434 972 4092 
Q 1497 4750 2381 4750 
Q 2619 4750 2861 4703 
Q 3103 4656 3366 4563 
z
" transform="scale(0.015625)"/>
       </defs>
       <use xlink:href="#DejaVuSans-36"/>
       <use xlink:href="#DejaVuSans-30" x="63.623047"/>
      </g>
     </g>
    </g>
    <g id="text_32">
     <!-- Time -->
     <g transform="translate(175.226406 701.196563) scale(0.1 -0.1)">
      <defs>
       <path id="DejaVuSans-54" d="M -19 4666 
L 3928 4666 
L 3928 4134 
L 2272 4134 
L 2272 0 
L 1638 0 
L 1638 4134 
L -19 4134 
L -19 4666 
z
" transform="scale(0.015625)"/>
       <path id="DejaVuSans-69" d="M 603 3500 
L 1178 3500 
L 1178 0 
L 603 0 
L 603 3500 
z
M 603 4863 
L 1178 4863 
L 1178 4134 
L 603 4134 
L 603 4863 
z
" transform="scale(0.015625)"/>
       <path id="DejaVuSans-6d" d="M 3328 2828 
Q 3544 3216 3844 3400 
Q 4144 3584 4550 3584 
Q 5097 3584 5394 3201 
Q 5691 2819 5691 2113 
L 5691 0 
L 5113 0 
L 5113 2094 
Q 5113 2597 4934 2840 
Q 4756 3084 4391 3084 
Q 3944 3084 3684 2787 
Q 3425 2491 3425 1978 
L 3425 0 
L 2847 0 
L 2847 2094 
Q 2847 2600 2669 2842 
Q 2491 3084 2119 3084 
Q 1678 3084 1418 2786 
Q 1159 2488 1159 1978 
L 1159 0 
L 581 0 
L 581 3500 
L 1159 3500 
L 1159 2956 
Q 1356 3278 1631 3431 
Q 1906 3584 2284 3584 
Q 2666 3584 2933 3390 
Q 3200 3197 3328 2828 
z
" transform="scale(0.015625)"/>
       <path id="DejaVuSans-65" d="M 3597 1894 
L 3597 1613 
L 953 1613 
Q 991 1019 1311 708 
Q 1631 397 2203 397 
Q 2534 397 2845 478 
Q 3156 559 3463 722 
L 3463 178 
Q 3153 47 2828 -22 
Q 2503 -91 2169 -91 
Q 1331 -91 842 396 
Q 353 884 353 1716 
Q 353 2575 817 3079 
Q 1281 3584 2069 3584 
Q 2775 3584 3186 3129 
Q 3597 2675 3597 1894 
z
M 3022 2063 
Q 3016 2534 2758 2815 
Q 2500 3097 2075 3097 
Q 1594 3097 1305 2825 
Q 1016 2553 972 2059 
L 3022 2063 
z
" transform="scale(0.015625)"/>
      </defs>
      <use xlink:href="#DejaVuSans-54"/>
      <use xlink:href="#DejaVuSans-69" x="57.958984"/>
      <use xlink:href="#DejaVuSans-6d" x="85.742188"/>
      <use xlink:href="#DejaVuSans-65" x="183.154297"/>
     </g>
    </g>
   </g>
   <g id="matplotlib.axis_14">
    <g id="ytick_19">
     <g id="line2d_74">
      <g>
       <use xlink:href="#m2561e4392b" x="52.84" y="666.226324" style="stroke: #000000; stroke-width: 0.8"/>
      </g>
     </g>
     <g id="text_33">
      <!-- −0.2 -->
      <g transform="translate(21.557188 670.025543) scale(0.1 -0.1)">
       <use xlink:href="#DejaVuSans-2212"/>
       <use xlink:href="#DejaVuSans-30" x="83.789062"/>
       <use xlink:href="#DejaVuSans-2e" x="147.412109"/>
       <use xlink:href="#DejaVuSans-32" x="179.199219"/>
      </g>
     </g>
    </g>
    <g id="ytick_20">
     <g id="line2d_75">
      <g>
       <use xlink:href="#m2561e4392b" x="52.84" y="642.227829" style="stroke: #000000; stroke-width: 0.8"/>
      </g>
     </g>
     <g id="text_34">
      <!-- −0.1 -->
      <g transform="translate(21.557188 646.027048) scale(0.1 -0.1)">
       <use xlink:href="#DejaVuSans-2212"/>
       <use xlink:href="#DejaVuSans-30" x="83.789062"/>
       <use xlink:href="#DejaVuSans-2e" x="147.412109"/>
       <use xlink:href="#DejaVuSans-31" x="179.199219"/>
      </g>
     </g>
    </g>
    <g id="ytick_21">
     <g id="line2d_76">
      <g>
       <use xlink:href="#m2561e4392b" x="52.84" y="618.229335" style="stroke: #000000; stroke-width: 0.8"/>
      </g>
     </g>
     <g id="text_35">
      <!-- 0.0 -->
      <g transform="translate(29.936875 622.028553) scale(0.1 -0.1)">
       <use xlink:href="#DejaVuSans-30"/>
       <use xlink:href="#DejaVuSans-2e" x="63.623047"/>
       <use xlink:href="#DejaVuSans-30" x="95.410156"/>
      </g>
     </g>
    </g>
    <g id="ytick_22">
     <g id="line2d_77">
      <g>
       <use xlink:href="#m2561e4392b" x="52.84" y="594.23084" style="stroke: #000000; stroke-width: 0.8"/>
      </g>
     </g>
     <g id="text_36">
      <!-- 0.1 -->
      <g transform="translate(29.936875 598.030059) scale(0.1 -0.1)">
       <use xlink:href="#DejaVuSans-30"/>
       <use xlink:href="#DejaVuSans-2e" x="63.623047"/>
       <use xlink:href="#DejaVuSans-31" x="95.410156"/>
      </g>
     </g>
    </g>
    <g id="text_37">
     <!-- $\omega_3$ -->
     <g transform="translate(333.678438 637.483158) rotate(-90) scale(0.1 -0.1)">
      <use xlink:href="#DejaVuSans-Oblique-3c9" transform="translate(0 0.3125)"/>
      <use xlink:href="#DejaVuSans-33" transform="translate(83.740234 -16.09375) scale(0.7)"/>
     </g>
    </g>
   </g>
   <g id="line2d_78">
    <path d="M 65.078182 592.667847 
L 70.073358 655.828587 
L 75.068534 669.098469 
L 80.063711 661.02942 
L 85.058887 640.387489 
L 90.054063 638.306767 
L 95.049239 617.365101 
L 100.044416 639.010821 
L 105.039592 623.079515 
L 110.034768 650.876951 
L 115.029944 640.641909 
L 120.025121 611.255949 
L 125.020297 641.120278 
L 130.015473 616.437318 
L 135.010649 625.088654 
L 140.005826 622.030479 
L 145.001002 623.803489 
L 149.996178 636.625549 
L 154.991354 622.046703 
L 159.986531 601.009568 
L 164.981707 622.092451 
L 169.976883 601.097236 
L 174.972059 614.927157 
L 179.967236 615.173023 
L 184.962412 600.381936 
L 189.957588 627.670679 
L 194.952764 640.59346 
L 199.947941 602.738992 
L 204.943117 596.932661 
L 209.938293 612.714357 
L 214.933469 627.44335 
L 219.928646 603.562637 
L 224.923822 617.279062 
L 229.918998 620.024553 
L 234.914174 597.039341 
L 239.909351 610.056759 
L 244.904527 634.74407 
L 249.899703 619.794467 
L 254.894879 639.390761 
L 259.890056 620.568739 
L 264.885232 612.12701 
L 269.880408 608.33064 
L 274.875584 618.320159 
L 279.870761 623.600732 
L 284.865937 629.425377 
L 289.861113 599.555799 
L 294.856289 617.658848 
L 299.851466 606.201516 
L 304.846642 612.487191 
L 309.841818 617.508112 
" clip-path="url(#p7a5c37d727)" style="fill: none; stroke: #1f77b4; stroke-width: 1.5; stroke-linecap: square"/>
   </g>
   <g id="patch_33">
    <path d="M 52.84 672.92 
L 52.84 588.846316 
" style="fill: none; stroke: #000000; stroke-width: 0.8; stroke-linejoin: miter; stroke-linecap: square"/>
   </g>
   <g id="patch_34">
    <path d="M 322.08 672.92 
L 322.08 588.846316 
" style="fill: none; stroke: #000000; stroke-width: 0.8; stroke-linejoin: miter; stroke-linecap: square"/>
   </g>
   <g id="patch_35">
    <path d="M 52.84 672.92 
L 322.08 672.92 
" style="fill: none; stroke: #000000; stroke-width: 0.8; stroke-linejoin: miter; stroke-linecap: square"/>
   </g>
   <g id="patch_36">
    <path d="M 52.84 588.846316 
L 322.08 588.846316 
" style="fill: none; stroke: #000000; stroke-width: 0.8; stroke-linejoin: miter; stroke-linecap: square"/>
   </g>
  </g>
  <g id="text_38">
   <!-- Noisy Satellite Dynamics -->
   <g transform="translate(105.52125 23.518125) scale(0.12 -0.12)">
    <defs>
     <path id="DejaVuSans-4e" d="M 628 4666 
L 1478 4666 
L 3547 763 
L 3547 4666 
L 4159 4666 
L 4159 0 
L 3309 0 
L 1241 3903 
L 1241 0 
L 628 0 
L 628 4666 
z
" transform="scale(0.015625)"/>
     <path id="DejaVuSans-6f" d="M 1959 3097 
Q 1497 3097 1228 2736 
Q 959 2375 959 1747 
Q 959 1119 1226 758 
Q 1494 397 1959 397 
Q 2419 397 2687 759 
Q 2956 1122 2956 1747 
Q 2956 2369 2687 2733 
Q 2419 3097 1959 3097 
z
M 1959 3584 
Q 2709 3584 3137 3096 
Q 3566 2609 3566 1747 
Q 3566 888 3137 398 
Q 2709 -91 1959 -91 
Q 1206 -91 779 398 
Q 353 888 353 1747 
Q 353 2609 779 3096 
Q 1206 3584 1959 3584 
z
" transform="scale(0.015625)"/>
     <path id="DejaVuSans-73" d="M 2834 3397 
L 2834 2853 
Q 2591 2978 2328 3040 
Q 2066 3103 1784 3103 
Q 1356 3103 1142 2972 
Q 928 2841 928 2578 
Q 928 2378 1081 2264 
Q 1234 2150 1697 2047 
L 1894 2003 
Q 2506 1872 2764 1633 
Q 3022 1394 3022 966 
Q 3022 478 2636 193 
Q 2250 -91 1575 -91 
Q 1294 -91 989 -36 
Q 684 19 347 128 
L 347 722 
Q 666 556 975 473 
Q 1284 391 1588 391 
Q 1994 391 2212 530 
Q 2431 669 2431 922 
Q 2431 1156 2273 1281 
Q 2116 1406 1581 1522 
L 1381 1569 
Q 847 1681 609 1914 
Q 372 2147 372 2553 
Q 372 3047 722 3315 
Q 1072 3584 1716 3584 
Q 2034 3584 2315 3537 
Q 2597 3491 2834 3397 
z
" transform="scale(0.015625)"/>
     <path id="DejaVuSans-79" d="M 2059 -325 
Q 1816 -950 1584 -1140 
Q 1353 -1331 966 -1331 
L 506 -1331 
L 506 -850 
L 844 -850 
Q 1081 -850 1212 -737 
Q 1344 -625 1503 -206 
L 1606 56 
L 191 3500 
L 800 3500 
L 1894 763 
L 2988 3500 
L 3597 3500 
L 2059 -325 
z
" transform="scale(0.015625)"/>
     <path id="DejaVuSans-20" transform="scale(0.015625)"/>
     <path id="DejaVuSans-53" d="M 3425 4513 
L 3425 3897 
Q 3066 4069 2747 4153 
Q 2428 4238 2131 4238 
Q 1616 4238 1336 4038 
Q 1056 3838 1056 3469 
Q 1056 3159 1242 3001 
Q 1428 2844 1947 2747 
L 2328 2669 
Q 3034 2534 3370 2195 
Q 3706 1856 3706 1288 
Q 3706 609 3251 259 
Q 2797 -91 1919 -91 
Q 1588 -91 1214 -16 
Q 841 59 441 206 
L 441 856 
Q 825 641 1194 531 
Q 1563 422 1919 422 
Q 2459 422 2753 634 
Q 3047 847 3047 1241 
Q 3047 1584 2836 1778 
Q 2625 1972 2144 2069 
L 1759 2144 
Q 1053 2284 737 2584 
Q 422 2884 422 3419 
Q 422 4038 858 4394 
Q 1294 4750 2059 4750 
Q 2388 4750 2728 4690 
Q 3069 4631 3425 4513 
z
" transform="scale(0.015625)"/>
     <path id="DejaVuSans-61" d="M 2194 1759 
Q 1497 1759 1228 1600 
Q 959 1441 959 1056 
Q 959 750 1161 570 
Q 1363 391 1709 391 
Q 2188 391 2477 730 
Q 2766 1069 2766 1631 
L 2766 1759 
L 2194 1759 
z
M 3341 1997 
L 3341 0 
L 2766 0 
L 2766 531 
Q 2569 213 2275 61 
Q 1981 -91 1556 -91 
Q 1019 -91 701 211 
Q 384 513 384 1019 
Q 384 1609 779 1909 
Q 1175 2209 1959 2209 
L 2766 2209 
L 2766 2266 
Q 2766 2663 2505 2880 
Q 2244 3097 1772 3097 
Q 1472 3097 1187 3025 
Q 903 2953 641 2809 
L 641 3341 
Q 956 3463 1253 3523 
Q 1550 3584 1831 3584 
Q 2591 3584 2966 3190 
Q 3341 2797 3341 1997 
z
" transform="scale(0.015625)"/>
     <path id="DejaVuSans-74" d="M 1172 4494 
L 1172 3500 
L 2356 3500 
L 2356 3053 
L 1172 3053 
L 1172 1153 
Q 1172 725 1289 603 
Q 1406 481 1766 481 
L 2356 481 
L 2356 0 
L 1766 0 
Q 1100 0 847 248 
Q 594 497 594 1153 
L 594 3053 
L 172 3053 
L 172 3500 
L 594 3500 
L 594 4494 
L 1172 4494 
z
" transform="scale(0.015625)"/>
     <path id="DejaVuSans-6c" d="M 603 4863 
L 1178 4863 
L 1178 0 
L 603 0 
L 603 4863 
z
" transform="scale(0.015625)"/>
     <path id="DejaVuSans-44" d="M 1259 4147 
L 1259 519 
L 2022 519 
Q 2988 519 3436 956 
Q 3884 1394 3884 2338 
Q 3884 3275 3436 3711 
Q 2988 4147 2022 4147 
L 1259 4147 
z
M 628 4666 
L 1925 4666 
Q 3281 4666 3915 4102 
Q 4550 3538 4550 2338 
Q 4550 1131 3912 565 
Q 3275 0 1925 0 
L 628 0 
L 628 4666 
z
" transform="scale(0.015625)"/>
     <path id="DejaVuSans-6e" d="M 3513 2113 
L 3513 0 
L 2938 0 
L 2938 2094 
Q 2938 2591 2744 2837 
Q 2550 3084 2163 3084 
Q 1697 3084 1428 2787 
Q 1159 2491 1159 1978 
L 1159 0 
L 581 0 
L 581 3500 
L 1159 3500 
L 1159 2956 
Q 1366 3272 1645 3428 
Q 1925 3584 2291 3584 
Q 2894 3584 3203 3211 
Q 3513 2838 3513 2113 
z
" transform="scale(0.015625)"/>
     <path id="DejaVuSans-63" d="M 3122 3366 
L 3122 2828 
Q 2878 2963 2633 3030 
Q 2388 3097 2138 3097 
Q 1578 3097 1268 2742 
Q 959 2388 959 1747 
Q 959 1106 1268 751 
Q 1578 397 2138 397 
Q 2388 397 2633 464 
Q 2878 531 3122 666 
L 3122 134 
Q 2881 22 2623 -34 
Q 2366 -91 2075 -91 
Q 1284 -91 818 406 
Q 353 903 353 1747 
Q 353 2603 823 3093 
Q 1294 3584 2113 3584 
Q 2378 3584 2631 3529 
Q 2884 3475 3122 3366 
z
" transform="scale(0.015625)"/>
    </defs>
    <use xlink:href="#DejaVuSans-4e"/>
    <use xlink:href="#DejaVuSans-6f" x="74.804688"/>
    <use xlink:href="#DejaVuSans-69" x="135.986328"/>
    <use xlink:href="#DejaVuSans-73" x="163.769531"/>
    <use xlink:href="#DejaVuSans-79" x="215.869141"/>
    <use xlink:href="#DejaVuSans-20" x="275.048828"/>
    <use xlink:href="#DejaVuSans-53" x="306.835938"/>
    <use xlink:href="#DejaVuSans-61" x="370.3125"/>
    <use xlink:href="#DejaVuSans-74" x="431.591797"/>
    <use xlink:href="#DejaVuSans-65" x="470.800781"/>
    <use xlink:href="#DejaVuSans-6c" x="532.324219"/>
    <use xlink:href="#DejaVuSans-6c" x="560.107422"/>
    <use xlink:href="#DejaVuSans-69" x="587.890625"/>
    <use xlink:href="#DejaVuSans-74" x="615.673828"/>
    <use xlink:href="#DejaVuSans-65" x="654.882812"/>
    <use xlink:href="#DejaVuSans-20" x="716.40625"/>
    <use xlink:href="#DejaVuSans-44" x="748.193359"/>
    <use xlink:href="#DejaVuSans-79" x="825.195312"/>
    <use xlink:href="#DejaVuSans-6e" x="884.375"/>
    <use xlink:href="#DejaVuSans-61" x="947.753906"/>
    <use xlink:href="#DejaVuSans-6d" x="1009.033203"/>
    <use xlink:href="#DejaVuSans-69" x="1106.445312"/>
    <use xlink:href="#DejaVuSans-63" x="1134.228516"/>
    <use xlink:href="#DejaVuSans-73" x="1189.208984"/>
   </g>
  </g>
 </g>
 <defs>
  <clipPath id="p1e30a289eb">
   <rect x="52.84" y="33.96" width="269.24" height="84.073684"/>
  </clipPath>
  <clipPath id="p88a177ec0b">
   <rect x="52.84" y="126.441053" width="269.24" height="84.073684"/>
  </clipPath>
  <clipPath id="p46e6c62181">
   <rect x="52.84" y="218.922105" width="269.24" height="84.073684"/>
  </clipPath>
  <clipPath id="p5172f75b30">
   <rect x="52.84" y="311.403158" width="269.24" height="84.073684"/>
  </clipPath>
  <clipPath id="p9760a1788b">
   <rect x="52.84" y="403.884211" width="269.24" height="84.073684"/>
  </clipPath>
  <clipPath id="p4649530594">
   <rect x="52.84" y="496.365263" width="269.24" height="84.073684"/>
  </clipPath>
  <clipPath id="p7a5c37d727">
   <rect x="52.84" y="588.846316" width="269.24" height="84.073684"/>
  </clipPath>
 </defs>
</svg>
