<?xml version="1.0" encoding="utf-8" standalone="no"?>
<!DOCTYPE svg PUBLIC "-//W3C//DTD SVG 1.1//EN"
  "http://www.w3.org/Graphics/SVG/1.1/DTD/svg11.dtd">
<svg xmlns:xlink="http://www.w3.org/1999/xlink" width="576pt" height="360pt" viewBox="0 0 576 360" xmlns="http://www.w3.org/2000/svg" version="1.1">
 <metadata>
  <rdf:RDF xmlns:dc="http://purl.org/dc/elements/1.1/" xmlns:cc="http://creativecommons.org/ns#" xmlns:rdf="http://www.w3.org/1999/02/22-rdf-syntax-ns#">
   <cc:Work>
    <dc:type rdf:resource="http://purl.org/dc/dcmitype/StillImage"/>
    <dc:date>2024-03-29T18:18:25.688896</dc:date>
    <dc:format>image/svg+xml</dc:format>
    <dc:creator>
     <cc:Agent>
      <dc:title>Matplotlib v3.8.3, https://matplotlib.org/</dc:title>
     </cc:Agent>
    </dc:creator>
   </cc:Work>
  </rdf:RDF>
 </metadata>
 <defs>
  <style type="text/css">*{stroke-linejoin: round; stroke-linecap: butt}</style>
 </defs>
 <g id="figure_1">
  <g id="patch_1">
   <path d="M 0 360 
L 576 360 
L 576 0 
L 0 0 
z
" style="fill: #ffffff"/>
  </g>
  <g id="axes_1">
   <g id="patch_2">
    <path d="M 59.14 121.135 
L 538.08 121.135 
L 538.08 33.96 
L 59.14 33.96 
z
" style="fill: #ffffff"/>
   </g>
   <g id="matplotlib.axis_1">
    <g id="xtick_1">
     <g id="line2d_1">
      <defs>
       <path id="m6cc317520d" d="M 0 0 
L 0 3.5 
" style="stroke: #000000; stroke-width: 0.8"/>
      </defs>
      <g>
       <use xlink:href="#m6cc317520d" x="80.91" y="121.135" style="stroke: #000000; stroke-width: 0.8"/>
      </g>
     </g>
    </g>
    <g id="xtick_2">
     <g id="line2d_2">
      <g>
       <use xlink:href="#m6cc317520d" x="153.476667" y="121.135" style="stroke: #000000; stroke-width: 0.8"/>
      </g>
     </g>
    </g>
    <g id="xtick_3">
     <g id="line2d_3">
      <g>
       <use xlink:href="#m6cc317520d" x="226.043333" y="121.135" style="stroke: #000000; stroke-width: 0.8"/>
      </g>
     </g>
    </g>
    <g id="xtick_4">
     <g id="line2d_4">
      <g>
       <use xlink:href="#m6cc317520d" x="298.61" y="121.135" style="stroke: #000000; stroke-width: 0.8"/>
      </g>
     </g>
    </g>
    <g id="xtick_5">
     <g id="line2d_5">
      <g>
       <use xlink:href="#m6cc317520d" x="371.176667" y="121.135" style="stroke: #000000; stroke-width: 0.8"/>
      </g>
     </g>
    </g>
    <g id="xtick_6">
     <g id="line2d_6">
      <g>
       <use xlink:href="#m6cc317520d" x="443.743333" y="121.135" style="stroke: #000000; stroke-width: 0.8"/>
      </g>
     </g>
    </g>
    <g id="xtick_7">
     <g id="line2d_7">
      <g>
       <use xlink:href="#m6cc317520d" x="516.31" y="121.135" style="stroke: #000000; stroke-width: 0.8"/>
      </g>
     </g>
    </g>
   </g>
   <g id="matplotlib.axis_2">
    <g id="ytick_1">
     <g id="line2d_8">
      <defs>
       <path id="m7a19e06ab8" d="M 0 0 
L -3.5 0 
" style="stroke: #000000; stroke-width: 0.8"/>
      </defs>
      <g>
       <use xlink:href="#m7a19e06ab8" x="59.14" y="118.040269" style="stroke: #000000; stroke-width: 0.8"/>
      </g>
     </g>
     <g id="text_1">
      <!-- 0 -->
      <g transform="translate(45.7775 121.839487) scale(0.1 -0.1)">
       <defs>
        <path id="DejaVuSans-30" d="M 2034 4250 
Q 1547 4250 1301 3770 
Q 1056 3291 1056 2328 
Q 1056 1369 1301 889 
Q 1547 409 2034 409 
Q 2525 409 2770 889 
Q 3016 1369 3016 2328 
Q 3016 3291 2770 3770 
Q 2525 4250 2034 4250 
z
M 2034 4750 
Q 2819 4750 3233 4129 
Q 3647 3509 3647 2328 
Q 3647 1150 3233 529 
Q 2819 -91 2034 -91 
Q 1250 -91 836 529 
Q 422 1150 422 2328 
Q 422 3509 836 4129 
Q 1250 4750 2034 4750 
z
" transform="scale(0.015625)"/>
       </defs>
       <use xlink:href="#DejaVuSans-30"/>
      </g>
     </g>
    </g>
    <g id="ytick_2">
     <g id="line2d_9">
      <g>
       <use xlink:href="#m7a19e06ab8" x="59.14" y="95.785333" style="stroke: #000000; stroke-width: 0.8"/>
      </g>
     </g>
     <g id="text_2">
      <!-- 250 -->
      <g transform="translate(33.0525 99.584552) scale(0.1 -0.1)">
       <defs>
        <path id="DejaVuSans-32" d="M 1228 531 
L 3431 531 
L 3431 0 
L 469 0 
L 469 531 
Q 828 903 1448 1529 
Q 2069 2156 2228 2338 
Q 2531 2678 2651 2914 
Q 2772 3150 2772 3378 
Q 2772 3750 2511 3984 
Q 2250 4219 1831 4219 
Q 1534 4219 1204 4116 
Q 875 4013 500 3803 
L 500 4441 
Q 881 4594 1212 4672 
Q 1544 4750 1819 4750 
Q 2544 4750 2975 4387 
Q 3406 4025 3406 3419 
Q 3406 3131 3298 2873 
Q 3191 2616 2906 2266 
Q 2828 2175 2409 1742 
Q 1991 1309 1228 531 
z
" transform="scale(0.015625)"/>
        <path id="DejaVuSans-35" d="M 691 4666 
L 3169 4666 
L 3169 4134 
L 1269 4134 
L 1269 2991 
Q 1406 3038 1543 3061 
Q 1681 3084 1819 3084 
Q 2600 3084 3056 2656 
Q 3513 2228 3513 1497 
Q 3513 744 3044 326 
Q 2575 -91 1722 -91 
Q 1428 -91 1123 -41 
Q 819 9 494 109 
L 494 744 
Q 775 591 1075 516 
Q 1375 441 1709 441 
Q 2250 441 2565 725 
Q 2881 1009 2881 1497 
Q 2881 1984 2565 2268 
Q 2250 2553 1709 2553 
Q 1456 2553 1204 2497 
Q 953 2441 691 2322 
L 691 4666 
z
" transform="scale(0.015625)"/>
       </defs>
       <use xlink:href="#DejaVuSans-32"/>
       <use xlink:href="#DejaVuSans-35" x="63.623047"/>
       <use xlink:href="#DejaVuSans-30" x="127.246094"/>
      </g>
     </g>
    </g>
    <g id="ytick_3">
     <g id="line2d_10">
      <g>
       <use xlink:href="#m7a19e06ab8" x="59.14" y="73.530397" style="stroke: #000000; stroke-width: 0.8"/>
      </g>
     </g>
     <g id="text_3">
      <!-- 500 -->
      <g transform="translate(33.0525 77.329616) scale(0.1 -0.1)">
       <use xlink:href="#DejaVuSans-35"/>
       <use xlink:href="#DejaVuSans-30" x="63.623047"/>
       <use xlink:href="#DejaVuSans-30" x="127.246094"/>
      </g>
     </g>
    </g>
    <g id="ytick_4">
     <g id="line2d_11">
      <g>
       <use xlink:href="#m7a19e06ab8" x="59.14" y="51.275461" style="stroke: #000000; stroke-width: 0.8"/>
      </g>
     </g>
     <g id="text_4">
      <!-- 750 -->
      <g transform="translate(33.0525 55.07468) scale(0.1 -0.1)">
       <defs>
        <path id="DejaVuSans-37" d="M 525 4666 
L 3525 4666 
L 3525 4397 
L 1831 0 
L 1172 0 
L 2766 4134 
L 525 4134 
L 525 4666 
z
" transform="scale(0.015625)"/>
       </defs>
       <use xlink:href="#DejaVuSans-37"/>
       <use xlink:href="#DejaVuSans-35" x="63.623047"/>
       <use xlink:href="#DejaVuSans-30" x="127.246094"/>
      </g>
     </g>
    </g>
    <g id="text_5">
     <!-- S -->
     <g transform="translate(544.905781 85.145938) scale(0.1 -0.1)">
      <defs>
       <path id="DejaVuSans-53" d="M 3425 4513 
L 3425 3897 
Q 3066 4069 2747 4153 
Q 2428 4238 2131 4238 
Q 1616 4238 1336 4038 
Q 1056 3838 1056 3469 
Q 1056 3159 1242 3001 
Q 1428 2844 1947 2747 
L 2328 2669 
Q 3034 2534 3370 2195 
Q 3706 1856 3706 1288 
Q 3706 609 3251 259 
Q 2797 -91 1919 -91 
Q 1588 -91 1214 -16 
Q 841 59 441 206 
L 441 856 
Q 825 641 1194 531 
Q 1563 422 1919 422 
Q 2459 422 2753 634 
Q 3047 847 3047 1241 
Q 3047 1584 2836 1778 
Q 2625 1972 2144 2069 
L 1759 2144 
Q 1053 2284 737 2584 
Q 422 2884 422 3419 
Q 422 4038 858 4394 
Q 1294 4750 2059 4750 
Q 2388 4750 2728 4690 
Q 3069 4631 3425 4513 
z
" transform="scale(0.015625)"/>
      </defs>
      <use xlink:href="#DejaVuSans-53"/>
     </g>
    </g>
   </g>
   <g id="line2d_12">
    <path d="M 80.91 37.9225 
L 81.980831 40.544539 
L 83.051663 43.770022 
L 84.193883 47.935792 
L 85.407491 53.211796 
L 86.835266 60.436459 
L 88.976929 72.603598 
L 91.618313 87.376962 
L 93.188865 94.888048 
L 94.473863 100.002134 
L 95.687472 103.943329 
L 96.829692 106.934186 
L 97.971912 109.310772 
L 99.114132 111.173023 
L 100.256352 112.618987 
L 101.469961 113.789021 
L 102.754958 114.710508 
L 104.182733 115.453909 
L 105.753286 116.021311 
L 107.680782 116.475652 
L 110.108 116.813154 
L 113.53466 117.044556 
L 118.960205 117.160424 
L 131.096293 117.142831 
L 191.776732 116.70244 
L 374.103606 115.314538 
L 457.557057 114.96781 
L 516.31 114.837702 
L 516.31 114.837702 
" clip-path="url(#p045ba5e0cd)" style="fill: none; stroke: #1f77b4; stroke-width: 1.5; stroke-linecap: square"/>
   </g>
   <g id="patch_3">
    <path d="M 59.14 121.135 
L 59.14 33.96 
" style="fill: none; stroke: #000000; stroke-width: 0.8; stroke-linejoin: miter; stroke-linecap: square"/>
   </g>
   <g id="patch_4">
    <path d="M 538.08 121.135 
L 538.08 33.96 
" style="fill: none; stroke: #000000; stroke-width: 0.8; stroke-linejoin: miter; stroke-linecap: square"/>
   </g>
   <g id="patch_5">
    <path d="M 59.14 121.135 
L 538.08 121.135 
" style="fill: none; stroke: #000000; stroke-width: 0.8; stroke-linejoin: miter; stroke-linecap: square"/>
   </g>
   <g id="patch_6">
    <path d="M 59.14 33.96 
L 538.08 33.96 
" style="fill: none; stroke: #000000; stroke-width: 0.8; stroke-linejoin: miter; stroke-linecap: square"/>
   </g>
   <g id="legend_1">
    <g id="patch_7">
     <path d="M 477.845625 56.638125 
L 531.08 56.638125 
Q 533.08 56.638125 533.08 54.638125 
L 533.08 40.96 
Q 533.08 38.96 531.08 38.96 
L 477.845625 38.96 
Q 475.845625 38.96 475.845625 40.96 
L 475.845625 54.638125 
Q 475.845625 56.638125 477.845625 56.638125 
z
" style="fill: #ffffff; opacity: 0.8; stroke: #cccccc; stroke-linejoin: miter"/>
    </g>
    <g id="line2d_13">
     <path d="M 479.845625 47.058438 
L 489.845625 47.058438 
L 499.845625 47.058438 
" style="fill: none; stroke: #1f77b4; stroke-width: 1.5; stroke-linecap: square"/>
    </g>
    <g id="text_6">
     <!-- True -->
     <g transform="translate(507.845625 50.558438) scale(0.1 -0.1)">
      <defs>
       <path id="DejaVuSans-54" d="M -19 4666 
L 3928 4666 
L 3928 4134 
L 2272 4134 
L 2272 0 
L 1638 0 
L 1638 4134 
L -19 4134 
L -19 4666 
z
" transform="scale(0.015625)"/>
       <path id="DejaVuSans-72" d="M 2631 2963 
Q 2534 3019 2420 3045 
Q 2306 3072 2169 3072 
Q 1681 3072 1420 2755 
Q 1159 2438 1159 1844 
L 1159 0 
L 581 0 
L 581 3500 
L 1159 3500 
L 1159 2956 
Q 1341 3275 1631 3429 
Q 1922 3584 2338 3584 
Q 2397 3584 2469 3576 
Q 2541 3569 2628 3553 
L 2631 2963 
z
" transform="scale(0.015625)"/>
       <path id="DejaVuSans-75" d="M 544 1381 
L 544 3500 
L 1119 3500 
L 1119 1403 
Q 1119 906 1312 657 
Q 1506 409 1894 409 
Q 2359 409 2629 706 
Q 2900 1003 2900 1516 
L 2900 3500 
L 3475 3500 
L 3475 0 
L 2900 0 
L 2900 538 
Q 2691 219 2414 64 
Q 2138 -91 1772 -91 
Q 1169 -91 856 284 
Q 544 659 544 1381 
z
M 1991 3584 
L 1991 3584 
z
" transform="scale(0.015625)"/>
       <path id="DejaVuSans-65" d="M 3597 1894 
L 3597 1613 
L 953 1613 
Q 991 1019 1311 708 
Q 1631 397 2203 397 
Q 2534 397 2845 478 
Q 3156 559 3463 722 
L 3463 178 
Q 3153 47 2828 -22 
Q 2503 -91 2169 -91 
Q 1331 -91 842 396 
Q 353 884 353 1716 
Q 353 2575 817 3079 
Q 1281 3584 2069 3584 
Q 2775 3584 3186 3129 
Q 3597 2675 3597 1894 
z
M 3022 2063 
Q 3016 2534 2758 2815 
Q 2500 3097 2075 3097 
Q 1594 3097 1305 2825 
Q 1016 2553 972 2059 
L 3022 2063 
z
" transform="scale(0.015625)"/>
      </defs>
      <use xlink:href="#DejaVuSans-54"/>
      <use xlink:href="#DejaVuSans-72" x="46.333984"/>
      <use xlink:href="#DejaVuSans-75" x="87.447266"/>
      <use xlink:href="#DejaVuSans-65" x="150.826172"/>
     </g>
    </g>
   </g>
  </g>
  <g id="axes_2">
   <g id="patch_8">
    <path d="M 59.14 217.0275 
L 538.08 217.0275 
L 538.08 129.8525 
L 59.14 129.8525 
z
" style="fill: #ffffff"/>
   </g>
   <g id="PathCollection_1">
    <defs>
     <path id="m5f1033ea9a" d="M 0 1.581139 
C 0.419323 1.581139 0.821528 1.41454 1.118034 1.118034 
C 1.41454 0.821528 1.581139 0.419323 1.581139 0 
C 1.581139 -0.419323 1.41454 -0.821528 1.118034 -1.118034 
C 0.821528 -1.41454 0.419323 -1.581139 0 -1.581139 
C -0.419323 -1.581139 -0.821528 -1.41454 -1.118034 -1.118034 
C -1.41454 -0.821528 -1.581139 -0.419323 -1.581139 0 
C -1.581139 0.419323 -1.41454 0.821528 -1.118034 1.118034 
C -0.821528 1.41454 -0.419323 1.581139 0 1.581139 
z
" style="stroke: #000000"/>
    </defs>
    <g clip-path="url(#pa4bd281b78)">
     <use xlink:href="#m5f1033ea9a" x="80.91" y="203.761432" style="stroke: #000000"/>
     <use xlink:href="#m5f1033ea9a" x="88.048875" y="177.989774" style="stroke: #000000"/>
     <use xlink:href="#m5f1033ea9a" x="95.18775" y="142.350934" style="stroke: #000000"/>
     <use xlink:href="#m5f1033ea9a" x="102.326626" y="143.522777" style="stroke: #000000"/>
     <use xlink:href="#m5f1033ea9a" x="109.465501" y="137.629008" style="stroke: #000000"/>
     <use xlink:href="#m5f1033ea9a" x="116.604376" y="142.344382" style="stroke: #000000"/>
     <use xlink:href="#m5f1033ea9a" x="123.743251" y="145.320652" style="stroke: #000000"/>
     <use xlink:href="#m5f1033ea9a" x="130.882127" y="152.30686" style="stroke: #000000"/>
     <use xlink:href="#m5f1033ea9a" x="138.021002" y="153.151119" style="stroke: #000000"/>
     <use xlink:href="#m5f1033ea9a" x="145.159877" y="159.012988" style="stroke: #000000"/>
     <use xlink:href="#m5f1033ea9a" x="152.298752" y="166.718824" style="stroke: #000000"/>
     <use xlink:href="#m5f1033ea9a" x="159.437627" y="158.40218" style="stroke: #000000"/>
     <use xlink:href="#m5f1033ea9a" x="166.576503" y="161.318078" style="stroke: #000000"/>
     <use xlink:href="#m5f1033ea9a" x="173.715378" y="159.704789" style="stroke: #000000"/>
     <use xlink:href="#m5f1033ea9a" x="180.854253" y="170.843421" style="stroke: #000000"/>
     <use xlink:href="#m5f1033ea9a" x="187.993128" y="175.536701" style="stroke: #000000"/>
     <use xlink:href="#m5f1033ea9a" x="195.132004" y="178.435572" style="stroke: #000000"/>
     <use xlink:href="#m5f1033ea9a" x="202.270879" y="185.655681" style="stroke: #000000"/>
     <use xlink:href="#m5f1033ea9a" x="209.409754" y="174.373546" style="stroke: #000000"/>
     <use xlink:href="#m5f1033ea9a" x="216.548629" y="186.95261" style="stroke: #000000"/>
     <use xlink:href="#m5f1033ea9a" x="223.687505" y="189.006334" style="stroke: #000000"/>
     <use xlink:href="#m5f1033ea9a" x="230.82638" y="185.416279" style="stroke: #000000"/>
     <use xlink:href="#m5f1033ea9a" x="237.965255" y="178.016559" style="stroke: #000000"/>
     <use xlink:href="#m5f1033ea9a" x="245.10413" y="185.81455" style="stroke: #000000"/>
     <use xlink:href="#m5f1033ea9a" x="252.243005" y="193.578868" style="stroke: #000000"/>
     <use xlink:href="#m5f1033ea9a" x="259.381881" y="193.086962" style="stroke: #000000"/>
     <use xlink:href="#m5f1033ea9a" x="266.520756" y="187.17024" style="stroke: #000000"/>
     <use xlink:href="#m5f1033ea9a" x="273.659631" y="192.225887" style="stroke: #000000"/>
     <use xlink:href="#m5f1033ea9a" x="280.798506" y="196.291442" style="stroke: #000000"/>
     <use xlink:href="#m5f1033ea9a" x="287.937382" y="194.327616" style="stroke: #000000"/>
     <use xlink:href="#m5f1033ea9a" x="295.076257" y="190.032951" style="stroke: #000000"/>
     <use xlink:href="#m5f1033ea9a" x="302.215132" y="184.350105" style="stroke: #000000"/>
     <use xlink:href="#m5f1033ea9a" x="309.354007" y="201.770374" style="stroke: #000000"/>
     <use xlink:href="#m5f1033ea9a" x="316.492882" y="199.18088" style="stroke: #000000"/>
     <use xlink:href="#m5f1033ea9a" x="323.631758" y="200.681093" style="stroke: #000000"/>
     <use xlink:href="#m5f1033ea9a" x="330.770633" y="209.617034" style="stroke: #000000"/>
     <use xlink:href="#m5f1033ea9a" x="337.909508" y="202.334681" style="stroke: #000000"/>
     <use xlink:href="#m5f1033ea9a" x="345.048383" y="203.315969" style="stroke: #000000"/>
     <use xlink:href="#m5f1033ea9a" x="352.187259" y="192.571739" style="stroke: #000000"/>
     <use xlink:href="#m5f1033ea9a" x="359.326134" y="199.499356" style="stroke: #000000"/>
     <use xlink:href="#m5f1033ea9a" x="366.465009" y="207.620867" style="stroke: #000000"/>
     <use xlink:href="#m5f1033ea9a" x="373.603884" y="196.150916" style="stroke: #000000"/>
     <use xlink:href="#m5f1033ea9a" x="380.742759" y="201.680958" style="stroke: #000000"/>
     <use xlink:href="#m5f1033ea9a" x="387.881635" y="209.185499" style="stroke: #000000"/>
     <use xlink:href="#m5f1033ea9a" x="395.02051" y="203.490617" style="stroke: #000000"/>
     <use xlink:href="#m5f1033ea9a" x="402.159385" y="203.695019" style="stroke: #000000"/>
     <use xlink:href="#m5f1033ea9a" x="409.29826" y="205.405653" style="stroke: #000000"/>
     <use xlink:href="#m5f1033ea9a" x="416.437136" y="200.915306" style="stroke: #000000"/>
     <use xlink:href="#m5f1033ea9a" x="423.576011" y="212.958688" style="stroke: #000000"/>
     <use xlink:href="#m5f1033ea9a" x="430.714886" y="202.837384" style="stroke: #000000"/>
     <use xlink:href="#m5f1033ea9a" x="437.853761" y="196.340811" style="stroke: #000000"/>
     <use xlink:href="#m5f1033ea9a" x="444.992636" y="197.32691" style="stroke: #000000"/>
     <use xlink:href="#m5f1033ea9a" x="452.131512" y="196.137168" style="stroke: #000000"/>
     <use xlink:href="#m5f1033ea9a" x="459.270387" y="196.206486" style="stroke: #000000"/>
     <use xlink:href="#m5f1033ea9a" x="466.409262" y="194.409493" style="stroke: #000000"/>
     <use xlink:href="#m5f1033ea9a" x="473.548137" y="208.073116" style="stroke: #000000"/>
     <use xlink:href="#m5f1033ea9a" x="480.687013" y="197.957826" style="stroke: #000000"/>
     <use xlink:href="#m5f1033ea9a" x="487.825888" y="212.129985" style="stroke: #000000"/>
     <use xlink:href="#m5f1033ea9a" x="494.964763" y="205.671126" style="stroke: #000000"/>
     <use xlink:href="#m5f1033ea9a" x="502.103638" y="212.570206" style="stroke: #000000"/>
     <use xlink:href="#m5f1033ea9a" x="509.242514" y="197.230723" style="stroke: #000000"/>
    </g>
   </g>
   <g id="matplotlib.axis_3">
    <g id="xtick_8">
     <g id="line2d_14">
      <g>
       <use xlink:href="#m6cc317520d" x="80.91" y="217.0275" style="stroke: #000000; stroke-width: 0.8"/>
      </g>
     </g>
    </g>
    <g id="xtick_9">
     <g id="line2d_15">
      <g>
       <use xlink:href="#m6cc317520d" x="153.476667" y="217.0275" style="stroke: #000000; stroke-width: 0.8"/>
      </g>
     </g>
    </g>
    <g id="xtick_10">
     <g id="line2d_16">
      <g>
       <use xlink:href="#m6cc317520d" x="226.043333" y="217.0275" style="stroke: #000000; stroke-width: 0.8"/>
      </g>
     </g>
    </g>
    <g id="xtick_11">
     <g id="line2d_17">
      <g>
       <use xlink:href="#m6cc317520d" x="298.61" y="217.0275" style="stroke: #000000; stroke-width: 0.8"/>
      </g>
     </g>
    </g>
    <g id="xtick_12">
     <g id="line2d_18">
      <g>
       <use xlink:href="#m6cc317520d" x="371.176667" y="217.0275" style="stroke: #000000; stroke-width: 0.8"/>
      </g>
     </g>
    </g>
    <g id="xtick_13">
     <g id="line2d_19">
      <g>
       <use xlink:href="#m6cc317520d" x="443.743333" y="217.0275" style="stroke: #000000; stroke-width: 0.8"/>
      </g>
     </g>
    </g>
    <g id="xtick_14">
     <g id="line2d_20">
      <g>
       <use xlink:href="#m6cc317520d" x="516.31" y="217.0275" style="stroke: #000000; stroke-width: 0.8"/>
      </g>
     </g>
    </g>
   </g>
   <g id="matplotlib.axis_4">
    <g id="ytick_5">
     <g id="line2d_21">
      <g>
       <use xlink:href="#m7a19e06ab8" x="59.14" y="197.460471" style="stroke: #000000; stroke-width: 0.8"/>
      </g>
     </g>
     <g id="text_7">
      <!-- 250 -->
      <g transform="translate(33.0525 201.25969) scale(0.1 -0.1)">
       <use xlink:href="#DejaVuSans-32"/>
       <use xlink:href="#DejaVuSans-35" x="63.623047"/>
       <use xlink:href="#DejaVuSans-30" x="127.246094"/>
      </g>
     </g>
    </g>
    <g id="ytick_6">
     <g id="line2d_22">
      <g>
       <use xlink:href="#m7a19e06ab8" x="59.14" y="171.452922" style="stroke: #000000; stroke-width: 0.8"/>
      </g>
     </g>
     <g id="text_8">
      <!-- 500 -->
      <g transform="translate(33.0525 175.252141) scale(0.1 -0.1)">
       <use xlink:href="#DejaVuSans-35"/>
       <use xlink:href="#DejaVuSans-30" x="63.623047"/>
       <use xlink:href="#DejaVuSans-30" x="127.246094"/>
      </g>
     </g>
    </g>
    <g id="ytick_7">
     <g id="line2d_23">
      <g>
       <use xlink:href="#m7a19e06ab8" x="59.14" y="145.445374" style="stroke: #000000; stroke-width: 0.8"/>
      </g>
     </g>
     <g id="text_9">
      <!-- 750 -->
      <g transform="translate(33.0525 149.244592) scale(0.1 -0.1)">
       <use xlink:href="#DejaVuSans-37"/>
       <use xlink:href="#DejaVuSans-35" x="63.623047"/>
       <use xlink:href="#DejaVuSans-30" x="127.246094"/>
      </g>
     </g>
    </g>
    <g id="text_10">
     <!-- I -->
     <g transform="translate(546.605 181.038437) scale(0.1 -0.1)">
      <defs>
       <path id="DejaVuSans-49" d="M 628 4666 
L 1259 4666 
L 1259 0 
L 628 0 
L 628 4666 
z
" transform="scale(0.015625)"/>
      </defs>
      <use xlink:href="#DejaVuSans-49"/>
     </g>
    </g>
   </g>
   <g id="line2d_24">
    <path d="M 80.91 213.065 
L 81.980831 210.105462 
L 83.051663 206.469598 
L 84.193883 201.782525 
L 85.47888 195.485005 
L 86.978044 186.928635 
L 89.619428 170.221901 
L 91.618313 158.289989 
L 93.046088 151.049595 
L 94.259697 145.996284 
L 95.330528 142.421888 
L 96.401359 139.61065 
L 97.400802 137.606771 
L 98.328856 136.213549 
L 99.256909 135.199112 
L 100.184963 134.502436 
L 101.113017 134.071539 
L 102.112459 133.8498 
L 103.254679 133.83612 
L 104.539677 134.052681 
L 106.038841 134.536142 
L 108.037726 135.433063 
L 110.750498 136.916303 
L 115.533545 139.831019 
L 126.09908 146.291656 
L 132.9524 150.198515 
L 139.805721 153.849602 
L 146.801818 157.324237 
L 153.940694 160.622045 
L 161.365124 163.807634 
L 168.932332 166.812976 
L 176.927872 169.74815 
L 185.06619 172.497485 
L 193.704229 175.177905 
L 202.485045 177.669783 
L 211.836972 180.089931 
L 221.403064 182.337781 
L 231.683045 184.520024 
L 242.319969 186.550702 
L 253.67078 188.485068 
L 265.592702 190.291215 
L 278.228511 191.975206 
L 291.792374 193.558393 
L 306.141513 195.003398 
L 321.847039 196.360198 
L 338.480618 197.567665 
L 356.970305 198.686488 
L 376.887767 199.661546 
L 399.375224 200.539899 
L 424.718231 201.294136 
L 453.202343 201.92122 
L 488.539775 202.459407 
L 516.31 202.746883 
L 516.31 202.746883 
" clip-path="url(#pa4bd281b78)" style="fill: none; stroke: #1f77b4; stroke-width: 1.5; stroke-linecap: square"/>
   </g>
   <g id="patch_9">
    <path d="M 59.14 217.0275 
L 59.14 129.8525 
" style="fill: none; stroke: #000000; stroke-width: 0.8; stroke-linejoin: miter; stroke-linecap: square"/>
   </g>
   <g id="patch_10">
    <path d="M 538.08 217.0275 
L 538.08 129.8525 
" style="fill: none; stroke: #000000; stroke-width: 0.8; stroke-linejoin: miter; stroke-linecap: square"/>
   </g>
   <g id="patch_11">
    <path d="M 59.14 217.0275 
L 538.08 217.0275 
" style="fill: none; stroke: #000000; stroke-width: 0.8; stroke-linejoin: miter; stroke-linecap: square"/>
   </g>
   <g id="patch_12">
    <path d="M 59.14 129.8525 
L 538.08 129.8525 
" style="fill: none; stroke: #000000; stroke-width: 0.8; stroke-linejoin: miter; stroke-linecap: square"/>
   </g>
   <g id="legend_2">
    <g id="patch_13">
     <path d="M 450.965937 167.20875 
L 531.08 167.20875 
Q 533.08 167.20875 533.08 165.20875 
L 533.08 136.8525 
Q 533.08 134.8525 531.08 134.8525 
L 450.965937 134.8525 
Q 448.965937 134.8525 448.965937 136.8525 
L 448.965937 165.20875 
Q 448.965937 167.20875 450.965937 167.20875 
z
" style="fill: #ffffff; opacity: 0.8; stroke: #cccccc; stroke-linejoin: miter"/>
    </g>
    <g id="line2d_25">
     <path d="M 452.965937 142.950938 
L 462.965937 142.950938 
L 472.965937 142.950938 
" style="fill: none; stroke: #1f77b4; stroke-width: 1.5; stroke-linecap: square"/>
    </g>
    <g id="text_11">
     <!-- True -->
     <g transform="translate(480.965937 146.450938) scale(0.1 -0.1)">
      <use xlink:href="#DejaVuSans-54"/>
      <use xlink:href="#DejaVuSans-72" x="46.333984"/>
      <use xlink:href="#DejaVuSans-75" x="87.447266"/>
      <use xlink:href="#DejaVuSans-65" x="150.826172"/>
     </g>
    </g>
    <g id="PathCollection_2">
     <g>
      <use xlink:href="#m5f1033ea9a" x="462.965937" y="158.504063" style="stroke: #000000"/>
     </g>
    </g>
    <g id="text_12">
     <!-- Observed -->
     <g transform="translate(480.965937 161.129063) scale(0.1 -0.1)">
      <defs>
       <path id="DejaVuSans-4f" d="M 2522 4238 
Q 1834 4238 1429 3725 
Q 1025 3213 1025 2328 
Q 1025 1447 1429 934 
Q 1834 422 2522 422 
Q 3209 422 3611 934 
Q 4013 1447 4013 2328 
Q 4013 3213 3611 3725 
Q 3209 4238 2522 4238 
z
M 2522 4750 
Q 3503 4750 4090 4092 
Q 4678 3434 4678 2328 
Q 4678 1225 4090 567 
Q 3503 -91 2522 -91 
Q 1538 -91 948 565 
Q 359 1222 359 2328 
Q 359 3434 948 4092 
Q 1538 4750 2522 4750 
z
" transform="scale(0.015625)"/>
       <path id="DejaVuSans-62" d="M 3116 1747 
Q 3116 2381 2855 2742 
Q 2594 3103 2138 3103 
Q 1681 3103 1420 2742 
Q 1159 2381 1159 1747 
Q 1159 1113 1420 752 
Q 1681 391 2138 391 
Q 2594 391 2855 752 
Q 3116 1113 3116 1747 
z
M 1159 2969 
Q 1341 3281 1617 3432 
Q 1894 3584 2278 3584 
Q 2916 3584 3314 3078 
Q 3713 2572 3713 1747 
Q 3713 922 3314 415 
Q 2916 -91 2278 -91 
Q 1894 -91 1617 61 
Q 1341 213 1159 525 
L 1159 0 
L 581 0 
L 581 4863 
L 1159 4863 
L 1159 2969 
z
" transform="scale(0.015625)"/>
       <path id="DejaVuSans-73" d="M 2834 3397 
L 2834 2853 
Q 2591 2978 2328 3040 
Q 2066 3103 1784 3103 
Q 1356 3103 1142 2972 
Q 928 2841 928 2578 
Q 928 2378 1081 2264 
Q 1234 2150 1697 2047 
L 1894 2003 
Q 2506 1872 2764 1633 
Q 3022 1394 3022 966 
Q 3022 478 2636 193 
Q 2250 -91 1575 -91 
Q 1294 -91 989 -36 
Q 684 19 347 128 
L 347 722 
Q 666 556 975 473 
Q 1284 391 1588 391 
Q 1994 391 2212 530 
Q 2431 669 2431 922 
Q 2431 1156 2273 1281 
Q 2116 1406 1581 1522 
L 1381 1569 
Q 847 1681 609 1914 
Q 372 2147 372 2553 
Q 372 3047 722 3315 
Q 1072 3584 1716 3584 
Q 2034 3584 2315 3537 
Q 2597 3491 2834 3397 
z
" transform="scale(0.015625)"/>
       <path id="DejaVuSans-76" d="M 191 3500 
L 800 3500 
L 1894 563 
L 2988 3500 
L 3597 3500 
L 2284 0 
L 1503 0 
L 191 3500 
z
" transform="scale(0.015625)"/>
       <path id="DejaVuSans-64" d="M 2906 2969 
L 2906 4863 
L 3481 4863 
L 3481 0 
L 2906 0 
L 2906 525 
Q 2725 213 2448 61 
Q 2172 -91 1784 -91 
Q 1150 -91 751 415 
Q 353 922 353 1747 
Q 353 2572 751 3078 
Q 1150 3584 1784 3584 
Q 2172 3584 2448 3432 
Q 2725 3281 2906 2969 
z
M 947 1747 
Q 947 1113 1208 752 
Q 1469 391 1925 391 
Q 2381 391 2643 752 
Q 2906 1113 2906 1747 
Q 2906 2381 2643 2742 
Q 2381 3103 1925 3103 
Q 1469 3103 1208 2742 
Q 947 2381 947 1747 
z
" transform="scale(0.015625)"/>
      </defs>
      <use xlink:href="#DejaVuSans-4f"/>
      <use xlink:href="#DejaVuSans-62" x="78.710938"/>
      <use xlink:href="#DejaVuSans-73" x="142.1875"/>
      <use xlink:href="#DejaVuSans-65" x="194.287109"/>
      <use xlink:href="#DejaVuSans-72" x="255.810547"/>
      <use xlink:href="#DejaVuSans-76" x="296.923828"/>
      <use xlink:href="#DejaVuSans-65" x="356.103516"/>
      <use xlink:href="#DejaVuSans-64" x="417.626953"/>
     </g>
    </g>
   </g>
  </g>
  <g id="axes_3">
   <g id="patch_14">
    <path d="M 59.14 312.92 
L 538.08 312.92 
L 538.08 225.745 
L 59.14 225.745 
z
" style="fill: #ffffff"/>
   </g>
   <g id="matplotlib.axis_5">
    <g id="xtick_15">
     <g id="line2d_26">
      <g>
       <use xlink:href="#m6cc317520d" x="80.91" y="312.92" style="stroke: #000000; stroke-width: 0.8"/>
      </g>
     </g>
     <g id="text_13">
      <!-- 0 -->
      <g transform="translate(77.72875 327.518438) scale(0.1 -0.1)">
       <use xlink:href="#DejaVuSans-30"/>
      </g>
     </g>
    </g>
    <g id="xtick_16">
     <g id="line2d_27">
      <g>
       <use xlink:href="#m6cc317520d" x="153.476667" y="312.92" style="stroke: #000000; stroke-width: 0.8"/>
      </g>
     </g>
     <g id="text_14">
      <!-- 1 -->
      <g transform="translate(150.295417 327.518438) scale(0.1 -0.1)">
       <defs>
        <path id="DejaVuSans-31" d="M 794 531 
L 1825 531 
L 1825 4091 
L 703 3866 
L 703 4441 
L 1819 4666 
L 2450 4666 
L 2450 531 
L 3481 531 
L 3481 0 
L 794 0 
L 794 531 
z
" transform="scale(0.015625)"/>
       </defs>
       <use xlink:href="#DejaVuSans-31"/>
      </g>
     </g>
    </g>
    <g id="xtick_17">
     <g id="line2d_28">
      <g>
       <use xlink:href="#m6cc317520d" x="226.043333" y="312.92" style="stroke: #000000; stroke-width: 0.8"/>
      </g>
     </g>
     <g id="text_15">
      <!-- 2 -->
      <g transform="translate(222.862083 327.518438) scale(0.1 -0.1)">
       <use xlink:href="#DejaVuSans-32"/>
      </g>
     </g>
    </g>
    <g id="xtick_18">
     <g id="line2d_29">
      <g>
       <use xlink:href="#m6cc317520d" x="298.61" y="312.92" style="stroke: #000000; stroke-width: 0.8"/>
      </g>
     </g>
     <g id="text_16">
      <!-- 3 -->
      <g transform="translate(295.42875 327.518438) scale(0.1 -0.1)">
       <defs>
        <path id="DejaVuSans-33" d="M 2597 2516 
Q 3050 2419 3304 2112 
Q 3559 1806 3559 1356 
Q 3559 666 3084 287 
Q 2609 -91 1734 -91 
Q 1441 -91 1130 -33 
Q 819 25 488 141 
L 488 750 
Q 750 597 1062 519 
Q 1375 441 1716 441 
Q 2309 441 2620 675 
Q 2931 909 2931 1356 
Q 2931 1769 2642 2001 
Q 2353 2234 1838 2234 
L 1294 2234 
L 1294 2753 
L 1863 2753 
Q 2328 2753 2575 2939 
Q 2822 3125 2822 3475 
Q 2822 3834 2567 4026 
Q 2313 4219 1838 4219 
Q 1578 4219 1281 4162 
Q 984 4106 628 3988 
L 628 4550 
Q 988 4650 1302 4700 
Q 1616 4750 1894 4750 
Q 2613 4750 3031 4423 
Q 3450 4097 3450 3541 
Q 3450 3153 3228 2886 
Q 3006 2619 2597 2516 
z
" transform="scale(0.015625)"/>
       </defs>
       <use xlink:href="#DejaVuSans-33"/>
      </g>
     </g>
    </g>
    <g id="xtick_19">
     <g id="line2d_30">
      <g>
       <use xlink:href="#m6cc317520d" x="371.176667" y="312.92" style="stroke: #000000; stroke-width: 0.8"/>
      </g>
     </g>
     <g id="text_17">
      <!-- 4 -->
      <g transform="translate(367.995417 327.518438) scale(0.1 -0.1)">
       <defs>
        <path id="DejaVuSans-34" d="M 2419 4116 
L 825 1625 
L 2419 1625 
L 2419 4116 
z
M 2253 4666 
L 3047 4666 
L 3047 1625 
L 3713 1625 
L 3713 1100 
L 3047 1100 
L 3047 0 
L 2419 0 
L 2419 1100 
L 313 1100 
L 313 1709 
L 2253 4666 
z
" transform="scale(0.015625)"/>
       </defs>
       <use xlink:href="#DejaVuSans-34"/>
      </g>
     </g>
    </g>
    <g id="xtick_20">
     <g id="line2d_31">
      <g>
       <use xlink:href="#m6cc317520d" x="443.743333" y="312.92" style="stroke: #000000; stroke-width: 0.8"/>
      </g>
     </g>
     <g id="text_18">
      <!-- 5 -->
      <g transform="translate(440.562083 327.518438) scale(0.1 -0.1)">
       <use xlink:href="#DejaVuSans-35"/>
      </g>
     </g>
    </g>
    <g id="xtick_21">
     <g id="line2d_32">
      <g>
       <use xlink:href="#m6cc317520d" x="516.31" y="312.92" style="stroke: #000000; stroke-width: 0.8"/>
      </g>
     </g>
     <g id="text_19">
      <!-- 6 -->
      <g transform="translate(513.12875 327.518438) scale(0.1 -0.1)">
       <defs>
        <path id="DejaVuSans-36" d="M 2113 2584 
Q 1688 2584 1439 2293 
Q 1191 2003 1191 1497 
Q 1191 994 1439 701 
Q 1688 409 2113 409 
Q 2538 409 2786 701 
Q 3034 994 3034 1497 
Q 3034 2003 2786 2293 
Q 2538 2584 2113 2584 
z
M 3366 4563 
L 3366 3988 
Q 3128 4100 2886 4159 
Q 2644 4219 2406 4219 
Q 1781 4219 1451 3797 
Q 1122 3375 1075 2522 
Q 1259 2794 1537 2939 
Q 1816 3084 2150 3084 
Q 2853 3084 3261 2657 
Q 3669 2231 3669 1497 
Q 3669 778 3244 343 
Q 2819 -91 2113 -91 
Q 1303 -91 875 529 
Q 447 1150 447 2328 
Q 447 3434 972 4092 
Q 1497 4750 2381 4750 
Q 2619 4750 2861 4703 
Q 3103 4656 3366 4563 
z
" transform="scale(0.015625)"/>
       </defs>
       <use xlink:href="#DejaVuSans-36"/>
      </g>
     </g>
    </g>
    <g id="text_20">
     <!-- Time -->
     <g transform="translate(286.376406 341.196563) scale(0.1 -0.1)">
      <defs>
       <path id="DejaVuSans-69" d="M 603 3500 
L 1178 3500 
L 1178 0 
L 603 0 
L 603 3500 
z
M 603 4863 
L 1178 4863 
L 1178 4134 
L 603 4134 
L 603 4863 
z
" transform="scale(0.015625)"/>
       <path id="DejaVuSans-6d" d="M 3328 2828 
Q 3544 3216 3844 3400 
Q 4144 3584 4550 3584 
Q 5097 3584 5394 3201 
Q 5691 2819 5691 2113 
L 5691 0 
L 5113 0 
L 5113 2094 
Q 5113 2597 4934 2840 
Q 4756 3084 4391 3084 
Q 3944 3084 3684 2787 
Q 3425 2491 3425 1978 
L 3425 0 
L 2847 0 
L 2847 2094 
Q 2847 2600 2669 2842 
Q 2491 3084 2119 3084 
Q 1678 3084 1418 2786 
Q 1159 2488 1159 1978 
L 1159 0 
L 581 0 
L 581 3500 
L 1159 3500 
L 1159 2956 
Q 1356 3278 1631 3431 
Q 1906 3584 2284 3584 
Q 2666 3584 2933 3390 
Q 3200 3197 3328 2828 
z
" transform="scale(0.015625)"/>
      </defs>
      <use xlink:href="#DejaVuSans-54"/>
      <use xlink:href="#DejaVuSans-69" x="57.958984"/>
      <use xlink:href="#DejaVuSans-6d" x="85.742188"/>
      <use xlink:href="#DejaVuSans-65" x="183.154297"/>
     </g>
    </g>
   </g>
   <g id="matplotlib.axis_6">
    <g id="ytick_8">
     <g id="line2d_33">
      <g>
       <use xlink:href="#m7a19e06ab8" x="59.14" y="308.9575" style="stroke: #000000; stroke-width: 0.8"/>
      </g>
     </g>
     <g id="text_21">
      <!-- 0 -->
      <g transform="translate(45.7775 312.756719) scale(0.1 -0.1)">
       <use xlink:href="#DejaVuSans-30"/>
      </g>
     </g>
    </g>
    <g id="ytick_9">
     <g id="line2d_34">
      <g>
       <use xlink:href="#m7a19e06ab8" x="59.14" y="283.053397" style="stroke: #000000; stroke-width: 0.8"/>
      </g>
     </g>
     <g id="text_22">
      <!-- 250 -->
      <g transform="translate(33.0525 286.852615) scale(0.1 -0.1)">
       <use xlink:href="#DejaVuSans-32"/>
       <use xlink:href="#DejaVuSans-35" x="63.623047"/>
       <use xlink:href="#DejaVuSans-30" x="127.246094"/>
      </g>
     </g>
    </g>
    <g id="ytick_10">
     <g id="line2d_35">
      <g>
       <use xlink:href="#m7a19e06ab8" x="59.14" y="257.149293" style="stroke: #000000; stroke-width: 0.8"/>
      </g>
     </g>
     <g id="text_23">
      <!-- 500 -->
      <g transform="translate(33.0525 260.948512) scale(0.1 -0.1)">
       <use xlink:href="#DejaVuSans-35"/>
       <use xlink:href="#DejaVuSans-30" x="63.623047"/>
       <use xlink:href="#DejaVuSans-30" x="127.246094"/>
      </g>
     </g>
    </g>
    <g id="ytick_11">
     <g id="line2d_36">
      <g>
       <use xlink:href="#m7a19e06ab8" x="59.14" y="231.24519" style="stroke: #000000; stroke-width: 0.8"/>
      </g>
     </g>
     <g id="text_24">
      <!-- 750 -->
      <g transform="translate(33.0525 235.044409) scale(0.1 -0.1)">
       <use xlink:href="#DejaVuSans-37"/>
       <use xlink:href="#DejaVuSans-35" x="63.623047"/>
       <use xlink:href="#DejaVuSans-30" x="127.246094"/>
      </g>
     </g>
    </g>
    <g id="text_25">
     <!-- R -->
     <g transform="translate(544.605781 276.930938) scale(0.1 -0.1)">
      <defs>
       <path id="DejaVuSans-52" d="M 2841 2188 
Q 3044 2119 3236 1894 
Q 3428 1669 3622 1275 
L 4263 0 
L 3584 0 
L 2988 1197 
Q 2756 1666 2539 1819 
Q 2322 1972 1947 1972 
L 1259 1972 
L 1259 0 
L 628 0 
L 628 4666 
L 2053 4666 
Q 2853 4666 3247 4331 
Q 3641 3997 3641 3322 
Q 3641 2881 3436 2590 
Q 3231 2300 2841 2188 
z
M 1259 4147 
L 1259 2491 
L 2053 2491 
Q 2509 2491 2742 2702 
Q 2975 2913 2975 3322 
Q 2975 3731 2742 3939 
Q 2509 4147 2053 4147 
L 1259 4147 
z
" transform="scale(0.015625)"/>
      </defs>
      <use xlink:href="#DejaVuSans-52"/>
     </g>
    </g>
   </g>
   <g id="line2d_37">
    <path d="M 80.91 308.9575 
L 83.908328 308.589189 
L 86.264156 308.085715 
L 88.405819 307.406627 
L 90.547482 306.492405 
L 92.90331 305.235082 
L 95.75886 303.440117 
L 100.113574 300.406862 
L 111.607163 292.327527 
L 118.10354 288.082782 
L 124.528528 284.150424 
L 131.096293 280.392294 
L 137.806836 276.809279 
L 144.731545 273.366262 
L 151.799031 270.10049 
L 159.080684 266.979604 
L 166.647891 263.979669 
L 174.429265 261.134146 
L 182.496194 258.420635 
L 190.920067 255.823553 
L 199.629495 253.371302 
L 208.767255 251.031301 
L 218.333348 248.81381 
L 228.327773 246.727412 
L 238.82192 244.764658 
L 249.887177 242.922679 
L 261.666321 241.189977 
L 274.087964 239.589145 
L 287.43766 238.095378 
L 301.715411 236.724621 
L 317.20677 235.464605 
L 333.911738 234.33169 
L 352.330036 233.308517 
L 372.67583 232.405033 
L 395.663009 231.611614 
L 421.791292 230.938031 
L 452.417067 230.375912 
L 489.824773 229.922107 
L 516.31 229.7075 
L 516.31 229.7075 
" clip-path="url(#pee583012f4)" style="fill: none; stroke: #1f77b4; stroke-width: 1.5; stroke-linecap: square"/>
   </g>
   <g id="patch_15">
    <path d="M 59.14 312.92 
L 59.14 225.745 
" style="fill: none; stroke: #000000; stroke-width: 0.8; stroke-linejoin: miter; stroke-linecap: square"/>
   </g>
   <g id="patch_16">
    <path d="M 538.08 312.92 
L 538.08 225.745 
" style="fill: none; stroke: #000000; stroke-width: 0.8; stroke-linejoin: miter; stroke-linecap: square"/>
   </g>
   <g id="patch_17">
    <path d="M 59.14 312.92 
L 538.08 312.92 
" style="fill: none; stroke: #000000; stroke-width: 0.8; stroke-linejoin: miter; stroke-linecap: square"/>
   </g>
   <g id="patch_18">
    <path d="M 59.14 225.745 
L 538.08 225.745 
" style="fill: none; stroke: #000000; stroke-width: 0.8; stroke-linejoin: miter; stroke-linecap: square"/>
   </g>
   <g id="legend_3">
    <g id="patch_19">
     <path d="M 477.845625 248.423125 
L 531.08 248.423125 
Q 533.08 248.423125 533.08 246.423125 
L 533.08 232.745 
Q 533.08 230.745 531.08 230.745 
L 477.845625 230.745 
Q 475.845625 230.745 475.845625 232.745 
L 475.845625 246.423125 
Q 475.845625 248.423125 477.845625 248.423125 
z
" style="fill: #ffffff; opacity: 0.8; stroke: #cccccc; stroke-linejoin: miter"/>
    </g>
    <g id="line2d_38">
     <path d="M 479.845625 238.843437 
L 489.845625 238.843437 
L 499.845625 238.843437 
" style="fill: none; stroke: #1f77b4; stroke-width: 1.5; stroke-linecap: square"/>
    </g>
    <g id="text_26">
     <!-- True -->
     <g transform="translate(507.845625 242.343437) scale(0.1 -0.1)">
      <use xlink:href="#DejaVuSans-54"/>
      <use xlink:href="#DejaVuSans-72" x="46.333984"/>
      <use xlink:href="#DejaVuSans-75" x="87.447266"/>
      <use xlink:href="#DejaVuSans-65" x="150.826172"/>
     </g>
    </g>
   </g>
  </g>
  <g id="text_27">
   <!-- SIR Model -->
   <g transform="translate(258.329063 16.318125) scale(0.12 -0.12)">
    <defs>
     <path id="DejaVuSans-20" transform="scale(0.015625)"/>
     <path id="DejaVuSans-4d" d="M 628 4666 
L 1569 4666 
L 2759 1491 
L 3956 4666 
L 4897 4666 
L 4897 0 
L 4281 0 
L 4281 4097 
L 3078 897 
L 2444 897 
L 1241 4097 
L 1241 0 
L 628 0 
L 628 4666 
z
" transform="scale(0.015625)"/>
     <path id="DejaVuSans-6f" d="M 1959 3097 
Q 1497 3097 1228 2736 
Q 959 2375 959 1747 
Q 959 1119 1226 758 
Q 1494 397 1959 397 
Q 2419 397 2687 759 
Q 2956 1122 2956 1747 
Q 2956 2369 2687 2733 
Q 2419 3097 1959 3097 
z
M 1959 3584 
Q 2709 3584 3137 3096 
Q 3566 2609 3566 1747 
Q 3566 888 3137 398 
Q 2709 -91 1959 -91 
Q 1206 -91 779 398 
Q 353 888 353 1747 
Q 353 2609 779 3096 
Q 1206 3584 1959 3584 
z
" transform="scale(0.015625)"/>
     <path id="DejaVuSans-6c" d="M 603 4863 
L 1178 4863 
L 1178 0 
L 603 0 
L 603 4863 
z
" transform="scale(0.015625)"/>
    </defs>
    <use xlink:href="#DejaVuSans-53"/>
    <use xlink:href="#DejaVuSans-49" x="63.476562"/>
    <use xlink:href="#DejaVuSans-52" x="92.96875"/>
    <use xlink:href="#DejaVuSans-20" x="162.451172"/>
    <use xlink:href="#DejaVuSans-4d" x="194.238281"/>
    <use xlink:href="#DejaVuSans-6f" x="280.517578"/>
    <use xlink:href="#DejaVuSans-64" x="341.699219"/>
    <use xlink:href="#DejaVuSans-65" x="405.175781"/>
    <use xlink:href="#DejaVuSans-6c" x="466.699219"/>
   </g>
  </g>
 </g>
 <defs>
  <clipPath id="p045ba5e0cd">
   <rect x="59.14" y="33.96" width="478.94" height="87.175"/>
  </clipPath>
  <clipPath id="pa4bd281b78">
   <rect x="59.14" y="129.8525" width="478.94" height="87.175"/>
  </clipPath>
  <clipPath id="pee583012f4">
   <rect x="59.14" y="225.745" width="478.94" height="87.175"/>
  </clipPath>
 </defs>
</svg>
