<?xml version="1.0" encoding="utf-8" standalone="no"?>
<!DOCTYPE svg PUBLIC "-//W3C//DTD SVG 1.1//EN"
  "http://www.w3.org/Graphics/SVG/1.1/DTD/svg11.dtd">
<svg xmlns:xlink="http://www.w3.org/1999/xlink" width="460.8pt" height="345.6pt" viewBox="0 0 460.8 345.6" xmlns="http://www.w3.org/2000/svg" version="1.1">
 <metadata>
  <rdf:RDF xmlns:dc="http://purl.org/dc/elements/1.1/" xmlns:cc="http://creativecommons.org/ns#" xmlns:rdf="http://www.w3.org/1999/02/22-rdf-syntax-ns#">
   <cc:Work>
    <dc:type rdf:resource="http://purl.org/dc/dcmitype/StillImage"/>
    <dc:date>2024-02-14T00:12:50.710654</dc:date>
    <dc:format>image/svg+xml</dc:format>
    <dc:creator>
     <cc:Agent>
      <dc:title>Matplotlib v3.8.2, https://matplotlib.org/</dc:title>
     </cc:Agent>
    </dc:creator>
   </cc:Work>
  </rdf:RDF>
 </metadata>
 <defs>
  <style type="text/css">*{stroke-linejoin: round; stroke-linecap: butt}</style>
 </defs>
 <g id="figure_1">
  <g id="patch_1">
   <path d="M 0 345.6 
L 460.8 345.6 
L 460.8 0 
L 0 0 
z
" style="fill: #ffffff"/>
  </g>
  <g id="axes_1">
   <g id="patch_2">
    <path d="M 57.6 307.584 
L 414.72 307.584 
L 414.72 41.472 
L 57.6 41.472 
z
" style="fill: #ffffff"/>
   </g>
   <g id="matplotlib.axis_1">
    <g id="xtick_1">
     <g id="line2d_1">
      <defs>
       <path id="mfd98d93913" d="M 0 0 
L 0 3.5 
" style="stroke: #000000; stroke-width: 0.8"/>
      </defs>
      <g>
       <use xlink:href="#mfd98d93913" x="73.829481" y="307.584" style="stroke: #000000; stroke-width: 0.8"/>
      </g>
     </g>
     <g id="text_1">
      <!-- 0 -->
      <g transform="translate(69.375731 325.221812) scale(0.14 -0.14)">
       <defs>
        <path id="DejaVuSans-30" d="M 2034 4250 
Q 1547 4250 1301 3770 
Q 1056 3291 1056 2328 
Q 1056 1369 1301 889 
Q 1547 409 2034 409 
Q 2525 409 2770 889 
Q 3016 1369 3016 2328 
Q 3016 3291 2770 3770 
Q 2525 4250 2034 4250 
z
M 2034 4750 
Q 2819 4750 3233 4129 
Q 3647 3509 3647 2328 
Q 3647 1150 3233 529 
Q 2819 -91 2034 -91 
Q 1250 -91 836 529 
Q 422 1150 422 2328 
Q 422 3509 836 4129 
Q 1250 4750 2034 4750 
z
" transform="scale(0.015625)"/>
       </defs>
       <use xlink:href="#DejaVuSans-30"/>
      </g>
     </g>
    </g>
    <g id="xtick_2">
     <g id="line2d_2">
      <g>
       <use xlink:href="#mfd98d93913" x="138.76039" y="307.584" style="stroke: #000000; stroke-width: 0.8"/>
      </g>
     </g>
     <g id="text_2">
      <!-- 20000 -->
      <g transform="translate(116.49164 325.221812) scale(0.14 -0.14)">
       <defs>
        <path id="DejaVuSans-32" d="M 1228 531 
L 3431 531 
L 3431 0 
L 469 0 
L 469 531 
Q 828 903 1448 1529 
Q 2069 2156 2228 2338 
Q 2531 2678 2651 2914 
Q 2772 3150 2772 3378 
Q 2772 3750 2511 3984 
Q 2250 4219 1831 4219 
Q 1534 4219 1204 4116 
Q 875 4013 500 3803 
L 500 4441 
Q 881 4594 1212 4672 
Q 1544 4750 1819 4750 
Q 2544 4750 2975 4387 
Q 3406 4025 3406 3419 
Q 3406 3131 3298 2873 
Q 3191 2616 2906 2266 
Q 2828 2175 2409 1742 
Q 1991 1309 1228 531 
z
" transform="scale(0.015625)"/>
       </defs>
       <use xlink:href="#DejaVuSans-32"/>
       <use xlink:href="#DejaVuSans-30" x="63.623047"/>
       <use xlink:href="#DejaVuSans-30" x="127.246094"/>
       <use xlink:href="#DejaVuSans-30" x="190.869141"/>
       <use xlink:href="#DejaVuSans-30" x="254.492188"/>
      </g>
     </g>
    </g>
    <g id="xtick_3">
     <g id="line2d_3">
      <g>
       <use xlink:href="#mfd98d93913" x="203.691299" y="307.584" style="stroke: #000000; stroke-width: 0.8"/>
      </g>
     </g>
     <g id="text_3">
      <!-- 40000 -->
      <g transform="translate(181.422549 325.221812) scale(0.14 -0.14)">
       <defs>
        <path id="DejaVuSans-34" d="M 2419 4116 
L 825 1625 
L 2419 1625 
L 2419 4116 
z
M 2253 4666 
L 3047 4666 
L 3047 1625 
L 3713 1625 
L 3713 1100 
L 3047 1100 
L 3047 0 
L 2419 0 
L 2419 1100 
L 313 1100 
L 313 1709 
L 2253 4666 
z
" transform="scale(0.015625)"/>
       </defs>
       <use xlink:href="#DejaVuSans-34"/>
       <use xlink:href="#DejaVuSans-30" x="63.623047"/>
       <use xlink:href="#DejaVuSans-30" x="127.246094"/>
       <use xlink:href="#DejaVuSans-30" x="190.869141"/>
       <use xlink:href="#DejaVuSans-30" x="254.492188"/>
      </g>
     </g>
    </g>
    <g id="xtick_4">
     <g id="line2d_4">
      <g>
       <use xlink:href="#mfd98d93913" x="268.622208" y="307.584" style="stroke: #000000; stroke-width: 0.8"/>
      </g>
     </g>
     <g id="text_4">
      <!-- 60000 -->
      <g transform="translate(246.353458 325.221812) scale(0.14 -0.14)">
       <defs>
        <path id="DejaVuSans-36" d="M 2113 2584 
Q 1688 2584 1439 2293 
Q 1191 2003 1191 1497 
Q 1191 994 1439 701 
Q 1688 409 2113 409 
Q 2538 409 2786 701 
Q 3034 994 3034 1497 
Q 3034 2003 2786 2293 
Q 2538 2584 2113 2584 
z
M 3366 4563 
L 3366 3988 
Q 3128 4100 2886 4159 
Q 2644 4219 2406 4219 
Q 1781 4219 1451 3797 
Q 1122 3375 1075 2522 
Q 1259 2794 1537 2939 
Q 1816 3084 2150 3084 
Q 2853 3084 3261 2657 
Q 3669 2231 3669 1497 
Q 3669 778 3244 343 
Q 2819 -91 2113 -91 
Q 1303 -91 875 529 
Q 447 1150 447 2328 
Q 447 3434 972 4092 
Q 1497 4750 2381 4750 
Q 2619 4750 2861 4703 
Q 3103 4656 3366 4563 
z
" transform="scale(0.015625)"/>
       </defs>
       <use xlink:href="#DejaVuSans-36"/>
       <use xlink:href="#DejaVuSans-30" x="63.623047"/>
       <use xlink:href="#DejaVuSans-30" x="127.246094"/>
       <use xlink:href="#DejaVuSans-30" x="190.869141"/>
       <use xlink:href="#DejaVuSans-30" x="254.492188"/>
      </g>
     </g>
    </g>
    <g id="xtick_5">
     <g id="line2d_5">
      <g>
       <use xlink:href="#mfd98d93913" x="333.553117" y="307.584" style="stroke: #000000; stroke-width: 0.8"/>
      </g>
     </g>
     <g id="text_5">
      <!-- 80000 -->
      <g transform="translate(311.284367 325.221812) scale(0.14 -0.14)">
       <defs>
        <path id="DejaVuSans-38" d="M 2034 2216 
Q 1584 2216 1326 1975 
Q 1069 1734 1069 1313 
Q 1069 891 1326 650 
Q 1584 409 2034 409 
Q 2484 409 2743 651 
Q 3003 894 3003 1313 
Q 3003 1734 2745 1975 
Q 2488 2216 2034 2216 
z
M 1403 2484 
Q 997 2584 770 2862 
Q 544 3141 544 3541 
Q 544 4100 942 4425 
Q 1341 4750 2034 4750 
Q 2731 4750 3128 4425 
Q 3525 4100 3525 3541 
Q 3525 3141 3298 2862 
Q 3072 2584 2669 2484 
Q 3125 2378 3379 2068 
Q 3634 1759 3634 1313 
Q 3634 634 3220 271 
Q 2806 -91 2034 -91 
Q 1263 -91 848 271 
Q 434 634 434 1313 
Q 434 1759 690 2068 
Q 947 2378 1403 2484 
z
M 1172 3481 
Q 1172 3119 1398 2916 
Q 1625 2713 2034 2713 
Q 2441 2713 2670 2916 
Q 2900 3119 2900 3481 
Q 2900 3844 2670 4047 
Q 2441 4250 2034 4250 
Q 1625 4250 1398 4047 
Q 1172 3844 1172 3481 
z
" transform="scale(0.015625)"/>
       </defs>
       <use xlink:href="#DejaVuSans-38"/>
       <use xlink:href="#DejaVuSans-30" x="63.623047"/>
       <use xlink:href="#DejaVuSans-30" x="127.246094"/>
       <use xlink:href="#DejaVuSans-30" x="190.869141"/>
       <use xlink:href="#DejaVuSans-30" x="254.492188"/>
      </g>
     </g>
    </g>
    <g id="xtick_6">
     <g id="line2d_6">
      <g>
       <use xlink:href="#mfd98d93913" x="398.484026" y="307.584" style="stroke: #000000; stroke-width: 0.8"/>
      </g>
     </g>
     <g id="text_6">
      <!-- 100000 -->
      <g transform="translate(371.761526 325.221812) scale(0.14 -0.14)">
       <defs>
        <path id="DejaVuSans-31" d="M 794 531 
L 1825 531 
L 1825 4091 
L 703 3866 
L 703 4441 
L 1819 4666 
L 2450 4666 
L 2450 531 
L 3481 531 
L 3481 0 
L 794 0 
L 794 531 
z
" transform="scale(0.015625)"/>
       </defs>
       <use xlink:href="#DejaVuSans-31"/>
       <use xlink:href="#DejaVuSans-30" x="63.623047"/>
       <use xlink:href="#DejaVuSans-30" x="127.246094"/>
       <use xlink:href="#DejaVuSans-30" x="190.869141"/>
       <use xlink:href="#DejaVuSans-30" x="254.492188"/>
       <use xlink:href="#DejaVuSans-30" x="318.115234"/>
      </g>
     </g>
    </g>
    <g id="text_7">
     <!-- Number of samples -->
     <g transform="translate(167.745937 342.771187) scale(0.14 -0.14)">
      <defs>
       <path id="DejaVuSans-4e" d="M 628 4666 
L 1478 4666 
L 3547 763 
L 3547 4666 
L 4159 4666 
L 4159 0 
L 3309 0 
L 1241 3903 
L 1241 0 
L 628 0 
L 628 4666 
z
" transform="scale(0.015625)"/>
       <path id="DejaVuSans-75" d="M 544 1381 
L 544 3500 
L 1119 3500 
L 1119 1403 
Q 1119 906 1312 657 
Q 1506 409 1894 409 
Q 2359 409 2629 706 
Q 2900 1003 2900 1516 
L 2900 3500 
L 3475 3500 
L 3475 0 
L 2900 0 
L 2900 538 
Q 2691 219 2414 64 
Q 2138 -91 1772 -91 
Q 1169 -91 856 284 
Q 544 659 544 1381 
z
M 1991 3584 
L 1991 3584 
z
" transform="scale(0.015625)"/>
       <path id="DejaVuSans-6d" d="M 3328 2828 
Q 3544 3216 3844 3400 
Q 4144 3584 4550 3584 
Q 5097 3584 5394 3201 
Q 5691 2819 5691 2113 
L 5691 0 
L 5113 0 
L 5113 2094 
Q 5113 2597 4934 2840 
Q 4756 3084 4391 3084 
Q 3944 3084 3684 2787 
Q 3425 2491 3425 1978 
L 3425 0 
L 2847 0 
L 2847 2094 
Q 2847 2600 2669 2842 
Q 2491 3084 2119 3084 
Q 1678 3084 1418 2786 
Q 1159 2488 1159 1978 
L 1159 0 
L 581 0 
L 581 3500 
L 1159 3500 
L 1159 2956 
Q 1356 3278 1631 3431 
Q 1906 3584 2284 3584 
Q 2666 3584 2933 3390 
Q 3200 3197 3328 2828 
z
" transform="scale(0.015625)"/>
       <path id="DejaVuSans-62" d="M 3116 1747 
Q 3116 2381 2855 2742 
Q 2594 3103 2138 3103 
Q 1681 3103 1420 2742 
Q 1159 2381 1159 1747 
Q 1159 1113 1420 752 
Q 1681 391 2138 391 
Q 2594 391 2855 752 
Q 3116 1113 3116 1747 
z
M 1159 2969 
Q 1341 3281 1617 3432 
Q 1894 3584 2278 3584 
Q 2916 3584 3314 3078 
Q 3713 2572 3713 1747 
Q 3713 922 3314 415 
Q 2916 -91 2278 -91 
Q 1894 -91 1617 61 
Q 1341 213 1159 525 
L 1159 0 
L 581 0 
L 581 4863 
L 1159 4863 
L 1159 2969 
z
" transform="scale(0.015625)"/>
       <path id="DejaVuSans-65" d="M 3597 1894 
L 3597 1613 
L 953 1613 
Q 991 1019 1311 708 
Q 1631 397 2203 397 
Q 2534 397 2845 478 
Q 3156 559 3463 722 
L 3463 178 
Q 3153 47 2828 -22 
Q 2503 -91 2169 -91 
Q 1331 -91 842 396 
Q 353 884 353 1716 
Q 353 2575 817 3079 
Q 1281 3584 2069 3584 
Q 2775 3584 3186 3129 
Q 3597 2675 3597 1894 
z
M 3022 2063 
Q 3016 2534 2758 2815 
Q 2500 3097 2075 3097 
Q 1594 3097 1305 2825 
Q 1016 2553 972 2059 
L 3022 2063 
z
" transform="scale(0.015625)"/>
       <path id="DejaVuSans-72" d="M 2631 2963 
Q 2534 3019 2420 3045 
Q 2306 3072 2169 3072 
Q 1681 3072 1420 2755 
Q 1159 2438 1159 1844 
L 1159 0 
L 581 0 
L 581 3500 
L 1159 3500 
L 1159 2956 
Q 1341 3275 1631 3429 
Q 1922 3584 2338 3584 
Q 2397 3584 2469 3576 
Q 2541 3569 2628 3553 
L 2631 2963 
z
" transform="scale(0.015625)"/>
       <path id="DejaVuSans-20" transform="scale(0.015625)"/>
       <path id="DejaVuSans-6f" d="M 1959 3097 
Q 1497 3097 1228 2736 
Q 959 2375 959 1747 
Q 959 1119 1226 758 
Q 1494 397 1959 397 
Q 2419 397 2687 759 
Q 2956 1122 2956 1747 
Q 2956 2369 2687 2733 
Q 2419 3097 1959 3097 
z
M 1959 3584 
Q 2709 3584 3137 3096 
Q 3566 2609 3566 1747 
Q 3566 888 3137 398 
Q 2709 -91 1959 -91 
Q 1206 -91 779 398 
Q 353 888 353 1747 
Q 353 2609 779 3096 
Q 1206 3584 1959 3584 
z
" transform="scale(0.015625)"/>
       <path id="DejaVuSans-66" d="M 2375 4863 
L 2375 4384 
L 1825 4384 
Q 1516 4384 1395 4259 
Q 1275 4134 1275 3809 
L 1275 3500 
L 2222 3500 
L 2222 3053 
L 1275 3053 
L 1275 0 
L 697 0 
L 697 3053 
L 147 3053 
L 147 3500 
L 697 3500 
L 697 3744 
Q 697 4328 969 4595 
Q 1241 4863 1831 4863 
L 2375 4863 
z
" transform="scale(0.015625)"/>
       <path id="DejaVuSans-73" d="M 2834 3397 
L 2834 2853 
Q 2591 2978 2328 3040 
Q 2066 3103 1784 3103 
Q 1356 3103 1142 2972 
Q 928 2841 928 2578 
Q 928 2378 1081 2264 
Q 1234 2150 1697 2047 
L 1894 2003 
Q 2506 1872 2764 1633 
Q 3022 1394 3022 966 
Q 3022 478 2636 193 
Q 2250 -91 1575 -91 
Q 1294 -91 989 -36 
Q 684 19 347 128 
L 347 722 
Q 666 556 975 473 
Q 1284 391 1588 391 
Q 1994 391 2212 530 
Q 2431 669 2431 922 
Q 2431 1156 2273 1281 
Q 2116 1406 1581 1522 
L 1381 1569 
Q 847 1681 609 1914 
Q 372 2147 372 2553 
Q 372 3047 722 3315 
Q 1072 3584 1716 3584 
Q 2034 3584 2315 3537 
Q 2597 3491 2834 3397 
z
" transform="scale(0.015625)"/>
       <path id="DejaVuSans-61" d="M 2194 1759 
Q 1497 1759 1228 1600 
Q 959 1441 959 1056 
Q 959 750 1161 570 
Q 1363 391 1709 391 
Q 2188 391 2477 730 
Q 2766 1069 2766 1631 
L 2766 1759 
L 2194 1759 
z
M 3341 1997 
L 3341 0 
L 2766 0 
L 2766 531 
Q 2569 213 2275 61 
Q 1981 -91 1556 -91 
Q 1019 -91 701 211 
Q 384 513 384 1019 
Q 384 1609 779 1909 
Q 1175 2209 1959 2209 
L 2766 2209 
L 2766 2266 
Q 2766 2663 2505 2880 
Q 2244 3097 1772 3097 
Q 1472 3097 1187 3025 
Q 903 2953 641 2809 
L 641 3341 
Q 956 3463 1253 3523 
Q 1550 3584 1831 3584 
Q 2591 3584 2966 3190 
Q 3341 2797 3341 1997 
z
" transform="scale(0.015625)"/>
       <path id="DejaVuSans-70" d="M 1159 525 
L 1159 -1331 
L 581 -1331 
L 581 3500 
L 1159 3500 
L 1159 2969 
Q 1341 3281 1617 3432 
Q 1894 3584 2278 3584 
Q 2916 3584 3314 3078 
Q 3713 2572 3713 1747 
Q 3713 922 3314 415 
Q 2916 -91 2278 -91 
Q 1894 -91 1617 61 
Q 1341 213 1159 525 
z
M 3116 1747 
Q 3116 2381 2855 2742 
Q 2594 3103 2138 3103 
Q 1681 3103 1420 2742 
Q 1159 2381 1159 1747 
Q 1159 1113 1420 752 
Q 1681 391 2138 391 
Q 2594 391 2855 752 
Q 3116 1113 3116 1747 
z
" transform="scale(0.015625)"/>
       <path id="DejaVuSans-6c" d="M 603 4863 
L 1178 4863 
L 1178 0 
L 603 0 
L 603 4863 
z
" transform="scale(0.015625)"/>
      </defs>
      <use xlink:href="#DejaVuSans-4e"/>
      <use xlink:href="#DejaVuSans-75" x="74.804688"/>
      <use xlink:href="#DejaVuSans-6d" x="138.183594"/>
      <use xlink:href="#DejaVuSans-62" x="235.595703"/>
      <use xlink:href="#DejaVuSans-65" x="299.072266"/>
      <use xlink:href="#DejaVuSans-72" x="360.595703"/>
      <use xlink:href="#DejaVuSans-20" x="401.708984"/>
      <use xlink:href="#DejaVuSans-6f" x="433.496094"/>
      <use xlink:href="#DejaVuSans-66" x="494.677734"/>
      <use xlink:href="#DejaVuSans-20" x="529.882812"/>
      <use xlink:href="#DejaVuSans-73" x="561.669922"/>
      <use xlink:href="#DejaVuSans-61" x="613.769531"/>
      <use xlink:href="#DejaVuSans-6d" x="675.048828"/>
      <use xlink:href="#DejaVuSans-70" x="772.460938"/>
      <use xlink:href="#DejaVuSans-6c" x="835.9375"/>
      <use xlink:href="#DejaVuSans-65" x="863.720703"/>
      <use xlink:href="#DejaVuSans-73" x="925.244141"/>
     </g>
    </g>
   </g>
   <g id="matplotlib.axis_2">
    <g id="ytick_1">
     <g id="line2d_7">
      <defs>
       <path id="m7fa4b4b73a" d="M 0 0 
L -3.5 0 
" style="stroke: #000000; stroke-width: 0.8"/>
      </defs>
      <g>
       <use xlink:href="#m7fa4b4b73a" x="57.6" y="295.48785" style="stroke: #000000; stroke-width: 0.8"/>
      </g>
     </g>
     <g id="text_8">
      <!-- $\mathdefault{10^{-5}}$ -->
      <g transform="translate(17.7 300.806757) scale(0.14 -0.14)">
       <defs>
        <path id="DejaVuSans-2212" d="M 678 2272 
L 4684 2272 
L 4684 1741 
L 678 1741 
L 678 2272 
z
" transform="scale(0.015625)"/>
        <path id="DejaVuSans-35" d="M 691 4666 
L 3169 4666 
L 3169 4134 
L 1269 4134 
L 1269 2991 
Q 1406 3038 1543 3061 
Q 1681 3084 1819 3084 
Q 2600 3084 3056 2656 
Q 3513 2228 3513 1497 
Q 3513 744 3044 326 
Q 2575 -91 1722 -91 
Q 1428 -91 1123 -41 
Q 819 9 494 109 
L 494 744 
Q 775 591 1075 516 
Q 1375 441 1709 441 
Q 2250 441 2565 725 
Q 2881 1009 2881 1497 
Q 2881 1984 2565 2268 
Q 2250 2553 1709 2553 
Q 1456 2553 1204 2497 
Q 953 2441 691 2322 
L 691 4666 
z
" transform="scale(0.015625)"/>
       </defs>
       <use xlink:href="#DejaVuSans-31" transform="translate(0 0.684375)"/>
       <use xlink:href="#DejaVuSans-30" transform="translate(63.623047 0.684375)"/>
       <use xlink:href="#DejaVuSans-2212" transform="translate(128.203125 38.965625) scale(0.7)"/>
       <use xlink:href="#DejaVuSans-35" transform="translate(186.855469 38.965625) scale(0.7)"/>
      </g>
     </g>
    </g>
    <g id="ytick_2">
     <g id="line2d_8">
      <g>
       <use xlink:href="#m7fa4b4b73a" x="57.6" y="261.046642" style="stroke: #000000; stroke-width: 0.8"/>
      </g>
     </g>
     <g id="text_9">
      <!-- $\mathdefault{10^{-4}}$ -->
      <g transform="translate(17.7 266.365548) scale(0.14 -0.14)">
       <use xlink:href="#DejaVuSans-31" transform="translate(0 0.684375)"/>
       <use xlink:href="#DejaVuSans-30" transform="translate(63.623047 0.684375)"/>
       <use xlink:href="#DejaVuSans-2212" transform="translate(128.203125 38.965625) scale(0.7)"/>
       <use xlink:href="#DejaVuSans-34" transform="translate(186.855469 38.965625) scale(0.7)"/>
      </g>
     </g>
    </g>
    <g id="ytick_3">
     <g id="line2d_9">
      <g>
       <use xlink:href="#m7fa4b4b73a" x="57.6" y="226.605433" style="stroke: #000000; stroke-width: 0.8"/>
      </g>
     </g>
     <g id="text_10">
      <!-- $\mathdefault{10^{-3}}$ -->
      <g transform="translate(17.7 231.924339) scale(0.14 -0.14)">
       <defs>
        <path id="DejaVuSans-33" d="M 2597 2516 
Q 3050 2419 3304 2112 
Q 3559 1806 3559 1356 
Q 3559 666 3084 287 
Q 2609 -91 1734 -91 
Q 1441 -91 1130 -33 
Q 819 25 488 141 
L 488 750 
Q 750 597 1062 519 
Q 1375 441 1716 441 
Q 2309 441 2620 675 
Q 2931 909 2931 1356 
Q 2931 1769 2642 2001 
Q 2353 2234 1838 2234 
L 1294 2234 
L 1294 2753 
L 1863 2753 
Q 2328 2753 2575 2939 
Q 2822 3125 2822 3475 
Q 2822 3834 2567 4026 
Q 2313 4219 1838 4219 
Q 1578 4219 1281 4162 
Q 984 4106 628 3988 
L 628 4550 
Q 988 4650 1302 4700 
Q 1616 4750 1894 4750 
Q 2613 4750 3031 4423 
Q 3450 4097 3450 3541 
Q 3450 3153 3228 2886 
Q 3006 2619 2597 2516 
z
" transform="scale(0.015625)"/>
       </defs>
       <use xlink:href="#DejaVuSans-31" transform="translate(0 0.765625)"/>
       <use xlink:href="#DejaVuSans-30" transform="translate(63.623047 0.765625)"/>
       <use xlink:href="#DejaVuSans-2212" transform="translate(128.203125 39.046875) scale(0.7)"/>
       <use xlink:href="#DejaVuSans-33" transform="translate(186.855469 39.046875) scale(0.7)"/>
      </g>
     </g>
    </g>
    <g id="ytick_4">
     <g id="line2d_10">
      <g>
       <use xlink:href="#m7fa4b4b73a" x="57.6" y="192.164224" style="stroke: #000000; stroke-width: 0.8"/>
      </g>
     </g>
     <g id="text_11">
      <!-- $\mathdefault{10^{-2}}$ -->
      <g transform="translate(17.7 197.48313) scale(0.14 -0.14)">
       <use xlink:href="#DejaVuSans-31" transform="translate(0 0.765625)"/>
       <use xlink:href="#DejaVuSans-30" transform="translate(63.623047 0.765625)"/>
       <use xlink:href="#DejaVuSans-2212" transform="translate(128.203125 39.046875) scale(0.7)"/>
       <use xlink:href="#DejaVuSans-32" transform="translate(186.855469 39.046875) scale(0.7)"/>
      </g>
     </g>
    </g>
    <g id="ytick_5">
     <g id="line2d_11">
      <g>
       <use xlink:href="#m7fa4b4b73a" x="57.6" y="157.723015" style="stroke: #000000; stroke-width: 0.8"/>
      </g>
     </g>
     <g id="text_12">
      <!-- $\mathdefault{10^{-1}}$ -->
      <g transform="translate(17.7 163.041922) scale(0.14 -0.14)">
       <use xlink:href="#DejaVuSans-31" transform="translate(0 0.684375)"/>
       <use xlink:href="#DejaVuSans-30" transform="translate(63.623047 0.684375)"/>
       <use xlink:href="#DejaVuSans-2212" transform="translate(128.203125 38.965625) scale(0.7)"/>
       <use xlink:href="#DejaVuSans-31" transform="translate(186.855469 38.965625) scale(0.7)"/>
      </g>
     </g>
    </g>
    <g id="ytick_6">
     <g id="line2d_12">
      <g>
       <use xlink:href="#m7fa4b4b73a" x="57.6" y="123.281807" style="stroke: #000000; stroke-width: 0.8"/>
      </g>
     </g>
     <g id="text_13">
      <!-- $\mathdefault{10^{0}}$ -->
      <g transform="translate(25.96 128.600713) scale(0.14 -0.14)">
       <use xlink:href="#DejaVuSans-31" transform="translate(0 0.765625)"/>
       <use xlink:href="#DejaVuSans-30" transform="translate(63.623047 0.765625)"/>
       <use xlink:href="#DejaVuSans-30" transform="translate(128.203125 39.046875) scale(0.7)"/>
      </g>
     </g>
    </g>
    <g id="ytick_7">
     <g id="line2d_13">
      <g>
       <use xlink:href="#m7fa4b4b73a" x="57.6" y="88.840598" style="stroke: #000000; stroke-width: 0.8"/>
      </g>
     </g>
     <g id="text_14">
      <!-- $\mathdefault{10^{1}}$ -->
      <g transform="translate(25.96 94.159504) scale(0.14 -0.14)">
       <use xlink:href="#DejaVuSans-31" transform="translate(0 0.684375)"/>
       <use xlink:href="#DejaVuSans-30" transform="translate(63.623047 0.684375)"/>
       <use xlink:href="#DejaVuSans-31" transform="translate(128.203125 38.965625) scale(0.7)"/>
      </g>
     </g>
    </g>
    <g id="ytick_8">
     <g id="line2d_14">
      <g>
       <use xlink:href="#m7fa4b4b73a" x="57.6" y="54.399389" style="stroke: #000000; stroke-width: 0.8"/>
      </g>
     </g>
     <g id="text_15">
      <!-- $\mathdefault{10^{2}}$ -->
      <g transform="translate(25.96 59.718295) scale(0.14 -0.14)">
       <use xlink:href="#DejaVuSans-31" transform="translate(0 0.765625)"/>
       <use xlink:href="#DejaVuSans-30" transform="translate(63.623047 0.765625)"/>
       <use xlink:href="#DejaVuSans-32" transform="translate(128.203125 39.046875) scale(0.7)"/>
      </g>
     </g>
    </g>
    <g id="ytick_9">
     <g id="line2d_15">
      <defs>
       <path id="m99c1c88f5e" d="M 0 0 
L -2 0 
" style="stroke: #000000; stroke-width: 0.6"/>
      </defs>
      <g>
       <use xlink:href="#m99c1c88f5e" x="57.6" y="305.855687" style="stroke: #000000; stroke-width: 0.6"/>
      </g>
     </g>
    </g>
    <g id="ytick_10">
     <g id="line2d_16">
      <g>
       <use xlink:href="#m99c1c88f5e" x="57.6" y="303.12859" style="stroke: #000000; stroke-width: 0.6"/>
      </g>
     </g>
    </g>
    <g id="ytick_11">
     <g id="line2d_17">
      <g>
       <use xlink:href="#m99c1c88f5e" x="57.6" y="300.822861" style="stroke: #000000; stroke-width: 0.6"/>
      </g>
     </g>
    </g>
    <g id="ytick_12">
     <g id="line2d_18">
      <g>
       <use xlink:href="#m99c1c88f5e" x="57.6" y="298.825548" style="stroke: #000000; stroke-width: 0.6"/>
      </g>
     </g>
    </g>
    <g id="ytick_13">
     <g id="line2d_19">
      <g>
       <use xlink:href="#m99c1c88f5e" x="57.6" y="297.063794" style="stroke: #000000; stroke-width: 0.6"/>
      </g>
     </g>
    </g>
    <g id="ytick_14">
     <g id="line2d_20">
      <g>
       <use xlink:href="#m99c1c88f5e" x="57.6" y="285.120013" style="stroke: #000000; stroke-width: 0.6"/>
      </g>
     </g>
    </g>
    <g id="ytick_15">
     <g id="line2d_21">
      <g>
       <use xlink:href="#m99c1c88f5e" x="57.6" y="279.055218" style="stroke: #000000; stroke-width: 0.6"/>
      </g>
     </g>
    </g>
    <g id="ytick_16">
     <g id="line2d_22">
      <g>
       <use xlink:href="#m99c1c88f5e" x="57.6" y="274.752177" style="stroke: #000000; stroke-width: 0.6"/>
      </g>
     </g>
    </g>
    <g id="ytick_17">
     <g id="line2d_23">
      <g>
       <use xlink:href="#m99c1c88f5e" x="57.6" y="271.414479" style="stroke: #000000; stroke-width: 0.6"/>
      </g>
     </g>
    </g>
    <g id="ytick_18">
     <g id="line2d_24">
      <g>
       <use xlink:href="#m99c1c88f5e" x="57.6" y="268.687381" style="stroke: #000000; stroke-width: 0.6"/>
      </g>
     </g>
    </g>
    <g id="ytick_19">
     <g id="line2d_25">
      <g>
       <use xlink:href="#m99c1c88f5e" x="57.6" y="266.381652" style="stroke: #000000; stroke-width: 0.6"/>
      </g>
     </g>
    </g>
    <g id="ytick_20">
     <g id="line2d_26">
      <g>
       <use xlink:href="#m99c1c88f5e" x="57.6" y="264.38434" style="stroke: #000000; stroke-width: 0.6"/>
      </g>
     </g>
    </g>
    <g id="ytick_21">
     <g id="line2d_27">
      <g>
       <use xlink:href="#m99c1c88f5e" x="57.6" y="262.622585" style="stroke: #000000; stroke-width: 0.6"/>
      </g>
     </g>
    </g>
    <g id="ytick_22">
     <g id="line2d_28">
      <g>
       <use xlink:href="#m99c1c88f5e" x="57.6" y="250.678805" style="stroke: #000000; stroke-width: 0.6"/>
      </g>
     </g>
    </g>
    <g id="ytick_23">
     <g id="line2d_29">
      <g>
       <use xlink:href="#m99c1c88f5e" x="57.6" y="244.614009" style="stroke: #000000; stroke-width: 0.6"/>
      </g>
     </g>
    </g>
    <g id="ytick_24">
     <g id="line2d_30">
      <g>
       <use xlink:href="#m99c1c88f5e" x="57.6" y="240.310968" style="stroke: #000000; stroke-width: 0.6"/>
      </g>
     </g>
    </g>
    <g id="ytick_25">
     <g id="line2d_31">
      <g>
       <use xlink:href="#m99c1c88f5e" x="57.6" y="236.97327" style="stroke: #000000; stroke-width: 0.6"/>
      </g>
     </g>
    </g>
    <g id="ytick_26">
     <g id="line2d_32">
      <g>
       <use xlink:href="#m99c1c88f5e" x="57.6" y="234.246172" style="stroke: #000000; stroke-width: 0.6"/>
      </g>
     </g>
    </g>
    <g id="ytick_27">
     <g id="line2d_33">
      <g>
       <use xlink:href="#m99c1c88f5e" x="57.6" y="231.940444" style="stroke: #000000; stroke-width: 0.6"/>
      </g>
     </g>
    </g>
    <g id="ytick_28">
     <g id="line2d_34">
      <g>
       <use xlink:href="#m99c1c88f5e" x="57.6" y="229.943131" style="stroke: #000000; stroke-width: 0.6"/>
      </g>
     </g>
    </g>
    <g id="ytick_29">
     <g id="line2d_35">
      <g>
       <use xlink:href="#m99c1c88f5e" x="57.6" y="228.181376" style="stroke: #000000; stroke-width: 0.6"/>
      </g>
     </g>
    </g>
    <g id="ytick_30">
     <g id="line2d_36">
      <g>
       <use xlink:href="#m99c1c88f5e" x="57.6" y="216.237596" style="stroke: #000000; stroke-width: 0.6"/>
      </g>
     </g>
    </g>
    <g id="ytick_31">
     <g id="line2d_37">
      <g>
       <use xlink:href="#m99c1c88f5e" x="57.6" y="210.1728" style="stroke: #000000; stroke-width: 0.6"/>
      </g>
     </g>
    </g>
    <g id="ytick_32">
     <g id="line2d_38">
      <g>
       <use xlink:href="#m99c1c88f5e" x="57.6" y="205.869759" style="stroke: #000000; stroke-width: 0.6"/>
      </g>
     </g>
    </g>
    <g id="ytick_33">
     <g id="line2d_39">
      <g>
       <use xlink:href="#m99c1c88f5e" x="57.6" y="202.532061" style="stroke: #000000; stroke-width: 0.6"/>
      </g>
     </g>
    </g>
    <g id="ytick_34">
     <g id="line2d_40">
      <g>
       <use xlink:href="#m99c1c88f5e" x="57.6" y="199.804963" style="stroke: #000000; stroke-width: 0.6"/>
      </g>
     </g>
    </g>
    <g id="ytick_35">
     <g id="line2d_41">
      <g>
       <use xlink:href="#m99c1c88f5e" x="57.6" y="197.499235" style="stroke: #000000; stroke-width: 0.6"/>
      </g>
     </g>
    </g>
    <g id="ytick_36">
     <g id="line2d_42">
      <g>
       <use xlink:href="#m99c1c88f5e" x="57.6" y="195.501922" style="stroke: #000000; stroke-width: 0.6"/>
      </g>
     </g>
    </g>
    <g id="ytick_37">
     <g id="line2d_43">
      <g>
       <use xlink:href="#m99c1c88f5e" x="57.6" y="193.740167" style="stroke: #000000; stroke-width: 0.6"/>
      </g>
     </g>
    </g>
    <g id="ytick_38">
     <g id="line2d_44">
      <g>
       <use xlink:href="#m99c1c88f5e" x="57.6" y="181.796387" style="stroke: #000000; stroke-width: 0.6"/>
      </g>
     </g>
    </g>
    <g id="ytick_39">
     <g id="line2d_45">
      <g>
       <use xlink:href="#m99c1c88f5e" x="57.6" y="175.731591" style="stroke: #000000; stroke-width: 0.6"/>
      </g>
     </g>
    </g>
    <g id="ytick_40">
     <g id="line2d_46">
      <g>
       <use xlink:href="#m99c1c88f5e" x="57.6" y="171.42855" style="stroke: #000000; stroke-width: 0.6"/>
      </g>
     </g>
    </g>
    <g id="ytick_41">
     <g id="line2d_47">
      <g>
       <use xlink:href="#m99c1c88f5e" x="57.6" y="168.090852" style="stroke: #000000; stroke-width: 0.6"/>
      </g>
     </g>
    </g>
    <g id="ytick_42">
     <g id="line2d_48">
      <g>
       <use xlink:href="#m99c1c88f5e" x="57.6" y="165.363754" style="stroke: #000000; stroke-width: 0.6"/>
      </g>
     </g>
    </g>
    <g id="ytick_43">
     <g id="line2d_49">
      <g>
       <use xlink:href="#m99c1c88f5e" x="57.6" y="163.058026" style="stroke: #000000; stroke-width: 0.6"/>
      </g>
     </g>
    </g>
    <g id="ytick_44">
     <g id="line2d_50">
      <g>
       <use xlink:href="#m99c1c88f5e" x="57.6" y="161.060713" style="stroke: #000000; stroke-width: 0.6"/>
      </g>
     </g>
    </g>
    <g id="ytick_45">
     <g id="line2d_51">
      <g>
       <use xlink:href="#m99c1c88f5e" x="57.6" y="159.298959" style="stroke: #000000; stroke-width: 0.6"/>
      </g>
     </g>
    </g>
    <g id="ytick_46">
     <g id="line2d_52">
      <g>
       <use xlink:href="#m99c1c88f5e" x="57.6" y="147.355178" style="stroke: #000000; stroke-width: 0.6"/>
      </g>
     </g>
    </g>
    <g id="ytick_47">
     <g id="line2d_53">
      <g>
       <use xlink:href="#m99c1c88f5e" x="57.6" y="141.290383" style="stroke: #000000; stroke-width: 0.6"/>
      </g>
     </g>
    </g>
    <g id="ytick_48">
     <g id="line2d_54">
      <g>
       <use xlink:href="#m99c1c88f5e" x="57.6" y="136.987342" style="stroke: #000000; stroke-width: 0.6"/>
      </g>
     </g>
    </g>
    <g id="ytick_49">
     <g id="line2d_55">
      <g>
       <use xlink:href="#m99c1c88f5e" x="57.6" y="133.649644" style="stroke: #000000; stroke-width: 0.6"/>
      </g>
     </g>
    </g>
    <g id="ytick_50">
     <g id="line2d_56">
      <g>
       <use xlink:href="#m99c1c88f5e" x="57.6" y="130.922546" style="stroke: #000000; stroke-width: 0.6"/>
      </g>
     </g>
    </g>
    <g id="ytick_51">
     <g id="line2d_57">
      <g>
       <use xlink:href="#m99c1c88f5e" x="57.6" y="128.616817" style="stroke: #000000; stroke-width: 0.6"/>
      </g>
     </g>
    </g>
    <g id="ytick_52">
     <g id="line2d_58">
      <g>
       <use xlink:href="#m99c1c88f5e" x="57.6" y="126.619505" style="stroke: #000000; stroke-width: 0.6"/>
      </g>
     </g>
    </g>
    <g id="ytick_53">
     <g id="line2d_59">
      <g>
       <use xlink:href="#m99c1c88f5e" x="57.6" y="124.85775" style="stroke: #000000; stroke-width: 0.6"/>
      </g>
     </g>
    </g>
    <g id="ytick_54">
     <g id="line2d_60">
      <g>
       <use xlink:href="#m99c1c88f5e" x="57.6" y="112.91397" style="stroke: #000000; stroke-width: 0.6"/>
      </g>
     </g>
    </g>
    <g id="ytick_55">
     <g id="line2d_61">
      <g>
       <use xlink:href="#m99c1c88f5e" x="57.6" y="106.849174" style="stroke: #000000; stroke-width: 0.6"/>
      </g>
     </g>
    </g>
    <g id="ytick_56">
     <g id="line2d_62">
      <g>
       <use xlink:href="#m99c1c88f5e" x="57.6" y="102.546133" style="stroke: #000000; stroke-width: 0.6"/>
      </g>
     </g>
    </g>
    <g id="ytick_57">
     <g id="line2d_63">
      <g>
       <use xlink:href="#m99c1c88f5e" x="57.6" y="99.208435" style="stroke: #000000; stroke-width: 0.6"/>
      </g>
     </g>
    </g>
    <g id="ytick_58">
     <g id="line2d_64">
      <g>
       <use xlink:href="#m99c1c88f5e" x="57.6" y="96.481337" style="stroke: #000000; stroke-width: 0.6"/>
      </g>
     </g>
    </g>
    <g id="ytick_59">
     <g id="line2d_65">
      <g>
       <use xlink:href="#m99c1c88f5e" x="57.6" y="94.175609" style="stroke: #000000; stroke-width: 0.6"/>
      </g>
     </g>
    </g>
    <g id="ytick_60">
     <g id="line2d_66">
      <g>
       <use xlink:href="#m99c1c88f5e" x="57.6" y="92.178296" style="stroke: #000000; stroke-width: 0.6"/>
      </g>
     </g>
    </g>
    <g id="ytick_61">
     <g id="line2d_67">
      <g>
       <use xlink:href="#m99c1c88f5e" x="57.6" y="90.416541" style="stroke: #000000; stroke-width: 0.6"/>
      </g>
     </g>
    </g>
    <g id="ytick_62">
     <g id="line2d_68">
      <g>
       <use xlink:href="#m99c1c88f5e" x="57.6" y="78.472761" style="stroke: #000000; stroke-width: 0.6"/>
      </g>
     </g>
    </g>
    <g id="ytick_63">
     <g id="line2d_69">
      <g>
       <use xlink:href="#m99c1c88f5e" x="57.6" y="72.407965" style="stroke: #000000; stroke-width: 0.6"/>
      </g>
     </g>
    </g>
    <g id="ytick_64">
     <g id="line2d_70">
      <g>
       <use xlink:href="#m99c1c88f5e" x="57.6" y="68.104924" style="stroke: #000000; stroke-width: 0.6"/>
      </g>
     </g>
    </g>
    <g id="ytick_65">
     <g id="line2d_71">
      <g>
       <use xlink:href="#m99c1c88f5e" x="57.6" y="64.767226" style="stroke: #000000; stroke-width: 0.6"/>
      </g>
     </g>
    </g>
    <g id="ytick_66">
     <g id="line2d_72">
      <g>
       <use xlink:href="#m99c1c88f5e" x="57.6" y="62.040128" style="stroke: #000000; stroke-width: 0.6"/>
      </g>
     </g>
    </g>
    <g id="ytick_67">
     <g id="line2d_73">
      <g>
       <use xlink:href="#m99c1c88f5e" x="57.6" y="59.7344" style="stroke: #000000; stroke-width: 0.6"/>
      </g>
     </g>
    </g>
    <g id="ytick_68">
     <g id="line2d_74">
      <g>
       <use xlink:href="#m99c1c88f5e" x="57.6" y="57.737087" style="stroke: #000000; stroke-width: 0.6"/>
      </g>
     </g>
    </g>
    <g id="ytick_69">
     <g id="line2d_75">
      <g>
       <use xlink:href="#m99c1c88f5e" x="57.6" y="55.975332" style="stroke: #000000; stroke-width: 0.6"/>
      </g>
     </g>
    </g>
    <g id="ytick_70">
     <g id="line2d_76">
      <g>
       <use xlink:href="#m99c1c88f5e" x="57.6" y="44.031552" style="stroke: #000000; stroke-width: 0.6"/>
      </g>
     </g>
    </g>
    <g id="text_16">
     <!-- Estimator variance -->
     <g transform="translate(10.788437 240.661594) rotate(-90) scale(0.14 -0.14)">
      <defs>
       <path id="DejaVuSans-45" d="M 628 4666 
L 3578 4666 
L 3578 4134 
L 1259 4134 
L 1259 2753 
L 3481 2753 
L 3481 2222 
L 1259 2222 
L 1259 531 
L 3634 531 
L 3634 0 
L 628 0 
L 628 4666 
z
" transform="scale(0.015625)"/>
       <path id="DejaVuSans-74" d="M 1172 4494 
L 1172 3500 
L 2356 3500 
L 2356 3053 
L 1172 3053 
L 1172 1153 
Q 1172 725 1289 603 
Q 1406 481 1766 481 
L 2356 481 
L 2356 0 
L 1766 0 
Q 1100 0 847 248 
Q 594 497 594 1153 
L 594 3053 
L 172 3053 
L 172 3500 
L 594 3500 
L 594 4494 
L 1172 4494 
z
" transform="scale(0.015625)"/>
       <path id="DejaVuSans-69" d="M 603 3500 
L 1178 3500 
L 1178 0 
L 603 0 
L 603 3500 
z
M 603 4863 
L 1178 4863 
L 1178 4134 
L 603 4134 
L 603 4863 
z
" transform="scale(0.015625)"/>
       <path id="DejaVuSans-76" d="M 191 3500 
L 800 3500 
L 1894 563 
L 2988 3500 
L 3597 3500 
L 2284 0 
L 1503 0 
L 191 3500 
z
" transform="scale(0.015625)"/>
       <path id="DejaVuSans-6e" d="M 3513 2113 
L 3513 0 
L 2938 0 
L 2938 2094 
Q 2938 2591 2744 2837 
Q 2550 3084 2163 3084 
Q 1697 3084 1428 2787 
Q 1159 2491 1159 1978 
L 1159 0 
L 581 0 
L 581 3500 
L 1159 3500 
L 1159 2956 
Q 1366 3272 1645 3428 
Q 1925 3584 2291 3584 
Q 2894 3584 3203 3211 
Q 3513 2838 3513 2113 
z
" transform="scale(0.015625)"/>
       <path id="DejaVuSans-63" d="M 3122 3366 
L 3122 2828 
Q 2878 2963 2633 3030 
Q 2388 3097 2138 3097 
Q 1578 3097 1268 2742 
Q 959 2388 959 1747 
Q 959 1106 1268 751 
Q 1578 397 2138 397 
Q 2388 397 2633 464 
Q 2878 531 3122 666 
L 3122 134 
Q 2881 22 2623 -34 
Q 2366 -91 2075 -91 
Q 1284 -91 818 406 
Q 353 903 353 1747 
Q 353 2603 823 3093 
Q 1294 3584 2113 3584 
Q 2378 3584 2631 3529 
Q 2884 3475 3122 3366 
z
" transform="scale(0.015625)"/>
      </defs>
      <use xlink:href="#DejaVuSans-45"/>
      <use xlink:href="#DejaVuSans-73" x="63.183594"/>
      <use xlink:href="#DejaVuSans-74" x="115.283203"/>
      <use xlink:href="#DejaVuSans-69" x="154.492188"/>
      <use xlink:href="#DejaVuSans-6d" x="182.275391"/>
      <use xlink:href="#DejaVuSans-61" x="279.6875"/>
      <use xlink:href="#DejaVuSans-74" x="340.966797"/>
      <use xlink:href="#DejaVuSans-6f" x="380.175781"/>
      <use xlink:href="#DejaVuSans-72" x="441.357422"/>
      <use xlink:href="#DejaVuSans-20" x="482.470703"/>
      <use xlink:href="#DejaVuSans-76" x="514.257812"/>
      <use xlink:href="#DejaVuSans-61" x="573.4375"/>
      <use xlink:href="#DejaVuSans-72" x="634.716797"/>
      <use xlink:href="#DejaVuSans-69" x="675.830078"/>
      <use xlink:href="#DejaVuSans-61" x="703.613281"/>
      <use xlink:href="#DejaVuSans-6e" x="764.892578"/>
      <use xlink:href="#DejaVuSans-63" x="828.271484"/>
      <use xlink:href="#DejaVuSans-65" x="883.251953"/>
     </g>
    </g>
   </g>
   <g id="line2d_77">
    <path d="M 73.832727 70.22942 
L 73.835974 53.568 
L 73.868439 95.750349 
L 73.939863 89.63729 
L 74.118423 110.649784 
L 74.12167 103.591408 
L 74.228806 111.604924 
L 74.520995 125.39254 
L 74.702801 128.547356 
L 74.74176 129.590288 
L 74.745007 125.55336 
L 74.852143 128.335416 
L 75.134592 134.164474 
L 75.147578 134.377695 
L 75.683258 142.77604 
L 75.686505 141.417388 
L 75.793641 142.264286 
L 76.25465 146.315959 
L 76.287116 145.978846 
L 76.352047 146.597043 
L 77.215628 152.243166 
L 77.2416 152.175636 
L 77.244847 152.030751 
L 77.342243 152.62452 
L 77.468858 153.489898 
L 77.754554 155.349085 
L 77.761047 155.381855 
L 77.764294 155.155934 
L 77.868183 155.65395 
L 78.189591 157.553879 
L 78.192838 157.49645 
L 78.270755 157.93068 
L 78.277248 157.923992 
L 78.293481 158.044525 
L 78.446068 158.906951 
L 78.523985 159.336579 
L 78.562944 158.982292 
L 78.566191 158.93243 
L 78.640861 159.382723 
L 78.650601 159.345291 
L 78.702545 159.648265 
L 78.780463 157.107914 
L 78.819421 157.351057 
L 78.903831 157.685134 
L 78.923311 157.638446 
L 78.984995 156.970592 
L 79.033693 157.21967 
L 79.202513 157.915473 
L 79.20576 155.996863 
L 79.312896 156.615437 
L 80.062848 159.576126 
L 80.066095 157.927442 
L 80.173231 158.393393 
L 80.419968 159.266637 
L 80.426461 159.229398 
L 80.494639 159.526721 
L 80.501132 159.505473 
L 80.686185 160.154537 
L 80.692678 159.72755 
L 80.796567 160.084835 
L 80.842019 160.221095 
L 80.851759 160.214938 
L 80.871238 160.306642 
L 80.874484 159.273324 
L 80.98162 159.691244 
L 81.137455 160.347628 
L 81.290042 160.800646 
L 81.293289 160.799411 
L 81.325754 160.914659 
L 81.546519 161.694648 
L 81.585478 161.807417 
L 81.741312 162.265748 
L 81.744559 162.169411 
L 81.838708 162.38021 
L 81.848448 162.334394 
L 82.101679 162.873669 
L 82.715276 164.584089 
L 82.744495 164.377841 
L 82.760727 164.195726 
L 82.838644 164.414899 
L 82.854877 164.376952 
L 83.046423 164.97482 
L 83.059409 164.958234 
L 83.062656 164.954942 
L 83.085382 165.079095 
L 83.150313 165.065614 
L 83.22823 165.351877 
L 83.513926 166.096129 
L 83.517172 166.029337 
L 83.614569 166.201912 
L 83.617815 166.19876 
L 83.776896 166.528457 
L 83.780143 166.271192 
L 83.877539 166.591844 
L 83.884032 166.576261 
L 84.033373 166.846449 
L 83.900265 166.56872 
L 84.03662 166.838829 
L 84.039866 166.739867 
L 84.130769 166.960057 
L 84.143756 166.905941 
L 84.322316 167.3066 
L 84.332055 167.17266 
L 84.335302 167.168377 
L 84.371014 167.299807 
L 84.637231 168.063793 
L 84.64697 168.037294 
L 84.653463 167.921628 
L 84.744367 168.13512 
L 84.893708 168.272606 
L 85.094993 168.656459 
L 85.09824 168.632845 
L 85.176157 168.862745 
L 85.335238 169.143666 
L 85.36121 169.081836 
L 85.432634 169.259785 
L 85.435881 169.25949 
L 85.854685 170.228633 
L 85.857932 170.181582 
L 85.99104 170.536252 
L 86.192326 170.978121 
L 86.195572 170.952849 
L 86.270243 171.069556 
L 86.296215 171.034789 
L 86.302708 171.027057 
L 86.309201 171.047844 
L 86.344913 167.207466 
L 86.429324 167.415739 
L 86.510487 167.573385 
L 86.52672 167.567388 
L 86.71502 168.093755 
L 86.932538 168.381951 
L 86.939031 168.35608 
L 86.987729 168.210027 
L 87.05266 168.280551 
L 87.227974 168.517093 
L 87.24096 168.504562 
L 87.247453 168.493528 
L 87.292905 168.602717 
L 87.426013 168.816553 
L 87.461725 168.817679 
L 87.500684 168.89549 
L 87.526656 169.008038 
L 87.529903 168.992282 
L 87.539642 168.047814 
L 87.640285 168.263289 
L 87.653271 168.311371 
L 87.656518 167.597943 
L 87.763654 167.798568 
L 87.896762 167.965669 
L 87.789626 167.727743 
L 87.938967 167.92922 
L 87.961693 167.903151 
L 87.990912 167.996701 
L 88.13376 168.309094 
L 88.338292 168.780504 
L 88.409716 168.020204 
L 88.451921 168.07408 
L 88.455168 168.067846 
L 88.510359 168.17398 
L 88.536332 168.138018 
L 88.724631 168.546671 
L 88.727878 168.4135 
L 88.831767 168.622173 
L 88.877219 168.564414 
L 88.93241 168.669951 
L 89.0363 168.903798 
L 89.088244 168.877726 
L 89.143436 168.445148 
L 89.201873 168.531825 
L 89.247325 168.562538 
L 89.250572 168.228708 
L 89.257065 168.245901 
L 89.65639 168.885254 
L 89.659636 168.879496 
L 89.718074 169.011958 
L 89.873908 169.277073 
L 89.877155 169.118918 
L 89.981044 169.399741 
L 89.997277 169.36294 
L 90.130385 169.561264 
L 90.188823 169.649934 
L 90.386863 170.006375 
L 90.393356 169.997804 
L 90.458287 170.13227 
L 90.493999 170.046096 
L 90.490752 170.202183 
L 90.571916 170.173321 
L 90.747229 170.445984 
L 90.750476 170.443563 
L 90.753722 169.805866 
L 90.860858 170.068863 
L 90.903063 170.14905 
L 90.916049 169.962307 
L 90.967994 170.046073 
L 91.068637 170.203935 
L 91.071884 170.214881 
L 91.08487 170.009117 
L 91.172527 170.167513 
L 91.185513 170.144255 
L 91.43225 170.4399 
L 91.471209 170.456655 
L 91.490688 170.528287 
L 91.506921 170.54292 
L 91.510167 170.501473 
L 91.513414 170.505443 
L 91.578345 169.793812 
L 91.627043 169.957407 
L 91.915985 170.28728 
L 92.101039 170.562372 
L 92.104285 170.548387 
L 92.107532 170.375289 
L 92.214668 170.448582 
L 92.227654 170.440188 
L 92.286092 170.543323 
L 92.289338 169.868175 
L 92.399721 169.969817 
L 92.662691 170.363907 
L 92.665937 169.290302 
L 92.77632 169.402966 
L 93.006825 169.677466 
L 93.032797 169.639632 
L 93.126947 169.799031 
L 93.730804 170.39334 
L 93.811968 170.56468 
L 93.880145 170.495245 
L 93.909364 170.35744 
L 93.990528 170.468094 
L 94.28921 171.071548 
L 94.331415 170.915315 
L 94.399593 171.008372 
L 94.438551 171.065856 
L 94.441798 170.753165 
L 94.448291 170.761431 
L 94.57166 170.905487 
L 94.854109 171.333411 
L 94.867095 171.326042 
L 94.91904 171.423097 
L 95.159284 171.691093 
L 95.354077 172.040686 
L 95.36057 172.031015 
L 95.363817 172.028193 
L 95.406022 172.137972 
L 95.412515 172.131181 
L 95.500172 172.236852 
L 95.574842 171.974551 
L 95.610554 172.053139 
L 95.779375 172.25865 
L 95.782621 172.257099 
L 95.873524 172.363671 
L 95.938455 172.413425 
L 96.039098 171.349436 
L 96.052084 171.354062 
L 96.110522 171.464363 
L 96.117015 171.255362 
L 96.139741 171.290953 
L 96.211165 170.970982 
L 96.15922 171.297409 
L 96.295575 171.052831 
L 96.448163 171.171888 
L 96.344273 171.022598 
L 96.451409 171.165455 
L 96.79879 171.529705 
L 96.815023 171.309782 
L 96.912419 171.47496 
L 96.996829 171.588843 
L 97.32473 171.934597 
L 97.039034 171.5427 
L 97.331223 171.907572 
L 97.337716 171.867627 
L 97.42862 172.025245 
L 97.435113 171.979064 
L 97.60718 172.13573 
L 98.412323 172.890248 
L 98.425309 172.874593 
L 98.431802 172.583887 
L 98.538938 172.641463 
L 98.749964 172.883963 
L 98.805155 172.9668 
L 98.954496 173.141295 
L 99.29863 173.408284 
L 99.305123 173.316806 
L 99.405766 173.465447 
L 100.035596 174.155617 
L 100.038842 174.150937 
L 100.123252 174.220402 
L 100.045335 174.148575 
L 100.158964 174.187001 
L 100.46414 174.571731 
L 100.467386 173.846002 
L 100.577769 173.90881 
L 100.876451 174.222913 
L 100.879697 174.165 
L 100.951121 173.983567 
L 100.931642 174.219214 
L 101.042025 174.076688 
L 101.149161 174.132593 
L 101.152407 174.083577 
L 101.1589 173.865011 
L 101.26279 173.960644 
L 101.402391 174.108607 
L 101.567965 174.360195 
L 101.571212 174.339776 
L 101.665361 174.451505 
L 101.944564 174.742387 
L 101.947811 174.702894 
L 101.951057 174.310692 
L 102.058193 174.426746 
L 102.337396 174.838313 
L 102.363369 174.812321 
L 102.379601 174.697929 
L 102.535436 174.792069 
L 102.610106 174.845563 
L 102.548422 174.809118 
L 102.619846 174.861523 
L 102.902295 175.199743 
L 103.077609 175.365171 
L 103.149033 175.401229 
L 103.087348 175.33126 
L 103.191238 175.383029 
L 103.210717 175.429756 
L 103.223703 175.257472 
L 103.239936 175.279443 
L 103.350319 175.245103 
L 103.330839 175.32821 
L 103.356812 175.252514 
L 103.850287 175.497578 
L 103.85678 175.462575 
L 104.022353 175.646515 
L 104.041833 175.58246 
L 104.126243 175.695769 
L 104.129489 175.694272 
L 104.262598 175.848067 
L 104.269091 175.551118 
L 104.37298 175.677769 
L 104.424925 175.751691 
L 104.428172 175.435205 
L 104.535308 175.541963 
L 104.710621 175.679391 
L 104.795031 175.715535 
L 104.798278 175.316817 
L 104.905414 175.400969 
L 105.032029 175.55537 
L 105.048262 175.54653 
L 105.132672 175.630316 
L 105.174877 175.674584 
L 105.249548 175.630293 
L 105.395642 175.638328 
L 105.408628 175.492313 
L 105.506025 175.582034 
L 105.6229 175.556774 
L 105.648873 175.583837 
L 105.827433 175.680759 
L 105.830679 175.598423 
L 105.931322 175.760783 
L 105.934569 175.749755 
L 106.161827 175.938578 
L 106.298182 176.013552 
L 106.538426 176.214367 
L 106.684521 176.391793 
L 106.687767 176.239241 
L 106.794903 176.339592 
L 106.863081 176.384791 
L 106.876067 176.290214 
L 106.911779 176.32344 
L 107.359802 176.65845 
L 107.363049 162.401317 
L 107.473431 162.513115 
L 109.450577 163.908474 
L 109.486289 163.800086 
L 109.593425 163.883959 
L 110.521937 164.442395 
L 110.564143 164.390797 
L 110.664785 164.478191 
L 110.681018 164.317702 
L 110.781661 164.428093 
L 111.002426 164.609248 
L 111.005673 164.405607 
L 111.112809 164.492656 
L 113.706799 166.381127 
L 113.710045 166.358405 
L 113.807441 166.440147 
L 114.508695 167.020962 
L 114.511942 167.01361 
L 114.602845 167.070422 
L 114.606092 167.071555 
L 114.959965 167.296663 
L 115.258647 167.508254 
L 115.261894 167.38542 
L 115.36903 167.444346 
L 115.375523 167.436489 
L 116.067037 167.965972 
L 116.206639 168.03794 
L 117.687063 169.021384 
L 117.69031 168.771526 
L 117.797446 168.842911 
L 120.290793 170.399466 
L 120.294039 170.305236 
L 120.401175 170.393191 
L 121.362153 171.048324 
L 121.375139 171.036584 
L 121.459549 171.096571 
L 122.534156 171.522088 
L 122.602333 171.563749 
L 122.60558 171.442633 
L 122.618566 171.451717 
L 122.732195 171.514225 
L 123.150999 171.68264 
L 123.258135 171.744534 
L 124.043799 172.155524 
L 124.173661 172.240778 
L 124.647657 172.513485 
L 124.780765 172.606071 
L 124.800244 172.598038 
L 124.871668 172.671881 
L 124.91712 172.616263 
L 125.021009 172.667333 
L 125.030749 172.618856 
L 125.128145 172.692515 
L 125.248268 172.74327 
L 125.787194 173.022177 
L 126.007959 173.150377 
L 126.011206 173.138519 
L 126.098863 173.205689 
L 126.105356 173.202917 
L 126.394298 173.370865 
L 126.540393 173.468841 
L 126.728692 173.580152 
L 126.731939 173.480641 
L 126.839075 173.564169 
L 128.825961 174.801358 
L 128.897385 174.845965 
L 128.900631 174.884093 
L 129.316189 175.102741 
L 129.410339 170.809561 
L 129.429818 170.820892 
L 129.46553 170.76376 
L 129.543447 170.808255 
L 131.007639 171.47963 
L 131.010886 171.447548 
L 131.114775 171.514695 
L 131.605004 171.756102 
L 131.60825 171.717934 
L 131.637469 171.641323 
L 131.721879 171.692984 
L 131.932905 171.810882 
L 132.341969 172.023538 
L 132.358202 172.005407 
L 132.436119 172.063451 
L 132.445859 172.063385 
L 132.77376 172.245093 
L 133.039977 172.281214 
L 133.043223 172.252201 
L 133.13088 172.310619 
L 133.147113 172.311351 
L 133.468521 172.484738 
L 133.604876 172.551211 
L 133.971735 172.755738 
L 133.974982 172.667279 
L 134.082118 172.716204 
L 134.770385 173.043131 
L 134.773632 172.942482 
L 134.880768 173.000178 
L 135.117766 173.081666 
L 135.124259 173.070619 
L 135.221655 173.120876 
L 135.565789 173.268971 
L 136.195619 173.502608 
L 136.452096 173.653019 
L 136.789737 173.797963 
L 136.867654 173.852854 
L 136.877393 173.864076 
L 137.348143 174.030722 
L 137.611113 174.131815 
L 137.776687 174.241255 
L 138.273408 174.457393 
L 138.718185 174.691478 
L 138.857786 174.730447 
L 141.117382 175.680013 
L 141.214778 175.739961 
L 141.471255 175.870599 
L 141.477748 175.774417 
L 141.679034 175.825172 
L 142.717929 176.152231 
L 142.721175 175.741567 
L 142.831558 175.787264 
L 143.026351 175.862852 
L 143.04583 175.839417 
L 143.133487 175.887165 
L 143.260102 175.935758 
L 143.415936 175.942564 
L 143.714618 175.893678 
L 143.997068 175.96071 
L 144.091217 175.977169 
L 144.097711 175.74468 
L 144.204847 175.788371 
L 144.630144 175.996212 
L 144.72754 176.041118 
L 144.730787 176.044395 
L 144.909347 176.118032 
L 145.581382 176.374554 
L 145.746956 176.391684 
L 146.282636 176.545308 
L 147.827991 177.226235 
L 147.915648 177.27726 
L 147.922141 177.283431 
L 148.30848 177.45105 
L 148.461068 177.456523 
L 148.659107 177.544553 
L 148.717545 176.454003 
L 148.772736 176.478033 
L 148.944803 176.552401 
L 149.266211 176.668553 
L 149.431785 176.692533 
L 150.577815 177.173639 
L 150.581062 176.651335 
L 150.691444 176.698715 
L 150.89273 176.812932 
L 150.895977 176.699218 
L 151.003113 176.730415 
L 151.279069 176.834383 
L 151.288809 176.673266 
L 151.389452 176.718365 
L 151.769297 176.878753 
L 151.944611 176.947331 
L 153.905524 177.532762 
L 154.632751 177.855931 
L 154.635997 177.848274 
L 154.658723 177.81685 
L 154.74638 177.835128 
L 155.249594 177.938966 
L 155.353484 177.979211 
L 155.476852 178.014824 
L 155.509318 177.962305 
L 155.950848 178.090958 
L 156.402118 178.269366 
L 156.730019 178.394846 
L 156.772224 178.387152 
L 156.775471 178.250484 
L 156.882607 178.294159 
L 157.171549 178.321099 
L 157.281932 178.351484 
L 158.973382 178.657916 
L 158.976628 178.446479 
L 159.087011 178.49239 
L 159.093504 178.467486 
L 159.181161 178.512269 
L 159.194147 178.51046 
L 159.382447 178.55509 
L 159.476596 178.586367 
L 159.479843 178.464386 
L 159.586979 178.535123 
L 159.911633 178.621541 
L 163.398423 179.751767 
L 163.882159 179.871533 
L 164.086691 179.941178 
L 166.245644 180.607553 
L 166.524847 180.704586 
L 166.661201 180.758545 
L 166.862487 180.845711 
L 166.940404 180.806928 
L 166.97287 180.826266 
L 167.167663 180.878291 
L 167.489071 180.947283 
L 167.638412 180.983231 
L 167.674124 180.999767 
L 167.67737 180.402828 
L 167.787753 180.452151 
L 168.57017 180.696403 
L 168.573417 180.586017 
L 168.680553 180.636153 
L 169.083124 180.725192 
L 169.274671 180.781688 
L 169.544134 180.876296 
L 169.972678 180.978482 
L 170.35577 181.086455 
L 170.394729 181.065046 
L 170.462906 181.100289 
L 170.647959 181.160575 
L 171.43687 181.394658 
L 172.04722 181.574139 
L 173.238703 181.796867 
L 173.352332 181.84819 
L 173.355578 181.845234 
L 173.362071 181.829769 
L 173.664 181.880118 
L 173.803601 181.932773 
L 173.806848 181.945097 
L 173.965929 181.974982 
L 173.969175 181.963178 
L 174.602252 182.12536 
L 174.605498 182.109571 
L 174.680169 182.146178 
L 174.709388 182.149732 
L 174.952879 182.227589 
L 175.4496 182.303938 
L 175.751529 182.381526 
L 175.972294 182.434683 
L 177.167023 182.710624 
L 177.300131 182.762705 
L 178.410449 183.04153 
L 178.696145 183.164554 
L 178.93639 183.238913 
L 179.183127 183.27646 
L 179.186374 183.268739 
L 179.329222 183.304437 
L 179.731793 183.390204 
L 180.319418 183.532045 
L 180.338897 183.466472 
L 180.429801 183.510659 
L 180.605114 183.523198 
L 180.725236 183.546715 
L 182.053073 183.911295 
L 182.05632 183.525213 
L 182.166703 183.55463 
L 182.452399 183.584489 
L 186.893673 184.36224 
L 186.900166 184.303448 
L 187.004055 184.340361 
L 189.192227 184.700927 
L 189.286377 184.223073 
L 189.305856 184.226109 
L 189.513635 184.241144 
L 189.611031 184.19836 
L 189.627264 184.203572 
L 190.237615 184.350776 
L 190.253847 184.328216 
L 190.344751 184.367253 
L 190.6272 184.428127 
L 190.656419 184.299803 
L 190.737583 184.338085 
L 190.880431 184.377579 
L 191.347933 184.471295 
L 191.390138 184.464846 
L 191.455069 184.49669 
L 191.993996 184.641152 
L 192.14983 184.700846 
L 192.286185 184.730588 
L 192.766673 184.888357 
L 192.831604 184.835215 
L 192.880303 184.852182 
L 194.574999 185.226641 
L 194.811997 185.268667 
L 194.815244 185.263907 
L 195.321705 185.363408 
L 195.441827 185.393211 
L 196.496954 185.779694 
L 196.526173 183.07426 
L 196.610583 183.102634 
L 196.850828 183.160755 
L 196.857321 183.142631 
L 196.96121 183.169294 
L 197.493644 183.32812 
L 197.672204 183.351803 
L 197.67545 183.331793 
L 197.782586 183.36271 
L 198.087761 183.431976 
L 198.091008 183.391668 
L 198.198144 183.419578 
L 200.422028 183.876493 
L 200.483712 183.852424 
L 200.538903 183.874581 
L 200.947968 183.91303 
L 201.165487 183.935088 
L 201.5291 183.904142 
L 201.616756 183.915126 
L 201.636236 183.924673 
L 202.451119 184.080658 
L 202.467351 183.976653 
L 202.561501 184.020943 
L 203.016017 184.086383 
L 203.019264 184.054149 
L 203.1264 184.088271 
L 203.759476 184.214577 
L 203.892585 184.153879 
L 204.061405 184.202335 
L 204.382813 184.278245 
L 204.749673 184.370433 
L 204.924986 184.420217 
L 205.18471 184.495329 
L 205.606761 184.583851 
L 205.713897 184.594995 
L 205.717143 184.596398 
L 206.061277 184.613786 
L 206.259316 184.667034 
L 206.470342 184.702988 
L 206.480081 184.682594 
L 206.580724 184.713218 
L 207.557935 184.942054 
L 207.652084 184.96103 
L 207.665071 184.972363 
L 208.048163 185.067412 
L 209.304576 185.293494 
L 209.346781 184.998551 
L 209.418205 185.028999 
L 216.294388 186.077042 
L 216.385292 183.630107 
L 216.408017 183.635455 
L 216.632029 183.698533 
L 217.378735 183.861247 
L 217.492364 183.838906 
L 218.161152 184.010212 
L 218.271535 184.030077 
L 218.83968 184.16983 
L 219.050705 184.222508 
L 219.635084 184.296554 
L 220.125312 184.38306 
L 220.242188 184.369077 
L 220.245434 184.371658 
L 220.251927 184.319695 
L 220.375296 184.324088 
L 220.566842 184.378864 
L 220.576582 184.234929 
L 220.680471 184.268513 
L 223.404323 184.847444 
L 223.407569 184.118762 
L 223.517952 184.153548 
L 223.865332 184.169234 
L 224.569833 184.238381 
L 224.683462 184.249456 
L 225.725603 184.368994 
L 227.816378 184.716584 
L 228.095581 184.795836 
L 228.192977 184.826568 
L 228.222196 184.74292 
L 230.215575 184.918363 
L 230.218822 184.889435 
L 230.325958 184.915489 
L 231.488221 185.177132 
L 231.796643 185.225281 
L 232.803072 185.438433 
L 233.647174 185.624557 
L 234.023773 185.694593 
L 234.221812 185.720363 
L 234.445824 185.703888 
L 234.682822 185.745835 
L 235.705484 185.911812 
L 236.637242 186.075605 
L 236.832035 186.094885 
L 237.611206 186.218914 
L 238.146886 186.291117 
L 238.29298 186.295164 
L 238.679319 186.398952 
L 239.695488 186.567512 
L 239.831843 186.582286 
L 240.705164 186.733788 
L 240.714903 186.705425 
L 240.864244 186.738329 
L 240.912943 186.649993 
L 240.984367 186.663566 
L 242.912815 186.959837 
L 242.925801 186.784681 
L 243.026444 186.80173 
L 243.211497 186.849086 
L 243.82834 186.994334 
L 243.980928 187.020527 
L 245.052288 187.156473 
L 245.448367 187.156879 
L 246.068457 187.209147 
L 246.191825 186.689025 
L 246.195072 186.693445 
L 246.597644 186.795489 
L 246.620369 186.775706 
L 246.740492 186.813609 
L 247.074886 186.873834 
L 247.539142 186.944626 
L 247.545635 186.597515 
L 247.652771 186.620546 
L 248.516352 186.758699 
L 248.74361 186.781092 
L 251.688227 187.086125 
L 251.866787 187.131255 
L 251.870033 186.741418 
L 251.980416 186.761893 
L 253.068009 186.915087 
L 253.1232 186.612357 
L 253.181638 186.625039 
L 253.317993 186.661464 
L 254.564666 186.812128 
L 254.64583 186.806633 
L 254.675049 186.825119 
L 254.795171 186.852255 
L 255.324358 186.946511 
L 255.661999 186.988812 
L 256.450909 187.094129 
L 257.038534 187.187584 
L 257.538502 187.282575 
L 257.707322 187.31783 
L 260.223395 187.723555 
L 260.239628 187.707786 
L 260.333777 187.732446 
L 265.609414 188.306403 
L 265.719796 187.049188 
L 265.723043 187.04984 
L 270.88505 187.749219 
L 271.047377 187.789559 
L 271.203212 187.815446 
L 271.206458 187.773302 
L 271.690193 187.80854 
L 271.920698 187.826247 
L 271.923945 187.671562 
L 272.034327 187.704204 
L 272.485597 187.769817 
L 272.992058 187.811295 
L 273.800448 187.950058 
L 276.25159 188.23826 
L 276.319767 188.248185 
L 276.358726 188.263335 
L 276.758051 188.32014 
L 276.95609 188.333034 
L 277.170362 188.369316 
L 277.589167 188.43578 
L 277.76448 188.418671 
L 278.316393 188.510263 
L 278.319639 188.264666 
L 278.430022 188.29619 
L 286.140567 189.019952 
L 286.208745 188.953849 
L 286.254196 188.961627 
L 287.556061 189.12369 
L 287.819031 189.093461 
L 288.491066 189.235246 
L 289.81241 189.386168 
L 290.114339 189.444906 
L 290.997399 189.450473 
L 291.000646 189.403508 
L 291.107782 189.418792 
L 292.205114 189.612204 
L 292.367441 189.656815 
L 292.961559 189.739517 
L 293.425815 189.827316 
L 293.776442 189.89989 
L 295.016623 190.119595 
L 295.123759 190.11051 
L 295.130252 190.112643 
L 295.331537 190.134691 
L 295.795793 190.178487 
L 296.019805 190.177887 
L 296.337967 190.187596 
L 300.746775 190.295264 
L 301.837615 190.417052 
L 301.95449 190.454565 
L 304.006307 190.700075 
L 304.119936 190.56799 
L 304.490042 190.610689 
L 305.298432 190.721585 
L 305.360116 190.718824 
L 305.408815 190.741491 
L 305.782167 190.750018 
L 305.785414 190.344458 
L 305.895796 190.362891 
L 308.38265 190.622987 
L 308.39239 190.580826 
L 308.493033 190.596237 
L 308.811194 190.613431 
L 308.814441 161.473097 
L 308.924823 161.48786 
L 352.363601 166.198145 
L 352.366848 166.120232 
L 352.477231 166.133323 
L 355.821172 166.477988 
L 358.311273 166.735619 
L 364.859555 167.447994 
L 364.862801 167.392476 
L 364.973184 167.404742 
L 367.22304 167.651528 
L 367.684049 167.666032 
L 370.541009 167.982197 
L 381.728605 169.077274 
L 381.731852 168.763284 
L 381.842234 168.771579 
L 382.786979 168.827461 
L 382.790225 168.706272 
L 382.900608 168.719839 
L 386.095209 169.039147 
L 386.981516 169.101286 
L 394.662842 169.798288 
L 394.919319 169.823716 
L 397.893155 170.106895 
L 398.487273 170.152682 
L 398.487273 170.152682 
" clip-path="url(#p32b1c43b5b)" style="fill: none; stroke: #1f77b4; stroke-width: 1.5; stroke-linecap: square"/>
   </g>
   <g id="line2d_78">
    <path d="M 73.832727 123.281807 
L 73.959343 178.458689 
L 74.212573 194.639927 
L 74.582679 204.752072 
L 75.069661 212.21119 
L 75.673519 218.144893 
L 76.394252 223.079586 
L 77.23186 227.3067 
L 78.189591 231.016526 
L 79.273937 234.338623 
L 80.488145 237.349907 
L 81.841955 240.118274 
L 83.348352 242.695125 
L 85.020323 245.11556 
L 86.877347 247.411987 
L 88.938903 249.606181 
L 91.230964 251.71875 
L 93.782749 253.765514 
L 96.626723 255.758567 
L 99.801844 257.708944 
L 103.353565 259.626112 
L 107.330583 261.516338 
L 111.78809 263.384814 
L 116.78777 265.235571 
L 122.404294 267.073497 
L 128.715578 268.900645 
L 135.812527 270.719504 
L 143.795782 272.531663 
L 152.778973 274.338463 
L 162.888716 276.140759 
L 174.271104 277.939787 
L 187.088465 279.736204 
L 201.525853 281.530794 
L 217.787799 283.323742 
L 236.104809 285.115226 
L 256.743098 286.905947 
L 279.994857 288.695846 
L 306.191232 290.485029 
L 335.708823 292.273788 
L 368.966435 294.062057 
L 398.487273 295.488 
L 398.487273 295.488 
" clip-path="url(#p32b1c43b5b)" style="fill: none; stroke: #ff7f0e; stroke-width: 1.5; stroke-linecap: square"/>
   </g>
   <g id="patch_3">
    <path d="M 57.6 307.584 
L 57.6 41.472 
" style="fill: none; stroke: #000000; stroke-width: 0.8; stroke-linejoin: miter; stroke-linecap: square"/>
   </g>
   <g id="patch_4">
    <path d="M 414.72 307.584 
L 414.72 41.472 
" style="fill: none; stroke: #000000; stroke-width: 0.8; stroke-linejoin: miter; stroke-linecap: square"/>
   </g>
   <g id="patch_5">
    <path d="M 57.6 307.584 
L 414.72 307.584 
" style="fill: none; stroke: #000000; stroke-width: 0.8; stroke-linejoin: miter; stroke-linecap: square"/>
   </g>
   <g id="patch_6">
    <path d="M 57.6 41.472 
L 414.72 41.472 
" style="fill: none; stroke: #000000; stroke-width: 0.8; stroke-linejoin: miter; stroke-linecap: square"/>
   </g>
   <g id="legend_1">
    <g id="patch_7">
     <path d="M 235.6075 93.77075 
L 404.92 93.77075 
Q 407.72 93.77075 407.72 90.97075 
L 407.72 51.272 
Q 407.72 48.472 404.92 48.472 
L 235.6075 48.472 
Q 232.8075 48.472 232.8075 51.272 
L 232.8075 90.97075 
Q 232.8075 93.77075 235.6075 93.77075 
z
" style="fill: #ffffff; opacity: 0.8; stroke: #cccccc; stroke-linejoin: miter"/>
    </g>
    <g id="line2d_79">
     <path d="M 238.4075 59.809812 
L 252.4075 59.809812 
L 266.4075 59.809812 
" style="fill: none; stroke: #1f77b4; stroke-width: 1.5; stroke-linecap: square"/>
    </g>
    <g id="text_17">
     <!-- Sample variances -->
     <g transform="translate(277.6075 64.709812) scale(0.14 -0.14)">
      <defs>
       <path id="DejaVuSans-53" d="M 3425 4513 
L 3425 3897 
Q 3066 4069 2747 4153 
Q 2428 4238 2131 4238 
Q 1616 4238 1336 4038 
Q 1056 3838 1056 3469 
Q 1056 3159 1242 3001 
Q 1428 2844 1947 2747 
L 2328 2669 
Q 3034 2534 3370 2195 
Q 3706 1856 3706 1288 
Q 3706 609 3251 259 
Q 2797 -91 1919 -91 
Q 1588 -91 1214 -16 
Q 841 59 441 206 
L 441 856 
Q 825 641 1194 531 
Q 1563 422 1919 422 
Q 2459 422 2753 634 
Q 3047 847 3047 1241 
Q 3047 1584 2836 1778 
Q 2625 1972 2144 2069 
L 1759 2144 
Q 1053 2284 737 2584 
Q 422 2884 422 3419 
Q 422 4038 858 4394 
Q 1294 4750 2059 4750 
Q 2388 4750 2728 4690 
Q 3069 4631 3425 4513 
z
" transform="scale(0.015625)"/>
      </defs>
      <use xlink:href="#DejaVuSans-53"/>
      <use xlink:href="#DejaVuSans-61" x="63.476562"/>
      <use xlink:href="#DejaVuSans-6d" x="124.755859"/>
      <use xlink:href="#DejaVuSans-70" x="222.167969"/>
      <use xlink:href="#DejaVuSans-6c" x="285.644531"/>
      <use xlink:href="#DejaVuSans-65" x="313.427734"/>
      <use xlink:href="#DejaVuSans-20" x="374.951172"/>
      <use xlink:href="#DejaVuSans-76" x="406.738281"/>
      <use xlink:href="#DejaVuSans-61" x="465.917969"/>
      <use xlink:href="#DejaVuSans-72" x="527.197266"/>
      <use xlink:href="#DejaVuSans-69" x="568.310547"/>
      <use xlink:href="#DejaVuSans-61" x="596.09375"/>
      <use xlink:href="#DejaVuSans-6e" x="657.373047"/>
      <use xlink:href="#DejaVuSans-63" x="720.751953"/>
      <use xlink:href="#DejaVuSans-65" x="775.732422"/>
      <use xlink:href="#DejaVuSans-73" x="837.255859"/>
     </g>
    </g>
    <g id="line2d_80">
     <path d="M 238.4075 80.359187 
L 252.4075 80.359187 
L 266.4075 80.359187 
" style="fill: none; stroke: #ff7f0e; stroke-width: 1.5; stroke-linecap: square"/>
    </g>
    <g id="text_18">
     <!-- $1/n$ -->
     <g transform="translate(277.6075 85.259187) scale(0.14 -0.14)">
      <defs>
       <path id="DejaVuSans-2f" d="M 1625 4666 
L 2156 4666 
L 531 -594 
L 0 -594 
L 1625 4666 
z
" transform="scale(0.015625)"/>
       <path id="DejaVuSans-Oblique-6e" d="M 3566 2113 
L 3156 0 
L 2578 0 
L 2988 2091 
Q 3016 2238 3031 2350 
Q 3047 2463 3047 2528 
Q 3047 2791 2881 2937 
Q 2716 3084 2419 3084 
Q 1956 3084 1622 2776 
Q 1288 2469 1184 1941 
L 800 0 
L 225 0 
L 903 3500 
L 1478 3500 
L 1363 2950 
Q 1603 3253 1940 3418 
Q 2278 3584 2650 3584 
Q 3113 3584 3367 3334 
Q 3622 3084 3622 2631 
Q 3622 2519 3608 2391 
Q 3594 2263 3566 2113 
z
" transform="scale(0.015625)"/>
      </defs>
      <use xlink:href="#DejaVuSans-31" transform="translate(0 0.09375)"/>
      <use xlink:href="#DejaVuSans-2f" transform="translate(63.623047 0.09375)"/>
      <use xlink:href="#DejaVuSans-Oblique-6e" transform="translate(97.314453 0.09375)"/>
     </g>
    </g>
   </g>
  </g>
 </g>
 <defs>
  <clipPath id="p32b1c43b5b">
   <rect x="57.6" y="41.472" width="357.12" height="266.112"/>
  </clipPath>
 </defs>
</svg>
