<?xml version="1.0" encoding="utf-8" standalone="no"?>
<!DOCTYPE svg PUBLIC "-//W3C//DTD SVG 1.1//EN"
  "http://www.w3.org/Graphics/SVG/1.1/DTD/svg11.dtd">
<svg xmlns:xlink="http://www.w3.org/1999/xlink" width="720pt" height="360pt" viewBox="0 0 720 360" xmlns="http://www.w3.org/2000/svg" version="1.1">
 <metadata>
  <rdf:RDF xmlns:dc="http://purl.org/dc/elements/1.1/" xmlns:cc="http://creativecommons.org/ns#" xmlns:rdf="http://www.w3.org/1999/02/22-rdf-syntax-ns#">
   <cc:Work>
    <dc:type rdf:resource="http://purl.org/dc/dcmitype/StillImage"/>
    <dc:date>2024-02-14T00:23:30.300540</dc:date>
    <dc:format>image/svg+xml</dc:format>
    <dc:creator>
     <cc:Agent>
      <dc:title>Matplotlib v3.8.2, https://matplotlib.org/</dc:title>
     </cc:Agent>
    </dc:creator>
   </cc:Work>
  </rdf:RDF>
 </metadata>
 <defs>
  <style type="text/css">*{stroke-linejoin: round; stroke-linecap: butt}</style>
 </defs>
 <g id="figure_1">
  <g id="patch_1">
   <path d="M 0 360 
L 720 360 
L 720 0 
L 0 0 
z
" style="fill: #ffffff"/>
  </g>
  <g id="axes_1">
   <g id="patch_2">
    <path d="M 90 320.4 
L 648 320.4 
L 648 43.2 
L 90 43.2 
z
" style="fill: #ffffff"/>
   </g>
   <g id="patch_3">
    <path d="M 115.363636 320.4 
L 140.727273 320.4 
L 140.727273 291.255257 
L 115.363636 291.255257 
z
" clip-path="url(#p1441f934bc)" style="fill: #1f77b4; opacity: 0.5"/>
   </g>
   <g id="patch_4">
    <path d="M 140.727273 320.4 
L 166.090909 320.4 
L 166.090909 314.778171 
L 140.727273 314.778171 
z
" clip-path="url(#p1441f934bc)" style="fill: #1f77b4; opacity: 0.5"/>
   </g>
   <g id="patch_5">
    <path d="M 166.090909 320.4 
L 191.454545 320.4 
L 191.454545 319.142486 
L 166.090909 319.142486 
z
" clip-path="url(#p1441f934bc)" style="fill: #1f77b4; opacity: 0.5"/>
   </g>
   <g id="patch_6">
    <path d="M 191.454545 320.4 
L 216.818182 320.4 
L 216.818182 319.8822 
L 191.454545 319.8822 
z
" clip-path="url(#p1441f934bc)" style="fill: #1f77b4; opacity: 0.5"/>
   </g>
   <g id="patch_7">
    <path d="M 216.818182 320.4 
L 242.181818 320.4 
L 242.181818 320.178086 
L 216.818182 320.178086 
z
" clip-path="url(#p1441f934bc)" style="fill: #1f77b4; opacity: 0.5"/>
   </g>
   <g id="patch_8">
    <path d="M 242.181818 320.4 
L 267.545455 320.4 
L 267.545455 320.4 
L 242.181818 320.4 
z
" clip-path="url(#p1441f934bc)" style="fill: #1f77b4; opacity: 0.5"/>
   </g>
   <g id="patch_9">
    <path d="M 267.545455 320.4 
L 292.909091 320.4 
L 292.909091 320.326029 
L 267.545455 320.326029 
z
" clip-path="url(#p1441f934bc)" style="fill: #1f77b4; opacity: 0.5"/>
   </g>
   <g id="patch_10">
    <path d="M 292.909091 320.4 
L 318.272727 320.4 
L 318.272727 320.4 
L 292.909091 320.4 
z
" clip-path="url(#p1441f934bc)" style="fill: #1f77b4; opacity: 0.5"/>
   </g>
   <g id="patch_11">
    <path d="M 318.272727 320.4 
L 343.636364 320.4 
L 343.636364 320.4 
L 318.272727 320.4 
z
" clip-path="url(#p1441f934bc)" style="fill: #1f77b4; opacity: 0.5"/>
   </g>
   <g id="patch_12">
    <path d="M 343.636364 320.4 
L 369 320.4 
L 369 320.4 
L 343.636364 320.4 
z
" clip-path="url(#p1441f934bc)" style="fill: #1f77b4; opacity: 0.5"/>
   </g>
   <g id="patch_13">
    <path d="M 369 320.4 
L 394.363636 320.4 
L 394.363636 320.4 
L 369 320.4 
z
" clip-path="url(#p1441f934bc)" style="fill: #1f77b4; opacity: 0.5"/>
   </g>
   <g id="patch_14">
    <path d="M 394.363636 320.4 
L 419.727273 320.4 
L 419.727273 320.4 
L 394.363636 320.4 
z
" clip-path="url(#p1441f934bc)" style="fill: #1f77b4; opacity: 0.5"/>
   </g>
   <g id="patch_15">
    <path d="M 419.727273 320.4 
L 445.090909 320.4 
L 445.090909 320.4 
L 419.727273 320.4 
z
" clip-path="url(#p1441f934bc)" style="fill: #1f77b4; opacity: 0.5"/>
   </g>
   <g id="patch_16">
    <path d="M 445.090909 320.4 
L 470.454545 320.4 
L 470.454545 320.4 
L 445.090909 320.4 
z
" clip-path="url(#p1441f934bc)" style="fill: #1f77b4; opacity: 0.5"/>
   </g>
   <g id="patch_17">
    <path d="M 470.454545 320.4 
L 495.818182 320.4 
L 495.818182 320.326029 
L 470.454545 320.326029 
z
" clip-path="url(#p1441f934bc)" style="fill: #1f77b4; opacity: 0.5"/>
   </g>
   <g id="patch_18">
    <path d="M 495.818182 320.4 
L 521.181818 320.4 
L 521.181818 320.4 
L 495.818182 320.4 
z
" clip-path="url(#p1441f934bc)" style="fill: #1f77b4; opacity: 0.5"/>
   </g>
   <g id="patch_19">
    <path d="M 521.181818 320.4 
L 546.545455 320.4 
L 546.545455 320.4 
L 521.181818 320.4 
z
" clip-path="url(#p1441f934bc)" style="fill: #1f77b4; opacity: 0.5"/>
   </g>
   <g id="patch_20">
    <path d="M 546.545455 320.4 
L 571.909091 320.4 
L 571.909091 320.4 
L 546.545455 320.4 
z
" clip-path="url(#p1441f934bc)" style="fill: #1f77b4; opacity: 0.5"/>
   </g>
   <g id="patch_21">
    <path d="M 571.909091 320.4 
L 597.272727 320.4 
L 597.272727 320.4 
L 571.909091 320.4 
z
" clip-path="url(#p1441f934bc)" style="fill: #1f77b4; opacity: 0.5"/>
   </g>
   <g id="patch_22">
    <path d="M 597.272727 320.4 
L 622.636364 320.4 
L 622.636364 320.326029 
L 597.272727 320.326029 
z
" clip-path="url(#p1441f934bc)" style="fill: #1f77b4; opacity: 0.5"/>
   </g>
   <g id="patch_23">
    <path d="M 121.111989 320.4 
L 136.427619 320.4 
L 136.427619 277.402046 
L 121.111989 277.402046 
z
" clip-path="url(#p1441f934bc)" style="fill: #ff7f0e; opacity: 0.5"/>
   </g>
   <g id="patch_24">
    <path d="M 136.427619 320.4 
L 151.743249 320.4 
L 151.743249 306.18985 
L 136.427619 306.18985 
z
" clip-path="url(#p1441f934bc)" style="fill: #ff7f0e; opacity: 0.5"/>
   </g>
   <g id="patch_25">
    <path d="M 151.743249 320.4 
L 167.058878 320.4 
L 167.058878 317.827473 
L 151.743249 317.827473 
z
" clip-path="url(#p1441f934bc)" style="fill: #ff7f0e; opacity: 0.5"/>
   </g>
   <g id="patch_26">
    <path d="M 167.058878 320.4 
L 182.374508 320.4 
L 182.374508 319.664992 
L 167.058878 319.664992 
z
" clip-path="url(#p1441f934bc)" style="fill: #ff7f0e; opacity: 0.5"/>
   </g>
   <g id="patch_27">
    <path d="M 182.374508 320.4 
L 197.690137 320.4 
L 197.690137 320.154997 
L 182.374508 320.154997 
z
" clip-path="url(#p1441f934bc)" style="fill: #ff7f0e; opacity: 0.5"/>
   </g>
   <g id="patch_28">
    <path d="M 197.690137 320.4 
L 213.005767 320.4 
L 213.005767 320.277499 
L 197.690137 320.277499 
z
" clip-path="url(#p1441f934bc)" style="fill: #ff7f0e; opacity: 0.5"/>
   </g>
   <g id="patch_29">
    <path d="M 213.005767 320.4 
L 228.321396 320.4 
L 228.321396 320.4 
L 213.005767 320.4 
z
" clip-path="url(#p1441f934bc)" style="fill: #ff7f0e; opacity: 0.5"/>
   </g>
   <g id="patch_30">
    <path d="M 228.321396 320.4 
L 243.637026 320.4 
L 243.637026 320.4 
L 228.321396 320.4 
z
" clip-path="url(#p1441f934bc)" style="fill: #ff7f0e; opacity: 0.5"/>
   </g>
   <g id="patch_31">
    <path d="M 243.637026 320.4 
L 258.952655 320.4 
L 258.952655 320.4 
L 243.637026 320.4 
z
" clip-path="url(#p1441f934bc)" style="fill: #ff7f0e; opacity: 0.5"/>
   </g>
   <g id="patch_32">
    <path d="M 258.952655 320.4 
L 274.268285 320.4 
L 274.268285 320.4 
L 258.952655 320.4 
z
" clip-path="url(#p1441f934bc)" style="fill: #ff7f0e; opacity: 0.5"/>
   </g>
   <g id="patch_33">
    <path d="M 274.268285 320.4 
L 289.583915 320.4 
L 289.583915 320.4 
L 274.268285 320.4 
z
" clip-path="url(#p1441f934bc)" style="fill: #ff7f0e; opacity: 0.5"/>
   </g>
   <g id="patch_34">
    <path d="M 289.583915 320.4 
L 304.899544 320.4 
L 304.899544 320.4 
L 289.583915 320.4 
z
" clip-path="url(#p1441f934bc)" style="fill: #ff7f0e; opacity: 0.5"/>
   </g>
   <g id="patch_35">
    <path d="M 304.899544 320.4 
L 320.215174 320.4 
L 320.215174 320.277499 
L 304.899544 320.277499 
z
" clip-path="url(#p1441f934bc)" style="fill: #ff7f0e; opacity: 0.5"/>
   </g>
   <g id="patch_36">
    <path d="M 320.215174 320.4 
L 335.530803 320.4 
L 335.530803 320.4 
L 320.215174 320.4 
z
" clip-path="url(#p1441f934bc)" style="fill: #ff7f0e; opacity: 0.5"/>
   </g>
   <g id="patch_37">
    <path d="M 335.530803 320.4 
L 350.846433 320.4 
L 350.846433 320.4 
L 335.530803 320.4 
z
" clip-path="url(#p1441f934bc)" style="fill: #ff7f0e; opacity: 0.5"/>
   </g>
   <g id="patch_38">
    <path d="M 350.846433 320.4 
L 366.162062 320.4 
L 366.162062 320.4 
L 350.846433 320.4 
z
" clip-path="url(#p1441f934bc)" style="fill: #ff7f0e; opacity: 0.5"/>
   </g>
   <g id="patch_39">
    <path d="M 366.162062 320.4 
L 381.477692 320.4 
L 381.477692 320.4 
L 366.162062 320.4 
z
" clip-path="url(#p1441f934bc)" style="fill: #ff7f0e; opacity: 0.5"/>
   </g>
   <g id="patch_40">
    <path d="M 381.477692 320.4 
L 396.793321 320.4 
L 396.793321 320.277499 
L 381.477692 320.277499 
z
" clip-path="url(#p1441f934bc)" style="fill: #ff7f0e; opacity: 0.5"/>
   </g>
   <g id="patch_41">
    <path d="M 396.793321 320.4 
L 412.108951 320.4 
L 412.108951 320.4 
L 396.793321 320.4 
z
" clip-path="url(#p1441f934bc)" style="fill: #ff7f0e; opacity: 0.5"/>
   </g>
   <g id="patch_42">
    <path d="M 412.108951 320.4 
L 427.424581 320.4 
L 427.424581 320.277499 
L 412.108951 320.277499 
z
" clip-path="url(#p1441f934bc)" style="fill: #ff7f0e; opacity: 0.5"/>
   </g>
   <g id="patch_43">
    <path d="M 128.550627 320.4 
L 130.574383 320.4 
L 130.574383 299.077153 
L 128.550627 299.077153 
z
" clip-path="url(#p1441f934bc)" style="fill: #2ca02c; opacity: 0.5"/>
   </g>
   <g id="patch_44">
    <path d="M 130.574383 320.4 
L 132.598139 320.4 
L 132.598139 209.150364 
L 130.574383 209.150364 
z
" clip-path="url(#p1441f934bc)" style="fill: #2ca02c; opacity: 0.5"/>
   </g>
   <g id="patch_45">
    <path d="M 132.598139 320.4 
L 134.621895 320.4 
L 134.621895 198.0254 
L 132.598139 198.0254 
z
" clip-path="url(#p1441f934bc)" style="fill: #2ca02c; opacity: 0.5"/>
   </g>
   <g id="patch_46">
    <path d="M 134.621895 320.4 
L 136.645651 320.4 
L 136.645651 236.962773 
L 134.621895 236.962773 
z
" clip-path="url(#p1441f934bc)" style="fill: #2ca02c; opacity: 0.5"/>
   </g>
   <g id="patch_47">
    <path d="M 136.645651 320.4 
L 138.669407 320.4 
L 138.669407 265.702262 
L 136.645651 265.702262 
z
" clip-path="url(#p1441f934bc)" style="fill: #2ca02c; opacity: 0.5"/>
   </g>
   <g id="patch_48">
    <path d="M 138.669407 320.4 
L 140.693164 320.4 
L 140.693164 293.514671 
L 138.669407 293.514671 
z
" clip-path="url(#p1441f934bc)" style="fill: #2ca02c; opacity: 0.5"/>
   </g>
   <g id="patch_49">
    <path d="M 140.693164 320.4 
L 142.71692 320.4 
L 142.71692 303.712555 
L 140.693164 303.712555 
z
" clip-path="url(#p1441f934bc)" style="fill: #2ca02c; opacity: 0.5"/>
   </g>
   <g id="patch_50">
    <path d="M 142.71692 320.4 
L 144.740676 320.4 
L 144.740676 308.347956 
L 142.71692 308.347956 
z
" clip-path="url(#p1441f934bc)" style="fill: #2ca02c; opacity: 0.5"/>
   </g>
   <g id="patch_51">
    <path d="M 144.740676 320.4 
L 146.764432 320.4 
L 146.764432 319.47292 
L 144.740676 319.47292 
z
" clip-path="url(#p1441f934bc)" style="fill: #2ca02c; opacity: 0.5"/>
   </g>
   <g id="patch_52">
    <path d="M 146.764432 320.4 
L 148.788188 320.4 
L 148.788188 316.691679 
L 146.764432 316.691679 
z
" clip-path="url(#p1441f934bc)" style="fill: #2ca02c; opacity: 0.5"/>
   </g>
   <g id="patch_53">
    <path d="M 148.788188 320.4 
L 150.811944 320.4 
L 150.811944 317.618759 
L 148.788188 317.618759 
z
" clip-path="url(#p1441f934bc)" style="fill: #2ca02c; opacity: 0.5"/>
   </g>
   <g id="patch_54">
    <path d="M 150.811944 320.4 
L 152.8357 320.4 
L 152.8357 319.47292 
L 150.811944 319.47292 
z
" clip-path="url(#p1441f934bc)" style="fill: #2ca02c; opacity: 0.5"/>
   </g>
   <g id="patch_55">
    <path d="M 152.8357 320.4 
L 154.859456 320.4 
L 154.859456 318.545839 
L 152.8357 318.545839 
z
" clip-path="url(#p1441f934bc)" style="fill: #2ca02c; opacity: 0.5"/>
   </g>
   <g id="patch_56">
    <path d="M 154.859456 320.4 
L 156.883212 320.4 
L 156.883212 320.4 
L 154.859456 320.4 
z
" clip-path="url(#p1441f934bc)" style="fill: #2ca02c; opacity: 0.5"/>
   </g>
   <g id="patch_57">
    <path d="M 156.883212 320.4 
L 158.906969 320.4 
L 158.906969 320.4 
L 156.883212 320.4 
z
" clip-path="url(#p1441f934bc)" style="fill: #2ca02c; opacity: 0.5"/>
   </g>
   <g id="patch_58">
    <path d="M 158.906969 320.4 
L 160.930725 320.4 
L 160.930725 319.47292 
L 158.906969 319.47292 
z
" clip-path="url(#p1441f934bc)" style="fill: #2ca02c; opacity: 0.5"/>
   </g>
   <g id="patch_59">
    <path d="M 160.930725 320.4 
L 162.954481 320.4 
L 162.954481 317.618759 
L 160.930725 317.618759 
z
" clip-path="url(#p1441f934bc)" style="fill: #2ca02c; opacity: 0.5"/>
   </g>
   <g id="patch_60">
    <path d="M 162.954481 320.4 
L 164.978237 320.4 
L 164.978237 320.4 
L 162.954481 320.4 
z
" clip-path="url(#p1441f934bc)" style="fill: #2ca02c; opacity: 0.5"/>
   </g>
   <g id="patch_61">
    <path d="M 164.978237 320.4 
L 167.001993 320.4 
L 167.001993 320.4 
L 164.978237 320.4 
z
" clip-path="url(#p1441f934bc)" style="fill: #2ca02c; opacity: 0.5"/>
   </g>
   <g id="patch_62">
    <path d="M 167.001993 320.4 
L 169.025749 320.4 
L 169.025749 319.47292 
L 167.001993 319.47292 
z
" clip-path="url(#p1441f934bc)" style="fill: #2ca02c; opacity: 0.5"/>
   </g>
   <g id="patch_63">
    <path d="M 132.493686 320.4 
L 133.126187 320.4 
L 133.126187 272.939326 
L 132.493686 272.939326 
z
" clip-path="url(#p1441f934bc)" style="fill: #d62728; opacity: 0.5"/>
   </g>
   <g id="patch_64">
    <path d="M 133.126187 320.4 
L 133.758689 320.4 
L 133.758689 213.613483 
L 133.126187 213.613483 
z
" clip-path="url(#p1441f934bc)" style="fill: #d62728; opacity: 0.5"/>
   </g>
   <g id="patch_65">
    <path d="M 133.758689 320.4 
L 134.391191 320.4 
L 134.391191 83.096629 
L 133.758689 83.096629 
z
" clip-path="url(#p1441f934bc)" style="fill: #d62728; opacity: 0.5"/>
   </g>
   <g id="patch_66">
    <path d="M 134.391191 320.4 
L 135.023692 320.4 
L 135.023692 56.4 
L 134.391191 56.4 
z
" clip-path="url(#p1441f934bc)" style="fill: #d62728; opacity: 0.5"/>
   </g>
   <g id="patch_67">
    <path d="M 135.023692 320.4 
L 135.656194 320.4 
L 135.656194 83.096629 
L 135.023692 83.096629 
z
" clip-path="url(#p1441f934bc)" style="fill: #d62728; opacity: 0.5"/>
   </g>
   <g id="patch_68">
    <path d="M 135.656194 320.4 
L 136.288695 320.4 
L 136.288695 157.253933 
L 135.656194 157.253933 
z
" clip-path="url(#p1441f934bc)" style="fill: #d62728; opacity: 0.5"/>
   </g>
   <g id="patch_69">
    <path d="M 136.288695 320.4 
L 136.921197 320.4 
L 136.921197 172.085393 
L 136.288695 172.085393 
z
" clip-path="url(#p1441f934bc)" style="fill: #d62728; opacity: 0.5"/>
   </g>
   <g id="patch_70">
    <path d="M 136.921197 320.4 
L 137.553698 320.4 
L 137.553698 225.478652 
L 136.921197 225.478652 
z
" clip-path="url(#p1441f934bc)" style="fill: #d62728; opacity: 0.5"/>
   </g>
   <g id="patch_71">
    <path d="M 137.553698 320.4 
L 138.1862 320.4 
L 138.1862 290.737079 
L 137.553698 290.737079 
z
" clip-path="url(#p1441f934bc)" style="fill: #d62728; opacity: 0.5"/>
   </g>
   <g id="patch_72">
    <path d="M 138.1862 320.4 
L 138.818702 320.4 
L 138.818702 284.804494 
L 138.1862 284.804494 
z
" clip-path="url(#p1441f934bc)" style="fill: #d62728; opacity: 0.5"/>
   </g>
   <g id="patch_73">
    <path d="M 138.818702 320.4 
L 139.451203 320.4 
L 139.451203 293.703371 
L 138.818702 293.703371 
z
" clip-path="url(#p1441f934bc)" style="fill: #d62728; opacity: 0.5"/>
   </g>
   <g id="patch_74">
    <path d="M 139.451203 320.4 
L 140.083705 320.4 
L 140.083705 311.501124 
L 139.451203 311.501124 
z
" clip-path="url(#p1441f934bc)" style="fill: #d62728; opacity: 0.5"/>
   </g>
   <g id="patch_75">
    <path d="M 140.083705 320.4 
L 140.716206 320.4 
L 140.716206 293.703371 
L 140.083705 293.703371 
z
" clip-path="url(#p1441f934bc)" style="fill: #d62728; opacity: 0.5"/>
   </g>
   <g id="patch_76">
    <path d="M 140.716206 320.4 
L 141.348708 320.4 
L 141.348708 314.467416 
L 140.716206 314.467416 
z
" clip-path="url(#p1441f934bc)" style="fill: #d62728; opacity: 0.5"/>
   </g>
   <g id="patch_77">
    <path d="M 141.348708 320.4 
L 141.981209 320.4 
L 141.981209 305.568539 
L 141.348708 305.568539 
z
" clip-path="url(#p1441f934bc)" style="fill: #d62728; opacity: 0.5"/>
   </g>
   <g id="patch_78">
    <path d="M 141.981209 320.4 
L 142.613711 320.4 
L 142.613711 305.568539 
L 141.981209 305.568539 
z
" clip-path="url(#p1441f934bc)" style="fill: #d62728; opacity: 0.5"/>
   </g>
   <g id="patch_79">
    <path d="M 142.613711 320.4 
L 143.246212 320.4 
L 143.246212 317.433708 
L 142.613711 317.433708 
z
" clip-path="url(#p1441f934bc)" style="fill: #d62728; opacity: 0.5"/>
   </g>
   <g id="patch_80">
    <path d="M 143.246212 320.4 
L 143.878714 320.4 
L 143.878714 320.4 
L 143.246212 320.4 
z
" clip-path="url(#p1441f934bc)" style="fill: #d62728; opacity: 0.5"/>
   </g>
   <g id="patch_81">
    <path d="M 143.878714 320.4 
L 144.511216 320.4 
L 144.511216 314.467416 
L 143.878714 314.467416 
z
" clip-path="url(#p1441f934bc)" style="fill: #d62728; opacity: 0.5"/>
   </g>
   <g id="patch_82">
    <path d="M 144.511216 320.4 
L 145.143717 320.4 
L 145.143717 308.534831 
L 144.511216 308.534831 
z
" clip-path="url(#p1441f934bc)" style="fill: #d62728; opacity: 0.5"/>
   </g>
   <g id="matplotlib.axis_1">
    <g id="xtick_1">
     <g id="line2d_1">
      <defs>
       <path id="mae47d7ef4b" d="M 0 0 
L 0 3.5 
" style="stroke: #000000; stroke-width: 0.8"/>
      </defs>
      <g>
       <use xlink:href="#mae47d7ef4b" x="99.317959" y="320.4" style="stroke: #000000; stroke-width: 0.8"/>
      </g>
     </g>
     <g id="text_1">
      <!-- 0 -->
      <g transform="translate(96.136709 334.998438) scale(0.1 -0.1)">
       <defs>
        <path id="DejaVuSans-30" d="M 2034 4250 
Q 1547 4250 1301 3770 
Q 1056 3291 1056 2328 
Q 1056 1369 1301 889 
Q 1547 409 2034 409 
Q 2525 409 2770 889 
Q 3016 1369 3016 2328 
Q 3016 3291 2770 3770 
Q 2525 4250 2034 4250 
z
M 2034 4750 
Q 2819 4750 3233 4129 
Q 3647 3509 3647 2328 
Q 3647 1150 3233 529 
Q 2819 -91 2034 -91 
Q 1250 -91 836 529 
Q 422 1150 422 2328 
Q 422 3509 836 4129 
Q 1250 4750 2034 4750 
z
" transform="scale(0.015625)"/>
       </defs>
       <use xlink:href="#DejaVuSans-30"/>
      </g>
     </g>
    </g>
    <g id="xtick_2">
     <g id="line2d_2">
      <g>
       <use xlink:href="#mae47d7ef4b" x="221.744153" y="320.4" style="stroke: #000000; stroke-width: 0.8"/>
      </g>
     </g>
     <g id="text_2">
      <!-- 10 -->
      <g transform="translate(215.381653 334.998438) scale(0.1 -0.1)">
       <defs>
        <path id="DejaVuSans-31" d="M 794 531 
L 1825 531 
L 1825 4091 
L 703 3866 
L 703 4441 
L 1819 4666 
L 2450 4666 
L 2450 531 
L 3481 531 
L 3481 0 
L 794 0 
L 794 531 
z
" transform="scale(0.015625)"/>
       </defs>
       <use xlink:href="#DejaVuSans-31"/>
       <use xlink:href="#DejaVuSans-30" x="63.623047"/>
      </g>
     </g>
    </g>
    <g id="xtick_3">
     <g id="line2d_3">
      <g>
       <use xlink:href="#mae47d7ef4b" x="344.170347" y="320.4" style="stroke: #000000; stroke-width: 0.8"/>
      </g>
     </g>
     <g id="text_3">
      <!-- 20 -->
      <g transform="translate(337.807847 334.998438) scale(0.1 -0.1)">
       <defs>
        <path id="DejaVuSans-32" d="M 1228 531 
L 3431 531 
L 3431 0 
L 469 0 
L 469 531 
Q 828 903 1448 1529 
Q 2069 2156 2228 2338 
Q 2531 2678 2651 2914 
Q 2772 3150 2772 3378 
Q 2772 3750 2511 3984 
Q 2250 4219 1831 4219 
Q 1534 4219 1204 4116 
Q 875 4013 500 3803 
L 500 4441 
Q 881 4594 1212 4672 
Q 1544 4750 1819 4750 
Q 2544 4750 2975 4387 
Q 3406 4025 3406 3419 
Q 3406 3131 3298 2873 
Q 3191 2616 2906 2266 
Q 2828 2175 2409 1742 
Q 1991 1309 1228 531 
z
" transform="scale(0.015625)"/>
       </defs>
       <use xlink:href="#DejaVuSans-32"/>
       <use xlink:href="#DejaVuSans-30" x="63.623047"/>
      </g>
     </g>
    </g>
    <g id="xtick_4">
     <g id="line2d_4">
      <g>
       <use xlink:href="#mae47d7ef4b" x="466.596541" y="320.4" style="stroke: #000000; stroke-width: 0.8"/>
      </g>
     </g>
     <g id="text_4">
      <!-- 30 -->
      <g transform="translate(460.234041 334.998438) scale(0.1 -0.1)">
       <defs>
        <path id="DejaVuSans-33" d="M 2597 2516 
Q 3050 2419 3304 2112 
Q 3559 1806 3559 1356 
Q 3559 666 3084 287 
Q 2609 -91 1734 -91 
Q 1441 -91 1130 -33 
Q 819 25 488 141 
L 488 750 
Q 750 597 1062 519 
Q 1375 441 1716 441 
Q 2309 441 2620 675 
Q 2931 909 2931 1356 
Q 2931 1769 2642 2001 
Q 2353 2234 1838 2234 
L 1294 2234 
L 1294 2753 
L 1863 2753 
Q 2328 2753 2575 2939 
Q 2822 3125 2822 3475 
Q 2822 3834 2567 4026 
Q 2313 4219 1838 4219 
Q 1578 4219 1281 4162 
Q 984 4106 628 3988 
L 628 4550 
Q 988 4650 1302 4700 
Q 1616 4750 1894 4750 
Q 2613 4750 3031 4423 
Q 3450 4097 3450 3541 
Q 3450 3153 3228 2886 
Q 3006 2619 2597 2516 
z
" transform="scale(0.015625)"/>
       </defs>
       <use xlink:href="#DejaVuSans-33"/>
       <use xlink:href="#DejaVuSans-30" x="63.623047"/>
      </g>
     </g>
    </g>
    <g id="xtick_5">
     <g id="line2d_5">
      <g>
       <use xlink:href="#mae47d7ef4b" x="589.022735" y="320.4" style="stroke: #000000; stroke-width: 0.8"/>
      </g>
     </g>
     <g id="text_5">
      <!-- 40 -->
      <g transform="translate(582.660235 334.998438) scale(0.1 -0.1)">
       <defs>
        <path id="DejaVuSans-34" d="M 2419 4116 
L 825 1625 
L 2419 1625 
L 2419 4116 
z
M 2253 4666 
L 3047 4666 
L 3047 1625 
L 3713 1625 
L 3713 1100 
L 3047 1100 
L 3047 0 
L 2419 0 
L 2419 1100 
L 313 1100 
L 313 1709 
L 2253 4666 
z
" transform="scale(0.015625)"/>
       </defs>
       <use xlink:href="#DejaVuSans-34"/>
       <use xlink:href="#DejaVuSans-30" x="63.623047"/>
      </g>
     </g>
    </g>
    <g id="text_6">
     <!-- Samples of $S_n$ -->
     <g transform="translate(320.14 351.718125) scale(0.14 -0.14)">
      <defs>
       <path id="DejaVuSans-53" d="M 3425 4513 
L 3425 3897 
Q 3066 4069 2747 4153 
Q 2428 4238 2131 4238 
Q 1616 4238 1336 4038 
Q 1056 3838 1056 3469 
Q 1056 3159 1242 3001 
Q 1428 2844 1947 2747 
L 2328 2669 
Q 3034 2534 3370 2195 
Q 3706 1856 3706 1288 
Q 3706 609 3251 259 
Q 2797 -91 1919 -91 
Q 1588 -91 1214 -16 
Q 841 59 441 206 
L 441 856 
Q 825 641 1194 531 
Q 1563 422 1919 422 
Q 2459 422 2753 634 
Q 3047 847 3047 1241 
Q 3047 1584 2836 1778 
Q 2625 1972 2144 2069 
L 1759 2144 
Q 1053 2284 737 2584 
Q 422 2884 422 3419 
Q 422 4038 858 4394 
Q 1294 4750 2059 4750 
Q 2388 4750 2728 4690 
Q 3069 4631 3425 4513 
z
" transform="scale(0.015625)"/>
       <path id="DejaVuSans-61" d="M 2194 1759 
Q 1497 1759 1228 1600 
Q 959 1441 959 1056 
Q 959 750 1161 570 
Q 1363 391 1709 391 
Q 2188 391 2477 730 
Q 2766 1069 2766 1631 
L 2766 1759 
L 2194 1759 
z
M 3341 1997 
L 3341 0 
L 2766 0 
L 2766 531 
Q 2569 213 2275 61 
Q 1981 -91 1556 -91 
Q 1019 -91 701 211 
Q 384 513 384 1019 
Q 384 1609 779 1909 
Q 1175 2209 1959 2209 
L 2766 2209 
L 2766 2266 
Q 2766 2663 2505 2880 
Q 2244 3097 1772 3097 
Q 1472 3097 1187 3025 
Q 903 2953 641 2809 
L 641 3341 
Q 956 3463 1253 3523 
Q 1550 3584 1831 3584 
Q 2591 3584 2966 3190 
Q 3341 2797 3341 1997 
z
" transform="scale(0.015625)"/>
       <path id="DejaVuSans-6d" d="M 3328 2828 
Q 3544 3216 3844 3400 
Q 4144 3584 4550 3584 
Q 5097 3584 5394 3201 
Q 5691 2819 5691 2113 
L 5691 0 
L 5113 0 
L 5113 2094 
Q 5113 2597 4934 2840 
Q 4756 3084 4391 3084 
Q 3944 3084 3684 2787 
Q 3425 2491 3425 1978 
L 3425 0 
L 2847 0 
L 2847 2094 
Q 2847 2600 2669 2842 
Q 2491 3084 2119 3084 
Q 1678 3084 1418 2786 
Q 1159 2488 1159 1978 
L 1159 0 
L 581 0 
L 581 3500 
L 1159 3500 
L 1159 2956 
Q 1356 3278 1631 3431 
Q 1906 3584 2284 3584 
Q 2666 3584 2933 3390 
Q 3200 3197 3328 2828 
z
" transform="scale(0.015625)"/>
       <path id="DejaVuSans-70" d="M 1159 525 
L 1159 -1331 
L 581 -1331 
L 581 3500 
L 1159 3500 
L 1159 2969 
Q 1341 3281 1617 3432 
Q 1894 3584 2278 3584 
Q 2916 3584 3314 3078 
Q 3713 2572 3713 1747 
Q 3713 922 3314 415 
Q 2916 -91 2278 -91 
Q 1894 -91 1617 61 
Q 1341 213 1159 525 
z
M 3116 1747 
Q 3116 2381 2855 2742 
Q 2594 3103 2138 3103 
Q 1681 3103 1420 2742 
Q 1159 2381 1159 1747 
Q 1159 1113 1420 752 
Q 1681 391 2138 391 
Q 2594 391 2855 752 
Q 3116 1113 3116 1747 
z
" transform="scale(0.015625)"/>
       <path id="DejaVuSans-6c" d="M 603 4863 
L 1178 4863 
L 1178 0 
L 603 0 
L 603 4863 
z
" transform="scale(0.015625)"/>
       <path id="DejaVuSans-65" d="M 3597 1894 
L 3597 1613 
L 953 1613 
Q 991 1019 1311 708 
Q 1631 397 2203 397 
Q 2534 397 2845 478 
Q 3156 559 3463 722 
L 3463 178 
Q 3153 47 2828 -22 
Q 2503 -91 2169 -91 
Q 1331 -91 842 396 
Q 353 884 353 1716 
Q 353 2575 817 3079 
Q 1281 3584 2069 3584 
Q 2775 3584 3186 3129 
Q 3597 2675 3597 1894 
z
M 3022 2063 
Q 3016 2534 2758 2815 
Q 2500 3097 2075 3097 
Q 1594 3097 1305 2825 
Q 1016 2553 972 2059 
L 3022 2063 
z
" transform="scale(0.015625)"/>
       <path id="DejaVuSans-73" d="M 2834 3397 
L 2834 2853 
Q 2591 2978 2328 3040 
Q 2066 3103 1784 3103 
Q 1356 3103 1142 2972 
Q 928 2841 928 2578 
Q 928 2378 1081 2264 
Q 1234 2150 1697 2047 
L 1894 2003 
Q 2506 1872 2764 1633 
Q 3022 1394 3022 966 
Q 3022 478 2636 193 
Q 2250 -91 1575 -91 
Q 1294 -91 989 -36 
Q 684 19 347 128 
L 347 722 
Q 666 556 975 473 
Q 1284 391 1588 391 
Q 1994 391 2212 530 
Q 2431 669 2431 922 
Q 2431 1156 2273 1281 
Q 2116 1406 1581 1522 
L 1381 1569 
Q 847 1681 609 1914 
Q 372 2147 372 2553 
Q 372 3047 722 3315 
Q 1072 3584 1716 3584 
Q 2034 3584 2315 3537 
Q 2597 3491 2834 3397 
z
" transform="scale(0.015625)"/>
       <path id="DejaVuSans-20" transform="scale(0.015625)"/>
       <path id="DejaVuSans-6f" d="M 1959 3097 
Q 1497 3097 1228 2736 
Q 959 2375 959 1747 
Q 959 1119 1226 758 
Q 1494 397 1959 397 
Q 2419 397 2687 759 
Q 2956 1122 2956 1747 
Q 2956 2369 2687 2733 
Q 2419 3097 1959 3097 
z
M 1959 3584 
Q 2709 3584 3137 3096 
Q 3566 2609 3566 1747 
Q 3566 888 3137 398 
Q 2709 -91 1959 -91 
Q 1206 -91 779 398 
Q 353 888 353 1747 
Q 353 2609 779 3096 
Q 1206 3584 1959 3584 
z
" transform="scale(0.015625)"/>
       <path id="DejaVuSans-66" d="M 2375 4863 
L 2375 4384 
L 1825 4384 
Q 1516 4384 1395 4259 
Q 1275 4134 1275 3809 
L 1275 3500 
L 2222 3500 
L 2222 3053 
L 1275 3053 
L 1275 0 
L 697 0 
L 697 3053 
L 147 3053 
L 147 3500 
L 697 3500 
L 697 3744 
Q 697 4328 969 4595 
Q 1241 4863 1831 4863 
L 2375 4863 
z
" transform="scale(0.015625)"/>
       <path id="DejaVuSans-Oblique-53" d="M 3859 4513 
L 3738 3897 
Q 3422 4066 3111 4152 
Q 2800 4238 2509 4238 
Q 1944 4238 1609 3991 
Q 1275 3744 1275 3334 
Q 1275 3109 1398 2989 
Q 1522 2869 2034 2731 
L 2413 2638 
Q 3053 2472 3303 2217 
Q 3553 1963 3553 1503 
Q 3553 797 2998 353 
Q 2444 -91 1538 -91 
Q 1166 -91 791 -17 
Q 416 56 38 206 
L 166 856 
Q 513 641 861 531 
Q 1209 422 1556 422 
Q 2147 422 2503 684 
Q 2859 947 2859 1369 
Q 2859 1650 2717 1795 
Q 2575 1941 2106 2059 
L 1728 2156 
Q 1081 2325 845 2545 
Q 609 2766 609 3163 
Q 609 3859 1145 4304 
Q 1681 4750 2541 4750 
Q 2875 4750 3203 4690 
Q 3531 4631 3859 4513 
z
" transform="scale(0.015625)"/>
       <path id="DejaVuSans-Oblique-6e" d="M 3566 2113 
L 3156 0 
L 2578 0 
L 2988 2091 
Q 3016 2238 3031 2350 
Q 3047 2463 3047 2528 
Q 3047 2791 2881 2937 
Q 2716 3084 2419 3084 
Q 1956 3084 1622 2776 
Q 1288 2469 1184 1941 
L 800 0 
L 225 0 
L 903 3500 
L 1478 3500 
L 1363 2950 
Q 1603 3253 1940 3418 
Q 2278 3584 2650 3584 
Q 3113 3584 3367 3334 
Q 3622 3084 3622 2631 
Q 3622 2519 3608 2391 
Q 3594 2263 3566 2113 
z
" transform="scale(0.015625)"/>
      </defs>
      <use xlink:href="#DejaVuSans-53" transform="translate(0 0.015625)"/>
      <use xlink:href="#DejaVuSans-61" transform="translate(63.476562 0.015625)"/>
      <use xlink:href="#DejaVuSans-6d" transform="translate(124.755859 0.015625)"/>
      <use xlink:href="#DejaVuSans-70" transform="translate(222.167969 0.015625)"/>
      <use xlink:href="#DejaVuSans-6c" transform="translate(285.644531 0.015625)"/>
      <use xlink:href="#DejaVuSans-65" transform="translate(313.427734 0.015625)"/>
      <use xlink:href="#DejaVuSans-73" transform="translate(374.951172 0.015625)"/>
      <use xlink:href="#DejaVuSans-20" transform="translate(427.050781 0.015625)"/>
      <use xlink:href="#DejaVuSans-6f" transform="translate(458.837891 0.015625)"/>
      <use xlink:href="#DejaVuSans-66" transform="translate(520.019531 0.015625)"/>
      <use xlink:href="#DejaVuSans-20" transform="translate(555.224609 0.015625)"/>
      <use xlink:href="#DejaVuSans-Oblique-53" transform="translate(587.011719 0.015625)"/>
      <use xlink:href="#DejaVuSans-Oblique-6e" transform="translate(650.488281 -16.390625) scale(0.7)"/>
     </g>
    </g>
   </g>
   <g id="matplotlib.axis_2">
    <g id="ytick_1">
     <g id="line2d_6">
      <defs>
       <path id="m0f2d351467" d="M 0 0 
L -3.5 0 
" style="stroke: #000000; stroke-width: 0.8"/>
      </defs>
      <g>
       <use xlink:href="#m0f2d351467" x="90" y="320.4" style="stroke: #000000; stroke-width: 0.8"/>
      </g>
     </g>
     <g id="text_7">
      <!-- 0.0 -->
      <g transform="translate(67.096875 324.199219) scale(0.1 -0.1)">
       <defs>
        <path id="DejaVuSans-2e" d="M 684 794 
L 1344 794 
L 1344 0 
L 684 0 
L 684 794 
z
" transform="scale(0.015625)"/>
       </defs>
       <use xlink:href="#DejaVuSans-30"/>
       <use xlink:href="#DejaVuSans-2e" x="63.623047"/>
       <use xlink:href="#DejaVuSans-30" x="95.410156"/>
      </g>
     </g>
    </g>
    <g id="ytick_2">
     <g id="line2d_7">
      <g>
       <use xlink:href="#m0f2d351467" x="90" y="282.087439" style="stroke: #000000; stroke-width: 0.8"/>
      </g>
     </g>
     <g id="text_8">
      <!-- 0.5 -->
      <g transform="translate(67.096875 285.886658) scale(0.1 -0.1)">
       <defs>
        <path id="DejaVuSans-35" d="M 691 4666 
L 3169 4666 
L 3169 4134 
L 1269 4134 
L 1269 2991 
Q 1406 3038 1543 3061 
Q 1681 3084 1819 3084 
Q 2600 3084 3056 2656 
Q 3513 2228 3513 1497 
Q 3513 744 3044 326 
Q 2575 -91 1722 -91 
Q 1428 -91 1123 -41 
Q 819 9 494 109 
L 494 744 
Q 775 591 1075 516 
Q 1375 441 1709 441 
Q 2250 441 2565 725 
Q 2881 1009 2881 1497 
Q 2881 1984 2565 2268 
Q 2250 2553 1709 2553 
Q 1456 2553 1204 2497 
Q 953 2441 691 2322 
L 691 4666 
z
" transform="scale(0.015625)"/>
       </defs>
       <use xlink:href="#DejaVuSans-30"/>
       <use xlink:href="#DejaVuSans-2e" x="63.623047"/>
       <use xlink:href="#DejaVuSans-35" x="95.410156"/>
      </g>
     </g>
    </g>
    <g id="ytick_3">
     <g id="line2d_8">
      <g>
       <use xlink:href="#m0f2d351467" x="90" y="243.774878" style="stroke: #000000; stroke-width: 0.8"/>
      </g>
     </g>
     <g id="text_9">
      <!-- 1.0 -->
      <g transform="translate(67.096875 247.574096) scale(0.1 -0.1)">
       <use xlink:href="#DejaVuSans-31"/>
       <use xlink:href="#DejaVuSans-2e" x="63.623047"/>
       <use xlink:href="#DejaVuSans-30" x="95.410156"/>
      </g>
     </g>
    </g>
    <g id="ytick_4">
     <g id="line2d_9">
      <g>
       <use xlink:href="#m0f2d351467" x="90" y="205.462316" style="stroke: #000000; stroke-width: 0.8"/>
      </g>
     </g>
     <g id="text_10">
      <!-- 1.5 -->
      <g transform="translate(67.096875 209.261535) scale(0.1 -0.1)">
       <use xlink:href="#DejaVuSans-31"/>
       <use xlink:href="#DejaVuSans-2e" x="63.623047"/>
       <use xlink:href="#DejaVuSans-35" x="95.410156"/>
      </g>
     </g>
    </g>
    <g id="ytick_5">
     <g id="line2d_10">
      <g>
       <use xlink:href="#m0f2d351467" x="90" y="167.149755" style="stroke: #000000; stroke-width: 0.8"/>
      </g>
     </g>
     <g id="text_11">
      <!-- 2.0 -->
      <g transform="translate(67.096875 170.948974) scale(0.1 -0.1)">
       <use xlink:href="#DejaVuSans-32"/>
       <use xlink:href="#DejaVuSans-2e" x="63.623047"/>
       <use xlink:href="#DejaVuSans-30" x="95.410156"/>
      </g>
     </g>
    </g>
    <g id="ytick_6">
     <g id="line2d_11">
      <g>
       <use xlink:href="#m0f2d351467" x="90" y="128.837194" style="stroke: #000000; stroke-width: 0.8"/>
      </g>
     </g>
     <g id="text_12">
      <!-- 2.5 -->
      <g transform="translate(67.096875 132.636413) scale(0.1 -0.1)">
       <use xlink:href="#DejaVuSans-32"/>
       <use xlink:href="#DejaVuSans-2e" x="63.623047"/>
       <use xlink:href="#DejaVuSans-35" x="95.410156"/>
      </g>
     </g>
    </g>
    <g id="ytick_7">
     <g id="line2d_12">
      <g>
       <use xlink:href="#m0f2d351467" x="90" y="90.524633" style="stroke: #000000; stroke-width: 0.8"/>
      </g>
     </g>
     <g id="text_13">
      <!-- 3.0 -->
      <g transform="translate(67.096875 94.323852) scale(0.1 -0.1)">
       <use xlink:href="#DejaVuSans-33"/>
       <use xlink:href="#DejaVuSans-2e" x="63.623047"/>
       <use xlink:href="#DejaVuSans-30" x="95.410156"/>
      </g>
     </g>
    </g>
    <g id="ytick_8">
     <g id="line2d_13">
      <g>
       <use xlink:href="#m0f2d351467" x="90" y="52.212072" style="stroke: #000000; stroke-width: 0.8"/>
      </g>
     </g>
     <g id="text_14">
      <!-- 3.5 -->
      <g transform="translate(67.096875 56.01129) scale(0.1 -0.1)">
       <use xlink:href="#DejaVuSans-33"/>
       <use xlink:href="#DejaVuSans-2e" x="63.623047"/>
       <use xlink:href="#DejaVuSans-35" x="95.410156"/>
      </g>
     </g>
    </g>
    <g id="text_15">
     <!-- Frequency -->
     <g transform="translate(60.185312 217.961562) rotate(-90) scale(0.14 -0.14)">
      <defs>
       <path id="DejaVuSans-46" d="M 628 4666 
L 3309 4666 
L 3309 4134 
L 1259 4134 
L 1259 2759 
L 3109 2759 
L 3109 2228 
L 1259 2228 
L 1259 0 
L 628 0 
L 628 4666 
z
" transform="scale(0.015625)"/>
       <path id="DejaVuSans-72" d="M 2631 2963 
Q 2534 3019 2420 3045 
Q 2306 3072 2169 3072 
Q 1681 3072 1420 2755 
Q 1159 2438 1159 1844 
L 1159 0 
L 581 0 
L 581 3500 
L 1159 3500 
L 1159 2956 
Q 1341 3275 1631 3429 
Q 1922 3584 2338 3584 
Q 2397 3584 2469 3576 
Q 2541 3569 2628 3553 
L 2631 2963 
z
" transform="scale(0.015625)"/>
       <path id="DejaVuSans-71" d="M 947 1747 
Q 947 1113 1208 752 
Q 1469 391 1925 391 
Q 2381 391 2643 752 
Q 2906 1113 2906 1747 
Q 2906 2381 2643 2742 
Q 2381 3103 1925 3103 
Q 1469 3103 1208 2742 
Q 947 2381 947 1747 
z
M 2906 525 
Q 2725 213 2448 61 
Q 2172 -91 1784 -91 
Q 1150 -91 751 415 
Q 353 922 353 1747 
Q 353 2572 751 3078 
Q 1150 3584 1784 3584 
Q 2172 3584 2448 3432 
Q 2725 3281 2906 2969 
L 2906 3500 
L 3481 3500 
L 3481 -1331 
L 2906 -1331 
L 2906 525 
z
" transform="scale(0.015625)"/>
       <path id="DejaVuSans-75" d="M 544 1381 
L 544 3500 
L 1119 3500 
L 1119 1403 
Q 1119 906 1312 657 
Q 1506 409 1894 409 
Q 2359 409 2629 706 
Q 2900 1003 2900 1516 
L 2900 3500 
L 3475 3500 
L 3475 0 
L 2900 0 
L 2900 538 
Q 2691 219 2414 64 
Q 2138 -91 1772 -91 
Q 1169 -91 856 284 
Q 544 659 544 1381 
z
M 1991 3584 
L 1991 3584 
z
" transform="scale(0.015625)"/>
       <path id="DejaVuSans-6e" d="M 3513 2113 
L 3513 0 
L 2938 0 
L 2938 2094 
Q 2938 2591 2744 2837 
Q 2550 3084 2163 3084 
Q 1697 3084 1428 2787 
Q 1159 2491 1159 1978 
L 1159 0 
L 581 0 
L 581 3500 
L 1159 3500 
L 1159 2956 
Q 1366 3272 1645 3428 
Q 1925 3584 2291 3584 
Q 2894 3584 3203 3211 
Q 3513 2838 3513 2113 
z
" transform="scale(0.015625)"/>
       <path id="DejaVuSans-63" d="M 3122 3366 
L 3122 2828 
Q 2878 2963 2633 3030 
Q 2388 3097 2138 3097 
Q 1578 3097 1268 2742 
Q 959 2388 959 1747 
Q 959 1106 1268 751 
Q 1578 397 2138 397 
Q 2388 397 2633 464 
Q 2878 531 3122 666 
L 3122 134 
Q 2881 22 2623 -34 
Q 2366 -91 2075 -91 
Q 1284 -91 818 406 
Q 353 903 353 1747 
Q 353 2603 823 3093 
Q 1294 3584 2113 3584 
Q 2378 3584 2631 3529 
Q 2884 3475 3122 3366 
z
" transform="scale(0.015625)"/>
       <path id="DejaVuSans-79" d="M 2059 -325 
Q 1816 -950 1584 -1140 
Q 1353 -1331 966 -1331 
L 506 -1331 
L 506 -850 
L 844 -850 
Q 1081 -850 1212 -737 
Q 1344 -625 1503 -206 
L 1606 56 
L 191 3500 
L 800 3500 
L 1894 763 
L 2988 3500 
L 3597 3500 
L 2059 -325 
z
" transform="scale(0.015625)"/>
      </defs>
      <use xlink:href="#DejaVuSans-46"/>
      <use xlink:href="#DejaVuSans-72" x="50.269531"/>
      <use xlink:href="#DejaVuSans-65" x="89.132812"/>
      <use xlink:href="#DejaVuSans-71" x="150.65625"/>
      <use xlink:href="#DejaVuSans-75" x="214.132812"/>
      <use xlink:href="#DejaVuSans-65" x="277.511719"/>
      <use xlink:href="#DejaVuSans-6e" x="339.035156"/>
      <use xlink:href="#DejaVuSans-63" x="402.414062"/>
      <use xlink:href="#DejaVuSans-79" x="457.394531"/>
     </g>
    </g>
   </g>
   <g id="patch_83">
    <path d="M 90 320.4 
L 90 43.2 
" style="fill: none; stroke: #000000; stroke-width: 0.8; stroke-linejoin: miter; stroke-linecap: square"/>
   </g>
   <g id="patch_84">
    <path d="M 648 320.4 
L 648 43.2 
" style="fill: none; stroke: #000000; stroke-width: 0.8; stroke-linejoin: miter; stroke-linecap: square"/>
   </g>
   <g id="patch_85">
    <path d="M 90 320.4 
L 648 320.4 
" style="fill: none; stroke: #000000; stroke-width: 0.8; stroke-linejoin: miter; stroke-linecap: square"/>
   </g>
   <g id="patch_86">
    <path d="M 90 43.2 
L 648 43.2 
" style="fill: none; stroke: #000000; stroke-width: 0.8; stroke-linejoin: miter; stroke-linecap: square"/>
   </g>
   <g id="text_16">
    <!-- Distribution of $S_n$ for various $n$ -->
    <g transform="translate(262.81 37.2) scale(0.14 -0.14)">
     <defs>
      <path id="DejaVuSans-44" d="M 1259 4147 
L 1259 519 
L 2022 519 
Q 2988 519 3436 956 
Q 3884 1394 3884 2338 
Q 3884 3275 3436 3711 
Q 2988 4147 2022 4147 
L 1259 4147 
z
M 628 4666 
L 1925 4666 
Q 3281 4666 3915 4102 
Q 4550 3538 4550 2338 
Q 4550 1131 3912 565 
Q 3275 0 1925 0 
L 628 0 
L 628 4666 
z
" transform="scale(0.015625)"/>
      <path id="DejaVuSans-69" d="M 603 3500 
L 1178 3500 
L 1178 0 
L 603 0 
L 603 3500 
z
M 603 4863 
L 1178 4863 
L 1178 4134 
L 603 4134 
L 603 4863 
z
" transform="scale(0.015625)"/>
      <path id="DejaVuSans-74" d="M 1172 4494 
L 1172 3500 
L 2356 3500 
L 2356 3053 
L 1172 3053 
L 1172 1153 
Q 1172 725 1289 603 
Q 1406 481 1766 481 
L 2356 481 
L 2356 0 
L 1766 0 
Q 1100 0 847 248 
Q 594 497 594 1153 
L 594 3053 
L 172 3053 
L 172 3500 
L 594 3500 
L 594 4494 
L 1172 4494 
z
" transform="scale(0.015625)"/>
      <path id="DejaVuSans-62" d="M 3116 1747 
Q 3116 2381 2855 2742 
Q 2594 3103 2138 3103 
Q 1681 3103 1420 2742 
Q 1159 2381 1159 1747 
Q 1159 1113 1420 752 
Q 1681 391 2138 391 
Q 2594 391 2855 752 
Q 3116 1113 3116 1747 
z
M 1159 2969 
Q 1341 3281 1617 3432 
Q 1894 3584 2278 3584 
Q 2916 3584 3314 3078 
Q 3713 2572 3713 1747 
Q 3713 922 3314 415 
Q 2916 -91 2278 -91 
Q 1894 -91 1617 61 
Q 1341 213 1159 525 
L 1159 0 
L 581 0 
L 581 4863 
L 1159 4863 
L 1159 2969 
z
" transform="scale(0.015625)"/>
      <path id="DejaVuSans-76" d="M 191 3500 
L 800 3500 
L 1894 563 
L 2988 3500 
L 3597 3500 
L 2284 0 
L 1503 0 
L 191 3500 
z
" transform="scale(0.015625)"/>
     </defs>
     <use xlink:href="#DejaVuSans-44" transform="translate(0 0.015625)"/>
     <use xlink:href="#DejaVuSans-69" transform="translate(77.001953 0.015625)"/>
     <use xlink:href="#DejaVuSans-73" transform="translate(104.785156 0.015625)"/>
     <use xlink:href="#DejaVuSans-74" transform="translate(156.884766 0.015625)"/>
     <use xlink:href="#DejaVuSans-72" transform="translate(196.09375 0.015625)"/>
     <use xlink:href="#DejaVuSans-69" transform="translate(237.207031 0.015625)"/>
     <use xlink:href="#DejaVuSans-62" transform="translate(264.990234 0.015625)"/>
     <use xlink:href="#DejaVuSans-75" transform="translate(328.466797 0.015625)"/>
     <use xlink:href="#DejaVuSans-74" transform="translate(391.845703 0.015625)"/>
     <use xlink:href="#DejaVuSans-69" transform="translate(431.054688 0.015625)"/>
     <use xlink:href="#DejaVuSans-6f" transform="translate(458.837891 0.015625)"/>
     <use xlink:href="#DejaVuSans-6e" transform="translate(520.019531 0.015625)"/>
     <use xlink:href="#DejaVuSans-20" transform="translate(583.398438 0.015625)"/>
     <use xlink:href="#DejaVuSans-6f" transform="translate(615.185547 0.015625)"/>
     <use xlink:href="#DejaVuSans-66" transform="translate(676.367188 0.015625)"/>
     <use xlink:href="#DejaVuSans-20" transform="translate(711.572266 0.015625)"/>
     <use xlink:href="#DejaVuSans-Oblique-53" transform="translate(743.359375 0.015625)"/>
     <use xlink:href="#DejaVuSans-Oblique-6e" transform="translate(806.835938 -16.390625) scale(0.7)"/>
     <use xlink:href="#DejaVuSans-20" transform="translate(853.935547 0.015625)"/>
     <use xlink:href="#DejaVuSans-66" transform="translate(885.722656 0.015625)"/>
     <use xlink:href="#DejaVuSans-6f" transform="translate(920.927734 0.015625)"/>
     <use xlink:href="#DejaVuSans-72" transform="translate(982.109375 0.015625)"/>
     <use xlink:href="#DejaVuSans-20" transform="translate(1023.222656 0.015625)"/>
     <use xlink:href="#DejaVuSans-76" transform="translate(1055.009766 0.015625)"/>
     <use xlink:href="#DejaVuSans-61" transform="translate(1114.189453 0.015625)"/>
     <use xlink:href="#DejaVuSans-72" transform="translate(1175.46875 0.015625)"/>
     <use xlink:href="#DejaVuSans-69" transform="translate(1216.582031 0.015625)"/>
     <use xlink:href="#DejaVuSans-6f" transform="translate(1244.365234 0.015625)"/>
     <use xlink:href="#DejaVuSans-75" transform="translate(1305.546875 0.015625)"/>
     <use xlink:href="#DejaVuSans-73" transform="translate(1368.925781 0.015625)"/>
     <use xlink:href="#DejaVuSans-20" transform="translate(1421.025391 0.015625)"/>
     <use xlink:href="#DejaVuSans-Oblique-6e" transform="translate(1452.8125 0.015625)"/>
    </g>
   </g>
   <g id="legend_1">
    <g id="patch_87">
     <path d="M 577.1875 109.9125 
L 641 109.9125 
Q 643 109.9125 643 107.9125 
L 643 50.2 
Q 643 48.2 641 48.2 
L 577.1875 48.2 
Q 575.1875 48.2 575.1875 50.2 
L 575.1875 107.9125 
Q 575.1875 109.9125 577.1875 109.9125 
z
" style="fill: #ffffff; opacity: 0.8; stroke: #cccccc; stroke-linejoin: miter"/>
    </g>
    <g id="patch_88">
     <path d="M 579.1875 59.798437 
L 599.1875 59.798437 
L 599.1875 52.798437 
L 579.1875 52.798437 
z
" style="fill: #1f77b4; opacity: 0.5"/>
    </g>
    <g id="text_17">
     <!-- 10 -->
     <g transform="translate(607.1875 59.798437) scale(0.1 -0.1)">
      <use xlink:href="#DejaVuSans-31"/>
      <use xlink:href="#DejaVuSans-30" x="63.623047"/>
     </g>
    </g>
    <g id="patch_89">
     <path d="M 579.1875 74.476562 
L 599.1875 74.476562 
L 599.1875 67.476562 
L 579.1875 67.476562 
z
" style="fill: #ff7f0e; opacity: 0.5"/>
    </g>
    <g id="text_18">
     <!-- 100 -->
     <g transform="translate(607.1875 74.476562) scale(0.1 -0.1)">
      <use xlink:href="#DejaVuSans-31"/>
      <use xlink:href="#DejaVuSans-30" x="63.623047"/>
      <use xlink:href="#DejaVuSans-30" x="127.246094"/>
     </g>
    </g>
    <g id="patch_90">
     <path d="M 579.1875 89.154687 
L 599.1875 89.154687 
L 599.1875 82.154687 
L 579.1875 82.154687 
z
" style="fill: #2ca02c; opacity: 0.5"/>
    </g>
    <g id="text_19">
     <!-- 1000 -->
     <g transform="translate(607.1875 89.154687) scale(0.1 -0.1)">
      <use xlink:href="#DejaVuSans-31"/>
      <use xlink:href="#DejaVuSans-30" x="63.623047"/>
      <use xlink:href="#DejaVuSans-30" x="127.246094"/>
      <use xlink:href="#DejaVuSans-30" x="190.869141"/>
     </g>
    </g>
    <g id="patch_91">
     <path d="M 579.1875 103.832812 
L 599.1875 103.832812 
L 599.1875 96.832812 
L 579.1875 96.832812 
z
" style="fill: #d62728; opacity: 0.5"/>
    </g>
    <g id="text_20">
     <!-- 10000 -->
     <g transform="translate(607.1875 103.832812) scale(0.1 -0.1)">
      <use xlink:href="#DejaVuSans-31"/>
      <use xlink:href="#DejaVuSans-30" x="63.623047"/>
      <use xlink:href="#DejaVuSans-30" x="127.246094"/>
      <use xlink:href="#DejaVuSans-30" x="190.869141"/>
      <use xlink:href="#DejaVuSans-30" x="254.492188"/>
     </g>
    </g>
   </g>
  </g>
 </g>
 <defs>
  <clipPath id="p1441f934bc">
   <rect x="90" y="43.2" width="558" height="277.2"/>
  </clipPath>
 </defs>
</svg>
