<?xml version="1.0" encoding="utf-8" standalone="no"?>
<!DOCTYPE svg PUBLIC "-//W3C//DTD SVG 1.1//EN"
  "http://www.w3.org/Graphics/SVG/1.1/DTD/svg11.dtd">
<svg xmlns:xlink="http://www.w3.org/1999/xlink" width="360pt" height="252pt" viewBox="0 0 360 252" xmlns="http://www.w3.org/2000/svg" version="1.1">
 <metadata>
  <rdf:RDF xmlns:dc="http://purl.org/dc/elements/1.1/" xmlns:cc="http://creativecommons.org/ns#" xmlns:rdf="http://www.w3.org/1999/02/22-rdf-syntax-ns#">
   <cc:Work>
    <dc:type rdf:resource="http://purl.org/dc/dcmitype/StillImage"/>
    <dc:date>2024-03-19T21:28:45.189823</dc:date>
    <dc:format>image/svg+xml</dc:format>
    <dc:creator>
     <cc:Agent>
      <dc:title>Matplotlib v3.8.3, https://matplotlib.org/</dc:title>
     </cc:Agent>
    </dc:creator>
   </cc:Work>
  </rdf:RDF>
 </metadata>
 <defs>
  <style type="text/css">*{stroke-linejoin: round; stroke-linecap: butt}</style>
 </defs>
 <g id="figure_1">
  <g id="patch_1">
   <path d="M 0 252 
L 360 252 
L 360 0 
L 0 0 
z
" style="fill: #ffffff"/>
  </g>
  <g id="axes_1">
   <g id="patch_2">
    <path d="M 52.84 204.92 
L 268.232 204.92 
L 268.232 20.16 
L 52.84 20.16 
z
" style="fill: #ffffff"/>
   </g>
   <g id="QuadContourSet_1">
    <path d="M 57.235755 204.92 
L 61.63151 204.92 
L 66.027265 204.92 
L 70.42302 204.92 
L 74.818776 204.92 
L 79.214531 204.92 
L 83.610286 204.92 
L 86.104506 204.92 
L 88.006041 201.642161 
L 88.176173 201.149388 
L 88.7683 197.378776 
L 88.771613 193.608163 
L 88.163912 189.837551 
L 88.006041 189.400403 
L 86.043247 186.066939 
L 83.65561 182.296327 
L 83.610286 182.249125 
L 79.214531 178.577517 
L 79.141063 178.525714 
L 74.818776 176.675263 
L 70.42302 174.852111 
L 70.043397 174.755102 
L 66.027265 174.3152 
L 61.63151 174.299662 
L 57.235755 174.747189 
L 57.20196 174.755102 
L 52.84 176.565216 
L 52.84 178.525714 
L 52.84 182.296327 
L 52.84 186.066939 
L 52.84 189.837551 
L 52.84 193.608163 
L 52.84 197.378776 
L 52.84 201.149388 
L 52.84 204.92 
z
M 127.567837 204.92 
L 131.963592 204.92 
L 136.359347 204.92 
L 140.755102 204.92 
L 145.150857 204.92 
L 149.546612 204.92 
L 153.942367 204.92 
L 158.338122 204.92 
L 162.733878 204.92 
L 167.129633 204.92 
L 171.525388 204.92 
L 175.921143 204.92 
L 180.316898 204.92 
L 184.712653 204.92 
L 189.108408 204.92 
L 193.504163 204.92 
L 197.899918 204.92 
L 202.295673 204.92 
L 206.691429 204.92 
L 211.087184 204.92 
L 215.482939 204.92 
L 219.878694 204.92 
L 224.274449 204.92 
L 228.670204 204.92 
L 230.506671 204.92 
L 233.065959 202.46625 
L 233.935683 201.149388 
L 235.680701 197.378776 
L 237.084111 193.608163 
L 237.435666 189.837551 
L 236.539092 186.066939 
L 235.197271 182.296327 
L 233.9731 178.525714 
L 233.065959 175.405193 
L 232.603205 174.755102 
L 231.198219 170.98449 
L 233.065959 167.395194 
L 233.210259 167.213878 
L 237.461714 165.433664 
L 241.857469 164.615901 
L 246.253224 164.119881 
L 250.64898 163.687901 
L 252.640734 163.443265 
L 255.044735 162.701508 
L 259.44049 161.305192 
L 263.836245 159.972648 
L 264.592586 159.672653 
L 268.232 157.263614 
L 268.232 155.902041 
L 268.232 152.131429 
L 268.232 148.360816 
L 268.232 144.590204 
L 268.232 140.819592 
L 268.232 137.04898 
L 268.232 133.278367 
L 268.232 129.507755 
L 268.232 125.737143 
L 268.232 121.966531 
L 268.232 119.682359 
L 266.36297 118.195918 
L 263.836245 116.512012 
L 260.320567 114.425306 
L 259.44049 113.984898 
L 255.044735 112.243891 
L 251.046822 110.654694 
L 250.64898 110.515918 
L 246.253224 109.196421 
L 241.857469 107.5988 
L 240.256953 106.884082 
L 237.461714 105.532863 
L 233.757161 103.113469 
L 233.065959 102.502429 
L 229.866507 99.342857 
L 228.670204 97.358903 
L 227.5513 95.572245 
L 226.392723 91.801633 
L 226.094715 88.03102 
L 226.247785 84.260408 
L 226.536414 80.489796 
L 226.730026 76.719184 
L 226.674486 72.948571 
L 226.278112 69.177959 
L 225.4893 65.407347 
L 224.274449 61.685391 
L 224.255762 61.636735 
L 222.364604 57.866122 
L 220.03358 54.09551 
L 219.878694 53.892335 
L 216.840663 50.324898 
L 215.482939 48.960335 
L 212.754402 46.554286 
L 211.087184 45.263968 
L 207.381695 42.783673 
L 206.691429 42.36773 
L 202.295673 40.163045 
L 199.613678 39.013061 
L 197.899918 38.340416 
L 193.504163 36.962558 
L 189.108408 35.816064 
L 186.529889 35.242449 
L 184.712653 34.837912 
L 180.316898 33.927054 
L 175.921143 32.790777 
L 172.63542 31.471837 
L 171.525388 30.8751 
L 167.78688 27.701224 
L 167.129633 26.90271 
L 165.163439 23.930612 
L 163.130082 20.16 
L 162.733878 20.16 
L 158.338122 20.16 
L 153.942367 20.16 
L 149.546612 20.16 
L 145.150857 20.16 
L 140.755102 20.16 
L 136.359347 20.16 
L 131.963592 20.16 
L 127.567837 20.16 
L 123.172082 20.16 
L 118.776327 20.16 
L 114.380571 20.16 
L 109.984816 20.16 
L 105.589061 20.16 
L 101.193306 20.16 
L 96.797551 20.16 
L 92.401796 20.16 
L 88.006041 20.16 
L 83.610286 20.16 
L 79.214531 20.16 
L 74.818776 20.16 
L 70.42302 20.16 
L 66.027265 20.16 
L 61.63151 20.16 
L 57.235755 20.16 
L 52.84 20.16 
L 52.84 23.930612 
L 52.84 27.701224 
L 52.84 31.471837 
L 52.84 35.242449 
L 52.84 39.013061 
L 52.84 42.783673 
L 52.84 46.554286 
L 52.84 50.324898 
L 52.84 54.09551 
L 52.84 57.866122 
L 52.84 61.636735 
L 52.84 65.407347 
L 52.84 69.177959 
L 52.84 72.948571 
L 52.84 76.719184 
L 52.84 80.489796 
L 52.84 84.260408 
L 52.84 88.03102 
L 52.84 91.801633 
L 52.84 95.572245 
L 52.84 99.342857 
L 52.84 103.113469 
L 52.84 106.884082 
L 52.84 110.654694 
L 52.84 114.425306 
L 52.84 118.195918 
L 52.84 121.966531 
L 52.84 123.024543 
L 57.235755 124.065577 
L 61.63151 124.997362 
L 65.36194 125.737143 
L 66.027265 125.844595 
L 70.42302 126.48392 
L 74.818776 127.115653 
L 79.214531 127.750117 
L 83.610286 128.36496 
L 88.006041 128.906765 
L 92.401796 129.302057 
L 96.797551 129.477433 
L 101.193306 129.38461 
L 105.589061 129.020816 
L 109.984816 128.436863 
L 114.380571 127.743157 
L 118.776327 127.150294 
L 123.172082 127.091403 
L 127.567837 128.408668 
L 129.012426 129.507755 
L 131.963592 132.862892 
L 132.225722 133.278367 
L 133.548992 137.04898 
L 133.632215 140.819592 
L 132.478771 144.590204 
L 131.963592 145.447794 
L 130.416452 148.360816 
L 127.808456 152.131429 
L 127.567837 152.440085 
L 125.467945 155.902041 
L 123.175074 159.672653 
L 123.172082 159.677782 
L 121.676872 163.443265 
L 120.403714 167.213878 
L 119.32592 170.98449 
L 118.776327 173.519785 
L 118.622099 174.755102 
L 118.389013 178.525714 
L 118.407974 182.296327 
L 118.684806 186.066939 
L 118.776327 186.684138 
L 119.568874 189.837551 
L 120.795928 193.608163 
L 122.167667 197.378776 
L 123.172082 199.813402 
L 124.01658 201.149388 
L 126.46157 204.92 
z
" clip-path="url(#pc28a8af2f4)" style="fill: #460a5d"/>
    <path d="M 88.006041 204.92 
L 88.976268 204.92 
L 90.408638 201.149388 
L 91.227377 197.378776 
L 91.264352 193.608163 
L 90.492825 189.837551 
L 89.031245 186.066939 
L 88.006041 184.393326 
L 86.365658 182.296327 
L 83.610286 179.426857 
L 82.537814 178.525714 
L 79.214531 176.411611 
L 76.195625 174.755102 
L 74.818776 174.209013 
L 70.42302 173.088209 
L 66.027265 172.472655 
L 61.63151 172.456439 
L 57.235755 173.045452 
L 52.84 174.145517 
L 52.84 174.755102 
L 52.84 176.565216 
L 57.20196 174.755102 
L 57.235755 174.747189 
L 61.63151 174.299662 
L 66.027265 174.3152 
L 70.043397 174.755102 
L 70.42302 174.852111 
L 74.818776 176.675263 
L 79.141063 178.525714 
L 79.214531 178.577517 
L 83.610286 182.249125 
L 83.65561 182.296327 
L 86.043247 186.066939 
L 88.006041 189.400403 
L 88.163912 189.837551 
L 88.771613 193.608163 
L 88.7683 197.378776 
L 88.176173 201.149388 
L 88.006041 201.642161 
L 86.104506 204.92 
z
M 123.172082 204.92 
L 126.46157 204.92 
L 124.01658 201.149388 
L 123.172082 199.813402 
L 122.167667 197.378776 
L 120.795928 193.608163 
L 119.568874 189.837551 
L 118.776327 186.684138 
L 118.684806 186.066939 
L 118.407974 182.296327 
L 118.389013 178.525714 
L 118.622099 174.755102 
L 118.776327 173.519785 
L 119.32592 170.98449 
L 120.403714 167.213878 
L 121.676872 163.443265 
L 123.172082 159.677782 
L 123.175074 159.672653 
L 125.467945 155.902041 
L 127.567837 152.440085 
L 127.808456 152.131429 
L 130.416452 148.360816 
L 131.963592 145.447794 
L 132.478771 144.590204 
L 133.632215 140.819592 
L 133.548992 137.04898 
L 132.225722 133.278367 
L 131.963592 132.862892 
L 129.012426 129.507755 
L 127.567837 128.408668 
L 123.172082 127.091403 
L 118.776327 127.150294 
L 114.380571 127.743157 
L 109.984816 128.436863 
L 105.589061 129.020816 
L 101.193306 129.38461 
L 96.797551 129.477433 
L 92.401796 129.302057 
L 88.006041 128.906765 
L 83.610286 128.36496 
L 79.214531 127.750117 
L 74.818776 127.115653 
L 70.42302 126.48392 
L 66.027265 125.844595 
L 65.36194 125.737143 
L 61.63151 124.997362 
L 57.235755 124.065577 
L 52.84 123.024543 
L 52.84 125.737143 
L 52.84 128.5424 
L 57.146662 129.507755 
L 57.235755 129.525827 
L 61.63151 130.332803 
L 66.027265 131.087492 
L 70.42302 131.834816 
L 74.818776 132.599724 
L 78.653663 133.278367 
L 79.214531 133.368105 
L 83.610286 134.035526 
L 88.006041 134.662471 
L 92.401796 135.210239 
L 96.797551 135.642406 
L 101.193306 135.938851 
L 105.589061 136.114302 
L 109.984816 136.250306 
L 114.380571 136.569682 
L 116.63064 137.04898 
L 118.776327 137.926564 
L 121.33027 140.819592 
L 121.712984 144.590204 
L 120.921328 148.360816 
L 119.736414 152.131429 
L 118.776327 154.824672 
L 118.483662 155.902041 
L 117.447286 159.672653 
L 116.577254 163.443265 
L 115.862414 167.213878 
L 115.305152 170.98449 
L 114.931314 174.755102 
L 114.786602 178.525714 
L 114.918415 182.296327 
L 115.35111 186.066939 
L 116.072757 189.837551 
L 117.045493 193.608163 
L 118.230111 197.378776 
L 118.776327 198.84936 
L 119.919096 201.149388 
L 121.841795 204.92 
z
M 233.065959 204.92 
L 233.571495 204.92 
L 236.230403 201.149388 
L 237.461714 199.127451 
L 238.050563 197.378776 
L 238.665844 193.608163 
L 238.729765 189.837551 
L 238.343619 186.066939 
L 237.670873 182.296327 
L 237.461714 181.343706 
L 236.168015 178.525714 
L 235.059573 174.755102 
L 235.219627 170.98449 
L 237.461714 168.801504 
L 241.219457 167.213878 
L 241.857469 167.008471 
L 246.253224 165.90194 
L 250.64898 165.127555 
L 255.044735 164.432803 
L 259.44049 163.658216 
L 260.376273 163.443265 
L 263.836245 162.030092 
L 268.232 160.220263 
L 268.232 159.672653 
L 268.232 157.263614 
L 264.592586 159.672653 
L 263.836245 159.972648 
L 259.44049 161.305192 
L 255.044735 162.701508 
L 252.640734 163.443265 
L 250.64898 163.687901 
L 246.253224 164.119881 
L 241.857469 164.615901 
L 237.461714 165.433664 
L 233.210259 167.213878 
L 233.065959 167.395194 
L 231.198219 170.98449 
L 232.603205 174.755102 
L 233.065959 175.405193 
L 233.9731 178.525714 
L 235.197271 182.296327 
L 236.539092 186.066939 
L 237.435666 189.837551 
L 237.084111 193.608163 
L 235.680701 197.378776 
L 233.935683 201.149388 
L 233.065959 202.46625 
L 230.506671 204.92 
z
M 268.232 119.682359 
L 268.232 118.195918 
L 268.232 115.451519 
L 266.758955 114.425306 
L 263.836245 112.574289 
L 260.236888 110.654694 
L 259.44049 110.23185 
L 255.044735 108.320987 
L 251.491215 106.884082 
L 250.64898 106.49841 
L 246.253224 104.58899 
L 243.27629 103.113469 
L 241.857469 102.151809 
L 238.227928 99.342857 
L 237.461714 98.38012 
L 235.376866 95.572245 
L 233.952002 91.801633 
L 233.451905 88.03102 
L 233.512749 84.260408 
L 233.811068 80.489796 
L 234.08689 76.719184 
L 234.161345 72.948571 
L 233.918644 69.177959 
L 233.270574 65.407347 
L 233.065959 64.683823 
L 232.288411 61.636735 
L 230.88033 57.866122 
L 228.861925 54.09551 
L 228.670204 53.802849 
L 226.443847 50.324898 
L 224.274449 47.696096 
L 223.290304 46.554286 
L 219.878694 43.224348 
L 219.379526 42.783673 
L 215.482939 39.695081 
L 214.479177 39.013061 
L 211.087184 36.809275 
L 208.115591 35.242449 
L 206.691429 34.471326 
L 202.295673 32.498772 
L 199.467922 31.471837 
L 197.899918 30.827876 
L 193.504163 29.282653 
L 189.108408 27.903225 
L 188.474644 27.701224 
L 184.712653 26.139172 
L 180.316898 23.950074 
L 180.286227 23.930612 
L 175.980607 20.16 
L 175.921143 20.16 
L 171.525388 20.16 
L 167.129633 20.16 
L 163.130082 20.16 
L 165.163439 23.930612 
L 167.129633 26.90271 
L 167.78688 27.701224 
L 171.525388 30.8751 
L 172.63542 31.471837 
L 175.921143 32.790777 
L 180.316898 33.927054 
L 184.712653 34.837912 
L 186.529889 35.242449 
L 189.108408 35.816064 
L 193.504163 36.962558 
L 197.899918 38.340416 
L 199.613678 39.013061 
L 202.295673 40.163045 
L 206.691429 42.36773 
L 207.381695 42.783673 
L 211.087184 45.263968 
L 212.754402 46.554286 
L 215.482939 48.960335 
L 216.840663 50.324898 
L 219.878694 53.892335 
L 220.03358 54.09551 
L 222.364604 57.866122 
L 224.255762 61.636735 
L 224.274449 61.685391 
L 225.4893 65.407347 
L 226.278112 69.177959 
L 226.674486 72.948571 
L 226.730026 76.719184 
L 226.536414 80.489796 
L 226.247785 84.260408 
L 226.094715 88.03102 
L 226.392723 91.801633 
L 227.5513 95.572245 
L 228.670204 97.358903 
L 229.866507 99.342857 
L 233.065959 102.502429 
L 233.757161 103.113469 
L 237.461714 105.532863 
L 240.256953 106.884082 
L 241.857469 107.5988 
L 246.253224 109.196421 
L 250.64898 110.515918 
L 251.046822 110.654694 
L 255.044735 112.243891 
L 259.44049 113.984898 
L 260.320567 114.425306 
L 263.836245 116.512012 
L 266.36297 118.195918 
z
" clip-path="url(#pc28a8af2f4)" style="fill: #481d6f"/>
    <path d="M 92.401796 201.625982 
L 92.594339 201.149388 
L 93.360581 197.378776 
L 93.433097 193.608163 
L 92.759988 189.837551 
L 92.401796 188.952896 
L 91.153441 186.066939 
L 88.81693 182.296327 
L 88.006041 181.386117 
L 85.167842 178.525714 
L 83.610286 177.291031 
L 79.823291 174.755102 
L 79.214531 174.421786 
L 74.818776 172.664531 
L 70.42302 171.38283 
L 68.012294 170.98449 
L 66.027265 170.742445 
L 61.63151 170.732234 
L 59.485137 170.98449 
L 57.235755 171.343715 
L 52.84 172.620756 
L 52.84 174.145517 
L 57.235755 173.045452 
L 61.63151 172.456439 
L 66.027265 172.472655 
L 70.42302 173.088209 
L 74.818776 174.209013 
L 76.195625 174.755102 
L 79.214531 176.411611 
L 82.537814 178.525714 
L 83.610286 179.426857 
L 86.365658 182.296327 
L 88.006041 184.393326 
L 89.031245 186.066939 
L 90.492825 189.837551 
L 91.264352 193.608163 
L 91.227377 197.378776 
L 90.408638 201.149388 
L 88.976268 204.92 
L 90.943961 204.92 
z
M 118.776327 204.92 
L 121.841795 204.92 
L 119.919096 201.149388 
L 118.776327 198.84936 
L 118.230111 197.378776 
L 117.045493 193.608163 
L 116.072757 189.837551 
L 115.35111 186.066939 
L 114.918415 182.296327 
L 114.786602 178.525714 
L 114.931314 174.755102 
L 115.305152 170.98449 
L 115.862414 167.213878 
L 116.577254 163.443265 
L 117.447286 159.672653 
L 118.483662 155.902041 
L 118.776327 154.824672 
L 119.736414 152.131429 
L 120.921328 148.360816 
L 121.712984 144.590204 
L 121.33027 140.819592 
L 118.776327 137.926564 
L 116.63064 137.04898 
L 114.380571 136.569682 
L 109.984816 136.250306 
L 105.589061 136.114302 
L 101.193306 135.938851 
L 96.797551 135.642406 
L 92.401796 135.210239 
L 88.006041 134.662471 
L 83.610286 134.035526 
L 79.214531 133.368105 
L 78.653663 133.278367 
L 74.818776 132.599724 
L 70.42302 131.834816 
L 66.027265 131.087492 
L 61.63151 130.332803 
L 57.235755 129.525827 
L 57.146662 129.507755 
L 52.84 128.5424 
L 52.84 129.507755 
L 52.84 133.278367 
L 52.84 133.408833 
L 57.235755 134.111994 
L 61.63151 134.798248 
L 66.027265 135.502272 
L 70.42302 136.250936 
L 74.767967 137.04898 
L 74.818776 137.057423 
L 79.214531 137.817438 
L 83.610286 138.622162 
L 88.006041 139.460349 
L 92.401796 140.322291 
L 94.961793 140.819592 
L 96.797551 141.197437 
L 101.193306 142.194461 
L 105.589061 143.587464 
L 107.725407 144.590204 
L 109.984816 146.379973 
L 111.458186 148.360816 
L 112.610295 152.131429 
L 112.890206 155.902041 
L 112.82905 159.672653 
L 112.642549 163.443265 
L 112.428982 167.213878 
L 112.24232 170.98449 
L 112.123732 174.755102 
L 112.115894 178.525714 
L 112.267325 182.296327 
L 112.628899 186.066939 
L 113.244642 189.837551 
L 114.140207 193.608163 
L 114.380571 194.385977 
L 115.432375 197.378776 
L 116.894296 201.149388 
L 118.447771 204.92 
z
M 237.461714 202.162879 
L 238.022337 201.149388 
L 239.319455 197.378776 
L 239.982188 193.608163 
L 240.004872 189.837551 
L 239.499598 186.066939 
L 238.720609 182.296327 
L 237.897815 178.525714 
L 237.461714 175.50054 
L 237.241008 174.755102 
L 237.461714 173.815261 
L 238.196129 170.98449 
L 241.857469 168.630389 
L 246.253224 167.483266 
L 247.879663 167.213878 
L 250.64898 166.567209 
L 255.044735 165.677658 
L 259.44049 164.815309 
L 263.836245 163.81076 
L 265.123521 163.443265 
L 268.232 162.055514 
L 268.232 160.220263 
L 263.836245 162.030092 
L 260.376273 163.443265 
L 259.44049 163.658216 
L 255.044735 164.432803 
L 250.64898 165.127555 
L 246.253224 165.90194 
L 241.857469 167.008471 
L 241.219457 167.213878 
L 237.461714 168.801504 
L 235.219627 170.98449 
L 235.059573 174.755102 
L 236.168015 178.525714 
L 237.461714 181.343706 
L 237.670873 182.296327 
L 238.343619 186.066939 
L 238.729765 189.837551 
L 238.665844 193.608163 
L 238.050563 197.378776 
L 237.461714 199.127451 
L 236.230403 201.149388 
L 233.571495 204.92 
L 235.29231 204.92 
z
M 268.232 115.451519 
L 268.232 114.425306 
L 268.232 111.836444 
L 266.346548 110.654694 
L 263.836245 109.044149 
L 259.616761 106.884082 
L 259.44049 106.777395 
L 255.044735 104.499115 
L 252.059127 103.113469 
L 250.64898 102.193792 
L 246.253224 99.369785 
L 246.214274 99.342857 
L 242.942988 95.572245 
L 241.857469 92.971073 
L 241.402238 91.801633 
L 241.100946 88.03102 
L 241.501417 84.260408 
L 241.857469 82.35395 
L 242.349644 80.489796 
L 243.405376 76.719184 
L 244.300906 72.948571 
L 244.890903 69.177959 
L 245.109581 65.407347 
L 244.917911 61.636735 
L 244.259507 57.866122 
L 243.023811 54.09551 
L 241.857469 51.706293 
L 241.304845 50.324898 
L 239.269344 46.554286 
L 237.461714 44.11949 
L 236.55474 42.783673 
L 233.236419 39.013061 
L 233.065959 38.838541 
L 229.471713 35.242449 
L 228.670204 34.534691 
L 224.841622 31.471837 
L 224.274449 31.034871 
L 219.878694 28.034041 
L 219.304957 27.701224 
L 215.482939 25.294039 
L 212.726074 23.930612 
L 211.087184 22.980616 
L 206.691429 20.788131 
L 205.268644 20.16 
L 202.295673 20.16 
L 197.899918 20.16 
L 193.504163 20.16 
L 189.108408 20.16 
L 184.712653 20.16 
L 180.316898 20.16 
L 175.980607 20.16 
L 180.286227 23.930612 
L 180.316898 23.950074 
L 184.712653 26.139172 
L 188.474644 27.701224 
L 189.108408 27.903225 
L 193.504163 29.282653 
L 197.899918 30.827876 
L 199.467922 31.471837 
L 202.295673 32.498772 
L 206.691429 34.471326 
L 208.115591 35.242449 
L 211.087184 36.809275 
L 214.479177 39.013061 
L 215.482939 39.695081 
L 219.379526 42.783673 
L 219.878694 43.224348 
L 223.290304 46.554286 
L 224.274449 47.696096 
L 226.443847 50.324898 
L 228.670204 53.802849 
L 228.861925 54.09551 
L 230.88033 57.866122 
L 232.288411 61.636735 
L 233.065959 64.683823 
L 233.270574 65.407347 
L 233.918644 69.177959 
L 234.161345 72.948571 
L 234.08689 76.719184 
L 233.811068 80.489796 
L 233.512749 84.260408 
L 233.451905 88.03102 
L 233.952002 91.801633 
L 235.376866 95.572245 
L 237.461714 98.38012 
L 238.227928 99.342857 
L 241.857469 102.151809 
L 243.27629 103.113469 
L 246.253224 104.58899 
L 250.64898 106.49841 
L 251.491215 106.884082 
L 255.044735 108.320987 
L 259.44049 110.23185 
L 260.236888 110.654694 
L 263.836245 112.574289 
L 266.758955 114.425306 
z
" clip-path="url(#pc28a8af2f4)" style="fill: #472e7c"/>
    <path d="M 92.401796 204.92 
L 92.8761 204.92 
L 94.390541 201.149388 
L 95.195876 197.378776 
L 95.329928 193.608163 
L 94.746443 189.837551 
L 93.300538 186.066939 
L 92.401796 184.724684 
L 90.871358 182.296327 
L 88.006041 179.080055 
L 87.456003 178.525714 
L 83.610286 175.477194 
L 82.531959 174.755102 
L 79.214531 172.938701 
L 74.818776 171.12005 
L 74.367099 170.98449 
L 70.42302 170.003789 
L 66.027265 169.483969 
L 61.63151 169.479885 
L 57.235755 169.991491 
L 53.212905 170.98449 
L 52.84 171.095994 
L 52.84 172.620756 
L 57.235755 171.343715 
L 59.485137 170.98449 
L 61.63151 170.732234 
L 66.027265 170.742445 
L 68.012294 170.98449 
L 70.42302 171.38283 
L 74.818776 172.664531 
L 79.214531 174.421786 
L 79.823291 174.755102 
L 83.610286 177.291031 
L 85.167842 178.525714 
L 88.006041 181.386117 
L 88.81693 182.296327 
L 91.153441 186.066939 
L 92.401796 188.952896 
L 92.759988 189.837551 
L 93.433097 193.608163 
L 93.360581 197.378776 
L 92.594339 201.149388 
L 92.401796 201.625982 
L 90.943961 204.92 
z
M 114.380571 201.625164 
L 115.736262 204.92 
L 118.447771 204.92 
L 116.894296 201.149388 
L 115.432375 197.378776 
L 114.380571 194.385977 
L 114.140207 193.608163 
L 113.244642 189.837551 
L 112.628899 186.066939 
L 112.267325 182.296327 
L 112.115894 178.525714 
L 112.123732 174.755102 
L 112.24232 170.98449 
L 112.428982 167.213878 
L 112.642549 163.443265 
L 112.82905 159.672653 
L 112.890206 155.902041 
L 112.610295 152.131429 
L 111.458186 148.360816 
L 109.984816 146.379973 
L 107.725407 144.590204 
L 105.589061 143.587464 
L 101.193306 142.194461 
L 96.797551 141.197437 
L 94.961793 140.819592 
L 92.401796 140.322291 
L 88.006041 139.460349 
L 83.610286 138.622162 
L 79.214531 137.817438 
L 74.818776 137.057423 
L 74.767967 137.04898 
L 70.42302 136.250936 
L 66.027265 135.502272 
L 61.63151 134.798248 
L 57.235755 134.111994 
L 52.84 133.408833 
L 52.84 137.04898 
L 52.84 137.857054 
L 57.235755 138.272837 
L 61.63151 138.775834 
L 66.027265 139.373556 
L 70.42302 140.076111 
L 74.441226 140.819592 
L 74.818776 140.882305 
L 79.214531 141.698229 
L 83.610286 142.629178 
L 88.006041 143.695395 
L 91.26306 144.590204 
L 92.401796 144.909737 
L 96.797551 146.35282 
L 101.071632 148.360816 
L 101.193306 148.430851 
L 105.550742 152.131429 
L 105.589061 152.181953 
L 107.631408 155.902041 
L 108.656561 159.672653 
L 109.155143 163.443265 
L 109.381232 167.213878 
L 109.472237 170.98449 
L 109.516157 174.755102 
L 109.587152 178.525714 
L 109.769155 182.296327 
L 109.984816 184.378927 
L 110.157822 186.066939 
L 110.785306 189.837551 
L 111.680157 193.608163 
L 112.834718 197.378776 
L 114.198703 201.149388 
z
M 237.461714 204.349883 
L 239.2321 201.149388 
L 240.588346 197.378776 
L 241.298532 193.608163 
L 241.27998 189.837551 
L 240.655577 186.066939 
L 239.770344 182.296327 
L 238.959939 178.525714 
L 238.669589 174.755102 
L 240.606138 170.98449 
L 241.857469 170.179932 
L 246.253224 168.504419 
L 250.64898 167.666716 
L 253.733884 167.213878 
L 255.044735 166.922512 
L 259.44049 165.972403 
L 263.836245 164.984334 
L 268.232 163.765723 
L 268.232 163.443265 
L 268.232 162.055514 
L 265.123521 163.443265 
L 263.836245 163.81076 
L 259.44049 164.815309 
L 255.044735 165.677658 
L 250.64898 166.567209 
L 247.879663 167.213878 
L 246.253224 167.483266 
L 241.857469 168.630389 
L 238.196129 170.98449 
L 237.461714 173.815261 
L 237.241008 174.755102 
L 237.461714 175.50054 
L 237.897815 178.525714 
L 238.720609 182.296327 
L 239.499598 186.066939 
L 240.004872 189.837551 
L 239.982188 193.608163 
L 239.319455 197.378776 
L 238.022337 201.149388 
L 237.461714 202.162879 
L 235.29231 204.92 
L 237.013125 204.92 
z
M 268.232 111.836444 
L 268.232 110.654694 
L 268.232 107.741192 
L 266.798275 106.884082 
L 263.836245 104.779539 
L 260.820961 103.113469 
L 259.44049 102.00606 
L 255.46189 99.342857 
L 255.044735 98.808438 
L 252.382029 95.572245 
L 251.617461 91.801633 
L 253.311463 88.03102 
L 255.044735 86.184957 
L 258.887781 84.260408 
L 259.44049 84.006338 
L 263.836245 83.209224 
L 268.232 83.263192 
L 268.232 80.489796 
L 268.232 76.719184 
L 268.232 72.948571 
L 268.232 69.177959 
L 268.232 65.407347 
L 268.232 61.636735 
L 268.232 57.866122 
L 268.232 54.09551 
L 268.232 50.324898 
L 268.232 46.554286 
L 268.232 42.783673 
L 268.232 39.013061 
L 268.232 35.242449 
L 268.232 31.471837 
L 268.232 27.701224 
L 268.232 23.930612 
L 268.232 20.16 
L 263.836245 20.16 
L 259.44049 20.16 
L 255.044735 20.16 
L 250.64898 20.16 
L 246.253224 20.16 
L 241.857469 20.16 
L 237.461714 20.16 
L 233.065959 20.16 
L 228.670204 20.16 
L 224.274449 20.16 
L 219.878694 20.16 
L 215.482939 20.16 
L 211.087184 20.16 
L 206.691429 20.16 
L 205.268644 20.16 
L 206.691429 20.788131 
L 211.087184 22.980616 
L 212.726074 23.930612 
L 215.482939 25.294039 
L 219.304957 27.701224 
L 219.878694 28.034041 
L 224.274449 31.034871 
L 224.841622 31.471837 
L 228.670204 34.534691 
L 229.471713 35.242449 
L 233.065959 38.838541 
L 233.236419 39.013061 
L 236.55474 42.783673 
L 237.461714 44.11949 
L 239.269344 46.554286 
L 241.304845 50.324898 
L 241.857469 51.706293 
L 243.023811 54.09551 
L 244.259507 57.866122 
L 244.917911 61.636735 
L 245.109581 65.407347 
L 244.890903 69.177959 
L 244.300906 72.948571 
L 243.405376 76.719184 
L 242.349644 80.489796 
L 241.857469 82.35395 
L 241.501417 84.260408 
L 241.100946 88.03102 
L 241.402238 91.801633 
L 241.857469 92.971073 
L 242.942988 95.572245 
L 246.214274 99.342857 
L 246.253224 99.369785 
L 250.64898 102.193792 
L 252.059127 103.113469 
L 255.044735 104.499115 
L 259.44049 106.777395 
L 259.616761 106.884082 
L 263.836245 109.044149 
L 266.346548 110.654694 
z
" clip-path="url(#pc28a8af2f4)" style="fill: #423f85"/>
    <path d="M 96.186742 201.149388 
L 96.797551 198.405786 
L 97.151708 197.378776 
L 97.482169 193.608163 
L 96.797551 190.311708 
L 96.732898 189.837551 
L 95.483208 186.066939 
L 93.087274 182.296327 
L 92.401796 181.608851 
L 89.760257 178.525714 
L 88.006041 177.040784 
L 85.104125 174.755102 
L 83.610286 173.773031 
L 79.214531 171.455615 
L 78.079164 170.98449 
L 74.818776 169.747733 
L 70.42302 168.724205 
L 66.027265 168.225493 
L 61.63151 168.227537 
L 57.235755 168.732788 
L 52.84 169.768665 
L 52.84 170.98449 
L 52.84 171.095994 
L 53.212905 170.98449 
L 57.235755 169.991491 
L 61.63151 169.479885 
L 66.027265 169.483969 
L 70.42302 170.003789 
L 74.367099 170.98449 
L 74.818776 171.12005 
L 79.214531 172.938701 
L 82.531959 174.755102 
L 83.610286 175.477194 
L 87.456003 178.525714 
L 88.006041 179.080055 
L 90.871358 182.296327 
L 92.401796 184.724684 
L 93.300538 186.066939 
L 94.746443 189.837551 
L 95.329928 193.608163 
L 95.195876 197.378776 
L 94.390541 201.149388 
L 92.8761 204.92 
L 94.706577 204.92 
z
M 114.380571 204.92 
L 115.736262 204.92 
L 114.380571 201.625164 
L 114.198703 201.149388 
L 112.834718 197.378776 
L 111.680157 193.608163 
L 110.785306 189.837551 
L 110.157822 186.066939 
L 109.984816 184.378927 
L 109.769155 182.296327 
L 109.587152 178.525714 
L 109.516157 174.755102 
L 109.472237 170.98449 
L 109.381232 167.213878 
L 109.155143 163.443265 
L 108.656561 159.672653 
L 107.631408 155.902041 
L 105.589061 152.181953 
L 105.550742 152.131429 
L 101.193306 148.430851 
L 101.071632 148.360816 
L 96.797551 146.35282 
L 92.401796 144.909737 
L 91.26306 144.590204 
L 88.006041 143.695395 
L 83.610286 142.629178 
L 79.214531 141.698229 
L 74.818776 140.882305 
L 74.441226 140.819592 
L 70.42302 140.076111 
L 66.027265 139.373556 
L 61.63151 138.775834 
L 57.235755 138.272837 
L 52.84 137.857054 
L 52.84 140.819592 
L 52.84 141.827794 
L 57.235755 141.980304 
L 61.63151 142.303865 
L 66.027265 142.786803 
L 70.42302 143.427232 
L 74.818776 144.230441 
L 76.484361 144.590204 
L 79.214531 145.137389 
L 83.610286 146.18116 
L 88.006041 147.46174 
L 90.565735 148.360816 
L 92.401796 149.036723 
L 96.797551 151.136845 
L 98.347705 152.131429 
L 101.193306 154.475467 
L 102.434168 155.902041 
L 104.637064 159.672653 
L 105.589061 162.42306 
L 105.876624 163.443265 
L 106.565102 167.213878 
L 106.926221 170.98449 
L 107.096336 174.755102 
L 107.177866 178.525714 
L 107.272446 182.296327 
L 107.504263 186.066939 
L 108.028043 189.837551 
L 109.001431 193.608163 
L 109.984816 196.148812 
L 110.357593 197.378776 
L 111.679642 201.149388 
L 113.081811 204.92 
z
M 237.461714 204.92 
L 238.378417 204.92 
L 240.441863 201.149388 
L 241.857237 197.378776 
L 241.857469 197.377577 
L 242.341999 193.608163 
L 242.282976 189.837551 
L 241.857469 186.322148 
L 241.811556 186.066939 
L 240.82008 182.296327 
L 240.022064 178.525714 
L 240.013427 174.755102 
L 241.857469 171.962809 
L 242.964256 170.98449 
L 246.253224 169.525573 
L 250.64898 168.488837 
L 255.044735 167.803272 
L 259.058354 167.213878 
L 259.44049 167.129496 
L 263.836245 166.157908 
L 268.232 165.088159 
L 268.232 163.765723 
L 263.836245 164.984334 
L 259.44049 165.972403 
L 255.044735 166.922512 
L 253.733884 167.213878 
L 250.64898 167.666716 
L 246.253224 168.504419 
L 241.857469 170.179932 
L 240.606138 170.98449 
L 238.669589 174.755102 
L 238.959939 178.525714 
L 239.770344 182.296327 
L 240.655577 186.066939 
L 241.27998 189.837551 
L 241.298532 193.608163 
L 240.588346 197.378776 
L 239.2321 201.149388 
L 237.461714 204.349883 
L 237.013125 204.92 
z
M 268.232 107.741192 
L 268.232 106.884082 
L 268.232 103.113469 
L 268.232 99.342857 
L 268.232 95.572245 
L 268.232 91.801633 
L 268.232 88.03102 
L 268.232 84.260408 
L 268.232 83.263192 
L 263.836245 83.209224 
L 259.44049 84.006338 
L 258.887781 84.260408 
L 255.044735 86.184957 
L 253.311463 88.03102 
L 251.617461 91.801633 
L 252.382029 95.572245 
L 255.044735 98.808438 
L 255.46189 99.342857 
L 259.44049 102.00606 
L 260.820961 103.113469 
L 263.836245 104.779539 
L 266.798275 106.884082 
z
" clip-path="url(#pc28a8af2f4)" style="fill: #3d4e8a"/>
    <path d="M 96.797551 204.251134 
L 98.653358 201.149388 
L 99.933931 197.378776 
L 100.507758 193.608163 
L 100.354623 189.837551 
L 98.954499 186.066939 
L 96.797551 184.139732 
L 95.774851 182.296327 
L 92.401796 178.913441 
L 92.069604 178.525714 
L 88.006041 175.085941 
L 87.586006 174.755102 
L 83.610286 172.141407 
L 81.370193 170.98449 
L 79.214531 169.912008 
L 74.818776 168.391981 
L 70.42302 167.444622 
L 68.31756 167.213878 
L 66.027265 166.922115 
L 61.63151 166.933248 
L 59.522881 167.213878 
L 57.235755 167.474086 
L 52.84 168.456913 
L 52.84 169.768665 
L 57.235755 168.732788 
L 61.63151 168.227537 
L 66.027265 168.225493 
L 70.42302 168.724205 
L 74.818776 169.747733 
L 78.079164 170.98449 
L 79.214531 171.455615 
L 83.610286 173.773031 
L 85.104125 174.755102 
L 88.006041 177.040784 
L 89.760257 178.525714 
L 92.401796 181.608851 
L 93.087274 182.296327 
L 95.483208 186.066939 
L 96.732898 189.837551 
L 96.797551 190.311708 
L 97.482169 193.608163 
L 97.151708 197.378776 
L 96.797551 198.405786 
L 96.186742 201.149388 
L 94.706577 204.92 
L 96.537053 204.92 
z
M 109.984816 203.524054 
L 110.484411 204.92 
L 113.081811 204.92 
L 111.679642 201.149388 
L 110.357593 197.378776 
L 109.984816 196.148812 
L 109.001431 193.608163 
L 108.028043 189.837551 
L 107.504263 186.066939 
L 107.272446 182.296327 
L 107.177866 178.525714 
L 107.096336 174.755102 
L 106.926221 170.98449 
L 106.565102 167.213878 
L 105.876624 163.443265 
L 105.589061 162.42306 
L 104.637064 159.672653 
L 102.434168 155.902041 
L 101.193306 154.475467 
L 98.347705 152.131429 
L 96.797551 151.136845 
L 92.401796 149.036723 
L 90.565735 148.360816 
L 88.006041 147.46174 
L 83.610286 146.18116 
L 79.214531 145.137389 
L 76.484361 144.590204 
L 74.818776 144.230441 
L 70.42302 143.427232 
L 66.027265 142.786803 
L 61.63151 142.303865 
L 57.235755 141.980304 
L 52.84 141.827794 
L 52.84 144.590204 
L 52.84 145.332041 
L 57.235755 145.288645 
L 61.63151 145.474098 
L 66.027265 145.866356 
L 70.42302 146.454468 
L 74.818776 147.240379 
L 79.214531 148.244079 
L 79.645495 148.360816 
L 83.610286 149.421838 
L 88.006041 150.900102 
L 90.868251 152.131429 
L 92.401796 152.856767 
L 96.797551 155.646293 
L 97.104806 155.902041 
L 100.574614 159.672653 
L 101.193306 160.651706 
L 102.561649 163.443265 
L 103.673454 167.213878 
L 104.260142 170.98449 
L 104.489857 174.755102 
L 104.449475 178.525714 
L 104.189747 182.296327 
L 103.805386 186.066939 
L 103.781736 189.837551 
L 105.589061 192.36158 
L 105.837909 193.608163 
L 107.095731 197.378776 
L 108.822421 201.149388 
z
M 241.651626 201.149388 
L 241.857469 200.601017 
L 242.783564 197.378776 
L 243.184095 193.608163 
L 243.060717 189.837551 
L 242.563751 186.066939 
L 241.866206 182.296327 
L 241.857469 182.236382 
L 241.084188 178.525714 
L 241.357264 174.755102 
L 241.857469 173.99768 
L 245.266333 170.98449 
L 246.253224 170.546726 
L 250.64898 169.310958 
L 255.044735 168.572773 
L 259.44049 167.968305 
L 263.836245 167.31 
L 264.458741 167.213878 
L 268.232 166.410594 
L 268.232 165.088159 
L 263.836245 166.157908 
L 259.44049 167.129496 
L 259.058354 167.213878 
L 255.044735 167.803272 
L 250.64898 168.488837 
L 246.253224 169.525573 
L 242.964256 170.98449 
L 241.857469 171.962809 
L 240.013427 174.755102 
L 240.022064 178.525714 
L 240.82008 182.296327 
L 241.811556 186.066939 
L 241.857469 186.322148 
L 242.282976 189.837551 
L 242.341999 193.608163 
L 241.857469 197.377577 
L 241.857237 197.378776 
L 240.441863 201.149388 
L 238.378417 204.92 
L 239.618351 204.92 
z
" clip-path="url(#pc28a8af2f4)" style="fill: #365d8d"/>
    <path d="M 96.797551 204.92 
L 99.536313 204.92 
L 101.193306 201.742022 
L 105.589061 201.817926 
L 107.085619 204.92 
L 109.984816 204.92 
L 110.484411 204.92 
L 109.984816 203.524054 
L 108.822421 201.149388 
L 107.095731 197.378776 
L 105.837909 193.608163 
L 105.589061 192.36158 
L 103.781736 189.837551 
L 103.805386 186.066939 
L 104.189747 182.296327 
L 104.449475 178.525714 
L 104.489857 174.755102 
L 104.260142 170.98449 
L 103.673454 167.213878 
L 102.561649 163.443265 
L 101.193306 160.651706 
L 100.574614 159.672653 
L 97.104806 155.902041 
L 96.797551 155.646293 
L 92.401796 152.856767 
L 90.868251 152.131429 
L 88.006041 150.900102 
L 83.610286 149.421838 
L 79.645495 148.360816 
L 79.214531 148.244079 
L 74.818776 147.240379 
L 70.42302 146.454468 
L 66.027265 145.866356 
L 61.63151 145.474098 
L 57.235755 145.288645 
L 52.84 145.332041 
L 52.84 148.360816 
L 52.84 148.499261 
L 56.002458 148.360816 
L 57.235755 148.30677 
L 59.765098 148.360816 
L 61.63151 148.398782 
L 66.027265 148.74571 
L 70.42302 149.324701 
L 74.818776 150.123051 
L 79.214531 151.15717 
L 82.471898 152.131429 
L 83.610286 152.499515 
L 88.006041 154.224162 
L 91.270144 155.902041 
L 92.401796 156.595047 
L 96.225116 159.672653 
L 96.797551 160.295314 
L 99.003873 163.443265 
L 100.633717 167.213878 
L 101.193306 169.539196 
L 101.461255 170.98449 
L 101.575067 174.755102 
L 101.193306 177.882465 
L 100.666457 178.525714 
L 96.797551 179.438394 
L 95.972485 178.525714 
L 92.401796 176.123475 
L 90.77583 174.755102 
L 88.006041 172.925897 
L 84.700888 170.98449 
L 83.610286 170.366473 
L 79.214531 168.340223 
L 75.498301 167.213878 
L 74.818776 166.960184 
L 70.42302 165.889228 
L 66.027265 165.43473 
L 61.63151 165.46085 
L 57.235755 165.972471 
L 52.84 167.118354 
L 52.84 167.213878 
L 52.84 168.456913 
L 57.235755 167.474086 
L 59.522881 167.213878 
L 61.63151 166.933248 
L 66.027265 166.922115 
L 68.31756 167.213878 
L 70.42302 167.444622 
L 74.818776 168.391981 
L 79.214531 169.912008 
L 81.370193 170.98449 
L 83.610286 172.141407 
L 87.586006 174.755102 
L 88.006041 175.085941 
L 92.069604 178.525714 
L 92.401796 178.913441 
L 95.774851 182.296327 
L 96.797551 184.139732 
L 98.954499 186.066939 
L 100.354623 189.837551 
L 100.507758 193.608163 
L 99.933931 197.378776 
L 98.653358 201.149388 
L 96.797551 204.251134 
L 96.537053 204.92 
z
M 241.857469 203.062369 
L 242.739675 201.149388 
L 243.709827 197.378776 
L 244.02619 193.608163 
L 243.838458 189.837551 
L 243.299246 186.066939 
L 242.608996 182.296327 
L 242.089882 178.525714 
L 242.61633 174.755102 
L 246.253224 171.586216 
L 247.816025 170.98449 
L 250.64898 170.133079 
L 255.044735 169.342274 
L 259.44049 168.782078 
L 263.836245 168.269208 
L 268.232 167.70751 
L 268.232 167.213878 
L 268.232 166.410594 
L 264.458741 167.213878 
L 263.836245 167.31 
L 259.44049 167.968305 
L 255.044735 168.572773 
L 250.64898 169.310958 
L 246.253224 170.546726 
L 245.266333 170.98449 
L 241.857469 173.99768 
L 241.357264 174.755102 
L 241.084188 178.525714 
L 241.857469 182.236382 
L 241.866206 182.296327 
L 242.563751 186.066939 
L 243.060717 189.837551 
L 243.184095 193.608163 
L 242.783564 197.378776 
L 241.857469 200.601017 
L 241.651626 201.149388 
L 239.618351 204.92 
L 240.858284 204.92 
z
" clip-path="url(#pc28a8af2f4)" style="fill: #306a8e"/>
    <path d="M 101.193306 204.92 
L 105.589061 204.92 
L 107.085619 204.92 
L 105.589061 201.817926 
L 101.193306 201.742022 
L 99.536313 204.92 
z
M 241.857469 204.92 
L 242.117937 204.92 
L 243.802769 201.149388 
L 244.636091 197.378776 
L 244.868285 193.608163 
L 244.616199 189.837551 
L 244.03474 186.066939 
L 243.351786 182.296327 
L 242.944501 178.525714 
L 243.825132 174.755102 
L 246.253224 172.639465 
L 250.551521 170.98449 
L 250.64898 170.9552 
L 255.044735 170.111775 
L 259.44049 169.59585 
L 263.836245 169.228416 
L 268.232 168.964939 
L 268.232 167.70751 
L 263.836245 168.269208 
L 259.44049 168.782078 
L 255.044735 169.342274 
L 250.64898 170.133079 
L 247.816025 170.98449 
L 246.253224 171.586216 
L 242.61633 174.755102 
L 242.089882 178.525714 
L 242.608996 182.296327 
L 243.299246 186.066939 
L 243.838458 189.837551 
L 244.02619 193.608163 
L 243.709827 197.378776 
L 242.739675 201.149388 
L 241.857469 203.062369 
L 240.858284 204.92 
z
M 96.797551 179.438394 
L 100.666457 178.525714 
L 101.193306 177.882465 
L 101.575067 174.755102 
L 101.461255 170.98449 
L 101.193306 169.539196 
L 100.633717 167.213878 
L 99.003873 163.443265 
L 96.797551 160.295314 
L 96.225116 159.672653 
L 92.401796 156.595047 
L 91.270144 155.902041 
L 88.006041 154.224162 
L 83.610286 152.499515 
L 82.471898 152.131429 
L 79.214531 151.15717 
L 74.818776 150.123051 
L 70.42302 149.324701 
L 66.027265 148.74571 
L 61.63151 148.398782 
L 59.765098 148.360816 
L 57.235755 148.30677 
L 56.002458 148.360816 
L 52.84 148.499261 
L 52.84 151.514272 
L 57.235755 151.238856 
L 61.63151 151.271969 
L 66.027265 151.578785 
L 70.367687 152.131429 
L 70.42302 152.139991 
L 74.818776 153.079126 
L 79.214531 154.221386 
L 83.610286 155.640588 
L 84.246497 155.902041 
L 88.006041 157.777376 
L 91.063234 159.672653 
L 92.401796 160.809274 
L 94.832361 163.443265 
L 96.797551 166.759373 
L 97.000619 167.213878 
L 97.444525 170.98449 
L 96.797551 172.888002 
L 92.401796 172.719453 
L 88.942999 170.98449 
L 88.006041 170.547833 
L 83.610286 168.242272 
L 80.837586 167.213878 
L 79.214531 166.448416 
L 74.818776 165.024087 
L 70.42302 164.273157 
L 66.027265 163.947345 
L 61.63151 163.988452 
L 57.235755 164.407553 
L 52.84 165.294864 
L 52.84 167.118354 
L 57.235755 165.972471 
L 61.63151 165.46085 
L 66.027265 165.43473 
L 70.42302 165.889228 
L 74.818776 166.960184 
L 75.498301 167.213878 
L 79.214531 168.340223 
L 83.610286 170.366473 
L 84.700888 170.98449 
L 88.006041 172.925897 
L 90.77583 174.755102 
L 92.401796 176.123475 
L 95.972485 178.525714 
z
" clip-path="url(#pc28a8af2f4)" style="fill: #2a778e"/>
    <path d="M 244.865862 201.149388 
L 245.562354 197.378776 
L 245.710381 193.608163 
L 245.39394 189.837551 
L 244.770235 186.066939 
L 244.094576 182.296327 
L 243.799119 178.525714 
L 245.033934 174.755102 
L 246.253224 173.692714 
L 250.64898 171.743665 
L 254.507998 170.98449 
L 255.044735 170.881276 
L 259.44049 170.409623 
L 263.836245 170.187624 
L 268.232 170.222368 
L 268.232 168.964939 
L 263.836245 169.228416 
L 259.44049 169.59585 
L 255.044735 170.111775 
L 250.64898 170.9552 
L 250.551521 170.98449 
L 246.253224 172.639465 
L 243.825132 174.755102 
L 242.944501 178.525714 
L 243.351786 182.296327 
L 244.03474 186.066939 
L 244.616199 189.837551 
L 244.868285 193.608163 
L 244.636091 197.378776 
L 243.802769 201.149388 
L 242.117937 204.92 
L 243.45943 204.92 
z
M 268.232 204.92 
L 268.232 203.959902 
L 267.635569 204.92 
z
M 92.401796 172.719453 
L 96.797551 172.888002 
L 97.444525 170.98449 
L 97.000619 167.213878 
L 96.797551 166.759373 
L 94.832361 163.443265 
L 92.401796 160.809274 
L 91.063234 159.672653 
L 88.006041 157.777376 
L 84.246497 155.902041 
L 83.610286 155.640588 
L 79.214531 154.221386 
L 74.818776 153.079126 
L 70.42302 152.139991 
L 70.367687 152.131429 
L 66.027265 151.578785 
L 61.63151 151.271969 
L 57.235755 151.238856 
L 52.84 151.514272 
L 52.84 152.131429 
L 52.84 154.934158 
L 57.235755 154.661066 
L 61.63151 154.710778 
L 66.027265 155.03481 
L 70.42302 155.583177 
L 72.211216 155.902041 
L 74.818776 156.84181 
L 79.214531 158.252135 
L 83.524863 159.672653 
L 83.610286 159.758265 
L 88.006041 163.040778 
L 88.481405 163.443265 
L 88.006041 164.886667 
L 83.610286 164.64054 
L 79.214531 163.74739 
L 77.54297 163.443265 
L 74.818776 162.271091 
L 70.42302 161.474942 
L 66.027265 161.241333 
L 61.63151 161.395647 
L 57.235755 162.010194 
L 53.00973 163.443265 
L 52.84 163.471374 
L 52.84 165.294864 
L 57.235755 164.407553 
L 61.63151 163.988452 
L 66.027265 163.947345 
L 70.42302 164.273157 
L 74.818776 165.024087 
L 79.214531 166.448416 
L 80.837586 167.213878 
L 83.610286 168.242272 
L 88.006041 170.547833 
L 88.942999 170.98449 
z
" clip-path="url(#pc28a8af2f4)" style="fill: #25838e"/>
    <path d="M 245.928955 201.149388 
L 246.253224 199.09249 
L 246.546724 197.378776 
L 246.595665 193.608163 
L 246.253224 190.696577 
L 246.171682 189.837551 
L 245.505729 186.066939 
L 244.837367 182.296327 
L 244.653738 178.525714 
L 246.242737 174.755102 
L 246.253224 174.745964 
L 250.64898 172.530887 
L 255.044735 171.629304 
L 259.44049 171.229984 
L 263.836245 171.166762 
L 268.232 171.602553 
L 268.232 170.98449 
L 268.232 170.222368 
L 263.836245 170.187624 
L 259.44049 170.409623 
L 255.044735 170.881276 
L 254.507998 170.98449 
L 250.64898 171.743665 
L 246.253224 173.692714 
L 245.033934 174.755102 
L 243.799119 178.525714 
L 244.094576 182.296327 
L 244.770235 186.066939 
L 245.39394 189.837551 
L 245.710381 193.608163 
L 245.562354 197.378776 
L 244.865862 201.149388 
L 243.45943 204.92 
L 244.800923 204.92 
z
M 268.232 203.959902 
L 268.232 201.149388 
L 268.232 199.789187 
L 267.418616 201.149388 
L 264.976376 204.92 
L 267.635569 204.92 
z
M 53.00973 163.443265 
L 57.235755 162.010194 
L 61.63151 161.395647 
L 66.027265 161.241333 
L 70.42302 161.474942 
L 74.818776 162.271091 
L 77.54297 163.443265 
L 79.214531 163.74739 
L 83.610286 164.64054 
L 88.006041 164.886667 
L 88.481405 163.443265 
L 88.006041 163.040778 
L 83.610286 159.758265 
L 83.524863 159.672653 
L 79.214531 158.252135 
L 74.818776 156.84181 
L 72.211216 155.902041 
L 70.42302 155.583177 
L 66.027265 155.03481 
L 61.63151 154.710778 
L 57.235755 154.661066 
L 52.84 154.934158 
L 52.84 155.902041 
L 52.84 159.672653 
L 52.84 163.443265 
L 52.84 163.471374 
z
" clip-path="url(#pc28a8af2f4)" style="fill: #21918c"/>
    <path d="M 246.253224 204.519456 
L 247.312817 201.149388 
L 247.70163 197.378776 
L 247.559294 193.608163 
L 247.026574 189.837551 
L 246.253224 186.134436 
L 246.241224 186.066939 
L 245.580157 182.296327 
L 245.508356 178.525714 
L 246.253224 176.761592 
L 247.800278 174.755102 
L 250.64898 173.318109 
L 255.044735 172.374005 
L 259.44049 172.0662 
L 263.836245 172.243722 
L 268.232 173.17162 
L 268.232 171.602553 
L 263.836245 171.166762 
L 259.44049 171.229984 
L 255.044735 171.629304 
L 250.64898 172.530887 
L 246.253224 174.745964 
L 246.242737 174.755102 
L 244.653738 178.525714 
L 244.837367 182.296327 
L 245.505729 186.066939 
L 246.171682 189.837551 
L 246.253224 190.696577 
L 246.595665 193.608163 
L 246.546724 197.378776 
L 246.253224 199.09249 
L 245.928955 201.149388 
L 244.800923 204.92 
L 246.142417 204.92 
z
M 263.836245 204.92 
L 264.976376 204.92 
L 267.418616 201.149388 
L 268.232 199.789187 
L 268.232 197.378776 
L 268.232 195.903957 
L 267.402269 197.378776 
L 265.050214 201.149388 
L 263.836245 202.932619 
L 262.278173 204.92 
z
" clip-path="url(#pc28a8af2f4)" style="fill: #1e9d89"/>
    <path d="M 246.253224 204.92 
L 248.425735 204.92 
L 248.837463 201.149388 
L 248.856536 197.378776 
L 248.522924 193.608163 
L 247.890502 189.837551 
L 247.074318 186.066939 
L 246.336772 182.296327 
L 246.39246 178.525714 
L 249.360871 174.755102 
L 250.64898 174.105332 
L 255.044735 173.118706 
L 259.44049 172.902416 
L 263.836245 173.320683 
L 268.232 174.740687 
L 268.232 173.17162 
L 263.836245 172.243722 
L 259.44049 172.0662 
L 255.044735 172.374005 
L 250.64898 173.318109 
L 247.800278 174.755102 
L 246.253224 176.761592 
L 245.508356 178.525714 
L 245.580157 182.296327 
L 246.241224 186.066939 
L 246.253224 186.134436 
L 247.026574 189.837551 
L 247.559294 193.608163 
L 247.70163 197.378776 
L 247.312817 201.149388 
L 246.253224 204.519456 
L 246.142417 204.92 
z
M 263.836245 202.932619 
L 265.050214 201.149388 
L 267.402269 197.378776 
L 268.232 195.903957 
L 268.232 193.608163 
L 268.232 192.102361 
L 267.487361 193.608163 
L 265.282391 197.378776 
L 263.836245 199.578003 
L 262.56649 201.149388 
L 259.550692 204.92 
L 262.278173 204.92 
z
" clip-path="url(#pc28a8af2f4)" style="fill: #23a983"/>
    <path d="M 250.64898 204.92 
L 252.30139 204.92 
L 250.64898 203.994833 
L 250.362109 201.149388 
L 250.011442 197.378776 
L 249.486553 193.608163 
L 248.754431 189.837551 
L 247.909031 186.066939 
L 247.226851 182.296327 
L 247.47668 178.525714 
L 250.64898 174.967444 
L 251.208397 174.755102 
L 255.044735 173.863408 
L 259.44049 173.738632 
L 263.836245 174.397643 
L 264.93928 174.755102 
L 268.232 177.44963 
L 268.232 174.755102 
L 268.232 174.740687 
L 263.836245 173.320683 
L 259.44049 172.902416 
L 255.044735 173.118706 
L 250.64898 174.105332 
L 249.360871 174.755102 
L 246.39246 178.525714 
L 246.336772 182.296327 
L 247.074318 186.066939 
L 247.890502 189.837551 
L 248.522924 193.608163 
L 248.856536 197.378776 
L 248.837463 201.149388 
L 248.425735 204.92 
z
M 259.44049 204.92 
L 259.550692 204.92 
L 262.56649 201.149388 
L 263.836245 199.578003 
L 265.282391 197.378776 
L 267.487361 193.608163 
L 268.232 192.102361 
L 268.232 189.837551 
L 268.232 187.903278 
L 267.515393 189.837551 
L 265.581522 193.608163 
L 263.836245 196.407316 
L 263.047898 197.378776 
L 259.961498 201.149388 
L 259.44049 201.79973 
L 255.465463 204.92 
z
" clip-path="url(#pc28a8af2f4)" style="fill: #32b67a"/>
    <path d="M 250.64898 203.994833 
L 252.30139 204.92 
L 255.044735 204.92 
L 255.465463 204.92 
L 259.44049 201.79973 
L 259.961498 201.149388 
L 263.047898 197.378776 
L 263.836245 196.407316 
L 265.581522 193.608163 
L 267.515393 189.837551 
L 268.232 187.903278 
L 268.232 186.066939 
L 268.232 182.296327 
L 268.232 178.525714 
L 268.232 177.44963 
L 264.93928 174.755102 
L 263.836245 174.397643 
L 259.44049 173.738632 
L 255.044735 173.863408 
L 251.208397 174.755102 
L 250.64898 174.967444 
L 247.47668 178.525714 
L 247.226851 182.296327 
L 247.909031 186.066939 
L 248.754431 189.837551 
L 249.486553 193.608163 
L 250.011442 197.378776 
L 250.362109 201.149388 
z
M 254.87868 201.149388 
L 251.956094 197.378776 
L 250.64898 194.79708 
L 250.450183 193.608163 
L 249.61836 189.837551 
L 248.743744 186.066939 
L 248.116929 182.296327 
L 248.5609 178.525714 
L 250.64898 176.18358 
L 254.412326 174.755102 
L 255.044735 174.608109 
L 259.44049 174.574848 
L 260.512806 174.755102 
L 263.836245 175.88261 
L 267.0081 178.525714 
L 267.839573 182.296327 
L 267.230044 186.066939 
L 265.777503 189.837551 
L 263.836245 193.343724 
L 263.64039 193.608163 
L 260.567389 197.378776 
L 259.44049 198.744476 
L 255.213155 201.149388 
L 255.044735 201.27857 
z
" clip-path="url(#pc28a8af2f4)" style="fill: #48c16e"/>
    <path d="M 255.044735 201.27857 
L 255.213155 201.149388 
L 259.44049 198.744476 
L 260.567389 197.378776 
L 263.64039 193.608163 
L 263.836245 193.343724 
L 265.777503 189.837551 
L 267.230044 186.066939 
L 267.839573 182.296327 
L 267.0081 178.525714 
L 263.836245 175.88261 
L 260.512806 174.755102 
L 259.44049 174.574848 
L 255.044735 174.608109 
L 254.412326 174.755102 
L 250.64898 176.18358 
L 248.5609 178.525714 
L 248.116929 182.296327 
L 248.743744 186.066939 
L 249.61836 189.837551 
L 250.450183 193.608163 
L 250.64898 194.79708 
L 251.956094 197.378776 
L 254.87868 201.149388 
z
M 254.873925 197.378776 
L 252.353546 193.608163 
L 250.64898 190.574922 
L 250.482288 189.837551 
L 249.578457 186.066939 
L 249.007008 182.296327 
L 249.64512 178.525714 
L 250.64898 177.399716 
L 255.044735 175.626117 
L 259.44049 175.724168 
L 263.836245 177.57028 
L 264.982813 178.525714 
L 266.14851 182.296327 
L 265.583536 186.066939 
L 264.039613 189.837551 
L 263.836245 190.204861 
L 261.315622 193.608163 
L 259.44049 195.857193 
L 255.470606 197.378776 
L 255.044735 197.593774 
z
" clip-path="url(#pc28a8af2f4)" style="fill: #65cb5e"/>
    <path d="M 255.044735 197.593774 
L 255.470606 197.378776 
L 259.44049 195.857193 
L 261.315622 193.608163 
L 263.836245 190.204861 
L 264.039613 189.837551 
L 265.583536 186.066939 
L 266.14851 182.296327 
L 264.982813 178.525714 
L 263.836245 177.57028 
L 259.44049 175.724168 
L 255.044735 175.626117 
L 250.64898 177.399716 
L 249.64512 178.525714 
L 249.007008 182.296327 
L 249.578457 186.066939 
L 250.482288 189.837551 
L 250.64898 190.574922 
L 252.353546 193.608163 
L 254.873925 197.378776 
z
M 254.501167 193.608163 
L 252.145967 189.837551 
L 250.64898 187.044594 
L 250.41317 186.066939 
L 249.897086 182.296327 
L 250.64898 178.82986 
L 250.835579 178.525714 
L 255.044735 176.711339 
L 259.44049 176.959527 
L 262.715464 178.525714 
L 263.836245 180.567568 
L 264.457447 182.296327 
L 263.937028 186.066939 
L 263.836245 186.311382 
L 261.934175 189.837551 
L 259.44049 193.068369 
L 257.536429 193.608163 
L 255.044735 194.407075 
z
" clip-path="url(#pc28a8af2f4)" style="fill: #84d44b"/>
    <path d="M 255.044735 194.407075 
L 257.536429 193.608163 
L 259.44049 193.068369 
L 261.934175 189.837551 
L 263.836245 186.311382 
L 263.937028 186.066939 
L 264.457447 182.296327 
L 263.836245 180.567568 
L 262.715464 178.525714 
L 259.44049 176.959527 
L 255.044735 176.711339 
L 250.835579 178.525714 
L 250.64898 178.82986 
L 249.897086 182.296327 
L 250.41317 186.066939 
L 250.64898 187.044594 
L 252.145967 189.837551 
L 254.501167 193.608163 
z
M 254.000845 189.837551 
L 251.960237 186.066939 
L 250.965622 182.296327 
L 253.353177 178.525714 
L 255.044735 177.796561 
L 259.44049 178.194886 
L 260.132268 178.525714 
L 262.514694 182.296327 
L 261.924516 186.066939 
L 259.780028 189.837551 
L 259.44049 190.277456 
L 255.044735 191.457817 
z
" clip-path="url(#pc28a8af2f4)" style="fill: #a8db34"/>
    <path d="M 255.044735 191.457817 
L 259.44049 190.277456 
L 259.780028 189.837551 
L 261.924516 186.066939 
L 262.514694 182.296327 
L 260.132268 178.525714 
L 259.44049 178.194886 
L 255.044735 177.796561 
L 253.353177 178.525714 
L 250.965622 182.296327 
L 251.960237 186.066939 
L 254.000845 189.837551 
z
M 253.787784 186.066939 
L 253.005178 182.296327 
L 255.044735 179.457238 
L 259.44049 180.818982 
L 260.425801 182.296327 
L 259.888139 186.066939 
L 259.44049 186.847277 
L 255.044735 188.372143 
z
" clip-path="url(#pc28a8af2f4)" style="fill: #cae11f"/>
    <path d="M 255.044735 188.372143 
L 259.44049 186.847277 
L 259.888139 186.066939 
L 260.425801 182.296327 
L 259.44049 180.818982 
L 255.044735 179.457238 
L 253.005178 182.296327 
L 253.787784 186.066939 
z
" clip-path="url(#pc28a8af2f4)" style="fill: #efe51c"/>
   </g>
   <g id="PathCollection_1">
    <defs>
     <path id="m2b747659b8" d="M 0 3 
C 0.795609 3 1.55874 2.683901 2.12132 2.12132 
C 2.683901 1.55874 3 0.795609 3 0 
C 3 -0.795609 2.683901 -1.55874 2.12132 -2.12132 
C 1.55874 -2.683901 0.795609 -3 0 -3 
C -0.795609 -3 -1.55874 -2.683901 -2.12132 -2.12132 
C -2.683901 -1.55874 -3 -0.795609 -3 0 
C -3 0.795609 -2.683901 1.55874 -2.12132 2.12132 
C -1.55874 2.683901 -0.795609 3 0 3 
z
" style="stroke: #ff0000"/>
    </defs>
    <g clip-path="url(#pc28a8af2f4)">
     <use xlink:href="#m2b747659b8" x="255.044735" y="182.296327" style="fill: #ff0000; stroke: #ff0000"/>
    </g>
   </g>
   <g id="matplotlib.axis_1">
    <g id="xtick_1">
     <g id="line2d_1">
      <defs>
       <path id="m5ba421c04d" d="M 0 0 
L 0 3.5 
" style="stroke: #000000; stroke-width: 0.8"/>
      </defs>
      <g>
       <use xlink:href="#m5ba421c04d" x="52.84" y="204.92" style="stroke: #000000; stroke-width: 0.8"/>
      </g>
     </g>
     <g id="text_1">
      <!-- 1.0 -->
      <g transform="translate(40.698594 219.518437) scale(0.1 -0.1)">
       <defs>
        <path id="DejaVuSans-2212" d="M 678 2272 
L 4684 2272 
L 4684 1741 
L 678 1741 
L 678 2272 
z
" transform="scale(0.015625)"/>
        <path id="DejaVuSans-31" d="M 794 531 
L 1825 531 
L 1825 4091 
L 703 3866 
L 703 4441 
L 1819 4666 
L 2450 4666 
L 2450 531 
L 3481 531 
L 3481 0 
L 794 0 
L 794 531 
z
" transform="scale(0.015625)"/>
        <path id="DejaVuSans-2e" d="M 684 794 
L 1344 794 
L 1344 0 
L 684 0 
L 684 794 
z
" transform="scale(0.015625)"/>
        <path id="DejaVuSans-30" d="M 2034 4250 
Q 1547 4250 1301 3770 
Q 1056 3291 1056 2328 
Q 1056 1369 1301 889 
Q 1547 409 2034 409 
Q 2525 409 2770 889 
Q 3016 1369 3016 2328 
Q 3016 3291 2770 3770 
Q 2525 4250 2034 4250 
z
M 2034 4750 
Q 2819 4750 3233 4129 
Q 3647 3509 3647 2328 
Q 3647 1150 3233 529 
Q 2819 -91 2034 -91 
Q 1250 -91 836 529 
Q 422 1150 422 2328 
Q 422 3509 836 4129 
Q 1250 4750 2034 4750 
z
" transform="scale(0.015625)"/>
       </defs>
       <use xlink:href="#DejaVuSans-2212"/>
       <use xlink:href="#DejaVuSans-31" x="83.789062"/>
       <use xlink:href="#DejaVuSans-2e" x="147.412109"/>
       <use xlink:href="#DejaVuSans-30" x="179.199219"/>
      </g>
     </g>
    </g>
    <g id="xtick_2">
     <g id="line2d_2">
      <g>
       <use xlink:href="#m5ba421c04d" x="106.688" y="204.92" style="stroke: #000000; stroke-width: 0.8"/>
      </g>
     </g>
     <g id="text_2">
      <!-- 0.5 -->
      <g transform="translate(94.546594 219.518437) scale(0.1 -0.1)">
       <defs>
        <path id="DejaVuSans-35" d="M 691 4666 
L 3169 4666 
L 3169 4134 
L 1269 4134 
L 1269 2991 
Q 1406 3038 1543 3061 
Q 1681 3084 1819 3084 
Q 2600 3084 3056 2656 
Q 3513 2228 3513 1497 
Q 3513 744 3044 326 
Q 2575 -91 1722 -91 
Q 1428 -91 1123 -41 
Q 819 9 494 109 
L 494 744 
Q 775 591 1075 516 
Q 1375 441 1709 441 
Q 2250 441 2565 725 
Q 2881 1009 2881 1497 
Q 2881 1984 2565 2268 
Q 2250 2553 1709 2553 
Q 1456 2553 1204 2497 
Q 953 2441 691 2322 
L 691 4666 
z
" transform="scale(0.015625)"/>
       </defs>
       <use xlink:href="#DejaVuSans-2212"/>
       <use xlink:href="#DejaVuSans-30" x="83.789062"/>
       <use xlink:href="#DejaVuSans-2e" x="147.412109"/>
       <use xlink:href="#DejaVuSans-35" x="179.199219"/>
      </g>
     </g>
    </g>
    <g id="xtick_3">
     <g id="line2d_3">
      <g>
       <use xlink:href="#m5ba421c04d" x="160.536" y="204.92" style="stroke: #000000; stroke-width: 0.8"/>
      </g>
     </g>
     <g id="text_3">
      <!-- 0.0 -->
      <g transform="translate(152.584438 219.518437) scale(0.1 -0.1)">
       <use xlink:href="#DejaVuSans-30"/>
       <use xlink:href="#DejaVuSans-2e" x="63.623047"/>
       <use xlink:href="#DejaVuSans-30" x="95.410156"/>
      </g>
     </g>
    </g>
    <g id="xtick_4">
     <g id="line2d_4">
      <g>
       <use xlink:href="#m5ba421c04d" x="214.384" y="204.92" style="stroke: #000000; stroke-width: 0.8"/>
      </g>
     </g>
     <g id="text_4">
      <!-- 0.5 -->
      <g transform="translate(206.432438 219.518437) scale(0.1 -0.1)">
       <use xlink:href="#DejaVuSans-30"/>
       <use xlink:href="#DejaVuSans-2e" x="63.623047"/>
       <use xlink:href="#DejaVuSans-35" x="95.410156"/>
      </g>
     </g>
    </g>
    <g id="xtick_5">
     <g id="line2d_5">
      <g>
       <use xlink:href="#m5ba421c04d" x="268.232" y="204.92" style="stroke: #000000; stroke-width: 0.8"/>
      </g>
     </g>
     <g id="text_5">
      <!-- 1.0 -->
      <g transform="translate(260.280438 219.518437) scale(0.1 -0.1)">
       <use xlink:href="#DejaVuSans-31"/>
       <use xlink:href="#DejaVuSans-2e" x="63.623047"/>
       <use xlink:href="#DejaVuSans-30" x="95.410156"/>
      </g>
     </g>
    </g>
    <g id="text_6">
     <!-- x -->
     <g transform="translate(157.576625 233.196562) scale(0.1 -0.1)">
      <defs>
       <path id="DejaVuSans-78" d="M 3513 3500 
L 2247 1797 
L 3578 0 
L 2900 0 
L 1881 1375 
L 863 0 
L 184 0 
L 1544 1831 
L 300 3500 
L 978 3500 
L 1906 2253 
L 2834 3500 
L 3513 3500 
z
" transform="scale(0.015625)"/>
      </defs>
      <use xlink:href="#DejaVuSans-78"/>
     </g>
    </g>
   </g>
   <g id="matplotlib.axis_2">
    <g id="ytick_1">
     <g id="line2d_6">
      <defs>
       <path id="m0a999b5a23" d="M 0 0 
L -3.5 0 
" style="stroke: #000000; stroke-width: 0.8"/>
      </defs>
      <g>
       <use xlink:href="#m0a999b5a23" x="52.84" y="204.92" style="stroke: #000000; stroke-width: 0.8"/>
      </g>
     </g>
     <g id="text_7">
      <!-- 1.00 -->
      <g transform="translate(15.194688 208.719219) scale(0.1 -0.1)">
       <use xlink:href="#DejaVuSans-2212"/>
       <use xlink:href="#DejaVuSans-31" x="83.789062"/>
       <use xlink:href="#DejaVuSans-2e" x="147.412109"/>
       <use xlink:href="#DejaVuSans-30" x="179.199219"/>
       <use xlink:href="#DejaVuSans-30" x="242.822266"/>
      </g>
     </g>
    </g>
    <g id="ytick_2">
     <g id="line2d_7">
      <g>
       <use xlink:href="#m0a999b5a23" x="52.84" y="181.825" style="stroke: #000000; stroke-width: 0.8"/>
      </g>
     </g>
     <g id="text_8">
      <!-- 0.75 -->
      <g transform="translate(15.194688 185.624219) scale(0.1 -0.1)">
       <defs>
        <path id="DejaVuSans-37" d="M 525 4666 
L 3525 4666 
L 3525 4397 
L 1831 0 
L 1172 0 
L 2766 4134 
L 525 4134 
L 525 4666 
z
" transform="scale(0.015625)"/>
       </defs>
       <use xlink:href="#DejaVuSans-2212"/>
       <use xlink:href="#DejaVuSans-30" x="83.789062"/>
       <use xlink:href="#DejaVuSans-2e" x="147.412109"/>
       <use xlink:href="#DejaVuSans-37" x="179.199219"/>
       <use xlink:href="#DejaVuSans-35" x="242.822266"/>
      </g>
     </g>
    </g>
    <g id="ytick_3">
     <g id="line2d_8">
      <g>
       <use xlink:href="#m0a999b5a23" x="52.84" y="158.73" style="stroke: #000000; stroke-width: 0.8"/>
      </g>
     </g>
     <g id="text_9">
      <!-- 0.50 -->
      <g transform="translate(15.194688 162.529219) scale(0.1 -0.1)">
       <use xlink:href="#DejaVuSans-2212"/>
       <use xlink:href="#DejaVuSans-30" x="83.789062"/>
       <use xlink:href="#DejaVuSans-2e" x="147.412109"/>
       <use xlink:href="#DejaVuSans-35" x="179.199219"/>
       <use xlink:href="#DejaVuSans-30" x="242.822266"/>
      </g>
     </g>
    </g>
    <g id="ytick_4">
     <g id="line2d_9">
      <g>
       <use xlink:href="#m0a999b5a23" x="52.84" y="135.635" style="stroke: #000000; stroke-width: 0.8"/>
      </g>
     </g>
     <g id="text_10">
      <!-- 0.25 -->
      <g transform="translate(15.194688 139.434219) scale(0.1 -0.1)">
       <defs>
        <path id="DejaVuSans-32" d="M 1228 531 
L 3431 531 
L 3431 0 
L 469 0 
L 469 531 
Q 828 903 1448 1529 
Q 2069 2156 2228 2338 
Q 2531 2678 2651 2914 
Q 2772 3150 2772 3378 
Q 2772 3750 2511 3984 
Q 2250 4219 1831 4219 
Q 1534 4219 1204 4116 
Q 875 4013 500 3803 
L 500 4441 
Q 881 4594 1212 4672 
Q 1544 4750 1819 4750 
Q 2544 4750 2975 4387 
Q 3406 4025 3406 3419 
Q 3406 3131 3298 2873 
Q 3191 2616 2906 2266 
Q 2828 2175 2409 1742 
Q 1991 1309 1228 531 
z
" transform="scale(0.015625)"/>
       </defs>
       <use xlink:href="#DejaVuSans-2212"/>
       <use xlink:href="#DejaVuSans-30" x="83.789062"/>
       <use xlink:href="#DejaVuSans-2e" x="147.412109"/>
       <use xlink:href="#DejaVuSans-32" x="179.199219"/>
       <use xlink:href="#DejaVuSans-35" x="242.822266"/>
      </g>
     </g>
    </g>
    <g id="ytick_5">
     <g id="line2d_10">
      <g>
       <use xlink:href="#m0a999b5a23" x="52.84" y="112.54" style="stroke: #000000; stroke-width: 0.8"/>
      </g>
     </g>
     <g id="text_11">
      <!-- 0.00 -->
      <g transform="translate(23.574375 116.339219) scale(0.1 -0.1)">
       <use xlink:href="#DejaVuSans-30"/>
       <use xlink:href="#DejaVuSans-2e" x="63.623047"/>
       <use xlink:href="#DejaVuSans-30" x="95.410156"/>
       <use xlink:href="#DejaVuSans-30" x="159.033203"/>
      </g>
     </g>
    </g>
    <g id="ytick_6">
     <g id="line2d_11">
      <g>
       <use xlink:href="#m0a999b5a23" x="52.84" y="89.445" style="stroke: #000000; stroke-width: 0.8"/>
      </g>
     </g>
     <g id="text_12">
      <!-- 0.25 -->
      <g transform="translate(23.574375 93.244219) scale(0.1 -0.1)">
       <use xlink:href="#DejaVuSans-30"/>
       <use xlink:href="#DejaVuSans-2e" x="63.623047"/>
       <use xlink:href="#DejaVuSans-32" x="95.410156"/>
       <use xlink:href="#DejaVuSans-35" x="159.033203"/>
      </g>
     </g>
    </g>
    <g id="ytick_7">
     <g id="line2d_12">
      <g>
       <use xlink:href="#m0a999b5a23" x="52.84" y="66.35" style="stroke: #000000; stroke-width: 0.8"/>
      </g>
     </g>
     <g id="text_13">
      <!-- 0.50 -->
      <g transform="translate(23.574375 70.149219) scale(0.1 -0.1)">
       <use xlink:href="#DejaVuSans-30"/>
       <use xlink:href="#DejaVuSans-2e" x="63.623047"/>
       <use xlink:href="#DejaVuSans-35" x="95.410156"/>
       <use xlink:href="#DejaVuSans-30" x="159.033203"/>
      </g>
     </g>
    </g>
    <g id="ytick_8">
     <g id="line2d_13">
      <g>
       <use xlink:href="#m0a999b5a23" x="52.84" y="43.255" style="stroke: #000000; stroke-width: 0.8"/>
      </g>
     </g>
     <g id="text_14">
      <!-- 0.75 -->
      <g transform="translate(23.574375 47.054219) scale(0.1 -0.1)">
       <use xlink:href="#DejaVuSans-30"/>
       <use xlink:href="#DejaVuSans-2e" x="63.623047"/>
       <use xlink:href="#DejaVuSans-37" x="95.410156"/>
       <use xlink:href="#DejaVuSans-35" x="159.033203"/>
      </g>
     </g>
    </g>
    <g id="ytick_9">
     <g id="line2d_14">
      <g>
       <use xlink:href="#m0a999b5a23" x="52.84" y="20.16" style="stroke: #000000; stroke-width: 0.8"/>
      </g>
     </g>
     <g id="text_15">
      <!-- 1.00 -->
      <g transform="translate(23.574375 23.959219) scale(0.1 -0.1)">
       <use xlink:href="#DejaVuSans-31"/>
       <use xlink:href="#DejaVuSans-2e" x="63.623047"/>
       <use xlink:href="#DejaVuSans-30" x="95.410156"/>
       <use xlink:href="#DejaVuSans-30" x="159.033203"/>
      </g>
     </g>
    </g>
    <g id="text_16">
     <!-- y -->
     <g transform="translate(9.115 115.499375) rotate(-90) scale(0.1 -0.1)">
      <defs>
       <path id="DejaVuSans-79" d="M 2059 -325 
Q 1816 -950 1584 -1140 
Q 1353 -1331 966 -1331 
L 506 -1331 
L 506 -850 
L 844 -850 
Q 1081 -850 1212 -737 
Q 1344 -625 1503 -206 
L 1606 56 
L 191 3500 
L 800 3500 
L 1894 763 
L 2988 3500 
L 3597 3500 
L 2059 -325 
z
" transform="scale(0.015625)"/>
      </defs>
      <use xlink:href="#DejaVuSans-79"/>
     </g>
    </g>
   </g>
   <g id="patch_3">
    <path d="M 52.84 204.92 
L 52.84 20.16 
" style="fill: none; stroke: #000000; stroke-width: 0.8; stroke-linejoin: miter; stroke-linecap: square"/>
   </g>
   <g id="patch_4">
    <path d="M 268.232 204.92 
L 268.232 20.16 
" style="fill: none; stroke: #000000; stroke-width: 0.8; stroke-linejoin: miter; stroke-linecap: square"/>
   </g>
   <g id="patch_5">
    <path d="M 52.84 204.92 
L 268.232 204.92 
" style="fill: none; stroke: #000000; stroke-width: 0.8; stroke-linejoin: miter; stroke-linecap: square"/>
   </g>
   <g id="patch_6">
    <path d="M 52.84 20.16 
L 268.232 20.16 
" style="fill: none; stroke: #000000; stroke-width: 0.8; stroke-linejoin: miter; stroke-linecap: square"/>
   </g>
   <g id="legend_1">
    <g id="patch_7">
     <path d="M 208.557 42.838125 
L 261.232 42.838125 
Q 263.232 42.838125 263.232 40.838125 
L 263.232 27.16 
Q 263.232 25.16 261.232 25.16 
L 208.557 25.16 
Q 206.557 25.16 206.557 27.16 
L 206.557 40.838125 
Q 206.557 42.838125 208.557 42.838125 
z
" style="fill: #ffffff; opacity: 0.8; stroke: #cccccc; stroke-linejoin: miter"/>
    </g>
    <g id="PathCollection_2">
     <g>
      <use xlink:href="#m2b747659b8" x="220.557" y="34.133437" style="fill: #ff0000; stroke: #ff0000"/>
     </g>
    </g>
    <g id="text_17">
     <!-- Max -->
     <g transform="translate(238.557 36.758437) scale(0.1 -0.1)">
      <defs>
       <path id="DejaVuSans-4d" d="M 628 4666 
L 1569 4666 
L 2759 1491 
L 3956 4666 
L 4897 4666 
L 4897 0 
L 4281 0 
L 4281 4097 
L 3078 897 
L 2444 897 
L 1241 4097 
L 1241 0 
L 628 0 
L 628 4666 
z
" transform="scale(0.015625)"/>
       <path id="DejaVuSans-61" d="M 2194 1759 
Q 1497 1759 1228 1600 
Q 959 1441 959 1056 
Q 959 750 1161 570 
Q 1363 391 1709 391 
Q 2188 391 2477 730 
Q 2766 1069 2766 1631 
L 2766 1759 
L 2194 1759 
z
M 3341 1997 
L 3341 0 
L 2766 0 
L 2766 531 
Q 2569 213 2275 61 
Q 1981 -91 1556 -91 
Q 1019 -91 701 211 
Q 384 513 384 1019 
Q 384 1609 779 1909 
Q 1175 2209 1959 2209 
L 2766 2209 
L 2766 2266 
Q 2766 2663 2505 2880 
Q 2244 3097 1772 3097 
Q 1472 3097 1187 3025 
Q 903 2953 641 2809 
L 641 3341 
Q 956 3463 1253 3523 
Q 1550 3584 1831 3584 
Q 2591 3584 2966 3190 
Q 3341 2797 3341 1997 
z
" transform="scale(0.015625)"/>
      </defs>
      <use xlink:href="#DejaVuSans-4d"/>
      <use xlink:href="#DejaVuSans-61" x="86.279297"/>
      <use xlink:href="#DejaVuSans-78" x="147.558594"/>
     </g>
    </g>
   </g>
  </g>
  <g id="axes_2">
   <g id="patch_8">
    <path d="M 281.694 204.92 
L 290.932 204.92 
L 290.932 20.16 
L 281.694 20.16 
z
" style="fill: #ffffff"/>
   </g>
   <g id="QuadMesh_1">
    <path d="M 281.694 204.92 
L 290.932 204.92 
L 290.932 195.195789 
L 281.694 195.195789 
L 281.694 204.92 
" clip-path="url(#p237a8f2a82)" style="fill: #460a5d"/>
    <path d="M 281.694 195.195789 
L 290.932 195.195789 
L 290.932 185.471579 
L 281.694 185.471579 
L 281.694 195.195789 
" clip-path="url(#p237a8f2a82)" style="fill: #481d6f"/>
    <path d="M 281.694 185.471579 
L 290.932 185.471579 
L 290.932 175.747368 
L 281.694 175.747368 
L 281.694 185.471579 
" clip-path="url(#p237a8f2a82)" style="fill: #472e7c"/>
    <path d="M 281.694 175.747368 
L 290.932 175.747368 
L 290.932 166.023158 
L 281.694 166.023158 
L 281.694 175.747368 
" clip-path="url(#p237a8f2a82)" style="fill: #423f85"/>
    <path d="M 281.694 166.023158 
L 290.932 166.023158 
L 290.932 156.298947 
L 281.694 156.298947 
L 281.694 166.023158 
" clip-path="url(#p237a8f2a82)" style="fill: #3d4e8a"/>
    <path d="M 281.694 156.298947 
L 290.932 156.298947 
L 290.932 146.574737 
L 281.694 146.574737 
L 281.694 156.298947 
" clip-path="url(#p237a8f2a82)" style="fill: #365d8d"/>
    <path d="M 281.694 146.574737 
L 290.932 146.574737 
L 290.932 136.850526 
L 281.694 136.850526 
L 281.694 146.574737 
" clip-path="url(#p237a8f2a82)" style="fill: #306a8e"/>
    <path d="M 281.694 136.850526 
L 290.932 136.850526 
L 290.932 127.126316 
L 281.694 127.126316 
L 281.694 136.850526 
" clip-path="url(#p237a8f2a82)" style="fill: #2a778e"/>
    <path d="M 281.694 127.126316 
L 290.932 127.126316 
L 290.932 117.402105 
L 281.694 117.402105 
L 281.694 127.126316 
" clip-path="url(#p237a8f2a82)" style="fill: #25838e"/>
    <path d="M 281.694 117.402105 
L 290.932 117.402105 
L 290.932 107.677895 
L 281.694 107.677895 
L 281.694 117.402105 
" clip-path="url(#p237a8f2a82)" style="fill: #21918c"/>
    <path d="M 281.694 107.677895 
L 290.932 107.677895 
L 290.932 97.953684 
L 281.694 97.953684 
L 281.694 107.677895 
" clip-path="url(#p237a8f2a82)" style="fill: #1e9d89"/>
    <path d="M 281.694 97.953684 
L 290.932 97.953684 
L 290.932 88.229474 
L 281.694 88.229474 
L 281.694 97.953684 
" clip-path="url(#p237a8f2a82)" style="fill: #23a983"/>
    <path d="M 281.694 88.229474 
L 290.932 88.229474 
L 290.932 78.505263 
L 281.694 78.505263 
L 281.694 88.229474 
" clip-path="url(#p237a8f2a82)" style="fill: #32b67a"/>
    <path d="M 281.694 78.505263 
L 290.932 78.505263 
L 290.932 68.781053 
L 281.694 68.781053 
L 281.694 78.505263 
" clip-path="url(#p237a8f2a82)" style="fill: #48c16e"/>
    <path d="M 281.694 68.781053 
L 290.932 68.781053 
L 290.932 59.056842 
L 281.694 59.056842 
L 281.694 68.781053 
" clip-path="url(#p237a8f2a82)" style="fill: #65cb5e"/>
    <path d="M 281.694 59.056842 
L 290.932 59.056842 
L 290.932 49.332632 
L 281.694 49.332632 
L 281.694 59.056842 
" clip-path="url(#p237a8f2a82)" style="fill: #84d44b"/>
    <path d="M 281.694 49.332632 
L 290.932 49.332632 
L 290.932 39.608421 
L 281.694 39.608421 
L 281.694 49.332632 
" clip-path="url(#p237a8f2a82)" style="fill: #a8db34"/>
    <path d="M 281.694 39.608421 
L 290.932 39.608421 
L 290.932 29.884211 
L 281.694 29.884211 
L 281.694 39.608421 
" clip-path="url(#p237a8f2a82)" style="fill: #cae11f"/>
    <path d="M 281.694 29.884211 
L 290.932 29.884211 
L 290.932 20.16 
L 281.694 20.16 
L 281.694 29.884211 
" clip-path="url(#p237a8f2a82)" style="fill: #efe51c"/>
   </g>
   <g id="matplotlib.axis_3"/>
   <g id="matplotlib.axis_4">
    <g id="ytick_10">
     <g id="line2d_15">
      <defs>
       <path id="mbe1261325f" d="M 0 0 
L 3.5 0 
" style="stroke: #000000; stroke-width: 0.8"/>
      </defs>
      <g>
       <use xlink:href="#mbe1261325f" x="290.932" y="204.92" style="stroke: #000000; stroke-width: 0.8"/>
      </g>
     </g>
     <g id="text_18">
      <!-- 1.0e-104 -->
      <g transform="translate(297.932 208.719219) scale(0.1 -0.1)">
       <defs>
        <path id="DejaVuSans-65" d="M 3597 1894 
L 3597 1613 
L 953 1613 
Q 991 1019 1311 708 
Q 1631 397 2203 397 
Q 2534 397 2845 478 
Q 3156 559 3463 722 
L 3463 178 
Q 3153 47 2828 -22 
Q 2503 -91 2169 -91 
Q 1331 -91 842 396 
Q 353 884 353 1716 
Q 353 2575 817 3079 
Q 1281 3584 2069 3584 
Q 2775 3584 3186 3129 
Q 3597 2675 3597 1894 
z
M 3022 2063 
Q 3016 2534 2758 2815 
Q 2500 3097 2075 3097 
Q 1594 3097 1305 2825 
Q 1016 2553 972 2059 
L 3022 2063 
z
" transform="scale(0.015625)"/>
        <path id="DejaVuSans-2d" d="M 313 2009 
L 1997 2009 
L 1997 1497 
L 313 1497 
L 313 2009 
z
" transform="scale(0.015625)"/>
        <path id="DejaVuSans-34" d="M 2419 4116 
L 825 1625 
L 2419 1625 
L 2419 4116 
z
M 2253 4666 
L 3047 4666 
L 3047 1625 
L 3713 1625 
L 3713 1100 
L 3047 1100 
L 3047 0 
L 2419 0 
L 2419 1100 
L 313 1100 
L 313 1709 
L 2253 4666 
z
" transform="scale(0.015625)"/>
       </defs>
       <use xlink:href="#DejaVuSans-31"/>
       <use xlink:href="#DejaVuSans-2e" x="63.623047"/>
       <use xlink:href="#DejaVuSans-30" x="95.410156"/>
       <use xlink:href="#DejaVuSans-65" x="159.033203"/>
       <use xlink:href="#DejaVuSans-2d" x="220.556641"/>
       <use xlink:href="#DejaVuSans-31" x="256.640625"/>
       <use xlink:href="#DejaVuSans-30" x="320.263672"/>
       <use xlink:href="#DejaVuSans-34" x="383.886719"/>
      </g>
     </g>
    </g>
    <g id="ytick_11">
     <g id="line2d_16">
      <g>
       <use xlink:href="#mbe1261325f" x="290.932" y="185.471579" style="stroke: #000000; stroke-width: 0.8"/>
      </g>
     </g>
     <g id="text_19">
      <!-- 3.7e-07 -->
      <g transform="translate(297.932 189.270798) scale(0.1 -0.1)">
       <defs>
        <path id="DejaVuSans-33" d="M 2597 2516 
Q 3050 2419 3304 2112 
Q 3559 1806 3559 1356 
Q 3559 666 3084 287 
Q 2609 -91 1734 -91 
Q 1441 -91 1130 -33 
Q 819 25 488 141 
L 488 750 
Q 750 597 1062 519 
Q 1375 441 1716 441 
Q 2309 441 2620 675 
Q 2931 909 2931 1356 
Q 2931 1769 2642 2001 
Q 2353 2234 1838 2234 
L 1294 2234 
L 1294 2753 
L 1863 2753 
Q 2328 2753 2575 2939 
Q 2822 3125 2822 3475 
Q 2822 3834 2567 4026 
Q 2313 4219 1838 4219 
Q 1578 4219 1281 4162 
Q 984 4106 628 3988 
L 628 4550 
Q 988 4650 1302 4700 
Q 1616 4750 1894 4750 
Q 2613 4750 3031 4423 
Q 3450 4097 3450 3541 
Q 3450 3153 3228 2886 
Q 3006 2619 2597 2516 
z
" transform="scale(0.015625)"/>
       </defs>
       <use xlink:href="#DejaVuSans-33"/>
       <use xlink:href="#DejaVuSans-2e" x="63.623047"/>
       <use xlink:href="#DejaVuSans-37" x="95.410156"/>
       <use xlink:href="#DejaVuSans-65" x="159.033203"/>
       <use xlink:href="#DejaVuSans-2d" x="220.556641"/>
       <use xlink:href="#DejaVuSans-30" x="256.640625"/>
       <use xlink:href="#DejaVuSans-37" x="320.263672"/>
      </g>
     </g>
    </g>
    <g id="ytick_12">
     <g id="line2d_17">
      <g>
       <use xlink:href="#mbe1261325f" x="290.932" y="166.023158" style="stroke: #000000; stroke-width: 0.8"/>
      </g>
     </g>
     <g id="text_20">
      <!-- 7.4e-07 -->
      <g transform="translate(297.932 169.822377) scale(0.1 -0.1)">
       <use xlink:href="#DejaVuSans-37"/>
       <use xlink:href="#DejaVuSans-2e" x="63.623047"/>
       <use xlink:href="#DejaVuSans-34" x="95.410156"/>
       <use xlink:href="#DejaVuSans-65" x="159.033203"/>
       <use xlink:href="#DejaVuSans-2d" x="220.556641"/>
       <use xlink:href="#DejaVuSans-30" x="256.640625"/>
       <use xlink:href="#DejaVuSans-37" x="320.263672"/>
      </g>
     </g>
    </g>
    <g id="ytick_13">
     <g id="line2d_18">
      <g>
       <use xlink:href="#mbe1261325f" x="290.932" y="146.574737" style="stroke: #000000; stroke-width: 0.8"/>
      </g>
     </g>
     <g id="text_21">
      <!-- 1.1e-06 -->
      <g transform="translate(297.932 150.373956) scale(0.1 -0.1)">
       <defs>
        <path id="DejaVuSans-36" d="M 2113 2584 
Q 1688 2584 1439 2293 
Q 1191 2003 1191 1497 
Q 1191 994 1439 701 
Q 1688 409 2113 409 
Q 2538 409 2786 701 
Q 3034 994 3034 1497 
Q 3034 2003 2786 2293 
Q 2538 2584 2113 2584 
z
M 3366 4563 
L 3366 3988 
Q 3128 4100 2886 4159 
Q 2644 4219 2406 4219 
Q 1781 4219 1451 3797 
Q 1122 3375 1075 2522 
Q 1259 2794 1537 2939 
Q 1816 3084 2150 3084 
Q 2853 3084 3261 2657 
Q 3669 2231 3669 1497 
Q 3669 778 3244 343 
Q 2819 -91 2113 -91 
Q 1303 -91 875 529 
Q 447 1150 447 2328 
Q 447 3434 972 4092 
Q 1497 4750 2381 4750 
Q 2619 4750 2861 4703 
Q 3103 4656 3366 4563 
z
" transform="scale(0.015625)"/>
       </defs>
       <use xlink:href="#DejaVuSans-31"/>
       <use xlink:href="#DejaVuSans-2e" x="63.623047"/>
       <use xlink:href="#DejaVuSans-31" x="95.410156"/>
       <use xlink:href="#DejaVuSans-65" x="159.033203"/>
       <use xlink:href="#DejaVuSans-2d" x="220.556641"/>
       <use xlink:href="#DejaVuSans-30" x="256.640625"/>
       <use xlink:href="#DejaVuSans-36" x="320.263672"/>
      </g>
     </g>
    </g>
    <g id="ytick_14">
     <g id="line2d_19">
      <g>
       <use xlink:href="#mbe1261325f" x="290.932" y="127.126316" style="stroke: #000000; stroke-width: 0.8"/>
      </g>
     </g>
     <g id="text_22">
      <!-- 1.5e-06 -->
      <g transform="translate(297.932 130.925535) scale(0.1 -0.1)">
       <use xlink:href="#DejaVuSans-31"/>
       <use xlink:href="#DejaVuSans-2e" x="63.623047"/>
       <use xlink:href="#DejaVuSans-35" x="95.410156"/>
       <use xlink:href="#DejaVuSans-65" x="159.033203"/>
       <use xlink:href="#DejaVuSans-2d" x="220.556641"/>
       <use xlink:href="#DejaVuSans-30" x="256.640625"/>
       <use xlink:href="#DejaVuSans-36" x="320.263672"/>
      </g>
     </g>
    </g>
    <g id="ytick_15">
     <g id="line2d_20">
      <g>
       <use xlink:href="#mbe1261325f" x="290.932" y="107.677895" style="stroke: #000000; stroke-width: 0.8"/>
      </g>
     </g>
     <g id="text_23">
      <!-- 1.8e-06 -->
      <g transform="translate(297.932 111.477113) scale(0.1 -0.1)">
       <defs>
        <path id="DejaVuSans-38" d="M 2034 2216 
Q 1584 2216 1326 1975 
Q 1069 1734 1069 1313 
Q 1069 891 1326 650 
Q 1584 409 2034 409 
Q 2484 409 2743 651 
Q 3003 894 3003 1313 
Q 3003 1734 2745 1975 
Q 2488 2216 2034 2216 
z
M 1403 2484 
Q 997 2584 770 2862 
Q 544 3141 544 3541 
Q 544 4100 942 4425 
Q 1341 4750 2034 4750 
Q 2731 4750 3128 4425 
Q 3525 4100 3525 3541 
Q 3525 3141 3298 2862 
Q 3072 2584 2669 2484 
Q 3125 2378 3379 2068 
Q 3634 1759 3634 1313 
Q 3634 634 3220 271 
Q 2806 -91 2034 -91 
Q 1263 -91 848 271 
Q 434 634 434 1313 
Q 434 1759 690 2068 
Q 947 2378 1403 2484 
z
M 1172 3481 
Q 1172 3119 1398 2916 
Q 1625 2713 2034 2713 
Q 2441 2713 2670 2916 
Q 2900 3119 2900 3481 
Q 2900 3844 2670 4047 
Q 2441 4250 2034 4250 
Q 1625 4250 1398 4047 
Q 1172 3844 1172 3481 
z
" transform="scale(0.015625)"/>
       </defs>
       <use xlink:href="#DejaVuSans-31"/>
       <use xlink:href="#DejaVuSans-2e" x="63.623047"/>
       <use xlink:href="#DejaVuSans-38" x="95.410156"/>
       <use xlink:href="#DejaVuSans-65" x="159.033203"/>
       <use xlink:href="#DejaVuSans-2d" x="220.556641"/>
       <use xlink:href="#DejaVuSans-30" x="256.640625"/>
       <use xlink:href="#DejaVuSans-36" x="320.263672"/>
      </g>
     </g>
    </g>
    <g id="ytick_16">
     <g id="line2d_21">
      <g>
       <use xlink:href="#mbe1261325f" x="290.932" y="88.229474" style="stroke: #000000; stroke-width: 0.8"/>
      </g>
     </g>
     <g id="text_24">
      <!-- 2.2e-06 -->
      <g transform="translate(297.932 92.028692) scale(0.1 -0.1)">
       <use xlink:href="#DejaVuSans-32"/>
       <use xlink:href="#DejaVuSans-2e" x="63.623047"/>
       <use xlink:href="#DejaVuSans-32" x="95.410156"/>
       <use xlink:href="#DejaVuSans-65" x="159.033203"/>
       <use xlink:href="#DejaVuSans-2d" x="220.556641"/>
       <use xlink:href="#DejaVuSans-30" x="256.640625"/>
       <use xlink:href="#DejaVuSans-36" x="320.263672"/>
      </g>
     </g>
    </g>
    <g id="ytick_17">
     <g id="line2d_22">
      <g>
       <use xlink:href="#mbe1261325f" x="290.932" y="68.781053" style="stroke: #000000; stroke-width: 0.8"/>
      </g>
     </g>
     <g id="text_25">
      <!-- 2.6e-06 -->
      <g transform="translate(297.932 72.580271) scale(0.1 -0.1)">
       <use xlink:href="#DejaVuSans-32"/>
       <use xlink:href="#DejaVuSans-2e" x="63.623047"/>
       <use xlink:href="#DejaVuSans-36" x="95.410156"/>
       <use xlink:href="#DejaVuSans-65" x="159.033203"/>
       <use xlink:href="#DejaVuSans-2d" x="220.556641"/>
       <use xlink:href="#DejaVuSans-30" x="256.640625"/>
       <use xlink:href="#DejaVuSans-36" x="320.263672"/>
      </g>
     </g>
    </g>
    <g id="ytick_18">
     <g id="line2d_23">
      <g>
       <use xlink:href="#mbe1261325f" x="290.932" y="49.332632" style="stroke: #000000; stroke-width: 0.8"/>
      </g>
     </g>
     <g id="text_26">
      <!-- 2.9e-06 -->
      <g transform="translate(297.932 53.13185) scale(0.1 -0.1)">
       <defs>
        <path id="DejaVuSans-39" d="M 703 97 
L 703 672 
Q 941 559 1184 500 
Q 1428 441 1663 441 
Q 2288 441 2617 861 
Q 2947 1281 2994 2138 
Q 2813 1869 2534 1725 
Q 2256 1581 1919 1581 
Q 1219 1581 811 2004 
Q 403 2428 403 3163 
Q 403 3881 828 4315 
Q 1253 4750 1959 4750 
Q 2769 4750 3195 4129 
Q 3622 3509 3622 2328 
Q 3622 1225 3098 567 
Q 2575 -91 1691 -91 
Q 1453 -91 1209 -44 
Q 966 3 703 97 
z
M 1959 2075 
Q 2384 2075 2632 2365 
Q 2881 2656 2881 3163 
Q 2881 3666 2632 3958 
Q 2384 4250 1959 4250 
Q 1534 4250 1286 3958 
Q 1038 3666 1038 3163 
Q 1038 2656 1286 2365 
Q 1534 2075 1959 2075 
z
" transform="scale(0.015625)"/>
       </defs>
       <use xlink:href="#DejaVuSans-32"/>
       <use xlink:href="#DejaVuSans-2e" x="63.623047"/>
       <use xlink:href="#DejaVuSans-39" x="95.410156"/>
       <use xlink:href="#DejaVuSans-65" x="159.033203"/>
       <use xlink:href="#DejaVuSans-2d" x="220.556641"/>
       <use xlink:href="#DejaVuSans-30" x="256.640625"/>
       <use xlink:href="#DejaVuSans-36" x="320.263672"/>
      </g>
     </g>
    </g>
    <g id="ytick_19">
     <g id="line2d_24">
      <g>
       <use xlink:href="#mbe1261325f" x="290.932" y="29.884211" style="stroke: #000000; stroke-width: 0.8"/>
      </g>
     </g>
     <g id="text_27">
      <!-- 3.3e-06 -->
      <g transform="translate(297.932 33.683429) scale(0.1 -0.1)">
       <use xlink:href="#DejaVuSans-33"/>
       <use xlink:href="#DejaVuSans-2e" x="63.623047"/>
       <use xlink:href="#DejaVuSans-33" x="95.410156"/>
       <use xlink:href="#DejaVuSans-65" x="159.033203"/>
       <use xlink:href="#DejaVuSans-2d" x="220.556641"/>
       <use xlink:href="#DejaVuSans-30" x="256.640625"/>
       <use xlink:href="#DejaVuSans-36" x="320.263672"/>
      </g>
     </g>
    </g>
   </g>
   <g id="LineCollection_1"/>
   <g id="patch_9">
    <path d="M 281.694 204.92 
L 286.313 204.92 
L 290.932 204.92 
L 290.932 20.16 
L 286.313 20.16 
L 281.694 20.16 
L 281.694 204.92 
z
" style="fill: none; stroke: #000000; stroke-width: 0.8; stroke-linejoin: miter; stroke-linecap: square"/>
   </g>
  </g>
  <g id="text_28">
   <!-- Expected improvement for Comparison with Sq.Exp -->
   <g transform="translate(-1.260625 15.677812) scale(0.14 -0.14)">
    <defs>
     <path id="DejaVuSans-45" d="M 628 4666 
L 3578 4666 
L 3578 4134 
L 1259 4134 
L 1259 2753 
L 3481 2753 
L 3481 2222 
L 1259 2222 
L 1259 531 
L 3634 531 
L 3634 0 
L 628 0 
L 628 4666 
z
" transform="scale(0.015625)"/>
     <path id="DejaVuSans-70" d="M 1159 525 
L 1159 -1331 
L 581 -1331 
L 581 3500 
L 1159 3500 
L 1159 2969 
Q 1341 3281 1617 3432 
Q 1894 3584 2278 3584 
Q 2916 3584 3314 3078 
Q 3713 2572 3713 1747 
Q 3713 922 3314 415 
Q 2916 -91 2278 -91 
Q 1894 -91 1617 61 
Q 1341 213 1159 525 
z
M 3116 1747 
Q 3116 2381 2855 2742 
Q 2594 3103 2138 3103 
Q 1681 3103 1420 2742 
Q 1159 2381 1159 1747 
Q 1159 1113 1420 752 
Q 1681 391 2138 391 
Q 2594 391 2855 752 
Q 3116 1113 3116 1747 
z
" transform="scale(0.015625)"/>
     <path id="DejaVuSans-63" d="M 3122 3366 
L 3122 2828 
Q 2878 2963 2633 3030 
Q 2388 3097 2138 3097 
Q 1578 3097 1268 2742 
Q 959 2388 959 1747 
Q 959 1106 1268 751 
Q 1578 397 2138 397 
Q 2388 397 2633 464 
Q 2878 531 3122 666 
L 3122 134 
Q 2881 22 2623 -34 
Q 2366 -91 2075 -91 
Q 1284 -91 818 406 
Q 353 903 353 1747 
Q 353 2603 823 3093 
Q 1294 3584 2113 3584 
Q 2378 3584 2631 3529 
Q 2884 3475 3122 3366 
z
" transform="scale(0.015625)"/>
     <path id="DejaVuSans-74" d="M 1172 4494 
L 1172 3500 
L 2356 3500 
L 2356 3053 
L 1172 3053 
L 1172 1153 
Q 1172 725 1289 603 
Q 1406 481 1766 481 
L 2356 481 
L 2356 0 
L 1766 0 
Q 1100 0 847 248 
Q 594 497 594 1153 
L 594 3053 
L 172 3053 
L 172 3500 
L 594 3500 
L 594 4494 
L 1172 4494 
z
" transform="scale(0.015625)"/>
     <path id="DejaVuSans-64" d="M 2906 2969 
L 2906 4863 
L 3481 4863 
L 3481 0 
L 2906 0 
L 2906 525 
Q 2725 213 2448 61 
Q 2172 -91 1784 -91 
Q 1150 -91 751 415 
Q 353 922 353 1747 
Q 353 2572 751 3078 
Q 1150 3584 1784 3584 
Q 2172 3584 2448 3432 
Q 2725 3281 2906 2969 
z
M 947 1747 
Q 947 1113 1208 752 
Q 1469 391 1925 391 
Q 2381 391 2643 752 
Q 2906 1113 2906 1747 
Q 2906 2381 2643 2742 
Q 2381 3103 1925 3103 
Q 1469 3103 1208 2742 
Q 947 2381 947 1747 
z
" transform="scale(0.015625)"/>
     <path id="DejaVuSans-20" transform="scale(0.015625)"/>
     <path id="DejaVuSans-69" d="M 603 3500 
L 1178 3500 
L 1178 0 
L 603 0 
L 603 3500 
z
M 603 4863 
L 1178 4863 
L 1178 4134 
L 603 4134 
L 603 4863 
z
" transform="scale(0.015625)"/>
     <path id="DejaVuSans-6d" d="M 3328 2828 
Q 3544 3216 3844 3400 
Q 4144 3584 4550 3584 
Q 5097 3584 5394 3201 
Q 5691 2819 5691 2113 
L 5691 0 
L 5113 0 
L 5113 2094 
Q 5113 2597 4934 2840 
Q 4756 3084 4391 3084 
Q 3944 3084 3684 2787 
Q 3425 2491 3425 1978 
L 3425 0 
L 2847 0 
L 2847 2094 
Q 2847 2600 2669 2842 
Q 2491 3084 2119 3084 
Q 1678 3084 1418 2786 
Q 1159 2488 1159 1978 
L 1159 0 
L 581 0 
L 581 3500 
L 1159 3500 
L 1159 2956 
Q 1356 3278 1631 3431 
Q 1906 3584 2284 3584 
Q 2666 3584 2933 3390 
Q 3200 3197 3328 2828 
z
" transform="scale(0.015625)"/>
     <path id="DejaVuSans-72" d="M 2631 2963 
Q 2534 3019 2420 3045 
Q 2306 3072 2169 3072 
Q 1681 3072 1420 2755 
Q 1159 2438 1159 1844 
L 1159 0 
L 581 0 
L 581 3500 
L 1159 3500 
L 1159 2956 
Q 1341 3275 1631 3429 
Q 1922 3584 2338 3584 
Q 2397 3584 2469 3576 
Q 2541 3569 2628 3553 
L 2631 2963 
z
" transform="scale(0.015625)"/>
     <path id="DejaVuSans-6f" d="M 1959 3097 
Q 1497 3097 1228 2736 
Q 959 2375 959 1747 
Q 959 1119 1226 758 
Q 1494 397 1959 397 
Q 2419 397 2687 759 
Q 2956 1122 2956 1747 
Q 2956 2369 2687 2733 
Q 2419 3097 1959 3097 
z
M 1959 3584 
Q 2709 3584 3137 3096 
Q 3566 2609 3566 1747 
Q 3566 888 3137 398 
Q 2709 -91 1959 -91 
Q 1206 -91 779 398 
Q 353 888 353 1747 
Q 353 2609 779 3096 
Q 1206 3584 1959 3584 
z
" transform="scale(0.015625)"/>
     <path id="DejaVuSans-76" d="M 191 3500 
L 800 3500 
L 1894 563 
L 2988 3500 
L 3597 3500 
L 2284 0 
L 1503 0 
L 191 3500 
z
" transform="scale(0.015625)"/>
     <path id="DejaVuSans-6e" d="M 3513 2113 
L 3513 0 
L 2938 0 
L 2938 2094 
Q 2938 2591 2744 2837 
Q 2550 3084 2163 3084 
Q 1697 3084 1428 2787 
Q 1159 2491 1159 1978 
L 1159 0 
L 581 0 
L 581 3500 
L 1159 3500 
L 1159 2956 
Q 1366 3272 1645 3428 
Q 1925 3584 2291 3584 
Q 2894 3584 3203 3211 
Q 3513 2838 3513 2113 
z
" transform="scale(0.015625)"/>
     <path id="DejaVuSans-66" d="M 2375 4863 
L 2375 4384 
L 1825 4384 
Q 1516 4384 1395 4259 
Q 1275 4134 1275 3809 
L 1275 3500 
L 2222 3500 
L 2222 3053 
L 1275 3053 
L 1275 0 
L 697 0 
L 697 3053 
L 147 3053 
L 147 3500 
L 697 3500 
L 697 3744 
Q 697 4328 969 4595 
Q 1241 4863 1831 4863 
L 2375 4863 
z
" transform="scale(0.015625)"/>
     <path id="DejaVuSans-43" d="M 4122 4306 
L 4122 3641 
Q 3803 3938 3442 4084 
Q 3081 4231 2675 4231 
Q 1875 4231 1450 3742 
Q 1025 3253 1025 2328 
Q 1025 1406 1450 917 
Q 1875 428 2675 428 
Q 3081 428 3442 575 
Q 3803 722 4122 1019 
L 4122 359 
Q 3791 134 3420 21 
Q 3050 -91 2638 -91 
Q 1578 -91 968 557 
Q 359 1206 359 2328 
Q 359 3453 968 4101 
Q 1578 4750 2638 4750 
Q 3056 4750 3426 4639 
Q 3797 4528 4122 4306 
z
" transform="scale(0.015625)"/>
     <path id="DejaVuSans-73" d="M 2834 3397 
L 2834 2853 
Q 2591 2978 2328 3040 
Q 2066 3103 1784 3103 
Q 1356 3103 1142 2972 
Q 928 2841 928 2578 
Q 928 2378 1081 2264 
Q 1234 2150 1697 2047 
L 1894 2003 
Q 2506 1872 2764 1633 
Q 3022 1394 3022 966 
Q 3022 478 2636 193 
Q 2250 -91 1575 -91 
Q 1294 -91 989 -36 
Q 684 19 347 128 
L 347 722 
Q 666 556 975 473 
Q 1284 391 1588 391 
Q 1994 391 2212 530 
Q 2431 669 2431 922 
Q 2431 1156 2273 1281 
Q 2116 1406 1581 1522 
L 1381 1569 
Q 847 1681 609 1914 
Q 372 2147 372 2553 
Q 372 3047 722 3315 
Q 1072 3584 1716 3584 
Q 2034 3584 2315 3537 
Q 2597 3491 2834 3397 
z
" transform="scale(0.015625)"/>
     <path id="DejaVuSans-77" d="M 269 3500 
L 844 3500 
L 1563 769 
L 2278 3500 
L 2956 3500 
L 3675 769 
L 4391 3500 
L 4966 3500 
L 4050 0 
L 3372 0 
L 2619 2869 
L 1863 0 
L 1184 0 
L 269 3500 
z
" transform="scale(0.015625)"/>
     <path id="DejaVuSans-68" d="M 3513 2113 
L 3513 0 
L 2938 0 
L 2938 2094 
Q 2938 2591 2744 2837 
Q 2550 3084 2163 3084 
Q 1697 3084 1428 2787 
Q 1159 2491 1159 1978 
L 1159 0 
L 581 0 
L 581 4863 
L 1159 4863 
L 1159 2956 
Q 1366 3272 1645 3428 
Q 1925 3584 2291 3584 
Q 2894 3584 3203 3211 
Q 3513 2838 3513 2113 
z
" transform="scale(0.015625)"/>
     <path id="DejaVuSans-53" d="M 3425 4513 
L 3425 3897 
Q 3066 4069 2747 4153 
Q 2428 4238 2131 4238 
Q 1616 4238 1336 4038 
Q 1056 3838 1056 3469 
Q 1056 3159 1242 3001 
Q 1428 2844 1947 2747 
L 2328 2669 
Q 3034 2534 3370 2195 
Q 3706 1856 3706 1288 
Q 3706 609 3251 259 
Q 2797 -91 1919 -91 
Q 1588 -91 1214 -16 
Q 841 59 441 206 
L 441 856 
Q 825 641 1194 531 
Q 1563 422 1919 422 
Q 2459 422 2753 634 
Q 3047 847 3047 1241 
Q 3047 1584 2836 1778 
Q 2625 1972 2144 2069 
L 1759 2144 
Q 1053 2284 737 2584 
Q 422 2884 422 3419 
Q 422 4038 858 4394 
Q 1294 4750 2059 4750 
Q 2388 4750 2728 4690 
Q 3069 4631 3425 4513 
z
" transform="scale(0.015625)"/>
     <path id="DejaVuSans-71" d="M 947 1747 
Q 947 1113 1208 752 
Q 1469 391 1925 391 
Q 2381 391 2643 752 
Q 2906 1113 2906 1747 
Q 2906 2381 2643 2742 
Q 2381 3103 1925 3103 
Q 1469 3103 1208 2742 
Q 947 2381 947 1747 
z
M 2906 525 
Q 2725 213 2448 61 
Q 2172 -91 1784 -91 
Q 1150 -91 751 415 
Q 353 922 353 1747 
Q 353 2572 751 3078 
Q 1150 3584 1784 3584 
Q 2172 3584 2448 3432 
Q 2725 3281 2906 2969 
L 2906 3500 
L 3481 3500 
L 3481 -1331 
L 2906 -1331 
L 2906 525 
z
" transform="scale(0.015625)"/>
    </defs>
    <use xlink:href="#DejaVuSans-45"/>
    <use xlink:href="#DejaVuSans-78" x="63.183594"/>
    <use xlink:href="#DejaVuSans-70" x="122.363281"/>
    <use xlink:href="#DejaVuSans-65" x="185.839844"/>
    <use xlink:href="#DejaVuSans-63" x="247.363281"/>
    <use xlink:href="#DejaVuSans-74" x="302.34375"/>
    <use xlink:href="#DejaVuSans-65" x="341.552734"/>
    <use xlink:href="#DejaVuSans-64" x="403.076172"/>
    <use xlink:href="#DejaVuSans-20" x="466.552734"/>
    <use xlink:href="#DejaVuSans-69" x="498.339844"/>
    <use xlink:href="#DejaVuSans-6d" x="526.123047"/>
    <use xlink:href="#DejaVuSans-70" x="623.535156"/>
    <use xlink:href="#DejaVuSans-72" x="687.011719"/>
    <use xlink:href="#DejaVuSans-6f" x="725.875"/>
    <use xlink:href="#DejaVuSans-76" x="787.056641"/>
    <use xlink:href="#DejaVuSans-65" x="846.236328"/>
    <use xlink:href="#DejaVuSans-6d" x="907.759766"/>
    <use xlink:href="#DejaVuSans-65" x="1005.171875"/>
    <use xlink:href="#DejaVuSans-6e" x="1066.695312"/>
    <use xlink:href="#DejaVuSans-74" x="1130.074219"/>
    <use xlink:href="#DejaVuSans-20" x="1169.283203"/>
    <use xlink:href="#DejaVuSans-66" x="1201.070312"/>
    <use xlink:href="#DejaVuSans-6f" x="1236.275391"/>
    <use xlink:href="#DejaVuSans-72" x="1297.457031"/>
    <use xlink:href="#DejaVuSans-20" x="1338.570312"/>
    <use xlink:href="#DejaVuSans-43" x="1370.357422"/>
    <use xlink:href="#DejaVuSans-6f" x="1440.181641"/>
    <use xlink:href="#DejaVuSans-6d" x="1501.363281"/>
    <use xlink:href="#DejaVuSans-70" x="1598.775391"/>
    <use xlink:href="#DejaVuSans-61" x="1662.251953"/>
    <use xlink:href="#DejaVuSans-72" x="1723.53125"/>
    <use xlink:href="#DejaVuSans-69" x="1764.644531"/>
    <use xlink:href="#DejaVuSans-73" x="1792.427734"/>
    <use xlink:href="#DejaVuSans-6f" x="1844.527344"/>
    <use xlink:href="#DejaVuSans-6e" x="1905.708984"/>
    <use xlink:href="#DejaVuSans-20" x="1969.087891"/>
    <use xlink:href="#DejaVuSans-77" x="2000.875"/>
    <use xlink:href="#DejaVuSans-69" x="2082.662109"/>
    <use xlink:href="#DejaVuSans-74" x="2110.445312"/>
    <use xlink:href="#DejaVuSans-68" x="2149.654297"/>
    <use xlink:href="#DejaVuSans-20" x="2213.033203"/>
    <use xlink:href="#DejaVuSans-53" x="2244.820312"/>
    <use xlink:href="#DejaVuSans-71" x="2308.296875"/>
    <use xlink:href="#DejaVuSans-2e" x="2371.773438"/>
    <use xlink:href="#DejaVuSans-45" x="2403.560547"/>
    <use xlink:href="#DejaVuSans-78" x="2466.744141"/>
    <use xlink:href="#DejaVuSans-70" x="2525.923828"/>
   </g>
  </g>
 </g>
 <defs>
  <clipPath id="pc28a8af2f4">
   <rect x="52.84" y="20.16" width="215.392" height="184.76"/>
  </clipPath>
  <clipPath id="p237a8f2a82">
   <rect x="281.694" y="20.16" width="9.238" height="184.76"/>
  </clipPath>
 </defs>
</svg>
