<?xml version="1.0" encoding="utf-8" standalone="no"?>
<!DOCTYPE svg PUBLIC "-//W3C//DTD SVG 1.1//EN"
  "http://www.w3.org/Graphics/SVG/1.1/DTD/svg11.dtd">
<svg xmlns:xlink="http://www.w3.org/1999/xlink" width="360pt" height="252pt" viewBox="0 0 360 252" xmlns="http://www.w3.org/2000/svg" version="1.1">
 <metadata>
  <rdf:RDF xmlns:dc="http://purl.org/dc/elements/1.1/" xmlns:cc="http://creativecommons.org/ns#" xmlns:rdf="http://www.w3.org/1999/02/22-rdf-syntax-ns#">
   <cc:Work>
    <dc:type rdf:resource="http://purl.org/dc/dcmitype/StillImage"/>
    <dc:date>2024-03-19T21:28:46.138728</dc:date>
    <dc:format>image/svg+xml</dc:format>
    <dc:creator>
     <cc:Agent>
      <dc:title>Matplotlib v3.8.3, https://matplotlib.org/</dc:title>
     </cc:Agent>
    </dc:creator>
   </cc:Work>
  </rdf:RDF>
 </metadata>
 <defs>
  <style type="text/css">*{stroke-linejoin: round; stroke-linecap: butt}</style>
 </defs>
 <g id="figure_1">
  <g id="patch_1">
   <path d="M 0 252 
L 360 252 
L 360 0 
L 0 0 
z
" style="fill: #ffffff"/>
  </g>
  <g id="axes_1">
   <g id="patch_2">
    <path d="M 52.84 204.92 
L 268.232 204.92 
L 268.232 20.16 
L 52.84 20.16 
z
" style="fill: #ffffff"/>
   </g>
   <g id="QuadContourSet_1">
    <path d="M 57.235755 204.92 
L 61.63151 204.92 
L 66.027265 204.92 
L 70.42302 204.92 
L 74.818776 204.92 
L 79.214531 204.92 
L 83.610286 204.92 
L 88.006041 204.92 
L 92.401796 204.92 
L 96.797551 204.92 
L 101.193306 204.92 
L 105.589061 204.92 
L 109.984816 204.92 
L 114.380571 204.92 
L 118.776327 204.92 
L 123.172082 204.92 
L 127.567837 204.92 
L 131.963592 204.92 
L 136.359347 204.92 
L 140.755102 204.92 
L 145.150857 204.92 
L 149.546612 204.92 
L 153.942367 204.92 
L 158.338122 204.92 
L 162.733878 204.92 
L 167.129633 204.92 
L 171.525388 204.92 
L 175.921143 204.92 
L 180.316898 204.92 
L 184.712653 204.92 
L 189.108408 204.92 
L 193.504163 204.92 
L 197.899918 204.92 
L 202.295673 204.92 
L 206.691429 204.92 
L 211.087184 204.92 
L 215.482939 204.92 
L 219.878694 204.92 
L 224.274449 204.92 
L 228.670204 204.92 
L 233.065959 204.92 
L 237.461714 204.92 
L 240.122658 204.92 
L 241.857469 203.256859 
L 243.905162 201.149388 
L 246.253224 198.986299 
L 247.952415 197.378776 
L 250.64898 194.996124 
L 252.240391 193.608163 
L 255.044735 191.231956 
L 256.776265 189.837551 
L 259.44049 187.669758 
L 261.5951 186.066939 
L 263.836245 184.310802 
L 266.769196 182.296327 
L 268.232 181.187611 
L 268.232 178.525714 
L 268.232 174.755102 
L 268.232 170.98449 
L 268.232 167.213878 
L 268.232 163.443265 
L 268.232 159.672653 
L 268.232 155.902041 
L 268.232 152.131429 
L 268.232 148.360816 
L 268.232 144.590204 
L 268.232 140.819592 
L 268.232 137.04898 
L 268.232 133.278367 
L 268.232 129.507755 
L 268.232 125.737143 
L 268.232 121.966531 
L 268.232 118.195918 
L 268.232 114.425306 
L 268.232 110.654694 
L 268.232 106.884082 
L 268.232 103.113469 
L 268.232 99.342857 
L 268.232 95.572245 
L 268.232 91.801633 
L 268.232 88.03102 
L 268.232 84.260408 
L 268.232 80.489796 
L 268.232 76.719184 
L 268.232 72.948571 
L 268.232 69.177959 
L 268.232 65.407347 
L 268.232 61.636735 
L 268.232 57.866122 
L 268.232 54.09551 
L 268.232 50.324898 
L 268.232 46.554286 
L 268.232 45.28793 
L 264.153059 42.783673 
L 263.836245 42.60693 
L 259.44049 39.987183 
L 258.00126 39.013061 
L 255.044735 37.151369 
L 252.37215 35.242449 
L 250.64898 34.071294 
L 247.20796 31.471837 
L 246.253224 30.770339 
L 242.418901 27.701224 
L 241.857469 27.254469 
L 237.943724 23.930612 
L 237.461714 23.514401 
L 233.74235 20.16 
L 233.065959 20.16 
L 228.670204 20.16 
L 224.274449 20.16 
L 219.878694 20.16 
L 215.482939 20.16 
L 211.087184 20.16 
L 206.691429 20.16 
L 202.295673 20.16 
L 197.899918 20.16 
L 193.504163 20.16 
L 189.108408 20.16 
L 184.712653 20.16 
L 180.316898 20.16 
L 175.921143 20.16 
L 171.525388 20.16 
L 167.129633 20.16 
L 162.733878 20.16 
L 158.338122 20.16 
L 153.942367 20.16 
L 149.546612 20.16 
L 145.150857 20.16 
L 140.755102 20.16 
L 136.359347 20.16 
L 131.963592 20.16 
L 127.567837 20.16 
L 123.172082 20.16 
L 118.776327 20.16 
L 114.380571 20.16 
L 109.984816 20.16 
L 105.589061 20.16 
L 101.193306 20.16 
L 96.797551 20.16 
L 92.401796 20.16 
L 88.006041 20.16 
L 83.610286 20.16 
L 79.214531 20.16 
L 74.818776 20.16 
L 70.42302 20.16 
L 66.027265 20.16 
L 61.63151 20.16 
L 57.235755 20.16 
L 52.84 20.16 
L 52.84 23.930612 
L 52.84 27.701224 
L 52.84 31.471837 
L 52.84 35.242449 
L 52.84 39.013061 
L 52.84 42.783673 
L 52.84 46.554286 
L 52.84 50.324898 
L 52.84 54.09551 
L 52.84 57.866122 
L 52.84 61.636735 
L 52.84 65.407347 
L 52.84 69.177959 
L 52.84 72.948571 
L 52.84 76.719184 
L 52.84 80.489796 
L 52.84 84.260408 
L 52.84 88.03102 
L 52.84 91.801633 
L 52.84 95.572245 
L 52.84 99.342857 
L 52.84 103.113469 
L 52.84 106.884082 
L 52.84 110.654694 
L 52.84 114.425306 
L 52.84 118.195918 
L 52.84 121.966531 
L 52.84 125.737143 
L 52.84 129.507755 
L 52.84 133.278367 
L 52.84 137.04898 
L 52.84 140.819592 
L 52.84 144.590204 
L 52.84 148.360816 
L 52.84 152.131429 
L 52.84 155.902041 
L 52.84 159.672653 
L 52.84 163.443265 
L 52.84 167.213878 
L 52.84 170.98449 
L 52.84 174.755102 
L 52.84 178.525714 
L 52.84 182.296327 
L 52.84 186.066939 
L 52.84 189.837551 
L 52.84 193.608163 
L 52.84 197.378776 
L 52.84 201.149388 
L 52.84 204.92 
z
" clip-path="url(#p7170ff2299)" style="fill: #460a5d"/>
    <path d="M 241.857469 204.92 
L 243.600866 204.92 
L 246.253224 202.391958 
L 247.528481 201.149388 
L 250.64898 198.312994 
L 251.68214 197.378776 
L 255.044735 194.465652 
L 256.064936 193.608163 
L 259.44049 190.819259 
L 260.696076 189.837551 
L 263.836245 187.35895 
L 265.612638 186.066939 
L 268.232 184.085831 
L 268.232 182.296327 
L 268.232 181.187611 
L 266.769196 182.296327 
L 263.836245 184.310802 
L 261.5951 186.066939 
L 259.44049 187.669758 
L 256.776265 189.837551 
L 255.044735 191.231956 
L 252.240391 193.608163 
L 250.64898 194.996124 
L 247.952415 197.378776 
L 246.253224 198.986299 
L 243.905162 201.149388 
L 241.857469 203.256859 
L 240.122658 204.92 
z
M 268.232 45.28793 
L 268.232 42.783673 
L 268.232 39.317035 
L 267.739289 39.013061 
L 263.836245 36.779425 
L 261.473962 35.242449 
L 259.44049 33.992885 
L 255.775378 31.471837 
L 255.044735 30.989038 
L 250.64898 27.80701 
L 250.5105 27.701224 
L 246.253224 24.502458 
L 245.548067 23.930612 
L 241.857469 20.930825 
L 240.963274 20.16 
L 237.461714 20.16 
L 233.74235 20.16 
L 237.461714 23.514401 
L 237.943724 23.930612 
L 241.857469 27.254469 
L 242.418901 27.701224 
L 246.253224 30.770339 
L 247.20796 31.471837 
L 250.64898 34.071294 
L 252.37215 35.242449 
L 255.044735 37.151369 
L 258.00126 39.013061 
L 259.44049 39.987183 
L 263.836245 42.60693 
L 264.153059 42.783673 
z
" clip-path="url(#p7170ff2299)" style="fill: #481d6f"/>
    <path d="M 246.253224 204.92 
L 246.296337 204.92 
L 250.183323 201.149388 
L 250.64898 200.726127 
L 254.350841 197.378776 
L 255.044735 196.777634 
L 258.815625 193.608163 
L 259.44049 193.091896 
L 263.602737 189.837551 
L 263.836245 189.653238 
L 268.232 186.343759 
L 268.232 186.066939 
L 268.232 184.085831 
L 265.612638 186.066939 
L 263.836245 187.35895 
L 260.696076 189.837551 
L 259.44049 190.819259 
L 256.064936 193.608163 
L 255.044735 194.465652 
L 251.68214 197.378776 
L 250.64898 198.312994 
L 247.528481 201.149388 
L 246.253224 202.391958 
L 243.600866 204.92 
z
M 268.232 39.317035 
L 268.232 39.013061 
L 268.232 35.242449 
L 268.232 35.195227 
L 263.836245 32.609502 
L 262.104 31.471837 
L 259.44049 29.796347 
L 256.428038 27.701224 
L 255.044735 26.766224 
L 251.20236 23.930612 
L 250.64898 23.528069 
L 246.355638 20.16 
L 246.253224 20.16 
L 241.857469 20.16 
L 240.963274 20.16 
L 241.857469 20.930825 
L 245.548067 23.930612 
L 246.253224 24.502458 
L 250.5105 27.701224 
L 250.64898 27.80701 
L 255.044735 30.989038 
L 255.775378 31.471837 
L 259.44049 33.992885 
L 261.473962 35.242449 
L 263.836245 36.779425 
L 267.739289 39.013061 
z
" clip-path="url(#p7170ff2299)" style="fill: #472e7c"/>
    <path d="M 250.64898 202.617627 
L 252.221396 201.149388 
L 255.044735 198.635291 
L 256.486148 197.378776 
L 259.44049 194.88094 
L 261.00296 193.608163 
L 263.836245 191.331559 
L 265.798187 189.837551 
L 268.232 187.97572 
L 268.232 186.343759 
L 263.836245 189.653238 
L 263.602737 189.837551 
L 259.44049 193.091896 
L 258.815625 193.608163 
L 255.044735 196.777634 
L 254.350841 197.378776 
L 250.64898 200.726127 
L 250.183323 201.149388 
L 246.296337 204.92 
L 248.194508 204.92 
z
M 263.836245 32.609502 
L 268.232 35.195227 
L 268.232 31.946644 
L 267.475526 31.471837 
L 263.836245 29.287668 
L 261.447836 27.701224 
L 259.44049 26.409438 
L 255.921247 23.930612 
L 255.044735 23.324897 
L 250.815439 20.16 
L 250.64898 20.16 
L 246.355638 20.16 
L 250.64898 23.528069 
L 251.20236 23.930612 
L 255.044735 26.766224 
L 256.428038 27.701224 
L 259.44049 29.796347 
L 262.104 31.471837 
z
" clip-path="url(#p7170ff2299)" style="fill: #423f85"/>
    <path d="M 250.64898 204.398171 
L 254.128278 201.149388 
L 255.044735 200.333311 
L 258.434033 197.378776 
L 259.44049 196.527837 
L 263.024703 193.608163 
L 263.836245 192.956072 
L 267.931511 189.837551 
L 268.232 189.607681 
L 268.232 187.97572 
L 265.798187 189.837551 
L 263.836245 191.331559 
L 261.00296 193.608163 
L 259.44049 194.88094 
L 256.486148 197.378776 
L 255.044735 198.635291 
L 252.221396 201.149388 
L 250.64898 202.617627 
L 248.194508 204.92 
L 250.092678 204.92 
z
M 268.232 31.946644 
L 268.232 31.471837 
L 268.232 29.178785 
L 265.90534 27.701224 
L 263.836245 26.43069 
L 260.120942 23.930612 
L 259.44049 23.482809 
L 255.044735 20.372282 
L 254.761059 20.16 
L 250.815439 20.16 
L 255.044735 23.324897 
L 255.921247 23.930612 
L 259.44049 26.409438 
L 261.447836 27.701224 
L 263.836245 29.287668 
L 267.475526 31.471837 
z
" clip-path="url(#p7170ff2299)" style="fill: #3d4e8a"/>
    <path d="M 250.64898 204.92 
L 251.725776 204.92 
L 255.044735 201.875185 
L 255.850526 201.149388 
L 259.44049 198.030245 
L 260.212228 197.378776 
L 263.836245 194.395099 
L 264.830327 193.608163 
L 268.232 190.951746 
L 268.232 189.837551 
L 268.232 189.607681 
L 267.931511 189.837551 
L 263.836245 192.956072 
L 263.024703 193.608163 
L 259.44049 196.527837 
L 258.434033 197.378776 
L 255.044735 200.333311 
L 254.128278 201.149388 
L 250.64898 204.398171 
L 250.092678 204.92 
z
M 268.232 29.178785 
L 268.232 27.701224 
L 268.232 26.674987 
L 263.968205 23.930612 
L 263.836245 23.847727 
L 259.44049 20.943237 
L 258.344098 20.16 
L 255.044735 20.16 
L 254.761059 20.16 
L 255.044735 20.372282 
L 259.44049 23.482809 
L 260.120942 23.930612 
L 263.836245 26.43069 
L 265.90534 27.701224 
z
" clip-path="url(#p7170ff2299)" style="fill: #365d8d"/>
    <path d="M 255.044735 203.272576 
L 257.40193 201.149388 
L 259.44049 199.378183 
L 261.809011 197.378776 
L 263.836245 195.70974 
L 266.491025 193.608163 
L 268.232 192.24861 
L 268.232 190.951746 
L 264.830327 193.608163 
L 263.836245 194.395099 
L 260.212228 197.378776 
L 259.44049 198.030245 
L 255.850526 201.149388 
L 255.044735 201.875185 
L 251.725776 204.92 
L 253.248982 204.92 
z
M 268.232 26.674987 
L 268.232 24.393523 
L 267.512799 23.930612 
L 263.836245 21.621327 
L 261.695801 20.16 
L 259.44049 20.16 
L 258.344098 20.16 
L 259.44049 20.943237 
L 263.836245 23.847727 
L 263.968205 23.930612 
z
" clip-path="url(#p7170ff2299)" style="fill: #306a8e"/>
    <path d="M 255.044735 204.669966 
L 258.953334 201.149388 
L 259.44049 200.726122 
L 263.405793 197.378776 
L 263.836245 197.024382 
L 268.151723 193.608163 
L 268.232 193.545474 
L 268.232 192.24861 
L 266.491025 193.608163 
L 263.836245 195.70974 
L 261.809011 197.378776 
L 259.44049 199.378183 
L 257.40193 201.149388 
L 255.044735 203.272576 
L 253.248982 204.92 
L 254.772188 204.92 
z
M 268.232 24.393523 
L 268.232 23.930612 
L 268.232 22.350826 
L 264.878686 20.16 
L 263.836245 20.16 
L 261.695801 20.16 
L 263.836245 21.621327 
L 267.512799 23.930612 
z
" clip-path="url(#p7170ff2299)" style="fill: #2a778e"/>
    <path d="M 255.044735 204.92 
L 256.133676 204.92 
L 259.44049 201.96295 
L 260.373542 201.149388 
L 263.836245 198.219419 
L 264.862246 197.378776 
L 268.232 194.679106 
L 268.232 193.608163 
L 268.232 193.545474 
L 268.151723 193.608163 
L 263.836245 197.024382 
L 263.405793 197.378776 
L 259.44049 200.726122 
L 258.953334 201.149388 
L 255.044735 204.669966 
L 254.772188 204.92 
z
M 268.232 22.350826 
L 268.232 20.368907 
L 267.912243 20.16 
L 264.878686 20.16 
z
" clip-path="url(#p7170ff2299)" style="fill: #25838e"/>
    <path d="M 259.44049 203.148917 
L 261.733695 201.149388 
L 263.836245 199.370314 
L 266.266907 197.378776 
L 268.232 195.804446 
L 268.232 194.679106 
L 264.862246 197.378776 
L 263.836245 198.219419 
L 260.373542 201.149388 
L 259.44049 201.96295 
L 256.133676 204.92 
L 257.459921 204.92 
z
M 268.232 20.368907 
L 268.232 20.16 
L 267.912243 20.16 
z
" clip-path="url(#p7170ff2299)" style="fill: #21918c"/>
    <path d="M 259.44049 204.334885 
L 263.093849 201.149388 
L 263.836245 200.521209 
L 267.671568 197.378776 
L 268.232 196.929787 
L 268.232 195.804446 
L 266.266907 197.378776 
L 263.836245 199.370314 
L 261.733695 201.149388 
L 259.44049 203.148917 
L 257.459921 204.92 
L 258.786166 204.92 
z
" clip-path="url(#p7170ff2299)" style="fill: #1e9d89"/>
    <path d="M 259.44049 204.92 
L 260.053705 204.92 
L 263.836245 201.627846 
L 264.402001 201.149388 
L 268.232 197.995316 
L 268.232 197.378776 
L 268.232 196.929787 
L 267.671568 197.378776 
L 263.836245 200.521209 
L 263.093849 201.149388 
L 259.44049 204.334885 
L 258.786166 204.92 
z
" clip-path="url(#p7170ff2299)" style="fill: #23a983"/>
    <path d="M 263.836245 202.681298 
L 265.647662 201.149388 
L 268.232 199.021139 
L 268.232 197.995316 
L 264.402001 201.149388 
L 263.836245 201.627846 
L 260.053705 204.92 
L 261.264074 204.92 
z
" clip-path="url(#p7170ff2299)" style="fill: #32b67a"/>
    <path d="M 263.836245 203.734749 
L 266.893322 201.149388 
L 268.232 200.046963 
L 268.232 199.021139 
L 265.647662 201.149388 
L 263.836245 202.681298 
L 261.264074 204.92 
L 262.474443 204.92 
z
" clip-path="url(#p7170ff2299)" style="fill: #48c16e"/>
    <path d="M 263.836245 204.7882 
L 268.138982 201.149388 
L 268.232 201.072786 
L 268.232 200.046963 
L 266.893322 201.149388 
L 263.836245 203.734749 
L 262.474443 204.92 
L 263.684813 204.92 
z
" clip-path="url(#p7170ff2299)" style="fill: #65cb5e"/>
    <path d="M 263.836245 204.92 
L 264.828736 204.92 
L 268.232 202.038243 
L 268.232 201.149388 
L 268.232 201.072786 
L 268.138982 201.149388 
L 263.836245 204.7882 
L 263.684813 204.92 
z
" clip-path="url(#p7170ff2299)" style="fill: #84d44b"/>
    <path d="M 268.232 202.998829 
L 268.232 202.038243 
L 264.828736 204.92 
L 265.963157 204.92 
z
" clip-path="url(#p7170ff2299)" style="fill: #a8db34"/>
    <path d="M 268.232 203.959414 
L 268.232 202.998829 
L 265.963157 204.92 
L 267.097579 204.92 
z
" clip-path="url(#p7170ff2299)" style="fill: #cae11f"/>
    <path d="M 268.232 204.92 
L 268.232 203.959414 
L 267.097579 204.92 
z
" clip-path="url(#p7170ff2299)" style="fill: #efe51c"/>
   </g>
   <g id="PathCollection_1">
    <defs>
     <path id="mee29d15ab6" d="M 0 3 
C 0.795609 3 1.55874 2.683901 2.12132 2.12132 
C 2.683901 1.55874 3 0.795609 3 0 
C 3 -0.795609 2.683901 -1.55874 2.12132 -2.12132 
C 1.55874 -2.683901 0.795609 -3 0 -3 
C -0.795609 -3 -1.55874 -2.683901 -2.12132 -2.12132 
C -2.683901 -1.55874 -3 -0.795609 -3 0 
C -3 0.795609 -2.683901 1.55874 -2.12132 2.12132 
C -1.55874 2.683901 -0.795609 3 0 3 
z
" style="stroke: #ff0000"/>
    </defs>
    <g clip-path="url(#p7170ff2299)">
     <use xlink:href="#mee29d15ab6" x="268.232" y="204.92" style="fill: #ff0000; stroke: #ff0000"/>
    </g>
   </g>
   <g id="matplotlib.axis_1">
    <g id="xtick_1">
     <g id="line2d_1">
      <defs>
       <path id="mc37cc3278b" d="M 0 0 
L 0 3.5 
" style="stroke: #000000; stroke-width: 0.8"/>
      </defs>
      <g>
       <use xlink:href="#mc37cc3278b" x="52.84" y="204.92" style="stroke: #000000; stroke-width: 0.8"/>
      </g>
     </g>
     <g id="text_1">
      <!-- −1.0 -->
      <g transform="translate(40.698594 219.518437) scale(0.1 -0.1)">
       <defs>
        <path id="DejaVuSans-2212" d="M 678 2272 
L 4684 2272 
L 4684 1741 
L 678 1741 
L 678 2272 
z
" transform="scale(0.015625)"/>
        <path id="DejaVuSans-31" d="M 794 531 
L 1825 531 
L 1825 4091 
L 703 3866 
L 703 4441 
L 1819 4666 
L 2450 4666 
L 2450 531 
L 3481 531 
L 3481 0 
L 794 0 
L 794 531 
z
" transform="scale(0.015625)"/>
        <path id="DejaVuSans-2e" d="M 684 794 
L 1344 794 
L 1344 0 
L 684 0 
L 684 794 
z
" transform="scale(0.015625)"/>
        <path id="DejaVuSans-30" d="M 2034 4250 
Q 1547 4250 1301 3770 
Q 1056 3291 1056 2328 
Q 1056 1369 1301 889 
Q 1547 409 2034 409 
Q 2525 409 2770 889 
Q 3016 1369 3016 2328 
Q 3016 3291 2770 3770 
Q 2525 4250 2034 4250 
z
M 2034 4750 
Q 2819 4750 3233 4129 
Q 3647 3509 3647 2328 
Q 3647 1150 3233 529 
Q 2819 -91 2034 -91 
Q 1250 -91 836 529 
Q 422 1150 422 2328 
Q 422 3509 836 4129 
Q 1250 4750 2034 4750 
z
" transform="scale(0.015625)"/>
       </defs>
       <use xlink:href="#DejaVuSans-2212"/>
       <use xlink:href="#DejaVuSans-31" x="83.789062"/>
       <use xlink:href="#DejaVuSans-2e" x="147.412109"/>
       <use xlink:href="#DejaVuSans-30" x="179.199219"/>
      </g>
     </g>
    </g>
    <g id="xtick_2">
     <g id="line2d_2">
      <g>
       <use xlink:href="#mc37cc3278b" x="106.688" y="204.92" style="stroke: #000000; stroke-width: 0.8"/>
      </g>
     </g>
     <g id="text_2">
      <!-- −0.5 -->
      <g transform="translate(94.546594 219.518437) scale(0.1 -0.1)">
       <defs>
        <path id="DejaVuSans-35" d="M 691 4666 
L 3169 4666 
L 3169 4134 
L 1269 4134 
L 1269 2991 
Q 1406 3038 1543 3061 
Q 1681 3084 1819 3084 
Q 2600 3084 3056 2656 
Q 3513 2228 3513 1497 
Q 3513 744 3044 326 
Q 2575 -91 1722 -91 
Q 1428 -91 1123 -41 
Q 819 9 494 109 
L 494 744 
Q 775 591 1075 516 
Q 1375 441 1709 441 
Q 2250 441 2565 725 
Q 2881 1009 2881 1497 
Q 2881 1984 2565 2268 
Q 2250 2553 1709 2553 
Q 1456 2553 1204 2497 
Q 953 2441 691 2322 
L 691 4666 
z
" transform="scale(0.015625)"/>
       </defs>
       <use xlink:href="#DejaVuSans-2212"/>
       <use xlink:href="#DejaVuSans-30" x="83.789062"/>
       <use xlink:href="#DejaVuSans-2e" x="147.412109"/>
       <use xlink:href="#DejaVuSans-35" x="179.199219"/>
      </g>
     </g>
    </g>
    <g id="xtick_3">
     <g id="line2d_3">
      <g>
       <use xlink:href="#mc37cc3278b" x="160.536" y="204.92" style="stroke: #000000; stroke-width: 0.8"/>
      </g>
     </g>
     <g id="text_3">
      <!-- 0.0 -->
      <g transform="translate(152.584438 219.518437) scale(0.1 -0.1)">
       <use xlink:href="#DejaVuSans-30"/>
       <use xlink:href="#DejaVuSans-2e" x="63.623047"/>
       <use xlink:href="#DejaVuSans-30" x="95.410156"/>
      </g>
     </g>
    </g>
    <g id="xtick_4">
     <g id="line2d_4">
      <g>
       <use xlink:href="#mc37cc3278b" x="214.384" y="204.92" style="stroke: #000000; stroke-width: 0.8"/>
      </g>
     </g>
     <g id="text_4">
      <!-- 0.5 -->
      <g transform="translate(206.432438 219.518437) scale(0.1 -0.1)">
       <use xlink:href="#DejaVuSans-30"/>
       <use xlink:href="#DejaVuSans-2e" x="63.623047"/>
       <use xlink:href="#DejaVuSans-35" x="95.410156"/>
      </g>
     </g>
    </g>
    <g id="xtick_5">
     <g id="line2d_5">
      <g>
       <use xlink:href="#mc37cc3278b" x="268.232" y="204.92" style="stroke: #000000; stroke-width: 0.8"/>
      </g>
     </g>
     <g id="text_5">
      <!-- 1.0 -->
      <g transform="translate(260.280438 219.518437) scale(0.1 -0.1)">
       <use xlink:href="#DejaVuSans-31"/>
       <use xlink:href="#DejaVuSans-2e" x="63.623047"/>
       <use xlink:href="#DejaVuSans-30" x="95.410156"/>
      </g>
     </g>
    </g>
    <g id="text_6">
     <!-- x -->
     <g transform="translate(157.576625 233.196562) scale(0.1 -0.1)">
      <defs>
       <path id="DejaVuSans-78" d="M 3513 3500 
L 2247 1797 
L 3578 0 
L 2900 0 
L 1881 1375 
L 863 0 
L 184 0 
L 1544 1831 
L 300 3500 
L 978 3500 
L 1906 2253 
L 2834 3500 
L 3513 3500 
z
" transform="scale(0.015625)"/>
      </defs>
      <use xlink:href="#DejaVuSans-78"/>
     </g>
    </g>
   </g>
   <g id="matplotlib.axis_2">
    <g id="ytick_1">
     <g id="line2d_6">
      <defs>
       <path id="medf91d1cf7" d="M 0 0 
L -3.5 0 
" style="stroke: #000000; stroke-width: 0.8"/>
      </defs>
      <g>
       <use xlink:href="#medf91d1cf7" x="52.84" y="204.92" style="stroke: #000000; stroke-width: 0.8"/>
      </g>
     </g>
     <g id="text_7">
      <!-- −1.00 -->
      <g transform="translate(15.194688 208.719219) scale(0.1 -0.1)">
       <use xlink:href="#DejaVuSans-2212"/>
       <use xlink:href="#DejaVuSans-31" x="83.789062"/>
       <use xlink:href="#DejaVuSans-2e" x="147.412109"/>
       <use xlink:href="#DejaVuSans-30" x="179.199219"/>
       <use xlink:href="#DejaVuSans-30" x="242.822266"/>
      </g>
     </g>
    </g>
    <g id="ytick_2">
     <g id="line2d_7">
      <g>
       <use xlink:href="#medf91d1cf7" x="52.84" y="181.825" style="stroke: #000000; stroke-width: 0.8"/>
      </g>
     </g>
     <g id="text_8">
      <!-- −0.75 -->
      <g transform="translate(15.194688 185.624219) scale(0.1 -0.1)">
       <defs>
        <path id="DejaVuSans-37" d="M 525 4666 
L 3525 4666 
L 3525 4397 
L 1831 0 
L 1172 0 
L 2766 4134 
L 525 4134 
L 525 4666 
z
" transform="scale(0.015625)"/>
       </defs>
       <use xlink:href="#DejaVuSans-2212"/>
       <use xlink:href="#DejaVuSans-30" x="83.789062"/>
       <use xlink:href="#DejaVuSans-2e" x="147.412109"/>
       <use xlink:href="#DejaVuSans-37" x="179.199219"/>
       <use xlink:href="#DejaVuSans-35" x="242.822266"/>
      </g>
     </g>
    </g>
    <g id="ytick_3">
     <g id="line2d_8">
      <g>
       <use xlink:href="#medf91d1cf7" x="52.84" y="158.73" style="stroke: #000000; stroke-width: 0.8"/>
      </g>
     </g>
     <g id="text_9">
      <!-- −0.50 -->
      <g transform="translate(15.194688 162.529219) scale(0.1 -0.1)">
       <use xlink:href="#DejaVuSans-2212"/>
       <use xlink:href="#DejaVuSans-30" x="83.789062"/>
       <use xlink:href="#DejaVuSans-2e" x="147.412109"/>
       <use xlink:href="#DejaVuSans-35" x="179.199219"/>
       <use xlink:href="#DejaVuSans-30" x="242.822266"/>
      </g>
     </g>
    </g>
    <g id="ytick_4">
     <g id="line2d_9">
      <g>
       <use xlink:href="#medf91d1cf7" x="52.84" y="135.635" style="stroke: #000000; stroke-width: 0.8"/>
      </g>
     </g>
     <g id="text_10">
      <!-- −0.25 -->
      <g transform="translate(15.194688 139.434219) scale(0.1 -0.1)">
       <defs>
        <path id="DejaVuSans-32" d="M 1228 531 
L 3431 531 
L 3431 0 
L 469 0 
L 469 531 
Q 828 903 1448 1529 
Q 2069 2156 2228 2338 
Q 2531 2678 2651 2914 
Q 2772 3150 2772 3378 
Q 2772 3750 2511 3984 
Q 2250 4219 1831 4219 
Q 1534 4219 1204 4116 
Q 875 4013 500 3803 
L 500 4441 
Q 881 4594 1212 4672 
Q 1544 4750 1819 4750 
Q 2544 4750 2975 4387 
Q 3406 4025 3406 3419 
Q 3406 3131 3298 2873 
Q 3191 2616 2906 2266 
Q 2828 2175 2409 1742 
Q 1991 1309 1228 531 
z
" transform="scale(0.015625)"/>
       </defs>
       <use xlink:href="#DejaVuSans-2212"/>
       <use xlink:href="#DejaVuSans-30" x="83.789062"/>
       <use xlink:href="#DejaVuSans-2e" x="147.412109"/>
       <use xlink:href="#DejaVuSans-32" x="179.199219"/>
       <use xlink:href="#DejaVuSans-35" x="242.822266"/>
      </g>
     </g>
    </g>
    <g id="ytick_5">
     <g id="line2d_10">
      <g>
       <use xlink:href="#medf91d1cf7" x="52.84" y="112.54" style="stroke: #000000; stroke-width: 0.8"/>
      </g>
     </g>
     <g id="text_11">
      <!-- 0.00 -->
      <g transform="translate(23.574375 116.339219) scale(0.1 -0.1)">
       <use xlink:href="#DejaVuSans-30"/>
       <use xlink:href="#DejaVuSans-2e" x="63.623047"/>
       <use xlink:href="#DejaVuSans-30" x="95.410156"/>
       <use xlink:href="#DejaVuSans-30" x="159.033203"/>
      </g>
     </g>
    </g>
    <g id="ytick_6">
     <g id="line2d_11">
      <g>
       <use xlink:href="#medf91d1cf7" x="52.84" y="89.445" style="stroke: #000000; stroke-width: 0.8"/>
      </g>
     </g>
     <g id="text_12">
      <!-- 0.25 -->
      <g transform="translate(23.574375 93.244219) scale(0.1 -0.1)">
       <use xlink:href="#DejaVuSans-30"/>
       <use xlink:href="#DejaVuSans-2e" x="63.623047"/>
       <use xlink:href="#DejaVuSans-32" x="95.410156"/>
       <use xlink:href="#DejaVuSans-35" x="159.033203"/>
      </g>
     </g>
    </g>
    <g id="ytick_7">
     <g id="line2d_12">
      <g>
       <use xlink:href="#medf91d1cf7" x="52.84" y="66.35" style="stroke: #000000; stroke-width: 0.8"/>
      </g>
     </g>
     <g id="text_13">
      <!-- 0.50 -->
      <g transform="translate(23.574375 70.149219) scale(0.1 -0.1)">
       <use xlink:href="#DejaVuSans-30"/>
       <use xlink:href="#DejaVuSans-2e" x="63.623047"/>
       <use xlink:href="#DejaVuSans-35" x="95.410156"/>
       <use xlink:href="#DejaVuSans-30" x="159.033203"/>
      </g>
     </g>
    </g>
    <g id="ytick_8">
     <g id="line2d_13">
      <g>
       <use xlink:href="#medf91d1cf7" x="52.84" y="43.255" style="stroke: #000000; stroke-width: 0.8"/>
      </g>
     </g>
     <g id="text_14">
      <!-- 0.75 -->
      <g transform="translate(23.574375 47.054219) scale(0.1 -0.1)">
       <use xlink:href="#DejaVuSans-30"/>
       <use xlink:href="#DejaVuSans-2e" x="63.623047"/>
       <use xlink:href="#DejaVuSans-37" x="95.410156"/>
       <use xlink:href="#DejaVuSans-35" x="159.033203"/>
      </g>
     </g>
    </g>
    <g id="ytick_9">
     <g id="line2d_14">
      <g>
       <use xlink:href="#medf91d1cf7" x="52.84" y="20.16" style="stroke: #000000; stroke-width: 0.8"/>
      </g>
     </g>
     <g id="text_15">
      <!-- 1.00 -->
      <g transform="translate(23.574375 23.959219) scale(0.1 -0.1)">
       <use xlink:href="#DejaVuSans-31"/>
       <use xlink:href="#DejaVuSans-2e" x="63.623047"/>
       <use xlink:href="#DejaVuSans-30" x="95.410156"/>
       <use xlink:href="#DejaVuSans-30" x="159.033203"/>
      </g>
     </g>
    </g>
    <g id="text_16">
     <!-- y -->
     <g transform="translate(9.115 115.499375) rotate(-90) scale(0.1 -0.1)">
      <defs>
       <path id="DejaVuSans-79" d="M 2059 -325 
Q 1816 -950 1584 -1140 
Q 1353 -1331 966 -1331 
L 506 -1331 
L 506 -850 
L 844 -850 
Q 1081 -850 1212 -737 
Q 1344 -625 1503 -206 
L 1606 56 
L 191 3500 
L 800 3500 
L 1894 763 
L 2988 3500 
L 3597 3500 
L 2059 -325 
z
" transform="scale(0.015625)"/>
      </defs>
      <use xlink:href="#DejaVuSans-79"/>
     </g>
    </g>
   </g>
   <g id="patch_3">
    <path d="M 52.84 204.92 
L 52.84 20.16 
" style="fill: none; stroke: #000000; stroke-width: 0.8; stroke-linejoin: miter; stroke-linecap: square"/>
   </g>
   <g id="patch_4">
    <path d="M 268.232 204.92 
L 268.232 20.16 
" style="fill: none; stroke: #000000; stroke-width: 0.8; stroke-linejoin: miter; stroke-linecap: square"/>
   </g>
   <g id="patch_5">
    <path d="M 52.84 204.92 
L 268.232 204.92 
" style="fill: none; stroke: #000000; stroke-width: 0.8; stroke-linejoin: miter; stroke-linecap: square"/>
   </g>
   <g id="patch_6">
    <path d="M 52.84 20.16 
L 268.232 20.16 
" style="fill: none; stroke: #000000; stroke-width: 0.8; stroke-linejoin: miter; stroke-linecap: square"/>
   </g>
   <g id="legend_1">
    <g id="patch_7">
     <path d="M 208.557 42.838125 
L 261.232 42.838125 
Q 263.232 42.838125 263.232 40.838125 
L 263.232 27.16 
Q 263.232 25.16 261.232 25.16 
L 208.557 25.16 
Q 206.557 25.16 206.557 27.16 
L 206.557 40.838125 
Q 206.557 42.838125 208.557 42.838125 
z
" style="fill: #ffffff; opacity: 0.8; stroke: #cccccc; stroke-linejoin: miter"/>
    </g>
    <g id="PathCollection_2">
     <g>
      <use xlink:href="#mee29d15ab6" x="220.557" y="34.133437" style="fill: #ff0000; stroke: #ff0000"/>
     </g>
    </g>
    <g id="text_17">
     <!-- Max -->
     <g transform="translate(238.557 36.758437) scale(0.1 -0.1)">
      <defs>
       <path id="DejaVuSans-4d" d="M 628 4666 
L 1569 4666 
L 2759 1491 
L 3956 4666 
L 4897 4666 
L 4897 0 
L 4281 0 
L 4281 4097 
L 3078 897 
L 2444 897 
L 1241 4097 
L 1241 0 
L 628 0 
L 628 4666 
z
" transform="scale(0.015625)"/>
       <path id="DejaVuSans-61" d="M 2194 1759 
Q 1497 1759 1228 1600 
Q 959 1441 959 1056 
Q 959 750 1161 570 
Q 1363 391 1709 391 
Q 2188 391 2477 730 
Q 2766 1069 2766 1631 
L 2766 1759 
L 2194 1759 
z
M 3341 1997 
L 3341 0 
L 2766 0 
L 2766 531 
Q 2569 213 2275 61 
Q 1981 -91 1556 -91 
Q 1019 -91 701 211 
Q 384 513 384 1019 
Q 384 1609 779 1909 
Q 1175 2209 1959 2209 
L 2766 2209 
L 2766 2266 
Q 2766 2663 2505 2880 
Q 2244 3097 1772 3097 
Q 1472 3097 1187 3025 
Q 903 2953 641 2809 
L 641 3341 
Q 956 3463 1253 3523 
Q 1550 3584 1831 3584 
Q 2591 3584 2966 3190 
Q 3341 2797 3341 1997 
z
" transform="scale(0.015625)"/>
      </defs>
      <use xlink:href="#DejaVuSans-4d"/>
      <use xlink:href="#DejaVuSans-61" x="86.279297"/>
      <use xlink:href="#DejaVuSans-78" x="147.558594"/>
     </g>
    </g>
   </g>
  </g>
  <g id="axes_2">
   <g id="patch_8">
    <path d="M 281.694 204.92 
L 290.932 204.92 
L 290.932 20.16 
L 281.694 20.16 
z
" style="fill: #ffffff"/>
   </g>
   <g id="QuadMesh_1">
    <path d="M 281.694 204.92 
L 290.932 204.92 
L 290.932 195.195789 
L 281.694 195.195789 
L 281.694 204.92 
" clip-path="url(#p5874ef8753)" style="fill: #460a5d"/>
    <path d="M 281.694 195.195789 
L 290.932 195.195789 
L 290.932 185.471579 
L 281.694 185.471579 
L 281.694 195.195789 
" clip-path="url(#p5874ef8753)" style="fill: #481d6f"/>
    <path d="M 281.694 185.471579 
L 290.932 185.471579 
L 290.932 175.747368 
L 281.694 175.747368 
L 281.694 185.471579 
" clip-path="url(#p5874ef8753)" style="fill: #472e7c"/>
    <path d="M 281.694 175.747368 
L 290.932 175.747368 
L 290.932 166.023158 
L 281.694 166.023158 
L 281.694 175.747368 
" clip-path="url(#p5874ef8753)" style="fill: #423f85"/>
    <path d="M 281.694 166.023158 
L 290.932 166.023158 
L 290.932 156.298947 
L 281.694 156.298947 
L 281.694 166.023158 
" clip-path="url(#p5874ef8753)" style="fill: #3d4e8a"/>
    <path d="M 281.694 156.298947 
L 290.932 156.298947 
L 290.932 146.574737 
L 281.694 146.574737 
L 281.694 156.298947 
" clip-path="url(#p5874ef8753)" style="fill: #365d8d"/>
    <path d="M 281.694 146.574737 
L 290.932 146.574737 
L 290.932 136.850526 
L 281.694 136.850526 
L 281.694 146.574737 
" clip-path="url(#p5874ef8753)" style="fill: #306a8e"/>
    <path d="M 281.694 136.850526 
L 290.932 136.850526 
L 290.932 127.126316 
L 281.694 127.126316 
L 281.694 136.850526 
" clip-path="url(#p5874ef8753)" style="fill: #2a778e"/>
    <path d="M 281.694 127.126316 
L 290.932 127.126316 
L 290.932 117.402105 
L 281.694 117.402105 
L 281.694 127.126316 
" clip-path="url(#p5874ef8753)" style="fill: #25838e"/>
    <path d="M 281.694 117.402105 
L 290.932 117.402105 
L 290.932 107.677895 
L 281.694 107.677895 
L 281.694 117.402105 
" clip-path="url(#p5874ef8753)" style="fill: #21918c"/>
    <path d="M 281.694 107.677895 
L 290.932 107.677895 
L 290.932 97.953684 
L 281.694 97.953684 
L 281.694 107.677895 
" clip-path="url(#p5874ef8753)" style="fill: #1e9d89"/>
    <path d="M 281.694 97.953684 
L 290.932 97.953684 
L 290.932 88.229474 
L 281.694 88.229474 
L 281.694 97.953684 
" clip-path="url(#p5874ef8753)" style="fill: #23a983"/>
    <path d="M 281.694 88.229474 
L 290.932 88.229474 
L 290.932 78.505263 
L 281.694 78.505263 
L 281.694 88.229474 
" clip-path="url(#p5874ef8753)" style="fill: #32b67a"/>
    <path d="M 281.694 78.505263 
L 290.932 78.505263 
L 290.932 68.781053 
L 281.694 68.781053 
L 281.694 78.505263 
" clip-path="url(#p5874ef8753)" style="fill: #48c16e"/>
    <path d="M 281.694 68.781053 
L 290.932 68.781053 
L 290.932 59.056842 
L 281.694 59.056842 
L 281.694 68.781053 
" clip-path="url(#p5874ef8753)" style="fill: #65cb5e"/>
    <path d="M 281.694 59.056842 
L 290.932 59.056842 
L 290.932 49.332632 
L 281.694 49.332632 
L 281.694 59.056842 
" clip-path="url(#p5874ef8753)" style="fill: #84d44b"/>
    <path d="M 281.694 49.332632 
L 290.932 49.332632 
L 290.932 39.608421 
L 281.694 39.608421 
L 281.694 49.332632 
" clip-path="url(#p5874ef8753)" style="fill: #a8db34"/>
    <path d="M 281.694 39.608421 
L 290.932 39.608421 
L 290.932 29.884211 
L 281.694 29.884211 
L 281.694 39.608421 
" clip-path="url(#p5874ef8753)" style="fill: #cae11f"/>
    <path d="M 281.694 29.884211 
L 290.932 29.884211 
L 290.932 20.16 
L 281.694 20.16 
L 281.694 29.884211 
" clip-path="url(#p5874ef8753)" style="fill: #efe51c"/>
   </g>
   <g id="matplotlib.axis_3"/>
   <g id="matplotlib.axis_4">
    <g id="ytick_10">
     <g id="line2d_15">
      <defs>
       <path id="m29cf78052c" d="M 0 0 
L 3.5 0 
" style="stroke: #000000; stroke-width: 0.8"/>
      </defs>
      <g>
       <use xlink:href="#m29cf78052c" x="290.932" y="204.92" style="stroke: #000000; stroke-width: 0.8"/>
      </g>
     </g>
     <g id="text_18">
      <!-- 0.0e+00 -->
      <g transform="translate(297.932 208.719219) scale(0.1 -0.1)">
       <defs>
        <path id="DejaVuSans-65" d="M 3597 1894 
L 3597 1613 
L 953 1613 
Q 991 1019 1311 708 
Q 1631 397 2203 397 
Q 2534 397 2845 478 
Q 3156 559 3463 722 
L 3463 178 
Q 3153 47 2828 -22 
Q 2503 -91 2169 -91 
Q 1331 -91 842 396 
Q 353 884 353 1716 
Q 353 2575 817 3079 
Q 1281 3584 2069 3584 
Q 2775 3584 3186 3129 
Q 3597 2675 3597 1894 
z
M 3022 2063 
Q 3016 2534 2758 2815 
Q 2500 3097 2075 3097 
Q 1594 3097 1305 2825 
Q 1016 2553 972 2059 
L 3022 2063 
z
" transform="scale(0.015625)"/>
        <path id="DejaVuSans-2b" d="M 2944 4013 
L 2944 2272 
L 4684 2272 
L 4684 1741 
L 2944 1741 
L 2944 0 
L 2419 0 
L 2419 1741 
L 678 1741 
L 678 2272 
L 2419 2272 
L 2419 4013 
L 2944 4013 
z
" transform="scale(0.015625)"/>
       </defs>
       <use xlink:href="#DejaVuSans-30"/>
       <use xlink:href="#DejaVuSans-2e" x="63.623047"/>
       <use xlink:href="#DejaVuSans-30" x="95.410156"/>
       <use xlink:href="#DejaVuSans-65" x="159.033203"/>
       <use xlink:href="#DejaVuSans-2b" x="220.556641"/>
       <use xlink:href="#DejaVuSans-30" x="304.345703"/>
       <use xlink:href="#DejaVuSans-30" x="367.96875"/>
      </g>
     </g>
    </g>
    <g id="ytick_11">
     <g id="line2d_16">
      <g>
       <use xlink:href="#m29cf78052c" x="290.932" y="185.471579" style="stroke: #000000; stroke-width: 0.8"/>
      </g>
     </g>
     <g id="text_19">
      <!-- 7.7e-02 -->
      <g transform="translate(297.932 189.270798) scale(0.1 -0.1)">
       <defs>
        <path id="DejaVuSans-2d" d="M 313 2009 
L 1997 2009 
L 1997 1497 
L 313 1497 
L 313 2009 
z
" transform="scale(0.015625)"/>
       </defs>
       <use xlink:href="#DejaVuSans-37"/>
       <use xlink:href="#DejaVuSans-2e" x="63.623047"/>
       <use xlink:href="#DejaVuSans-37" x="95.410156"/>
       <use xlink:href="#DejaVuSans-65" x="159.033203"/>
       <use xlink:href="#DejaVuSans-2d" x="220.556641"/>
       <use xlink:href="#DejaVuSans-30" x="256.640625"/>
       <use xlink:href="#DejaVuSans-32" x="320.263672"/>
      </g>
     </g>
    </g>
    <g id="ytick_12">
     <g id="line2d_17">
      <g>
       <use xlink:href="#m29cf78052c" x="290.932" y="166.023158" style="stroke: #000000; stroke-width: 0.8"/>
      </g>
     </g>
     <g id="text_20">
      <!-- 1.5e-01 -->
      <g transform="translate(297.932 169.822377) scale(0.1 -0.1)">
       <use xlink:href="#DejaVuSans-31"/>
       <use xlink:href="#DejaVuSans-2e" x="63.623047"/>
       <use xlink:href="#DejaVuSans-35" x="95.410156"/>
       <use xlink:href="#DejaVuSans-65" x="159.033203"/>
       <use xlink:href="#DejaVuSans-2d" x="220.556641"/>
       <use xlink:href="#DejaVuSans-30" x="256.640625"/>
       <use xlink:href="#DejaVuSans-31" x="320.263672"/>
      </g>
     </g>
    </g>
    <g id="ytick_13">
     <g id="line2d_18">
      <g>
       <use xlink:href="#m29cf78052c" x="290.932" y="146.574737" style="stroke: #000000; stroke-width: 0.8"/>
      </g>
     </g>
     <g id="text_21">
      <!-- 2.3e-01 -->
      <g transform="translate(297.932 150.373956) scale(0.1 -0.1)">
       <defs>
        <path id="DejaVuSans-33" d="M 2597 2516 
Q 3050 2419 3304 2112 
Q 3559 1806 3559 1356 
Q 3559 666 3084 287 
Q 2609 -91 1734 -91 
Q 1441 -91 1130 -33 
Q 819 25 488 141 
L 488 750 
Q 750 597 1062 519 
Q 1375 441 1716 441 
Q 2309 441 2620 675 
Q 2931 909 2931 1356 
Q 2931 1769 2642 2001 
Q 2353 2234 1838 2234 
L 1294 2234 
L 1294 2753 
L 1863 2753 
Q 2328 2753 2575 2939 
Q 2822 3125 2822 3475 
Q 2822 3834 2567 4026 
Q 2313 4219 1838 4219 
Q 1578 4219 1281 4162 
Q 984 4106 628 3988 
L 628 4550 
Q 988 4650 1302 4700 
Q 1616 4750 1894 4750 
Q 2613 4750 3031 4423 
Q 3450 4097 3450 3541 
Q 3450 3153 3228 2886 
Q 3006 2619 2597 2516 
z
" transform="scale(0.015625)"/>
       </defs>
       <use xlink:href="#DejaVuSans-32"/>
       <use xlink:href="#DejaVuSans-2e" x="63.623047"/>
       <use xlink:href="#DejaVuSans-33" x="95.410156"/>
       <use xlink:href="#DejaVuSans-65" x="159.033203"/>
       <use xlink:href="#DejaVuSans-2d" x="220.556641"/>
       <use xlink:href="#DejaVuSans-30" x="256.640625"/>
       <use xlink:href="#DejaVuSans-31" x="320.263672"/>
      </g>
     </g>
    </g>
    <g id="ytick_14">
     <g id="line2d_19">
      <g>
       <use xlink:href="#m29cf78052c" x="290.932" y="127.126316" style="stroke: #000000; stroke-width: 0.8"/>
      </g>
     </g>
     <g id="text_22">
      <!-- 3.1e-01 -->
      <g transform="translate(297.932 130.925535) scale(0.1 -0.1)">
       <use xlink:href="#DejaVuSans-33"/>
       <use xlink:href="#DejaVuSans-2e" x="63.623047"/>
       <use xlink:href="#DejaVuSans-31" x="95.410156"/>
       <use xlink:href="#DejaVuSans-65" x="159.033203"/>
       <use xlink:href="#DejaVuSans-2d" x="220.556641"/>
       <use xlink:href="#DejaVuSans-30" x="256.640625"/>
       <use xlink:href="#DejaVuSans-31" x="320.263672"/>
      </g>
     </g>
    </g>
    <g id="ytick_15">
     <g id="line2d_20">
      <g>
       <use xlink:href="#m29cf78052c" x="290.932" y="107.677895" style="stroke: #000000; stroke-width: 0.8"/>
      </g>
     </g>
     <g id="text_23">
      <!-- 3.8e-01 -->
      <g transform="translate(297.932 111.477113) scale(0.1 -0.1)">
       <defs>
        <path id="DejaVuSans-38" d="M 2034 2216 
Q 1584 2216 1326 1975 
Q 1069 1734 1069 1313 
Q 1069 891 1326 650 
Q 1584 409 2034 409 
Q 2484 409 2743 651 
Q 3003 894 3003 1313 
Q 3003 1734 2745 1975 
Q 2488 2216 2034 2216 
z
M 1403 2484 
Q 997 2584 770 2862 
Q 544 3141 544 3541 
Q 544 4100 942 4425 
Q 1341 4750 2034 4750 
Q 2731 4750 3128 4425 
Q 3525 4100 3525 3541 
Q 3525 3141 3298 2862 
Q 3072 2584 2669 2484 
Q 3125 2378 3379 2068 
Q 3634 1759 3634 1313 
Q 3634 634 3220 271 
Q 2806 -91 2034 -91 
Q 1263 -91 848 271 
Q 434 634 434 1313 
Q 434 1759 690 2068 
Q 947 2378 1403 2484 
z
M 1172 3481 
Q 1172 3119 1398 2916 
Q 1625 2713 2034 2713 
Q 2441 2713 2670 2916 
Q 2900 3119 2900 3481 
Q 2900 3844 2670 4047 
Q 2441 4250 2034 4250 
Q 1625 4250 1398 4047 
Q 1172 3844 1172 3481 
z
" transform="scale(0.015625)"/>
       </defs>
       <use xlink:href="#DejaVuSans-33"/>
       <use xlink:href="#DejaVuSans-2e" x="63.623047"/>
       <use xlink:href="#DejaVuSans-38" x="95.410156"/>
       <use xlink:href="#DejaVuSans-65" x="159.033203"/>
       <use xlink:href="#DejaVuSans-2d" x="220.556641"/>
       <use xlink:href="#DejaVuSans-30" x="256.640625"/>
       <use xlink:href="#DejaVuSans-31" x="320.263672"/>
      </g>
     </g>
    </g>
    <g id="ytick_16">
     <g id="line2d_21">
      <g>
       <use xlink:href="#m29cf78052c" x="290.932" y="88.229474" style="stroke: #000000; stroke-width: 0.8"/>
      </g>
     </g>
     <g id="text_24">
      <!-- 4.6e-01 -->
      <g transform="translate(297.932 92.028692) scale(0.1 -0.1)">
       <defs>
        <path id="DejaVuSans-34" d="M 2419 4116 
L 825 1625 
L 2419 1625 
L 2419 4116 
z
M 2253 4666 
L 3047 4666 
L 3047 1625 
L 3713 1625 
L 3713 1100 
L 3047 1100 
L 3047 0 
L 2419 0 
L 2419 1100 
L 313 1100 
L 313 1709 
L 2253 4666 
z
" transform="scale(0.015625)"/>
        <path id="DejaVuSans-36" d="M 2113 2584 
Q 1688 2584 1439 2293 
Q 1191 2003 1191 1497 
Q 1191 994 1439 701 
Q 1688 409 2113 409 
Q 2538 409 2786 701 
Q 3034 994 3034 1497 
Q 3034 2003 2786 2293 
Q 2538 2584 2113 2584 
z
M 3366 4563 
L 3366 3988 
Q 3128 4100 2886 4159 
Q 2644 4219 2406 4219 
Q 1781 4219 1451 3797 
Q 1122 3375 1075 2522 
Q 1259 2794 1537 2939 
Q 1816 3084 2150 3084 
Q 2853 3084 3261 2657 
Q 3669 2231 3669 1497 
Q 3669 778 3244 343 
Q 2819 -91 2113 -91 
Q 1303 -91 875 529 
Q 447 1150 447 2328 
Q 447 3434 972 4092 
Q 1497 4750 2381 4750 
Q 2619 4750 2861 4703 
Q 3103 4656 3366 4563 
z
" transform="scale(0.015625)"/>
       </defs>
       <use xlink:href="#DejaVuSans-34"/>
       <use xlink:href="#DejaVuSans-2e" x="63.623047"/>
       <use xlink:href="#DejaVuSans-36" x="95.410156"/>
       <use xlink:href="#DejaVuSans-65" x="159.033203"/>
       <use xlink:href="#DejaVuSans-2d" x="220.556641"/>
       <use xlink:href="#DejaVuSans-30" x="256.640625"/>
       <use xlink:href="#DejaVuSans-31" x="320.263672"/>
      </g>
     </g>
    </g>
    <g id="ytick_17">
     <g id="line2d_22">
      <g>
       <use xlink:href="#m29cf78052c" x="290.932" y="68.781053" style="stroke: #000000; stroke-width: 0.8"/>
      </g>
     </g>
     <g id="text_25">
      <!-- 5.4e-01 -->
      <g transform="translate(297.932 72.580271) scale(0.1 -0.1)">
       <use xlink:href="#DejaVuSans-35"/>
       <use xlink:href="#DejaVuSans-2e" x="63.623047"/>
       <use xlink:href="#DejaVuSans-34" x="95.410156"/>
       <use xlink:href="#DejaVuSans-65" x="159.033203"/>
       <use xlink:href="#DejaVuSans-2d" x="220.556641"/>
       <use xlink:href="#DejaVuSans-30" x="256.640625"/>
       <use xlink:href="#DejaVuSans-31" x="320.263672"/>
      </g>
     </g>
    </g>
    <g id="ytick_18">
     <g id="line2d_23">
      <g>
       <use xlink:href="#m29cf78052c" x="290.932" y="49.332632" style="stroke: #000000; stroke-width: 0.8"/>
      </g>
     </g>
     <g id="text_26">
      <!-- 6.1e-01 -->
      <g transform="translate(297.932 53.13185) scale(0.1 -0.1)">
       <use xlink:href="#DejaVuSans-36"/>
       <use xlink:href="#DejaVuSans-2e" x="63.623047"/>
       <use xlink:href="#DejaVuSans-31" x="95.410156"/>
       <use xlink:href="#DejaVuSans-65" x="159.033203"/>
       <use xlink:href="#DejaVuSans-2d" x="220.556641"/>
       <use xlink:href="#DejaVuSans-30" x="256.640625"/>
       <use xlink:href="#DejaVuSans-31" x="320.263672"/>
      </g>
     </g>
    </g>
    <g id="ytick_19">
     <g id="line2d_24">
      <g>
       <use xlink:href="#m29cf78052c" x="290.932" y="29.884211" style="stroke: #000000; stroke-width: 0.8"/>
      </g>
     </g>
     <g id="text_27">
      <!-- 6.9e-01 -->
      <g transform="translate(297.932 33.683429) scale(0.1 -0.1)">
       <defs>
        <path id="DejaVuSans-39" d="M 703 97 
L 703 672 
Q 941 559 1184 500 
Q 1428 441 1663 441 
Q 2288 441 2617 861 
Q 2947 1281 2994 2138 
Q 2813 1869 2534 1725 
Q 2256 1581 1919 1581 
Q 1219 1581 811 2004 
Q 403 2428 403 3163 
Q 403 3881 828 4315 
Q 1253 4750 1959 4750 
Q 2769 4750 3195 4129 
Q 3622 3509 3622 2328 
Q 3622 1225 3098 567 
Q 2575 -91 1691 -91 
Q 1453 -91 1209 -44 
Q 966 3 703 97 
z
M 1959 2075 
Q 2384 2075 2632 2365 
Q 2881 2656 2881 3163 
Q 2881 3666 2632 3958 
Q 2384 4250 1959 4250 
Q 1534 4250 1286 3958 
Q 1038 3666 1038 3163 
Q 1038 2656 1286 2365 
Q 1534 2075 1959 2075 
z
" transform="scale(0.015625)"/>
       </defs>
       <use xlink:href="#DejaVuSans-36"/>
       <use xlink:href="#DejaVuSans-2e" x="63.623047"/>
       <use xlink:href="#DejaVuSans-39" x="95.410156"/>
       <use xlink:href="#DejaVuSans-65" x="159.033203"/>
       <use xlink:href="#DejaVuSans-2d" x="220.556641"/>
       <use xlink:href="#DejaVuSans-30" x="256.640625"/>
       <use xlink:href="#DejaVuSans-31" x="320.263672"/>
      </g>
     </g>
    </g>
   </g>
   <g id="LineCollection_1"/>
   <g id="patch_9">
    <path d="M 281.694 204.92 
L 286.313 204.92 
L 290.932 204.92 
L 290.932 20.16 
L 286.313 20.16 
L 281.694 20.16 
L 281.694 204.92 
z
" style="fill: none; stroke: #000000; stroke-width: 0.8; stroke-linejoin: miter; stroke-linecap: square"/>
   </g>
  </g>
  <g id="text_28">
   <!-- Expected improvement for Comparison with Poly -->
   <g transform="translate(8.524062 15.677812) scale(0.14 -0.14)">
    <defs>
     <path id="DejaVuSans-45" d="M 628 4666 
L 3578 4666 
L 3578 4134 
L 1259 4134 
L 1259 2753 
L 3481 2753 
L 3481 2222 
L 1259 2222 
L 1259 531 
L 3634 531 
L 3634 0 
L 628 0 
L 628 4666 
z
" transform="scale(0.015625)"/>
     <path id="DejaVuSans-70" d="M 1159 525 
L 1159 -1331 
L 581 -1331 
L 581 3500 
L 1159 3500 
L 1159 2969 
Q 1341 3281 1617 3432 
Q 1894 3584 2278 3584 
Q 2916 3584 3314 3078 
Q 3713 2572 3713 1747 
Q 3713 922 3314 415 
Q 2916 -91 2278 -91 
Q 1894 -91 1617 61 
Q 1341 213 1159 525 
z
M 3116 1747 
Q 3116 2381 2855 2742 
Q 2594 3103 2138 3103 
Q 1681 3103 1420 2742 
Q 1159 2381 1159 1747 
Q 1159 1113 1420 752 
Q 1681 391 2138 391 
Q 2594 391 2855 752 
Q 3116 1113 3116 1747 
z
" transform="scale(0.015625)"/>
     <path id="DejaVuSans-63" d="M 3122 3366 
L 3122 2828 
Q 2878 2963 2633 3030 
Q 2388 3097 2138 3097 
Q 1578 3097 1268 2742 
Q 959 2388 959 1747 
Q 959 1106 1268 751 
Q 1578 397 2138 397 
Q 2388 397 2633 464 
Q 2878 531 3122 666 
L 3122 134 
Q 2881 22 2623 -34 
Q 2366 -91 2075 -91 
Q 1284 -91 818 406 
Q 353 903 353 1747 
Q 353 2603 823 3093 
Q 1294 3584 2113 3584 
Q 2378 3584 2631 3529 
Q 2884 3475 3122 3366 
z
" transform="scale(0.015625)"/>
     <path id="DejaVuSans-74" d="M 1172 4494 
L 1172 3500 
L 2356 3500 
L 2356 3053 
L 1172 3053 
L 1172 1153 
Q 1172 725 1289 603 
Q 1406 481 1766 481 
L 2356 481 
L 2356 0 
L 1766 0 
Q 1100 0 847 248 
Q 594 497 594 1153 
L 594 3053 
L 172 3053 
L 172 3500 
L 594 3500 
L 594 4494 
L 1172 4494 
z
" transform="scale(0.015625)"/>
     <path id="DejaVuSans-64" d="M 2906 2969 
L 2906 4863 
L 3481 4863 
L 3481 0 
L 2906 0 
L 2906 525 
Q 2725 213 2448 61 
Q 2172 -91 1784 -91 
Q 1150 -91 751 415 
Q 353 922 353 1747 
Q 353 2572 751 3078 
Q 1150 3584 1784 3584 
Q 2172 3584 2448 3432 
Q 2725 3281 2906 2969 
z
M 947 1747 
Q 947 1113 1208 752 
Q 1469 391 1925 391 
Q 2381 391 2643 752 
Q 2906 1113 2906 1747 
Q 2906 2381 2643 2742 
Q 2381 3103 1925 3103 
Q 1469 3103 1208 2742 
Q 947 2381 947 1747 
z
" transform="scale(0.015625)"/>
     <path id="DejaVuSans-20" transform="scale(0.015625)"/>
     <path id="DejaVuSans-69" d="M 603 3500 
L 1178 3500 
L 1178 0 
L 603 0 
L 603 3500 
z
M 603 4863 
L 1178 4863 
L 1178 4134 
L 603 4134 
L 603 4863 
z
" transform="scale(0.015625)"/>
     <path id="DejaVuSans-6d" d="M 3328 2828 
Q 3544 3216 3844 3400 
Q 4144 3584 4550 3584 
Q 5097 3584 5394 3201 
Q 5691 2819 5691 2113 
L 5691 0 
L 5113 0 
L 5113 2094 
Q 5113 2597 4934 2840 
Q 4756 3084 4391 3084 
Q 3944 3084 3684 2787 
Q 3425 2491 3425 1978 
L 3425 0 
L 2847 0 
L 2847 2094 
Q 2847 2600 2669 2842 
Q 2491 3084 2119 3084 
Q 1678 3084 1418 2786 
Q 1159 2488 1159 1978 
L 1159 0 
L 581 0 
L 581 3500 
L 1159 3500 
L 1159 2956 
Q 1356 3278 1631 3431 
Q 1906 3584 2284 3584 
Q 2666 3584 2933 3390 
Q 3200 3197 3328 2828 
z
" transform="scale(0.015625)"/>
     <path id="DejaVuSans-72" d="M 2631 2963 
Q 2534 3019 2420 3045 
Q 2306 3072 2169 3072 
Q 1681 3072 1420 2755 
Q 1159 2438 1159 1844 
L 1159 0 
L 581 0 
L 581 3500 
L 1159 3500 
L 1159 2956 
Q 1341 3275 1631 3429 
Q 1922 3584 2338 3584 
Q 2397 3584 2469 3576 
Q 2541 3569 2628 3553 
L 2631 2963 
z
" transform="scale(0.015625)"/>
     <path id="DejaVuSans-6f" d="M 1959 3097 
Q 1497 3097 1228 2736 
Q 959 2375 959 1747 
Q 959 1119 1226 758 
Q 1494 397 1959 397 
Q 2419 397 2687 759 
Q 2956 1122 2956 1747 
Q 2956 2369 2687 2733 
Q 2419 3097 1959 3097 
z
M 1959 3584 
Q 2709 3584 3137 3096 
Q 3566 2609 3566 1747 
Q 3566 888 3137 398 
Q 2709 -91 1959 -91 
Q 1206 -91 779 398 
Q 353 888 353 1747 
Q 353 2609 779 3096 
Q 1206 3584 1959 3584 
z
" transform="scale(0.015625)"/>
     <path id="DejaVuSans-76" d="M 191 3500 
L 800 3500 
L 1894 563 
L 2988 3500 
L 3597 3500 
L 2284 0 
L 1503 0 
L 191 3500 
z
" transform="scale(0.015625)"/>
     <path id="DejaVuSans-6e" d="M 3513 2113 
L 3513 0 
L 2938 0 
L 2938 2094 
Q 2938 2591 2744 2837 
Q 2550 3084 2163 3084 
Q 1697 3084 1428 2787 
Q 1159 2491 1159 1978 
L 1159 0 
L 581 0 
L 581 3500 
L 1159 3500 
L 1159 2956 
Q 1366 3272 1645 3428 
Q 1925 3584 2291 3584 
Q 2894 3584 3203 3211 
Q 3513 2838 3513 2113 
z
" transform="scale(0.015625)"/>
     <path id="DejaVuSans-66" d="M 2375 4863 
L 2375 4384 
L 1825 4384 
Q 1516 4384 1395 4259 
Q 1275 4134 1275 3809 
L 1275 3500 
L 2222 3500 
L 2222 3053 
L 1275 3053 
L 1275 0 
L 697 0 
L 697 3053 
L 147 3053 
L 147 3500 
L 697 3500 
L 697 3744 
Q 697 4328 969 4595 
Q 1241 4863 1831 4863 
L 2375 4863 
z
" transform="scale(0.015625)"/>
     <path id="DejaVuSans-43" d="M 4122 4306 
L 4122 3641 
Q 3803 3938 3442 4084 
Q 3081 4231 2675 4231 
Q 1875 4231 1450 3742 
Q 1025 3253 1025 2328 
Q 1025 1406 1450 917 
Q 1875 428 2675 428 
Q 3081 428 3442 575 
Q 3803 722 4122 1019 
L 4122 359 
Q 3791 134 3420 21 
Q 3050 -91 2638 -91 
Q 1578 -91 968 557 
Q 359 1206 359 2328 
Q 359 3453 968 4101 
Q 1578 4750 2638 4750 
Q 3056 4750 3426 4639 
Q 3797 4528 4122 4306 
z
" transform="scale(0.015625)"/>
     <path id="DejaVuSans-73" d="M 2834 3397 
L 2834 2853 
Q 2591 2978 2328 3040 
Q 2066 3103 1784 3103 
Q 1356 3103 1142 2972 
Q 928 2841 928 2578 
Q 928 2378 1081 2264 
Q 1234 2150 1697 2047 
L 1894 2003 
Q 2506 1872 2764 1633 
Q 3022 1394 3022 966 
Q 3022 478 2636 193 
Q 2250 -91 1575 -91 
Q 1294 -91 989 -36 
Q 684 19 347 128 
L 347 722 
Q 666 556 975 473 
Q 1284 391 1588 391 
Q 1994 391 2212 530 
Q 2431 669 2431 922 
Q 2431 1156 2273 1281 
Q 2116 1406 1581 1522 
L 1381 1569 
Q 847 1681 609 1914 
Q 372 2147 372 2553 
Q 372 3047 722 3315 
Q 1072 3584 1716 3584 
Q 2034 3584 2315 3537 
Q 2597 3491 2834 3397 
z
" transform="scale(0.015625)"/>
     <path id="DejaVuSans-77" d="M 269 3500 
L 844 3500 
L 1563 769 
L 2278 3500 
L 2956 3500 
L 3675 769 
L 4391 3500 
L 4966 3500 
L 4050 0 
L 3372 0 
L 2619 2869 
L 1863 0 
L 1184 0 
L 269 3500 
z
" transform="scale(0.015625)"/>
     <path id="DejaVuSans-68" d="M 3513 2113 
L 3513 0 
L 2938 0 
L 2938 2094 
Q 2938 2591 2744 2837 
Q 2550 3084 2163 3084 
Q 1697 3084 1428 2787 
Q 1159 2491 1159 1978 
L 1159 0 
L 581 0 
L 581 4863 
L 1159 4863 
L 1159 2956 
Q 1366 3272 1645 3428 
Q 1925 3584 2291 3584 
Q 2894 3584 3203 3211 
Q 3513 2838 3513 2113 
z
" transform="scale(0.015625)"/>
     <path id="DejaVuSans-50" d="M 1259 4147 
L 1259 2394 
L 2053 2394 
Q 2494 2394 2734 2622 
Q 2975 2850 2975 3272 
Q 2975 3691 2734 3919 
Q 2494 4147 2053 4147 
L 1259 4147 
z
M 628 4666 
L 2053 4666 
Q 2838 4666 3239 4311 
Q 3641 3956 3641 3272 
Q 3641 2581 3239 2228 
Q 2838 1875 2053 1875 
L 1259 1875 
L 1259 0 
L 628 0 
L 628 4666 
z
" transform="scale(0.015625)"/>
     <path id="DejaVuSans-6c" d="M 603 4863 
L 1178 4863 
L 1178 0 
L 603 0 
L 603 4863 
z
" transform="scale(0.015625)"/>
    </defs>
    <use xlink:href="#DejaVuSans-45"/>
    <use xlink:href="#DejaVuSans-78" x="63.183594"/>
    <use xlink:href="#DejaVuSans-70" x="122.363281"/>
    <use xlink:href="#DejaVuSans-65" x="185.839844"/>
    <use xlink:href="#DejaVuSans-63" x="247.363281"/>
    <use xlink:href="#DejaVuSans-74" x="302.34375"/>
    <use xlink:href="#DejaVuSans-65" x="341.552734"/>
    <use xlink:href="#DejaVuSans-64" x="403.076172"/>
    <use xlink:href="#DejaVuSans-20" x="466.552734"/>
    <use xlink:href="#DejaVuSans-69" x="498.339844"/>
    <use xlink:href="#DejaVuSans-6d" x="526.123047"/>
    <use xlink:href="#DejaVuSans-70" x="623.535156"/>
    <use xlink:href="#DejaVuSans-72" x="687.011719"/>
    <use xlink:href="#DejaVuSans-6f" x="725.875"/>
    <use xlink:href="#DejaVuSans-76" x="787.056641"/>
    <use xlink:href="#DejaVuSans-65" x="846.236328"/>
    <use xlink:href="#DejaVuSans-6d" x="907.759766"/>
    <use xlink:href="#DejaVuSans-65" x="1005.171875"/>
    <use xlink:href="#DejaVuSans-6e" x="1066.695312"/>
    <use xlink:href="#DejaVuSans-74" x="1130.074219"/>
    <use xlink:href="#DejaVuSans-20" x="1169.283203"/>
    <use xlink:href="#DejaVuSans-66" x="1201.070312"/>
    <use xlink:href="#DejaVuSans-6f" x="1236.275391"/>
    <use xlink:href="#DejaVuSans-72" x="1297.457031"/>
    <use xlink:href="#DejaVuSans-20" x="1338.570312"/>
    <use xlink:href="#DejaVuSans-43" x="1370.357422"/>
    <use xlink:href="#DejaVuSans-6f" x="1440.181641"/>
    <use xlink:href="#DejaVuSans-6d" x="1501.363281"/>
    <use xlink:href="#DejaVuSans-70" x="1598.775391"/>
    <use xlink:href="#DejaVuSans-61" x="1662.251953"/>
    <use xlink:href="#DejaVuSans-72" x="1723.53125"/>
    <use xlink:href="#DejaVuSans-69" x="1764.644531"/>
    <use xlink:href="#DejaVuSans-73" x="1792.427734"/>
    <use xlink:href="#DejaVuSans-6f" x="1844.527344"/>
    <use xlink:href="#DejaVuSans-6e" x="1905.708984"/>
    <use xlink:href="#DejaVuSans-20" x="1969.087891"/>
    <use xlink:href="#DejaVuSans-77" x="2000.875"/>
    <use xlink:href="#DejaVuSans-69" x="2082.662109"/>
    <use xlink:href="#DejaVuSans-74" x="2110.445312"/>
    <use xlink:href="#DejaVuSans-68" x="2149.654297"/>
    <use xlink:href="#DejaVuSans-20" x="2213.033203"/>
    <use xlink:href="#DejaVuSans-50" x="2244.820312"/>
    <use xlink:href="#DejaVuSans-6f" x="2301.498047"/>
    <use xlink:href="#DejaVuSans-6c" x="2362.679688"/>
    <use xlink:href="#DejaVuSans-79" x="2390.462891"/>
   </g>
  </g>
 </g>
 <defs>
  <clipPath id="p7170ff2299">
   <rect x="52.84" y="20.16" width="215.392" height="184.76"/>
  </clipPath>
  <clipPath id="p5874ef8753">
   <rect x="281.694" y="20.16" width="9.238" height="184.76"/>
  </clipPath>
 </defs>
</svg>
