<?xml version="1.0" encoding="utf-8" standalone="no"?>
<!DOCTYPE svg PUBLIC "-//W3C//DTD SVG 1.1//EN"
  "http://www.w3.org/Graphics/SVG/1.1/DTD/svg11.dtd">
<svg xmlns:xlink="http://www.w3.org/1999/xlink" width="360pt" height="252pt" viewBox="0 0 360 252" xmlns="http://www.w3.org/2000/svg" version="1.1">
 <metadata>
  <rdf:RDF xmlns:dc="http://purl.org/dc/elements/1.1/" xmlns:cc="http://creativecommons.org/ns#" xmlns:rdf="http://www.w3.org/1999/02/22-rdf-syntax-ns#">
   <cc:Work>
    <dc:type rdf:resource="http://purl.org/dc/dcmitype/StillImage"/>
    <dc:date>2024-03-19T21:28:47.051491</dc:date>
    <dc:format>image/svg+xml</dc:format>
    <dc:creator>
     <cc:Agent>
      <dc:title>Matplotlib v3.8.3, https://matplotlib.org/</dc:title>
     </cc:Agent>
    </dc:creator>
   </cc:Work>
  </rdf:RDF>
 </metadata>
 <defs>
  <style type="text/css">*{stroke-linejoin: round; stroke-linecap: butt}</style>
 </defs>
 <g id="figure_1">
  <g id="patch_1">
   <path d="M 0 252 
L 360 252 
L 360 0 
L 0 0 
z
" style="fill: #ffffff"/>
  </g>
  <g id="axes_1">
   <g id="patch_2">
    <path d="M 52.84 204.92 
L 268.232 204.92 
L 268.232 20.16 
L 52.84 20.16 
z
" style="fill: #ffffff"/>
   </g>
   <g id="QuadContourSet_1">
    <path d="M 57.235755 204.92 
L 61.63151 204.92 
L 66.027265 204.92 
L 70.42302 204.92 
L 74.818776 204.92 
L 79.214531 204.92 
L 83.610286 204.92 
L 86.102783 204.92 
L 88.006041 201.639149 
L 88.175157 201.149388 
L 88.767285 197.378776 
L 88.770599 193.608163 
L 88.162893 189.837551 
L 88.006041 189.403278 
L 86.041605 186.066939 
L 83.654301 182.296327 
L 83.610286 182.25049 
L 79.214531 178.579912 
L 79.137665 178.525714 
L 74.818776 176.676576 
L 70.42302 174.854091 
L 70.03563 174.755102 
L 66.027265 174.315988 
L 61.63151 174.300458 
L 57.235755 174.747999 
L 57.205426 174.755102 
L 52.84 176.566623 
L 52.84 178.525714 
L 52.84 182.296327 
L 52.84 186.066939 
L 52.84 189.837551 
L 52.84 193.608163 
L 52.84 197.378776 
L 52.84 201.149388 
L 52.84 204.92 
z
M 127.567837 204.92 
L 131.963592 204.92 
L 136.359347 204.92 
L 140.755102 204.92 
L 145.150857 204.92 
L 149.546612 204.92 
L 153.942367 204.92 
L 158.338122 204.92 
L 162.733878 204.92 
L 167.129633 204.92 
L 171.525388 204.92 
L 175.921143 204.92 
L 180.316898 204.92 
L 184.712653 204.92 
L 189.108408 204.92 
L 193.504163 204.92 
L 197.899918 204.92 
L 202.295673 204.92 
L 206.691429 204.92 
L 211.087184 204.92 
L 215.482939 204.92 
L 219.878694 204.92 
L 224.274449 204.92 
L 228.670204 204.92 
L 230.504311 204.92 
L 233.065959 202.463952 
L 233.934219 201.149388 
L 235.678671 197.378776 
L 237.081397 193.608163 
L 237.432809 189.837551 
L 236.536743 186.066939 
L 235.195478 182.296327 
L 233.97146 178.525714 
L 233.065959 175.41211 
L 232.598229 174.755102 
L 231.19246 170.98449 
L 233.065959 167.383657 
L 233.201108 167.213878 
L 237.461714 165.430423 
L 241.857469 164.614183 
L 246.253224 164.118881 
L 250.64898 163.687244 
L 252.635667 163.443265 
L 255.044735 162.700109 
L 259.44049 161.304301 
L 263.836245 159.97191 
L 264.59069 159.672653 
L 268.232 157.262395 
L 268.232 155.902041 
L 268.232 152.131429 
L 268.232 148.360816 
L 268.232 144.590204 
L 268.232 140.819592 
L 268.232 137.04898 
L 268.232 133.278367 
L 268.232 129.507755 
L 268.232 125.737143 
L 268.232 121.966531 
L 268.232 119.684103 
L 266.360778 118.195918 
L 263.836245 116.51341 
L 260.31817 114.425306 
L 259.44049 113.986075 
L 255.044735 112.245275 
L 251.042972 110.654694 
L 250.64898 110.517263 
L 246.253224 109.198134 
L 241.857469 107.601277 
L 240.251167 106.884082 
L 237.461714 105.535765 
L 233.752546 103.113469 
L 233.065959 102.506506 
L 229.862534 99.342857 
L 228.670204 97.365328 
L 227.547429 95.572245 
L 226.389553 91.801633 
L 226.092001 88.03102 
L 226.2454 84.260408 
L 226.534256 80.489796 
L 226.728005 76.719184 
L 226.672516 72.948571 
L 226.276107 69.177959 
L 225.48716 65.407347 
L 224.274449 61.692691 
L 224.252956 61.636735 
L 222.361735 57.866122 
L 220.030382 54.09551 
L 219.878694 53.896552 
L 216.836925 50.324898 
L 215.482939 48.96415 
L 212.750051 46.554286 
L 211.087184 45.267294 
L 207.376856 42.783673 
L 206.691429 42.3706 
L 202.295673 40.16567 
L 199.607833 39.013061 
L 197.899918 38.342558 
L 193.504163 36.96442 
L 189.108408 35.81777 
L 186.522762 35.242449 
L 184.712653 34.839356 
L 180.316898 33.92834 
L 175.921143 32.791969 
L 172.633001 31.471837 
L 171.525388 30.876259 
L 167.786072 27.701224 
L 167.129633 26.903609 
L 165.162995 23.930612 
L 163.129591 20.16 
L 162.733878 20.16 
L 158.338122 20.16 
L 153.942367 20.16 
L 149.546612 20.16 
L 145.150857 20.16 
L 140.755102 20.16 
L 136.359347 20.16 
L 131.963592 20.16 
L 127.567837 20.16 
L 123.172082 20.16 
L 118.776327 20.16 
L 114.380571 20.16 
L 109.984816 20.16 
L 105.589061 20.16 
L 101.193306 20.16 
L 96.797551 20.16 
L 92.401796 20.16 
L 88.006041 20.16 
L 83.610286 20.16 
L 79.214531 20.16 
L 74.818776 20.16 
L 70.42302 20.16 
L 66.027265 20.16 
L 61.63151 20.16 
L 57.235755 20.16 
L 52.84 20.16 
L 52.84 23.930612 
L 52.84 27.701224 
L 52.84 31.471837 
L 52.84 35.242449 
L 52.84 39.013061 
L 52.84 42.783673 
L 52.84 46.554286 
L 52.84 50.324898 
L 52.84 54.09551 
L 52.84 57.866122 
L 52.84 61.636735 
L 52.84 65.407347 
L 52.84 69.177959 
L 52.84 72.948571 
L 52.84 76.719184 
L 52.84 80.489796 
L 52.84 84.260408 
L 52.84 88.03102 
L 52.84 91.801633 
L 52.84 95.572245 
L 52.84 99.342857 
L 52.84 103.113469 
L 52.84 106.884082 
L 52.84 110.654694 
L 52.84 114.425306 
L 52.84 118.195918 
L 52.84 121.966531 
L 52.84 123.023399 
L 57.235755 124.064432 
L 61.63151 124.996153 
L 65.36804 125.737143 
L 66.027265 125.843617 
L 70.42302 126.482941 
L 74.818776 127.114693 
L 79.214531 127.749219 
L 83.610286 128.364173 
L 88.006041 128.906134 
L 92.401796 129.301612 
L 96.797551 129.47718 
L 101.193306 129.384532 
L 105.589061 129.020871 
L 109.984816 128.436989 
L 114.380571 127.743272 
L 118.776327 127.150306 
L 123.172082 127.091245 
L 127.567837 128.408364 
L 129.012777 129.507755 
L 131.963592 132.862681 
L 132.225827 133.278367 
L 133.548983 137.04898 
L 133.632323 140.819592 
L 132.479238 144.590204 
L 131.963592 145.448749 
L 130.417261 148.360816 
L 127.80979 152.131429 
L 127.567837 152.441835 
L 125.469228 155.902041 
L 123.176713 159.672653 
L 123.172082 159.680592 
L 121.678003 163.443265 
L 120.404911 167.213878 
L 119.327252 170.98449 
L 118.776327 173.526191 
L 118.622897 174.755102 
L 118.389812 178.525714 
L 118.408804 182.296327 
L 118.685694 186.066939 
L 118.776327 186.677989 
L 119.570508 189.837551 
L 120.797459 193.608163 
L 122.169149 197.378776 
L 123.172082 199.809475 
L 124.01908 201.149388 
L 126.463696 204.92 
z
" clip-path="url(#pb432a78798)" style="fill: #460a5d"/>
    <path d="M 88.006041 204.92 
L 88.974843 204.92 
L 90.407156 201.149388 
L 91.225794 197.378776 
L 91.262781 193.608163 
L 90.491368 189.837551 
L 89.029833 186.066939 
L 88.006041 184.395786 
L 86.363744 182.296327 
L 83.610286 179.428966 
L 82.535298 178.525714 
L 79.214531 176.413151 
L 76.19276 174.755102 
L 74.818776 174.210103 
L 70.42302 173.089325 
L 66.027265 172.473852 
L 61.63151 172.457655 
L 57.235755 173.046613 
L 52.84 174.146662 
L 52.84 174.755102 
L 52.84 176.566623 
L 57.205426 174.755102 
L 57.235755 174.747999 
L 61.63151 174.300458 
L 66.027265 174.315988 
L 70.03563 174.755102 
L 70.42302 174.854091 
L 74.818776 176.676576 
L 79.137665 178.525714 
L 79.214531 178.579912 
L 83.610286 182.25049 
L 83.654301 182.296327 
L 86.041605 186.066939 
L 88.006041 189.403278 
L 88.162893 189.837551 
L 88.770599 193.608163 
L 88.767285 197.378776 
L 88.175157 201.149388 
L 88.006041 201.639149 
L 86.102783 204.92 
z
M 123.172082 204.92 
L 126.463696 204.92 
L 124.01908 201.149388 
L 123.172082 199.809475 
L 122.169149 197.378776 
L 120.797459 193.608163 
L 119.570508 189.837551 
L 118.776327 186.677989 
L 118.685694 186.066939 
L 118.408804 182.296327 
L 118.389812 178.525714 
L 118.622897 174.755102 
L 118.776327 173.526191 
L 119.327252 170.98449 
L 120.404911 167.213878 
L 121.678003 163.443265 
L 123.172082 159.680592 
L 123.176713 159.672653 
L 125.469228 155.902041 
L 127.567837 152.441835 
L 127.80979 152.131429 
L 130.417261 148.360816 
L 131.963592 145.448749 
L 132.479238 144.590204 
L 133.632323 140.819592 
L 133.548983 137.04898 
L 132.225827 133.278367 
L 131.963592 132.862681 
L 129.012777 129.507755 
L 127.567837 128.408364 
L 123.172082 127.091245 
L 118.776327 127.150306 
L 114.380571 127.743272 
L 109.984816 128.436989 
L 105.589061 129.020871 
L 101.193306 129.384532 
L 96.797551 129.47718 
L 92.401796 129.301612 
L 88.006041 128.906134 
L 83.610286 128.364173 
L 79.214531 127.749219 
L 74.818776 127.114693 
L 70.42302 126.482941 
L 66.027265 125.843617 
L 65.36804 125.737143 
L 61.63151 124.996153 
L 57.235755 124.064432 
L 52.84 123.023399 
L 52.84 125.737143 
L 52.84 128.541381 
L 57.151121 129.507755 
L 57.235755 129.524924 
L 61.63151 130.331949 
L 66.027265 131.086681 
L 70.42302 131.834063 
L 74.818776 132.599069 
L 78.656496 133.278367 
L 79.214531 133.367677 
L 83.610286 134.035311 
L 88.006041 134.662514 
L 92.401796 135.210573 
L 96.797551 135.643055 
L 101.193306 135.939836 
L 105.589061 136.115655 
L 109.984816 136.252082 
L 114.380571 136.571984 
L 116.619684 137.04898 
L 118.776327 137.931015 
L 121.326671 140.819592 
L 121.710973 144.590204 
L 120.920363 148.360816 
L 119.736135 152.131429 
L 118.776327 154.824861 
L 118.483814 155.902041 
L 117.447632 159.672653 
L 116.577711 163.443265 
L 115.862956 167.213878 
L 115.305778 170.98449 
L 114.932033 174.755102 
L 114.787418 178.525714 
L 114.919327 182.296327 
L 115.35211 186.066939 
L 116.073841 189.837551 
L 117.046667 193.608163 
L 118.231398 197.378776 
L 118.776327 198.845717 
L 119.920954 201.149388 
L 121.843606 204.92 
z
M 233.065959 204.92 
L 233.569559 204.92 
L 236.227891 201.149388 
L 237.461714 199.123288 
L 238.04925 197.378776 
L 238.664599 193.608163 
L 238.7286 189.837551 
L 238.342516 186.066939 
L 237.669696 182.296327 
L 237.461714 181.349428 
L 236.16523 178.525714 
L 235.056391 174.755102 
L 235.21441 170.98449 
L 237.461714 168.796585 
L 241.209514 167.213878 
L 241.857469 167.005367 
L 246.253224 165.900217 
L 250.64898 165.126515 
L 255.044735 164.432075 
L 259.44049 163.657572 
L 260.373443 163.443265 
L 263.836245 162.029013 
L 268.232 160.219268 
L 268.232 159.672653 
L 268.232 157.262395 
L 264.59069 159.672653 
L 263.836245 159.97191 
L 259.44049 161.304301 
L 255.044735 162.700109 
L 252.635667 163.443265 
L 250.64898 163.687244 
L 246.253224 164.118881 
L 241.857469 164.614183 
L 237.461714 165.430423 
L 233.201108 167.213878 
L 233.065959 167.383657 
L 231.19246 170.98449 
L 232.598229 174.755102 
L 233.065959 175.41211 
L 233.97146 178.525714 
L 235.195478 182.296327 
L 236.536743 186.066939 
L 237.432809 189.837551 
L 237.081397 193.608163 
L 235.678671 197.378776 
L 233.934219 201.149388 
L 233.065959 202.463952 
L 230.504311 204.92 
z
M 268.232 119.684103 
L 268.232 118.195918 
L 268.232 115.453044 
L 266.756773 114.425306 
L 263.836245 112.575588 
L 260.234421 110.654694 
L 259.44049 110.233144 
L 255.044735 108.322328 
L 251.487557 106.884082 
L 250.64898 106.500103 
L 246.253224 104.591034 
L 243.271782 103.113469 
L 241.857469 102.154941 
L 238.223715 99.342857 
L 237.461714 98.385401 
L 235.373104 95.572245 
L 233.948602 91.801633 
L 233.44882 88.03102 
L 233.509973 84.260408 
L 233.808562 80.489796 
L 234.084581 76.719184 
L 234.159134 72.948571 
L 233.916406 69.177959 
L 233.268149 65.407347 
L 233.065959 64.692474 
L 232.286137 61.636735 
L 230.877651 57.866122 
L 228.858547 54.09551 
L 228.670204 53.808038 
L 226.440315 50.324898 
L 224.274449 47.700589 
L 223.286382 46.554286 
L 219.878694 43.228257 
L 219.375101 42.783673 
L 215.482939 39.69845 
L 214.474289 39.013061 
L 211.087184 36.81218 
L 208.110544 35.242449 
L 206.691429 34.473898 
L 202.295673 32.500581 
L 199.463746 31.471837 
L 197.899918 30.829374 
L 193.504163 29.283501 
L 189.108408 27.903554 
L 188.473824 27.701224 
L 184.712653 26.138961 
L 180.316898 23.949258 
L 180.287518 23.930612 
L 175.982322 20.16 
L 175.921143 20.16 
L 171.525388 20.16 
L 167.129633 20.16 
L 163.129591 20.16 
L 165.162995 23.930612 
L 167.129633 26.903609 
L 167.786072 27.701224 
L 171.525388 30.876259 
L 172.633001 31.471837 
L 175.921143 32.791969 
L 180.316898 33.92834 
L 184.712653 34.839356 
L 186.522762 35.242449 
L 189.108408 35.81777 
L 193.504163 36.96442 
L 197.899918 38.342558 
L 199.607833 39.013061 
L 202.295673 40.16567 
L 206.691429 42.3706 
L 207.376856 42.783673 
L 211.087184 45.267294 
L 212.750051 46.554286 
L 215.482939 48.96415 
L 216.836925 50.324898 
L 219.878694 53.896552 
L 220.030382 54.09551 
L 222.361735 57.866122 
L 224.252956 61.636735 
L 224.274449 61.692691 
L 225.48716 65.407347 
L 226.276107 69.177959 
L 226.672516 72.948571 
L 226.728005 76.719184 
L 226.534256 80.489796 
L 226.2454 84.260408 
L 226.092001 88.03102 
L 226.389553 91.801633 
L 227.547429 95.572245 
L 228.670204 97.365328 
L 229.862534 99.342857 
L 233.065959 102.506506 
L 233.752546 103.113469 
L 237.461714 105.535765 
L 240.251167 106.884082 
L 241.857469 107.601277 
L 246.253224 109.198134 
L 250.64898 110.517263 
L 251.042972 110.654694 
L 255.044735 112.245275 
L 259.44049 113.986075 
L 260.31817 114.425306 
L 263.836245 116.51341 
L 266.360778 118.195918 
z
" clip-path="url(#pb432a78798)" style="fill: #481d6f"/>
    <path d="M 92.401796 201.622113 
L 92.592806 201.149388 
L 93.359162 197.378776 
L 93.431678 193.608163 
L 92.75844 189.837551 
L 92.401796 188.956818 
L 91.151767 186.066939 
L 88.81518 182.296327 
L 88.006041 181.388142 
L 85.165807 178.525714 
L 83.610286 177.292658 
L 79.820807 174.755102 
L 79.214531 174.42313 
L 74.818776 172.665817 
L 70.42302 171.384267 
L 68.003469 170.98449 
L 66.027265 170.743493 
L 61.63151 170.733295 
L 59.494576 170.98449 
L 57.235755 171.345227 
L 52.84 172.622137 
L 52.84 174.146662 
L 57.235755 173.046613 
L 61.63151 172.457655 
L 66.027265 172.473852 
L 70.42302 173.089325 
L 74.818776 174.210103 
L 76.19276 174.755102 
L 79.214531 176.413151 
L 82.535298 178.525714 
L 83.610286 179.428966 
L 86.363744 182.296327 
L 88.006041 184.395786 
L 89.029833 186.066939 
L 90.491368 189.837551 
L 91.262781 193.608163 
L 91.225794 197.378776 
L 90.407156 201.149388 
L 88.974843 204.92 
L 90.942224 204.92 
z
M 118.776327 204.92 
L 121.843606 204.92 
L 119.920954 201.149388 
L 118.776327 198.845717 
L 118.231398 197.378776 
L 117.046667 193.608163 
L 116.073841 189.837551 
L 115.35211 186.066939 
L 114.919327 182.296327 
L 114.787418 178.525714 
L 114.932033 174.755102 
L 115.305778 170.98449 
L 115.862956 167.213878 
L 116.577711 163.443265 
L 117.447632 159.672653 
L 118.483814 155.902041 
L 118.776327 154.824861 
L 119.736135 152.131429 
L 120.920363 148.360816 
L 121.710973 144.590204 
L 121.326671 140.819592 
L 118.776327 137.931015 
L 116.619684 137.04898 
L 114.380571 136.571984 
L 109.984816 136.252082 
L 105.589061 136.115655 
L 101.193306 135.939836 
L 96.797551 135.643055 
L 92.401796 135.210573 
L 88.006041 134.662514 
L 83.610286 134.035311 
L 79.214531 133.367677 
L 78.656496 133.278367 
L 74.818776 132.599069 
L 70.42302 131.834063 
L 66.027265 131.086681 
L 61.63151 130.331949 
L 57.235755 129.524924 
L 57.151121 129.507755 
L 52.84 128.541381 
L 52.84 129.507755 
L 52.84 133.278367 
L 52.84 133.408142 
L 57.235755 134.111363 
L 61.63151 134.797678 
L 66.027265 135.501782 
L 70.42302 136.250562 
L 74.769053 137.04898 
L 74.818776 137.057245 
L 79.214531 137.817491 
L 83.610286 138.622511 
L 88.006041 139.461058 
L 92.401796 140.323424 
L 94.954973 140.819592 
L 96.797551 141.198996 
L 101.193306 142.196681 
L 105.589061 143.590563 
L 107.7187 144.590204 
L 109.984816 146.385142 
L 111.454623 148.360816 
L 112.608294 152.131429 
L 112.889116 155.902041 
L 112.828496 159.672653 
L 112.642319 163.443265 
L 112.428963 167.213878 
L 112.242457 170.98449 
L 112.124004 174.755102 
L 112.116297 178.525714 
L 112.267867 182.296327 
L 112.629589 186.066939 
L 113.245493 189.837551 
L 114.141233 193.608163 
L 114.380571 194.382545 
L 115.433683 197.378776 
L 116.895678 201.149388 
L 118.449248 204.92 
z
M 237.461714 202.159635 
L 238.020588 201.149388 
L 239.317776 197.378776 
L 239.980534 193.608163 
L 240.00332 189.837551 
L 239.498167 186.066939 
L 238.71916 182.296327 
L 237.896037 178.525714 
L 237.461714 175.51474 
L 237.236725 174.755102 
L 237.461714 173.796666 
L 238.191262 170.98449 
L 241.857469 168.62774 
L 246.253224 167.481908 
L 247.872214 167.213878 
L 250.64898 166.565787 
L 255.044735 165.67673 
L 259.44049 164.81457 
L 263.836245 163.810002 
L 265.120824 163.443265 
L 268.232 162.054355 
L 268.232 160.219268 
L 263.836245 162.029013 
L 260.373443 163.443265 
L 259.44049 163.657572 
L 255.044735 164.432075 
L 250.64898 165.126515 
L 246.253224 165.900217 
L 241.857469 167.005367 
L 241.209514 167.213878 
L 237.461714 168.796585 
L 235.21441 170.98449 
L 235.056391 174.755102 
L 236.16523 178.525714 
L 237.461714 181.349428 
L 237.669696 182.296327 
L 238.342516 186.066939 
L 238.7286 189.837551 
L 238.664599 193.608163 
L 238.04925 197.378776 
L 237.461714 199.123288 
L 236.227891 201.149388 
L 233.569559 204.92 
L 235.289805 204.92 
z
M 268.232 115.453044 
L 268.232 114.425306 
L 268.232 111.837651 
L 266.344646 110.654694 
L 263.836245 109.045298 
L 259.614477 106.884082 
L 259.44049 106.778775 
L 255.044735 104.500425 
L 252.056005 103.113469 
L 250.64898 102.195893 
L 246.253224 99.372184 
L 246.210801 99.342857 
L 242.939364 95.572245 
L 241.857469 92.979471 
L 241.399056 91.801633 
L 241.097956 88.03102 
L 241.498655 84.260408 
L 241.857469 82.340209 
L 242.346298 80.489796 
L 243.402269 76.719184 
L 244.298015 72.948571 
L 244.888186 69.177959 
L 245.106969 65.407347 
L 244.915293 61.636735 
L 244.256713 57.866122 
L 243.020585 54.09551 
L 241.857469 51.712832 
L 241.302219 50.324898 
L 239.265829 46.554286 
L 237.461714 44.124331 
L 236.551395 42.783673 
L 233.231597 39.013061 
L 233.065959 38.843476 
L 229.466885 35.242449 
L 228.670204 34.53891 
L 224.836838 31.471837 
L 224.274449 31.038492 
L 219.878694 28.036075 
L 219.301622 27.701224 
L 215.482939 25.29544 
L 212.724522 23.930612 
L 211.087184 22.981112 
L 206.691429 20.787479 
L 205.271003 20.16 
L 202.295673 20.16 
L 197.899918 20.16 
L 193.504163 20.16 
L 189.108408 20.16 
L 184.712653 20.16 
L 180.316898 20.16 
L 175.982322 20.16 
L 180.287518 23.930612 
L 180.316898 23.949258 
L 184.712653 26.138961 
L 188.473824 27.701224 
L 189.108408 27.903554 
L 193.504163 29.283501 
L 197.899918 30.829374 
L 199.463746 31.471837 
L 202.295673 32.500581 
L 206.691429 34.473898 
L 208.110544 35.242449 
L 211.087184 36.81218 
L 214.474289 39.013061 
L 215.482939 39.69845 
L 219.375101 42.783673 
L 219.878694 43.228257 
L 223.286382 46.554286 
L 224.274449 47.700589 
L 226.440315 50.324898 
L 228.670204 53.808038 
L 228.858547 54.09551 
L 230.877651 57.866122 
L 232.286137 61.636735 
L 233.065959 64.692474 
L 233.268149 65.407347 
L 233.916406 69.177959 
L 234.159134 72.948571 
L 234.084581 76.719184 
L 233.808562 80.489796 
L 233.509973 84.260408 
L 233.44882 88.03102 
L 233.948602 91.801633 
L 235.373104 95.572245 
L 237.461714 98.385401 
L 238.223715 99.342857 
L 241.857469 102.154941 
L 243.271782 103.113469 
L 246.253224 104.591034 
L 250.64898 106.500103 
L 251.487557 106.884082 
L 255.044735 108.322328 
L 259.44049 110.233144 
L 260.234421 110.654694 
L 263.836245 112.575588 
L 266.756773 114.425306 
z
" clip-path="url(#pb432a78798)" style="fill: #472e7c"/>
    <path d="M 92.401796 204.92 
L 92.874282 204.92 
L 94.388974 201.149388 
L 95.194388 197.378776 
L 95.328453 193.608163 
L 94.744909 189.837551 
L 93.298725 186.066939 
L 92.401796 184.727537 
L 90.869551 182.296327 
L 88.006041 179.082299 
L 87.453772 178.525714 
L 83.610286 175.478995 
L 82.529254 174.755102 
L 79.214531 172.940098 
L 74.818776 171.121531 
L 74.362152 170.98449 
L 70.42302 170.004912 
L 66.027265 169.485041 
L 61.63151 169.480978 
L 57.235755 169.992671 
L 53.218316 170.98449 
L 52.84 171.097613 
L 52.84 172.622137 
L 57.235755 171.345227 
L 59.494576 170.98449 
L 61.63151 170.733295 
L 66.027265 170.743493 
L 68.003469 170.98449 
L 70.42302 171.384267 
L 74.818776 172.665817 
L 79.214531 174.42313 
L 79.820807 174.755102 
L 83.610286 177.292658 
L 85.165807 178.525714 
L 88.006041 181.388142 
L 88.81518 182.296327 
L 91.151767 186.066939 
L 92.401796 188.956818 
L 92.75844 189.837551 
L 93.431678 193.608163 
L 93.359162 197.378776 
L 92.592806 201.149388 
L 92.401796 201.622113 
L 90.942224 204.92 
z
M 114.380571 201.621939 
L 115.737601 204.92 
L 118.449248 204.92 
L 116.895678 201.149388 
L 115.433683 197.378776 
L 114.380571 194.382545 
L 114.141233 193.608163 
L 113.245493 189.837551 
L 112.629589 186.066939 
L 112.267867 182.296327 
L 112.116297 178.525714 
L 112.124004 174.755102 
L 112.242457 170.98449 
L 112.428963 167.213878 
L 112.642319 163.443265 
L 112.828496 159.672653 
L 112.889116 155.902041 
L 112.608294 152.131429 
L 111.454623 148.360816 
L 109.984816 146.385142 
L 107.7187 144.590204 
L 105.589061 143.590563 
L 101.193306 142.196681 
L 96.797551 141.198996 
L 94.954973 140.819592 
L 92.401796 140.323424 
L 88.006041 139.461058 
L 83.610286 138.622511 
L 79.214531 137.817491 
L 74.818776 137.057245 
L 74.769053 137.04898 
L 70.42302 136.250562 
L 66.027265 135.501782 
L 61.63151 134.797678 
L 57.235755 134.111363 
L 52.84 133.408142 
L 52.84 137.04898 
L 52.84 137.856748 
L 57.235755 138.272565 
L 61.63151 138.775627 
L 66.027265 139.373455 
L 70.42302 140.076168 
L 74.439844 140.819592 
L 74.818776 140.882554 
L 79.214531 141.698762 
L 83.610286 142.630077 
L 88.006041 143.696752 
L 91.257159 144.590204 
L 92.401796 144.911493 
L 96.797551 146.355284 
L 101.065861 148.360816 
L 101.193306 148.43418 
L 105.546927 152.131429 
L 105.589061 152.186976 
L 107.629041 155.902041 
L 108.655092 159.672653 
L 109.154253 163.443265 
L 109.380726 167.213878 
L 109.472006 170.98449 
L 109.516147 174.755102 
L 109.587345 178.525714 
L 109.769555 182.296327 
L 109.984816 184.374046 
L 110.158406 186.066939 
L 110.786066 189.837551 
L 111.681087 193.608163 
L 112.835809 197.378776 
L 114.199933 201.149388 
z
M 237.461714 204.345962 
L 239.230076 201.149388 
L 240.586302 197.378776 
L 241.296469 193.608163 
L 241.278039 189.837551 
L 240.653818 186.066939 
L 239.768623 182.296327 
L 238.95791 178.525714 
L 238.666619 174.755102 
L 240.600806 170.98449 
L 241.857469 170.176668 
L 246.253224 168.502815 
L 250.64898 167.665752 
L 253.728326 167.213878 
L 255.044735 166.921385 
L 259.44049 165.971567 
L 263.836245 164.98355 
L 268.232 163.764807 
L 268.232 163.443265 
L 268.232 162.054355 
L 265.120824 163.443265 
L 263.836245 163.810002 
L 259.44049 164.81457 
L 255.044735 165.67673 
L 250.64898 166.565787 
L 247.872214 167.213878 
L 246.253224 167.481908 
L 241.857469 168.62774 
L 238.191262 170.98449 
L 237.461714 173.796666 
L 237.236725 174.755102 
L 237.461714 175.51474 
L 237.896037 178.525714 
L 238.71916 182.296327 
L 239.498167 186.066939 
L 240.00332 189.837551 
L 239.980534 193.608163 
L 239.317776 197.378776 
L 238.020588 201.149388 
L 237.461714 202.159635 
L 235.289805 204.92 
L 237.01005 204.92 
z
M 268.232 111.837651 
L 268.232 110.654694 
L 268.232 107.741898 
L 266.797122 106.884082 
L 263.836245 104.780281 
L 260.819561 103.113469 
L 259.44049 102.007197 
L 255.459893 99.342857 
L 255.044735 98.81103 
L 252.379697 95.572245 
L 251.614651 91.801633 
L 253.308575 88.03102 
L 255.044735 86.18231 
L 258.883878 84.260408 
L 259.44049 84.00463 
L 263.836245 83.208214 
L 268.232 83.262777 
L 268.232 80.489796 
L 268.232 76.719184 
L 268.232 72.948571 
L 268.232 69.177959 
L 268.232 65.407347 
L 268.232 61.636735 
L 268.232 57.866122 
L 268.232 54.09551 
L 268.232 50.324898 
L 268.232 46.554286 
L 268.232 42.783673 
L 268.232 39.013061 
L 268.232 35.242449 
L 268.232 31.471837 
L 268.232 27.701224 
L 268.232 23.930612 
L 268.232 20.16 
L 263.836245 20.16 
L 259.44049 20.16 
L 255.044735 20.16 
L 250.64898 20.16 
L 246.253224 20.16 
L 241.857469 20.16 
L 237.461714 20.16 
L 233.065959 20.16 
L 228.670204 20.16 
L 224.274449 20.16 
L 219.878694 20.16 
L 215.482939 20.16 
L 211.087184 20.16 
L 206.691429 20.16 
L 205.271003 20.16 
L 206.691429 20.787479 
L 211.087184 22.981112 
L 212.724522 23.930612 
L 215.482939 25.29544 
L 219.301622 27.701224 
L 219.878694 28.036075 
L 224.274449 31.038492 
L 224.836838 31.471837 
L 228.670204 34.53891 
L 229.466885 35.242449 
L 233.065959 38.843476 
L 233.231597 39.013061 
L 236.551395 42.783673 
L 237.461714 44.124331 
L 239.265829 46.554286 
L 241.302219 50.324898 
L 241.857469 51.712832 
L 243.020585 54.09551 
L 244.256713 57.866122 
L 244.915293 61.636735 
L 245.106969 65.407347 
L 244.888186 69.177959 
L 244.298015 72.948571 
L 243.402269 76.719184 
L 242.346298 80.489796 
L 241.857469 82.340209 
L 241.498655 84.260408 
L 241.097956 88.03102 
L 241.399056 91.801633 
L 241.857469 92.979471 
L 242.939364 95.572245 
L 246.210801 99.342857 
L 246.253224 99.372184 
L 250.64898 102.195893 
L 252.056005 103.113469 
L 255.044735 104.500425 
L 259.44049 106.778775 
L 259.614477 106.884082 
L 263.836245 109.045298 
L 266.344646 110.654694 
z
" clip-path="url(#pb432a78798)" style="fill: #423f85"/>
    <path d="M 96.185142 201.149388 
L 96.797551 198.398863 
L 97.149416 197.378776 
L 97.479868 193.608163 
L 96.797551 190.322918 
L 96.731377 189.837551 
L 95.481561 186.066939 
L 93.084987 182.296327 
L 92.401796 181.611225 
L 89.758144 178.525714 
L 88.006041 177.042652 
L 85.101682 174.755102 
L 83.610286 173.774632 
L 79.214531 171.457065 
L 78.075647 170.98449 
L 74.818776 169.74896 
L 70.42302 168.725313 
L 66.027265 168.22659 
L 61.63151 168.228661 
L 57.235755 168.733976 
L 52.84 169.770025 
L 52.84 170.98449 
L 52.84 171.097613 
L 53.218316 170.98449 
L 57.235755 169.992671 
L 61.63151 169.480978 
L 66.027265 169.485041 
L 70.42302 170.004912 
L 74.362152 170.98449 
L 74.818776 171.121531 
L 79.214531 172.940098 
L 82.529254 174.755102 
L 83.610286 175.478995 
L 87.453772 178.525714 
L 88.006041 179.082299 
L 90.869551 182.296327 
L 92.401796 184.727537 
L 93.298725 186.066939 
L 94.744909 189.837551 
L 95.328453 193.608163 
L 95.194388 197.378776 
L 94.388974 201.149388 
L 92.874282 204.92 
L 94.704812 204.92 
z
M 114.380571 204.92 
L 115.737601 204.92 
L 114.380571 201.621939 
L 114.199933 201.149388 
L 112.835809 197.378776 
L 111.681087 193.608163 
L 110.786066 189.837551 
L 110.158406 186.066939 
L 109.984816 184.374046 
L 109.769555 182.296327 
L 109.587345 178.525714 
L 109.516147 174.755102 
L 109.472006 170.98449 
L 109.380726 167.213878 
L 109.154253 163.443265 
L 108.655092 159.672653 
L 107.629041 155.902041 
L 105.589061 152.186976 
L 105.546927 152.131429 
L 101.193306 148.43418 
L 101.065861 148.360816 
L 96.797551 146.355284 
L 92.401796 144.911493 
L 91.257159 144.590204 
L 88.006041 143.696752 
L 83.610286 142.630077 
L 79.214531 141.698762 
L 74.818776 140.882554 
L 74.439844 140.819592 
L 70.42302 140.076168 
L 66.027265 139.373455 
L 61.63151 138.775627 
L 57.235755 138.272565 
L 52.84 137.856748 
L 52.84 140.819592 
L 52.84 141.827892 
L 57.235755 141.98041 
L 61.63151 142.30403 
L 66.027265 142.787084 
L 70.42302 143.427697 
L 74.818776 144.231168 
L 76.480483 144.590204 
L 79.214531 145.138345 
L 83.610286 146.182527 
L 88.006041 147.463639 
L 90.559737 148.360816 
L 92.401796 149.039085 
L 96.797551 151.140045 
L 98.342629 152.131429 
L 101.193306 154.479652 
L 102.430627 155.902041 
L 104.634667 159.672653 
L 105.589061 162.429083 
L 105.875024 163.443265 
L 106.564073 167.213878 
L 106.925608 170.98449 
L 107.096051 174.755102 
L 107.177867 178.525714 
L 107.27272 182.296327 
L 107.504815 186.066939 
L 108.028878 189.837551 
L 109.002538 193.608163 
L 109.984816 196.145747 
L 110.358567 197.378776 
L 111.680719 201.149388 
L 113.082928 204.92 
z
M 237.461714 204.92 
L 238.375975 204.92 
L 240.439563 201.149388 
L 241.854828 197.378776 
L 241.857469 197.365141 
L 242.340527 193.608163 
L 242.281652 189.837551 
L 241.857469 186.333752 
L 241.809469 186.066939 
L 240.818087 182.296327 
L 240.019784 178.525714 
L 240.010166 174.755102 
L 241.857469 171.957886 
L 242.95902 170.98449 
L 246.253224 169.523721 
L 250.64898 168.487777 
L 255.044735 167.802532 
L 259.054042 167.213878 
L 259.44049 167.128564 
L 263.836245 166.157098 
L 268.232 165.087283 
L 268.232 163.764807 
L 263.836245 164.98355 
L 259.44049 165.971567 
L 255.044735 166.921385 
L 253.728326 167.213878 
L 250.64898 167.665752 
L 246.253224 168.502815 
L 241.857469 170.176668 
L 240.600806 170.98449 
L 238.666619 174.755102 
L 238.95791 178.525714 
L 239.768623 182.296327 
L 240.653818 186.066939 
L 241.278039 189.837551 
L 241.296469 193.608163 
L 240.586302 197.378776 
L 239.230076 201.149388 
L 237.461714 204.345962 
L 237.01005 204.92 
z
M 268.232 107.741898 
L 268.232 106.884082 
L 268.232 103.113469 
L 268.232 99.342857 
L 268.232 95.572245 
L 268.232 91.801633 
L 268.232 88.03102 
L 268.232 84.260408 
L 268.232 83.262777 
L 263.836245 83.208214 
L 259.44049 84.00463 
L 258.883878 84.260408 
L 255.044735 86.18231 
L 253.308575 88.03102 
L 251.614651 91.801633 
L 252.379697 95.572245 
L 255.044735 98.81103 
L 255.459893 99.342857 
L 259.44049 102.007197 
L 260.819561 103.113469 
L 263.836245 104.780281 
L 266.797122 106.884082 
z
" clip-path="url(#pb432a78798)" style="fill: #3d4e8a"/>
    <path d="M 96.797551 204.246789 
L 98.651166 201.149388 
L 99.932072 197.378776 
L 100.505984 193.608163 
L 100.352681 189.837551 
L 98.951573 186.066939 
L 96.797551 184.142855 
L 95.773085 182.296327 
L 92.401796 178.915609 
L 92.067736 178.525714 
L 88.006041 175.087704 
L 87.583757 174.755102 
L 83.610286 172.142871 
L 81.367303 170.98449 
L 79.214531 169.913387 
L 74.818776 168.393111 
L 70.42302 167.445713 
L 68.307424 167.213878 
L 66.027265 166.923383 
L 61.63151 166.934553 
L 59.533215 167.213878 
L 57.235755 167.475282 
L 52.84 168.458221 
L 52.84 169.770025 
L 57.235755 168.733976 
L 61.63151 168.228661 
L 66.027265 168.22659 
L 70.42302 168.725313 
L 74.818776 169.74896 
L 78.075647 170.98449 
L 79.214531 171.457065 
L 83.610286 173.774632 
L 85.101682 174.755102 
L 88.006041 177.042652 
L 89.758144 178.525714 
L 92.401796 181.611225 
L 93.084987 182.296327 
L 95.481561 186.066939 
L 96.731377 189.837551 
L 96.797551 190.322918 
L 97.479868 193.608163 
L 97.149416 197.378776 
L 96.797551 198.398863 
L 96.185142 201.149388 
L 94.704812 204.92 
L 96.535342 204.92 
z
M 109.984816 203.521464 
L 110.48533 204.92 
L 113.082928 204.92 
L 111.680719 201.149388 
L 110.358567 197.378776 
L 109.984816 196.145747 
L 109.002538 193.608163 
L 108.028878 189.837551 
L 107.504815 186.066939 
L 107.27272 182.296327 
L 107.177867 178.525714 
L 107.096051 174.755102 
L 106.925608 170.98449 
L 106.564073 167.213878 
L 105.875024 163.443265 
L 105.589061 162.429083 
L 104.634667 159.672653 
L 102.430627 155.902041 
L 101.193306 154.479652 
L 98.342629 152.131429 
L 96.797551 151.140045 
L 92.401796 149.039085 
L 90.559737 148.360816 
L 88.006041 147.463639 
L 83.610286 146.182527 
L 79.214531 145.138345 
L 76.480483 144.590204 
L 74.818776 144.231168 
L 70.42302 143.427697 
L 66.027265 142.787084 
L 61.63151 142.30403 
L 57.235755 141.98041 
L 52.84 141.827892 
L 52.84 144.590204 
L 52.84 145.332499 
L 57.235755 145.28909 
L 61.63151 145.474593 
L 66.027265 145.86697 
L 70.42302 146.455273 
L 74.818776 147.241459 
L 79.214531 148.245533 
L 79.640003 148.360816 
L 83.610286 149.423607 
L 88.006041 150.902419 
L 90.862345 152.131429 
L 92.401796 152.859668 
L 96.797551 155.650041 
L 97.100303 155.902041 
L 100.571246 159.672653 
L 101.193306 160.656861 
L 102.559429 163.443265 
L 103.671929 167.213878 
L 104.259131 170.98449 
L 104.489278 174.755102 
L 104.449351 178.525714 
L 104.190256 182.296327 
L 103.807021 186.066939 
L 103.785784 189.837551 
L 105.589061 192.356477 
L 105.839 193.608163 
L 107.097044 197.378776 
L 108.823798 201.149388 
z
M 241.649051 201.149388 
L 241.857469 200.594158 
L 242.781743 197.378776 
L 243.182551 193.608163 
L 243.059333 189.837551 
L 242.562377 186.066939 
L 241.864604 182.296327 
L 241.857469 182.247394 
L 241.081657 178.525714 
L 241.353712 174.755102 
L 241.857469 173.992305 
L 245.261285 170.98449 
L 246.253224 170.544628 
L 250.64898 169.309802 
L 255.044735 168.572014 
L 259.44049 167.967676 
L 263.836245 167.309327 
L 264.454411 167.213878 
L 268.232 166.409758 
L 268.232 165.087283 
L 263.836245 166.157098 
L 259.44049 167.128564 
L 259.054042 167.213878 
L 255.044735 167.802532 
L 250.64898 168.487777 
L 246.253224 169.523721 
L 242.95902 170.98449 
L 241.857469 171.957886 
L 240.010166 174.755102 
L 240.019784 178.525714 
L 240.818087 182.296327 
L 241.809469 186.066939 
L 241.857469 186.333752 
L 242.281652 189.837551 
L 242.340527 193.608163 
L 241.857469 197.365141 
L 241.854828 197.378776 
L 240.439563 201.149388 
L 238.375975 204.92 
L 239.615748 204.92 
z
" clip-path="url(#pb432a78798)" style="fill: #365d8d"/>
    <path d="M 96.797551 204.92 
L 99.534028 204.92 
L 101.193306 201.73827 
L 105.589061 201.815097 
L 107.086837 204.92 
L 109.984816 204.92 
L 110.48533 204.92 
L 109.984816 203.521464 
L 108.823798 201.149388 
L 107.097044 197.378776 
L 105.839 193.608163 
L 105.589061 192.356477 
L 103.785784 189.837551 
L 103.807021 186.066939 
L 104.190256 182.296327 
L 104.449351 178.525714 
L 104.489278 174.755102 
L 104.259131 170.98449 
L 103.671929 167.213878 
L 102.559429 163.443265 
L 101.193306 160.656861 
L 100.571246 159.672653 
L 97.100303 155.902041 
L 96.797551 155.650041 
L 92.401796 152.859668 
L 90.862345 152.131429 
L 88.006041 150.902419 
L 83.610286 149.423607 
L 79.640003 148.360816 
L 79.214531 148.245533 
L 74.818776 147.241459 
L 70.42302 146.455273 
L 66.027265 145.86697 
L 61.63151 145.474593 
L 57.235755 145.28909 
L 52.84 145.332499 
L 52.84 148.360816 
L 52.84 148.500057 
L 56.020816 148.360816 
L 57.235755 148.307576 
L 59.72541 148.360816 
L 61.63151 148.399619 
L 66.027265 148.746662 
L 70.42302 149.325836 
L 74.818776 150.124445 
L 79.214531 151.158921 
L 82.465165 152.131429 
L 83.610286 152.501772 
L 88.006041 154.226867 
L 91.264432 155.902041 
L 92.401796 156.598586 
L 96.220695 159.672653 
L 96.797551 160.300057 
L 99.000915 163.443265 
L 100.631395 167.213878 
L 101.193306 169.547128 
L 101.46 170.98449 
L 101.574412 174.755102 
L 101.193306 177.881664 
L 100.667396 178.525714 
L 96.797551 179.440281 
L 95.970668 178.525714 
L 92.401796 176.125148 
L 90.773712 174.755102 
L 88.006041 172.927423 
L 84.69808 170.98449 
L 83.610286 170.368064 
L 79.214531 168.341345 
L 75.494439 167.213878 
L 74.818776 166.961604 
L 70.42302 165.890319 
L 66.027265 165.435737 
L 61.63151 165.461908 
L 57.235755 165.973723 
L 52.84 167.120079 
L 52.84 167.213878 
L 52.84 168.458221 
L 57.235755 167.475282 
L 59.533215 167.213878 
L 61.63151 166.934553 
L 66.027265 166.923383 
L 68.307424 167.213878 
L 70.42302 167.445713 
L 74.818776 168.393111 
L 79.214531 169.913387 
L 81.367303 170.98449 
L 83.610286 172.142871 
L 87.583757 174.755102 
L 88.006041 175.087704 
L 92.067736 178.525714 
L 92.401796 178.915609 
L 95.773085 182.296327 
L 96.797551 184.142855 
L 98.951573 186.066939 
L 100.352681 189.837551 
L 100.505984 193.608163 
L 99.932072 197.378776 
L 98.651166 201.149388 
L 96.797551 204.246789 
L 96.535342 204.92 
z
M 241.857469 203.057178 
L 242.737359 201.149388 
L 243.707944 197.378776 
L 244.024574 193.608163 
L 243.837014 189.837551 
L 243.297832 186.066939 
L 242.607379 182.296327 
L 242.087701 178.525714 
L 242.613072 174.755102 
L 246.253224 171.583876 
L 247.810621 170.98449 
L 250.64898 170.131828 
L 255.044735 169.341496 
L 259.44049 168.781482 
L 263.836245 168.26862 
L 268.232 167.706801 
L 268.232 167.213878 
L 268.232 166.409758 
L 264.454411 167.213878 
L 263.836245 167.309327 
L 259.44049 167.967676 
L 255.044735 168.572014 
L 250.64898 169.309802 
L 246.253224 170.544628 
L 245.261285 170.98449 
L 241.857469 173.992305 
L 241.353712 174.755102 
L 241.081657 178.525714 
L 241.857469 182.247394 
L 241.864604 182.296327 
L 242.562377 186.066939 
L 243.059333 189.837551 
L 243.182551 193.608163 
L 242.781743 197.378776 
L 241.857469 200.594158 
L 241.649051 201.149388 
L 239.615748 204.92 
L 240.855521 204.92 
z
" clip-path="url(#pb432a78798)" style="fill: #306a8e"/>
    <path d="M 101.193306 204.92 
L 105.589061 204.92 
L 107.086837 204.92 
L 105.589061 201.815097 
L 101.193306 201.73827 
L 99.534028 204.92 
z
M 241.857469 204.92 
L 242.114829 204.92 
L 243.800439 201.149388 
L 244.634146 197.378776 
L 244.866598 193.608163 
L 244.614695 189.837551 
L 244.033288 186.066939 
L 243.350153 182.296327 
L 242.94233 178.525714 
L 243.821931 174.755102 
L 246.253224 172.637009 
L 250.546994 170.98449 
L 250.64898 170.953853 
L 255.044735 170.110979 
L 259.44049 169.595288 
L 263.836245 169.227914 
L 268.232 168.964389 
L 268.232 167.706801 
L 263.836245 168.26862 
L 259.44049 168.781482 
L 255.044735 169.341496 
L 250.64898 170.131828 
L 247.810621 170.98449 
L 246.253224 171.583876 
L 242.613072 174.755102 
L 242.087701 178.525714 
L 242.607379 182.296327 
L 243.297832 186.066939 
L 243.837014 189.837551 
L 244.024574 193.608163 
L 243.707944 197.378776 
L 242.737359 201.149388 
L 241.857469 203.057178 
L 240.855521 204.92 
z
M 96.797551 179.440281 
L 100.667396 178.525714 
L 101.193306 177.881664 
L 101.574412 174.755102 
L 101.46 170.98449 
L 101.193306 169.547128 
L 100.631395 167.213878 
L 99.000915 163.443265 
L 96.797551 160.300057 
L 96.220695 159.672653 
L 92.401796 156.598586 
L 91.264432 155.902041 
L 88.006041 154.226867 
L 83.610286 152.501772 
L 82.465165 152.131429 
L 79.214531 151.158921 
L 74.818776 150.124445 
L 70.42302 149.325836 
L 66.027265 148.746662 
L 61.63151 148.399619 
L 59.72541 148.360816 
L 57.235755 148.307576 
L 56.020816 148.360816 
L 52.84 148.500057 
L 52.84 151.515342 
L 57.235755 151.239898 
L 61.63151 151.273063 
L 66.027265 151.580009 
L 70.356403 152.131429 
L 70.42302 152.14174 
L 74.818776 153.081019 
L 79.214531 154.223513 
L 83.610286 155.643087 
L 84.240287 155.902041 
L 88.006041 157.780652 
L 91.057698 159.672653 
L 92.401796 160.813881 
L 94.828418 163.443265 
L 96.797551 166.764871 
L 96.998249 167.213878 
L 97.443041 170.98449 
L 96.797551 172.886089 
L 92.401796 172.720385 
L 88.939966 170.98449 
L 88.006041 170.549364 
L 83.610286 168.243215 
L 80.834806 167.213878 
L 79.214531 166.449687 
L 74.818776 165.024937 
L 70.42302 164.273901 
L 66.027265 163.948091 
L 61.63151 163.989262 
L 57.235755 164.408506 
L 52.84 165.296131 
L 52.84 167.120079 
L 57.235755 165.973723 
L 61.63151 165.461908 
L 66.027265 165.435737 
L 70.42302 165.890319 
L 74.818776 166.961604 
L 75.494439 167.213878 
L 79.214531 168.341345 
L 83.610286 170.368064 
L 84.69808 170.98449 
L 88.006041 172.927423 
L 90.773712 174.755102 
L 92.401796 176.125148 
L 95.970668 178.525714 
z
" clip-path="url(#pb432a78798)" style="fill: #2a778e"/>
    <path d="M 244.863519 201.149388 
L 245.560347 197.378776 
L 245.708621 193.608163 
L 245.392376 189.837551 
L 244.768743 186.066939 
L 244.092927 182.296327 
L 243.796959 178.525714 
L 245.03079 174.755102 
L 246.253224 173.690142 
L 250.64898 171.742367 
L 254.503459 170.98449 
L 255.044735 170.880461 
L 259.44049 170.409094 
L 263.836245 170.187207 
L 268.232 170.221977 
L 268.232 168.964389 
L 263.836245 169.227914 
L 259.44049 169.595288 
L 255.044735 170.110979 
L 250.64898 170.953853 
L 250.546994 170.98449 
L 246.253224 172.637009 
L 243.821931 174.755102 
L 242.94233 178.525714 
L 243.350153 182.296327 
L 244.033288 186.066939 
L 244.614695 189.837551 
L 244.866598 193.608163 
L 244.634146 197.378776 
L 243.800439 201.149388 
L 242.114829 204.92 
L 243.456438 204.92 
z
M 268.232 204.92 
L 268.232 203.960263 
L 267.635776 204.92 
z
M 92.401796 172.720385 
L 96.797551 172.886089 
L 97.443041 170.98449 
L 96.998249 167.213878 
L 96.797551 166.764871 
L 94.828418 163.443265 
L 92.401796 160.813881 
L 91.057698 159.672653 
L 88.006041 157.780652 
L 84.240287 155.902041 
L 83.610286 155.643087 
L 79.214531 154.223513 
L 74.818776 153.081019 
L 70.42302 152.14174 
L 70.356403 152.131429 
L 66.027265 151.580009 
L 61.63151 151.273063 
L 57.235755 151.239898 
L 52.84 151.515342 
L 52.84 152.131429 
L 52.84 154.935421 
L 57.235755 154.662369 
L 61.63151 154.712177 
L 66.027265 155.036343 
L 70.42302 155.584881 
L 72.200919 155.902041 
L 74.818776 156.845484 
L 79.214531 158.255068 
L 83.51434 159.672653 
L 83.610286 159.768719 
L 88.006041 163.04485 
L 88.476644 163.443265 
L 88.006041 164.877217 
L 83.610286 164.639984 
L 79.214531 163.747461 
L 77.542068 163.443265 
L 74.818776 162.271293 
L 70.42302 161.475195 
L 66.027265 161.24174 
L 61.63151 161.396278 
L 57.235755 162.011269 
L 53.014594 163.443265 
L 52.84 163.472183 
L 52.84 165.296131 
L 57.235755 164.408506 
L 61.63151 163.989262 
L 66.027265 163.948091 
L 70.42302 164.273901 
L 74.818776 165.024937 
L 79.214531 166.449687 
L 80.834806 167.213878 
L 83.610286 168.243215 
L 88.006041 170.549364 
L 88.939966 170.98449 
z
" clip-path="url(#pb432a78798)" style="fill: #25838e"/>
    <path d="M 245.926598 201.149388 
L 246.253224 199.077527 
L 246.544209 197.378776 
L 246.593642 193.608163 
L 246.253224 190.713853 
L 246.170057 189.837551 
L 245.504198 186.066939 
L 244.835701 182.296327 
L 244.651588 178.525714 
L 246.239649 174.755102 
L 246.253224 174.743276 
L 250.64898 172.529584 
L 255.044735 171.628559 
L 259.44049 171.229497 
L 263.836245 171.166403 
L 268.232 171.602308 
L 268.232 170.98449 
L 268.232 170.221977 
L 263.836245 170.187207 
L 259.44049 170.409094 
L 255.044735 170.880461 
L 254.503459 170.98449 
L 250.64898 171.742367 
L 246.253224 173.690142 
L 245.03079 174.755102 
L 243.796959 178.525714 
L 244.092927 182.296327 
L 244.768743 186.066939 
L 245.392376 189.837551 
L 245.708621 193.608163 
L 245.560347 197.378776 
L 244.863519 201.149388 
L 243.456438 204.92 
L 244.798046 204.92 
z
M 268.232 203.960263 
L 268.232 201.149388 
L 268.232 199.789419 
L 267.41879 201.149388 
L 264.976496 204.92 
L 267.635776 204.92 
z
M 53.014594 163.443265 
L 57.235755 162.011269 
L 61.63151 161.396278 
L 66.027265 161.24174 
L 70.42302 161.475195 
L 74.818776 162.271293 
L 77.542068 163.443265 
L 79.214531 163.747461 
L 83.610286 164.639984 
L 88.006041 164.877217 
L 88.476644 163.443265 
L 88.006041 163.04485 
L 83.610286 159.768719 
L 83.51434 159.672653 
L 79.214531 158.255068 
L 74.818776 156.845484 
L 72.200919 155.902041 
L 70.42302 155.584881 
L 66.027265 155.036343 
L 61.63151 154.712177 
L 57.235755 154.662369 
L 52.84 154.935421 
L 52.84 155.902041 
L 52.84 159.672653 
L 52.84 163.443265 
L 52.84 163.472183 
z
" clip-path="url(#pb432a78798)" style="fill: #21918c"/>
    <path d="M 246.253224 204.509418 
L 247.30968 201.149388 
L 247.699297 197.378776 
L 247.557395 193.608163 
L 247.024865 189.837551 
L 246.253224 186.14327 
L 246.239654 186.066939 
L 245.578475 182.296327 
L 245.506218 178.525714 
L 246.253224 176.75649 
L 247.796774 174.755102 
L 250.64898 173.3168 
L 255.044735 172.373314 
L 259.44049 172.06582 
L 263.836245 172.243545 
L 268.232 173.171686 
L 268.232 171.602308 
L 263.836245 171.166403 
L 259.44049 171.229497 
L 255.044735 171.628559 
L 250.64898 172.529584 
L 246.253224 174.743276 
L 246.239649 174.755102 
L 244.651588 178.525714 
L 244.835701 182.296327 
L 245.504198 186.066939 
L 246.170057 189.837551 
L 246.253224 190.713853 
L 246.593642 193.608163 
L 246.544209 197.378776 
L 246.253224 199.077527 
L 245.926598 201.149388 
L 244.798046 204.92 
L 246.139655 204.92 
z
M 263.836245 204.92 
L 264.976496 204.92 
L 267.41879 201.149388 
L 268.232 199.789419 
L 268.232 197.378776 
L 268.232 195.903805 
L 267.402275 197.378776 
L 265.050326 201.149388 
L 263.836245 202.932732 
L 262.27837 204.92 
z
" clip-path="url(#pb432a78798)" style="fill: #1e9d89"/>
    <path d="M 246.253224 204.92 
L 248.421762 204.92 
L 248.834687 201.149388 
L 248.854385 197.378776 
L 248.521149 193.608163 
L 247.888909 189.837551 
L 247.072668 186.066939 
L 246.334756 182.296327 
L 246.389795 178.525714 
L 249.357854 174.755102 
L 250.64898 174.104017 
L 255.044735 173.11807 
L 259.44049 172.902144 
L 263.836245 173.320687 
L 268.232 174.741064 
L 268.232 173.171686 
L 263.836245 172.243545 
L 259.44049 172.06582 
L 255.044735 172.373314 
L 250.64898 173.3168 
L 247.796774 174.755102 
L 246.253224 176.75649 
L 245.506218 178.525714 
L 245.578475 182.296327 
L 246.239654 186.066939 
L 246.253224 186.14327 
L 247.024865 189.837551 
L 247.557395 193.608163 
L 247.699297 197.378776 
L 247.30968 201.149388 
L 246.253224 204.509418 
L 246.139655 204.92 
z
M 263.836245 202.932732 
L 265.050326 201.149388 
L 267.402275 197.378776 
L 268.232 195.903805 
L 268.232 193.608163 
L 268.232 192.101553 
L 267.487082 193.608163 
L 265.282329 197.378776 
L 263.836245 199.577998 
L 262.566701 201.149388 
L 259.551084 204.92 
L 262.27837 204.92 
z
" clip-path="url(#pb432a78798)" style="fill: #23a983"/>
    <path d="M 250.64898 204.92 
L 252.273716 204.92 
L 250.64898 204.015293 
L 250.359693 201.149388 
L 250.009472 197.378776 
L 249.484902 193.608163 
L 248.752953 189.837551 
L 247.907516 186.066939 
L 247.225019 182.296327 
L 247.474298 178.525714 
L 250.64898 174.965423 
L 251.203426 174.755102 
L 255.044735 173.862825 
L 259.44049 173.738468 
L 263.836245 174.397829 
L 264.938509 174.755102 
L 268.232 177.450936 
L 268.232 174.755102 
L 268.232 174.741064 
L 263.836245 173.320687 
L 259.44049 172.902144 
L 255.044735 173.11807 
L 250.64898 174.104017 
L 249.357854 174.755102 
L 246.389795 178.525714 
L 246.334756 182.296327 
L 247.072668 186.066939 
L 247.888909 189.837551 
L 248.521149 193.608163 
L 248.854385 197.378776 
L 248.834687 201.149388 
L 248.421762 204.92 
z
M 259.44049 204.92 
L 259.551084 204.92 
L 262.566701 201.149388 
L 263.836245 199.577998 
L 265.282329 197.378776 
L 267.487082 193.608163 
L 268.232 192.101553 
L 268.232 189.837551 
L 268.232 187.901209 
L 267.514766 189.837551 
L 265.581152 193.608163 
L 263.836245 196.407011 
L 263.047853 197.378776 
L 259.961962 201.149388 
L 259.44049 201.800344 
L 255.467636 204.92 
z
" clip-path="url(#pb432a78798)" style="fill: #32b67a"/>
    <path d="M 250.64898 204.015293 
L 252.273716 204.92 
L 255.044735 204.92 
L 255.467636 204.92 
L 259.44049 201.800344 
L 259.961962 201.149388 
L 263.047853 197.378776 
L 263.836245 196.407011 
L 265.581152 193.608163 
L 267.514766 189.837551 
L 268.232 187.901209 
L 268.232 186.066939 
L 268.232 182.296327 
L 268.232 178.525714 
L 268.232 177.450936 
L 264.938509 174.755102 
L 263.836245 174.397829 
L 259.44049 173.738468 
L 255.044735 173.862825 
L 251.203426 174.755102 
L 250.64898 174.965423 
L 247.474298 178.525714 
L 247.225019 182.296327 
L 247.907516 186.066939 
L 248.752953 189.837551 
L 249.484902 193.608163 
L 250.009472 197.378776 
L 250.359693 201.149388 
z
M 254.87477 201.149388 
L 251.952139 197.378776 
L 250.64898 194.806168 
L 250.448656 193.608163 
L 249.616997 189.837551 
L 248.742365 186.066939 
L 248.115281 182.296327 
L 248.558801 178.525714 
L 250.64898 176.181654 
L 254.409646 174.755102 
L 255.044735 174.607581 
L 259.44049 174.574792 
L 260.512673 174.755102 
L 263.836245 175.88324 
L 267.006858 178.525714 
L 267.838422 182.296327 
L 267.229066 186.066939 
L 265.776759 189.837551 
L 263.836245 193.342917 
L 263.639855 193.608163 
L 260.567605 197.378776 
L 259.44049 198.74495 
L 255.216844 201.149388 
L 255.044735 201.28146 
z
" clip-path="url(#pb432a78798)" style="fill: #48c16e"/>
    <path d="M 255.044735 201.28146 
L 255.216844 201.149388 
L 259.44049 198.74495 
L 260.567605 197.378776 
L 263.639855 193.608163 
L 263.836245 193.342917 
L 265.776759 189.837551 
L 267.229066 186.066939 
L 267.838422 182.296327 
L 267.006858 178.525714 
L 263.836245 175.88324 
L 260.512673 174.755102 
L 259.44049 174.574792 
L 255.044735 174.607581 
L 254.409646 174.755102 
L 250.64898 176.181654 
L 248.558801 178.525714 
L 248.115281 182.296327 
L 248.742365 186.066939 
L 249.616997 189.837551 
L 250.448656 193.608163 
L 250.64898 194.806168 
L 251.952139 197.378776 
L 254.87477 201.149388 
z
M 254.87169 197.378776 
L 252.351003 193.608163 
L 250.64898 190.580444 
L 250.481041 189.837551 
L 249.577213 186.066939 
L 249.005544 182.296327 
L 249.643304 178.525714 
L 250.64898 177.397886 
L 255.044735 175.625482 
L 259.44049 175.724298 
L 263.836245 177.571274 
L 264.981445 178.525714 
L 266.147215 182.296327 
L 265.582422 186.066939 
L 264.038752 189.837551 
L 263.836245 190.203361 
L 261.315308 193.608163 
L 259.44049 195.857351 
L 255.475498 197.378776 
L 255.044735 197.596455 
z
" clip-path="url(#pb432a78798)" style="fill: #65cb5e"/>
    <path d="M 255.044735 197.596455 
L 255.475498 197.378776 
L 259.44049 195.857351 
L 261.315308 193.608163 
L 263.836245 190.203361 
L 264.038752 189.837551 
L 265.582422 186.066939 
L 266.147215 182.296327 
L 264.981445 178.525714 
L 263.836245 177.571274 
L 259.44049 175.724298 
L 255.044735 175.625482 
L 250.64898 177.397886 
L 249.643304 178.525714 
L 249.005544 182.296327 
L 249.577213 186.066939 
L 250.481041 189.837551 
L 250.64898 190.580444 
L 252.351003 193.608163 
L 254.87169 197.378776 
z
M 254.499637 193.608163 
L 252.144014 189.837551 
L 250.64898 187.049154 
L 250.412061 186.066939 
L 249.895806 182.296327 
L 250.64898 178.824038 
L 250.8321 178.525714 
L 255.044735 176.710853 
L 259.44049 176.959883 
L 262.713753 178.525714 
L 263.836245 180.571351 
L 264.456008 182.296327 
L 263.935778 186.066939 
L 263.836245 186.308396 
L 261.933234 189.837551 
L 259.44049 193.06809 
L 257.538628 193.608163 
L 255.044735 194.409039 
z
" clip-path="url(#pb432a78798)" style="fill: #84d44b"/>
    <path d="M 255.044735 194.409039 
L 257.538628 193.608163 
L 259.44049 193.06809 
L 261.933234 189.837551 
L 263.836245 186.308396 
L 263.935778 186.066939 
L 264.456008 182.296327 
L 263.836245 180.571351 
L 262.713753 178.525714 
L 259.44049 176.959883 
L 255.044735 176.710853 
L 250.8321 178.525714 
L 250.64898 178.824038 
L 249.895806 182.296327 
L 250.412061 186.066939 
L 250.64898 187.049154 
L 252.144014 189.837551 
L 254.499637 193.608163 
z
M 253.999733 189.837551 
L 251.958542 186.066939 
L 250.963229 182.296327 
L 253.351449 178.525714 
L 255.044735 177.796223 
L 259.44049 178.195468 
L 260.130847 178.525714 
L 262.512936 182.296327 
L 261.923072 186.066939 
L 259.779249 189.837551 
L 259.44049 190.276575 
L 255.044735 191.459117 
z
" clip-path="url(#pb432a78798)" style="fill: #a8db34"/>
    <path d="M 255.044735 191.459117 
L 259.44049 190.276575 
L 259.779249 189.837551 
L 261.923072 186.066939 
L 262.512936 182.296327 
L 260.130847 178.525714 
L 259.44049 178.195468 
L 255.044735 177.796223 
L 253.351449 178.525714 
L 250.963229 182.296327 
L 251.958542 186.066939 
L 253.999733 189.837551 
z
M 253.786993 186.066939 
L 253.003982 182.296327 
L 255.044735 179.456769 
L 259.44049 180.821046 
L 260.424175 182.296327 
L 259.886816 186.066939 
L 259.44049 186.845227 
L 255.044735 188.372969 
z
" clip-path="url(#pb432a78798)" style="fill: #cae11f"/>
    <path d="M 255.044735 188.372969 
L 259.44049 186.845227 
L 259.886816 186.066939 
L 260.424175 182.296327 
L 259.44049 180.821046 
L 255.044735 179.456769 
L 253.003982 182.296327 
L 253.786993 186.066939 
z
" clip-path="url(#pb432a78798)" style="fill: #efe51c"/>
   </g>
   <g id="PathCollection_1">
    <defs>
     <path id="m3b46ed01c9" d="M 0 3 
C 0.795609 3 1.55874 2.683901 2.12132 2.12132 
C 2.683901 1.55874 3 0.795609 3 0 
C 3 -0.795609 2.683901 -1.55874 2.12132 -2.12132 
C 1.55874 -2.683901 0.795609 -3 0 -3 
C -0.795609 -3 -1.55874 -2.683901 -2.12132 -2.12132 
C -2.683901 -1.55874 -3 -0.795609 -3 0 
C -3 0.795609 -2.683901 1.55874 -2.12132 2.12132 
C -1.55874 2.683901 -0.795609 3 0 3 
z
" style="stroke: #ff0000"/>
    </defs>
    <g clip-path="url(#pb432a78798)">
     <use xlink:href="#m3b46ed01c9" x="255.044735" y="182.296327" style="fill: #ff0000; stroke: #ff0000"/>
    </g>
   </g>
   <g id="matplotlib.axis_1">
    <g id="xtick_1">
     <g id="line2d_1">
      <defs>
       <path id="m4284f5ea1e" d="M 0 0 
L 0 3.5 
" style="stroke: #000000; stroke-width: 0.8"/>
      </defs>
      <g>
       <use xlink:href="#m4284f5ea1e" x="52.84" y="204.92" style="stroke: #000000; stroke-width: 0.8"/>
      </g>
     </g>
     <g id="text_1">
      <!-- 1.0 -->
      <g transform="translate(40.698594 219.518437) scale(0.1 -0.1)">
       <defs>
        <path id="DejaVuSans-2212" d="M 678 2272 
L 4684 2272 
L 4684 1741 
L 678 1741 
L 678 2272 
z
" transform="scale(0.015625)"/>
        <path id="DejaVuSans-31" d="M 794 531 
L 1825 531 
L 1825 4091 
L 703 3866 
L 703 4441 
L 1819 4666 
L 2450 4666 
L 2450 531 
L 3481 531 
L 3481 0 
L 794 0 
L 794 531 
z
" transform="scale(0.015625)"/>
        <path id="DejaVuSans-2e" d="M 684 794 
L 1344 794 
L 1344 0 
L 684 0 
L 684 794 
z
" transform="scale(0.015625)"/>
        <path id="DejaVuSans-30" d="M 2034 4250 
Q 1547 4250 1301 3770 
Q 1056 3291 1056 2328 
Q 1056 1369 1301 889 
Q 1547 409 2034 409 
Q 2525 409 2770 889 
Q 3016 1369 3016 2328 
Q 3016 3291 2770 3770 
Q 2525 4250 2034 4250 
z
M 2034 4750 
Q 2819 4750 3233 4129 
Q 3647 3509 3647 2328 
Q 3647 1150 3233 529 
Q 2819 -91 2034 -91 
Q 1250 -91 836 529 
Q 422 1150 422 2328 
Q 422 3509 836 4129 
Q 1250 4750 2034 4750 
z
" transform="scale(0.015625)"/>
       </defs>
       <use xlink:href="#DejaVuSans-2212"/>
       <use xlink:href="#DejaVuSans-31" x="83.789062"/>
       <use xlink:href="#DejaVuSans-2e" x="147.412109"/>
       <use xlink:href="#DejaVuSans-30" x="179.199219"/>
      </g>
     </g>
    </g>
    <g id="xtick_2">
     <g id="line2d_2">
      <g>
       <use xlink:href="#m4284f5ea1e" x="106.688" y="204.92" style="stroke: #000000; stroke-width: 0.8"/>
      </g>
     </g>
     <g id="text_2">
      <!-- 0.5 -->
      <g transform="translate(94.546594 219.518437) scale(0.1 -0.1)">
       <defs>
        <path id="DejaVuSans-35" d="M 691 4666 
L 3169 4666 
L 3169 4134 
L 1269 4134 
L 1269 2991 
Q 1406 3038 1543 3061 
Q 1681 3084 1819 3084 
Q 2600 3084 3056 2656 
Q 3513 2228 3513 1497 
Q 3513 744 3044 326 
Q 2575 -91 1722 -91 
Q 1428 -91 1123 -41 
Q 819 9 494 109 
L 494 744 
Q 775 591 1075 516 
Q 1375 441 1709 441 
Q 2250 441 2565 725 
Q 2881 1009 2881 1497 
Q 2881 1984 2565 2268 
Q 2250 2553 1709 2553 
Q 1456 2553 1204 2497 
Q 953 2441 691 2322 
L 691 4666 
z
" transform="scale(0.015625)"/>
       </defs>
       <use xlink:href="#DejaVuSans-2212"/>
       <use xlink:href="#DejaVuSans-30" x="83.789062"/>
       <use xlink:href="#DejaVuSans-2e" x="147.412109"/>
       <use xlink:href="#DejaVuSans-35" x="179.199219"/>
      </g>
     </g>
    </g>
    <g id="xtick_3">
     <g id="line2d_3">
      <g>
       <use xlink:href="#m4284f5ea1e" x="160.536" y="204.92" style="stroke: #000000; stroke-width: 0.8"/>
      </g>
     </g>
     <g id="text_3">
      <!-- 0.0 -->
      <g transform="translate(152.584438 219.518437) scale(0.1 -0.1)">
       <use xlink:href="#DejaVuSans-30"/>
       <use xlink:href="#DejaVuSans-2e" x="63.623047"/>
       <use xlink:href="#DejaVuSans-30" x="95.410156"/>
      </g>
     </g>
    </g>
    <g id="xtick_4">
     <g id="line2d_4">
      <g>
       <use xlink:href="#m4284f5ea1e" x="214.384" y="204.92" style="stroke: #000000; stroke-width: 0.8"/>
      </g>
     </g>
     <g id="text_4">
      <!-- 0.5 -->
      <g transform="translate(206.432438 219.518437) scale(0.1 -0.1)">
       <use xlink:href="#DejaVuSans-30"/>
       <use xlink:href="#DejaVuSans-2e" x="63.623047"/>
       <use xlink:href="#DejaVuSans-35" x="95.410156"/>
      </g>
     </g>
    </g>
    <g id="xtick_5">
     <g id="line2d_5">
      <g>
       <use xlink:href="#m4284f5ea1e" x="268.232" y="204.92" style="stroke: #000000; stroke-width: 0.8"/>
      </g>
     </g>
     <g id="text_5">
      <!-- 1.0 -->
      <g transform="translate(260.280438 219.518437) scale(0.1 -0.1)">
       <use xlink:href="#DejaVuSans-31"/>
       <use xlink:href="#DejaVuSans-2e" x="63.623047"/>
       <use xlink:href="#DejaVuSans-30" x="95.410156"/>
      </g>
     </g>
    </g>
    <g id="text_6">
     <!-- x -->
     <g transform="translate(157.576625 233.196562) scale(0.1 -0.1)">
      <defs>
       <path id="DejaVuSans-78" d="M 3513 3500 
L 2247 1797 
L 3578 0 
L 2900 0 
L 1881 1375 
L 863 0 
L 184 0 
L 1544 1831 
L 300 3500 
L 978 3500 
L 1906 2253 
L 2834 3500 
L 3513 3500 
z
" transform="scale(0.015625)"/>
      </defs>
      <use xlink:href="#DejaVuSans-78"/>
     </g>
    </g>
   </g>
   <g id="matplotlib.axis_2">
    <g id="ytick_1">
     <g id="line2d_6">
      <defs>
       <path id="me6f2a2554e" d="M 0 0 
L -3.5 0 
" style="stroke: #000000; stroke-width: 0.8"/>
      </defs>
      <g>
       <use xlink:href="#me6f2a2554e" x="52.84" y="204.92" style="stroke: #000000; stroke-width: 0.8"/>
      </g>
     </g>
     <g id="text_7">
      <!-- 1.00 -->
      <g transform="translate(15.194688 208.719219) scale(0.1 -0.1)">
       <use xlink:href="#DejaVuSans-2212"/>
       <use xlink:href="#DejaVuSans-31" x="83.789062"/>
       <use xlink:href="#DejaVuSans-2e" x="147.412109"/>
       <use xlink:href="#DejaVuSans-30" x="179.199219"/>
       <use xlink:href="#DejaVuSans-30" x="242.822266"/>
      </g>
     </g>
    </g>
    <g id="ytick_2">
     <g id="line2d_7">
      <g>
       <use xlink:href="#me6f2a2554e" x="52.84" y="181.825" style="stroke: #000000; stroke-width: 0.8"/>
      </g>
     </g>
     <g id="text_8">
      <!-- 0.75 -->
      <g transform="translate(15.194688 185.624219) scale(0.1 -0.1)">
       <defs>
        <path id="DejaVuSans-37" d="M 525 4666 
L 3525 4666 
L 3525 4397 
L 1831 0 
L 1172 0 
L 2766 4134 
L 525 4134 
L 525 4666 
z
" transform="scale(0.015625)"/>
       </defs>
       <use xlink:href="#DejaVuSans-2212"/>
       <use xlink:href="#DejaVuSans-30" x="83.789062"/>
       <use xlink:href="#DejaVuSans-2e" x="147.412109"/>
       <use xlink:href="#DejaVuSans-37" x="179.199219"/>
       <use xlink:href="#DejaVuSans-35" x="242.822266"/>
      </g>
     </g>
    </g>
    <g id="ytick_3">
     <g id="line2d_8">
      <g>
       <use xlink:href="#me6f2a2554e" x="52.84" y="158.73" style="stroke: #000000; stroke-width: 0.8"/>
      </g>
     </g>
     <g id="text_9">
      <!-- 0.50 -->
      <g transform="translate(15.194688 162.529219) scale(0.1 -0.1)">
       <use xlink:href="#DejaVuSans-2212"/>
       <use xlink:href="#DejaVuSans-30" x="83.789062"/>
       <use xlink:href="#DejaVuSans-2e" x="147.412109"/>
       <use xlink:href="#DejaVuSans-35" x="179.199219"/>
       <use xlink:href="#DejaVuSans-30" x="242.822266"/>
      </g>
     </g>
    </g>
    <g id="ytick_4">
     <g id="line2d_9">
      <g>
       <use xlink:href="#me6f2a2554e" x="52.84" y="135.635" style="stroke: #000000; stroke-width: 0.8"/>
      </g>
     </g>
     <g id="text_10">
      <!-- 0.25 -->
      <g transform="translate(15.194688 139.434219) scale(0.1 -0.1)">
       <defs>
        <path id="DejaVuSans-32" d="M 1228 531 
L 3431 531 
L 3431 0 
L 469 0 
L 469 531 
Q 828 903 1448 1529 
Q 2069 2156 2228 2338 
Q 2531 2678 2651 2914 
Q 2772 3150 2772 3378 
Q 2772 3750 2511 3984 
Q 2250 4219 1831 4219 
Q 1534 4219 1204 4116 
Q 875 4013 500 3803 
L 500 4441 
Q 881 4594 1212 4672 
Q 1544 4750 1819 4750 
Q 2544 4750 2975 4387 
Q 3406 4025 3406 3419 
Q 3406 3131 3298 2873 
Q 3191 2616 2906 2266 
Q 2828 2175 2409 1742 
Q 1991 1309 1228 531 
z
" transform="scale(0.015625)"/>
       </defs>
       <use xlink:href="#DejaVuSans-2212"/>
       <use xlink:href="#DejaVuSans-30" x="83.789062"/>
       <use xlink:href="#DejaVuSans-2e" x="147.412109"/>
       <use xlink:href="#DejaVuSans-32" x="179.199219"/>
       <use xlink:href="#DejaVuSans-35" x="242.822266"/>
      </g>
     </g>
    </g>
    <g id="ytick_5">
     <g id="line2d_10">
      <g>
       <use xlink:href="#me6f2a2554e" x="52.84" y="112.54" style="stroke: #000000; stroke-width: 0.8"/>
      </g>
     </g>
     <g id="text_11">
      <!-- 0.00 -->
      <g transform="translate(23.574375 116.339219) scale(0.1 -0.1)">
       <use xlink:href="#DejaVuSans-30"/>
       <use xlink:href="#DejaVuSans-2e" x="63.623047"/>
       <use xlink:href="#DejaVuSans-30" x="95.410156"/>
       <use xlink:href="#DejaVuSans-30" x="159.033203"/>
      </g>
     </g>
    </g>
    <g id="ytick_6">
     <g id="line2d_11">
      <g>
       <use xlink:href="#me6f2a2554e" x="52.84" y="89.445" style="stroke: #000000; stroke-width: 0.8"/>
      </g>
     </g>
     <g id="text_12">
      <!-- 0.25 -->
      <g transform="translate(23.574375 93.244219) scale(0.1 -0.1)">
       <use xlink:href="#DejaVuSans-30"/>
       <use xlink:href="#DejaVuSans-2e" x="63.623047"/>
       <use xlink:href="#DejaVuSans-32" x="95.410156"/>
       <use xlink:href="#DejaVuSans-35" x="159.033203"/>
      </g>
     </g>
    </g>
    <g id="ytick_7">
     <g id="line2d_12">
      <g>
       <use xlink:href="#me6f2a2554e" x="52.84" y="66.35" style="stroke: #000000; stroke-width: 0.8"/>
      </g>
     </g>
     <g id="text_13">
      <!-- 0.50 -->
      <g transform="translate(23.574375 70.149219) scale(0.1 -0.1)">
       <use xlink:href="#DejaVuSans-30"/>
       <use xlink:href="#DejaVuSans-2e" x="63.623047"/>
       <use xlink:href="#DejaVuSans-35" x="95.410156"/>
       <use xlink:href="#DejaVuSans-30" x="159.033203"/>
      </g>
     </g>
    </g>
    <g id="ytick_8">
     <g id="line2d_13">
      <g>
       <use xlink:href="#me6f2a2554e" x="52.84" y="43.255" style="stroke: #000000; stroke-width: 0.8"/>
      </g>
     </g>
     <g id="text_14">
      <!-- 0.75 -->
      <g transform="translate(23.574375 47.054219) scale(0.1 -0.1)">
       <use xlink:href="#DejaVuSans-30"/>
       <use xlink:href="#DejaVuSans-2e" x="63.623047"/>
       <use xlink:href="#DejaVuSans-37" x="95.410156"/>
       <use xlink:href="#DejaVuSans-35" x="159.033203"/>
      </g>
     </g>
    </g>
    <g id="ytick_9">
     <g id="line2d_14">
      <g>
       <use xlink:href="#me6f2a2554e" x="52.84" y="20.16" style="stroke: #000000; stroke-width: 0.8"/>
      </g>
     </g>
     <g id="text_15">
      <!-- 1.00 -->
      <g transform="translate(23.574375 23.959219) scale(0.1 -0.1)">
       <use xlink:href="#DejaVuSans-31"/>
       <use xlink:href="#DejaVuSans-2e" x="63.623047"/>
       <use xlink:href="#DejaVuSans-30" x="95.410156"/>
       <use xlink:href="#DejaVuSans-30" x="159.033203"/>
      </g>
     </g>
    </g>
    <g id="text_16">
     <!-- y -->
     <g transform="translate(9.115 115.499375) rotate(-90) scale(0.1 -0.1)">
      <defs>
       <path id="DejaVuSans-79" d="M 2059 -325 
Q 1816 -950 1584 -1140 
Q 1353 -1331 966 -1331 
L 506 -1331 
L 506 -850 
L 844 -850 
Q 1081 -850 1212 -737 
Q 1344 -625 1503 -206 
L 1606 56 
L 191 3500 
L 800 3500 
L 1894 763 
L 2988 3500 
L 3597 3500 
L 2059 -325 
z
" transform="scale(0.015625)"/>
      </defs>
      <use xlink:href="#DejaVuSans-79"/>
     </g>
    </g>
   </g>
   <g id="patch_3">
    <path d="M 52.84 204.92 
L 52.84 20.16 
" style="fill: none; stroke: #000000; stroke-width: 0.8; stroke-linejoin: miter; stroke-linecap: square"/>
   </g>
   <g id="patch_4">
    <path d="M 268.232 204.92 
L 268.232 20.16 
" style="fill: none; stroke: #000000; stroke-width: 0.8; stroke-linejoin: miter; stroke-linecap: square"/>
   </g>
   <g id="patch_5">
    <path d="M 52.84 204.92 
L 268.232 204.92 
" style="fill: none; stroke: #000000; stroke-width: 0.8; stroke-linejoin: miter; stroke-linecap: square"/>
   </g>
   <g id="patch_6">
    <path d="M 52.84 20.16 
L 268.232 20.16 
" style="fill: none; stroke: #000000; stroke-width: 0.8; stroke-linejoin: miter; stroke-linecap: square"/>
   </g>
   <g id="legend_1">
    <g id="patch_7">
     <path d="M 208.557 42.838125 
L 261.232 42.838125 
Q 263.232 42.838125 263.232 40.838125 
L 263.232 27.16 
Q 263.232 25.16 261.232 25.16 
L 208.557 25.16 
Q 206.557 25.16 206.557 27.16 
L 206.557 40.838125 
Q 206.557 42.838125 208.557 42.838125 
z
" style="fill: #ffffff; opacity: 0.8; stroke: #cccccc; stroke-linejoin: miter"/>
    </g>
    <g id="PathCollection_2">
     <g>
      <use xlink:href="#m3b46ed01c9" x="220.557" y="34.133437" style="fill: #ff0000; stroke: #ff0000"/>
     </g>
    </g>
    <g id="text_17">
     <!-- Max -->
     <g transform="translate(238.557 36.758437) scale(0.1 -0.1)">
      <defs>
       <path id="DejaVuSans-4d" d="M 628 4666 
L 1569 4666 
L 2759 1491 
L 3956 4666 
L 4897 4666 
L 4897 0 
L 4281 0 
L 4281 4097 
L 3078 897 
L 2444 897 
L 1241 4097 
L 1241 0 
L 628 0 
L 628 4666 
z
" transform="scale(0.015625)"/>
       <path id="DejaVuSans-61" d="M 2194 1759 
Q 1497 1759 1228 1600 
Q 959 1441 959 1056 
Q 959 750 1161 570 
Q 1363 391 1709 391 
Q 2188 391 2477 730 
Q 2766 1069 2766 1631 
L 2766 1759 
L 2194 1759 
z
M 3341 1997 
L 3341 0 
L 2766 0 
L 2766 531 
Q 2569 213 2275 61 
Q 1981 -91 1556 -91 
Q 1019 -91 701 211 
Q 384 513 384 1019 
Q 384 1609 779 1909 
Q 1175 2209 1959 2209 
L 2766 2209 
L 2766 2266 
Q 2766 2663 2505 2880 
Q 2244 3097 1772 3097 
Q 1472 3097 1187 3025 
Q 903 2953 641 2809 
L 641 3341 
Q 956 3463 1253 3523 
Q 1550 3584 1831 3584 
Q 2591 3584 2966 3190 
Q 3341 2797 3341 1997 
z
" transform="scale(0.015625)"/>
      </defs>
      <use xlink:href="#DejaVuSans-4d"/>
      <use xlink:href="#DejaVuSans-61" x="86.279297"/>
      <use xlink:href="#DejaVuSans-78" x="147.558594"/>
     </g>
    </g>
   </g>
  </g>
  <g id="axes_2">
   <g id="patch_8">
    <path d="M 281.694 204.92 
L 290.932 204.92 
L 290.932 20.16 
L 281.694 20.16 
z
" style="fill: #ffffff"/>
   </g>
   <g id="QuadMesh_1">
    <path d="M 281.694 204.92 
L 290.932 204.92 
L 290.932 195.195789 
L 281.694 195.195789 
L 281.694 204.92 
" clip-path="url(#pd5d93c61b0)" style="fill: #460a5d"/>
    <path d="M 281.694 195.195789 
L 290.932 195.195789 
L 290.932 185.471579 
L 281.694 185.471579 
L 281.694 195.195789 
" clip-path="url(#pd5d93c61b0)" style="fill: #481d6f"/>
    <path d="M 281.694 185.471579 
L 290.932 185.471579 
L 290.932 175.747368 
L 281.694 175.747368 
L 281.694 185.471579 
" clip-path="url(#pd5d93c61b0)" style="fill: #472e7c"/>
    <path d="M 281.694 175.747368 
L 290.932 175.747368 
L 290.932 166.023158 
L 281.694 166.023158 
L 281.694 175.747368 
" clip-path="url(#pd5d93c61b0)" style="fill: #423f85"/>
    <path d="M 281.694 166.023158 
L 290.932 166.023158 
L 290.932 156.298947 
L 281.694 156.298947 
L 281.694 166.023158 
" clip-path="url(#pd5d93c61b0)" style="fill: #3d4e8a"/>
    <path d="M 281.694 156.298947 
L 290.932 156.298947 
L 290.932 146.574737 
L 281.694 146.574737 
L 281.694 156.298947 
" clip-path="url(#pd5d93c61b0)" style="fill: #365d8d"/>
    <path d="M 281.694 146.574737 
L 290.932 146.574737 
L 290.932 136.850526 
L 281.694 136.850526 
L 281.694 146.574737 
" clip-path="url(#pd5d93c61b0)" style="fill: #306a8e"/>
    <path d="M 281.694 136.850526 
L 290.932 136.850526 
L 290.932 127.126316 
L 281.694 127.126316 
L 281.694 136.850526 
" clip-path="url(#pd5d93c61b0)" style="fill: #2a778e"/>
    <path d="M 281.694 127.126316 
L 290.932 127.126316 
L 290.932 117.402105 
L 281.694 117.402105 
L 281.694 127.126316 
" clip-path="url(#pd5d93c61b0)" style="fill: #25838e"/>
    <path d="M 281.694 117.402105 
L 290.932 117.402105 
L 290.932 107.677895 
L 281.694 107.677895 
L 281.694 117.402105 
" clip-path="url(#pd5d93c61b0)" style="fill: #21918c"/>
    <path d="M 281.694 107.677895 
L 290.932 107.677895 
L 290.932 97.953684 
L 281.694 97.953684 
L 281.694 107.677895 
" clip-path="url(#pd5d93c61b0)" style="fill: #1e9d89"/>
    <path d="M 281.694 97.953684 
L 290.932 97.953684 
L 290.932 88.229474 
L 281.694 88.229474 
L 281.694 97.953684 
" clip-path="url(#pd5d93c61b0)" style="fill: #23a983"/>
    <path d="M 281.694 88.229474 
L 290.932 88.229474 
L 290.932 78.505263 
L 281.694 78.505263 
L 281.694 88.229474 
" clip-path="url(#pd5d93c61b0)" style="fill: #32b67a"/>
    <path d="M 281.694 78.505263 
L 290.932 78.505263 
L 290.932 68.781053 
L 281.694 68.781053 
L 281.694 78.505263 
" clip-path="url(#pd5d93c61b0)" style="fill: #48c16e"/>
    <path d="M 281.694 68.781053 
L 290.932 68.781053 
L 290.932 59.056842 
L 281.694 59.056842 
L 281.694 68.781053 
" clip-path="url(#pd5d93c61b0)" style="fill: #65cb5e"/>
    <path d="M 281.694 59.056842 
L 290.932 59.056842 
L 290.932 49.332632 
L 281.694 49.332632 
L 281.694 59.056842 
" clip-path="url(#pd5d93c61b0)" style="fill: #84d44b"/>
    <path d="M 281.694 49.332632 
L 290.932 49.332632 
L 290.932 39.608421 
L 281.694 39.608421 
L 281.694 49.332632 
" clip-path="url(#pd5d93c61b0)" style="fill: #a8db34"/>
    <path d="M 281.694 39.608421 
L 290.932 39.608421 
L 290.932 29.884211 
L 281.694 29.884211 
L 281.694 39.608421 
" clip-path="url(#pd5d93c61b0)" style="fill: #cae11f"/>
    <path d="M 281.694 29.884211 
L 290.932 29.884211 
L 290.932 20.16 
L 281.694 20.16 
L 281.694 29.884211 
" clip-path="url(#pd5d93c61b0)" style="fill: #efe51c"/>
   </g>
   <g id="matplotlib.axis_3"/>
   <g id="matplotlib.axis_4">
    <g id="ytick_10">
     <g id="line2d_15">
      <defs>
       <path id="me01920f47a" d="M 0 0 
L 3.5 0 
" style="stroke: #000000; stroke-width: 0.8"/>
      </defs>
      <g>
       <use xlink:href="#me01920f47a" x="290.932" y="204.92" style="stroke: #000000; stroke-width: 0.8"/>
      </g>
     </g>
     <g id="text_18">
      <!-- 1.0e-104 -->
      <g transform="translate(297.932 208.719219) scale(0.1 -0.1)">
       <defs>
        <path id="DejaVuSans-65" d="M 3597 1894 
L 3597 1613 
L 953 1613 
Q 991 1019 1311 708 
Q 1631 397 2203 397 
Q 2534 397 2845 478 
Q 3156 559 3463 722 
L 3463 178 
Q 3153 47 2828 -22 
Q 2503 -91 2169 -91 
Q 1331 -91 842 396 
Q 353 884 353 1716 
Q 353 2575 817 3079 
Q 1281 3584 2069 3584 
Q 2775 3584 3186 3129 
Q 3597 2675 3597 1894 
z
M 3022 2063 
Q 3016 2534 2758 2815 
Q 2500 3097 2075 3097 
Q 1594 3097 1305 2825 
Q 1016 2553 972 2059 
L 3022 2063 
z
" transform="scale(0.015625)"/>
        <path id="DejaVuSans-2d" d="M 313 2009 
L 1997 2009 
L 1997 1497 
L 313 1497 
L 313 2009 
z
" transform="scale(0.015625)"/>
        <path id="DejaVuSans-34" d="M 2419 4116 
L 825 1625 
L 2419 1625 
L 2419 4116 
z
M 2253 4666 
L 3047 4666 
L 3047 1625 
L 3713 1625 
L 3713 1100 
L 3047 1100 
L 3047 0 
L 2419 0 
L 2419 1100 
L 313 1100 
L 313 1709 
L 2253 4666 
z
" transform="scale(0.015625)"/>
       </defs>
       <use xlink:href="#DejaVuSans-31"/>
       <use xlink:href="#DejaVuSans-2e" x="63.623047"/>
       <use xlink:href="#DejaVuSans-30" x="95.410156"/>
       <use xlink:href="#DejaVuSans-65" x="159.033203"/>
       <use xlink:href="#DejaVuSans-2d" x="220.556641"/>
       <use xlink:href="#DejaVuSans-31" x="256.640625"/>
       <use xlink:href="#DejaVuSans-30" x="320.263672"/>
       <use xlink:href="#DejaVuSans-34" x="383.886719"/>
      </g>
     </g>
    </g>
    <g id="ytick_11">
     <g id="line2d_16">
      <g>
       <use xlink:href="#me01920f47a" x="290.932" y="185.471579" style="stroke: #000000; stroke-width: 0.8"/>
      </g>
     </g>
     <g id="text_19">
      <!-- 3.7e-07 -->
      <g transform="translate(297.932 189.270798) scale(0.1 -0.1)">
       <defs>
        <path id="DejaVuSans-33" d="M 2597 2516 
Q 3050 2419 3304 2112 
Q 3559 1806 3559 1356 
Q 3559 666 3084 287 
Q 2609 -91 1734 -91 
Q 1441 -91 1130 -33 
Q 819 25 488 141 
L 488 750 
Q 750 597 1062 519 
Q 1375 441 1716 441 
Q 2309 441 2620 675 
Q 2931 909 2931 1356 
Q 2931 1769 2642 2001 
Q 2353 2234 1838 2234 
L 1294 2234 
L 1294 2753 
L 1863 2753 
Q 2328 2753 2575 2939 
Q 2822 3125 2822 3475 
Q 2822 3834 2567 4026 
Q 2313 4219 1838 4219 
Q 1578 4219 1281 4162 
Q 984 4106 628 3988 
L 628 4550 
Q 988 4650 1302 4700 
Q 1616 4750 1894 4750 
Q 2613 4750 3031 4423 
Q 3450 4097 3450 3541 
Q 3450 3153 3228 2886 
Q 3006 2619 2597 2516 
z
" transform="scale(0.015625)"/>
       </defs>
       <use xlink:href="#DejaVuSans-33"/>
       <use xlink:href="#DejaVuSans-2e" x="63.623047"/>
       <use xlink:href="#DejaVuSans-37" x="95.410156"/>
       <use xlink:href="#DejaVuSans-65" x="159.033203"/>
       <use xlink:href="#DejaVuSans-2d" x="220.556641"/>
       <use xlink:href="#DejaVuSans-30" x="256.640625"/>
       <use xlink:href="#DejaVuSans-37" x="320.263672"/>
      </g>
     </g>
    </g>
    <g id="ytick_12">
     <g id="line2d_17">
      <g>
       <use xlink:href="#me01920f47a" x="290.932" y="166.023158" style="stroke: #000000; stroke-width: 0.8"/>
      </g>
     </g>
     <g id="text_20">
      <!-- 7.4e-07 -->
      <g transform="translate(297.932 169.822377) scale(0.1 -0.1)">
       <use xlink:href="#DejaVuSans-37"/>
       <use xlink:href="#DejaVuSans-2e" x="63.623047"/>
       <use xlink:href="#DejaVuSans-34" x="95.410156"/>
       <use xlink:href="#DejaVuSans-65" x="159.033203"/>
       <use xlink:href="#DejaVuSans-2d" x="220.556641"/>
       <use xlink:href="#DejaVuSans-30" x="256.640625"/>
       <use xlink:href="#DejaVuSans-37" x="320.263672"/>
      </g>
     </g>
    </g>
    <g id="ytick_13">
     <g id="line2d_18">
      <g>
       <use xlink:href="#me01920f47a" x="290.932" y="146.574737" style="stroke: #000000; stroke-width: 0.8"/>
      </g>
     </g>
     <g id="text_21">
      <!-- 1.1e-06 -->
      <g transform="translate(297.932 150.373956) scale(0.1 -0.1)">
       <defs>
        <path id="DejaVuSans-36" d="M 2113 2584 
Q 1688 2584 1439 2293 
Q 1191 2003 1191 1497 
Q 1191 994 1439 701 
Q 1688 409 2113 409 
Q 2538 409 2786 701 
Q 3034 994 3034 1497 
Q 3034 2003 2786 2293 
Q 2538 2584 2113 2584 
z
M 3366 4563 
L 3366 3988 
Q 3128 4100 2886 4159 
Q 2644 4219 2406 4219 
Q 1781 4219 1451 3797 
Q 1122 3375 1075 2522 
Q 1259 2794 1537 2939 
Q 1816 3084 2150 3084 
Q 2853 3084 3261 2657 
Q 3669 2231 3669 1497 
Q 3669 778 3244 343 
Q 2819 -91 2113 -91 
Q 1303 -91 875 529 
Q 447 1150 447 2328 
Q 447 3434 972 4092 
Q 1497 4750 2381 4750 
Q 2619 4750 2861 4703 
Q 3103 4656 3366 4563 
z
" transform="scale(0.015625)"/>
       </defs>
       <use xlink:href="#DejaVuSans-31"/>
       <use xlink:href="#DejaVuSans-2e" x="63.623047"/>
       <use xlink:href="#DejaVuSans-31" x="95.410156"/>
       <use xlink:href="#DejaVuSans-65" x="159.033203"/>
       <use xlink:href="#DejaVuSans-2d" x="220.556641"/>
       <use xlink:href="#DejaVuSans-30" x="256.640625"/>
       <use xlink:href="#DejaVuSans-36" x="320.263672"/>
      </g>
     </g>
    </g>
    <g id="ytick_14">
     <g id="line2d_19">
      <g>
       <use xlink:href="#me01920f47a" x="290.932" y="127.126316" style="stroke: #000000; stroke-width: 0.8"/>
      </g>
     </g>
     <g id="text_22">
      <!-- 1.5e-06 -->
      <g transform="translate(297.932 130.925535) scale(0.1 -0.1)">
       <use xlink:href="#DejaVuSans-31"/>
       <use xlink:href="#DejaVuSans-2e" x="63.623047"/>
       <use xlink:href="#DejaVuSans-35" x="95.410156"/>
       <use xlink:href="#DejaVuSans-65" x="159.033203"/>
       <use xlink:href="#DejaVuSans-2d" x="220.556641"/>
       <use xlink:href="#DejaVuSans-30" x="256.640625"/>
       <use xlink:href="#DejaVuSans-36" x="320.263672"/>
      </g>
     </g>
    </g>
    <g id="ytick_15">
     <g id="line2d_20">
      <g>
       <use xlink:href="#me01920f47a" x="290.932" y="107.677895" style="stroke: #000000; stroke-width: 0.8"/>
      </g>
     </g>
     <g id="text_23">
      <!-- 1.8e-06 -->
      <g transform="translate(297.932 111.477113) scale(0.1 -0.1)">
       <defs>
        <path id="DejaVuSans-38" d="M 2034 2216 
Q 1584 2216 1326 1975 
Q 1069 1734 1069 1313 
Q 1069 891 1326 650 
Q 1584 409 2034 409 
Q 2484 409 2743 651 
Q 3003 894 3003 1313 
Q 3003 1734 2745 1975 
Q 2488 2216 2034 2216 
z
M 1403 2484 
Q 997 2584 770 2862 
Q 544 3141 544 3541 
Q 544 4100 942 4425 
Q 1341 4750 2034 4750 
Q 2731 4750 3128 4425 
Q 3525 4100 3525 3541 
Q 3525 3141 3298 2862 
Q 3072 2584 2669 2484 
Q 3125 2378 3379 2068 
Q 3634 1759 3634 1313 
Q 3634 634 3220 271 
Q 2806 -91 2034 -91 
Q 1263 -91 848 271 
Q 434 634 434 1313 
Q 434 1759 690 2068 
Q 947 2378 1403 2484 
z
M 1172 3481 
Q 1172 3119 1398 2916 
Q 1625 2713 2034 2713 
Q 2441 2713 2670 2916 
Q 2900 3119 2900 3481 
Q 2900 3844 2670 4047 
Q 2441 4250 2034 4250 
Q 1625 4250 1398 4047 
Q 1172 3844 1172 3481 
z
" transform="scale(0.015625)"/>
       </defs>
       <use xlink:href="#DejaVuSans-31"/>
       <use xlink:href="#DejaVuSans-2e" x="63.623047"/>
       <use xlink:href="#DejaVuSans-38" x="95.410156"/>
       <use xlink:href="#DejaVuSans-65" x="159.033203"/>
       <use xlink:href="#DejaVuSans-2d" x="220.556641"/>
       <use xlink:href="#DejaVuSans-30" x="256.640625"/>
       <use xlink:href="#DejaVuSans-36" x="320.263672"/>
      </g>
     </g>
    </g>
    <g id="ytick_16">
     <g id="line2d_21">
      <g>
       <use xlink:href="#me01920f47a" x="290.932" y="88.229474" style="stroke: #000000; stroke-width: 0.8"/>
      </g>
     </g>
     <g id="text_24">
      <!-- 2.2e-06 -->
      <g transform="translate(297.932 92.028692) scale(0.1 -0.1)">
       <use xlink:href="#DejaVuSans-32"/>
       <use xlink:href="#DejaVuSans-2e" x="63.623047"/>
       <use xlink:href="#DejaVuSans-32" x="95.410156"/>
       <use xlink:href="#DejaVuSans-65" x="159.033203"/>
       <use xlink:href="#DejaVuSans-2d" x="220.556641"/>
       <use xlink:href="#DejaVuSans-30" x="256.640625"/>
       <use xlink:href="#DejaVuSans-36" x="320.263672"/>
      </g>
     </g>
    </g>
    <g id="ytick_17">
     <g id="line2d_22">
      <g>
       <use xlink:href="#me01920f47a" x="290.932" y="68.781053" style="stroke: #000000; stroke-width: 0.8"/>
      </g>
     </g>
     <g id="text_25">
      <!-- 2.6e-06 -->
      <g transform="translate(297.932 72.580271) scale(0.1 -0.1)">
       <use xlink:href="#DejaVuSans-32"/>
       <use xlink:href="#DejaVuSans-2e" x="63.623047"/>
       <use xlink:href="#DejaVuSans-36" x="95.410156"/>
       <use xlink:href="#DejaVuSans-65" x="159.033203"/>
       <use xlink:href="#DejaVuSans-2d" x="220.556641"/>
       <use xlink:href="#DejaVuSans-30" x="256.640625"/>
       <use xlink:href="#DejaVuSans-36" x="320.263672"/>
      </g>
     </g>
    </g>
    <g id="ytick_18">
     <g id="line2d_23">
      <g>
       <use xlink:href="#me01920f47a" x="290.932" y="49.332632" style="stroke: #000000; stroke-width: 0.8"/>
      </g>
     </g>
     <g id="text_26">
      <!-- 2.9e-06 -->
      <g transform="translate(297.932 53.13185) scale(0.1 -0.1)">
       <defs>
        <path id="DejaVuSans-39" d="M 703 97 
L 703 672 
Q 941 559 1184 500 
Q 1428 441 1663 441 
Q 2288 441 2617 861 
Q 2947 1281 2994 2138 
Q 2813 1869 2534 1725 
Q 2256 1581 1919 1581 
Q 1219 1581 811 2004 
Q 403 2428 403 3163 
Q 403 3881 828 4315 
Q 1253 4750 1959 4750 
Q 2769 4750 3195 4129 
Q 3622 3509 3622 2328 
Q 3622 1225 3098 567 
Q 2575 -91 1691 -91 
Q 1453 -91 1209 -44 
Q 966 3 703 97 
z
M 1959 2075 
Q 2384 2075 2632 2365 
Q 2881 2656 2881 3163 
Q 2881 3666 2632 3958 
Q 2384 4250 1959 4250 
Q 1534 4250 1286 3958 
Q 1038 3666 1038 3163 
Q 1038 2656 1286 2365 
Q 1534 2075 1959 2075 
z
" transform="scale(0.015625)"/>
       </defs>
       <use xlink:href="#DejaVuSans-32"/>
       <use xlink:href="#DejaVuSans-2e" x="63.623047"/>
       <use xlink:href="#DejaVuSans-39" x="95.410156"/>
       <use xlink:href="#DejaVuSans-65" x="159.033203"/>
       <use xlink:href="#DejaVuSans-2d" x="220.556641"/>
       <use xlink:href="#DejaVuSans-30" x="256.640625"/>
       <use xlink:href="#DejaVuSans-36" x="320.263672"/>
      </g>
     </g>
    </g>
    <g id="ytick_19">
     <g id="line2d_24">
      <g>
       <use xlink:href="#me01920f47a" x="290.932" y="29.884211" style="stroke: #000000; stroke-width: 0.8"/>
      </g>
     </g>
     <g id="text_27">
      <!-- 3.3e-06 -->
      <g transform="translate(297.932 33.683429) scale(0.1 -0.1)">
       <use xlink:href="#DejaVuSans-33"/>
       <use xlink:href="#DejaVuSans-2e" x="63.623047"/>
       <use xlink:href="#DejaVuSans-33" x="95.410156"/>
       <use xlink:href="#DejaVuSans-65" x="159.033203"/>
       <use xlink:href="#DejaVuSans-2d" x="220.556641"/>
       <use xlink:href="#DejaVuSans-30" x="256.640625"/>
       <use xlink:href="#DejaVuSans-36" x="320.263672"/>
      </g>
     </g>
    </g>
   </g>
   <g id="LineCollection_1"/>
   <g id="patch_9">
    <path d="M 281.694 204.92 
L 286.313 204.92 
L 290.932 204.92 
L 290.932 20.16 
L 286.313 20.16 
L 281.694 20.16 
L 281.694 204.92 
z
" style="fill: none; stroke: #000000; stroke-width: 0.8; stroke-linejoin: miter; stroke-linecap: square"/>
   </g>
  </g>
  <g id="text_28">
   <!-- Expected improvement for Comparison with Periodic -->
   <g transform="translate(-4.755156 15.677812) scale(0.14 -0.14)">
    <defs>
     <path id="DejaVuSans-45" d="M 628 4666 
L 3578 4666 
L 3578 4134 
L 1259 4134 
L 1259 2753 
L 3481 2753 
L 3481 2222 
L 1259 2222 
L 1259 531 
L 3634 531 
L 3634 0 
L 628 0 
L 628 4666 
z
" transform="scale(0.015625)"/>
     <path id="DejaVuSans-70" d="M 1159 525 
L 1159 -1331 
L 581 -1331 
L 581 3500 
L 1159 3500 
L 1159 2969 
Q 1341 3281 1617 3432 
Q 1894 3584 2278 3584 
Q 2916 3584 3314 3078 
Q 3713 2572 3713 1747 
Q 3713 922 3314 415 
Q 2916 -91 2278 -91 
Q 1894 -91 1617 61 
Q 1341 213 1159 525 
z
M 3116 1747 
Q 3116 2381 2855 2742 
Q 2594 3103 2138 3103 
Q 1681 3103 1420 2742 
Q 1159 2381 1159 1747 
Q 1159 1113 1420 752 
Q 1681 391 2138 391 
Q 2594 391 2855 752 
Q 3116 1113 3116 1747 
z
" transform="scale(0.015625)"/>
     <path id="DejaVuSans-63" d="M 3122 3366 
L 3122 2828 
Q 2878 2963 2633 3030 
Q 2388 3097 2138 3097 
Q 1578 3097 1268 2742 
Q 959 2388 959 1747 
Q 959 1106 1268 751 
Q 1578 397 2138 397 
Q 2388 397 2633 464 
Q 2878 531 3122 666 
L 3122 134 
Q 2881 22 2623 -34 
Q 2366 -91 2075 -91 
Q 1284 -91 818 406 
Q 353 903 353 1747 
Q 353 2603 823 3093 
Q 1294 3584 2113 3584 
Q 2378 3584 2631 3529 
Q 2884 3475 3122 3366 
z
" transform="scale(0.015625)"/>
     <path id="DejaVuSans-74" d="M 1172 4494 
L 1172 3500 
L 2356 3500 
L 2356 3053 
L 1172 3053 
L 1172 1153 
Q 1172 725 1289 603 
Q 1406 481 1766 481 
L 2356 481 
L 2356 0 
L 1766 0 
Q 1100 0 847 248 
Q 594 497 594 1153 
L 594 3053 
L 172 3053 
L 172 3500 
L 594 3500 
L 594 4494 
L 1172 4494 
z
" transform="scale(0.015625)"/>
     <path id="DejaVuSans-64" d="M 2906 2969 
L 2906 4863 
L 3481 4863 
L 3481 0 
L 2906 0 
L 2906 525 
Q 2725 213 2448 61 
Q 2172 -91 1784 -91 
Q 1150 -91 751 415 
Q 353 922 353 1747 
Q 353 2572 751 3078 
Q 1150 3584 1784 3584 
Q 2172 3584 2448 3432 
Q 2725 3281 2906 2969 
z
M 947 1747 
Q 947 1113 1208 752 
Q 1469 391 1925 391 
Q 2381 391 2643 752 
Q 2906 1113 2906 1747 
Q 2906 2381 2643 2742 
Q 2381 3103 1925 3103 
Q 1469 3103 1208 2742 
Q 947 2381 947 1747 
z
" transform="scale(0.015625)"/>
     <path id="DejaVuSans-20" transform="scale(0.015625)"/>
     <path id="DejaVuSans-69" d="M 603 3500 
L 1178 3500 
L 1178 0 
L 603 0 
L 603 3500 
z
M 603 4863 
L 1178 4863 
L 1178 4134 
L 603 4134 
L 603 4863 
z
" transform="scale(0.015625)"/>
     <path id="DejaVuSans-6d" d="M 3328 2828 
Q 3544 3216 3844 3400 
Q 4144 3584 4550 3584 
Q 5097 3584 5394 3201 
Q 5691 2819 5691 2113 
L 5691 0 
L 5113 0 
L 5113 2094 
Q 5113 2597 4934 2840 
Q 4756 3084 4391 3084 
Q 3944 3084 3684 2787 
Q 3425 2491 3425 1978 
L 3425 0 
L 2847 0 
L 2847 2094 
Q 2847 2600 2669 2842 
Q 2491 3084 2119 3084 
Q 1678 3084 1418 2786 
Q 1159 2488 1159 1978 
L 1159 0 
L 581 0 
L 581 3500 
L 1159 3500 
L 1159 2956 
Q 1356 3278 1631 3431 
Q 1906 3584 2284 3584 
Q 2666 3584 2933 3390 
Q 3200 3197 3328 2828 
z
" transform="scale(0.015625)"/>
     <path id="DejaVuSans-72" d="M 2631 2963 
Q 2534 3019 2420 3045 
Q 2306 3072 2169 3072 
Q 1681 3072 1420 2755 
Q 1159 2438 1159 1844 
L 1159 0 
L 581 0 
L 581 3500 
L 1159 3500 
L 1159 2956 
Q 1341 3275 1631 3429 
Q 1922 3584 2338 3584 
Q 2397 3584 2469 3576 
Q 2541 3569 2628 3553 
L 2631 2963 
z
" transform="scale(0.015625)"/>
     <path id="DejaVuSans-6f" d="M 1959 3097 
Q 1497 3097 1228 2736 
Q 959 2375 959 1747 
Q 959 1119 1226 758 
Q 1494 397 1959 397 
Q 2419 397 2687 759 
Q 2956 1122 2956 1747 
Q 2956 2369 2687 2733 
Q 2419 3097 1959 3097 
z
M 1959 3584 
Q 2709 3584 3137 3096 
Q 3566 2609 3566 1747 
Q 3566 888 3137 398 
Q 2709 -91 1959 -91 
Q 1206 -91 779 398 
Q 353 888 353 1747 
Q 353 2609 779 3096 
Q 1206 3584 1959 3584 
z
" transform="scale(0.015625)"/>
     <path id="DejaVuSans-76" d="M 191 3500 
L 800 3500 
L 1894 563 
L 2988 3500 
L 3597 3500 
L 2284 0 
L 1503 0 
L 191 3500 
z
" transform="scale(0.015625)"/>
     <path id="DejaVuSans-6e" d="M 3513 2113 
L 3513 0 
L 2938 0 
L 2938 2094 
Q 2938 2591 2744 2837 
Q 2550 3084 2163 3084 
Q 1697 3084 1428 2787 
Q 1159 2491 1159 1978 
L 1159 0 
L 581 0 
L 581 3500 
L 1159 3500 
L 1159 2956 
Q 1366 3272 1645 3428 
Q 1925 3584 2291 3584 
Q 2894 3584 3203 3211 
Q 3513 2838 3513 2113 
z
" transform="scale(0.015625)"/>
     <path id="DejaVuSans-66" d="M 2375 4863 
L 2375 4384 
L 1825 4384 
Q 1516 4384 1395 4259 
Q 1275 4134 1275 3809 
L 1275 3500 
L 2222 3500 
L 2222 3053 
L 1275 3053 
L 1275 0 
L 697 0 
L 697 3053 
L 147 3053 
L 147 3500 
L 697 3500 
L 697 3744 
Q 697 4328 969 4595 
Q 1241 4863 1831 4863 
L 2375 4863 
z
" transform="scale(0.015625)"/>
     <path id="DejaVuSans-43" d="M 4122 4306 
L 4122 3641 
Q 3803 3938 3442 4084 
Q 3081 4231 2675 4231 
Q 1875 4231 1450 3742 
Q 1025 3253 1025 2328 
Q 1025 1406 1450 917 
Q 1875 428 2675 428 
Q 3081 428 3442 575 
Q 3803 722 4122 1019 
L 4122 359 
Q 3791 134 3420 21 
Q 3050 -91 2638 -91 
Q 1578 -91 968 557 
Q 359 1206 359 2328 
Q 359 3453 968 4101 
Q 1578 4750 2638 4750 
Q 3056 4750 3426 4639 
Q 3797 4528 4122 4306 
z
" transform="scale(0.015625)"/>
     <path id="DejaVuSans-73" d="M 2834 3397 
L 2834 2853 
Q 2591 2978 2328 3040 
Q 2066 3103 1784 3103 
Q 1356 3103 1142 2972 
Q 928 2841 928 2578 
Q 928 2378 1081 2264 
Q 1234 2150 1697 2047 
L 1894 2003 
Q 2506 1872 2764 1633 
Q 3022 1394 3022 966 
Q 3022 478 2636 193 
Q 2250 -91 1575 -91 
Q 1294 -91 989 -36 
Q 684 19 347 128 
L 347 722 
Q 666 556 975 473 
Q 1284 391 1588 391 
Q 1994 391 2212 530 
Q 2431 669 2431 922 
Q 2431 1156 2273 1281 
Q 2116 1406 1581 1522 
L 1381 1569 
Q 847 1681 609 1914 
Q 372 2147 372 2553 
Q 372 3047 722 3315 
Q 1072 3584 1716 3584 
Q 2034 3584 2315 3537 
Q 2597 3491 2834 3397 
z
" transform="scale(0.015625)"/>
     <path id="DejaVuSans-77" d="M 269 3500 
L 844 3500 
L 1563 769 
L 2278 3500 
L 2956 3500 
L 3675 769 
L 4391 3500 
L 4966 3500 
L 4050 0 
L 3372 0 
L 2619 2869 
L 1863 0 
L 1184 0 
L 269 3500 
z
" transform="scale(0.015625)"/>
     <path id="DejaVuSans-68" d="M 3513 2113 
L 3513 0 
L 2938 0 
L 2938 2094 
Q 2938 2591 2744 2837 
Q 2550 3084 2163 3084 
Q 1697 3084 1428 2787 
Q 1159 2491 1159 1978 
L 1159 0 
L 581 0 
L 581 4863 
L 1159 4863 
L 1159 2956 
Q 1366 3272 1645 3428 
Q 1925 3584 2291 3584 
Q 2894 3584 3203 3211 
Q 3513 2838 3513 2113 
z
" transform="scale(0.015625)"/>
     <path id="DejaVuSans-50" d="M 1259 4147 
L 1259 2394 
L 2053 2394 
Q 2494 2394 2734 2622 
Q 2975 2850 2975 3272 
Q 2975 3691 2734 3919 
Q 2494 4147 2053 4147 
L 1259 4147 
z
M 628 4666 
L 2053 4666 
Q 2838 4666 3239 4311 
Q 3641 3956 3641 3272 
Q 3641 2581 3239 2228 
Q 2838 1875 2053 1875 
L 1259 1875 
L 1259 0 
L 628 0 
L 628 4666 
z
" transform="scale(0.015625)"/>
    </defs>
    <use xlink:href="#DejaVuSans-45"/>
    <use xlink:href="#DejaVuSans-78" x="63.183594"/>
    <use xlink:href="#DejaVuSans-70" x="122.363281"/>
    <use xlink:href="#DejaVuSans-65" x="185.839844"/>
    <use xlink:href="#DejaVuSans-63" x="247.363281"/>
    <use xlink:href="#DejaVuSans-74" x="302.34375"/>
    <use xlink:href="#DejaVuSans-65" x="341.552734"/>
    <use xlink:href="#DejaVuSans-64" x="403.076172"/>
    <use xlink:href="#DejaVuSans-20" x="466.552734"/>
    <use xlink:href="#DejaVuSans-69" x="498.339844"/>
    <use xlink:href="#DejaVuSans-6d" x="526.123047"/>
    <use xlink:href="#DejaVuSans-70" x="623.535156"/>
    <use xlink:href="#DejaVuSans-72" x="687.011719"/>
    <use xlink:href="#DejaVuSans-6f" x="725.875"/>
    <use xlink:href="#DejaVuSans-76" x="787.056641"/>
    <use xlink:href="#DejaVuSans-65" x="846.236328"/>
    <use xlink:href="#DejaVuSans-6d" x="907.759766"/>
    <use xlink:href="#DejaVuSans-65" x="1005.171875"/>
    <use xlink:href="#DejaVuSans-6e" x="1066.695312"/>
    <use xlink:href="#DejaVuSans-74" x="1130.074219"/>
    <use xlink:href="#DejaVuSans-20" x="1169.283203"/>
    <use xlink:href="#DejaVuSans-66" x="1201.070312"/>
    <use xlink:href="#DejaVuSans-6f" x="1236.275391"/>
    <use xlink:href="#DejaVuSans-72" x="1297.457031"/>
    <use xlink:href="#DejaVuSans-20" x="1338.570312"/>
    <use xlink:href="#DejaVuSans-43" x="1370.357422"/>
    <use xlink:href="#DejaVuSans-6f" x="1440.181641"/>
    <use xlink:href="#DejaVuSans-6d" x="1501.363281"/>
    <use xlink:href="#DejaVuSans-70" x="1598.775391"/>
    <use xlink:href="#DejaVuSans-61" x="1662.251953"/>
    <use xlink:href="#DejaVuSans-72" x="1723.53125"/>
    <use xlink:href="#DejaVuSans-69" x="1764.644531"/>
    <use xlink:href="#DejaVuSans-73" x="1792.427734"/>
    <use xlink:href="#DejaVuSans-6f" x="1844.527344"/>
    <use xlink:href="#DejaVuSans-6e" x="1905.708984"/>
    <use xlink:href="#DejaVuSans-20" x="1969.087891"/>
    <use xlink:href="#DejaVuSans-77" x="2000.875"/>
    <use xlink:href="#DejaVuSans-69" x="2082.662109"/>
    <use xlink:href="#DejaVuSans-74" x="2110.445312"/>
    <use xlink:href="#DejaVuSans-68" x="2149.654297"/>
    <use xlink:href="#DejaVuSans-20" x="2213.033203"/>
    <use xlink:href="#DejaVuSans-50" x="2244.820312"/>
    <use xlink:href="#DejaVuSans-65" x="2301.498047"/>
    <use xlink:href="#DejaVuSans-72" x="2363.021484"/>
    <use xlink:href="#DejaVuSans-69" x="2404.134766"/>
    <use xlink:href="#DejaVuSans-6f" x="2431.917969"/>
    <use xlink:href="#DejaVuSans-64" x="2493.099609"/>
    <use xlink:href="#DejaVuSans-69" x="2556.576172"/>
    <use xlink:href="#DejaVuSans-63" x="2584.359375"/>
   </g>
  </g>
 </g>
 <defs>
  <clipPath id="pb432a78798">
   <rect x="52.84" y="20.16" width="215.392" height="184.76"/>
  </clipPath>
  <clipPath id="pd5d93c61b0">
   <rect x="281.694" y="20.16" width="9.238" height="184.76"/>
  </clipPath>
 </defs>
</svg>
