<?xml version="1.0" encoding="utf-8" standalone="no"?>
<!DOCTYPE svg PUBLIC "-//W3C//DTD SVG 1.1//EN"
  "http://www.w3.org/Graphics/SVG/1.1/DTD/svg11.dtd">
<svg xmlns:xlink="http://www.w3.org/1999/xlink" width="646.236375pt" height="299.142925pt" viewBox="0 0 646.236375 299.142925" xmlns="http://www.w3.org/2000/svg" version="1.1">
 <metadata>
  <rdf:RDF xmlns:dc="http://purl.org/dc/elements/1.1/" xmlns:cc="http://creativecommons.org/ns#" xmlns:rdf="http://www.w3.org/1999/02/22-rdf-syntax-ns#">
   <cc:Work>
    <dc:type rdf:resource="http://purl.org/dc/dcmitype/StillImage"/>
    <dc:date>2024-03-19T21:10:07.526880</dc:date>
    <dc:format>image/svg+xml</dc:format>
    <dc:creator>
     <cc:Agent>
      <dc:title>Matplotlib v3.8.3, https://matplotlib.org/</dc:title>
     </cc:Agent>
    </dc:creator>
   </cc:Work>
  </rdf:RDF>
 </metadata>
 <defs>
  <style type="text/css">*{stroke-linejoin: round; stroke-linecap: butt}</style>
 </defs>
 <g id="figure_1">
  <g id="patch_1">
   <path d="M 0 299.142925 
L 646.236375 299.142925 
L 646.236375 0 
L 0 0 
z
" style="fill: #ffffff"/>
  </g>
  <g id="axes_1">
   <g id="patch_2">
    <path d="M 58.523438 242.36 
L 257.115438 242.36 
L 257.115438 35.4 
L 58.523438 35.4 
z
" style="fill: #ffffff"/>
   </g>
   <g id="QuadContourSet_1">
    <path clip-path="url(#pb0a777f75b)" style="fill: #460a5d"/>
    <path clip-path="url(#pb0a777f75b)" style="fill: #481d6f"/>
    <path clip-path="url(#pb0a777f75b)" style="fill: #472e7c"/>
    <path clip-path="url(#pb0a777f75b)" style="fill: #423f85"/>
    <path clip-path="url(#pb0a777f75b)" style="fill: #3d4e8a"/>
    <path clip-path="url(#pb0a777f75b)" style="fill: #365d8d"/>
    <path clip-path="url(#pb0a777f75b)" style="fill: #306a8e"/>
    <path clip-path="url(#pb0a777f75b)" style="fill: #2a778e"/>
    <path clip-path="url(#pb0a777f75b)" style="fill: #25838e"/>
    <path d="M 62.576335 242.36 
L 66.629233 242.36 
L 70.682131 242.36 
L 74.735029 242.36 
L 78.787927 242.36 
L 82.840825 242.36 
L 86.893723 242.36 
L 90.946621 242.36 
L 94.999519 242.36 
L 99.052417 242.36 
L 103.105315 242.36 
L 107.158213 242.36 
L 111.211111 242.36 
L 115.264009 242.36 
L 119.316907 242.36 
L 123.369805 242.36 
L 127.422703 242.36 
L 131.475601 242.36 
L 135.528499 242.36 
L 139.581397 242.36 
L 143.634295 242.36 
L 147.687193 242.36 
L 151.740091 242.36 
L 155.792989 242.36 
L 159.845886 242.36 
L 163.898784 242.36 
L 167.951682 242.36 
L 172.00458 242.36 
L 176.057478 242.36 
L 180.110376 242.36 
L 184.163274 242.36 
L 188.216172 242.36 
L 192.26907 242.36 
L 196.321968 242.36 
L 200.374866 242.36 
L 204.427764 242.36 
L 208.480662 242.36 
L 212.53356 242.36 
L 216.586458 242.36 
L 220.639356 242.36 
L 224.692254 242.36 
L 228.745152 242.36 
L 232.79805 242.36 
L 236.850948 242.36 
L 240.903846 242.36 
L 244.956744 242.36 
L 249.009642 242.36 
L 253.06254 242.36 
L 257.115438 242.36 
L 257.115438 238.136327 
L 257.115438 233.912653 
L 257.115438 229.68898 
L 257.115438 225.465306 
L 257.115438 221.241633 
L 257.115438 217.017959 
L 257.115438 212.794286 
L 257.115438 208.570612 
L 257.115438 204.346939 
L 257.115438 200.123265 
L 257.115438 195.899592 
L 257.115438 191.675918 
L 257.115438 187.452245 
L 257.115438 183.228571 
L 257.115438 179.004898 
L 257.115438 174.781224 
L 257.115438 170.557551 
L 257.115438 166.333878 
L 257.115438 162.110204 
L 257.115438 157.886531 
L 257.115438 153.662857 
L 257.115438 149.439184 
L 257.115438 145.21551 
L 257.115438 140.991837 
L 257.115438 136.768163 
L 257.115438 132.54449 
L 257.115438 128.320816 
L 257.115438 124.097143 
L 257.115438 119.873469 
L 257.115438 115.649796 
L 257.115438 111.426122 
L 257.115438 107.202449 
L 257.115438 102.978776 
L 257.115438 98.755102 
L 257.115438 94.531429 
L 257.115438 90.307755 
L 257.115438 86.084082 
L 257.115438 81.860408 
L 257.115438 77.636735 
L 257.115438 73.413061 
L 257.115438 69.189388 
L 257.115438 64.965714 
L 257.115438 60.742041 
L 257.115438 56.518367 
L 257.115438 52.294694 
L 257.115438 48.07102 
L 257.115438 43.847347 
L 257.115438 39.623673 
L 257.115438 35.4 
L 253.06254 35.4 
L 249.009642 35.4 
L 244.956744 35.4 
L 240.903846 35.4 
L 236.850948 35.4 
L 232.79805 35.4 
L 228.745152 35.4 
L 224.692254 35.4 
L 220.639356 35.4 
L 216.586458 35.4 
L 212.53356 35.4 
L 208.480662 35.4 
L 204.427764 35.4 
L 200.374866 35.4 
L 196.321968 35.4 
L 192.26907 35.4 
L 188.216172 35.4 
L 184.163274 35.4 
L 180.110376 35.4 
L 176.057478 35.4 
L 172.00458 35.4 
L 167.951682 35.4 
L 163.898784 35.4 
L 159.845886 35.4 
L 155.792989 35.4 
L 151.740091 35.4 
L 147.687193 35.4 
L 143.634295 35.4 
L 139.581397 35.4 
L 135.528499 35.4 
L 131.475601 35.4 
L 127.422703 35.4 
L 123.369805 35.4 
L 119.316907 35.4 
L 115.264009 35.4 
L 111.211111 35.4 
L 107.158213 35.4 
L 103.105315 35.4 
L 99.052417 35.4 
L 94.999519 35.4 
L 90.946621 35.4 
L 86.893723 35.4 
L 82.840825 35.4 
L 78.787927 35.4 
L 74.735029 35.4 
L 70.682131 35.4 
L 66.629233 35.4 
L 62.576335 35.4 
L 58.523438 35.4 
L 58.523438 39.623673 
L 58.523438 43.847347 
L 58.523438 48.07102 
L 58.523438 52.294694 
L 58.523438 56.518367 
L 58.523438 60.742041 
L 58.523438 64.965714 
L 58.523438 69.189388 
L 58.523438 73.413061 
L 58.523438 77.636735 
L 58.523438 81.860408 
L 58.523438 86.084082 
L 58.523438 90.307755 
L 58.523438 94.531429 
L 58.523438 98.755102 
L 58.523438 102.978776 
L 58.523438 107.202449 
L 58.523438 111.426122 
L 58.523438 115.649796 
L 58.523438 119.873469 
L 58.523438 124.097143 
L 58.523438 128.320816 
L 58.523438 132.54449 
L 58.523438 136.768163 
L 58.523438 140.991837 
L 58.523438 145.21551 
L 58.523438 149.439184 
L 58.523438 153.662857 
L 58.523438 157.886531 
L 58.523438 162.110204 
L 58.523438 166.333878 
L 58.523438 170.557551 
L 58.523438 174.781224 
L 58.523438 179.004898 
L 58.523438 183.228571 
L 58.523438 187.452245 
L 58.523438 191.675918 
L 58.523438 195.899592 
L 58.523438 200.123265 
L 58.523438 204.346939 
L 58.523438 208.570612 
L 58.523438 212.794286 
L 58.523438 217.017959 
L 58.523438 221.241633 
L 58.523438 225.465306 
L 58.523438 229.68898 
L 58.523438 233.912653 
L 58.523438 238.136327 
L 58.523438 242.36 
z
" clip-path="url(#pb0a777f75b)" style="fill: #21918c"/>
    <path clip-path="url(#pb0a777f75b)" style="fill: #1e9d89"/>
    <path clip-path="url(#pb0a777f75b)" style="fill: #23a983"/>
    <path clip-path="url(#pb0a777f75b)" style="fill: #32b67a"/>
    <path clip-path="url(#pb0a777f75b)" style="fill: #48c16e"/>
    <path clip-path="url(#pb0a777f75b)" style="fill: #65cb5e"/>
    <path clip-path="url(#pb0a777f75b)" style="fill: #84d44b"/>
    <path clip-path="url(#pb0a777f75b)" style="fill: #a8db34"/>
    <path clip-path="url(#pb0a777f75b)" style="fill: #cae11f"/>
    <path clip-path="url(#pb0a777f75b)" style="fill: #efe51c"/>
   </g>
   <g id="PathCollection_1">
    <defs>
     <path id="C0_0_1c851a9f50" d="M 0 3 
C 0.795609 3 1.55874 2.683901 2.12132 2.12132 
C 2.683901 1.55874 3 0.795609 3 -0 
C 3 -0.795609 2.683901 -1.55874 2.12132 -2.12132 
C 1.55874 -2.683901 0.795609 -3 0 -3 
C -0.795609 -3 -1.55874 -2.683901 -2.12132 -2.12132 
C -2.683901 -1.55874 -3 -0.795609 -3 0 
C -3 0.795609 -2.683901 1.55874 -2.12132 2.12132 
C -1.55874 2.683901 -0.795609 3 0 3 
z
"/>
    </defs>
    <g clip-path="url(#pb0a777f75b)">
     <use xlink:href="#C0_0_1c851a9f50" x="167.749038" y="133.706" style="fill: #1f958b; stroke: #bf00bf"/>
    </g>
    <g clip-path="url(#pb0a777f75b)">
     <use xlink:href="#C0_0_1c851a9f50" x="68.453037" y="107.836" style="fill: #2e6e8e; stroke: #bf00bf"/>
    </g>
    <g clip-path="url(#pb0a777f75b)">
     <use xlink:href="#C0_0_1c851a9f50" x="177.678638" y="97.488" style="fill: #1f968b; stroke: #bf00bf"/>
    </g>
    <g clip-path="url(#pb0a777f75b)">
     <use xlink:href="#C0_0_1c851a9f50" x="237.256238" y="169.924" style="fill: #6ece58; stroke: #bf00bf"/>
    </g>
    <g clip-path="url(#pb0a777f75b)">
     <use xlink:href="#C0_0_1c851a9f50" x="98.241838" y="107.836" style="fill: #463480; stroke: #bf00bf"/>
    </g>
    <g clip-path="url(#pb0a777f75b)">
     <use xlink:href="#C0_0_1c851a9f50" x="187.608238" y="159.576" style="fill: #443b84; stroke: #bf00bf"/>
    </g>
    <g clip-path="url(#pb0a777f75b)">
     <use xlink:href="#C0_0_1c851a9f50" x="207.467438" y="225.8032" style="fill: #fde725; stroke: #bf00bf"/>
    </g>
    <g clip-path="url(#pb0a777f75b)">
     <use xlink:href="#C0_0_1c851a9f50" x="108.171438" y="50.922" style="fill: #440154; stroke: #bf00bf"/>
    </g>
    <g clip-path="url(#pb0a777f75b)">
     <use xlink:href="#C0_0_1c851a9f50" x="156.826478" y="217.5248" style="fill: #228c8d; stroke: #bf00bf"/>
    </g>
    <g clip-path="url(#pb0a777f75b)">
     <use xlink:href="#C0_0_1c851a9f50" x="68.453037" y="232.012" style="fill: #efe51c; stroke: #bf00bf"/>
    </g>
   </g>
   <g id="matplotlib.axis_1">
    <g id="xtick_1">
     <g id="line2d_1">
      <defs>
       <path id="m0519fa0f53" d="M 0 0 
L 0 3.5 
" style="stroke: #000000; stroke-width: 0.8"/>
      </defs>
      <g>
       <use xlink:href="#m0519fa0f53" x="58.523438" y="242.36" style="stroke: #000000; stroke-width: 0.8"/>
      </g>
     </g>
     <g id="text_1">
      <!-- −1.0 -->
      <g transform="translate(46.382031 256.958438) scale(0.1 -0.1)">
       <defs>
        <path id="DejaVuSans-2212" d="M 678 2272 
L 4684 2272 
L 4684 1741 
L 678 1741 
L 678 2272 
z
" transform="scale(0.015625)"/>
        <path id="DejaVuSans-31" d="M 794 531 
L 1825 531 
L 1825 4091 
L 703 3866 
L 703 4441 
L 1819 4666 
L 2450 4666 
L 2450 531 
L 3481 531 
L 3481 0 
L 794 0 
L 794 531 
z
" transform="scale(0.015625)"/>
        <path id="DejaVuSans-2e" d="M 684 794 
L 1344 794 
L 1344 0 
L 684 0 
L 684 794 
z
" transform="scale(0.015625)"/>
        <path id="DejaVuSans-30" d="M 2034 4250 
Q 1547 4250 1301 3770 
Q 1056 3291 1056 2328 
Q 1056 1369 1301 889 
Q 1547 409 2034 409 
Q 2525 409 2770 889 
Q 3016 1369 3016 2328 
Q 3016 3291 2770 3770 
Q 2525 4250 2034 4250 
z
M 2034 4750 
Q 2819 4750 3233 4129 
Q 3647 3509 3647 2328 
Q 3647 1150 3233 529 
Q 2819 -91 2034 -91 
Q 1250 -91 836 529 
Q 422 1150 422 2328 
Q 422 3509 836 4129 
Q 1250 4750 2034 4750 
z
" transform="scale(0.015625)"/>
       </defs>
       <use xlink:href="#DejaVuSans-2212"/>
       <use xlink:href="#DejaVuSans-31" x="83.789062"/>
       <use xlink:href="#DejaVuSans-2e" x="147.412109"/>
       <use xlink:href="#DejaVuSans-30" x="179.199219"/>
      </g>
     </g>
    </g>
    <g id="xtick_2">
     <g id="line2d_2">
      <g>
       <use xlink:href="#m0519fa0f53" x="108.171438" y="242.36" style="stroke: #000000; stroke-width: 0.8"/>
      </g>
     </g>
     <g id="text_2">
      <!-- −0.5 -->
      <g transform="translate(96.030031 256.958438) scale(0.1 -0.1)">
       <defs>
        <path id="DejaVuSans-35" d="M 691 4666 
L 3169 4666 
L 3169 4134 
L 1269 4134 
L 1269 2991 
Q 1406 3038 1543 3061 
Q 1681 3084 1819 3084 
Q 2600 3084 3056 2656 
Q 3513 2228 3513 1497 
Q 3513 744 3044 326 
Q 2575 -91 1722 -91 
Q 1428 -91 1123 -41 
Q 819 9 494 109 
L 494 744 
Q 775 591 1075 516 
Q 1375 441 1709 441 
Q 2250 441 2565 725 
Q 2881 1009 2881 1497 
Q 2881 1984 2565 2268 
Q 2250 2553 1709 2553 
Q 1456 2553 1204 2497 
Q 953 2441 691 2322 
L 691 4666 
z
" transform="scale(0.015625)"/>
       </defs>
       <use xlink:href="#DejaVuSans-2212"/>
       <use xlink:href="#DejaVuSans-30" x="83.789062"/>
       <use xlink:href="#DejaVuSans-2e" x="147.412109"/>
       <use xlink:href="#DejaVuSans-35" x="179.199219"/>
      </g>
     </g>
    </g>
    <g id="xtick_3">
     <g id="line2d_3">
      <g>
       <use xlink:href="#m0519fa0f53" x="157.819438" y="242.36" style="stroke: #000000; stroke-width: 0.8"/>
      </g>
     </g>
     <g id="text_3">
      <!-- 0.0 -->
      <g transform="translate(149.867875 256.958438) scale(0.1 -0.1)">
       <use xlink:href="#DejaVuSans-30"/>
       <use xlink:href="#DejaVuSans-2e" x="63.623047"/>
       <use xlink:href="#DejaVuSans-30" x="95.410156"/>
      </g>
     </g>
    </g>
    <g id="xtick_4">
     <g id="line2d_4">
      <g>
       <use xlink:href="#m0519fa0f53" x="207.467438" y="242.36" style="stroke: #000000; stroke-width: 0.8"/>
      </g>
     </g>
     <g id="text_4">
      <!-- 0.5 -->
      <g transform="translate(199.515875 256.958438) scale(0.1 -0.1)">
       <use xlink:href="#DejaVuSans-30"/>
       <use xlink:href="#DejaVuSans-2e" x="63.623047"/>
       <use xlink:href="#DejaVuSans-35" x="95.410156"/>
      </g>
     </g>
    </g>
    <g id="xtick_5">
     <g id="line2d_5">
      <g>
       <use xlink:href="#m0519fa0f53" x="257.115438" y="242.36" style="stroke: #000000; stroke-width: 0.8"/>
      </g>
     </g>
     <g id="text_5">
      <!-- 1.0 -->
      <g transform="translate(249.163875 256.958438) scale(0.1 -0.1)">
       <use xlink:href="#DejaVuSans-31"/>
       <use xlink:href="#DejaVuSans-2e" x="63.623047"/>
       <use xlink:href="#DejaVuSans-30" x="95.410156"/>
      </g>
     </g>
    </g>
    <g id="text_6">
     <!-- x -->
     <g transform="translate(154.860063 270.636562) scale(0.1 -0.1)">
      <defs>
       <path id="DejaVuSans-78" d="M 3513 3500 
L 2247 1797 
L 3578 0 
L 2900 0 
L 1881 1375 
L 863 0 
L 184 0 
L 1544 1831 
L 300 3500 
L 978 3500 
L 1906 2253 
L 2834 3500 
L 3513 3500 
z
" transform="scale(0.015625)"/>
      </defs>
      <use xlink:href="#DejaVuSans-78"/>
     </g>
    </g>
   </g>
   <g id="matplotlib.axis_2">
    <g id="ytick_1">
     <g id="line2d_6">
      <defs>
       <path id="m64db772087" d="M 0 0 
L -3.5 0 
" style="stroke: #000000; stroke-width: 0.8"/>
      </defs>
      <g>
       <use xlink:href="#m64db772087" x="58.523438" y="242.36" style="stroke: #000000; stroke-width: 0.8"/>
      </g>
     </g>
     <g id="text_7">
      <!-- −1.00 -->
      <g transform="translate(20.878125 246.159219) scale(0.1 -0.1)">
       <use xlink:href="#DejaVuSans-2212"/>
       <use xlink:href="#DejaVuSans-31" x="83.789062"/>
       <use xlink:href="#DejaVuSans-2e" x="147.412109"/>
       <use xlink:href="#DejaVuSans-30" x="179.199219"/>
       <use xlink:href="#DejaVuSans-30" x="242.822266"/>
      </g>
     </g>
    </g>
    <g id="ytick_2">
     <g id="line2d_7">
      <g>
       <use xlink:href="#m64db772087" x="58.523438" y="216.49" style="stroke: #000000; stroke-width: 0.8"/>
      </g>
     </g>
     <g id="text_8">
      <!-- −0.75 -->
      <g transform="translate(20.878125 220.289219) scale(0.1 -0.1)">
       <defs>
        <path id="DejaVuSans-37" d="M 525 4666 
L 3525 4666 
L 3525 4397 
L 1831 0 
L 1172 0 
L 2766 4134 
L 525 4134 
L 525 4666 
z
" transform="scale(0.015625)"/>
       </defs>
       <use xlink:href="#DejaVuSans-2212"/>
       <use xlink:href="#DejaVuSans-30" x="83.789062"/>
       <use xlink:href="#DejaVuSans-2e" x="147.412109"/>
       <use xlink:href="#DejaVuSans-37" x="179.199219"/>
       <use xlink:href="#DejaVuSans-35" x="242.822266"/>
      </g>
     </g>
    </g>
    <g id="ytick_3">
     <g id="line2d_8">
      <g>
       <use xlink:href="#m64db772087" x="58.523438" y="190.62" style="stroke: #000000; stroke-width: 0.8"/>
      </g>
     </g>
     <g id="text_9">
      <!-- −0.50 -->
      <g transform="translate(20.878125 194.419219) scale(0.1 -0.1)">
       <use xlink:href="#DejaVuSans-2212"/>
       <use xlink:href="#DejaVuSans-30" x="83.789062"/>
       <use xlink:href="#DejaVuSans-2e" x="147.412109"/>
       <use xlink:href="#DejaVuSans-35" x="179.199219"/>
       <use xlink:href="#DejaVuSans-30" x="242.822266"/>
      </g>
     </g>
    </g>
    <g id="ytick_4">
     <g id="line2d_9">
      <g>
       <use xlink:href="#m64db772087" x="58.523438" y="164.75" style="stroke: #000000; stroke-width: 0.8"/>
      </g>
     </g>
     <g id="text_10">
      <!-- −0.25 -->
      <g transform="translate(20.878125 168.549219) scale(0.1 -0.1)">
       <defs>
        <path id="DejaVuSans-32" d="M 1228 531 
L 3431 531 
L 3431 0 
L 469 0 
L 469 531 
Q 828 903 1448 1529 
Q 2069 2156 2228 2338 
Q 2531 2678 2651 2914 
Q 2772 3150 2772 3378 
Q 2772 3750 2511 3984 
Q 2250 4219 1831 4219 
Q 1534 4219 1204 4116 
Q 875 4013 500 3803 
L 500 4441 
Q 881 4594 1212 4672 
Q 1544 4750 1819 4750 
Q 2544 4750 2975 4387 
Q 3406 4025 3406 3419 
Q 3406 3131 3298 2873 
Q 3191 2616 2906 2266 
Q 2828 2175 2409 1742 
Q 1991 1309 1228 531 
z
" transform="scale(0.015625)"/>
       </defs>
       <use xlink:href="#DejaVuSans-2212"/>
       <use xlink:href="#DejaVuSans-30" x="83.789062"/>
       <use xlink:href="#DejaVuSans-2e" x="147.412109"/>
       <use xlink:href="#DejaVuSans-32" x="179.199219"/>
       <use xlink:href="#DejaVuSans-35" x="242.822266"/>
      </g>
     </g>
    </g>
    <g id="ytick_5">
     <g id="line2d_10">
      <g>
       <use xlink:href="#m64db772087" x="58.523438" y="138.88" style="stroke: #000000; stroke-width: 0.8"/>
      </g>
     </g>
     <g id="text_11">
      <!-- 0.00 -->
      <g transform="translate(29.257813 142.679219) scale(0.1 -0.1)">
       <use xlink:href="#DejaVuSans-30"/>
       <use xlink:href="#DejaVuSans-2e" x="63.623047"/>
       <use xlink:href="#DejaVuSans-30" x="95.410156"/>
       <use xlink:href="#DejaVuSans-30" x="159.033203"/>
      </g>
     </g>
    </g>
    <g id="ytick_6">
     <g id="line2d_11">
      <g>
       <use xlink:href="#m64db772087" x="58.523438" y="113.01" style="stroke: #000000; stroke-width: 0.8"/>
      </g>
     </g>
     <g id="text_12">
      <!-- 0.25 -->
      <g transform="translate(29.257813 116.809219) scale(0.1 -0.1)">
       <use xlink:href="#DejaVuSans-30"/>
       <use xlink:href="#DejaVuSans-2e" x="63.623047"/>
       <use xlink:href="#DejaVuSans-32" x="95.410156"/>
       <use xlink:href="#DejaVuSans-35" x="159.033203"/>
      </g>
     </g>
    </g>
    <g id="ytick_7">
     <g id="line2d_12">
      <g>
       <use xlink:href="#m64db772087" x="58.523438" y="87.14" style="stroke: #000000; stroke-width: 0.8"/>
      </g>
     </g>
     <g id="text_13">
      <!-- 0.50 -->
      <g transform="translate(29.257813 90.939219) scale(0.1 -0.1)">
       <use xlink:href="#DejaVuSans-30"/>
       <use xlink:href="#DejaVuSans-2e" x="63.623047"/>
       <use xlink:href="#DejaVuSans-35" x="95.410156"/>
       <use xlink:href="#DejaVuSans-30" x="159.033203"/>
      </g>
     </g>
    </g>
    <g id="ytick_8">
     <g id="line2d_13">
      <g>
       <use xlink:href="#m64db772087" x="58.523438" y="61.27" style="stroke: #000000; stroke-width: 0.8"/>
      </g>
     </g>
     <g id="text_14">
      <!-- 0.75 -->
      <g transform="translate(29.257813 65.069219) scale(0.1 -0.1)">
       <use xlink:href="#DejaVuSans-30"/>
       <use xlink:href="#DejaVuSans-2e" x="63.623047"/>
       <use xlink:href="#DejaVuSans-37" x="95.410156"/>
       <use xlink:href="#DejaVuSans-35" x="159.033203"/>
      </g>
     </g>
    </g>
    <g id="ytick_9">
     <g id="line2d_14">
      <g>
       <use xlink:href="#m64db772087" x="58.523438" y="35.4" style="stroke: #000000; stroke-width: 0.8"/>
      </g>
     </g>
     <g id="text_15">
      <!-- 1.00 -->
      <g transform="translate(29.257813 39.199219) scale(0.1 -0.1)">
       <use xlink:href="#DejaVuSans-31"/>
       <use xlink:href="#DejaVuSans-2e" x="63.623047"/>
       <use xlink:href="#DejaVuSans-30" x="95.410156"/>
       <use xlink:href="#DejaVuSans-30" x="159.033203"/>
      </g>
     </g>
    </g>
    <g id="text_16">
     <!-- y -->
     <g transform="translate(14.798438 141.839375) rotate(-90) scale(0.1 -0.1)">
      <defs>
       <path id="DejaVuSans-79" d="M 2059 -325 
Q 1816 -950 1584 -1140 
Q 1353 -1331 966 -1331 
L 506 -1331 
L 506 -850 
L 844 -850 
Q 1081 -850 1212 -737 
Q 1344 -625 1503 -206 
L 1606 56 
L 191 3500 
L 800 3500 
L 1894 763 
L 2988 3500 
L 3597 3500 
L 2059 -325 
z
" transform="scale(0.015625)"/>
      </defs>
      <use xlink:href="#DejaVuSans-79"/>
     </g>
    </g>
   </g>
   <g id="patch_3">
    <path d="M 58.523438 242.36 
L 58.523438 35.4 
" style="fill: none; stroke: #000000; stroke-width: 0.8; stroke-linejoin: miter; stroke-linecap: square"/>
   </g>
   <g id="patch_4">
    <path d="M 257.115438 242.36 
L 257.115438 35.4 
" style="fill: none; stroke: #000000; stroke-width: 0.8; stroke-linejoin: miter; stroke-linecap: square"/>
   </g>
   <g id="patch_5">
    <path d="M 58.523438 242.36 
L 257.115438 242.36 
" style="fill: none; stroke: #000000; stroke-width: 0.8; stroke-linejoin: miter; stroke-linecap: square"/>
   </g>
   <g id="patch_6">
    <path d="M 58.523438 35.4 
L 257.115438 35.4 
" style="fill: none; stroke: #000000; stroke-width: 0.8; stroke-linejoin: miter; stroke-linecap: square"/>
   </g>
   <g id="text_17">
    <!-- Mean -->
    <g transform="translate(141.471313 29.4) scale(0.12 -0.12)">
     <defs>
      <path id="DejaVuSans-4d" d="M 628 4666 
L 1569 4666 
L 2759 1491 
L 3956 4666 
L 4897 4666 
L 4897 0 
L 4281 0 
L 4281 4097 
L 3078 897 
L 2444 897 
L 1241 4097 
L 1241 0 
L 628 0 
L 628 4666 
z
" transform="scale(0.015625)"/>
      <path id="DejaVuSans-65" d="M 3597 1894 
L 3597 1613 
L 953 1613 
Q 991 1019 1311 708 
Q 1631 397 2203 397 
Q 2534 397 2845 478 
Q 3156 559 3463 722 
L 3463 178 
Q 3153 47 2828 -22 
Q 2503 -91 2169 -91 
Q 1331 -91 842 396 
Q 353 884 353 1716 
Q 353 2575 817 3079 
Q 1281 3584 2069 3584 
Q 2775 3584 3186 3129 
Q 3597 2675 3597 1894 
z
M 3022 2063 
Q 3016 2534 2758 2815 
Q 2500 3097 2075 3097 
Q 1594 3097 1305 2825 
Q 1016 2553 972 2059 
L 3022 2063 
z
" transform="scale(0.015625)"/>
      <path id="DejaVuSans-61" d="M 2194 1759 
Q 1497 1759 1228 1600 
Q 959 1441 959 1056 
Q 959 750 1161 570 
Q 1363 391 1709 391 
Q 2188 391 2477 730 
Q 2766 1069 2766 1631 
L 2766 1759 
L 2194 1759 
z
M 3341 1997 
L 3341 0 
L 2766 0 
L 2766 531 
Q 2569 213 2275 61 
Q 1981 -91 1556 -91 
Q 1019 -91 701 211 
Q 384 513 384 1019 
Q 384 1609 779 1909 
Q 1175 2209 1959 2209 
L 2766 2209 
L 2766 2266 
Q 2766 2663 2505 2880 
Q 2244 3097 1772 3097 
Q 1472 3097 1187 3025 
Q 903 2953 641 2809 
L 641 3341 
Q 956 3463 1253 3523 
Q 1550 3584 1831 3584 
Q 2591 3584 2966 3190 
Q 3341 2797 3341 1997 
z
" transform="scale(0.015625)"/>
      <path id="DejaVuSans-6e" d="M 3513 2113 
L 3513 0 
L 2938 0 
L 2938 2094 
Q 2938 2591 2744 2837 
Q 2550 3084 2163 3084 
Q 1697 3084 1428 2787 
Q 1159 2491 1159 1978 
L 1159 0 
L 581 0 
L 581 3500 
L 1159 3500 
L 1159 2956 
Q 1366 3272 1645 3428 
Q 1925 3584 2291 3584 
Q 2894 3584 3203 3211 
Q 3513 2838 3513 2113 
z
" transform="scale(0.015625)"/>
     </defs>
     <use xlink:href="#DejaVuSans-4d"/>
     <use xlink:href="#DejaVuSans-65" x="86.279297"/>
     <use xlink:href="#DejaVuSans-61" x="147.802734"/>
     <use xlink:href="#DejaVuSans-6e" x="209.082031"/>
    </g>
   </g>
   <g id="legend_1">
    <g id="patch_7">
     <path d="M 65.523438 291.942925 
L 158.85625 291.942925 
Q 160.85625 291.942925 160.85625 289.942925 
L 160.85625 276.2648 
Q 160.85625 274.2648 158.85625 274.2648 
L 65.523438 274.2648 
Q 63.523438 274.2648 63.523438 276.2648 
L 63.523438 289.942925 
Q 63.523438 291.942925 65.523438 291.942925 
z
" style="fill: #ffffff; opacity: 0.8; stroke: #cccccc; stroke-linejoin: miter"/>
    </g>
    <g id="PathCollection_2">
     <path d="M 77.523438 286.238237 
C 78.319047 286.238237 79.082177 285.922139 79.644758 285.359558 
C 80.207339 284.796977 80.523438 284.033847 80.523438 283.238237 
C 80.523438 282.442628 80.207339 281.679498 79.644758 281.116917 
C 79.082177 280.554336 78.319047 280.238237 77.523438 280.238237 
C 76.727828 280.238237 75.964698 280.554336 75.402117 281.116917 
C 74.839536 281.679498 74.523438 282.442628 74.523438 283.238237 
C 74.523438 284.033847 74.839536 284.796977 75.402117 285.359558 
C 75.964698 285.922139 76.727828 286.238237 77.523438 286.238237 
z
" style="fill: #1f958b; stroke: #bf00bf"/>
    </g>
    <g id="text_18">
     <!-- Sensor Data -->
     <g transform="translate(95.523438 285.863237) scale(0.1 -0.1)">
      <defs>
       <path id="DejaVuSans-53" d="M 3425 4513 
L 3425 3897 
Q 3066 4069 2747 4153 
Q 2428 4238 2131 4238 
Q 1616 4238 1336 4038 
Q 1056 3838 1056 3469 
Q 1056 3159 1242 3001 
Q 1428 2844 1947 2747 
L 2328 2669 
Q 3034 2534 3370 2195 
Q 3706 1856 3706 1288 
Q 3706 609 3251 259 
Q 2797 -91 1919 -91 
Q 1588 -91 1214 -16 
Q 841 59 441 206 
L 441 856 
Q 825 641 1194 531 
Q 1563 422 1919 422 
Q 2459 422 2753 634 
Q 3047 847 3047 1241 
Q 3047 1584 2836 1778 
Q 2625 1972 2144 2069 
L 1759 2144 
Q 1053 2284 737 2584 
Q 422 2884 422 3419 
Q 422 4038 858 4394 
Q 1294 4750 2059 4750 
Q 2388 4750 2728 4690 
Q 3069 4631 3425 4513 
z
" transform="scale(0.015625)"/>
       <path id="DejaVuSans-73" d="M 2834 3397 
L 2834 2853 
Q 2591 2978 2328 3040 
Q 2066 3103 1784 3103 
Q 1356 3103 1142 2972 
Q 928 2841 928 2578 
Q 928 2378 1081 2264 
Q 1234 2150 1697 2047 
L 1894 2003 
Q 2506 1872 2764 1633 
Q 3022 1394 3022 966 
Q 3022 478 2636 193 
Q 2250 -91 1575 -91 
Q 1294 -91 989 -36 
Q 684 19 347 128 
L 347 722 
Q 666 556 975 473 
Q 1284 391 1588 391 
Q 1994 391 2212 530 
Q 2431 669 2431 922 
Q 2431 1156 2273 1281 
Q 2116 1406 1581 1522 
L 1381 1569 
Q 847 1681 609 1914 
Q 372 2147 372 2553 
Q 372 3047 722 3315 
Q 1072 3584 1716 3584 
Q 2034 3584 2315 3537 
Q 2597 3491 2834 3397 
z
" transform="scale(0.015625)"/>
       <path id="DejaVuSans-6f" d="M 1959 3097 
Q 1497 3097 1228 2736 
Q 959 2375 959 1747 
Q 959 1119 1226 758 
Q 1494 397 1959 397 
Q 2419 397 2687 759 
Q 2956 1122 2956 1747 
Q 2956 2369 2687 2733 
Q 2419 3097 1959 3097 
z
M 1959 3584 
Q 2709 3584 3137 3096 
Q 3566 2609 3566 1747 
Q 3566 888 3137 398 
Q 2709 -91 1959 -91 
Q 1206 -91 779 398 
Q 353 888 353 1747 
Q 353 2609 779 3096 
Q 1206 3584 1959 3584 
z
" transform="scale(0.015625)"/>
       <path id="DejaVuSans-72" d="M 2631 2963 
Q 2534 3019 2420 3045 
Q 2306 3072 2169 3072 
Q 1681 3072 1420 2755 
Q 1159 2438 1159 1844 
L 1159 0 
L 581 0 
L 581 3500 
L 1159 3500 
L 1159 2956 
Q 1341 3275 1631 3429 
Q 1922 3584 2338 3584 
Q 2397 3584 2469 3576 
Q 2541 3569 2628 3553 
L 2631 2963 
z
" transform="scale(0.015625)"/>
       <path id="DejaVuSans-20" transform="scale(0.015625)"/>
       <path id="DejaVuSans-44" d="M 1259 4147 
L 1259 519 
L 2022 519 
Q 2988 519 3436 956 
Q 3884 1394 3884 2338 
Q 3884 3275 3436 3711 
Q 2988 4147 2022 4147 
L 1259 4147 
z
M 628 4666 
L 1925 4666 
Q 3281 4666 3915 4102 
Q 4550 3538 4550 2338 
Q 4550 1131 3912 565 
Q 3275 0 1925 0 
L 628 0 
L 628 4666 
z
" transform="scale(0.015625)"/>
       <path id="DejaVuSans-74" d="M 1172 4494 
L 1172 3500 
L 2356 3500 
L 2356 3053 
L 1172 3053 
L 1172 1153 
Q 1172 725 1289 603 
Q 1406 481 1766 481 
L 2356 481 
L 2356 0 
L 1766 0 
Q 1100 0 847 248 
Q 594 497 594 1153 
L 594 3053 
L 172 3053 
L 172 3500 
L 594 3500 
L 594 4494 
L 1172 4494 
z
" transform="scale(0.015625)"/>
      </defs>
      <use xlink:href="#DejaVuSans-53"/>
      <use xlink:href="#DejaVuSans-65" x="63.476562"/>
      <use xlink:href="#DejaVuSans-6e" x="125"/>
      <use xlink:href="#DejaVuSans-73" x="188.378906"/>
      <use xlink:href="#DejaVuSans-6f" x="240.478516"/>
      <use xlink:href="#DejaVuSans-72" x="301.660156"/>
      <use xlink:href="#DejaVuSans-20" x="342.773438"/>
      <use xlink:href="#DejaVuSans-44" x="374.560547"/>
      <use xlink:href="#DejaVuSans-61" x="451.5625"/>
      <use xlink:href="#DejaVuSans-74" x="512.841797"/>
      <use xlink:href="#DejaVuSans-61" x="552.050781"/>
     </g>
    </g>
   </g>
  </g>
  <g id="axes_2">
   <g id="patch_8">
    <path d="M 367.523437 242.36 
L 566.115437 242.36 
L 566.115437 35.4 
L 367.523437 35.4 
z
" style="fill: #ffffff"/>
   </g>
   <g id="QuadContourSet_2">
    <path d="M 371.576335 242.36 
L 375.629233 242.36 
L 379.682131 242.36 
L 383.735029 242.36 
L 387.787927 242.36 
L 391.840825 242.36 
L 395.893723 242.36 
L 399.946621 242.36 
L 403.999519 242.36 
L 408.052417 242.36 
L 412.105315 242.36 
L 416.158213 242.36 
L 420.211111 242.36 
L 424.264009 242.36 
L 428.316907 242.36 
L 432.369805 242.36 
L 436.422703 242.36 
L 440.475601 242.36 
L 444.528499 242.36 
L 448.581397 242.36 
L 452.634295 242.36 
L 456.687193 242.36 
L 460.740091 242.36 
L 464.792989 242.36 
L 468.845886 242.36 
L 472.898784 242.36 
L 476.951682 242.36 
L 481.00458 242.36 
L 485.057478 242.36 
L 489.110376 242.36 
L 493.163274 242.36 
L 497.216172 242.36 
L 501.26907 242.36 
L 505.321968 242.36 
L 509.374866 242.36 
L 513.427764 242.36 
L 517.480662 242.36 
L 521.53356 242.36 
L 525.586458 242.36 
L 529.639356 242.36 
L 533.692254 242.36 
L 537.745152 242.36 
L 541.79805 242.36 
L 545.850948 242.36 
L 549.903846 242.36 
L 553.956744 242.36 
L 558.009642 242.36 
L 562.06254 242.36 
L 566.115437 242.36 
L 566.115437 238.136327 
L 566.115437 233.912653 
L 566.115437 229.68898 
L 566.115437 225.465306 
L 566.115437 221.241633 
L 566.115437 217.017959 
L 566.115437 212.794286 
L 566.115437 208.570612 
L 566.115437 204.346939 
L 566.115437 200.123265 
L 566.115437 195.899592 
L 566.115437 191.675918 
L 566.115437 187.452245 
L 566.115437 183.228571 
L 566.115437 179.004898 
L 566.115437 174.781224 
L 566.115437 170.557551 
L 566.115437 166.333878 
L 566.115437 162.110204 
L 566.115437 157.886531 
L 566.115437 153.662857 
L 566.115437 149.439184 
L 566.115437 145.21551 
L 566.115437 140.991837 
L 566.115437 136.768163 
L 566.115437 132.54449 
L 566.115437 128.320816 
L 566.115437 124.097143 
L 566.115437 119.873469 
L 566.115437 115.649796 
L 566.115437 111.426122 
L 566.115437 107.202449 
L 566.115437 102.978776 
L 566.115437 98.755102 
L 566.115437 94.531429 
L 566.115437 90.307755 
L 566.115437 86.084082 
L 566.115437 81.860408 
L 566.115437 77.636735 
L 566.115437 73.413061 
L 566.115437 69.189388 
L 566.115437 64.965714 
L 566.115437 60.742041 
L 566.115437 56.518367 
L 566.115437 52.294694 
L 566.115437 48.07102 
L 566.115437 43.847347 
L 566.115437 39.623673 
L 566.115437 35.4 
L 562.06254 35.4 
L 558.009642 35.4 
L 553.956744 35.4 
L 549.903846 35.4 
L 545.850948 35.4 
L 541.79805 35.4 
L 537.745152 35.4 
L 533.692254 35.4 
L 529.639356 35.4 
L 525.586458 35.4 
L 521.53356 35.4 
L 517.480662 35.4 
L 513.427764 35.4 
L 509.374866 35.4 
L 505.321968 35.4 
L 501.26907 35.4 
L 497.216172 35.4 
L 493.163274 35.4 
L 489.110376 35.4 
L 485.057478 35.4 
L 481.00458 35.4 
L 476.951682 35.4 
L 472.898784 35.4 
L 468.845886 35.4 
L 464.792989 35.4 
L 460.740091 35.4 
L 456.687193 35.4 
L 452.634295 35.4 
L 448.581397 35.4 
L 444.528499 35.4 
L 440.475601 35.4 
L 436.422703 35.4 
L 432.369805 35.4 
L 428.316907 35.4 
L 424.264009 35.4 
L 420.211111 35.4 
L 416.158213 35.4 
L 412.105315 35.4 
L 408.052417 35.4 
L 403.999519 35.4 
L 399.946621 35.4 
L 395.893723 35.4 
L 391.840825 35.4 
L 387.787927 35.4 
L 383.735029 35.4 
L 379.682131 35.4 
L 375.629233 35.4 
L 371.576335 35.4 
L 367.523437 35.4 
L 367.523437 39.623673 
L 367.523437 43.847347 
L 367.523437 48.07102 
L 367.523437 52.294694 
L 367.523437 56.518367 
L 367.523437 60.742041 
L 367.523437 64.965714 
L 367.523437 69.189388 
L 367.523437 73.413061 
L 367.523437 77.636735 
L 367.523437 81.860408 
L 367.523437 86.084082 
L 367.523437 90.307755 
L 367.523437 94.531429 
L 367.523437 98.755102 
L 367.523437 102.978776 
L 367.523437 107.202449 
L 367.523437 111.426122 
L 367.523437 115.649796 
L 367.523437 119.873469 
L 367.523437 124.097143 
L 367.523437 128.320816 
L 367.523437 132.54449 
L 367.523437 136.768163 
L 367.523437 140.991837 
L 367.523437 145.21551 
L 367.523437 149.439184 
L 367.523437 153.662857 
L 367.523437 157.886531 
L 367.523437 162.110204 
L 367.523437 166.333878 
L 367.523437 170.557551 
L 367.523437 174.781224 
L 367.523437 179.004898 
L 367.523437 183.228571 
L 367.523437 187.452245 
L 367.523437 191.675918 
L 367.523437 195.899592 
L 367.523437 200.123265 
L 367.523437 204.346939 
L 367.523437 208.570612 
L 367.523437 212.794286 
L 367.523437 217.017959 
L 367.523437 221.241633 
L 367.523437 225.465306 
L 367.523437 229.68898 
L 367.523437 233.912653 
L 367.523437 238.136327 
L 367.523437 242.36 
z
" clip-path="url(#p0cdc1549d2)" style="fill: #3b528b"/>
    <path clip-path="url(#p0cdc1549d2)" style="fill: #5ec962"/>
   </g>
   <g id="matplotlib.axis_3">
    <g id="xtick_6">
     <g id="line2d_15">
      <g>
       <use xlink:href="#m0519fa0f53" x="367.523437" y="242.36" style="stroke: #000000; stroke-width: 0.8"/>
      </g>
     </g>
     <g id="text_19">
      <!-- −1.0 -->
      <g transform="translate(355.382031 256.958438) scale(0.1 -0.1)">
       <use xlink:href="#DejaVuSans-2212"/>
       <use xlink:href="#DejaVuSans-31" x="83.789062"/>
       <use xlink:href="#DejaVuSans-2e" x="147.412109"/>
       <use xlink:href="#DejaVuSans-30" x="179.199219"/>
      </g>
     </g>
    </g>
    <g id="xtick_7">
     <g id="line2d_16">
      <g>
       <use xlink:href="#m0519fa0f53" x="417.171437" y="242.36" style="stroke: #000000; stroke-width: 0.8"/>
      </g>
     </g>
     <g id="text_20">
      <!-- −0.5 -->
      <g transform="translate(405.030031 256.958438) scale(0.1 -0.1)">
       <use xlink:href="#DejaVuSans-2212"/>
       <use xlink:href="#DejaVuSans-30" x="83.789062"/>
       <use xlink:href="#DejaVuSans-2e" x="147.412109"/>
       <use xlink:href="#DejaVuSans-35" x="179.199219"/>
      </g>
     </g>
    </g>
    <g id="xtick_8">
     <g id="line2d_17">
      <g>
       <use xlink:href="#m0519fa0f53" x="466.819437" y="242.36" style="stroke: #000000; stroke-width: 0.8"/>
      </g>
     </g>
     <g id="text_21">
      <!-- 0.0 -->
      <g transform="translate(458.867875 256.958438) scale(0.1 -0.1)">
       <use xlink:href="#DejaVuSans-30"/>
       <use xlink:href="#DejaVuSans-2e" x="63.623047"/>
       <use xlink:href="#DejaVuSans-30" x="95.410156"/>
      </g>
     </g>
    </g>
    <g id="xtick_9">
     <g id="line2d_18">
      <g>
       <use xlink:href="#m0519fa0f53" x="516.467437" y="242.36" style="stroke: #000000; stroke-width: 0.8"/>
      </g>
     </g>
     <g id="text_22">
      <!-- 0.5 -->
      <g transform="translate(508.515875 256.958438) scale(0.1 -0.1)">
       <use xlink:href="#DejaVuSans-30"/>
       <use xlink:href="#DejaVuSans-2e" x="63.623047"/>
       <use xlink:href="#DejaVuSans-35" x="95.410156"/>
      </g>
     </g>
    </g>
    <g id="xtick_10">
     <g id="line2d_19">
      <g>
       <use xlink:href="#m0519fa0f53" x="566.115437" y="242.36" style="stroke: #000000; stroke-width: 0.8"/>
      </g>
     </g>
     <g id="text_23">
      <!-- 1.0 -->
      <g transform="translate(558.163875 256.958438) scale(0.1 -0.1)">
       <use xlink:href="#DejaVuSans-31"/>
       <use xlink:href="#DejaVuSans-2e" x="63.623047"/>
       <use xlink:href="#DejaVuSans-30" x="95.410156"/>
      </g>
     </g>
    </g>
    <g id="text_24">
     <!-- x -->
     <g transform="translate(463.860062 270.636562) scale(0.1 -0.1)">
      <use xlink:href="#DejaVuSans-78"/>
     </g>
    </g>
   </g>
   <g id="matplotlib.axis_4">
    <g id="ytick_10">
     <g id="line2d_20">
      <g>
       <use xlink:href="#m64db772087" x="367.523437" y="242.36" style="stroke: #000000; stroke-width: 0.8"/>
      </g>
     </g>
     <g id="text_25">
      <!-- −1.00 -->
      <g transform="translate(329.878125 246.159219) scale(0.1 -0.1)">
       <use xlink:href="#DejaVuSans-2212"/>
       <use xlink:href="#DejaVuSans-31" x="83.789062"/>
       <use xlink:href="#DejaVuSans-2e" x="147.412109"/>
       <use xlink:href="#DejaVuSans-30" x="179.199219"/>
       <use xlink:href="#DejaVuSans-30" x="242.822266"/>
      </g>
     </g>
    </g>
    <g id="ytick_11">
     <g id="line2d_21">
      <g>
       <use xlink:href="#m64db772087" x="367.523437" y="216.49" style="stroke: #000000; stroke-width: 0.8"/>
      </g>
     </g>
     <g id="text_26">
      <!-- −0.75 -->
      <g transform="translate(329.878125 220.289219) scale(0.1 -0.1)">
       <use xlink:href="#DejaVuSans-2212"/>
       <use xlink:href="#DejaVuSans-30" x="83.789062"/>
       <use xlink:href="#DejaVuSans-2e" x="147.412109"/>
       <use xlink:href="#DejaVuSans-37" x="179.199219"/>
       <use xlink:href="#DejaVuSans-35" x="242.822266"/>
      </g>
     </g>
    </g>
    <g id="ytick_12">
     <g id="line2d_22">
      <g>
       <use xlink:href="#m64db772087" x="367.523437" y="190.62" style="stroke: #000000; stroke-width: 0.8"/>
      </g>
     </g>
     <g id="text_27">
      <!-- −0.50 -->
      <g transform="translate(329.878125 194.419219) scale(0.1 -0.1)">
       <use xlink:href="#DejaVuSans-2212"/>
       <use xlink:href="#DejaVuSans-30" x="83.789062"/>
       <use xlink:href="#DejaVuSans-2e" x="147.412109"/>
       <use xlink:href="#DejaVuSans-35" x="179.199219"/>
       <use xlink:href="#DejaVuSans-30" x="242.822266"/>
      </g>
     </g>
    </g>
    <g id="ytick_13">
     <g id="line2d_23">
      <g>
       <use xlink:href="#m64db772087" x="367.523437" y="164.75" style="stroke: #000000; stroke-width: 0.8"/>
      </g>
     </g>
     <g id="text_28">
      <!-- −0.25 -->
      <g transform="translate(329.878125 168.549219) scale(0.1 -0.1)">
       <use xlink:href="#DejaVuSans-2212"/>
       <use xlink:href="#DejaVuSans-30" x="83.789062"/>
       <use xlink:href="#DejaVuSans-2e" x="147.412109"/>
       <use xlink:href="#DejaVuSans-32" x="179.199219"/>
       <use xlink:href="#DejaVuSans-35" x="242.822266"/>
      </g>
     </g>
    </g>
    <g id="ytick_14">
     <g id="line2d_24">
      <g>
       <use xlink:href="#m64db772087" x="367.523437" y="138.88" style="stroke: #000000; stroke-width: 0.8"/>
      </g>
     </g>
     <g id="text_29">
      <!-- 0.00 -->
      <g transform="translate(338.257812 142.679219) scale(0.1 -0.1)">
       <use xlink:href="#DejaVuSans-30"/>
       <use xlink:href="#DejaVuSans-2e" x="63.623047"/>
       <use xlink:href="#DejaVuSans-30" x="95.410156"/>
       <use xlink:href="#DejaVuSans-30" x="159.033203"/>
      </g>
     </g>
    </g>
    <g id="ytick_15">
     <g id="line2d_25">
      <g>
       <use xlink:href="#m64db772087" x="367.523437" y="113.01" style="stroke: #000000; stroke-width: 0.8"/>
      </g>
     </g>
     <g id="text_30">
      <!-- 0.25 -->
      <g transform="translate(338.257812 116.809219) scale(0.1 -0.1)">
       <use xlink:href="#DejaVuSans-30"/>
       <use xlink:href="#DejaVuSans-2e" x="63.623047"/>
       <use xlink:href="#DejaVuSans-32" x="95.410156"/>
       <use xlink:href="#DejaVuSans-35" x="159.033203"/>
      </g>
     </g>
    </g>
    <g id="ytick_16">
     <g id="line2d_26">
      <g>
       <use xlink:href="#m64db772087" x="367.523437" y="87.14" style="stroke: #000000; stroke-width: 0.8"/>
      </g>
     </g>
     <g id="text_31">
      <!-- 0.50 -->
      <g transform="translate(338.257812 90.939219) scale(0.1 -0.1)">
       <use xlink:href="#DejaVuSans-30"/>
       <use xlink:href="#DejaVuSans-2e" x="63.623047"/>
       <use xlink:href="#DejaVuSans-35" x="95.410156"/>
       <use xlink:href="#DejaVuSans-30" x="159.033203"/>
      </g>
     </g>
    </g>
    <g id="ytick_17">
     <g id="line2d_27">
      <g>
       <use xlink:href="#m64db772087" x="367.523437" y="61.27" style="stroke: #000000; stroke-width: 0.8"/>
      </g>
     </g>
     <g id="text_32">
      <!-- 0.75 -->
      <g transform="translate(338.257812 65.069219) scale(0.1 -0.1)">
       <use xlink:href="#DejaVuSans-30"/>
       <use xlink:href="#DejaVuSans-2e" x="63.623047"/>
       <use xlink:href="#DejaVuSans-37" x="95.410156"/>
       <use xlink:href="#DejaVuSans-35" x="159.033203"/>
      </g>
     </g>
    </g>
    <g id="ytick_18">
     <g id="line2d_28">
      <g>
       <use xlink:href="#m64db772087" x="367.523437" y="35.4" style="stroke: #000000; stroke-width: 0.8"/>
      </g>
     </g>
     <g id="text_33">
      <!-- 1.00 -->
      <g transform="translate(338.257812 39.199219) scale(0.1 -0.1)">
       <use xlink:href="#DejaVuSans-31"/>
       <use xlink:href="#DejaVuSans-2e" x="63.623047"/>
       <use xlink:href="#DejaVuSans-30" x="95.410156"/>
       <use xlink:href="#DejaVuSans-30" x="159.033203"/>
      </g>
     </g>
    </g>
    <g id="text_34">
     <!-- y -->
     <g transform="translate(323.798437 141.839375) rotate(-90) scale(0.1 -0.1)">
      <use xlink:href="#DejaVuSans-79"/>
     </g>
    </g>
   </g>
   <g id="line2d_29">
    <defs>
     <path id="m515876ee0e" d="M 0 0.5 
C 0.132602 0.5 0.25979 0.447317 0.353553 0.353553 
C 0.447317 0.25979 0.5 0.132602 0.5 0 
C 0.5 -0.132602 0.447317 -0.25979 0.353553 -0.353553 
C 0.25979 -0.447317 0.132602 -0.5 0 -0.5 
C -0.132602 -0.5 -0.25979 -0.447317 -0.353553 -0.353553 
C -0.447317 -0.25979 -0.5 -0.132602 -0.5 0 
C -0.5 0.132602 -0.447317 0.25979 -0.353553 0.353553 
C -0.25979 0.447317 -0.132602 0.5 0 0.5 
z
" style="stroke: #bf00bf"/>
    </defs>
    <g clip-path="url(#p0cdc1549d2)">
     <use xlink:href="#m515876ee0e" x="476.749037" y="133.706" style="fill: #bf00bf; stroke: #bf00bf"/>
     <use xlink:href="#m515876ee0e" x="377.453037" y="107.836" style="fill: #bf00bf; stroke: #bf00bf"/>
     <use xlink:href="#m515876ee0e" x="486.678637" y="97.488" style="fill: #bf00bf; stroke: #bf00bf"/>
     <use xlink:href="#m515876ee0e" x="546.256237" y="169.924" style="fill: #bf00bf; stroke: #bf00bf"/>
     <use xlink:href="#m515876ee0e" x="407.241837" y="107.836" style="fill: #bf00bf; stroke: #bf00bf"/>
     <use xlink:href="#m515876ee0e" x="496.608237" y="159.576" style="fill: #bf00bf; stroke: #bf00bf"/>
     <use xlink:href="#m515876ee0e" x="516.467437" y="225.8032" style="fill: #bf00bf; stroke: #bf00bf"/>
     <use xlink:href="#m515876ee0e" x="417.171437" y="50.922" style="fill: #bf00bf; stroke: #bf00bf"/>
     <use xlink:href="#m515876ee0e" x="465.826477" y="217.5248" style="fill: #bf00bf; stroke: #bf00bf"/>
     <use xlink:href="#m515876ee0e" x="377.453037" y="232.012" style="fill: #bf00bf; stroke: #bf00bf"/>
    </g>
   </g>
   <g id="patch_9">
    <path d="M 367.523437 242.36 
L 367.523437 35.4 
" style="fill: none; stroke: #000000; stroke-width: 0.8; stroke-linejoin: miter; stroke-linecap: square"/>
   </g>
   <g id="patch_10">
    <path d="M 566.115437 242.36 
L 566.115437 35.4 
" style="fill: none; stroke: #000000; stroke-width: 0.8; stroke-linejoin: miter; stroke-linecap: square"/>
   </g>
   <g id="patch_11">
    <path d="M 367.523437 242.36 
L 566.115437 242.36 
" style="fill: none; stroke: #000000; stroke-width: 0.8; stroke-linejoin: miter; stroke-linecap: square"/>
   </g>
   <g id="patch_12">
    <path d="M 367.523437 35.4 
L 566.115437 35.4 
" style="fill: none; stroke: #000000; stroke-width: 0.8; stroke-linejoin: miter; stroke-linecap: square"/>
   </g>
   <g id="text_35">
    <!-- 2$\sigma$ -->
    <g transform="translate(459.139437 29.4) scale(0.12 -0.12)">
     <defs>
      <path id="DejaVuSans-Oblique-3c3" d="M 2219 3044 
Q 1744 3044 1422 2700 
Q 1081 2341 969 1747 
Q 844 1119 1044 756 
Q 1241 397 1706 397 
Q 2166 397 2503 759 
Q 2844 1122 2966 1747 
Q 3075 2319 2881 2700 
Q 2700 3044 2219 3044 
z
M 2309 3503 
L 4219 3500 
L 4106 2925 
L 3463 2925 
Q 3706 2438 3575 1747 
Q 3406 888 2884 400 
Q 2359 -91 1609 -91 
Q 856 -91 525 400 
Q 194 888 363 1747 
Q 528 2609 1050 3097 
Q 1484 3503 2309 3503 
z
" transform="scale(0.015625)"/>
     </defs>
     <use xlink:href="#DejaVuSans-32" transform="translate(0 0.78125)"/>
     <use xlink:href="#DejaVuSans-Oblique-3c3" transform="translate(63.623047 0.78125)"/>
    </g>
   </g>
   <g id="legend_2">
    <g id="patch_13">
     <path d="M 374.523437 291.942925 
L 467.85625 291.942925 
Q 469.85625 291.942925 469.85625 289.942925 
L 469.85625 276.2648 
Q 469.85625 274.2648 467.85625 274.2648 
L 374.523437 274.2648 
Q 372.523437 274.2648 372.523437 276.2648 
L 372.523437 289.942925 
Q 372.523437 291.942925 374.523437 291.942925 
z
" style="fill: #ffffff; opacity: 0.8; stroke: #cccccc; stroke-linejoin: miter"/>
    </g>
    <g id="line2d_30">
     <g>
      <use xlink:href="#m515876ee0e" x="386.523437" y="282.363237" style="fill: #bf00bf; stroke: #bf00bf"/>
     </g>
    </g>
    <g id="text_36">
     <!-- Sensor Data -->
     <g transform="translate(404.523437 285.863237) scale(0.1 -0.1)">
      <use xlink:href="#DejaVuSans-53"/>
      <use xlink:href="#DejaVuSans-65" x="63.476562"/>
      <use xlink:href="#DejaVuSans-6e" x="125"/>
      <use xlink:href="#DejaVuSans-73" x="188.378906"/>
      <use xlink:href="#DejaVuSans-6f" x="240.478516"/>
      <use xlink:href="#DejaVuSans-72" x="301.660156"/>
      <use xlink:href="#DejaVuSans-20" x="342.773438"/>
      <use xlink:href="#DejaVuSans-44" x="374.560547"/>
      <use xlink:href="#DejaVuSans-61" x="451.5625"/>
      <use xlink:href="#DejaVuSans-74" x="512.841797"/>
      <use xlink:href="#DejaVuSans-61" x="552.050781"/>
     </g>
    </g>
   </g>
  </g>
  <g id="axes_3">
   <g id="patch_14">
    <path d="M 269.527438 242.36 
L 279.875438 242.36 
L 279.875438 35.4 
L 269.527438 35.4 
z
" style="fill: #ffffff"/>
   </g>
   <g id="QuadMesh_1">
    <path d="M 269.527438 242.36 
L 279.875438 242.36 
L 279.875438 231.467368 
L 269.527438 231.467368 
L 269.527438 242.36 
" clip-path="url(#p25459a00c9)" style="fill: #460a5d"/>
    <path d="M 269.527438 231.467368 
L 279.875438 231.467368 
L 279.875438 220.574737 
L 269.527438 220.574737 
L 269.527438 231.467368 
" clip-path="url(#p25459a00c9)" style="fill: #481d6f"/>
    <path d="M 269.527438 220.574737 
L 279.875438 220.574737 
L 279.875438 209.682105 
L 269.527438 209.682105 
L 269.527438 220.574737 
" clip-path="url(#p25459a00c9)" style="fill: #472e7c"/>
    <path d="M 269.527438 209.682105 
L 279.875438 209.682105 
L 279.875438 198.789474 
L 269.527438 198.789474 
L 269.527438 209.682105 
" clip-path="url(#p25459a00c9)" style="fill: #423f85"/>
    <path d="M 269.527438 198.789474 
L 279.875438 198.789474 
L 279.875438 187.896842 
L 269.527438 187.896842 
L 269.527438 198.789474 
" clip-path="url(#p25459a00c9)" style="fill: #3d4e8a"/>
    <path d="M 269.527438 187.896842 
L 279.875438 187.896842 
L 279.875438 177.004211 
L 269.527438 177.004211 
L 269.527438 187.896842 
" clip-path="url(#p25459a00c9)" style="fill: #365d8d"/>
    <path d="M 269.527438 177.004211 
L 279.875438 177.004211 
L 279.875438 166.111579 
L 269.527438 166.111579 
L 269.527438 177.004211 
" clip-path="url(#p25459a00c9)" style="fill: #306a8e"/>
    <path d="M 269.527438 166.111579 
L 279.875438 166.111579 
L 279.875438 155.218947 
L 269.527438 155.218947 
L 269.527438 166.111579 
" clip-path="url(#p25459a00c9)" style="fill: #2a778e"/>
    <path d="M 269.527438 155.218947 
L 279.875438 155.218947 
L 279.875438 144.326316 
L 269.527438 144.326316 
L 269.527438 155.218947 
" clip-path="url(#p25459a00c9)" style="fill: #25838e"/>
    <path d="M 269.527438 144.326316 
L 279.875438 144.326316 
L 279.875438 133.433684 
L 269.527438 133.433684 
L 269.527438 144.326316 
" clip-path="url(#p25459a00c9)" style="fill: #21918c"/>
    <path d="M 269.527438 133.433684 
L 279.875438 133.433684 
L 279.875438 122.541053 
L 269.527438 122.541053 
L 269.527438 133.433684 
" clip-path="url(#p25459a00c9)" style="fill: #1e9d89"/>
    <path d="M 269.527438 122.541053 
L 279.875438 122.541053 
L 279.875438 111.648421 
L 269.527438 111.648421 
L 269.527438 122.541053 
" clip-path="url(#p25459a00c9)" style="fill: #23a983"/>
    <path d="M 269.527438 111.648421 
L 279.875438 111.648421 
L 279.875438 100.755789 
L 269.527438 100.755789 
L 269.527438 111.648421 
" clip-path="url(#p25459a00c9)" style="fill: #32b67a"/>
    <path d="M 269.527438 100.755789 
L 279.875438 100.755789 
L 279.875438 89.863158 
L 269.527438 89.863158 
L 269.527438 100.755789 
" clip-path="url(#p25459a00c9)" style="fill: #48c16e"/>
    <path d="M 269.527438 89.863158 
L 279.875438 89.863158 
L 279.875438 78.970526 
L 269.527438 78.970526 
L 269.527438 89.863158 
" clip-path="url(#p25459a00c9)" style="fill: #65cb5e"/>
    <path d="M 269.527438 78.970526 
L 279.875438 78.970526 
L 279.875438 68.077895 
L 269.527438 68.077895 
L 269.527438 78.970526 
" clip-path="url(#p25459a00c9)" style="fill: #84d44b"/>
    <path d="M 269.527438 68.077895 
L 279.875438 68.077895 
L 279.875438 57.185263 
L 269.527438 57.185263 
L 269.527438 68.077895 
" clip-path="url(#p25459a00c9)" style="fill: #a8db34"/>
    <path d="M 269.527438 57.185263 
L 279.875438 57.185263 
L 279.875438 46.292632 
L 269.527438 46.292632 
L 269.527438 57.185263 
" clip-path="url(#p25459a00c9)" style="fill: #cae11f"/>
    <path d="M 269.527438 46.292632 
L 279.875438 46.292632 
L 279.875438 35.4 
L 269.527438 35.4 
L 269.527438 46.292632 
" clip-path="url(#p25459a00c9)" style="fill: #efe51c"/>
   </g>
   <g id="matplotlib.axis_5"/>
   <g id="matplotlib.axis_6">
    <g id="ytick_19">
     <g id="line2d_31">
      <defs>
       <path id="m17de17e633" d="M 0 0 
L 3.5 0 
" style="stroke: #000000; stroke-width: 0.8"/>
      </defs>
      <g>
       <use xlink:href="#m17de17e633" x="279.875438" y="242.36" style="stroke: #000000; stroke-width: 0.8"/>
      </g>
     </g>
     <g id="text_37">
      <!-- 2.8 -->
      <g transform="translate(286.875438 246.159219) scale(0.1 -0.1)">
       <defs>
        <path id="DejaVuSans-38" d="M 2034 2216 
Q 1584 2216 1326 1975 
Q 1069 1734 1069 1313 
Q 1069 891 1326 650 
Q 1584 409 2034 409 
Q 2484 409 2743 651 
Q 3003 894 3003 1313 
Q 3003 1734 2745 1975 
Q 2488 2216 2034 2216 
z
M 1403 2484 
Q 997 2584 770 2862 
Q 544 3141 544 3541 
Q 544 4100 942 4425 
Q 1341 4750 2034 4750 
Q 2731 4750 3128 4425 
Q 3525 4100 3525 3541 
Q 3525 3141 3298 2862 
Q 3072 2584 2669 2484 
Q 3125 2378 3379 2068 
Q 3634 1759 3634 1313 
Q 3634 634 3220 271 
Q 2806 -91 2034 -91 
Q 1263 -91 848 271 
Q 434 634 434 1313 
Q 434 1759 690 2068 
Q 947 2378 1403 2484 
z
M 1172 3481 
Q 1172 3119 1398 2916 
Q 1625 2713 2034 2713 
Q 2441 2713 2670 2916 
Q 2900 3119 2900 3481 
Q 2900 3844 2670 4047 
Q 2441 4250 2034 4250 
Q 1625 4250 1398 4047 
Q 1172 3844 1172 3481 
z
" transform="scale(0.015625)"/>
       </defs>
       <use xlink:href="#DejaVuSans-32"/>
       <use xlink:href="#DejaVuSans-2e" x="63.623047"/>
       <use xlink:href="#DejaVuSans-38" x="95.410156"/>
      </g>
     </g>
    </g>
    <g id="ytick_20">
     <g id="line2d_32">
      <g>
       <use xlink:href="#m17de17e633" x="279.875438" y="220.574737" style="stroke: #000000; stroke-width: 0.8"/>
      </g>
     </g>
     <g id="text_38">
      <!-- 2.9 -->
      <g transform="translate(286.875438 224.373956) scale(0.1 -0.1)">
       <defs>
        <path id="DejaVuSans-39" d="M 703 97 
L 703 672 
Q 941 559 1184 500 
Q 1428 441 1663 441 
Q 2288 441 2617 861 
Q 2947 1281 2994 2138 
Q 2813 1869 2534 1725 
Q 2256 1581 1919 1581 
Q 1219 1581 811 2004 
Q 403 2428 403 3163 
Q 403 3881 828 4315 
Q 1253 4750 1959 4750 
Q 2769 4750 3195 4129 
Q 3622 3509 3622 2328 
Q 3622 1225 3098 567 
Q 2575 -91 1691 -91 
Q 1453 -91 1209 -44 
Q 966 3 703 97 
z
M 1959 2075 
Q 2384 2075 2632 2365 
Q 2881 2656 2881 3163 
Q 2881 3666 2632 3958 
Q 2384 4250 1959 4250 
Q 1534 4250 1286 3958 
Q 1038 3666 1038 3163 
Q 1038 2656 1286 2365 
Q 1534 2075 1959 2075 
z
" transform="scale(0.015625)"/>
       </defs>
       <use xlink:href="#DejaVuSans-32"/>
       <use xlink:href="#DejaVuSans-2e" x="63.623047"/>
       <use xlink:href="#DejaVuSans-39" x="95.410156"/>
      </g>
     </g>
    </g>
    <g id="ytick_21">
     <g id="line2d_33">
      <g>
       <use xlink:href="#m17de17e633" x="279.875438" y="198.789474" style="stroke: #000000; stroke-width: 0.8"/>
      </g>
     </g>
     <g id="text_39">
      <!-- 3.0 -->
      <g transform="translate(286.875438 202.588692) scale(0.1 -0.1)">
       <defs>
        <path id="DejaVuSans-33" d="M 2597 2516 
Q 3050 2419 3304 2112 
Q 3559 1806 3559 1356 
Q 3559 666 3084 287 
Q 2609 -91 1734 -91 
Q 1441 -91 1130 -33 
Q 819 25 488 141 
L 488 750 
Q 750 597 1062 519 
Q 1375 441 1716 441 
Q 2309 441 2620 675 
Q 2931 909 2931 1356 
Q 2931 1769 2642 2001 
Q 2353 2234 1838 2234 
L 1294 2234 
L 1294 2753 
L 1863 2753 
Q 2328 2753 2575 2939 
Q 2822 3125 2822 3475 
Q 2822 3834 2567 4026 
Q 2313 4219 1838 4219 
Q 1578 4219 1281 4162 
Q 984 4106 628 3988 
L 628 4550 
Q 988 4650 1302 4700 
Q 1616 4750 1894 4750 
Q 2613 4750 3031 4423 
Q 3450 4097 3450 3541 
Q 3450 3153 3228 2886 
Q 3006 2619 2597 2516 
z
" transform="scale(0.015625)"/>
       </defs>
       <use xlink:href="#DejaVuSans-33"/>
       <use xlink:href="#DejaVuSans-2e" x="63.623047"/>
       <use xlink:href="#DejaVuSans-30" x="95.410156"/>
      </g>
     </g>
    </g>
    <g id="ytick_22">
     <g id="line2d_34">
      <g>
       <use xlink:href="#m17de17e633" x="279.875438" y="177.004211" style="stroke: #000000; stroke-width: 0.8"/>
      </g>
     </g>
     <g id="text_40">
      <!-- 3.2 -->
      <g transform="translate(286.875438 180.803429) scale(0.1 -0.1)">
       <use xlink:href="#DejaVuSans-33"/>
       <use xlink:href="#DejaVuSans-2e" x="63.623047"/>
       <use xlink:href="#DejaVuSans-32" x="95.410156"/>
      </g>
     </g>
    </g>
    <g id="ytick_23">
     <g id="line2d_35">
      <g>
       <use xlink:href="#m17de17e633" x="279.875438" y="155.218947" style="stroke: #000000; stroke-width: 0.8"/>
      </g>
     </g>
     <g id="text_41">
      <!-- 3.3 -->
      <g transform="translate(286.875438 159.018166) scale(0.1 -0.1)">
       <use xlink:href="#DejaVuSans-33"/>
       <use xlink:href="#DejaVuSans-2e" x="63.623047"/>
       <use xlink:href="#DejaVuSans-33" x="95.410156"/>
      </g>
     </g>
    </g>
    <g id="ytick_24">
     <g id="line2d_36">
      <g>
       <use xlink:href="#m17de17e633" x="279.875438" y="133.433684" style="stroke: #000000; stroke-width: 0.8"/>
      </g>
     </g>
     <g id="text_42">
      <!-- 3.4 -->
      <g transform="translate(286.875438 137.232903) scale(0.1 -0.1)">
       <defs>
        <path id="DejaVuSans-34" d="M 2419 4116 
L 825 1625 
L 2419 1625 
L 2419 4116 
z
M 2253 4666 
L 3047 4666 
L 3047 1625 
L 3713 1625 
L 3713 1100 
L 3047 1100 
L 3047 0 
L 2419 0 
L 2419 1100 
L 313 1100 
L 313 1709 
L 2253 4666 
z
" transform="scale(0.015625)"/>
       </defs>
       <use xlink:href="#DejaVuSans-33"/>
       <use xlink:href="#DejaVuSans-2e" x="63.623047"/>
       <use xlink:href="#DejaVuSans-34" x="95.410156"/>
      </g>
     </g>
    </g>
    <g id="ytick_25">
     <g id="line2d_37">
      <g>
       <use xlink:href="#m17de17e633" x="279.875438" y="111.648421" style="stroke: #000000; stroke-width: 0.8"/>
      </g>
     </g>
     <g id="text_43">
      <!-- 3.5 -->
      <g transform="translate(286.875438 115.44764) scale(0.1 -0.1)">
       <use xlink:href="#DejaVuSans-33"/>
       <use xlink:href="#DejaVuSans-2e" x="63.623047"/>
       <use xlink:href="#DejaVuSans-35" x="95.410156"/>
      </g>
     </g>
    </g>
    <g id="ytick_26">
     <g id="line2d_38">
      <g>
       <use xlink:href="#m17de17e633" x="279.875438" y="89.863158" style="stroke: #000000; stroke-width: 0.8"/>
      </g>
     </g>
     <g id="text_44">
      <!-- 3.6 -->
      <g transform="translate(286.875438 93.662377) scale(0.1 -0.1)">
       <defs>
        <path id="DejaVuSans-36" d="M 2113 2584 
Q 1688 2584 1439 2293 
Q 1191 2003 1191 1497 
Q 1191 994 1439 701 
Q 1688 409 2113 409 
Q 2538 409 2786 701 
Q 3034 994 3034 1497 
Q 3034 2003 2786 2293 
Q 2538 2584 2113 2584 
z
M 3366 4563 
L 3366 3988 
Q 3128 4100 2886 4159 
Q 2644 4219 2406 4219 
Q 1781 4219 1451 3797 
Q 1122 3375 1075 2522 
Q 1259 2794 1537 2939 
Q 1816 3084 2150 3084 
Q 2853 3084 3261 2657 
Q 3669 2231 3669 1497 
Q 3669 778 3244 343 
Q 2819 -91 2113 -91 
Q 1303 -91 875 529 
Q 447 1150 447 2328 
Q 447 3434 972 4092 
Q 1497 4750 2381 4750 
Q 2619 4750 2861 4703 
Q 3103 4656 3366 4563 
z
" transform="scale(0.015625)"/>
       </defs>
       <use xlink:href="#DejaVuSans-33"/>
       <use xlink:href="#DejaVuSans-2e" x="63.623047"/>
       <use xlink:href="#DejaVuSans-36" x="95.410156"/>
      </g>
     </g>
    </g>
    <g id="ytick_27">
     <g id="line2d_39">
      <g>
       <use xlink:href="#m17de17e633" x="279.875438" y="68.077895" style="stroke: #000000; stroke-width: 0.8"/>
      </g>
     </g>
     <g id="text_45">
      <!-- 3.8 -->
      <g transform="translate(286.875438 71.877113) scale(0.1 -0.1)">
       <use xlink:href="#DejaVuSans-33"/>
       <use xlink:href="#DejaVuSans-2e" x="63.623047"/>
       <use xlink:href="#DejaVuSans-38" x="95.410156"/>
      </g>
     </g>
    </g>
    <g id="ytick_28">
     <g id="line2d_40">
      <g>
       <use xlink:href="#m17de17e633" x="279.875438" y="46.292632" style="stroke: #000000; stroke-width: 0.8"/>
      </g>
     </g>
     <g id="text_46">
      <!-- 3.9 -->
      <g transform="translate(286.875438 50.09185) scale(0.1 -0.1)">
       <use xlink:href="#DejaVuSans-33"/>
       <use xlink:href="#DejaVuSans-2e" x="63.623047"/>
       <use xlink:href="#DejaVuSans-39" x="95.410156"/>
      </g>
     </g>
    </g>
   </g>
   <g id="LineCollection_1"/>
   <g id="patch_15">
    <path d="M 269.527438 242.36 
L 274.701437 242.36 
L 279.875438 242.36 
L 279.875438 35.4 
L 274.701437 35.4 
L 269.527438 35.4 
L 269.527438 242.36 
z
" style="fill: none; stroke: #000000; stroke-width: 0.8; stroke-linejoin: miter; stroke-linecap: square"/>
   </g>
  </g>
  <g id="axes_4">
   <g id="patch_16">
    <path d="M 578.527438 242.36 
L 588.875438 242.36 
L 588.875438 35.4 
L 578.527438 35.4 
z
" style="fill: #ffffff"/>
   </g>
   <g id="QuadMesh_2">
    <path d="M 578.527438 242.36 
L 588.875438 242.36 
L 588.875438 138.88 
L 578.527438 138.88 
L 578.527438 242.36 
" clip-path="url(#p22b2fc1102)" style="fill: #3b528b"/>
    <path d="M 578.527438 138.88 
L 588.875438 138.88 
L 588.875438 35.4 
L 578.527438 35.4 
L 578.527438 138.88 
" clip-path="url(#p22b2fc1102)" style="fill: #5ec962"/>
   </g>
   <g id="matplotlib.axis_7"/>
   <g id="matplotlib.axis_8">
    <g id="ytick_29">
     <g id="line2d_41">
      <g>
       <use xlink:href="#m17de17e633" x="588.875438" y="242.36" style="stroke: #000000; stroke-width: 0.8"/>
      </g>
     </g>
     <g id="text_47">
      <!-- 2.0e+00 -->
      <g transform="translate(595.875438 246.159219) scale(0.1 -0.1)">
       <defs>
        <path id="DejaVuSans-2b" d="M 2944 4013 
L 2944 2272 
L 4684 2272 
L 4684 1741 
L 2944 1741 
L 2944 0 
L 2419 0 
L 2419 1741 
L 678 1741 
L 678 2272 
L 2419 2272 
L 2419 4013 
L 2944 4013 
z
" transform="scale(0.015625)"/>
       </defs>
       <use xlink:href="#DejaVuSans-32"/>
       <use xlink:href="#DejaVuSans-2e" x="63.623047"/>
       <use xlink:href="#DejaVuSans-30" x="95.410156"/>
       <use xlink:href="#DejaVuSans-65" x="159.033203"/>
       <use xlink:href="#DejaVuSans-2b" x="220.556641"/>
       <use xlink:href="#DejaVuSans-30" x="304.345703"/>
       <use xlink:href="#DejaVuSans-30" x="367.96875"/>
      </g>
     </g>
    </g>
    <g id="ytick_30">
     <g id="line2d_42">
      <g>
       <use xlink:href="#m17de17e633" x="588.875438" y="138.88" style="stroke: #000000; stroke-width: 0.8"/>
      </g>
     </g>
     <g id="text_48">
      <!-- 2.0e+00 -->
      <g transform="translate(595.875438 142.679219) scale(0.1 -0.1)">
       <use xlink:href="#DejaVuSans-32"/>
       <use xlink:href="#DejaVuSans-2e" x="63.623047"/>
       <use xlink:href="#DejaVuSans-30" x="95.410156"/>
       <use xlink:href="#DejaVuSans-65" x="159.033203"/>
       <use xlink:href="#DejaVuSans-2b" x="220.556641"/>
       <use xlink:href="#DejaVuSans-30" x="304.345703"/>
       <use xlink:href="#DejaVuSans-30" x="367.96875"/>
      </g>
     </g>
    </g>
    <g id="ytick_31">
     <g id="line2d_43">
      <g>
       <use xlink:href="#m17de17e633" x="588.875438" y="35.4" style="stroke: #000000; stroke-width: 0.8"/>
      </g>
     </g>
     <g id="text_49">
      <!-- 2.0e+00 -->
      <g transform="translate(595.875438 39.199219) scale(0.1 -0.1)">
       <use xlink:href="#DejaVuSans-32"/>
       <use xlink:href="#DejaVuSans-2e" x="63.623047"/>
       <use xlink:href="#DejaVuSans-30" x="95.410156"/>
       <use xlink:href="#DejaVuSans-65" x="159.033203"/>
       <use xlink:href="#DejaVuSans-2b" x="220.556641"/>
       <use xlink:href="#DejaVuSans-30" x="304.345703"/>
       <use xlink:href="#DejaVuSans-30" x="367.96875"/>
      </g>
     </g>
    </g>
   </g>
   <g id="LineCollection_2"/>
   <g id="patch_17">
    <path d="M 578.527438 242.36 
L 583.701438 242.36 
L 588.875438 242.36 
L 588.875438 35.4 
L 583.701438 35.4 
L 578.527438 35.4 
L 578.527438 242.36 
z
" style="fill: none; stroke: #000000; stroke-width: 0.8; stroke-linejoin: miter; stroke-linecap: square"/>
   </g>
  </g>
  <g id="text_50">
   <!-- Prior -->
   <g transform="translate(313.602031 17.837812) scale(0.14 -0.14)">
    <defs>
     <path id="DejaVuSans-50" d="M 1259 4147 
L 1259 2394 
L 2053 2394 
Q 2494 2394 2734 2622 
Q 2975 2850 2975 3272 
Q 2975 3691 2734 3919 
Q 2494 4147 2053 4147 
L 1259 4147 
z
M 628 4666 
L 2053 4666 
Q 2838 4666 3239 4311 
Q 3641 3956 3641 3272 
Q 3641 2581 3239 2228 
Q 2838 1875 2053 1875 
L 1259 1875 
L 1259 0 
L 628 0 
L 628 4666 
z
" transform="scale(0.015625)"/>
     <path id="DejaVuSans-69" d="M 603 3500 
L 1178 3500 
L 1178 0 
L 603 0 
L 603 3500 
z
M 603 4863 
L 1178 4863 
L 1178 4134 
L 603 4134 
L 603 4863 
z
" transform="scale(0.015625)"/>
    </defs>
    <use xlink:href="#DejaVuSans-50"/>
    <use xlink:href="#DejaVuSans-72" x="58.552734"/>
    <use xlink:href="#DejaVuSans-69" x="99.666016"/>
    <use xlink:href="#DejaVuSans-6f" x="127.449219"/>
    <use xlink:href="#DejaVuSans-72" x="188.630859"/>
   </g>
  </g>
 </g>
 <defs>
  <clipPath id="pb0a777f75b">
   <rect x="58.523438" y="35.4" width="198.592" height="206.96"/>
  </clipPath>
  <clipPath id="p0cdc1549d2">
   <rect x="367.523437" y="35.4" width="198.592" height="206.96"/>
  </clipPath>
  <clipPath id="p25459a00c9">
   <rect x="269.527438" y="35.4" width="10.348" height="206.96"/>
  </clipPath>
  <clipPath id="p22b2fc1102">
   <rect x="578.527438" y="35.4" width="10.348" height="206.96"/>
  </clipPath>
 </defs>
</svg>
